
<svg height="70px" xmlns="http://www.w3.org/2000/svg" version="1.1" viewBox="0.00 0.00 348.00 116.00">
<g fill="#ffffff">
<path d="
  M 5.06 61.38
  L 5.06 0.65
  L 5.38 0.33
  L 79.51 0.33
  L 79.65 0.36
  L 79.79 0.50
  L 83.47 7.23
  L 83.50 7.44
  L 83.19 7.70
  L 12.72 7.70
  L 12.71 7.70
  L 12.40 8.02
  L 12.40 61.38
  L 12.34 61.57
  L 12.08 61.70
  L 5.38 61.70
  L 5.06 61.38
  Z"
/>
<path d="
  M 31.65 27.27
  L 31.65 77.11
  L 31.58 77.31
  L 31.33 77.43
  L 24.59 77.43
  L 24.27 77.11
  L 24.27 19.91
  L 24.59 19.59
  L 79.51 19.59
  L 79.79 19.76
  L 83.45 26.48
  L 83.45 26.79
  L 83.17 26.95
  L 31.97 26.95
  L 31.65 27.27
  Z"
/>
<path d="
  M 83.49 115.66
  L 76.78 115.66
  L 76.44 115.32
  L 76.44 62.03
  L 76.34 61.79
  L 76.10 61.69
  L 51.21 61.69
  L 50.87 62.03
  L 50.87 92.91
  L 50.53 93.25
  L 43.84 93.25
  L 43.50 92.91
  L 43.50 39.15
  L 43.60 38.91
  L 43.84 38.81
  L 50.55 38.81
  L 50.89 39.15
  L 50.89 49.97
  L 50.71 50.27
  L 44.45 53.69
  L 44.27 53.96
  L 44.36 54.22
  L 44.61 54.33
  L 76.10 54.33
  L 76.44 53.99
  L 76.44 39.15
  L 76.78 38.81
  L 83.49 38.81
  L 83.73 38.91
  L 83.83 39.15
  L 83.83 115.32
  L 83.49 115.66
  Z"
/>
<path d="
  M 108.33 41.82
  L 108.33 48.95
  L 108.44 49.21
  L 108.70 49.32
  L 117.35 49.32
  L 117.50 49.35
  L 117.68 49.51
  L 118.67 51.32
  L 118.70 51.61
  L 118.34 51.87
  L 108.73 51.87
  L 108.47 51.98
  L 108.36 52.24
  L 108.36 61.31
  L 108.25 61.57
  L 107.99 61.68
  L 105.74 61.68
  L 105.48 61.57
  L 105.37 61.31
  L 105.37 39.18
  L 105.48 38.92
  L 105.74 38.81
  L 118.02 38.81
  L 118.35 39.00
  L 119.38 40.90
  L 119.37 41.27
  L 119.06 41.45
  L 108.70 41.45
  L 108.34 41.75
  L 108.33 41.82
  Z"
/>
<path d="
  M 132.38 59.44
  L 134.39 59.16
  L 135.87 58.38
  L 136.81 57.32
  L 137.44 55.98
  L 137.80 54.30
  L 137.91 52.23
  L 137.86 39.05
  L 138.11 38.80
  L 140.57 38.80
  L 140.84 39.08
  L 140.83 53.74
  L 140.68 55.59
  L 140.24 57.24
  L 139.54 58.67
  L 138.58 59.88
  L 137.35 60.87
  L 135.90 61.59
  L 134.24 62.03
  L 132.38 62.19
  L 130.53 62.04
  L 128.87 61.60
  L 127.41 60.88
  L 126.19 59.90
  L 125.22 58.70
  L 124.51 57.26
  L 124.07 55.61
  L 123.91 53.76
  L 123.85 39.11
  L 124.12 38.83
  L 126.58 38.82
  L 126.83 39.07
  L 126.82 52.24
  L 126.94 54.32
  L 127.31 55.99
  L 127.94 57.33
  L 128.88 58.39
  L 130.37 59.17
  L 132.38 59.44
  Z"
/>
<path d="
  M 149.96 42.12
  L 149.97 61.31
  L 149.93 61.48
  L 149.60 61.68
  L 147.47 61.68
  L 147.31 61.65
  L 147.09 61.30
  L 147.08 39.39
  L 147.25 38.97
  L 147.67 38.79
  L 147.67 38.79
  L 150.76 38.79
  L 151.31 38.95
  L 151.71 39.36
  L 162.04 58.27
  L 162.33 58.27
  L 162.35 58.19
  L 162.35 40.98
  L 162.49 40.46
  L 162.88 40.09
  L 164.83 39.02
  L 165.08 39.01
  L 165.24 39.20
  L 165.25 39.27
  L 165.26 61.14
  L 165.09 61.53
  L 164.70 61.69
  L 161.42 61.70
  L 160.93 61.56
  L 160.57 61.20
  L 150.12 42.08
  L 150.06 42.03
  L 149.96 42.12
  Z"
/>
<path d="
  M 171.62 39.08
  L 171.89 38.81
  L 179.78 38.83
  L 181.86 39.03
  L 183.87 39.63
  L 185.71 40.59
  L 187.33 41.89
  L 188.65 43.47
  L 189.64 45.27
  L 190.24 47.22
  L 190.44 49.25
  L 190.44 51.31
  L 190.23 53.34
  L 189.62 55.28
  L 188.63 57.08
  L 187.30 58.65
  L 185.68 59.95
  L 183.83 60.90
  L 181.82 61.49
  L 179.74 61.69
  L 171.85 61.67
  L 171.71 61.64
  L 171.58 61.40
  L 171.62 39.08
  Z
  M 174.60 41.80
  L 174.58 58.74
  L 174.59 58.84
  L 174.92 59.09
  L 179.30 59.10
  L 180.87 58.95
  L 182.37 58.51
  L 183.76 57.78
  L 184.97 56.81
  L 185.97 55.62
  L 186.71 54.27
  L 187.17 52.80
  L 187.33 51.27
  L 187.33 49.31
  L 187.18 47.78
  L 186.73 46.31
  L 185.99 44.95
  L 185.00 43.76
  L 183.78 42.79
  L 182.40 42.06
  L 180.90 41.61
  L 179.34 41.46
  L 174.96 41.45
  L 174.71 41.55
  L 174.60 41.80
  Z"
/>
<path d="
  M 202.24 54.85
  L 197.85 54.85
  L 197.36 55.00
  L 197.05 55.40
  L 194.86 61.15
  L 194.55 61.53
  L 194.09 61.67
  L 192.00 61.68
  L 191.94 61.67
  L 191.71 61.51
  L 191.69 61.23
  L 199.99 39.53
  L 200.27 39.12
  L 200.72 38.90
  L 202.24 38.81
  L 203.75 38.90
  L 204.20 39.12
  L 204.48 39.52
  L 212.80 61.22
  L 212.78 61.50
  L 212.55 61.66
  L 212.49 61.67
  L 210.40 61.67
  L 209.94 61.52
  L 209.63 61.14
  L 207.44 55.40
  L 207.12 55.00
  L 206.64 54.85
  L 202.24 54.85
  Z
  M 201.98 41.44
  L 198.30 51.88
  L 198.29 51.93
  L 198.35 52.20
  L 198.60 52.31
  L 205.82 52.31
  L 206.18 52.14
  L 206.28 51.75
  L 206.26 51.67
  L 202.34 41.43
  L 202.29 41.36
  L 201.98 41.44
  Z"
/>
<path d="
  M 236.95 41.72
  L 236.34 42.68
  L 235.79 44.01
  L 229.71 61.03
  L 229.33 61.52
  L 228.74 61.70
  L 226.75 61.70
  L 226.35 61.57
  L 226.09 61.24
  L 218.78 42.15
  L 218.76 42.13
  L 218.70 42.17
  L 218.70 61.27
  L 218.58 61.56
  L 218.29 61.68
  L 216.15 61.68
  L 215.90 61.58
  L 215.80 61.33
  L 215.80 39.36
  L 215.96 38.96
  L 216.36 38.80
  L 219.78 38.80
  L 220.25 38.95
  L 220.56 39.33
  L 227.78 58.21
  L 227.97 58.25
  L 228.00 58.21
  L 234.60 39.51
  L 234.99 39.00
  L 235.61 38.80
  L 239.12 38.80
  L 239.52 38.97
  L 239.69 39.37
  L 239.69 61.14
  L 239.53 61.52
  L 239.15 61.68
  L 237.11 61.68
  L 237.11 61.68
  L 236.74 61.53
  L 236.60 61.16
  L 236.97 41.73
  L 236.95 41.72
  L 236.95 41.72
  Z"
/>
<path d="
  M 246.13 61.24
  L 246.13 39.26
  L 246.26 38.94
  L 246.58 38.81
  L 246.58 38.81
  L 259.52 38.81
  L 259.67 38.84
  L 259.92 39.04
  L 260.87 40.78
  L 260.91 41.12
  L 260.47 41.45
  L 249.53 41.45
  L 249.21 41.58
  L 249.08 41.90
  L 249.08 48.23
  L 249.21 48.55
  L 249.53 48.68
  L 249.53 48.68
  L 259.51 48.68
  L 259.82 48.80
  L 259.91 48.91
  L 260.87 50.67
  L 260.90 51.05
  L 260.48 51.34
  L 249.55 51.34
  L 249.23 51.47
  L 249.10 51.79
  L 249.10 58.66
  L 249.23 58.98
  L 249.55 59.11
  L 259.51 59.11
  L 259.91 59.34
  L 260.83 61.02
  L 260.82 61.47
  L 260.43 61.69
  L 246.58 61.69
  L 246.26 61.56
  L 246.13 61.24
  Z"
/>
<path d="
  M 269.19 42.13
  L 269.19 61.30
  L 269.08 61.56
  L 268.82 61.67
  L 266.69 61.67
  L 266.42 61.56
  L 266.31 61.29
  L 266.31 39.41
  L 266.48 38.99
  L 266.90 38.81
  L 266.90 38.81
  L 269.99 38.81
  L 270.54 38.96
  L 270.94 39.38
  L 281.25 58.27
  L 281.54 58.27
  L 281.56 58.19
  L 281.56 41.00
  L 281.70 40.48
  L 282.09 40.11
  L 284.04 39.04
  L 284.29 39.03
  L 284.45 39.22
  L 284.46 39.29
  L 284.46 61.14
  L 284.46 61.14
  L 284.30 61.53
  L 283.90 61.69
  L 280.63 61.69
  L 280.14 61.56
  L 279.78 61.19
  L 269.35 42.09
  L 269.29 42.05
  L 269.19 42.13
  Z"
/>
<path d="
  M 296.82 38.81
  L 305.55 38.82
  L 305.55 38.82
  L 306.03 39.02
  L 306.22 39.49
  L 306.22 40.75
  L 306.21 40.89
  L 305.96 41.30
  L 305.51 41.46
  L 298.79 41.46
  L 298.44 41.60
  L 298.29 41.95
  L 298.29 61.05
  L 298.10 61.51
  L 297.65 61.70
  L 296.79 61.71
  L 295.96 61.70
  L 295.51 61.51
  L 295.32 61.05
  L 295.34 41.95
  L 295.20 41.60
  L 294.84 41.46
  L 288.12 41.45
  L 287.62 41.24
  L 287.41 40.74
  L 287.41 39.48
  L 287.61 39.01
  L 288.08 38.81
  L 288.08 38.81
  L 296.82 38.81
  Z"
/>
<path d="
  M 314.83 54.86
  L 310.43 54.86
  L 309.95 55.01
  L 309.63 55.41
  L 307.44 61.15
  L 307.13 61.53
  L 306.67 61.68
  L 304.58 61.68
  L 304.52 61.67
  L 304.29 61.51
  L 304.27 61.23
  L 312.59 39.54
  L 312.87 39.13
  L 313.32 38.91
  L 314.83 38.83
  L 316.35 38.91
  L 316.80 39.13
  L 317.08 39.54
  L 325.38 61.24
  L 325.36 61.52
  L 325.13 61.68
  L 325.13 61.68
  L 325.07 61.69
  L 322.98 61.68
  L 322.52 61.54
  L 322.21 61.16
  L 320.02 55.41
  L 319.71 55.01
  L 319.22 54.86
  L 314.83 54.86
  Z
  M 310.93 51.85
  L 310.96 52.13
  L 311.25 52.30
  L 318.42 52.31
  L 318.74 52.08
  L 318.74 51.86
  L 315.17 41.68
  L 315.00 41.48
  L 314.72 41.48
  L 314.53 41.68
  L 310.93 51.85
  Z"
/>
<path d="
  M 328.37 61.31
  L 328.37 39.20
  L 328.48 38.93
  L 328.75 38.82
  L 330.96 38.82
  L 331.23 38.93
  L 331.34 39.20
  L 331.34 58.70
  L 331.45 58.97
  L 331.72 59.08
  L 341.36 59.08
  L 341.70 59.28
  L 342.70 61.13
  L 342.72 61.45
  L 342.37 61.69
  L 328.75 61.69
  L 328.48 61.58
  L 328.37 61.31
  Z"
/>
<path d="
  M 136.7368 69.7202
  L 138.8020 69.9413
  L 140.7903 70.6177
  L 142.6253 71.7235
  L 144.2364 73.2162
  L 145.5617 75.0383
  L 146.5503 77.1199
  L 147.1642 79.3810
  L 147.3799 81.7346
  L 147.1889 84.0904
  L 146.5987 86.3577
  L 145.6319 88.4496
  L 144.3258 90.2855
  L 142.7304 91.7949
  L 140.9071 92.9199
  L 138.9260 93.6171
  L 136.8632 93.8598
  L 134.7980 93.6387
  L 132.8097 92.9623
  L 130.9747 91.8565
  L 129.3636 90.3638
  L 128.0383 88.5417
  L 127.0497 86.4601
  L 126.4358 84.1990
  L 126.2201 81.8454
  L 126.4111 79.4896
  L 127.0013 77.2223
  L 127.9681 75.1304
  L 129.2742 73.2945
  L 130.8696 71.7851
  L 132.6929 70.6601
  L 134.6740 69.9629
  L 136.7368 69.7202
  Z
  M 136.7900 72.4700
  L 135.3385 72.6489
  L 133.9428 73.1787
  L 132.6566 74.0390
  L 131.5291 75.1968
  L 130.6039 76.6076
  L 129.9163 78.2172
  L 129.4930 79.9637
  L 129.3500 81.7800
  L 129.4930 83.5963
  L 129.9163 85.3428
  L 130.6039 86.9524
  L 131.5291 88.3632
  L 132.6566 89.5210
  L 133.9428 90.3813
  L 135.3385 90.9111
  L 136.7900 91.0900
  L 138.2415 90.9111
  L 139.6372 90.3813
  L 140.9234 89.5210
  L 142.0509 88.3632
  L 142.9761 86.9524
  L 143.6637 85.3428
  L 144.0870 83.5963
  L 144.2300 81.7800
  L 144.0870 79.9637
  L 143.6637 78.2172
  L 142.9761 76.6076
  L 142.0509 75.1968
  L 140.9234 74.0390
  L 139.6372 73.1787
  L 138.2415 72.6489
  L 136.7900 72.4700
  Z"
/>
<path d="
  M 166.75 77.14
  L 166.52 77.38
  L 166.52 77.38
  L 163.84 77.38
  L 163.61 77.15
  L 163.37 75.64
  L 162.77 74.44
  L 161.90 73.52
  L 160.83 72.88
  L 159.53 72.49
  L 158.18 72.40
  L 156.81 72.60
  L 155.59 73.11
  L 154.68 73.83
  L 154.07 74.79
  L 153.84 75.89
  L 154.08 77.22
  L 154.70 78.09
  L 155.82 78.88
  L 157.33 79.50
  L 159.64 80.18
  L 162.33 80.97
  L 164.18 81.77
  L 165.60 82.77
  L 166.53 83.95
  L 166.90 84.81
  L 167.26 86.99
  L 166.92 89.07
  L 165.92 90.81
  L 164.39 92.17
  L 162.35 93.18
  L 160.05 93.69
  L 157.70 93.69
  L 155.43 93.16
  L 153.46 92.12
  L 151.98 90.69
  L 150.86 88.60
  L 150.40 86.15
  L 150.52 85.80
  L 150.86 85.65
  L 150.87 85.65
  L 153.05 85.65
  L 153.42 85.80
  L 153.58 86.17
  L 153.90 87.97
  L 154.78 89.49
  L 156.29 90.64
  L 158.35 91.18
  L 160.55 90.99
  L 162.62 90.10
  L 163.58 89.22
  L 164.11 88.16
  L 164.20 86.95
  L 163.82 85.76
  L 163.07 84.79
  L 161.95 84.04
  L 159.60 83.34
  L 156.41 82.45
  L 154.15 81.55
  L 152.53 80.50
  L 151.61 79.33
  L 151.10 77.98
  L 150.86 76.72
  L 150.86 75.46
  L 151.12 74.31
  L 152.02 72.67
  L 153.41 71.38
  L 155.29 70.41
  L 157.42 69.89
  L 159.60 69.84
  L 161.73 70.29
  L 163.61 71.22
  L 165.04 72.51
  L 165.72 73.48
  L 166.24 74.62
  L 166.75 77.14
  Z"
/>
<path d="
  M 195.20 70.52
  L 195.20 92.99
  L 195.13 93.16
  L 194.96 93.23
  L 192.45 93.23
  L 192.20 92.98
  L 192.20 72.30
  L 192.47 71.85
  L 195.05 70.43
  L 195.20 70.52
  Z"
/>
<path d="
  M 225.57 70.36
  L 227.09 70.44
  L 227.54 70.66
  L 227.82 71.07
  L 236.16 92.83
  L 236.14 93.11
  L 235.91 93.27
  L 235.85 93.28
  L 233.75 93.28
  L 233.29 93.13
  L 232.98 92.75
  L 230.78 86.99
  L 230.46 86.59
  L 229.98 86.44
  L 225.57 86.44
  L 221.16 86.44
  L 220.67 86.59
  L 220.36 86.99
  L 218.16 92.75
  L 217.86 93.14
  L 217.39 93.28
  L 215.29 93.28
  L 215.23 93.28
  L 215.00 93.12
  L 214.98 92.83
  L 223.31 71.07
  L 223.60 70.66
  L 224.05 70.44
  L 225.57 70.36
  Z
  M 221.65 83.32
  L 221.69 83.64
  L 221.97 83.78
  L 229.17 83.82
  L 229.43 83.70
  L 229.49 83.37
  L 225.95 73.29
  L 225.70 73.08
  L 225.31 73.29
  L 221.65 83.32
  Z"
/>
<path d="
  M 252.68 91.24
  L 253.59 92.61
  L 253.64 92.72
  L 253.58 93.08
  L 253.25 93.24
  L 239.48 93.22
  L 239.48 93.22
  L 239.15 92.88
  L 239.14 70.69
  L 239.45 70.38
  L 241.79 70.36
  L 241.80 70.36
  L 242.13 70.70
  L 242.11 90.22
  L 242.22 90.50
  L 242.50 90.62
  L 242.50 90.62
  L 251.48 90.60
  L 252.16 90.77
  L 252.68 91.24
  Z"
/>
<path d="
  M 272.80 93.22
  L 271.97 93.21
  L 271.52 93.01
  L 271.34 92.56
  L 271.34 73.51
  L 271.19 73.16
  L 270.84 73.02
  L 264.14 73.02
  L 263.64 72.81
  L 263.43 72.31
  L 263.43 71.05
  L 263.63 70.58
  L 264.09 70.38
  L 264.10 70.38
  L 272.81 70.38
  L 281.52 70.38
  L 281.52 70.38
  L 281.99 70.57
  L 282.19 71.05
  L 282.19 72.30
  L 281.98 72.80
  L 281.48 73.01
  L 274.78 73.02
  L 274.43 73.16
  L 274.28 73.51
  L 274.30 92.56
  L 274.11 93.01
  L 273.66 93.21
  L 272.80 93.22
  Z"
/>
<path d="
  M 294.25 80.89
  L 294.31 80.88
  L 294.38 80.87
  L 294.57 80.69
  L 300.09 71.05
  L 300.59 70.55
  L 301.27 70.36
  L 303.35 70.36
  L 303.46 70.38
  L 303.71 70.61
  L 303.67 70.95
  L 295.97 83.28
  L 295.72 84.17
  L 295.72 92.62
  L 295.57 93.02
  L 295.19 93.21
  L 294.24 93.24
  L 293.30 93.20
  L 292.92 93.02
  L 292.76 92.62
  L 292.77 84.17
  L 292.52 83.28
  L 284.83 70.94
  L 284.80 70.60
  L 285.05 70.37
  L 285.05 70.37
  L 285.15 70.35
  L 287.23 70.35
  L 287.91 70.54
  L 288.41 71.05
  L 293.92 80.69
  L 294.11 80.87
  L 294.18 80.88
  L 294.25 80.89
  Z"
/>
<path d="
  M 122.62 93.23
  L 120.36 93.23
  L 120.02 92.89
  L 120.02 82.99
  L 119.68 82.65
  L 108.69 82.65
  L 108.35 82.99
  L 108.35 92.89
  L 108.01 93.23
  L 105.72 93.23
  L 105.52 93.17
  L 105.38 92.89
  L 105.38 72.17
  L 105.56 71.87
  L 107.87 70.61
  L 108.17 70.59
  L 108.37 70.90
  L 108.37 79.73
  L 108.71 80.07
  L 119.68 80.07
  L 120.02 79.73
  L 120.02 72.19
  L 120.20 71.89
  L 122.46 70.66
  L 122.74 70.64
  L 122.96 70.96
  L 122.96 92.89
  L 122.86 93.13
  L 122.62 93.23
  Z"
/>
<path d="
  M 175.08 92.95
  L 175.02 93.12
  L 174.80 93.23
  L 172.35 93.23
  L 172.14 93.01
  L 172.14 70.86
  L 172.27 70.54
  L 172.58 70.41
  L 172.58 70.41
  L 175.01 70.34
  L 179.41 70.29
  L 182.54 70.66
  L 184.88 71.51
  L 185.79 72.12
  L 186.57 72.90
  L 187.56 74.74
  L 187.93 77.02
  L 187.68 79.52
  L 187.29 80.60
  L 186.72 81.50
  L 185.16 82.85
  L 182.95 83.72
  L 179.99 84.15
  L 175.87 84.18
  L 175.65 84.18
  L 175.25 84.34
  L 175.08 84.74
  L 175.08 84.74
  L 175.08 92.95
  Z
  M 175.07 73.38
  L 175.05 81.10
  L 175.18 81.44
  L 175.51 81.57
  L 180.31 81.59
  L 182.08 81.29
  L 183.58 80.40
  L 184.58 79.08
  L 184.94 77.51
  L 184.94 77.05
  L 184.94 77.05
  L 184.60 75.48
  L 183.60 74.14
  L 182.11 73.25
  L 180.35 72.93
  L 175.55 72.91
  L 175.48 72.92
  L 175.19 73.08
  L 175.07 73.38
  Z"
/>
<path d="
  M 207.63 93.27
  L 206.77 93.27
  L 206.32 93.07
  L 206.14 92.61
  L 206.09 73.52
  L 206.09 73.52
  L 205.95 73.17
  L 205.59 73.03
  L 198.88 73.05
  L 198.38 72.84
  L 198.17 72.34
  L 198.16 71.08
  L 198.36 70.61
  L 198.83 70.41
  L 198.83 70.41
  L 198.83 70.41
  L 207.56 70.38
  L 216.29 70.36
  L 216.29 70.36
  L 216.76 70.56
  L 216.96 71.03
  L 216.96 72.29
  L 216.76 72.79
  L 216.26 73.00
  L 209.54 73.02
  L 209.19 73.17
  L 209.04 73.51
  L 209.10 92.60
  L 208.92 93.06
  L 208.47 93.26
  L 207.63 93.27
  Z"
/>
<path d="
  M 260.06 93.24
  L 257.82 93.24
  L 257.57 93.13
  L 257.46 92.88
  L 257.46 72.17
  L 257.48 72.04
  L 257.65 71.86
  L 259.89 70.63
  L 260.18 70.61
  L 260.42 70.95
  L 260.42 92.88
  L 260.36 93.09
  L 260.06 93.24
  Z"
/>
</g>
</svg>
