
<svg height="70" xmlns="http://www.w3.org/2000/svg" version="1.1" viewBox="0.00 0.00 150.00 103.00">
<g fill="#ffffff">
<path d="
  M 39.67 10.47
  L 39.01 10.60
  L 38.13 10.37
  L 34.81 10.13
  L 31.17 10.47
  L 27.21 11.40
  L 22.94 12.92
  L 18.78 14.89
  L 15.06 17.21
  L 11.78 19.90
  L 8.95 22.95
  L 8.95 22.95
  L 7.26 25.24
  L 5.78 27.71
  L 4.51 30.35
  L 3.45 33.15
  L 2.57 36.44
  L 2.10 39.74
  L 2.03 43.27
  L 2.40 46.76
  L 3.21 50.27
  L 4.44 53.66
  L 6.07 56.91
  L 8.09 59.98
  L 10.47 62.84
  L 13.20 65.46
  L 15.47 67.25
  L 17.83 68.81
  L 20.27 70.14
  L 22.81 71.24
  L 22.81 71.24
  L 22.81 71.24
  L 27.40 72.60
  L 32.25 73.27
  L 37.38 73.24
  L 42.76 72.52
  L 46.31 71.61
  L 49.69 70.31
  L 49.69 70.31
  L 49.69 70.31
  L 52.59 68.77
  L 55.35 66.89
  L 57.95 64.69
  L 60.40 62.15
  L 60.36 61.79
  L 60.34 61.77
  L 59.83 61.47
  L 59.70 61.50
  L 57.45 63.81
  L 55.02 65.87
  L 55.02 65.87
  L 55.02 65.87
  L 52.66 67.53
  L 50.15 68.99
  L 47.48 70.25
  L 44.66 71.32
  L 43.84 71.47
  L 41.49 71.73
  L 39.51 72.26
  L 38.50 72.44
  L 31.87 72.20
  L 29.05 71.80
  L 26.55 71.22
  L 22.61 69.84
  L 19.03 68.11
  L 15.79 66.01
  L 12.89 63.56
  L 12.89 63.56
  L 12.89 63.56
  L 10.01 60.30
  L 7.58 56.58
  L 5.61 52.38
  L 4.09 47.71
  L 3.61 44.52
  L 3.65 40.60
  L 4.08 37.12
  L 4.86 33.83
  L 6.01 30.63
  L 7.49 27.64
  L 9.34 24.78
  L 11.50 22.16
  L 14.03 19.72
  L 16.84 17.56
  L 19.91 15.70
  L 23.22 14.13
  L 26.75 12.87
  L 30.46 11.94
  L 34.57 11.52
  L 43.02 11.05
  L 43.99 11.14
  L 48.06 12.43
  L 51.10 13.80
  L 54.02 15.48
  L 56.82 17.48
  L 59.50 19.79
  L 59.53 19.82
  L 59.91 19.92
  L 60.25 19.71
  L 62.04 17.32
  L 63.81 15.37
  L 65.57 13.87
  L 67.31 12.81
  L 71.53 11.12
  L 75.97 10.00
  L 80.41 9.49
  L 84.87 9.58
  L 89.14 10.28
  L 93.06 11.55
  L 96.74 13.42
  L 99.95 15.79
  L 102.49 18.36
  L 102.80 18.50
  L 103.10 18.37
  L 103.14 18.32
  L 103.94 17.17
  L 103.94 17.17
  L 103.94 17.17
  L 105.66 15.28
  L 107.74 13.65
  L 110.16 12.29
  L 112.93 11.19
  L 116.99 10.10
  L 120.95 9.51
  L 124.83 9.41
  L 128.63 9.82
  L 128.63 9.82
  L 131.41 10.45
  L 134.14 11.35
  L 136.83 12.54
  L 139.46 14.01
  L 142.03 15.91
  L 144.14 18.15
  L 144.14 18.15
  L 145.38 19.98
  L 146.38 21.99
  L 147.15 24.18
  L 147.69 26.55
  L 147.58 27.01
  L 147.17 27.25
  L 147.16 27.25
  L 135.93 28.51
  L 135.46 28.37
  L 135.23 27.94
  L 135.23 27.94
  L 135.23 27.93
  L 135.04 26.74
  L 134.66 25.66
  L 133.57 24.00
  L 131.85 22.56
  L 129.69 21.50
  L 127.03 20.77
  L 124.01 20.44
  L 120.80 20.55
  L 117.84 21.09
  L 115.38 22.01
  L 115.15 22.13
  L 113.41 23.52
  L 112.22 25.31
  L 111.67 27.33
  L 111.88 29.41
  L 112.50 30.77
  L 113.54 32.02
  L 114.71 32.83
  L 116.46 33.63
  L 121.43 35.08
  L 125.84 36.07
  L 134.75 38.20
  L 137.90 39.19
  L 140.71 40.27
  L 142.49 41.15
  L 144.08 42.19
  L 145.48 43.37
  L 146.69 44.71
  L 146.69 44.71
  L 146.69 44.71
  L 147.66 46.12
  L 148.46 47.66
  L 149.08 49.35
  L 149.53 51.17
  L 149.85 53.60
  L 149.89 55.95
  L 149.62 58.30
  L 149.07 60.53
  L 148.15 62.85
  L 146.93 65.02
  L 145.37 67.08
  L 143.53 68.94
  L 141.43 70.59
  L 139.11 72.00
  L 136.59 73.16
  L 133.90 74.06
  L 129.20 75.06
  L 124.71 75.42
  L 120.41 75.13
  L 116.31 74.20
  L 116.31 74.20
  L 113.15 72.99
  L 110.12 71.35
  L 107.23 69.29
  L 104.46 66.81
  L 104.07 66.66
  L 103.69 66.83
  L 103.69 66.83
  L 103.68 66.84
  L 102.17 68.43
  L 100.54 69.86
  L 100.54 69.86
  L 100.54 69.86
  L 97.01 72.15
  L 92.99 73.84
  L 88.49 74.91
  L 83.51 75.37
  L 80.24 75.26
  L 76.86 74.75
  L 73.60 73.87
  L 70.45 72.61
  L 67.65 71.05
  L 65.27 69.29
  L 63.21 67.20
  L 61.63 64.98
  L 61.33 64.78
  L 60.98 64.87
  L 60.93 64.92
  L 58.98 66.95
  L 56.85 68.77
  L 54.48 70.43
  L 51.95 71.85
  L 49.26 73.06
  L 46.45 74.04
  L 43.47 74.80
  L 40.41 75.31
  L 37.27 75.58
  L 34.11 75.59
  L 30.97 75.35
  L 27.87 74.86
  L 24.84 74.12
  L 21.91 73.13
  L 19.20 71.93
  L 16.62 70.51
  L 14.22 68.89
  L 11.98 67.10
  L 9.99 65.22
  L 8.13 63.17
  L 6.41 60.97
  L 4.84 58.60
  L 3.46 56.11
  L 2.34 53.54
  L 1.05 49.29
  L 0.39 44.96
  L 0.36 40.50
  L 0.95 36.10
  L 2.15 31.82
  L 3.95 27.74
  L 6.26 24.01
  L 9.12 20.60
  L 12.53 17.56
  L 16.51 14.82
  L 20.59 12.65
  L 24.76 11.03
  L 29.04 9.98
  L 29.56 9.89
  L 33.89 9.60
  L 39.58 9.93
  L 39.81 10.10
  L 39.78 10.38
  L 39.67 10.47
  Z
  M 54.24 52.23
  L 44.78 52.23
  L 44.57 52.15
  L 44.49 51.94
  L 44.49 42.95
  L 44.82 42.61
  L 44.82 42.61
  L 64.06 42.61
  L 64.33 42.46
  L 64.34 42.14
  L 64.23 42.03
  L 62.68 40.90
  L 61.35 39.57
  L 61.35 39.57
  L 61.35 39.57
  L 60.31 38.18
  L 59.46 36.62
  L 58.81 34.90
  L 58.34 33.02
  L 58.07 32.60
  L 57.59 32.47
  L 53.30 32.95
  L 52.66 32.81
  L 52.23 32.33
  L 50.96 29.83
  L 49.47 27.58
  L 47.70 25.52
  L 45.74 23.77
  L 43.61 22.33
  L 41.33 21.21
  L 38.95 20.44
  L 36.47 20.02
  L 33.15 20.03
  L 29.79 20.71
  L 26.58 22.00
  L 23.43 23.97
  L 21.93 25.22
  L 20.61 26.59
  L 18.97 28.83
  L 17.72 31.27
  L 16.79 33.99
  L 16.25 36.84
  L 16.07 39.92
  L 16.28 43.05
  L 16.87 46.25
  L 17.83 49.40
  L 19.14 52.41
  L 20.77 55.24
  L 22.64 57.75
  L 24.77 59.99
  L 27.03 61.80
  L 29.50 63.28
  L 32.05 64.33
  L 34.75 64.97
  L 38.20 65.17
  L 40.54 64.87
  L 42.77 64.19
  L 44.94 63.16
  L 47.13 61.70
  L 49.20 59.90
  L 51.19 57.72
  L 52.94 55.35
  L 54.52 52.70
  L 54.53 52.42
  L 54.32 52.24
  L 54.24 52.23
  Z
  M 99.39 27.93
  L 94.18 28.50
  L 93.75 28.39
  L 93.51 28.01
  L 93.07 26.45
  L 92.40 25.08
  L 91.23 23.63
  L 89.78 22.47
  L 88.04 21.56
  L 85.93 20.87
  L 83.58 20.47
  L 80.99 20.36
  L 78.39 20.57
  L 76.03 21.06
  L 74.37 21.63
  L 72.99 22.34
  L 71.89 23.19
  L 71.08 24.18
  L 70.33 25.57
  L 69.90 26.85
  L 69.75 28.10
  L 69.90 29.23
  L 70.29 30.21
  L 70.90 31.09
  L 72.82 32.68
  L 75.73 34.04
  L 79.47 35.07
  L 87.75 36.96
  L 95.40 38.93
  L 98.94 40.22
  L 101.93 41.96
  L 104.42 44.20
  L 106.23 46.79
  L 106.94 48.34
  L 107.46 50.02
  L 108.12 53.33
  L 108.36 53.75
  L 108.82 53.92
  L 112.45 53.92
  L 112.88 54.08
  L 113.10 54.48
  L 113.62 56.85
  L 114.47 58.96
  L 115.61 60.69
  L 117.07 62.11
  L 118.31 62.90
  L 119.73 63.50
  L 121.21 63.88
  L 122.85 64.07
  L 127.78 63.94
  L 129.93 63.60
  L 131.79 63.10
  L 133.38 62.45
  L 134.78 61.60
  L 135.85 60.62
  L 136.69 59.44
  L 137.38 57.30
  L 137.38 54.88
  L 137.33 54.61
  L 137.01 53.67
  L 136.47 52.82
  L 134.70 51.27
  L 131.90 49.91
  L 128.41 48.90
  L 116.08 46.10
  L 111.58 44.81
  L 108.12 43.38
  L 105.39 41.69
  L 103.23 39.63
  L 102.26 38.33
  L 101.43 36.85
  L 100.22 33.55
  L 99.84 30.99
  L 99.83 28.47
  L 99.85 28.38
  L 99.73 28.05
  L 99.39 27.93
  Z
  M 69.21 48.20
  L 68.82 48.67
  L 68.75 48.95
  L 68.29 49.23
  L 68.29 49.36
  L 68.34 49.36
  L 68.75 48.95
  L 69.12 48.64
  L 69.21 48.20
  L 70.13 47.32
  L 70.78 46.31
  L 71.01 45.76
  L 71.01 45.68
  L 70.78 45.62
  L 70.62 45.79
  L 69.81 46.90
  L 69.21 48.20
  Z
  M 75.35 62.38
  L 76.70 63.11
  L 78.22 63.63
  L 80.03 63.99
  L 81.93 64.15
  L 86.36 63.90
  L 88.57 63.47
  L 90.46 62.92
  L 91.69 62.37
  L 92.80 61.65
  L 94.57 59.83
  L 95.16 58.81
  L 95.56 57.72
  L 95.76 56.59
  L 95.72 55.44
  L 95.38 54.13
  L 94.68 52.84
  L 93.65 51.77
  L 92.14 50.82
  L 90.14 49.96
  L 87.66 49.22
  L 74.79 46.30
  L 74.21 46.37
  L 73.77 46.76
  L 71.44 50.80
  L 71.30 51.33
  L 71.44 51.87
  L 76.20 60.12
  L 76.20 60.13
  L 76.27 60.62
  L 75.96 61.02
  L 75.39 61.35
  L 75.09 61.79
  L 75.25 62.29
  L 75.35 62.38
  Z
  M 62.6100 49.8846
  L 65.2401 49.9600
  L 67.8700 49.8754
  L 65.2399 49.8000
  L 62.6100 49.8846
  Z
  M 56.34 51.68
  L 56.51 51.97
  L 65.22 54.24
  L 65.40 54.18
  L 65.53 53.77
  L 65.48 53.69
  L 64.76 53.27
  L 56.66 51.28
  L 56.54 51.29
  L 56.41 51.43
  L 56.34 51.68
  Z
  M 60.02 60.02
  L 59.29 59.39
  L 59.06 59.35
  L 58.78 59.67
  L 58.73 60.11
  L 59.11 60.51
  L 59.68 60.56
  L 60.02 60.19
  L 60.02 60.02
  Z"
/>
<path d="
  M 75.14 84.66
  L 75.42 84.87
  L 75.52 85.14
  L 75.51 85.37
  L 75.05 85.89
  L 74.31 85.84
  L 74.12 85.68
  L 74.00 85.32
  L 74.01 85.16
  L 74.43 84.66
  L 75.14 84.66
  Z"
/>
<rect x="-0.67" y="-4.29" transform="translate(25.84,89.06) rotate(0.4)" width="1.34" height="8.58" rx="0.45"/>
<path d="
  M 36.39 87.86
  L 37.27 87.36
  L 38.04 87.45
  L 38.81 87.96
  L 39.62 88.97
  L 39.93 90.02
  L 39.93 90.02
  L 39.61 91.37
  L 38.49 92.77
  L 37.50 93.38
  L 36.37 93.50
  L 35.09 93.15
  L 34.69 92.82
  L 34.53 92.33
  L 34.40 85.45
  L 34.50 85.08
  L 34.77 84.81
  L 35.14 84.73
  L 35.50 84.84
  L 35.50 84.84
  L 35.77 85.17
  L 35.87 86.06
  L 35.65 87.46
  L 35.66 87.68
  L 35.97 87.98
  L 36.39 87.86
  Z
  M 35.79 88.88
  L 35.85 92.22
  L 35.99 92.56
  L 36.33 92.71
  L 36.36 92.71
  L 36.56 92.71
  L 36.56 92.71
  L 37.32 92.54
  L 37.96 92.09
  L 38.38 91.43
  L 38.52 90.66
  L 38.52 90.36
  L 38.35 89.59
  L 37.91 88.94
  L 37.25 88.51
  L 36.48 88.37
  L 36.48 88.37
  L 36.48 88.37
  L 36.48 88.37
  L 36.28 88.38
  L 35.93 88.53
  L 35.79 88.88
  Z"
/>
<rect x="-0.76" y="-4.30" transform="translate(47.14,89.05) rotate(-0.1)" width="1.52" height="8.60" rx="0.55"/>
<rect x="104.65" y="84.82" width="1.24" height="8.52" rx="0.33"/>
<path d="
  M 117.76 85.91
  L 117.59 85.92
  L 116.96 85.64
  L 116.75 85.21
  L 116.94 84.80
  L 117.02 84.75
  L 117.12 84.71
  L 117.85 84.69
  L 118.16 84.88
  L 118.27 85.51
  L 117.76 85.91
  Z"
/>
<path d="
  M 53.92 90.12
  L 52.30 89.01
  L 51.86 88.51
  L 51.66 87.87
  L 51.74 87.21
  L 52.07 86.64
  L 52.18 86.53
  L 53.08 85.90
  L 54.01 85.62
  L 54.01 85.62
  L 54.01 85.62
  L 55.36 85.84
  L 56.78 86.73
  L 56.81 86.77
  L 56.95 87.15
  L 56.76 87.51
  L 56.69 87.57
  L 56.67 87.59
  L 56.24 87.68
  L 55.88 87.43
  L 55.34 86.82
  L 54.71 86.49
  L 54.71 86.49
  L 54.04 86.43
  L 53.29 86.63
  L 52.89 87.06
  L 52.96 87.64
  L 53.02 87.73
  L 54.69 89.04
  L 56.31 90.15
  L 56.75 90.65
  L 56.95 91.29
  L 56.87 91.95
  L 56.53 92.52
  L 56.43 92.63
  L 55.53 93.27
  L 54.59 93.54
  L 53.24 93.33
  L 51.83 92.43
  L 51.79 92.39
  L 51.66 92.01
  L 51.85 91.65
  L 51.92 91.59
  L 51.94 91.58
  L 52.37 91.48
  L 52.73 91.73
  L 53.27 92.34
  L 53.89 92.68
  L 53.89 92.68
  L 54.57 92.73
  L 55.32 92.53
  L 55.72 92.10
  L 55.65 91.52
  L 55.65 91.52
  L 55.59 91.44
  L 53.92 90.12
  Z"
/>
<path d="
  M 93.80 90.14
  L 92.19 89.01
  L 91.75 88.51
  L 91.56 87.87
  L 91.64 87.21
  L 91.98 86.64
  L 92.09 86.53
  L 92.99 85.90
  L 93.93 85.64
  L 93.93 85.64
  L 93.93 85.64
  L 95.28 85.86
  L 96.69 86.77
  L 96.72 86.80
  L 96.86 87.19
  L 96.66 87.55
  L 96.59 87.61
  L 96.57 87.62
  L 96.14 87.71
  L 95.78 87.46
  L 95.24 86.84
  L 94.62 86.51
  L 94.62 86.51
  L 93.95 86.44
  L 93.20 86.64
  L 92.80 87.07
  L 92.86 87.65
  L 92.86 87.65
  L 92.92 87.73
  L 94.58 89.06
  L 96.19 90.19
  L 96.63 90.69
  L 96.82 91.33
  L 96.74 91.99
  L 96.40 92.56
  L 96.40 92.56
  L 96.30 92.67
  L 95.39 93.29
  L 94.45 93.56
  L 94.45 93.56
  L 93.10 93.34
  L 91.69 92.43
  L 91.66 92.39
  L 91.52 92.01
  L 91.72 91.65
  L 91.79 91.59
  L 91.81 91.58
  L 92.24 91.49
  L 92.60 91.74
  L 93.14 92.35
  L 93.76 92.69
  L 93.76 92.69
  L 93.76 92.69
  L 94.43 92.75
  L 95.19 92.56
  L 95.58 92.13
  L 95.52 91.55
  L 95.46 91.47
  L 93.80 90.14
  Z"
/>
<path d="
  M 21.82 89.57
  L 22.91 89.37
  L 23.59 89.82
  L 24.10 90.69
  L 24.14 91.70
  L 23.70 92.61
  L 22.88 93.21
  L 21.47 93.46
  L 19.28 93.36
  L 18.36 92.99
  L 17.45 92.17
  L 16.83 91.31
  L 16.44 90.35
  L 16.34 89.40
  L 16.61 88.18
  L 17.27 87.12
  L 18.25 86.31
  L 19.47 85.82
  L 20.50 85.73
  L 21.59 85.90
  L 22.60 86.33
  L 23.60 87.04
  L 23.71 87.19
  L 23.68 87.61
  L 23.31 87.81
  L 23.14 87.80
  L 23.14 87.80
  L 22.63 87.56
  L 22.16 87.03
  L 21.47 86.43
  L 21.08 86.36
  L 20.24 86.45
  L 19.51 86.73
  L 18.58 87.55
  L 18.05 88.67
  L 17.95 89.93
  L 18.35 91.17
  L 18.88 91.88
  L 19.65 92.47
  L 20.44 92.77
  L 21.25 92.79
  L 21.95 92.52
  L 22.44 92.01
  L 22.44 92.01
  L 22.44 92.00
  L 22.55 91.70
  L 22.39 90.96
  L 21.67 90.12
  L 21.61 90.04
  L 21.59 89.75
  L 21.82 89.57
  Z"
/>
<path d="
  M 114.88 86.00
  L 114.78 86.86
  L 115.18 87.42
  L 115.41 87.79
  L 115.37 88.22
  L 114.86 89.88
  L 114.95 91.37
  L 114.95 91.37
  L 115.78 92.88
  L 115.86 93.21
  L 115.65 93.46
  L 115.53 93.49
  L 114.67 93.41
  L 114.08 93.11
  L 113.53 92.08
  L 113.45 90.21
  L 113.33 88.38
  L 113.37 88.01
  L 114.61 85.87
  L 114.88 85.89
  L 114.88 86.00
  Z"
/>
<path d="
  M 33.50 90.45
  L 33.27 91.60
  L 32.62 92.57
  L 31.65 93.22
  L 30.50 93.45
  L 29.35 93.22
  L 28.38 92.57
  L 27.73 91.60
  L 27.50 90.45
  L 27.73 89.30
  L 28.38 88.33
  L 29.35 87.68
  L 30.50 87.45
  L 31.65 87.68
  L 32.62 88.33
  L 33.27 89.30
  L 33.50 90.45
  Z
  M 30.3006 88.1395
  L 29.7068 88.3701
  L 29.2352 88.9158
  L 28.9578 89.6936
  L 28.9166 90.5850
  L 29.1180 91.4543
  L 29.5313 92.1692
  L 30.0937 92.6209
  L 30.7194 92.7405
  L 31.3132 92.5099
  L 31.7848 91.9642
  L 32.0622 91.1864
  L 32.1034 90.2950
  L 31.9020 89.4257
  L 31.4887 88.7108
  L 30.9263 88.2591
  L 30.3006 88.1395
  Z"
/>
<path d="
  M 41.95 88.87
  L 41.89 89.01
  L 41.42 89.26
  L 40.89 89.04
  L 40.81 88.92
  L 40.84 88.48
  L 40.96 88.24
  L 41.56 87.73
  L 42.37 87.50
  L 43.48 87.51
  L 44.45 87.76
  L 44.84 88.08
  L 44.98 88.55
  L 44.98 92.62
  L 44.83 93.02
  L 44.44 93.22
  L 42.06 93.49
  L 41.40 93.41
  L 40.81 92.99
  L 40.50 92.34
  L 40.54 91.62
  L 40.93 91.01
  L 42.06 89.96
  L 42.59 89.84
  L 43.20 89.82
  L 43.62 89.28
  L 43.66 88.74
  L 43.45 88.24
  L 43.05 87.91
  L 42.60 87.88
  L 42.60 87.88
  L 42.16 88.23
  L 41.95 88.87
  Z
  M 43.3839 90.3494
  L 42.6524 90.4663
  L 42.1128 91.1829
  L 42.0812 92.0794
  L 42.5761 92.6306
  L 43.3076 92.5137
  L 43.8472 91.7971
  L 43.8788 90.9006
  L 43.3839 90.3494
  Z"
/>
<path d="
  M 59.76 88.01
  L 59.04 89.86
  L 59.01 90.63
  L 59.23 91.33
  L 59.72 91.91
  L 60.52 92.36
  L 60.94 92.44
  L 61.74 92.18
  L 62.55 91.37
  L 62.89 91.29
  L 62.93 91.31
  L 63.05 91.74
  L 63.04 91.76
  L 61.66 93.38
  L 60.62 93.58
  L 59.60 93.40
  L 58.75 92.86
  L 58.18 92.05
  L 57.73 90.35
  L 57.97 88.98
  L 58.53 88.23
  L 59.41 87.64
  L 59.67 87.66
  L 59.79 87.89
  L 59.76 88.01
  Z"
/>
<path d="
  M 60.79 87.43
  L 61.84 87.76
  L 62.58 88.34
  L 62.58 88.34
  L 62.99 89.12
  L 63.01 89.43
  L 62.60 89.92
  L 61.97 89.83
  L 61.21 89.08
  L 60.43 87.97
  L 60.44 87.58
  L 60.79 87.43
  Z"
/>
<path d="
  M 73.30 88.02
  L 71.26 92.85
  L 71.18 92.98
  L 70.77 93.14
  L 70.40 92.90
  L 68.41 89.45
  L 67.84 88.88
  L 67.05 88.67
  L 66.27 88.88
  L 65.70 89.46
  L 65.49 90.24
  L 65.49 92.80
  L 65.32 93.22
  L 64.90 93.39
  L 64.62 93.39
  L 64.21 93.22
  L 64.04 92.81
  L 64.04 87.75
  L 64.10 87.69
  L 68.16 87.51
  L 69.10 87.78
  L 69.68 88.57
  L 70.22 89.98
  L 70.83 91.00
  L 71.22 91.18
  L 71.59 90.94
  L 71.64 90.76
  L 71.97 89.44
  L 72.77 87.94
  L 72.77 87.94
  L 73.20 87.86
  L 73.27 87.91
  L 73.30 88.02
  Z"
/>
<path d="
  M 80.67 91.54
  L 81.04 91.35
  L 81.36 91.60
  L 81.35 91.87
  L 80.67 92.95
  L 79.68 93.55
  L 78.57 93.51
  L 77.55 92.92
  L 76.80 91.91
  L 76.48 90.62
  L 76.63 89.51
  L 77.22 88.38
  L 78.06 87.74
  L 79.02 87.49
  L 79.92 87.53
  L 79.92 87.53
  L 80.64 87.79
  L 81.32 88.27
  L 81.52 88.72
  L 81.33 89.17
  L 81.30 89.20
  L 80.98 89.41
  L 80.97 89.42
  L 80.56 89.47
  L 80.24 89.22
  L 79.98 88.74
  L 79.56 88.30
  L 78.98 88.11
  L 78.39 88.24
  L 77.93 88.64
  L 77.74 89.19
  L 77.82 90.88
  L 78.43 91.94
  L 79.56 92.38
  L 80.07 92.29
  L 80.45 91.93
  L 80.67 91.54
  Z"
/>
<path d="
  M 85.64 89.69
  L 86.00 89.21
  L 85.87 88.65
  L 85.54 88.20
  L 85.09 87.95
  L 84.61 87.95
  L 84.32 88.11
  L 84.10 88.60
  L 84.13 89.50
  L 83.92 89.89
  L 83.70 90.10
  L 83.68 90.26
  L 84.14 91.64
  L 84.57 92.09
  L 85.10 92.34
  L 85.92 92.33
  L 86.80 91.86
  L 87.71 91.34
  L 87.95 91.44
  L 88.00 91.70
  L 88.00 91.70
  L 87.95 91.79
  L 86.40 93.23
  L 85.69 93.55
  L 84.95 93.61
  L 83.86 93.09
  L 82.88 92.09
  L 82.40 91.23
  L 82.37 91.10
  L 82.34 89.90
  L 82.79 88.80
  L 83.64 87.95
  L 84.76 87.51
  L 86.06 87.58
  L 86.06 87.58
  L 86.99 88.11
  L 87.78 89.07
  L 87.82 89.38
  L 87.62 89.61
  L 87.58 89.63
  L 85.74 90.20
  L 85.54 90.03
  L 85.56 89.77
  L 85.56 89.77
  L 85.64 89.69
  Z"
/>
<path d="
  M 103.61 90.44
  L 103.38 91.60
  L 102.73 92.58
  L 101.75 93.23
  L 100.59 93.46
  L 99.43 93.23
  L 98.45 92.58
  L 97.80 91.60
  L 97.57 90.44
  L 97.80 89.28
  L 98.45 88.30
  L 99.43 87.65
  L 100.59 87.42
  L 101.75 87.65
  L 102.73 88.30
  L 103.38 89.28
  L 103.61 90.44
  Z
  M 100.3285 88.1448
  L 99.7439 88.3884
  L 99.2880 88.9444
  L 99.0304 89.7280
  L 99.0102 90.6200
  L 99.2305 91.4846
  L 99.6578 92.1902
  L 100.2270 92.6293
  L 100.8515 92.7352
  L 101.4361 92.4916
  L 101.8920 91.9356
  L 102.1496 91.1520
  L 102.1698 90.2600
  L 101.9495 89.3954
  L 101.5222 88.6898
  L 100.9530 88.2507
  L 100.3285 88.1448
  Z"
/>
<path d="
  M 112.02 92.78
  L 111.87 93.15
  L 111.51 93.31
  L 108.73 93.32
  L 107.78 93.01
  L 107.31 92.46
  L 107.14 91.75
  L 107.11 88.15
  L 107.28 87.74
  L 107.68 87.56
  L 107.68 87.56
  L 107.96 87.56
  L 108.31 87.71
  L 108.46 88.06
  L 108.48 91.35
  L 108.74 92.08
  L 109.39 92.50
  L 109.67 92.57
  L 110.31 92.46
  L 110.64 91.91
  L 110.64 91.91
  L 110.64 91.81
  L 110.62 88.21
  L 110.81 87.76
  L 111.25 87.57
  L 111.58 87.57
  L 111.78 87.62
  L 111.99 87.98
  L 112.02 92.78
  Z"
/>
<rect x="-0.64" y="-2.82" transform="translate(117.51,90.47) rotate(0.2)" width="1.28" height="5.64" rx="0.27"/>
<path d="
  M 125.19 90.46
  L 124.96 91.62
  L 124.30 92.61
  L 123.31 93.27
  L 122.15 93.50
  L 120.99 93.27
  L 120.00 92.61
  L 119.34 91.62
  L 119.11 90.46
  L 119.34 89.30
  L 120.00 88.31
  L 120.99 87.65
  L 122.15 87.42
  L 123.31 87.65
  L 124.30 88.31
  L 124.96 89.30
  L 125.19 90.46
  Z
  M 121.9389 88.1169
  L 121.3524 88.3673
  L 120.8980 88.9333
  L 120.6449 89.7286
  L 120.6316 90.6322
  L 120.8601 91.5066
  L 121.2956 92.2186
  L 121.8719 92.6598
  L 122.5011 92.7631
  L 123.0876 92.5127
  L 123.5420 91.9467
  L 123.7951 91.1514
  L 123.8084 90.2478
  L 123.5799 89.3734
  L 123.1444 88.6614
  L 122.5681 88.2202
  L 121.9389 88.1169
  Z"
/>
<path d="
  M 126.13 88.17
  L 126.28 87.80
  L 126.64 87.65
  L 129.40 87.65
  L 130.00 87.77
  L 130.51 88.11
  L 130.85 88.62
  L 130.97 89.22
  L 130.97 92.79
  L 130.80 93.20
  L 130.40 93.37
  L 130.40 93.37
  L 130.13 93.37
  L 129.78 93.22
  L 129.63 92.87
  L 129.63 89.61
  L 129.38 88.88
  L 128.74 88.46
  L 128.46 88.39
  L 127.83 88.50
  L 127.50 89.04
  L 127.49 89.14
  L 127.49 92.71
  L 127.31 93.16
  L 126.86 93.34
  L 126.54 93.34
  L 126.25 93.22
  L 126.13 92.93
  L 126.13 88.17
  Z"
/>
<path d="
  M 132.35 92.17
  L 133.73 92.72
  L 134.65 92.59
  L 134.94 92.28
  L 134.99 91.88
  L 134.74 91.56
  L 132.52 90.27
  L 131.91 89.52
  L 131.96 88.55
  L 132.34 87.95
  L 132.83 87.56
  L 132.83 87.56
  L 134.03 87.44
  L 135.62 88.08
  L 135.79 88.39
  L 135.59 88.68
  L 135.59 88.68
  L 135.38 88.70
  L 133.45 87.98
  L 133.20 87.95
  L 132.82 88.25
  L 132.88 88.73
  L 133.90 89.77
  L 135.28 90.67
  L 135.69 91.00
  L 135.93 91.45
  L 135.97 91.95
  L 135.81 92.41
  L 135.75 92.49
  L 135.16 93.08
  L 134.49 93.40
  L 133.36 93.40
  L 132.07 92.81
  L 131.99 92.48
  L 132.13 92.23
  L 132.35 92.17
  Z"
/>
<rect x="74.07" y="87.71" width="1.32" height="5.60" rx="0.30"/>
</g>
</svg>
