
<svg height="70" xmlns="http://www.w3.org/2000/svg" version="1.1" viewBox="0.00 0.00 750.00 250.00">
<g fill="#ffffff">
<path d="
  M 0.00 168.19
  L 0.00 142.31
  L 20.71 130.25
  L 21.00 129.75
  L 20.71 129.25
  L 0.00 117.15
  L 0.00 91.28
  L 43.08 116.36
  L 43.77 116.55
  L 44.45 116.37
  L 65.03 104.48
  L 65.14 104.38
  L 65.19 104.12
  L 65.03 103.90
  L 0.52 66.66
  L 0.16 66.19
  L 0.19 65.68
  L 0.52 65.30
  L 65.03 28.06
  L 65.72 27.87
  L 66.42 28.06
  L 131.23 65.48
  L 131.34 65.56
  L 131.49 66.01
  L 131.23 66.41
  L 88.78 90.92
  L 88.64 91.03
  L 88.45 91.59
  L 88.78 92.09
  L 153.08 129.22
  L 153.20 129.31
  L 153.37 129.81
  L 153.08 130.25
  L 87.91 167.88
  L 87.59 167.97
  L 87.23 167.88
  L 44.42 143.16
  L 43.74 142.98
  L 43.06 143.16
  L 22.46 155.06
  L 22.41 155.10
  L 22.46 155.49
  L 87.26 192.90
  L 87.67 193.01
  L 88.08 192.90
  L 130.98 168.13
  L 131.46 168.00
  L 132.00 168.13
  L 152.95 180.23
  L 153.27 180.79
  L 152.95 181.35
  L 88.16 218.75
  L 87.49 218.93
  L 86.82 218.75
  L 0.00 168.19
  Z
  M 65.56 78.34
  L 65.59 78.36
  L 65.90 78.34
  L 86.82 66.26
  L 86.99 65.99
  L 86.86 65.69
  L 86.81 65.66
  L 65.89 53.58
  L 65.81 53.55
  L 65.55 53.58
  L 44.63 65.66
  L 44.45 65.95
  L 44.62 66.26
  L 44.63 66.26
  L 65.56 78.34
  Z
  M 87.90 117.39
  L 87.53 117.32
  L 87.34 117.39
  L 66.80 129.25
  L 66.53 129.67
  L 66.70 130.13
  L 66.80 130.21
  L 87.36 142.08
  L 87.92 142.08
  L 108.46 130.22
  L 108.69 129.97
  L 108.71 129.57
  L 108.46 129.26
  L 87.90 117.39
  Z"
/>
<path d="
  M 205.22 95.82
  L 204.82 95.98
  L 204.65 96.38
  L 204.65 96.38
  L 204.65 96.38
  L 204.65 122.83
  L 204.48 123.24
  L 204.07 123.41
  L 194.86 123.41
  L 194.41 123.23
  L 194.22 122.78
  L 194.22 52.19
  L 194.39 51.78
  L 194.81 51.60
  L 219.20 51.57
  L 221.36 51.73
  L 223.18 52.13
  L 224.76 52.82
  L 226.02 53.75
  L 227.36 55.52
  L 228.24 57.95
  L 228.68 61.12
  L 228.74 65.36
  L 228.73 86.49
  L 228.63 88.24
  L 228.30 89.79
  L 227.73 91.23
  L 226.94 92.44
  L 225.40 93.87
  L 223.45 94.89
  L 221.01 95.55
  L 218.22 95.83
  L 211.71 95.93
  L 205.22 95.82
  Z
  M 218.3279 61.0280
  L 217.9749 60.1801
  L 217.1258 59.8301
  L 205.8058 59.8499
  L 204.9579 60.2029
  L 204.6079 61.0520
  L 204.6521 86.3720
  L 205.0051 87.2199
  L 205.8542 87.5699
  L 217.1742 87.5501
  L 218.0221 87.1971
  L 218.3721 86.3480
  L 218.3279 61.0280
  Z"
/>
<path d="
  M 245.34 123.41
  L 235.72 123.41
  L 235.42 123.28
  L 235.29 122.98
  L 235.29 51.94
  L 235.32 51.78
  L 235.66 51.57
  L 259.74 51.52
  L 262.10 51.69
  L 264.08 52.13
  L 265.79 52.87
  L 267.15 53.89
  L 268.52 55.72
  L 269.43 58.20
  L 269.87 61.39
  L 269.88 65.48
  L 269.90 83.02
  L 269.79 86.60
  L 269.35 89.33
  L 268.56 91.49
  L 267.39 93.13
  L 266.50 93.90
  L 265.44 94.56
  L 262.96 95.44
  L 262.68 95.65
  L 262.64 96.00
  L 262.65 96.03
  L 273.11 122.91
  L 273.13 122.98
  L 273.05 123.28
  L 272.76 123.42
  L 262.62 123.42
  L 261.91 123.20
  L 261.46 122.61
  L 251.98 96.63
  L 251.57 96.09
  L 250.93 95.89
  L 246.60 95.89
  L 246.22 96.03
  L 246.01 96.38
  L 246.01 96.38
  L 246.00 96.49
  L 246.00 122.75
  L 245.81 123.22
  L 245.34 123.41
  Z
  M 245.99 60.37
  L 245.95 87.03
  L 245.98 87.22
  L 246.19 87.50
  L 246.53 87.61
  L 256.69 87.63
  L 256.69 87.63
  L 257.74 87.41
  L 258.64 86.78
  L 259.24 85.84
  L 259.45 84.72
  L 259.49 62.72
  L 259.28 61.61
  L 258.68 60.66
  L 257.79 60.03
  L 256.73 59.81
  L 246.57 59.79
  L 246.16 59.96
  L 245.99 60.37
  Z"
/>
<path d="
  M 310.84 114.61
  L 310.67 116.33
  L 310.17 117.99
  L 309.35 119.52
  L 308.25 120.85
  L 306.92 121.95
  L 305.39 122.77
  L 303.73 123.27
  L 302.01 123.44
  L 285.17 123.44
  L 283.45 123.27
  L 281.79 122.77
  L 280.26 121.95
  L 278.93 120.85
  L 277.83 119.52
  L 277.01 117.99
  L 276.51 116.33
  L 276.34 114.61
  L 276.34 60.37
  L 276.51 58.65
  L 277.01 56.99
  L 277.83 55.46
  L 278.93 54.13
  L 280.26 53.03
  L 281.79 52.21
  L 283.45 51.71
  L 285.17 51.54
  L 302.01 51.54
  L 303.73 51.71
  L 305.39 52.21
  L 306.92 53.03
  L 308.25 54.13
  L 309.35 55.46
  L 310.17 56.99
  L 310.67 58.65
  L 310.84 60.37
  L 310.84 114.61
  Z
  M 300.44 62.03
  L 300.27 61.18
  L 299.79 60.47
  L 299.08 59.99
  L 298.23 59.82
  L 289.13 59.82
  L 288.28 59.99
  L 287.57 60.47
  L 287.09 61.18
  L 286.92 62.03
  L 286.92 113.07
  L 287.09 113.92
  L 287.57 114.63
  L 288.28 115.11
  L 289.13 115.28
  L 298.23 115.28
  L 299.08 115.11
  L 299.79 114.63
  L 300.27 113.92
  L 300.44 113.07
  L 300.44 62.03
  Z"
/>
<path d="
  M 347.98 51.54
  L 348.40 51.71
  L 348.57 52.13
  L 348.60 109.31
  L 348.49 113.71
  L 347.99 116.99
  L 347.05 119.48
  L 345.62 121.31
  L 344.38 122.21
  L 342.84 122.86
  L 341.09 123.25
  L 339.02 123.40
  L 330.34 123.47
  L 326.77 123.42
  L 323.88 122.96
  L 321.51 122.05
  L 319.75 120.70
  L 318.76 119.39
  L 318.03 117.76
  L 317.58 115.90
  L 317.39 113.70
  L 317.45 99.58
  L 317.64 99.15
  L 318.07 98.98
  L 327.51 98.98
  L 327.91 99.15
  L 328.08 99.55
  L 328.08 112.86
  L 328.27 113.80
  L 328.80 114.59
  L 329.59 115.12
  L 330.53 115.31
  L 335.27 115.31
  L 336.18 115.14
  L 336.97 114.67
  L 337.54 113.95
  L 337.82 113.07
  L 337.84 112.74
  L 337.84 52.03
  L 337.89 51.82
  L 338.33 51.54
  L 347.98 51.54
  Z"
/>
<path d="
  M 382.54 87.54
  L 382.46 91.26
  L 382.30 91.57
  L 381.97 91.69
  L 366.27 91.69
  L 366.27 91.69
  L 365.67 91.94
  L 365.42 92.55
  L 365.42 114.54
  L 365.64 115.08
  L 366.17 115.30
  L 385.27 115.30
  L 385.65 115.42
  L 385.96 115.99
  L 385.96 122.83
  L 385.77 123.28
  L 385.32 123.47
  L 355.39 123.47
  L 355.38 123.47
  L 355.08 123.34
  L 354.97 123.03
  L 355.08 87.52
  L 355.02 52.01
  L 355.13 51.70
  L 355.43 51.57
  L 355.44 51.57
  L 385.37 51.61
  L 385.64 51.67
  L 386.01 52.25
  L 386.00 59.09
  L 385.74 59.63
  L 385.31 59.78
  L 366.21 59.75
  L 366.21 59.75
  L 365.68 59.97
  L 365.46 60.51
  L 365.43 82.50
  L 365.68 83.11
  L 366.28 83.36
  L 366.28 83.36
  L 366.28 83.36
  L 381.98 83.38
  L 382.30 83.51
  L 382.46 83.82
  L 382.54 87.54
  Z"
/>
<path d="
  M 403.07 87.50
  L 403.10 113.47
  L 403.23 114.06
  L 403.55 114.56
  L 404.03 114.91
  L 404.61 115.07
  L 409.49 115.30
  L 414.49 115.15
  L 415.24 115.00
  L 415.82 114.66
  L 416.44 113.70
  L 416.63 112.24
  L 416.65 99.37
  L 416.84 98.98
  L 417.24 98.82
  L 426.15 98.82
  L 426.15 98.82
  L 426.69 99.05
  L 426.91 99.59
  L 426.98 111.40
  L 426.70 116.41
  L 426.32 118.14
  L 425.77 119.36
  L 424.60 120.83
  L 423.30 121.90
  L 421.90 122.63
  L 420.33 123.09
  L 418.46 123.35
  L 416.15 123.43
  L 402.02 123.41
  L 400.06 123.27
  L 398.33 122.88
  L 396.81 122.23
  L 395.51 121.33
  L 395.51 121.33
  L 394.22 119.88
  L 393.56 118.52
  L 393.09 116.65
  L 392.80 114.25
  L 392.69 111.33
  L 392.68 87.50
  L 392.69 63.67
  L 392.80 60.75
  L 393.09 58.35
  L 393.57 56.48
  L 394.23 55.12
  L 395.52 53.67
  L 395.52 53.67
  L 395.52 53.67
  L 396.82 52.77
  L 398.34 52.12
  L 400.07 51.73
  L 402.03 51.59
  L 416.16 51.58
  L 418.47 51.66
  L 420.34 51.92
  L 421.90 52.38
  L 423.31 53.11
  L 424.61 54.18
  L 425.78 55.65
  L 426.32 56.87
  L 426.71 58.60
  L 426.99 63.61
  L 426.91 75.42
  L 426.70 75.96
  L 426.16 76.19
  L 426.15 76.19
  L 417.24 76.19
  L 416.84 76.03
  L 416.65 75.64
  L 416.64 62.77
  L 416.45 61.30
  L 415.83 60.34
  L 415.83 60.34
  L 415.24 60.01
  L 414.50 59.86
  L 409.50 59.71
  L 404.62 59.93
  L 404.04 60.09
  L 403.56 60.44
  L 403.23 60.94
  L 403.11 61.53
  L 403.07 87.50
  Z"
/>
<path d="
  M 447.48 51.52
  L 463.85 51.52
  L 464.39 51.74
  L 464.61 52.28
  L 464.61 58.82
  L 464.61 58.82
  L 464.39 59.34
  L 463.87 59.55
  L 453.52 59.55
  L 453.02 59.72
  L 452.71 60.15
  L 452.67 60.40
  L 452.67 122.92
  L 452.54 123.23
  L 452.23 123.38
  L 447.51 123.41
  L 442.79 123.38
  L 442.48 123.24
  L 442.35 122.92
  L 442.29 60.40
  L 442.04 59.80
  L 441.44 59.56
  L 431.09 59.57
  L 430.57 59.35
  L 430.35 58.84
  L 430.35 58.84
  L 430.34 52.30
  L 430.57 51.76
  L 431.11 51.53
  L 447.48 51.52
  Z"
/>
<rect x="471.40" y="51.54" width="10.40" height="71.88" rx="0.58"/>
<path d="
  M 522.71 114.64
  L 522.54 116.35
  L 522.04 118.00
  L 521.23 119.52
  L 520.14 120.86
  L 518.80 121.95
  L 517.28 122.76
  L 515.63 123.26
  L 513.92 123.43
  L 497.04 123.43
  L 495.33 123.26
  L 493.68 122.76
  L 492.16 121.95
  L 490.82 120.86
  L 489.73 119.52
  L 488.92 118.00
  L 488.42 116.35
  L 488.25 114.64
  L 488.25 60.34
  L 488.42 58.63
  L 488.92 56.98
  L 489.73 55.46
  L 490.82 54.12
  L 492.16 53.03
  L 493.68 52.22
  L 495.33 51.72
  L 497.04 51.55
  L 513.92 51.55
  L 515.63 51.72
  L 517.28 52.22
  L 518.80 53.03
  L 520.14 54.12
  L 521.23 55.46
  L 522.04 56.98
  L 522.54 58.63
  L 522.71 60.34
  L 522.71 114.64
  Z
  M 512.40 62.36
  L 512.21 61.39
  L 511.66 60.57
  L 510.84 60.02
  L 509.87 59.83
  L 501.19 59.83
  L 500.22 60.02
  L 499.40 60.57
  L 498.85 61.39
  L 498.66 62.36
  L 498.66 112.76
  L 498.85 113.73
  L 499.40 114.55
  L 500.22 115.10
  L 501.19 115.29
  L 509.87 115.29
  L 510.84 115.10
  L 511.66 114.55
  L 512.21 113.73
  L 512.40 112.76
  L 512.40 62.36
  Z"
/>
<path d="
  M 553.23 99.79
  L 553.82 97.50
  L 553.74 52.11
  L 553.92 51.69
  L 554.34 51.51
  L 563.78 51.51
  L 564.18 51.67
  L 564.34 52.06
  L 564.34 122.84
  L 564.17 123.24
  L 563.77 123.41
  L 554.36 123.41
  L 553.81 123.23
  L 553.49 122.75
  L 540.29 74.20
  L 540.02 74.15
  L 539.99 74.24
  L 539.99 122.77
  L 539.81 123.22
  L 539.36 123.41
  L 539.36 123.41
  L 529.79 123.41
  L 529.44 123.27
  L 529.30 122.92
  L 529.30 52.08
  L 529.46 51.69
  L 529.84 51.53
  L 539.75 51.53
  L 540.36 51.74
  L 540.71 52.28
  L 553.13 99.78
  L 553.22 99.81
  L 553.23 99.79
  Z"
/>
<path d="
  M 596.54 60.36
  L 599.14 59.85
  L 601.47 59.84
  L 603.23 60.32
  L 604.43 61.25
  L 605.01 62.32
  L 605.23 63.77
  L 605.15 81.01
  L 605.04 81.54
  L 604.27 82.73
  L 603.05 83.57
  L 601.39 84.00
  L 599.34 84.02
  L 596.89 83.65
  L 595.96 83.67
  L 594.00 83.95
  L 591.67 83.89
  L 591.34 83.52
  L 591.34 52.33
  L 591.58 51.74
  L 592.17 51.49
  L 592.17 51.49
  L 595.32 51.49
  L 595.87 51.72
  L 596.10 52.27
  L 596.10 60.02
  L 596.22 60.28
  L 596.49 60.37
  L 596.54 60.36
  Z
  M 600.45 64.73
  L 600.12 63.92
  L 599.31 63.59
  L 597.29 63.59
  L 596.48 63.92
  L 596.15 64.73
  L 596.15 79.15
  L 596.48 79.96
  L 597.29 80.29
  L 599.31 80.29
  L 600.12 79.96
  L 600.45 79.15
  L 600.45 64.73
  Z"
/>
<rect x="-2.32" y="-16.08" transform="translate(637.61,67.83) rotate(0.6)" width="4.64" height="32.16" rx="0.69"/>
<rect x="-2.24" y="-2.13" transform="translate(628.92,53.95) rotate(-0.9)" width="4.48" height="4.26" rx="0.92"/>
<path d="
  M 653.16 59.94
  L 653.16 52.57
  L 653.43 51.91
  L 654.09 51.64
  L 656.36 51.64
  L 657.05 51.93
  L 657.34 52.62
  L 657.34 83.37
  L 657.20 83.74
  L 656.84 83.91
  L 654.70 83.91
  L 652.92 83.58
  L 652.03 83.57
  L 649.51 83.97
  L 646.35 83.86
  L 645.33 83.41
  L 644.09 81.95
  L 643.62 80.45
  L 643.62 80.35
  L 643.60 64.05
  L 643.90 62.20
  L 644.74 60.89
  L 645.40 60.44
  L 646.24 60.14
  L 648.47 59.83
  L 650.63 59.98
  L 650.63 59.98
  L 652.42 60.46
  L 652.52 60.49
  L 652.96 60.37
  L 653.16 59.94
  Z
  M 652.78 65.19
  L 652.66 64.57
  L 652.31 64.05
  L 651.79 63.70
  L 651.17 63.58
  L 649.81 63.58
  L 649.19 63.70
  L 648.67 64.05
  L 648.32 64.57
  L 648.20 65.19
  L 648.20 78.75
  L 648.32 79.37
  L 648.67 79.89
  L 649.19 80.24
  L 649.81 80.36
  L 651.17 80.36
  L 651.79 80.24
  L 652.31 79.89
  L 652.66 79.37
  L 652.78 78.75
  L 652.78 65.19
  Z"
/>
<rect x="-2.39" y="-2.19" transform="translate(663.76,53.97) rotate(0.7)" width="4.78" height="4.38" rx="0.69"/>
<path d="
  M 617.20 83.21
  L 617.04 83.43
  L 616.63 83.80
  L 616.09 83.93
  L 611.68 83.93
  L 610.75 83.56
  L 609.31 81.96
  L 608.82 80.73
  L 608.80 60.09
  L 609.09 59.80
  L 613.11 59.80
  L 613.43 60.12
  L 613.43 78.59
  L 613.57 79.29
  L 613.96 79.88
  L 614.55 80.27
  L 615.25 80.41
  L 616.09 80.41
  L 616.86 80.26
  L 617.52 79.82
  L 617.96 79.16
  L 618.11 78.39
  L 618.11 60.38
  L 618.21 60.05
  L 618.69 59.80
  L 621.75 59.80
  L 622.26 60.01
  L 622.47 60.52
  L 622.47 83.15
  L 622.24 83.71
  L 621.68 83.94
  L 618.57 83.94
  L 617.97 83.60
  L 617.78 83.27
  L 617.55 83.08
  L 617.26 83.15
  L 617.20 83.21
  Z"
/>
<rect x="-2.40" y="-12.08" transform="translate(629.00,71.87) rotate(-0.1)" width="4.80" height="24.16" rx="0.67"/>
<path d="
  M 683.79 83.23
  L 683.60 83.72
  L 683.11 83.93
  L 683.10 83.93
  L 679.72 83.93
  L 679.28 83.75
  L 679.10 83.31
  L 679.11 65.04
  L 678.99 64.47
  L 678.67 63.99
  L 678.19 63.67
  L 677.63 63.56
  L 676.29 63.56
  L 675.73 63.66
  L 675.24 63.95
  L 674.88 64.40
  L 674.70 64.94
  L 674.68 65.17
  L 674.68 83.34
  L 674.58 83.67
  L 674.08 83.94
  L 670.52 83.93
  L 670.20 83.84
  L 669.95 83.37
  L 669.95 60.51
  L 670.13 60.06
  L 670.57 59.86
  L 672.66 59.87
  L 674.31 60.10
  L 675.28 60.14
  L 678.61 59.89
  L 681.47 60.16
  L 682.43 60.63
  L 683.25 61.61
  L 683.25 61.61
  L 683.60 62.52
  L 683.71 63.56
  L 683.79 83.23
  Z"
/>
<path d="
  M 700.23 59.65
  L 700.87 59.83
  L 701.18 60.42
  L 701.18 60.47
  L 701.06 87.95
  L 700.84 88.85
  L 700.41 89.44
  L 699.79 89.90
  L 697.84 90.53
  L 695.06 90.74
  L 691.11 90.58
  L 689.62 90.49
  L 688.74 90.17
  L 688.24 89.39
  L 688.01 88.57
  L 687.99 88.05
  L 688.18 87.56
  L 688.55 87.20
  L 689.05 87.02
  L 689.05 87.02
  L 689.21 87.01
  L 695.58 87.03
  L 696.20 86.85
  L 696.58 86.45
  L 696.71 85.91
  L 696.72 83.71
  L 696.72 83.64
  L 696.50 83.30
  L 696.10 83.24
  L 693.10 83.75
  L 690.36 83.49
  L 689.26 83.07
  L 688.42 82.40
  L 688.42 82.40
  L 687.73 81.19
  L 687.49 79.57
  L 687.58 63.66
  L 687.85 62.22
  L 688.46 61.16
  L 689.65 60.27
  L 691.35 59.80
  L 693.49 59.78
  L 695.99 60.16
  L 696.18 60.17
  L 700.23 59.65
  Z
  M 696.54 64.86
  L 696.19 64.00
  L 695.33 63.65
  L 693.33 63.65
  L 692.47 64.00
  L 692.12 64.86
  L 692.12 78.62
  L 692.47 79.48
  L 693.33 79.83
  L 695.33 79.83
  L 696.19 79.48
  L 696.54 78.62
  L 696.54 64.86
  Z"
/>
<rect x="661.53" y="60.10" width="4.64" height="23.82" rx="0.59"/>
<rect x="-2.40" y="-1.90" transform="translate(714.24,93.33) rotate(0.6)" width="4.80" height="3.80" rx="1.13"/>
<path d="
  M 644.81 96.15
  L 644.80 96.07
  L 644.94 95.60
  L 645.40 95.39
  L 648.65 95.39
  L 649.16 95.56
  L 649.45 96.01
  L 649.52 96.99
  L 649.35 98.45
  L 649.51 99.07
  L 650.08 99.38
  L 650.08 99.38
  L 650.14 99.38
  L 651.72 99.38
  L 651.73 99.38
  L 652.44 99.68
  L 652.74 100.40
  L 652.74 102.16
  L 652.44 102.85
  L 651.72 103.09
  L 651.72 103.09
  L 651.64 103.08
  L 650.19 103.11
  L 649.73 103.44
  L 649.56 103.97
  L 649.56 118.50
  L 649.66 118.89
  L 649.95 119.16
  L 651.16 119.60
  L 651.82 119.82
  L 652.31 120.26
  L 652.64 120.85
  L 652.91 122.51
  L 652.74 122.96
  L 652.32 123.19
  L 650.17 123.45
  L 648.48 123.45
  L 647.18 123.17
  L 646.23 122.60
  L 645.53 121.66
  L 645.10 120.37
  L 644.88 118.58
  L 644.81 115.99
  L 644.70 104.53
  L 644.45 103.64
  L 643.86 103.00
  L 643.73 102.93
  L 642.98 102.37
  L 642.54 101.55
  L 642.52 100.67
  L 642.93 99.95
  L 643.54 99.59
  L 644.54 98.96
  L 644.54 98.96
  L 644.98 97.81
  L 644.81 96.15
  Z"
/>
<path d="
  M 708.64 99.81
  L 709.16 100.29
  L 709.43 100.96
  L 709.29 101.91
  L 708.64 102.61
  L 707.10 103.51
  L 706.68 104.17
  L 706.60 111.20
  L 706.62 117.41
  L 706.74 118.42
  L 707.14 119.16
  L 708.16 119.73
  L 709.05 120.21
  L 709.62 121.05
  L 709.71 122.03
  L 709.30 122.88
  L 708.51 123.37
  L 705.78 123.39
  L 703.96 123.10
  L 702.69 122.29
  L 702.03 121.11
  L 701.83 119.51
  L 701.66 105.25
  L 701.55 104.55
  L 700.60 102.94
  L 699.54 101.27
  L 699.50 101.15
  L 699.45 100.58
  L 699.68 100.05
  L 700.76 99.15
  L 701.43 98.33
  L 701.49 98.08
  L 701.84 96.86
  L 702.49 96.03
  L 702.49 96.03
  L 703.73 95.55
  L 705.45 95.66
  L 705.86 95.87
  L 706.12 96.25
  L 706.93 98.46
  L 707.51 99.16
  L 708.64 99.81
  Z"
/>
<path d="
  M 591.32 111.39
  L 591.26 109.29
  L 591.20 105.49
  L 591.49 102.86
  L 592.17 101.01
  L 593.25 99.90
  L 594.52 99.50
  L 598.61 99.29
  L 602.29 99.50
  L 603.13 99.71
  L 603.82 100.08
  L 604.68 101.04
  L 605.22 102.49
  L 605.38 104.30
  L 605.19 106.32
  L 604.93 106.80
  L 604.45 107.05
  L 603.08 107.17
  L 601.77 107.08
  L 601.25 106.83
  L 600.98 106.31
  L 600.57 103.91
  L 600.37 103.51
  L 599.99 103.27
  L 598.43 103.01
  L 597.01 103.21
  L 596.85 103.26
  L 596.26 103.72
  L 596.03 104.43
  L 595.99 111.38
  L 596.06 118.33
  L 596.29 119.04
  L 596.89 119.49
  L 597.04 119.55
  L 598.46 119.74
  L 600.03 119.48
  L 600.40 119.24
  L 600.60 118.83
  L 601.00 116.43
  L 601.27 115.91
  L 601.79 115.65
  L 603.10 115.56
  L 604.47 115.68
  L 604.95 115.93
  L 605.21 116.41
  L 605.41 118.42
  L 605.26 120.23
  L 604.72 121.69
  L 603.87 122.65
  L 603.18 123.02
  L 602.33 123.23
  L 598.66 123.46
  L 594.57 123.27
  L 593.29 122.87
  L 592.21 121.76
  L 591.52 119.92
  L 591.22 117.29
  L 591.27 113.49
  L 591.32 111.39
  Z"
/>
<path d="
  M 623.08 119.68
  L 622.79 121.12
  L 621.98 122.34
  L 620.76 123.15
  L 619.32 123.44
  L 612.32 123.44
  L 610.88 123.15
  L 609.66 122.34
  L 608.85 121.12
  L 608.56 119.68
  L 608.56 103.12
  L 608.85 101.68
  L 609.66 100.46
  L 610.88 99.65
  L 612.32 99.36
  L 619.32 99.36
  L 620.76 99.65
  L 621.98 100.46
  L 622.79 101.68
  L 623.08 103.12
  L 623.08 119.68
  Z
  M 618.3474 104.2355
  L 617.9916 103.3805
  L 617.1353 103.0276
  L 614.3553 103.0324
  L 613.5004 103.3883
  L 613.1475 104.2445
  L 613.1726 118.6245
  L 613.5284 119.4795
  L 614.3847 119.8324
  L 617.1647 119.8276
  L 618.0196 119.4717
  L 618.3725 118.6155
  L 618.3474 104.2355
  Z"
/>
<path d="
  M 640.57 122.71
  L 640.37 123.20
  L 639.88 123.41
  L 639.88 123.41
  L 636.49 123.41
  L 636.05 123.23
  L 635.87 122.79
  L 635.87 104.49
  L 635.76 103.92
  L 635.44 103.44
  L 634.96 103.12
  L 634.39 103.01
  L 633.05 103.01
  L 632.43 103.13
  L 631.91 103.48
  L 631.56 104.00
  L 631.44 104.62
  L 631.44 122.82
  L 631.26 123.24
  L 630.84 123.42
  L 627.27 123.42
  L 627.12 123.40
  L 626.82 123.20
  L 626.70 122.85
  L 626.70 99.96
  L 626.88 99.51
  L 627.32 99.31
  L 629.41 99.32
  L 631.07 99.55
  L 632.04 99.59
  L 635.38 99.33
  L 638.24 99.60
  L 639.20 100.07
  L 640.02 101.05
  L 640.37 101.96
  L 640.48 103.01
  L 640.57 122.71
  Z"
/>
<path d="
  M 659.88 122.80
  L 659.71 123.22
  L 659.29 123.40
  L 656.08 123.40
  L 656.08 123.40
  L 655.61 123.20
  L 655.41 122.72
  L 655.41 100.34
  L 655.41 100.25
  L 655.85 99.43
  L 656.75 99.20
  L 660.32 99.79
  L 661.13 99.78
  L 663.62 99.27
  L 663.80 99.25
  L 664.57 99.59
  L 664.80 100.41
  L 664.45 102.51
  L 664.09 103.16
  L 663.38 103.42
  L 661.87 103.42
  L 661.11 103.57
  L 660.46 104.00
  L 660.03 104.65
  L 659.88 105.41
  L 659.88 122.80
  Z"
/>
<path d="
  M 680.26 122.81
  L 680.09 123.23
  L 679.67 123.40
  L 670.31 123.42
  L 668.82 123.10
  L 667.56 122.18
  L 666.71 120.81
  L 666.41 119.19
  L 666.39 103.63
  L 666.68 102.01
  L 667.52 100.64
  L 668.78 99.72
  L 670.27 99.40
  L 670.27 99.40
  L 679.63 99.38
  L 680.05 99.55
  L 680.22 99.97
  L 680.26 122.81
  Z
  M 675.4759 104.4623
  L 675.3659 103.9193
  L 675.0565 103.4597
  L 674.5948 103.1535
  L 674.0510 103.0473
  L 672.4710 103.0528
  L 671.9280 103.1628
  L 671.4684 103.4722
  L 671.1622 103.9340
  L 671.0560 104.4778
  L 671.1041 118.2577
  L 671.2141 118.8007
  L 671.5235 119.2603
  L 671.9852 119.5665
  L 672.5290 119.6727
  L 674.1090 119.6672
  L 674.6520 119.5572
  L 675.1116 119.2478
  L 675.4178 118.7860
  L 675.5240 118.2422
  L 675.4759 104.4623
  Z"
/>
<path d="
  M 688.51 111.37
  L 688.59 118.34
  L 688.83 119.05
  L 689.42 119.51
  L 689.58 119.56
  L 691.00 119.76
  L 692.57 119.49
  L 692.95 119.25
  L 693.14 118.84
  L 693.54 116.43
  L 693.81 115.91
  L 694.33 115.65
  L 695.64 115.56
  L 697.02 115.67
  L 697.50 115.92
  L 697.76 116.40
  L 697.97 118.42
  L 697.82 120.24
  L 697.28 121.70
  L 696.43 122.66
  L 695.74 123.04
  L 694.89 123.25
  L 691.21 123.48
  L 687.10 123.30
  L 685.82 122.90
  L 684.74 121.79
  L 684.04 119.95
  L 683.74 117.30
  L 683.78 113.50
  L 683.83 111.39
  L 683.76 109.29
  L 683.69 105.48
  L 683.98 102.83
  L 684.66 100.98
  L 685.74 99.87
  L 687.02 99.46
  L 691.12 99.25
  L 694.80 99.45
  L 695.65 99.66
  L 696.35 100.03
  L 697.21 100.99
  L 697.75 102.44
  L 697.92 104.26
  L 697.72 106.28
  L 697.47 106.76
  L 696.99 107.02
  L 695.61 107.14
  L 694.30 107.06
  L 693.77 106.80
  L 693.50 106.28
  L 693.09 103.87
  L 692.89 103.47
  L 692.51 103.23
  L 690.94 102.97
  L 689.52 103.18
  L 689.52 103.18
  L 689.36 103.23
  L 688.77 103.69
  L 688.54 104.41
  L 688.51 111.37
  Z"
/>
<rect x="-2.33" y="-12.03" transform="translate(714.14,111.37) rotate(-0.3)" width="4.66" height="24.06" rx="0.57"/>
<path d="
  M 732.98 122.65
  L 732.78 123.14
  L 732.30 123.35
  L 732.30 123.35
  L 732.29 123.35
  L 728.92 123.34
  L 728.48 123.16
  L 728.30 122.73
  L 728.31 104.54
  L 728.20 103.97
  L 727.88 103.49
  L 727.41 103.18
  L 726.84 103.06
  L 725.51 103.06
  L 724.75 103.25
  L 724.18 103.78
  L 723.91 104.66
  L 723.90 122.75
  L 723.73 123.18
  L 723.30 123.35
  L 719.75 123.35
  L 719.35 123.18
  L 719.19 122.78
  L 719.20 100.03
  L 719.38 99.58
  L 719.82 99.38
  L 721.89 99.39
  L 723.55 99.62
  L 724.51 99.66
  L 727.83 99.41
  L 730.67 99.68
  L 731.63 100.14
  L 732.44 101.12
  L 732.44 101.12
  L 732.79 102.03
  L 732.90 103.07
  L 732.98 122.65
  Z"
/>
<path d="
  M 748.97 100.00
  L 748.95 127.47
  L 748.74 128.37
  L 748.31 128.96
  L 747.69 129.42
  L 745.74 130.05
  L 742.96 130.28
  L 739.02 130.13
  L 737.52 130.05
  L 736.65 129.73
  L 736.14 128.95
  L 735.91 128.13
  L 735.88 127.61
  L 736.07 127.12
  L 736.45 126.76
  L 736.94 126.58
  L 736.94 126.58
  L 737.10 126.57
  L 743.47 126.57
  L 744.27 126.24
  L 744.60 125.44
  L 744.60 123.24
  L 744.60 123.17
  L 744.38 122.84
  L 743.98 122.78
  L 740.98 123.30
  L 738.24 123.05
  L 737.14 122.63
  L 736.30 121.97
  L 736.30 121.97
  L 735.61 120.76
  L 735.36 119.14
  L 735.39 103.23
  L 735.66 101.79
  L 736.26 100.73
  L 737.45 99.84
  L 739.14 99.37
  L 741.28 99.33
  L 743.78 99.71
  L 743.97 99.72
  L 748.02 99.18
  L 748.66 99.36
  L 748.97 99.95
  L 748.97 99.95
  L 748.97 100.00
  Z
  M 744.6083 104.5159
  L 744.5062 104.0071
  L 744.2171 103.5761
  L 743.7851 103.2886
  L 743.2760 103.1882
  L 741.2360 103.1918
  L 740.7272 103.2939
  L 740.2962 103.5830
  L 740.0086 104.0150
  L 739.9083 104.5241
  L 739.9317 117.9441
  L 740.0338 118.4529
  L 740.3229 118.8839
  L 740.7549 119.1714
  L 741.2640 119.2718
  L 743.3040 119.2682
  L 743.8128 119.1661
  L 744.2438 118.8770
  L 744.5314 118.4450
  L 744.6317 117.9359
  L 744.6083 104.5159
  Z"
/>
<rect x="194.23" y="137.68" width="554.76" height="2.16" rx="0.66"/>
<circle cx="641.90" cy="149.40" r="2.10"/>
<circle cx="322.47" cy="149.52" r="1.88"/>
<circle cx="268.55" cy="154.66" r="2.18"/>
<ellipse cx="0.00" cy="0.00" transform="translate(319.88,154.69) rotate(-68.2)" rx="2.07" ry="1.80"/>
<ellipse cx="0.00" cy="0.00" transform="translate(325.21,154.69) rotate(-139.3)" rx="2.13" ry="1.99"/>
<circle cx="535.57" cy="154.69" r="2.11"/>
<circle cx="541.11" cy="154.66" r="2.11"/>
<circle cx="636.95" cy="154.70" r="2.15"/>
<circle cx="642.52" cy="154.69" r="2.16"/>
<circle cx="382.38" cy="154.70" r="2.01"/>
<circle cx="607.71" cy="154.69" r="1.97"/>
<path d="
  M 602.13 174.06
  L 602.12 174.09
  L 602.12 174.09
  L 602.12 174.09
  L 601.57 177.35
  L 601.30 180.66
  L 601.30 184.02
  L 601.58 187.45
  L 601.78 187.85
  L 602.20 188.01
  L 611.63 188.01
  L 611.63 188.01
  L 612.42 187.85
  L 613.09 187.40
  L 613.54 186.73
  L 613.70 185.93
  L 613.70 164.34
  L 613.70 164.34
  L 613.82 164.05
  L 614.12 163.93
  L 616.63 163.93
  L 616.94 164.06
  L 617.07 164.37
  L 617.07 164.37
  L 617.07 178.08
  L 617.24 178.49
  L 617.64 178.68
  L 617.67 178.68
  L 625.29 178.68
  L 625.68 178.54
  L 625.90 178.18
  L 625.91 178.06
  L 625.91 168.35
  L 626.16 167.76
  L 626.75 167.51
  L 628.26 167.51
  L 628.99 167.81
  L 629.29 168.55
  L 629.29 177.84
  L 629.33 178.10
  L 629.64 178.53
  L 630.15 178.70
  L 636.29 178.70
  L 637.17 178.37
  L 637.61 177.55
  L 637.61 177.55
  L 637.62 177.37
  L 637.62 168.54
  L 637.84 167.87
  L 638.24 167.54
  L 638.74 167.42
  L 639.94 167.42
  L 640.44 167.55
  L 640.81 167.92
  L 640.95 168.43
  L 640.95 177.19
  L 641.06 177.75
  L 641.38 178.23
  L 641.86 178.55
  L 642.42 178.66
  L 648.07 178.66
  L 648.87 178.34
  L 649.22 177.56
  L 649.21 170.97
  L 648.53 165.29
  L 648.70 164.53
  L 649.38 164.14
  L 649.47 164.14
  L 650.77 164.14
  L 651.58 164.44
  L 652.00 165.19
  L 652.42 168.45
  L 652.61 171.65
  L 652.57 174.80
  L 652.31 177.90
  L 652.31 177.94
  L 652.50 178.47
  L 653.01 178.69
  L 675.49 178.69
  L 676.02 178.47
  L 676.24 177.93
  L 676.24 171.16
  L 676.24 171.13
  L 675.95 170.52
  L 675.32 170.31
  L 663.53 170.40
  L 661.69 170.11
  L 660.93 169.75
  L 660.36 169.25
  L 659.79 168.27
  L 659.57 167.06
  L 659.65 165.63
  L 660.06 163.87
  L 660.83 161.79
  L 661.90 159.59
  L 663.28 157.26
  L 664.60 155.44
  L 665.57 154.89
  L 666.67 155.08
  L 667.49 155.55
  L 667.94 156.18
  L 667.78 156.94
  L 667.71 157.02
  L 665.75 159.46
  L 665.75 159.46
  L 664.03 162.49
  L 662.81 165.85
  L 662.89 166.35
  L 663.32 166.63
  L 663.41 166.63
  L 676.16 166.59
  L 677.69 166.85
  L 678.77 167.54
  L 679.38 168.57
  L 679.60 169.98
  L 679.48 178.06
  L 679.48 178.10
  L 679.72 178.64
  L 680.27 178.84
  L 688.39 178.70
  L 691.44 178.47
  L 692.74 178.10
  L 693.91 177.57
  L 695.02 176.83
  L 696.03 175.91
  L 697.93 173.30
  L 698.09 172.77
  L 697.98 172.24
  L 696.54 169.94
  L 694.80 168.40
  L 694.04 168.07
  L 690.17 167.36
  L 688.34 167.31
  L 686.58 167.46
  L 686.14 167.37
  L 685.88 167.01
  L 685.25 164.67
  L 685.24 164.62
  L 685.36 164.10
  L 685.82 163.83
  L 689.34 163.58
  L 692.28 163.75
  L 694.83 164.37
  L 696.92 165.43
  L 698.15 166.42
  L 699.27 167.67
  L 700.21 169.09
  L 701.05 170.78
  L 701.49 171.34
  L 702.14 171.63
  L 703.97 171.93
  L 704.49 172.18
  L 704.80 172.68
  L 705.22 174.25
  L 705.24 174.36
  L 705.04 175.02
  L 704.42 175.30
  L 701.40 175.30
  L 700.78 175.48
  L 700.35 175.97
  L 699.61 177.32
  L 698.72 178.50
  L 696.65 180.29
  L 693.99 181.61
  L 690.90 182.33
  L 687.57 182.46
  L 644.33 182.44
  L 641.62 182.06
  L 639.55 181.71
  L 637.94 181.82
  L 636.87 182.19
  L 635.76 182.44
  L 617.53 182.44
  L 617.52 182.44
  L 617.16 182.60
  L 617.03 182.97
  L 617.05 185.32
  L 616.80 187.22
  L 616.27 188.71
  L 615.47 189.85
  L 614.19 190.78
  L 612.53 191.36
  L 610.34 191.67
  L 607.43 191.74
  L 607.04 191.74
  L 604.09 191.64
  L 602.10 191.36
  L 600.56 190.81
  L 599.46 190.00
  L 598.87 189.26
  L 598.42 188.32
  L 597.96 186.04
  L 597.85 183.13
  L 597.95 180.14
  L 598.77 173.92
  L 599.01 173.53
  L 599.44 173.37
  L 601.57 173.37
  L 602.00 173.56
  L 602.14 174.00
  L 602.13 174.06
  Z"
/>
<circle cx="452.55" cy="158.53" r="2.14"/>
<circle cx="446.98" cy="158.56" r="2.13"/>
<path d="
  M 388.58 178.66
  L 392.05 178.75
  L 392.68 178.52
  L 392.96 177.91
  L 392.96 177.91
  L 392.96 177.89
  L 392.96 164.37
  L 393.08 164.08
  L 393.37 163.96
  L 395.93 163.96
  L 396.13 164.01
  L 396.34 164.37
  L 396.34 177.82
  L 396.60 178.44
  L 397.22 178.70
  L 404.68 178.70
  L 405.25 178.47
  L 405.48 177.91
  L 405.48 158.50
  L 405.72 157.91
  L 406.30 157.67
  L 407.79 157.67
  L 408.24 157.79
  L 408.57 158.12
  L 408.69 158.57
  L 408.69 181.88
  L 408.54 182.24
  L 408.19 182.39
  L 388.59 182.44
  L 368.98 182.42
  L 368.63 182.27
  L 368.48 181.91
  L 368.45 158.60
  L 368.71 157.96
  L 369.35 157.70
  L 370.84 157.70
  L 370.84 157.70
  L 371.42 157.94
  L 371.66 158.52
  L 371.69 177.93
  L 371.69 177.93
  L 371.92 178.49
  L 372.49 178.72
  L 379.95 178.71
  L 380.55 178.47
  L 380.82 177.88
  L 380.83 177.83
  L 380.81 164.38
  L 380.92 164.09
  L 381.21 163.97
  L 383.77 163.97
  L 384.06 164.09
  L 384.19 164.38
  L 384.21 177.90
  L 384.21 177.92
  L 384.48 178.53
  L 385.12 178.76
  L 388.58 178.66
  Z"
/>
<rect x="416.06" y="157.67" width="3.36" height="24.76" rx="0.81"/>
<path d="
  M 470.98 161.83
  L 471.45 161.26
  L 471.45 161.26
  L 471.90 160.88
  L 472.47 160.71
  L 473.05 160.77
  L 473.57 161.05
  L 481.20 167.31
  L 481.73 167.61
  L 482.56 167.70
  L 483.34 167.39
  L 483.89 166.76
  L 484.09 165.94
  L 484.09 158.18
  L 484.13 157.98
  L 484.55 157.72
  L 486.88 157.72
  L 486.88 157.72
  L 487.30 157.90
  L 487.47 158.32
  L 487.31 167.46
  L 487.09 168.49
  L 486.48 169.38
  L 485.88 170.26
  L 485.81 170.46
  L 485.81 170.89
  L 486.03 171.25
  L 487.04 172.36
  L 487.75 173.60
  L 487.75 173.60
  L 488.26 175.67
  L 488.13 178.02
  L 487.41 179.92
  L 486.60 180.89
  L 485.58 181.65
  L 484.26 182.28
  L 482.79 182.71
  L 479.00 183.10
  L 474.18 182.80
  L 472.02 182.22
  L 471.18 181.72
  L 470.51 181.08
  L 470.51 181.08
  L 470.51 181.08
  L 469.98 180.25
  L 469.63 179.25
  L 469.51 176.79
  L 470.02 173.82
  L 470.89 172.66
  L 472.38 171.58
  L 474.45 170.60
  L 476.99 169.77
  L 477.15 169.70
  L 477.41 169.24
  L 477.20 168.76
  L 471.17 163.81
  L 471.17 163.81
  L 470.82 163.38
  L 470.66 162.86
  L 470.72 162.31
  L 470.98 161.83
  Z
  M 473.42 179.27
  L 480.77 179.32
  L 482.19 179.11
  L 483.46 178.54
  L 484.35 177.72
  L 484.78 176.69
  L 484.69 175.71
  L 484.10 174.63
  L 482.86 173.30
  L 481.47 172.28
  L 480.97 172.12
  L 480.46 172.20
  L 473.73 174.82
  L 473.27 175.13
  L 473.00 175.61
  L 472.79 176.86
  L 472.80 178.39
  L 472.99 178.92
  L 473.42 179.27
  Z"
/>
<path d="
  M 584.09 182.17
  L 584.09 182.17
  L 583.82 182.43
  L 518.82 182.43
  L 518.34 182.23
  L 518.14 181.75
  L 518.14 158.55
  L 518.39 157.96
  L 518.98 157.71
  L 520.60 157.71
  L 521.10 157.87
  L 521.45 158.56
  L 521.45 178.02
  L 521.52 178.32
  L 521.78 178.62
  L 522.16 178.73
  L 529.79 178.73
  L 530.35 178.49
  L 530.55 177.92
  L 530.54 177.86
  L 530.21 174.91
  L 530.14 172.16
  L 530.32 169.62
  L 530.74 167.27
  L 531.18 166.16
  L 531.91 165.22
  L 532.87 164.51
  L 533.99 164.09
  L 536.77 163.66
  L 539.69 163.60
  L 542.74 163.89
  L 545.93 164.54
  L 546.43 164.87
  L 546.63 165.44
  L 546.63 177.99
  L 546.84 178.51
  L 547.36 178.72
  L 554.19 178.72
  L 554.25 178.72
  L 554.74 178.45
  L 554.87 177.90
  L 554.48 174.72
  L 554.54 171.59
  L 554.54 171.59
  L 554.98 168.71
  L 555.81 165.87
  L 556.48 165.00
  L 557.70 164.43
  L 559.49 164.03
  L 563.84 163.58
  L 567.33 163.72
  L 568.62 163.99
  L 569.74 164.43
  L 570.55 165.00
  L 571.13 165.74
  L 571.29 166.12
  L 571.73 167.91
  L 571.96 170.15
  L 571.86 176.30
  L 571.79 177.72
  L 572.04 178.40
  L 572.71 178.70
  L 572.71 178.70
  L 572.73 178.70
  L 579.80 178.70
  L 580.47 178.42
  L 580.75 177.75
  L 580.75 158.10
  L 580.95 157.84
  L 582.80 157.68
  L 583.91 157.84
  L 584.09 158.07
  L 584.09 182.17
  Z
  M 543.2818 168.3216
  L 542.9760 167.5868
  L 542.2400 167.2834
  L 534.7000 167.2966
  L 533.9652 167.6025
  L 533.6619 168.3384
  L 533.6782 177.6784
  L 533.9840 178.4132
  L 534.7200 178.7166
  L 542.2600 178.7034
  L 542.9948 178.3975
  L 543.2981 177.6616
  L 543.2818 168.3216
  Z
  M 568.54 177.75
  L 568.46 168.37
  L 568.29 167.84
  L 567.86 167.48
  L 567.48 167.41
  L 560.53 167.47
  L 559.50 167.67
  L 558.63 168.22
  L 558.05 169.04
  L 557.85 170.00
  L 557.91 176.32
  L 557.91 176.32
  L 558.12 177.27
  L 558.71 178.08
  L 559.59 178.61
  L 560.63 178.79
  L 567.58 178.73
  L 568.26 178.44
  L 568.54 177.75
  Z"
/>
<path d="
  M 279.92 181.74
  L 279.79 182.21
  L 279.36 182.43
  L 279.36 182.43
  L 279.32 182.43
  L 263.36 182.43
  L 262.79 182.20
  L 262.56 181.63
  L 262.56 179.60
  L 262.83 178.95
  L 263.48 178.68
  L 274.94 178.68
  L 275.46 178.44
  L 275.62 177.89
  L 275.62 177.89
  L 275.59 177.78
  L 274.85 175.54
  L 273.83 172.55
  L 272.91 170.52
  L 271.87 168.92
  L 270.67 167.71
  L 270.30 167.43
  L 269.24 167.09
  L 264.73 167.09
  L 264.39 166.97
  L 264.18 166.67
  L 263.60 164.52
  L 263.60 164.51
  L 263.69 163.86
  L 264.22 163.48
  L 266.39 163.12
  L 268.43 163.06
  L 270.35 163.31
  L 272.15 163.86
  L 272.15 163.86
  L 272.83 164.16
  L 273.87 164.93
  L 274.85 166.12
  L 275.82 167.76
  L 276.78 169.89
  L 278.63 175.56
  L 279.92 181.74
  Z"
/>
<path d="
  M 352.46 176.66
  L 352.08 175.25
  L 351.86 173.67
  L 351.95 170.02
  L 352.43 167.91
  L 353.44 166.10
  L 354.84 164.78
  L 356.75 163.78
  L 359.06 163.17
  L 361.79 162.91
  L 361.80 162.91
  L 362.37 163.14
  L 362.61 163.71
  L 362.61 165.68
  L 362.45 166.16
  L 362.03 166.45
  L 356.65 167.91
  L 356.08 168.17
  L 355.62 168.60
  L 355.32 169.16
  L 355.22 169.78
  L 355.22 174.56
  L 355.23 174.76
  L 355.45 175.37
  L 355.90 175.83
  L 356.51 176.07
  L 357.15 176.03
  L 363.03 174.43
  L 363.85 174.56
  L 364.29 175.27
  L 364.30 175.40
  L 364.30 176.34
  L 363.92 177.46
  L 362.94 178.12
  L 349.88 181.67
  L 349.33 181.58
  L 349.04 181.12
  L 349.04 181.12
  L 349.03 181.03
  L 349.03 179.10
  L 349.28 178.38
  L 349.92 177.95
  L 352.10 177.35
  L 352.43 177.09
  L 352.47 176.68
  L 352.47 176.68
  L 352.46 176.66
  Z"
/>
<path d="
  M 248.48 182.44
  L 233.01 182.44
  L 232.35 182.68
  L 232.00 183.30
  L 231.70 186.35
  L 231.78 189.37
  L 232.10 191.69
  L 232.66 193.98
  L 232.69 194.12
  L 232.46 194.91
  L 231.71 195.25
  L 230.40 195.25
  L 229.65 194.99
  L 229.20 194.33
  L 228.73 192.14
  L 228.45 189.74
  L 228.43 184.26
  L 228.93 181.71
  L 229.44 180.68
  L 230.11 179.81
  L 230.11 179.81
  L 231.58 178.75
  L 232.02 178.32
  L 232.13 177.71
  L 231.89 174.40
  L 231.97 171.41
  L 232.37 168.72
  L 233.08 166.34
  L 233.95 165.09
  L 235.31 164.40
  L 238.99 163.78
  L 242.66 163.61
  L 242.66 163.61
  L 244.74 163.73
  L 246.87 164.19
  L 248.20 165.09
  L 248.77 166.00
  L 249.10 167.10
  L 249.28 170.71
  L 249.28 172.00
  L 249.19 181.76
  L 248.97 182.24
  L 248.48 182.44
  Z
  M 245.41 167.64
  L 244.61 167.51
  L 244.61 167.51
  L 240.80 167.35
  L 236.90 167.87
  L 236.14 168.29
  L 235.74 169.06
  L 235.25 173.67
  L 235.31 175.85
  L 235.56 177.96
  L 235.87 178.49
  L 236.44 178.70
  L 245.34 178.70
  L 245.80 178.51
  L 245.99 178.04
  L 245.99 168.34
  L 245.83 167.88
  L 245.41 167.64
  Z"
/>
<path d="
  M 503.03 192.47
  L 502.67 192.59
  L 502.32 192.46
  L 500.83 191.23
  L 500.83 191.23
  L 500.59 190.78
  L 500.74 190.28
  L 506.26 183.60
  L 506.41 182.92
  L 505.94 182.41
  L 505.94 182.41
  L 505.68 182.37
  L 503.37 182.46
  L 500.63 182.55
  L 498.75 182.40
  L 497.21 181.95
  L 496.10 181.20
  L 495.23 179.97
  L 494.73 178.17
  L 494.39 173.23
  L 494.71 168.66
  L 495.29 166.61
  L 496.40 165.06
  L 497.79 164.20
  L 499.62 163.76
  L 502.47 163.58
  L 505.19 163.65
  L 507.75 163.95
  L 510.18 164.51
  L 510.71 164.86
  L 510.91 165.47
  L 510.86 179.72
  L 510.84 179.91
  L 510.12 182.59
  L 509.06 185.11
  L 509.06 185.11
  L 509.06 185.11
  L 509.06 185.11
  L 507.91 187.12
  L 506.52 189.02
  L 504.90 190.81
  L 503.03 192.47
  Z
  M 507.4842 168.3953
  L 507.1719 167.6300
  L 506.4099 167.3097
  L 498.9300 167.2705
  L 498.1647 167.5828
  L 497.8444 168.3448
  L 497.7958 177.6247
  L 498.1081 178.3900
  L 498.8701 178.7103
  L 506.3500 178.7495
  L 507.1153 178.4372
  L 507.4356 177.6752
  L 507.4842 168.3953
  Z"
/>
<path d="
  M 215.03 181.74
  L 214.81 182.22
  L 214.32 182.42
  L 198.91 182.45
  L 198.25 182.70
  L 197.90 183.31
  L 197.61 186.35
  L 197.70 189.36
  L 198.03 191.66
  L 198.59 193.95
  L 198.62 194.09
  L 198.39 194.87
  L 197.64 195.21
  L 196.34 195.22
  L 195.59 194.96
  L 195.14 194.30
  L 194.67 192.13
  L 194.38 189.73
  L 194.35 184.27
  L 194.85 181.73
  L 195.35 180.70
  L 196.02 179.84
  L 196.02 179.84
  L 197.48 178.78
  L 197.91 178.35
  L 198.02 177.74
  L 197.78 174.45
  L 197.85 171.46
  L 198.24 168.78
  L 198.94 166.41
  L 199.81 165.17
  L 201.16 164.47
  L 204.82 163.84
  L 208.48 163.68
  L 210.55 163.79
  L 212.67 164.24
  L 214.00 165.14
  L 214.57 166.04
  L 214.90 167.13
  L 215.09 170.73
  L 215.09 172.01
  L 215.03 181.74
  Z
  M 211.32 167.60
  L 210.52 167.48
  L 210.52 167.48
  L 206.71 167.31
  L 202.80 167.83
  L 202.04 168.25
  L 201.64 169.02
  L 201.15 173.63
  L 201.20 175.82
  L 201.46 177.93
  L 201.76 178.46
  L 202.34 178.67
  L 211.25 178.68
  L 211.71 178.48
  L 211.90 178.02
  L 211.90 168.30
  L 211.74 167.85
  L 211.32 167.60
  Z"
/>
<path d="
  M 716.58 192.47
  L 716.22 192.59
  L 715.87 192.46
  L 714.38 191.24
  L 714.38 191.24
  L 714.14 190.79
  L 714.29 190.29
  L 719.77 183.61
  L 719.92 182.93
  L 719.45 182.43
  L 719.45 182.43
  L 719.19 182.39
  L 716.89 182.49
  L 714.15 182.58
  L 712.28 182.44
  L 710.74 181.99
  L 709.63 181.26
  L 708.76 180.02
  L 708.26 178.23
  L 707.90 173.31
  L 708.21 168.75
  L 708.77 166.71
  L 709.88 165.16
  L 711.26 164.29
  L 713.09 163.85
  L 715.93 163.66
  L 718.64 163.72
  L 721.20 164.02
  L 723.62 164.56
  L 724.15 164.92
  L 724.35 165.52
  L 724.35 179.73
  L 724.33 179.92
  L 723.61 182.59
  L 722.57 185.11
  L 722.57 185.11
  L 721.43 187.12
  L 720.05 189.02
  L 718.43 190.80
  L 716.58 192.47
  Z
  M 720.9768 168.1867
  L 720.7242 167.5706
  L 720.1099 167.3137
  L 712.2899 167.2864
  L 711.6739 167.5391
  L 711.4169 168.1533
  L 711.3832 177.8133
  L 711.6358 178.4294
  L 712.2501 178.6863
  L 720.0701 178.7136
  L 720.6861 178.4609
  L 720.9431 177.8467
  L 720.9768 168.1867
  Z"
/>
<path d="
  M 312.15 168.33
  L 312.15 177.37
  L 312.25 177.88
  L 312.54 178.32
  L 312.97 178.61
  L 313.48 178.71
  L 318.55 178.71
  L 319.20 178.60
  L 319.77 178.27
  L 320.20 177.78
  L 320.43 177.16
  L 320.47 176.79
  L 320.47 168.68
  L 320.82 167.82
  L 321.67 167.47
  L 321.67 167.47
  L 322.78 167.47
  L 323.56 167.79
  L 323.88 168.57
  L 323.88 177.10
  L 324.00 177.71
  L 324.35 178.23
  L 324.87 178.58
  L 325.48 178.70
  L 330.39 178.70
  L 330.99 178.59
  L 331.51 178.26
  L 331.88 177.77
  L 332.04 177.18
  L 332.18 174.09
  L 332.10 171.17
  L 331.79 168.42
  L 331.26 165.83
  L 331.24 165.25
  L 331.45 164.72
  L 331.87 164.32
  L 332.41 164.13
  L 332.41 164.13
  L 332.58 164.12
  L 333.18 164.12
  L 334.17 164.47
  L 334.71 165.37
  L 335.16 168.10
  L 335.41 170.82
  L 335.44 173.50
  L 335.26 176.17
  L 335.26 176.17
  L 335.26 176.17
  L 335.12 177.33
  L 334.49 179.54
  L 333.97 180.41
  L 333.31 181.12
  L 333.31 181.12
  L 331.95 181.95
  L 330.22 182.37
  L 326.35 182.45
  L 324.65 182.21
  L 323.12 181.77
  L 322.14 181.60
  L 321.16 181.78
  L 319.49 182.24
  L 317.56 182.48
  L 315.39 182.49
  L 312.97 182.27
  L 312.38 182.44
  L 312.10 182.98
  L 312.10 183.02
  L 312.02 185.65
  L 311.76 187.48
  L 311.23 188.98
  L 310.46 190.05
  L 309.73 190.63
  L 308.80 191.09
  L 306.54 191.54
  L 298.95 191.69
  L 296.60 191.31
  L 295.64 190.87
  L 294.83 190.28
  L 294.83 190.28
  L 294.83 190.28
  L 294.83 190.28
  L 294.83 190.28
  L 294.06 189.37
  L 293.48 188.23
  L 293.12 186.87
  L 292.96 185.28
  L 293.06 179.93
  L 293.73 175.47
  L 294.22 174.71
  L 295.07 174.41
  L 296.18 174.41
  L 296.31 174.42
  L 297.07 174.89
  L 297.23 175.77
  L 296.63 178.74
  L 296.32 181.66
  L 296.31 184.52
  L 296.59 187.34
  L 296.86 187.82
  L 297.38 188.01
  L 306.57 188.01
  L 307.40 187.85
  L 308.10 187.38
  L 308.57 186.68
  L 308.74 185.85
  L 308.74 185.85
  L 308.74 168.45
  L 309.00 167.83
  L 309.62 167.57
  L 311.38 167.57
  L 311.92 167.79
  L 312.15 168.33
  Z"
/>
<path d="
  M 463.13 164.38
  L 463.13 182.04
  L 463.02 182.31
  L 462.75 182.42
  L 440.51 182.42
  L 439.38 182.31
  L 438.34 181.99
  L 437.26 181.38
  L 436.55 180.62
  L 436.02 179.60
  L 435.65 178.31
  L 435.42 176.64
  L 435.47 172.58
  L 436.17 168.40
  L 436.69 167.64
  L 437.56 167.35
  L 438.27 167.35
  L 438.77 167.46
  L 439.18 167.76
  L 439.43 168.21
  L 439.47 168.71
  L 439.47 168.71
  L 439.44 168.87
  L 438.80 172.31
  L 438.74 175.71
  L 439.01 177.91
  L 439.34 178.48
  L 439.96 178.70
  L 458.93 178.70
  L 459.48 178.47
  L 459.71 177.92
  L 459.71 164.37
  L 459.83 164.07
  L 460.13 163.95
  L 462.70 163.95
  L 463.00 164.08
  L 463.13 164.38
  Z"
/>
<path d="
  M 745.90 164.33
  L 746.02 164.05
  L 746.30 163.93
  L 748.57 163.93
  L 748.87 164.05
  L 749.00 164.35
  L 749.00 164.35
  L 749.00 181.83
  L 748.82 182.25
  L 748.40 182.43
  L 737.03 182.43
  L 737.03 182.43
  L 736.47 182.66
  L 736.25 183.22
  L 736.03 185.74
  L 735.26 187.99
  L 735.26 187.99
  L 735.26 187.99
  L 733.77 190.19
  L 731.61 192.05
  L 730.65 192.24
  L 730.19 192.04
  L 729.84 191.68
  L 729.82 191.64
  L 729.29 190.74
  L 729.17 189.78
  L 729.78 189.04
  L 729.81 189.02
  L 731.36 187.85
  L 731.36 187.85
  L 732.32 186.27
  L 732.76 184.24
  L 732.94 176.99
  L 732.76 164.42
  L 732.88 164.10
  L 733.20 163.96
  L 733.20 163.96
  L 733.20 163.96
  L 735.98 163.96
  L 736.24 164.07
  L 736.35 164.33
  L 736.35 177.98
  L 736.35 177.98
  L 736.55 178.45
  L 737.03 178.65
  L 745.31 178.65
  L 745.73 178.48
  L 745.90 178.06
  L 745.90 164.33
  Z"
/>
<rect x="-2.70" y="-2.80" transform="translate(223.34,179.91) rotate(0.1)" width="5.40" height="5.60" rx="2.07"/>
<rect x="-2.61" y="-2.74" transform="translate(257.36,179.92) rotate(3.4)" width="5.22" height="5.48" rx="1.84"/>
<rect x="-2.64" y="-2.75" transform="translate(285.97,179.91) rotate(0.3)" width="5.28" height="5.50" rx="1.79"/>
<circle cx="394.70" cy="187.59" r="2.20"/>
<circle cx="693.61" cy="187.53" r="2.23"/>
<circle cx="746.87" cy="187.59" r="2.18"/>
</g>
</svg>
