
<svg height="70px" xmlns="http://www.w3.org/2000/svg" version="1.1" viewBox="0.00 0.00 426.00 142.00">
<g fill="#ffffff">
<path d="
  M 69.36 101.07
  L 69.40 101.01
  L 70.21 100.54
  L 71.10 100.83
  L 71.10 100.83
  L 71.19 100.92
  L 73.32 103.02
  L 75.55 104.68
  L 77.88 105.91
  L 80.31 106.71
  L 80.31 106.71
  L 80.31 106.71
  L 83.18 107.08
  L 86.19 106.90
  L 89.32 106.16
  L 92.59 104.86
  L 94.84 103.58
  L 96.82 102.02
  L 96.82 102.02
  L 98.16 100.62
  L 99.33 99.05
  L 100.35 97.32
  L 101.21 95.41
  L 102.05 92.42
  L 102.20 89.48
  L 102.20 89.48
  L 102.20 89.48
  L 101.95 87.71
  L 101.45 85.95
  L 100.69 84.20
  L 99.67 82.48
  L 97.28 79.61
  L 94.54 77.44
  L 91.43 75.84
  L 87.89 74.77
  L 84.11 74.27
  L 79.16 74.32
  L 74.21 75.00
  L 69.49 76.28
  L 64.99 78.16
  L 60.97 80.55
  L 57.52 83.36
  L 54.56 86.66
  L 52.26 90.29
  L 51.18 92.62
  L 50.30 95.21
  L 49.75 97.74
  L 49.52 100.31
  L 49.60 102.82
  L 50.36 106.64
  L 51.89 110.40
  L 54.10 113.87
  L 57.04 117.15
  L 60.60 120.09
  L 64.61 122.54
  L 69.04 124.51
  L 73.70 125.88
  L 78.20 126.70
  L 82.66 127.13
  L 87.07 127.19
  L 91.44 126.87
  L 91.44 126.87
  L 91.44 126.87
  L 91.44 126.87
  L 96.04 126.11
  L 100.59 124.92
  L 105.08 123.29
  L 109.53 121.24
  L 112.68 119.43
  L 115.68 117.28
  L 118.40 114.92
  L 120.87 112.29
  L 122.90 109.60
  L 124.61 106.73
  L 125.89 103.83
  L 126.79 100.80
  L 127.34 97.49
  L 127.47 94.38
  L 127.20 91.37
  L 126.55 88.55
  L 125.47 85.76
  L 124.02 83.18
  L 122.17 80.71
  L 119.88 78.28
  L 117.19 75.96
  L 114.08 73.71
  L 110.41 71.43
  L 106.17 69.12
  L 102.92 67.47
  L 96.84 64.33
  L 92.43 61.83
  L 88.63 59.36
  L 85.38 56.86
  L 82.66 54.29
  L 80.45 51.65
  L 78.72 48.85
  L 77.54 46.00
  L 76.86 43.40
  L 76.48 40.88
  L 76.39 38.33
  L 76.59 35.87
  L 77.52 31.97
  L 79.23 28.16
  L 81.62 24.62
  L 84.73 21.28
  L 88.48 18.25
  L 92.81 15.59
  L 97.53 13.43
  L 102.38 11.86
  L 108.81 10.59
  L 115.44 10.03
  L 121.83 10.21
  L 127.87 11.12
  L 130.60 11.82
  L 133.25 12.71
  L 135.70 13.75
  L 138.03 14.97
  L 140.12 16.31
  L 142.07 17.84
  L 143.81 19.48
  L 145.39 21.30
  L 146.91 23.56
  L 148.07 26.01
  L 148.88 28.60
  L 149.30 31.27
  L 149.33 33.93
  L 148.95 36.56
  L 148.20 39.02
  L 147.04 41.36
  L 146.37 42.38
  L 144.46 44.50
  L 142.23 45.93
  L 142.23 45.93
  L 140.78 46.44
  L 139.16 46.73
  L 137.54 46.77
  L 135.97 46.56
  L 134.49 46.12
  L 133.12 45.45
  L 131.91 44.57
  L 130.96 43.57
  L 130.21 42.39
  L 129.56 40.50
  L 129.43 38.32
  L 129.90 36.06
  L 130.95 34.33
  L 132.24 33.33
  L 133.92 32.69
  L 135.27 32.50
  L 136.38 32.62
  L 137.62 33.15
  L 139.03 34.22
  L 139.96 34.96
  L 140.87 35.35
  L 141.85 35.31
  L 142.72 34.84
  L 143.30 34.04
  L 143.44 33.53
  L 143.61 30.52
  L 143.19 27.53
  L 142.48 25.40
  L 141.48 23.43
  L 140.15 21.53
  L 138.56 19.82
  L 136.66 18.23
  L 134.56 16.87
  L 132.20 15.70
  L 129.70 14.79
  L 124.87 13.62
  L 119.84 12.98
  L 114.76 12.90
  L 109.89 13.37
  L 105.24 14.39
  L 100.97 15.90
  L 96.99 17.96
  L 93.52 20.45
  L 91.61 22.27
  L 89.96 24.29
  L 88.60 26.48
  L 87.57 28.80
  L 86.88 31.16
  L 86.55 33.58
  L 86.60 35.92
  L 87.02 38.24
  L 87.90 40.67
  L 89.25 43.00
  L 91.45 45.75
  L 94.08 48.36
  L 97.14 50.82
  L 100.63 53.14
  L 116.81 62.69
  L 120.92 65.25
  L 124.54 67.85
  L 127.64 70.48
  L 130.31 73.20
  L 132.51 75.98
  L 134.24 78.80
  L 135.57 81.81
  L 136.42 84.83
  L 136.75 86.86
  L 136.94 89.49
  L 136.93 92.04
  L 136.70 94.61
  L 136.27 97.11
  L 135.56 99.76
  L 134.63 102.31
  L 133.44 104.85
  L 132.05 107.27
  L 130.37 109.69
  L 128.50 111.97
  L 126.38 114.19
  L 124.09 116.27
  L 121.55 118.28
  L 118.87 120.13
  L 115.97 121.88
  L 112.98 123.44
  L 106.56 126.12
  L 103.19 127.19
  L 99.82 128.06
  L 95.74 128.85
  L 91.38 129.44
  L 86.90 129.79
  L 82.48 129.90
  L 78.12 129.76
  L 73.94 129.39
  L 69.82 128.76
  L 65.98 127.92
  L 62.38 126.87
  L 59.11 125.63
  L 56.05 124.19
  L 53.18 122.50
  L 50.66 120.68
  L 48.35 118.62
  L 46.35 116.41
  L 44.59 113.96
  L 43.56 112.21
  L 42.55 109.80
  L 42.14 107.43
  L 42.00 100.02
  L 42.40 95.10
  L 43.10 92.59
  L 44.31 89.98
  L 45.94 87.46
  L 48.04 84.94
  L 50.54 82.52
  L 53.42 80.23
  L 56.50 78.22
  L 59.57 76.61
  L 63.97 74.80
  L 68.41 73.40
  L 72.88 72.41
  L 77.38 71.82
  L 77.38 71.82
  L 77.38 71.82
  L 81.01 71.65
  L 84.66 71.74
  L 88.33 72.08
  L 92.02 72.69
  L 95.16 73.47
  L 98.13 74.52
  L 100.92 75.85
  L 103.35 77.36
  L 105.43 79.07
  L 107.08 80.89
  L 108.36 82.86
  L 109.27 85.06
  L 109.72 87.07
  L 109.85 89.25
  L 109.49 92.65
  L 108.53 95.81
  L 108.53 95.81
  L 107.60 97.74
  L 106.41 99.57
  L 104.98 101.29
  L 103.29 102.91
  L 100.93 104.77
  L 98.49 106.34
  L 95.95 107.62
  L 93.32 108.61
  L 93.32 108.61
  L 93.32 108.61
  L 89.92 109.43
  L 86.39 109.80
  L 82.71 109.73
  L 78.89 109.21
  L 76.47 108.47
  L 74.09 107.20
  L 71.75 105.40
  L 69.46 103.07
  L 69.06 102.09
  L 69.36 101.07
  Z"
/>
<path d="
  M 257.64 110.33
  L 258.06 110.75
  L 258.37 111.30
  L 258.34 111.93
  L 256.68 116.42
  L 254.68 120.65
  L 252.35 124.61
  L 249.68 128.30
  L 249.42 128.62
  L 247.87 129.90
  L 245.16 131.33
  L 243.87 131.54
  L 241.58 131.03
  L 239.57 130.07
  L 237.79 128.59
  L 236.32 126.63
  L 236.19 126.41
  L 235.06 124.12
  L 234.24 121.73
  L 233.69 119.11
  L 233.43 116.42
  L 233.45 113.54
  L 233.75 110.41
  L 234.32 107.20
  L 235.18 103.79
  L 237.21 97.20
  L 239.53 90.64
  L 242.15 84.12
  L 245.05 77.63
  L 249.46 68.62
  L 253.41 61.44
  L 257.34 55.30
  L 261.41 49.94
  L 265.69 45.32
  L 270.20 41.44
  L 274.90 38.34
  L 279.85 35.97
  L 282.89 34.94
  L 285.90 34.25
  L 288.90 33.90
  L 291.88 33.89
  L 295.98 34.44
  L 297.46 34.87
  L 298.92 35.52
  L 300.20 36.31
  L 301.36 37.27
  L 302.26 38.26
  L 302.97 39.37
  L 303.42 40.48
  L 303.64 41.67
  L 303.57 43.07
  L 303.14 44.53
  L 302.46 45.74
  L 301.59 46.69
  L 299.79 47.76
  L 298.72 48.05
  L 297.63 48.13
  L 295.69 47.69
  L 294.85 47.19
  L 294.15 46.50
  L 293.65 45.68
  L 293.34 44.70
  L 293.24 43.66
  L 293.35 42.49
  L 293.76 41.80
  L 295.99 39.99
  L 296.32 39.58
  L 296.47 39.07
  L 296.40 38.55
  L 296.13 38.09
  L 296.08 38.04
  L 295.07 37.22
  L 294.00 36.62
  L 292.03 36.08
  L 289.72 36.11
  L 287.26 36.71
  L 284.59 37.87
  L 281.61 39.66
  L 278.55 41.96
  L 275.40 44.79
  L 272.70 47.67
  L 272.19 48.28
  L 267.35 54.66
  L 262.88 61.71
  L 258.44 69.92
  L 253.33 80.60
  L 247.99 92.63
  L 244.25 102.25
  L 241.50 111.06
  L 239.70 119.21
  L 239.54 122.00
  L 240.05 124.56
  L 240.81 126.21
  L 241.89 127.75
  L 242.60 128.31
  L 243.49 128.57
  L 244.47 128.50
  L 245.41 128.12
  L 246.78 127.10
  L 248.12 125.76
  L 250.87 121.99
  L 253.66 116.79
  L 256.23 110.65
  L 256.76 110.13
  L 257.49 110.21
  L 257.64 110.33
  Z"
/>
<ellipse cx="0.00" cy="0.00" transform="translate(289.61,59.56) rotate(-65.0)" rx="8.32" ry="4.84"/>
<ellipse cx="0.00" cy="0.00" transform="translate(378.71,59.58) rotate(-65.9)" rx="8.30" ry="4.79"/>
<path d="
  M 175.12 109.08
  L 175.16 109.11
  L 175.68 109.88
  L 175.59 110.81
  L 171.39 118.61
  L 169.27 121.94
  L 167.14 124.89
  L 165.67 126.56
  L 164.01 128.01
  L 162.19 129.23
  L 160.24 130.19
  L 158.20 130.86
  L 156.09 131.24
  L 154.04 131.30
  L 151.98 131.07
  L 150.35 130.64
  L 148.73 130.01
  L 145.64 128.18
  L 143.07 125.77
  L 141.57 123.70
  L 140.44 121.44
  L 139.62 118.90
  L 139.15 116.24
  L 139.02 113.33
  L 139.25 110.36
  L 139.84 107.29
  L 140.76 104.27
  L 142.75 99.47
  L 145.11 95.00
  L 147.84 90.88
  L 150.94 87.09
  L 150.94 87.09
  L 153.80 84.20
  L 156.92 81.55
  L 160.29 79.13
  L 163.92 76.95
  L 165.80 76.06
  L 167.86 75.37
  L 169.90 74.95
  L 171.97 74.80
  L 173.80 74.91
  L 175.57 75.30
  L 177.12 75.93
  L 178.54 76.85
  L 179.57 77.81
  L 180.40 78.85
  L 181.51 81.16
  L 182.00 83.89
  L 181.85 87.07
  L 181.07 90.60
  L 180.17 92.73
  L 178.81 94.57
  L 177.17 95.89
  L 175.21 96.69
  L 173.34 96.87
  L 171.42 96.43
  L 171.42 96.43
  L 169.96 95.36
  L 168.78 93.68
  L 168.59 92.76
  L 168.78 91.27
  L 169.16 89.98
  L 169.73 88.90
  L 170.49 88.04
  L 170.49 88.04
  L 170.49 88.04
  L 171.75 87.22
  L 173.33 86.75
  L 175.68 86.19
  L 176.93 85.50
  L 177.80 84.36
  L 178.37 83.16
  L 178.60 82.04
  L 178.47 80.94
  L 177.90 79.81
  L 176.82 78.79
  L 175.52 78.07
  L 174.20 77.69
  L 172.44 77.68
  L 170.49 78.23
  L 168.56 79.29
  L 166.55 80.89
  L 164.44 83.06
  L 162.34 85.70
  L 160.19 88.90
  L 158.26 92.24
  L 154.14 100.66
  L 151.08 108.39
  L 149.05 115.45
  L 148.40 118.84
  L 148.01 122.00
  L 148.27 123.90
  L 149.25 125.72
  L 150.78 127.18
  L 152.51 127.97
  L 154.36 128.27
  L 156.13 128.26
  L 158.38 127.81
  L 160.66 126.80
  L 162.82 125.32
  L 164.95 123.32
  L 167.03 120.83
  L 169.06 117.86
  L 171.15 114.28
  L 173.52 109.68
  L 173.64 109.44
  L 174.26 108.93
  L 175.05 109.04
  L 175.12 109.08
  Z"
/>
<path d="
  M 210.46 108.57
  L 209.69 109.44
  L 206.50 114.53
  L 203.07 119.36
  L 199.76 123.44
  L 196.55 126.78
  L 193.68 129.17
  L 191.01 130.75
  L 188.51 131.49
  L 187.41 131.53
  L 186.34 131.36
  L 184.76 130.78
  L 183.40 129.97
  L 181.78 128.45
  L 180.48 126.40
  L 179.58 123.98
  L 179.03 121.12
  L 178.88 117.76
  L 179.14 114.17
  L 179.81 110.41
  L 180.81 107.01
  L 182.25 103.40
  L 183.90 99.93
  L 185.74 96.59
  L 187.79 93.40
  L 187.79 93.40
  L 187.79 93.40
  L 187.79 93.40
  L 190.62 89.60
  L 193.75 86.02
  L 197.20 82.65
  L 200.96 79.50
  L 203.56 77.70
  L 206.20 76.33
  L 208.89 75.38
  L 211.63 74.86
  L 211.63 74.86
  L 213.81 74.74
  L 214.85 74.90
  L 216.53 75.63
  L 217.83 76.70
  L 217.83 76.70
  L 217.83 76.70
  L 218.93 78.54
  L 219.42 80.92
  L 219.65 81.25
  L 220.06 81.21
  L 220.19 81.04
  L 221.82 76.96
  L 222.42 76.20
  L 223.35 75.92
  L 231.28 75.92
  L 231.43 75.93
  L 232.01 76.35
  L 232.06 77.06
  L 214.57 122.85
  L 214.20 124.50
  L 214.33 126.02
  L 214.91 127.56
  L 215.73 128.51
  L 216.40 128.81
  L 217.16 128.90
  L 219.02 128.52
  L 221.20 127.37
  L 222.98 125.85
  L 225.12 123.03
  L 226.99 119.89
  L 228.59 116.44
  L 229.92 112.67
  L 230.50 111.85
  L 231.45 111.55
  L 231.51 111.55
  L 231.63 111.56
  L 232.32 112.00
  L 232.46 112.81
  L 231.53 115.90
  L 230.38 118.89
  L 229.10 121.61
  L 227.68 124.03
  L 226.13 126.16
  L 224.53 127.91
  L 222.83 129.32
  L 220.98 130.43
  L 219.31 131.09
  L 217.76 131.42
  L 216.26 131.43
  L 214.91 131.12
  L 213.87 130.63
  L 212.94 129.95
  L 212.05 129.02
  L 211.29 127.92
  L 210.13 125.27
  L 209.48 122.05
  L 209.31 118.84
  L 209.46 115.56
  L 209.95 112.21
  L 210.76 108.79
  L 210.77 108.71
  L 210.46 108.57
  Z
  M 188.91 128.85
  L 191.39 127.45
  L 193.23 125.98
  L 196.87 122.18
  L 200.26 118.23
  L 203.39 114.11
  L 206.26 109.83
  L 206.26 109.83
  L 206.26 109.83
  L 209.27 104.69
  L 211.93 99.34
  L 214.25 93.78
  L 216.24 88.00
  L 216.78 84.84
  L 216.69 81.58
  L 216.01 79.23
  L 215.48 78.38
  L 214.78 77.72
  L 213.62 77.24
  L 212.87 77.23
  L 212.12 77.43
  L 210.49 78.45
  L 208.75 80.27
  L 206.78 82.99
  L 201.35 91.53
  L 196.39 100.23
  L 191.90 109.10
  L 187.88 118.12
  L 186.36 122.10
  L 185.79 124.40
  L 185.94 126.42
  L 186.69 127.95
  L 186.69 127.95
  L 187.73 128.81
  L 188.32 128.98
  L 188.91 128.85
  Z"
/>
<path d="
  M 289.81 111.55
  L 289.86 111.56
  L 289.87 111.56
  L 290.55 112.07
  L 290.66 112.91
  L 289.64 116.30
  L 288.40 119.49
  L 287.00 122.32
  L 285.46 124.79
  L 283.76 126.94
  L 281.98 128.65
  L 280.07 129.98
  L 277.97 130.96
  L 275.61 131.46
  L 273.38 131.22
  L 271.44 130.24
  L 269.73 128.52
  L 268.38 126.20
  L 267.40 123.34
  L 266.93 120.99
  L 266.68 118.68
  L 266.65 115.93
  L 266.93 113.03
  L 267.50 110.18
  L 268.39 107.19
  L 269.57 104.12
  L 271.07 100.85
  L 275.73 92.30
  L 275.93 91.94
  L 278.21 87.64
  L 279.69 84.15
  L 280.49 81.19
  L 280.61 78.74
  L 280.53 78.39
  L 280.15 77.74
  L 279.51 77.32
  L 278.76 77.21
  L 278.04 77.44
  L 276.47 78.51
  L 274.99 79.81
  L 272.04 83.24
  L 269.19 87.74
  L 266.38 93.39
  L 266.36 93.43
  L 265.66 94.03
  L 264.74 93.93
  L 264.65 93.88
  L 264.00 93.12
  L 263.99 92.13
  L 265.38 88.76
  L 267.12 85.38
  L 268.99 82.40
  L 270.98 79.83
  L 272.98 77.79
  L 274.98 76.29
  L 277.06 75.26
  L 279.06 74.81
  L 280.63 74.88
  L 281.73 75.23
  L 282.73 75.79
  L 283.69 76.60
  L 284.53 77.57
  L 285.95 80.19
  L 286.68 83.12
  L 286.87 86.74
  L 286.67 90.34
  L 286.08 93.98
  L 285.09 97.76
  L 283.72 101.51
  L 281.95 105.34
  L 279.87 109.05
  L 277.41 112.75
  L 275.67 115.38
  L 274.43 117.75
  L 273.63 119.98
  L 273.22 122.25
  L 273.23 124.71
  L 273.72 127.35
  L 274.05 128.04
  L 274.61 128.56
  L 275.33 128.85
  L 276.09 128.85
  L 277.90 128.27
  L 279.58 127.28
  L 281.20 125.85
  L 282.81 123.95
  L 284.36 121.61
  L 285.81 118.88
  L 287.20 115.71
  L 288.41 112.33
  L 288.95 111.67
  L 289.81 111.55
  Z"
/>
<path d="
  M 318.07 97.22
  L 320.83 91.99
  L 323.73 87.13
  L 326.78 82.63
  L 329.98 78.50
  L 331.82 76.68
  L 333.74 75.49
  L 335.77 74.90
  L 337.73 74.96
  L 339.69 75.73
  L 341.41 77.18
  L 342.74 79.20
  L 343.67 81.81
  L 344.07 83.99
  L 344.23 86.19
  L 344.14 88.51
  L 343.81 90.85
  L 343.22 93.39
  L 342.40 95.95
  L 339.99 101.49
  L 336.50 108.25
  L 333.27 114.04
  L 332.03 116.40
  L 331.11 118.73
  L 330.54 120.94
  L 330.29 123.18
  L 330.35 125.16
  L 330.68 127.19
  L 331.00 127.94
  L 331.58 128.51
  L 332.33 128.83
  L 333.14 128.85
  L 334.96 128.31
  L 336.63 127.36
  L 338.23 125.99
  L 339.81 124.14
  L 341.30 121.88
  L 342.73 119.21
  L 344.14 116.01
  L 345.65 112.05
  L 345.71 111.92
  L 346.37 111.43
  L 347.17 111.61
  L 347.21 111.64
  L 347.82 112.49
  L 347.84 113.55
  L 346.01 118.60
  L 343.87 122.86
  L 341.40 126.34
  L 338.61 129.03
  L 336.54 130.39
  L 334.56 131.20
  L 332.58 131.51
  L 330.75 131.31
  L 329.57 130.88
  L 328.48 130.23
  L 327.48 129.38
  L 326.59 128.34
  L 325.14 125.73
  L 324.20 122.51
  L 323.75 119.33
  L 323.66 116.28
  L 323.93 113.35
  L 324.55 110.55
  L 325.56 107.61
  L 326.89 104.53
  L 331.10 96.72
  L 334.13 91.26
  L 335.94 87.35
  L 337.11 83.77
  L 337.62 80.43
  L 337.62 79.08
  L 337.42 78.23
  L 337.01 77.70
  L 336.41 77.38
  L 335.74 77.34
  L 335.11 77.57
  L 335.11 77.57
  L 334.97 77.67
  L 333.35 79.12
  L 331.83 80.81
  L 328.26 85.57
  L 324.73 90.99
  L 321.23 97.04
  L 317.77 103.75
  L 305.79 129.43
  L 305.40 129.68
  L 295.59 129.68
  L 295.56 129.68
  L 295.46 129.48
  L 304.47 107.68
  L 309.21 95.73
  L 312.24 87.01
  L 313.97 80.77
  L 313.99 80.09
  L 313.77 79.33
  L 312.61 77.58
  L 312.10 77.28
  L 311.51 77.34
  L 309.89 78.29
  L 308.34 79.61
  L 306.79 81.34
  L 305.24 83.50
  L 303.71 86.06
  L 302.29 88.90
  L 300.97 92.01
  L 299.94 95.00
  L 299.93 95.03
  L 299.68 95.48
  L 299.27 95.79
  L 298.77 95.92
  L 298.26 95.85
  L 298.21 95.84
  L 297.75 95.57
  L 297.42 95.15
  L 297.27 94.63
  L 297.32 94.10
  L 299.08 89.05
  L 301.19 84.59
  L 303.64 80.73
  L 306.44 77.46
  L 308.65 75.80
  L 311.10 74.92
  L 312.34 74.77
  L 313.57 74.83
  L 314.77 75.10
  L 315.89 75.59
  L 316.84 76.23
  L 317.70 77.05
  L 318.97 79.05
  L 319.47 81.48
  L 319.51 85.55
  L 318.93 91.18
  L 317.60 97.04
  L 317.61 97.21
  L 317.84 97.36
  L 318.07 97.22
  Z"
/>
<path d="
  M 378.98 111.56
  L 379.03 111.57
  L 379.04 111.57
  L 379.71 112.08
  L 379.83 112.92
  L 378.80 116.30
  L 377.56 119.49
  L 376.17 122.33
  L 374.63 124.80
  L 372.93 126.95
  L 371.15 128.65
  L 369.24 129.99
  L 367.14 130.97
  L 364.79 131.47
  L 362.55 131.22
  L 360.61 130.25
  L 358.90 128.53
  L 357.55 126.21
  L 356.57 123.35
  L 356.10 121.00
  L 355.85 118.69
  L 355.82 115.94
  L 356.10 113.05
  L 356.67 110.19
  L 357.55 107.20
  L 358.73 104.14
  L 360.24 100.86
  L 364.89 92.31
  L 365.09 91.95
  L 367.37 87.66
  L 368.84 84.16
  L 369.65 81.20
  L 369.77 78.75
  L 369.69 78.40
  L 369.30 77.75
  L 368.67 77.33
  L 367.92 77.23
  L 367.20 77.45
  L 365.63 78.52
  L 364.14 79.82
  L 361.20 83.26
  L 358.35 87.75
  L 355.54 93.40
  L 355.52 93.45
  L 354.82 94.04
  L 353.90 93.95
  L 353.81 93.90
  L 353.16 93.14
  L 353.15 92.15
  L 354.54 88.78
  L 356.28 85.40
  L 358.15 82.42
  L 360.14 79.84
  L 362.14 77.81
  L 364.13 76.30
  L 366.22 75.27
  L 368.22 74.82
  L 369.79 74.90
  L 370.89 75.24
  L 371.88 75.80
  L 372.85 76.61
  L 373.68 77.58
  L 375.11 80.20
  L 375.84 83.13
  L 376.03 86.75
  L 375.83 90.35
  L 375.24 93.99
  L 374.25 97.77
  L 372.89 101.52
  L 371.12 105.35
  L 369.03 109.06
  L 366.58 112.76
  L 364.84 115.39
  L 363.60 117.76
  L 362.80 119.99
  L 362.39 122.26
  L 362.40 124.72
  L 362.89 127.36
  L 363.23 128.05
  L 363.79 128.57
  L 364.50 128.85
  L 365.26 128.86
  L 367.07 128.28
  L 368.75 127.28
  L 370.37 125.86
  L 371.98 123.96
  L 373.53 121.61
  L 374.98 118.89
  L 376.37 115.71
  L 377.58 112.34
  L 378.12 111.67
  L 378.98 111.56
  Z"
/>
</g>
</svg>
