
<svg height="80" xmlns="http://www.w3.org/2000/svg" version="1.1" viewBox="0.00 0.00 900.00 300.00">
<g fill="#ffffff">
<path d="
  M 227.49 0.00
  L 233.76 0.65
  L 239.95 1.50
  L 246.07 2.56
  L 252.10 3.83
  L 258.06 5.29
  L 263.94 6.96
  L 269.74 8.84
  L 275.47 10.91
  L 275.47 10.91
  L 275.47 10.91
  L 281.29 13.27
  L 287.04 15.85
  L 292.70 18.65
  L 298.27 21.66
  L 303.77 24.89
  L 309.18 28.33
  L 314.51 32.00
  L 319.75 35.88
  L 319.82 36.08
  L 319.68 36.23
  L 319.55 36.22
  L 308.11 31.49
  L 296.42 27.24
  L 284.49 23.47
  L 272.30 20.19
  L 264.19 18.34
  L 256.10 16.81
  L 248.03 15.58
  L 239.98 14.67
  L 231.94 14.07
  L 223.93 13.78
  L 215.93 13.80
  L 207.96 14.13
  L 207.96 14.13
  L 207.96 14.13
  L 207.96 14.13
  L 202.30 14.55
  L 193.48 15.45
  L 184.74 16.57
  L 176.06 17.92
  L 167.45 19.49
  L 158.91 21.29
  L 150.44 23.31
  L 142.04 25.55
  L 133.71 28.02
  L 133.71 28.02
  L 123.73 31.30
  L 123.58 31.30
  L 123.42 31.10
  L 123.52 30.87
  L 129.50 26.93
  L 135.57 23.25
  L 141.71 19.84
  L 147.93 16.69
  L 154.22 13.81
  L 160.60 11.19
  L 167.06 8.83
  L 173.59 6.73
  L 173.59 6.73
  L 182.45 4.34
  L 191.45 2.42
  L 200.59 0.98
  L 209.87 0.00
  L 227.49 0.00
  Z"
/>
<path d="
  M 370.39 126.84
  L 366.61 122.47
  L 362.67 118.34
  L 358.49 114.39
  L 354.14 110.68
  L 347.65 105.80
  L 340.86 101.42
  L 333.69 97.48
  L 326.24 94.03
  L 318.40 91.04
  L 310.30 88.55
  L 301.87 86.55
  L 293.23 85.05
  L 284.96 84.07
  L 276.71 83.50
  L 268.48 83.33
  L 260.28 83.57
  L 260.28 83.57
  L 260.28 83.57
  L 260.28 83.57
  L 260.28 83.57
  L 254.47 83.98
  L 248.68 84.60
  L 242.89 85.42
  L 237.12 86.45
  L 226.63 88.40
  L 219.34 89.53
  L 205.17 91.08
  L 191.39 92.13
  L 178.01 92.67
  L 165.03 92.72
  L 158.50 92.43
  L 152.22 91.80
  L 146.16 90.82
  L 140.35 89.48
  L 137.70 88.62
  L 135.27 87.52
  L 133.07 86.17
  L 131.09 84.57
  L 129.12 82.46
  L 128.07 80.97
  L 127.32 79.51
  L 126.82 77.97
  L 126.61 76.46
  L 126.78 74.27
  L 127.54 71.97
  L 128.85 69.73
  L 130.72 67.46
  L 133.19 65.16
  L 136.16 62.88
  L 139.66 60.62
  L 143.81 58.30
  L 149.34 55.55
  L 154.98 53.05
  L 154.98 53.05
  L 154.98 53.05
  L 159.96 51.10
  L 165.03 49.33
  L 170.17 47.77
  L 175.39 46.39
  L 186.61 43.97
  L 197.85 42.15
  L 209.11 40.95
  L 220.38 40.35
  L 230.90 40.35
  L 241.44 40.87
  L 249.12 41.60
  L 256.68 42.61
  L 264.11 43.93
  L 271.41 45.53
  L 278.58 47.43
  L 285.63 49.61
  L 292.55 52.10
  L 299.34 54.87
  L 299.34 54.87
  L 299.34 54.87
  L 299.34 54.87
  L 299.34 54.87
  L 309.82 59.85
  L 319.98 65.57
  L 329.82 72.01
  L 339.35 79.19
  L 344.75 83.83
  L 349.75 88.75
  L 354.38 93.95
  L 358.61 99.43
  L 358.61 99.43
  L 361.96 104.38
  L 363.87 107.58
  L 365.59 110.87
  L 367.30 114.62
  L 368.77 118.48
  L 370.03 122.44
  L 371.07 126.51
  L 371.06 126.72
  L 370.76 126.98
  L 370.39 126.84
  Z"
/>
<path d="
  M 483.33 107.99
  L 472.66 107.99
  L 472.21 107.81
  L 472.01 107.37
  L 471.60 104.74
  L 470.68 102.47
  L 469.81 101.12
  L 468.75 99.93
  L 467.46 98.83
  L 465.99 97.89
  L 464.29 97.06
  L 462.45 96.39
  L 458.28 95.53
  L 453.61 95.35
  L 448.82 95.89
  L 444.56 97.08
  L 442.69 97.90
  L 441.05 98.85
  L 438.83 100.78
  L 438.00 101.87
  L 437.37 103.04
  L 437.37 103.04
  L 437.37 103.04
  L 436.71 105.40
  L 436.66 107.68
  L 437.12 109.68
  L 437.72 110.95
  L 438.51 112.10
  L 439.56 113.19
  L 440.77 114.14
  L 443.91 115.82
  L 447.73 117.02
  L 466.42 120.98
  L 469.92 121.77
  L 472.90 122.66
  L 475.35 123.65
  L 477.27 124.74
  L 479.17 126.19
  L 480.83 127.77
  L 482.26 129.48
  L 483.45 131.32
  L 483.45 131.32
  L 483.45 131.32
  L 484.74 134.21
  L 485.54 137.37
  L 485.86 140.80
  L 485.68 144.51
  L 485.16 147.33
  L 484.24 149.98
  L 483.08 152.19
  L 481.60 154.26
  L 479.81 156.20
  L 477.69 157.99
  L 475.39 159.58
  L 472.93 160.98
  L 470.24 162.23
  L 467.44 163.28
  L 464.51 164.13
  L 461.50 164.76
  L 458.44 165.18
  L 455.35 165.38
  L 452.28 165.37
  L 449.23 165.14
  L 446.22 164.68
  L 443.26 164.01
  L 440.45 163.13
  L 437.73 162.04
  L 435.23 160.77
  L 432.85 159.30
  L 430.33 157.39
  L 428.18 155.36
  L 426.45 153.25
  L 425.06 150.98
  L 424.09 148.78
  L 423.38 146.43
  L 422.92 143.89
  L 422.72 141.16
  L 422.89 140.71
  L 423.34 140.51
  L 423.35 140.51
  L 434.35 140.51
  L 434.61 140.75
  L 434.87 142.84
  L 435.38 144.71
  L 436.14 146.38
  L 437.15 147.84
  L 437.15 147.84
  L 437.15 147.84
  L 439.04 149.57
  L 441.45 150.87
  L 444.76 152.04
  L 448.07 152.87
  L 451.37 153.35
  L 454.68 153.48
  L 454.68 153.48
  L 457.92 153.28
  L 461.17 152.74
  L 464.41 151.87
  L 467.65 150.66
  L 469.86 149.39
  L 471.67 147.66
  L 472.94 145.64
  L 473.66 143.35
  L 473.79 141.79
  L 473.65 140.17
  L 473.41 139.18
  L 472.87 137.90
  L 472.13 136.75
  L 471.15 135.65
  L 470.00 134.68
  L 466.99 132.99
  L 463.43 131.85
  L 445.68 128.25
  L 441.52 127.35
  L 438.00 126.33
  L 435.12 125.18
  L 432.88 123.91
  L 430.73 122.18
  L 428.90 120.20
  L 428.90 120.20
  L 427.40 118.02
  L 426.20 115.60
  L 425.31 112.94
  L 424.71 110.04
  L 424.49 106.01
  L 425.04 101.99
  L 425.80 99.49
  L 426.87 97.12
  L 428.27 94.82
  L 429.94 92.71
  L 431.87 90.79
  L 434.04 89.09
  L 436.41 87.62
  L 438.97 86.40
  L 444.07 84.63
  L 449.08 83.54
  L 454.01 83.13
  L 458.86 83.38
  L 458.86 83.38
  L 458.86 83.38
  L 458.86 83.38
  L 458.86 83.38
  L 462.46 84.03
  L 466.01 85.05
  L 469.51 86.46
  L 472.97 88.25
  L 474.98 89.54
  L 476.79 90.98
  L 478.40 92.57
  L 479.81 94.30
  L 479.81 94.30
  L 479.81 94.30
  L 481.50 97.07
  L 482.77 100.16
  L 483.61 103.54
  L 484.03 107.24
  L 483.85 107.76
  L 483.35 107.99
  L 483.33 107.99
  Z"
/>
<path d="
  M 589.40 124.29
  L 589.20 128.32
  L 588.61 132.31
  L 587.63 136.23
  L 586.27 140.03
  L 584.54 143.68
  L 582.47 147.14
  L 580.06 150.38
  L 577.35 153.37
  L 574.36 156.08
  L 571.12 158.49
  L 567.66 160.56
  L 564.01 162.29
  L 560.21 163.65
  L 556.29 164.63
  L 552.30 165.22
  L 548.27 165.42
  L 544.24 165.22
  L 540.25 164.63
  L 536.33 163.65
  L 532.53 162.29
  L 528.88 160.56
  L 525.42 158.49
  L 522.18 156.08
  L 519.19 153.37
  L 516.48 150.38
  L 514.07 147.14
  L 512.00 143.68
  L 510.27 140.03
  L 508.91 136.23
  L 507.93 132.31
  L 507.34 128.32
  L 507.14 124.29
  L 507.34 120.26
  L 507.93 116.27
  L 508.91 112.35
  L 510.27 108.55
  L 512.00 104.90
  L 514.07 101.44
  L 516.48 98.20
  L 519.19 95.21
  L 522.18 92.50
  L 525.42 90.09
  L 528.88 88.02
  L 532.53 86.29
  L 536.33 84.93
  L 540.25 83.95
  L 544.24 83.36
  L 548.27 83.16
  L 552.30 83.36
  L 556.29 83.95
  L 560.21 84.93
  L 564.01 86.29
  L 567.66 88.02
  L 571.12 90.09
  L 574.36 92.50
  L 577.35 95.21
  L 580.06 98.20
  L 582.47 101.44
  L 584.54 104.90
  L 586.27 108.55
  L 587.63 112.35
  L 588.61 116.27
  L 589.20 120.26
  L 589.40 124.29
  Z
  M 577.35 124.30
  L 577.21 121.45
  L 576.79 118.62
  L 576.10 115.86
  L 575.14 113.17
  L 573.92 110.59
  L 572.45 108.14
  L 570.75 105.85
  L 568.83 103.73
  L 566.71 101.81
  L 564.42 100.11
  L 561.97 98.64
  L 559.39 97.42
  L 556.70 96.46
  L 553.94 95.77
  L 551.11 95.35
  L 548.26 95.21
  L 545.41 95.35
  L 542.58 95.77
  L 539.82 96.46
  L 537.13 97.42
  L 534.55 98.64
  L 532.10 100.11
  L 529.81 101.81
  L 527.69 103.73
  L 525.77 105.85
  L 524.07 108.14
  L 522.60 110.59
  L 521.38 113.17
  L 520.42 115.86
  L 519.73 118.62
  L 519.31 121.45
  L 519.17 124.30
  L 519.31 127.15
  L 519.73 129.98
  L 520.42 132.74
  L 521.38 135.43
  L 522.60 138.01
  L 524.07 140.46
  L 525.77 142.75
  L 527.69 144.87
  L 529.81 146.79
  L 532.10 148.49
  L 534.55 149.96
  L 537.13 151.18
  L 539.82 152.14
  L 542.58 152.83
  L 545.41 153.25
  L 548.26 153.39
  L 551.11 153.25
  L 553.94 152.83
  L 556.70 152.14
  L 559.39 151.18
  L 561.97 149.96
  L 564.42 148.49
  L 566.71 146.79
  L 568.83 144.87
  L 570.75 142.75
  L 572.45 140.46
  L 573.92 138.01
  L 575.14 135.43
  L 576.10 132.74
  L 576.79 129.98
  L 577.21 127.15
  L 577.35 124.30
  Z"
/>
<path d="
  M 825.25 107.25
  L 825.06 107.77
  L 824.57 108.00
  L 824.55 108.00
  L 813.88 108.00
  L 813.43 107.82
  L 813.23 107.38
  L 812.82 104.75
  L 811.90 102.47
  L 811.03 101.13
  L 809.98 99.94
  L 808.68 98.84
  L 807.22 97.89
  L 805.51 97.06
  L 803.67 96.40
  L 799.50 95.53
  L 794.83 95.34
  L 790.04 95.89
  L 785.78 97.08
  L 783.91 97.89
  L 782.27 98.84
  L 780.05 100.77
  L 779.22 101.86
  L 778.59 103.04
  L 778.59 103.04
  L 778.59 103.04
  L 777.93 105.39
  L 777.88 107.67
  L 778.34 109.68
  L 778.94 110.95
  L 779.73 112.09
  L 780.77 113.18
  L 781.98 114.13
  L 785.13 115.82
  L 788.94 117.02
  L 807.63 120.98
  L 811.13 121.78
  L 814.11 122.67
  L 816.56 123.66
  L 818.48 124.75
  L 820.38 126.20
  L 822.04 127.78
  L 823.47 129.49
  L 824.65 131.34
  L 824.65 131.34
  L 825.95 134.22
  L 826.75 137.38
  L 827.06 140.82
  L 826.88 144.52
  L 826.36 147.34
  L 825.44 149.99
  L 825.44 149.99
  L 824.28 152.20
  L 822.80 154.27
  L 821.00 156.21
  L 818.89 158.00
  L 816.58 159.59
  L 814.13 160.99
  L 811.44 162.24
  L 808.63 163.29
  L 805.70 164.13
  L 802.69 164.76
  L 799.63 165.18
  L 796.54 165.38
  L 793.48 165.37
  L 790.42 165.13
  L 787.41 164.68
  L 784.46 164.00
  L 781.64 163.13
  L 778.93 162.03
  L 776.42 160.76
  L 774.05 159.29
  L 771.53 157.38
  L 769.38 155.35
  L 767.65 153.24
  L 766.26 150.96
  L 765.29 148.77
  L 764.58 146.41
  L 764.12 143.88
  L 763.92 141.15
  L 764.10 140.69
  L 764.54 140.50
  L 764.55 140.50
  L 775.55 140.50
  L 775.81 140.74
  L 776.07 142.83
  L 776.58 144.71
  L 777.34 146.37
  L 778.35 147.83
  L 778.35 147.83
  L 778.35 147.83
  L 778.35 147.83
  L 780.24 149.57
  L 782.65 150.86
  L 785.96 152.04
  L 789.27 152.86
  L 792.57 153.34
  L 795.87 153.48
  L 795.87 153.48
  L 799.12 153.28
  L 802.37 152.74
  L 805.61 151.87
  L 808.85 150.67
  L 811.06 149.40
  L 812.87 147.67
  L 814.14 145.65
  L 814.86 143.36
  L 815.00 141.80
  L 814.85 140.18
  L 814.61 139.18
  L 814.08 137.91
  L 813.34 136.76
  L 812.36 135.66
  L 811.21 134.69
  L 808.20 132.99
  L 804.64 131.85
  L 786.89 128.25
  L 782.73 127.35
  L 779.21 126.32
  L 776.33 125.17
  L 774.09 123.90
  L 771.95 122.17
  L 770.11 120.19
  L 770.11 120.19
  L 768.62 118.01
  L 767.42 115.59
  L 766.52 112.93
  L 765.93 110.03
  L 765.71 106.00
  L 766.26 101.97
  L 767.02 99.47
  L 768.09 97.11
  L 769.49 94.81
  L 771.17 92.70
  L 773.10 90.78
  L 775.26 89.08
  L 777.64 87.61
  L 780.20 86.39
  L 785.30 84.63
  L 790.31 83.54
  L 795.24 83.12
  L 800.09 83.38
  L 800.09 83.38
  L 800.09 83.38
  L 800.09 83.38
  L 803.69 84.03
  L 807.24 85.05
  L 810.74 86.46
  L 814.20 88.26
  L 816.21 89.55
  L 818.02 90.99
  L 819.63 92.58
  L 821.04 94.31
  L 821.04 94.31
  L 822.73 97.09
  L 823.99 100.17
  L 824.83 103.56
  L 825.25 107.25
  Z"
/>
<path d="
  M 657.24 163.48
  L 612.01 163.48
  L 612.01 163.48
  L 611.65 163.33
  L 611.50 162.97
  L 611.50 85.76
  L 611.65 85.40
  L 612.01 85.25
  L 623.02 85.25
  L 623.38 85.40
  L 623.53 85.76
  L 623.53 150.95
  L 623.68 151.31
  L 624.04 151.46
  L 657.24 151.46
  L 657.60 151.61
  L 657.75 151.97
  L 657.75 162.97
  L 657.68 163.22
  L 657.24 163.48
  Z"
/>
<path d="
  M 709.55 153.49
  L 711.73 153.37
  L 713.81 153.04
  L 715.89 152.47
  L 717.84 151.68
  L 719.89 150.54
  L 721.78 149.17
  L 723.48 147.57
  L 725.00 145.77
  L 726.34 143.75
  L 727.47 141.56
  L 728.37 139.21
  L 729.04 136.74
  L 729.07 136.46
  L 729.07 85.70
  L 729.18 85.40
  L 729.52 85.25
  L 740.56 85.25
  L 741.01 85.43
  L 741.19 85.88
  L 741.19 85.88
  L 741.19 85.88
  L 741.17 133.75
  L 741.01 137.05
  L 740.55 140.21
  L 739.79 143.25
  L 738.72 146.16
  L 738.72 146.16
  L 738.72 146.16
  L 738.72 146.16
  L 737.19 149.20
  L 735.30 152.08
  L 733.04 154.81
  L 730.41 157.38
  L 728.11 159.27
  L 725.76 160.88
  L 723.35 162.23
  L 720.87 163.32
  L 718.22 164.18
  L 715.47 164.78
  L 712.58 165.14
  L 709.55 165.25
  L 706.52 165.14
  L 703.64 164.78
  L 700.88 164.17
  L 698.23 163.31
  L 695.75 162.22
  L 693.35 160.87
  L 691.00 159.25
  L 688.70 157.37
  L 686.07 154.80
  L 683.81 152.07
  L 681.92 149.18
  L 680.39 146.14
  L 680.39 146.14
  L 680.39 146.14
  L 679.33 143.23
  L 678.56 140.20
  L 678.10 137.03
  L 677.95 133.73
  L 677.96 85.86
  L 677.99 85.67
  L 678.22 85.35
  L 678.59 85.23
  L 689.63 85.24
  L 689.95 85.37
  L 690.08 85.69
  L 690.05 136.45
  L 690.08 136.73
  L 690.74 139.20
  L 691.64 141.54
  L 692.77 143.74
  L 694.11 145.76
  L 695.63 147.56
  L 697.33 149.16
  L 699.22 150.54
  L 701.27 151.67
  L 703.22 152.46
  L 705.29 153.04
  L 707.38 153.37
  L 709.55 153.49
  Z"
/>
<path d="
  M 75.15 107.04
  L 77.02 108.75
  L 80.70 111.96
  L 86.47 116.04
  L 92.75 119.66
  L 99.58 122.83
  L 106.87 125.51
  L 114.69 127.73
  L 122.93 129.45
  L 131.68 130.68
  L 140.79 131.42
  L 148.92 131.71
  L 157.02 131.71
  L 165.10 131.41
  L 173.15 130.83
  L 173.15 130.83
  L 173.15 130.83
  L 182.08 129.84
  L 190.98 128.49
  L 201.81 126.77
  L 210.17 125.75
  L 227.95 124.24
  L 244.00 123.17
  L 260.00 122.55
  L 275.58 122.49
  L 290.75 123.00
  L 305.49 124.07
  L 315.61 125.36
  L 327.01 127.46
  L 333.63 128.99
  L 339.27 130.63
  L 344.36 132.48
  L 348.96 134.60
  L 353.10 137.00
  L 356.79 139.69
  L 360.01 142.67
  L 362.79 145.91
  L 364.18 147.90
  L 366.57 152.20
  L 368.40 156.91
  L 369.59 161.85
  L 370.19 167.12
  L 370.17 172.59
  L 369.51 178.25
  L 368.26 183.83
  L 366.41 189.42
  L 366.14 189.69
  L 365.76 189.65
  L 365.70 189.61
  L 359.89 185.14
  L 353.87 181.14
  L 347.66 177.62
  L 341.23 174.57
  L 341.23 174.57
  L 333.51 171.62
  L 325.51 169.31
  L 317.23 167.65
  L 308.68 166.62
  L 299.02 166.09
  L 289.19 166.05
  L 279.18 166.49
  L 268.99 167.42
  L 241.63 170.35
  L 216.45 172.61
  L 193.26 174.20
  L 171.94 175.15
  L 160.01 175.30
  L 148.85 175.00
  L 138.28 174.26
  L 128.23 173.06
  L 118.81 171.41
  L 109.90 169.30
  L 101.60 166.75
  L 93.82 163.72
  L 88.83 161.21
  L 84.45 158.26
  L 80.68 154.88
  L 77.53 151.07
  L 77.53 151.07
  L 75.13 147.10
  L 73.27 142.76
  L 71.95 138.03
  L 71.16 132.93
  L 70.90 126.67
  L 71.35 120.31
  L 72.49 113.84
  L 74.33 107.26
  L 74.37 107.17
  L 74.73 106.92
  L 75.15 107.04
  Z"
/>
<path d="
  M 71.52 171.70
  L 75.30 176.07
  L 79.24 180.20
  L 83.42 184.15
  L 87.77 187.85
  L 94.25 192.73
  L 101.04 197.11
  L 108.21 201.05
  L 115.66 204.49
  L 123.50 207.48
  L 131.59 209.97
  L 140.01 211.97
  L 148.65 213.47
  L 156.92 214.45
  L 165.17 215.02
  L 173.39 215.19
  L 181.60 214.95
  L 181.60 214.95
  L 187.40 214.53
  L 193.19 213.91
  L 198.97 213.09
  L 204.74 212.06
  L 215.22 210.11
  L 222.51 208.98
  L 236.68 207.43
  L 250.45 206.39
  L 263.82 205.84
  L 276.80 205.79
  L 283.33 206.08
  L 289.61 206.71
  L 295.66 207.69
  L 301.47 209.03
  L 304.13 209.89
  L 306.55 210.99
  L 308.75 212.34
  L 310.73 213.93
  L 312.70 216.04
  L 313.75 217.53
  L 314.50 219.00
  L 315.00 220.53
  L 315.21 222.04
  L 315.04 224.23
  L 314.28 226.53
  L 312.97 228.77
  L 311.10 231.04
  L 308.64 233.34
  L 305.66 235.62
  L 302.16 237.88
  L 298.02 240.20
  L 292.49 242.95
  L 286.85 245.44
  L 281.87 247.40
  L 276.81 249.16
  L 271.67 250.73
  L 266.45 252.10
  L 255.23 254.53
  L 244.00 256.34
  L 232.75 257.55
  L 221.48 258.14
  L 221.48 258.14
  L 221.48 258.14
  L 210.96 258.15
  L 200.43 257.63
  L 192.75 256.90
  L 185.20 255.88
  L 177.77 254.57
  L 170.47 252.97
  L 163.30 251.08
  L 156.26 248.89
  L 149.34 246.41
  L 142.55 243.64
  L 142.55 243.64
  L 132.08 238.66
  L 121.92 232.95
  L 112.08 226.50
  L 102.55 219.33
  L 97.16 214.69
  L 92.15 209.77
  L 87.53 204.58
  L 83.30 199.10
  L 83.30 199.10
  L 83.30 199.10
  L 79.95 194.15
  L 78.04 190.95
  L 76.32 187.66
  L 76.32 187.66
  L 74.62 183.92
  L 73.14 180.06
  L 71.88 176.10
  L 70.84 172.03
  L 70.85 171.82
  L 71.15 171.57
  L 71.52 171.70
  Z"
/>
<path d="
  M 478.78 192.22
  L 478.66 192.75
  L 478.19 193.01
  L 478.12 193.01
  L 475.78 192.99
  L 475.29 192.80
  L 475.05 192.32
  L 474.52 190.95
  L 473.78 190.19
  L 471.03 189.00
  L 469.67 188.74
  L 468.32 188.69
  L 468.32 188.69
  L 465.89 189.17
  L 463.50 190.37
  L 463.01 190.83
  L 462.69 191.43
  L 462.40 192.99
  L 462.63 194.24
  L 463.46 195.38
  L 464.97 196.33
  L 467.21 197.08
  L 470.63 197.80
  L 475.26 198.89
  L 476.70 199.55
  L 477.62 200.30
  L 478.58 201.65
  L 479.17 203.10
  L 479.17 203.10
  L 479.39 204.54
  L 479.29 206.06
  L 478.72 207.92
  L 478.05 209.06
  L 477.20 210.05
  L 476.10 210.95
  L 474.84 211.69
  L 473.39 212.30
  L 471.83 212.72
  L 468.55 213.03
  L 465.29 212.64
  L 463.76 212.18
  L 462.33 211.54
  L 461.11 210.77
  L 460.05 209.84
  L 459.25 208.84
  L 458.64 207.71
  L 458.15 205.78
  L 458.15 205.74
  L 458.34 205.21
  L 458.86 204.99
  L 461.13 204.99
  L 461.14 204.99
  L 461.61 205.20
  L 461.78 205.67
  L 462.16 206.92
  L 463.08 207.90
  L 465.15 208.88
  L 467.28 209.40
  L 467.28 209.40
  L 469.80 209.44
  L 472.39 208.89
  L 473.64 208.36
  L 474.67 207.65
  L 475.36 206.84
  L 475.74 205.89
  L 475.73 204.68
  L 475.17 203.33
  L 475.11 203.24
  L 474.22 202.30
  L 472.82 201.56
  L 471.01 201.05
  L 468.29 200.61
  L 465.16 200.08
  L 462.99 199.43
  L 461.34 198.54
  L 460.15 197.40
  L 459.35 195.89
  L 458.95 194.43
  L 458.79 193.07
  L 458.88 191.72
  L 459.21 190.49
  L 459.73 189.42
  L 460.43 188.47
  L 461.37 187.57
  L 462.46 186.81
  L 465.10 185.69
  L 468.05 185.21
  L 471.03 185.37
  L 473.83 186.20
  L 476.14 187.63
  L 477.03 188.51
  L 477.77 189.53
  L 478.38 190.79
  L 478.78 192.22
  Z"
/>
<path d="
  M 587.72 199.11
  L 587.95 201.35
  L 588.63 203.37
  L 588.63 203.37
  L 588.63 203.37
  L 589.39 204.67
  L 590.37 205.86
  L 591.57 206.95
  L 593.00 207.93
  L 595.71 209.14
  L 597.06 209.43
  L 598.40 209.51
  L 598.40 209.51
  L 598.40 209.51
  L 598.40 209.51
  L 600.13 209.30
  L 601.85 208.75
  L 603.57 207.84
  L 605.28 206.59
  L 605.60 206.48
  L 605.91 206.62
  L 607.84 208.55
  L 607.97 208.86
  L 607.83 209.16
  L 607.83 209.17
  L 605.29 211.04
  L 602.39 212.32
  L 600.17 212.82
  L 597.94 212.97
  L 595.64 212.75
  L 593.42 212.17
  L 591.33 211.25
  L 589.41 210.00
  L 587.79 208.51
  L 586.42 206.75
  L 585.49 205.04
  L 584.79 203.16
  L 584.38 201.21
  L 584.24 199.12
  L 584.37 197.02
  L 584.77 195.07
  L 585.46 193.18
  L 586.38 191.48
  L 587.74 189.71
  L 589.35 188.21
  L 591.26 186.95
  L 593.35 186.02
  L 595.57 185.43
  L 597.87 185.20
  L 600.10 185.33
  L 602.32 185.82
  L 605.23 187.09
  L 607.77 188.95
  L 607.78 188.95
  L 607.92 189.26
  L 607.79 189.57
  L 605.87 191.51
  L 605.56 191.65
  L 605.24 191.54
  L 603.53 190.30
  L 601.80 189.40
  L 600.08 188.85
  L 598.35 188.66
  L 598.35 188.66
  L 597.00 188.74
  L 595.66 189.04
  L 592.96 190.26
  L 591.53 191.25
  L 590.33 192.34
  L 589.36 193.54
  L 588.61 194.84
  L 588.61 194.84
  L 587.94 196.87
  L 587.72 199.11
  Z"
/>
<path d="
  M 729.63 199.08
  L 729.36 201.80
  L 728.57 204.42
  L 727.28 206.84
  L 725.54 208.95
  L 723.43 210.69
  L 721.01 211.98
  L 718.39 212.77
  L 715.67 213.04
  L 712.95 212.77
  L 710.33 211.98
  L 707.91 210.69
  L 705.80 208.95
  L 704.06 206.84
  L 702.77 204.42
  L 701.98 201.80
  L 701.71 199.08
  L 701.98 196.36
  L 702.77 193.74
  L 704.06 191.32
  L 705.80 189.21
  L 707.91 187.47
  L 710.33 186.18
  L 712.95 185.39
  L 715.67 185.12
  L 718.39 185.39
  L 721.01 186.18
  L 723.43 187.47
  L 725.54 189.21
  L 727.28 191.32
  L 728.57 193.74
  L 729.36 196.36
  L 729.63 199.08
  Z
  M 726.02 199.08
  L 725.82 197.06
  L 725.23 195.12
  L 724.28 193.33
  L 722.99 191.76
  L 721.42 190.47
  L 719.63 189.52
  L 717.69 188.93
  L 715.67 188.73
  L 713.65 188.93
  L 711.71 189.52
  L 709.92 190.47
  L 708.35 191.76
  L 707.06 193.33
  L 706.11 195.12
  L 705.52 197.06
  L 705.32 199.08
  L 705.52 201.10
  L 706.11 203.04
  L 707.06 204.83
  L 708.35 206.40
  L 709.92 207.69
  L 711.71 208.64
  L 713.65 209.23
  L 715.67 209.43
  L 717.69 209.23
  L 719.63 208.64
  L 721.42 207.69
  L 722.99 206.40
  L 724.28 204.83
  L 725.23 203.04
  L 725.82 201.10
  L 726.02 199.08
  Z"
/>
<path d="
  M 825.83 192.20
  L 825.71 192.73
  L 825.23 192.99
  L 825.17 192.99
  L 822.83 192.98
  L 822.33 192.78
  L 822.10 192.31
  L 821.57 190.94
  L 820.83 190.18
  L 818.07 189.00
  L 816.71 188.73
  L 815.36 188.69
  L 815.36 188.69
  L 812.94 189.17
  L 810.55 190.37
  L 810.05 190.84
  L 809.74 191.43
  L 809.45 192.99
  L 809.68 194.25
  L 810.51 195.38
  L 812.03 196.33
  L 814.26 197.08
  L 817.68 197.79
  L 822.31 198.88
  L 823.76 199.54
  L 824.68 200.28
  L 825.64 201.63
  L 826.23 203.08
  L 826.23 203.08
  L 826.45 204.52
  L 826.36 206.04
  L 825.79 207.90
  L 825.12 209.04
  L 824.27 210.03
  L 823.17 210.94
  L 821.92 211.68
  L 820.46 212.29
  L 818.91 212.71
  L 815.63 213.03
  L 812.37 212.64
  L 810.83 212.18
  L 809.41 211.55
  L 808.18 210.78
  L 807.13 209.85
  L 806.32 208.85
  L 805.71 207.72
  L 805.22 205.79
  L 805.21 205.75
  L 805.41 205.22
  L 805.93 205.00
  L 808.20 205.00
  L 808.21 205.00
  L 808.67 205.20
  L 808.85 205.68
  L 809.23 206.93
  L 810.15 207.90
  L 812.22 208.88
  L 814.35 209.40
  L 814.35 209.40
  L 814.35 209.40
  L 816.87 209.44
  L 819.46 208.88
  L 820.71 208.35
  L 821.74 207.64
  L 822.43 206.82
  L 822.81 205.88
  L 822.79 204.67
  L 822.23 203.32
  L 822.17 203.22
  L 821.28 202.29
  L 819.88 201.55
  L 818.07 201.05
  L 815.35 200.60
  L 812.22 200.08
  L 810.05 199.44
  L 808.39 198.55
  L 807.21 197.40
  L 806.40 195.90
  L 806.00 194.44
  L 805.84 193.08
  L 805.93 191.73
  L 806.25 190.50
  L 806.77 189.43
  L 807.47 188.48
  L 808.41 187.57
  L 809.50 186.81
  L 812.14 185.69
  L 815.09 185.20
  L 818.07 185.36
  L 820.87 186.19
  L 823.18 187.61
  L 824.07 188.49
  L 824.81 189.52
  L 825.43 190.77
  L 825.83 192.20
  Z"
/>
<rect x="423.75" y="185.75" width="3.50" height="26.50" rx="0.39"/>
<path d="
  M 444.36 197.89
  L 449.62 205.24
  L 449.93 205.21
  L 449.95 205.13
  L 449.95 186.08
  L 450.04 185.85
  L 450.27 185.76
  L 453.15 185.76
  L 453.46 186.07
  L 453.46 211.76
  L 453.46 211.76
  L 453.28 212.18
  L 452.86 212.35
  L 450.52 212.35
  L 450.03 212.23
  L 449.65 211.91
  L 441.35 200.19
  L 436.10 192.84
  L 435.78 192.88
  L 435.76 192.96
  L 435.76 212.01
  L 435.67 212.23
  L 435.44 212.33
  L 432.56 212.33
  L 432.25 212.02
  L 432.25 186.33
  L 432.25 186.33
  L 432.43 185.91
  L 432.85 185.74
  L 435.19 185.74
  L 435.68 185.85
  L 436.06 186.18
  L 444.36 197.89
  Z"
/>
<path d="
  M 494.29 209.52
  L 496.20 209.23
  L 497.97 208.40
  L 499.56 207.09
  L 500.71 205.47
  L 501.30 203.37
  L 501.48 200.18
  L 501.53 186.21
  L 501.61 185.96
  L 501.95 185.79
  L 504.57 185.79
  L 504.57 185.79
  L 504.90 185.93
  L 505.03 186.26
  L 505.00 199.98
  L 504.69 204.64
  L 504.29 206.32
  L 503.72 207.57
  L 502.57 209.13
  L 501.26 210.46
  L 499.86 211.48
  L 498.32 212.25
  L 496.38 212.82
  L 494.27 213.00
  L 492.17 212.80
  L 490.24 212.22
  L 488.70 211.43
  L 487.31 210.39
  L 486.01 209.05
  L 484.88 207.48
  L 484.32 206.23
  L 483.93 204.55
  L 483.66 199.88
  L 483.76 186.16
  L 483.89 185.83
  L 484.22 185.70
  L 484.22 185.70
  L 486.84 185.72
  L 487.14 185.85
  L 487.26 186.14
  L 487.18 200.11
  L 487.34 203.31
  L 487.91 205.41
  L 489.04 207.05
  L 490.62 208.37
  L 492.38 209.21
  L 494.29 209.52
  Z"
/>
<path d="
  M 531.73 212.01
  L 531.64 212.27
  L 531.59 212.28
  L 527.88 212.28
  L 527.43 212.03
  L 521.64 203.12
  L 521.43 202.84
  L 520.19 201.76
  L 518.47 201.05
  L 516.21 200.72
  L 513.51 200.78
  L 513.15 200.96
  L 513.01 201.33
  L 513.01 211.85
  L 513.01 211.85
  L 512.88 212.15
  L 512.57 212.28
  L 509.93 212.28
  L 509.63 212.15
  L 509.50 211.84
  L 509.50 186.39
  L 509.68 185.95
  L 510.12 185.76
  L 521.66 185.84
  L 523.47 186.13
  L 525.06 186.73
  L 526.48 187.65
  L 527.63 188.81
  L 528.50 190.22
  L 529.03 191.76
  L 529.20 193.38
  L 528.99 195.01
  L 528.41 196.53
  L 527.45 197.95
  L 526.19 199.12
  L 524.57 200.11
  L 524.34 200.37
  L 524.38 200.71
  L 524.38 200.71
  L 524.39 200.73
  L 531.73 212.01
  Z
  M 512.98 189.94
  L 513.02 196.86
  L 513.03 196.92
  L 513.17 197.19
  L 513.46 197.29
  L 521.04 197.24
  L 522.77 196.94
  L 524.23 196.13
  L 525.21 194.91
  L 525.54 193.49
  L 525.54 193.15
  L 525.18 191.73
  L 524.19 190.53
  L 522.72 189.73
  L 520.98 189.46
  L 513.40 189.51
  L 513.10 189.64
  L 512.98 189.94
  Z"
/>
<path d="
  M 544.12 185.75
  L 545.39 185.81
  L 545.88 186.00
  L 546.20 186.44
  L 555.44 211.80
  L 555.45 211.86
  L 555.38 212.12
  L 555.13 212.24
  L 552.19 212.24
  L 551.83 212.13
  L 551.61 211.84
  L 549.92 207.19
  L 549.56 206.72
  L 549.00 206.53
  L 544.11 206.50
  L 539.23 206.52
  L 538.67 206.72
  L 538.31 207.19
  L 536.61 211.84
  L 536.39 212.13
  L 536.03 212.24
  L 533.09 212.24
  L 532.84 212.12
  L 532.77 211.85
  L 532.77 211.85
  L 532.78 211.80
  L 542.03 186.44
  L 542.35 186.00
  L 542.85 185.81
  L 544.12 185.75
  Z
  M 544.10 203.00
  L 547.75 202.93
  L 548.07 202.73
  L 548.14 202.35
  L 548.14 202.35
  L 548.13 202.31
  L 544.24 191.68
  L 544.13 191.55
  L 544.10 191.55
  L 544.07 191.55
  L 543.96 191.68
  L 540.07 202.31
  L 540.06 202.36
  L 540.13 202.73
  L 540.46 202.93
  L 544.10 203.00
  Z"
/>
<path d="
  M 567.98 200.18
  L 562.76 192.88
  L 562.44 192.92
  L 562.42 193.00
  L 562.44 211.92
  L 562.12 212.24
  L 559.26 212.24
  L 558.98 212.05
  L 558.95 211.94
  L 558.93 186.41
  L 559.10 186.00
  L 559.52 185.83
  L 561.85 185.82
  L 562.33 185.94
  L 562.71 186.26
  L 570.97 197.89
  L 576.20 205.19
  L 576.51 205.16
  L 576.53 205.08
  L 576.51 186.15
  L 576.83 185.83
  L 579.69 185.83
  L 580.00 186.14
  L 580.02 211.66
  L 580.02 211.66
  L 579.85 212.08
  L 579.43 212.25
  L 577.10 212.25
  L 576.62 212.14
  L 576.24 211.81
  L 567.98 200.18
  Z"
/>
<path d="
  M 628.00 199.05
  L 627.90 200.25
  L 627.68 200.64
  L 627.26 200.79
  L 616.65 200.79
  L 616.36 200.91
  L 616.24 201.20
  L 616.24 208.25
  L 616.29 208.44
  L 616.66 208.67
  L 630.86 208.67
  L 631.07 208.73
  L 631.23 209.04
  L 631.23 211.91
  L 631.12 212.19
  L 630.84 212.30
  L 613.46 212.28
  L 613.01 212.12
  L 612.77 211.71
  L 612.75 199.02
  L 612.82 186.34
  L 613.06 185.93
  L 613.51 185.77
  L 630.89 185.82
  L 631.16 185.93
  L 631.28 186.21
  L 631.27 189.08
  L 631.16 189.34
  L 630.90 189.45
  L 616.70 189.39
  L 616.29 189.71
  L 616.27 189.81
  L 616.25 196.86
  L 616.37 197.15
  L 616.66 197.27
  L 627.27 197.31
  L 627.69 197.47
  L 627.91 197.86
  L 628.00 199.05
  Z"
/>
<path d="
  M 669.66 199.14
  L 671.09 200.23
  L 672.15 201.42
  L 672.89 202.76
  L 673.25 204.14
  L 673.27 205.44
  L 673.01 206.71
  L 672.48 207.93
  L 671.71 209.07
  L 670.68 210.13
  L 669.43 211.04
  L 668.09 211.73
  L 666.59 212.23
  L 666.37 212.26
  L 653.62 212.26
  L 653.62 212.26
  L 653.18 212.08
  L 653.00 211.63
  L 653.00 186.22
  L 653.00 186.22
  L 653.16 185.85
  L 653.53 185.70
  L 665.61 185.88
  L 666.97 186.15
  L 668.59 186.91
  L 669.94 187.81
  L 671.00 188.86
  L 671.79 190.05
  L 672.30 191.39
  L 672.53 192.87
  L 672.41 194.75
  L 671.82 196.36
  L 670.92 197.54
  L 669.66 198.51
  L 669.59 198.56
  L 669.49 198.87
  L 669.66 199.14
  Z
  M 656.47 189.92
  L 656.53 196.88
  L 656.53 196.90
  L 656.66 197.18
  L 656.94 197.29
  L 664.21 197.23
  L 666.05 196.92
  L 667.60 196.08
  L 668.63 194.83
  L 668.98 193.37
  L 668.98 193.37
  L 668.98 193.37
  L 668.98 193.23
  L 668.60 191.77
  L 667.55 190.54
  L 665.99 189.72
  L 664.15 189.45
  L 656.88 189.51
  L 656.47 189.86
  L 656.47 189.92
  Z
  M 656.53 201.16
  L 656.45 208.28
  L 656.58 208.59
  L 656.89 208.73
  L 664.49 208.81
  L 666.44 208.53
  L 668.11 207.72
  L 669.22 206.48
  L 669.63 205.01
  L 669.63 204.71
  L 669.63 204.71
  L 669.26 203.23
  L 668.17 201.97
  L 666.52 201.12
  L 664.57 200.81
  L 656.97 200.73
  L 656.66 200.85
  L 656.53 201.16
  L 656.53 201.16
  L 656.53 201.16
  Z"
/>
<path d="
  M 699.97 211.98
  L 699.87 212.24
  L 699.83 212.25
  L 696.12 212.25
  L 695.67 212.00
  L 689.88 203.10
  L 689.68 202.82
  L 688.44 201.74
  L 686.71 201.03
  L 684.46 200.70
  L 681.76 200.76
  L 681.41 200.94
  L 681.26 201.31
  L 681.27 211.82
  L 681.27 211.82
  L 681.14 212.13
  L 680.83 212.25
  L 678.19 212.25
  L 677.89 212.13
  L 677.76 211.82
  L 677.75 186.39
  L 677.93 185.95
  L 678.37 185.76
  L 689.90 185.84
  L 691.71 186.13
  L 693.30 186.73
  L 694.72 187.65
  L 695.86 188.80
  L 696.74 190.21
  L 697.27 191.75
  L 697.43 193.37
  L 697.22 195.00
  L 696.65 196.52
  L 695.69 197.93
  L 694.43 199.11
  L 692.81 200.09
  L 692.59 200.35
  L 692.62 200.69
  L 692.62 200.69
  L 692.63 200.71
  L 699.97 211.98
  Z
  M 681.24 189.98
  L 681.26 196.76
  L 681.27 196.86
  L 681.44 197.14
  L 681.75 197.25
  L 689.29 197.24
  L 691.03 196.94
  L 692.50 196.11
  L 693.49 194.87
  L 693.83 193.40
  L 693.83 193.40
  L 693.83 193.30
  L 693.83 193.30
  L 693.48 191.83
  L 692.49 190.59
  L 691.01 189.77
  L 689.27 189.48
  L 681.73 189.49
  L 681.39 189.63
  L 681.24 189.98
  Z"
/>
<path d="
  M 749.01 185.76
  L 753.34 185.76
  L 753.65 186.02
  L 753.56 186.31
  L 743.66 196.20
  L 743.62 196.60
  L 753.50 211.77
  L 753.51 212.09
  L 753.23 212.26
  L 749.67 212.26
  L 749.41 212.11
  L 741.08 199.32
  L 740.86 199.18
  L 740.61 199.24
  L 740.58 199.27
  L 737.35 202.51
  L 737.26 202.73
  L 737.26 211.92
  L 737.21 212.09
  L 736.94 212.24
  L 734.07 212.24
  L 733.75 211.92
  L 733.75 186.08
  L 733.80 185.91
  L 734.07 185.76
  L 736.93 185.76
  L 736.93 185.76
  L 737.25 186.08
  L 737.25 196.62
  L 737.33 196.82
  L 737.56 196.94
  L 737.80 196.84
  L 748.79 185.85
  L 748.85 185.80
  L 749.01 185.76
  Z"
/>
<path d="
  M 757.24 199.03
  L 757.31 186.34
  L 757.56 185.93
  L 758.00 185.77
  L 775.39 185.81
  L 775.52 185.84
  L 775.78 186.21
  L 775.77 189.08
  L 775.66 189.34
  L 775.40 189.45
  L 761.19 189.39
  L 761.07 189.41
  L 760.77 189.81
  L 760.74 196.86
  L 761.09 197.27
  L 761.15 197.28
  L 771.77 197.32
  L 772.19 197.47
  L 772.41 197.86
  L 772.50 199.06
  L 772.40 200.25
  L 772.18 200.64
  L 771.76 200.79
  L 761.15 200.79
  L 760.74 201.14
  L 760.74 201.20
  L 760.74 208.26
  L 760.86 208.55
  L 761.16 208.68
  L 775.36 208.68
  L 775.62 208.78
  L 775.73 209.05
  L 775.73 211.92
  L 775.62 212.19
  L 775.34 212.31
  L 757.95 212.29
  L 757.51 212.13
  L 757.27 211.72
  L 757.24 199.03
  Z"
/>
<path d="
  M 802.91 211.96
  L 802.81 212.22
  L 802.77 212.23
  L 799.07 212.23
  L 798.62 211.98
  L 792.84 203.09
  L 792.64 202.81
  L 791.40 201.74
  L 789.68 201.03
  L 787.43 200.70
  L 784.74 200.76
  L 784.38 200.94
  L 784.24 201.31
  L 784.24 211.80
  L 784.24 211.80
  L 784.11 212.10
  L 783.80 212.23
  L 781.17 212.23
  L 780.87 212.10
  L 780.74 211.79
  L 780.74 186.41
  L 780.92 185.97
  L 781.36 185.78
  L 792.87 185.86
  L 794.67 186.16
  L 796.25 186.75
  L 797.68 187.67
  L 798.81 188.83
  L 799.69 190.23
  L 800.22 191.77
  L 800.38 193.39
  L 800.17 195.01
  L 799.60 196.53
  L 798.64 197.94
  L 797.38 199.11
  L 795.77 200.09
  L 795.54 200.35
  L 795.57 200.69
  L 795.59 200.71
  L 802.91 211.96
  Z
  M 784.25 189.97
  L 784.25 196.77
  L 784.39 197.12
  L 784.74 197.26
  L 792.20 197.26
  L 793.95 196.97
  L 795.43 196.14
  L 796.42 194.90
  L 796.77 193.44
  L 796.77 193.30
  L 796.42 191.84
  L 795.43 190.60
  L 793.95 189.77
  L 792.20 189.48
  L 784.74 189.48
  L 784.39 189.62
  L 784.25 189.97
  Z"
/>
<path d="
  M 318.28 267.50
  L 311.40 272.11
  L 304.36 276.37
  L 297.16 280.27
  L 289.79 283.82
  L 289.79 283.82
  L 289.79 283.82
  L 283.17 286.65
  L 276.43 289.20
  L 269.44 291.52
  L 262.45 293.51
  L 255.47 295.17
  L 248.50 296.51
  L 241.53 297.52
  L 234.57 298.20
  L 227.62 298.56
  L 220.67 298.59
  L 220.67 298.59
  L 220.67 298.59
  L 220.67 298.59
  L 220.67 298.59
  L 214.54 298.35
  L 208.41 297.85
  L 202.29 297.10
  L 196.17 296.09
  L 190.06 294.83
  L 183.95 293.32
  L 177.85 291.55
  L 171.75 289.52
  L 162.23 285.86
  L 153.01 281.73
  L 144.09 277.12
  L 135.48 272.03
  L 128.67 267.52
  L 122.06 262.70
  L 121.97 262.45
  L 122.15 262.26
  L 122.15 262.26
  L 122.31 262.27
  L 134.05 267.11
  L 145.78 271.37
  L 157.59 275.09
  L 169.34 278.21
  L 181.02 280.74
  L 192.58 282.67
  L 204.12 284.01
  L 215.50 284.74
  L 221.74 284.82
  L 228.73 284.63
  L 236.47 284.14
  L 244.96 283.38
  L 254.97 282.20
  L 264.92 280.72
  L 264.92 280.72
  L 264.92 280.72
  L 264.92 280.72
  L 278.36 278.20
  L 291.71 275.11
  L 304.96 271.45
  L 318.12 267.21
  L 318.34 267.42
  L 318.28 267.50
  Z"
/>
</g>
</svg>
