
<svg height="70px" xmlns="http://www.w3.org/2000/svg" version="1.1" viewBox="0.00 0.00 300.00 100.00">
<g fill="#ffffff">
<path d="
  M 70.84 82.78
  L 69.33 84.11
  L 67.70 85.21
  L 67.70 85.21
  L 67.70 85.21
  L 65.75 86.16
  L 63.65 86.85
  L 61.39 87.26
  L 58.97 87.41
  L 1.91 87.43
  L 1.32 87.18
  L 1.07 86.59
  L 1.18 26.82
  L 1.31 25.04
  L 1.68 23.33
  L 1.68 23.33
  L 1.68 23.33
  L 1.68 23.33
  L 2.27 21.70
  L 3.10 20.15
  L 4.15 18.65
  L 5.43 17.23
  L 6.86 15.95
  L 8.35 14.90
  L 9.91 14.09
  L 11.53 13.50
  L 11.53 13.50
  L 11.53 13.50
  L 11.53 13.50
  L 13.25 13.13
  L 15.03 13.00
  L 74.80 13.02
  L 75.39 13.27
  L 75.64 13.87
  L 75.49 70.93
  L 75.34 73.35
  L 74.92 75.60
  L 74.23 77.70
  L 73.27 79.65
  L 73.27 79.65
  L 73.27 79.65
  L 72.16 81.28
  L 70.84 82.78
  Z
  M 15.13 49.98
  L 15.18 72.10
  L 15.49 72.79
  L 16.19 73.07
  L 25.34 73.07
  L 25.69 72.93
  L 25.84 72.58
  L 25.84 72.58
  L 25.84 55.68
  L 25.95 55.42
  L 26.21 55.31
  L 60.82 55.31
  L 60.83 55.31
  L 61.23 55.13
  L 61.40 54.72
  L 61.34 49.97
  L 61.39 45.23
  L 61.23 44.81
  L 60.82 44.64
  L 60.82 44.64
  L 26.21 44.65
  L 25.95 44.55
  L 25.84 44.28
  L 25.83 27.38
  L 25.68 27.04
  L 25.33 26.89
  L 16.18 26.90
  L 15.48 27.18
  L 15.17 27.87
  L 15.13 49.98
  Z
  M 61.3899 27.8394
  L 61.1216 27.1884
  L 60.4715 26.9178
  L 51.5716 26.9022
  L 50.9206 27.1706
  L 50.6500 27.8206
  L 50.6301 39.2206
  L 50.8984 39.8716
  L 51.5485 40.1422
  L 60.4484 40.1578
  L 61.0994 39.8894
  L 61.3700 39.2394
  L 61.3899 27.8394
  Z
  M 61.3701 60.5994
  L 61.1076 59.9625
  L 60.4717 59.6978
  L 51.5517 59.6822
  L 50.9148 59.9447
  L 50.6501 60.5807
  L 50.6299 72.1606
  L 50.8924 72.7975
  L 51.5283 73.0622
  L 60.4483 73.0778
  L 61.0852 72.8153
  L 61.3499 72.1793
  L 61.3701 60.5994
  Z"
/>
<path d="
  M 98.37 36.55
  L 107.87 36.61
  L 108.75 36.99
  L 109.11 37.88
  L 109.11 40.66
  L 108.74 41.54
  L 107.86 41.91
  L 101.52 41.91
  L 101.16 42.06
  L 101.01 42.41
  L 101.08 57.77
  L 100.89 58.41
  L 100.36 58.83
  L 98.47 58.99
  L 96.58 58.84
  L 96.04 58.43
  L 95.84 57.79
  L 95.79 42.43
  L 95.79 42.43
  L 95.63 42.08
  L 95.27 41.94
  L 88.93 41.99
  L 88.05 41.63
  L 87.67 40.75
  L 87.65 37.97
  L 88.00 37.08
  L 88.88 36.69
  L 98.37 36.55
  Z"
/>
<path d="
  M 129.44 47.74
  L 129.36 49.49
  L 128.92 50.31
  L 128.05 50.64
  L 118.31 50.64
  L 118.14 50.65
  L 117.68 50.83
  L 117.34 51.18
  L 117.18 51.64
  L 117.22 52.13
  L 117.32 52.44
  L 117.85 53.17
  L 118.71 53.45
  L 128.17 53.45
  L 128.17 53.45
  L 129.08 53.83
  L 129.45 54.74
  L 129.45 57.64
  L 129.09 58.52
  L 128.22 58.89
  L 117.85 58.83
  L 115.97 58.50
  L 114.39 57.66
  L 113.17 56.25
  L 112.36 54.25
  L 111.94 51.59
  L 111.84 47.82
  L 111.84 47.76
  L 111.84 47.70
  L 111.93 43.93
  L 112.35 41.27
  L 113.15 39.27
  L 114.36 37.85
  L 115.94 37.01
  L 117.83 36.68
  L 128.20 36.60
  L 129.07 36.97
  L 129.43 37.84
  L 129.44 40.74
  L 129.06 41.66
  L 128.16 42.04
  L 118.70 42.06
  L 117.84 42.34
  L 117.31 43.07
  L 117.21 43.38
  L 117.17 43.87
  L 117.33 44.33
  L 117.67 44.68
  L 118.13 44.85
  L 118.30 44.87
  L 128.04 44.85
  L 128.91 45.17
  L 129.35 46.00
  L 129.44 47.74
  Z"
/>
<path d="
  M 137.58 47.72
  L 137.66 52.47
  L 137.97 53.17
  L 138.68 53.46
  L 147.93 53.46
  L 148.72 53.62
  L 149.39 54.06
  L 149.83 54.73
  L 149.99 55.52
  L 149.99 57.06
  L 149.99 57.10
  L 149.83 57.84
  L 149.39 58.45
  L 148.75 58.85
  L 148.00 58.97
  L 144.88 59.02
  L 141.29 59.09
  L 138.71 58.98
  L 136.70 58.63
  L 135.32 58.05
  L 134.32 57.28
  L 133.58 56.42
  L 132.95 55.22
  L 132.55 53.68
  L 132.37 49.24
  L 132.38 47.72
  L 132.37 46.21
  L 132.54 41.76
  L 132.95 40.22
  L 133.57 39.03
  L 134.32 38.17
  L 135.31 37.39
  L 136.69 36.81
  L 138.71 36.47
  L 141.29 36.35
  L 144.88 36.42
  L 147.99 36.47
  L 148.74 36.59
  L 149.38 36.99
  L 149.82 37.60
  L 149.99 38.34
  L 149.99 38.38
  L 149.99 39.92
  L 149.66 41.03
  L 148.92 41.73
  L 147.93 41.98
  L 138.68 41.98
  L 137.97 42.27
  L 137.65 42.98
  L 137.58 47.72
  Z"
/>
<path d="
  M 163.40 44.85
  L 168.40 44.87
  L 168.77 44.72
  L 168.92 44.35
  L 168.92 37.57
  L 169.05 37.13
  L 169.40 36.82
  L 171.18 36.43
  L 173.43 36.72
  L 174.10 37.19
  L 174.26 38.00
  L 174.17 47.75
  L 174.25 57.50
  L 174.09 58.31
  L 173.43 58.79
  L 171.17 59.08
  L 169.40 58.68
  L 169.05 58.38
  L 168.92 57.93
  L 168.92 51.15
  L 168.77 50.79
  L 168.40 50.63
  L 163.40 50.64
  L 158.40 50.63
  L 158.03 50.78
  L 157.88 51.15
  L 157.88 57.93
  L 157.75 58.37
  L 157.40 58.68
  L 155.63 59.07
  L 153.37 58.78
  L 152.70 58.30
  L 152.55 57.49
  L 152.64 47.74
  L 152.56 37.99
  L 152.71 37.19
  L 153.38 36.71
  L 155.64 36.42
  L 157.41 36.81
  L 157.76 37.12
  L 157.89 37.56
  L 157.88 44.34
  L 158.03 44.71
  L 158.40 44.86
  L 163.40 44.85
  Z"
/>
<path d="
  M 190.22 45.77
  L 192.74 48.85
  L 193.09 48.81
  L 193.11 48.72
  L 193.11 38.05
  L 193.21 37.48
  L 193.52 36.98
  L 194.06 36.57
  L 194.73 36.43
  L 196.92 36.43
  L 197.57 36.56
  L 198.12 36.92
  L 198.48 37.47
  L 198.61 38.12
  L 198.61 57.51
  L 198.37 58.30
  L 197.85 58.79
  L 197.16 58.96
  L 194.13 58.96
  L 193.04 58.71
  L 192.16 58.02
  L 185.35 49.69
  L 182.84 46.60
  L 182.49 46.64
  L 182.47 46.73
  L 182.47 57.40
  L 182.34 58.02
  L 181.99 58.55
  L 181.47 58.90
  L 180.85 59.02
  L 178.66 59.02
  L 178.01 58.89
  L 177.46 58.53
  L 177.10 57.98
  L 176.97 57.33
  L 176.97 37.94
  L 177.20 37.15
  L 177.73 36.67
  L 178.42 36.49
  L 181.45 36.49
  L 182.54 36.74
  L 183.42 37.43
  L 190.22 45.77
  Z"
/>
<path d="
  M 222.9072 52.6225
  L 222.7908 53.8481
  L 222.4375 55.0274
  L 221.8610 56.1152
  L 221.0833 57.0695
  L 220.1344 57.8539
  L 219.0507 58.4380
  L 217.8739 58.7995
  L 216.6491 58.9244
  L 207.7492 58.9555
  L 206.5236 58.8391
  L 205.3443 58.4858
  L 204.2565 57.9093
  L 203.3022 57.1316
  L 202.5179 56.1827
  L 201.9337 55.0990
  L 201.5723 53.9222
  L 201.4473 52.6974
  L 201.4128 42.8175
  L 201.5292 41.5919
  L 201.8825 40.4126
  L 202.4590 39.3248
  L 203.2367 38.3705
  L 204.1856 37.5861
  L 205.2693 37.0020
  L 206.4461 36.6405
  L 207.6709 36.5156
  L 216.5708 36.4845
  L 217.7964 36.6009
  L 218.9757 36.9542
  L 220.0635 37.5307
  L 221.0178 38.3084
  L 221.8021 39.2573
  L 222.3863 40.3410
  L 222.7477 41.5178
  L 222.8727 42.7426
  L 222.9072 52.6225
  Z
  M 217.6677 43.2596
  L 217.5681 42.7542
  L 217.2827 42.3255
  L 216.8550 42.0386
  L 216.3500 41.9373
  L 208.0500 41.9228
  L 207.5447 42.0224
  L 207.1160 42.3078
  L 206.8291 42.7355
  L 206.7277 43.2405
  L 206.7123 52.1004
  L 206.8119 52.6058
  L 207.0973 53.0345
  L 207.5250 53.3214
  L 208.0300 53.4227
  L 216.3300 53.4372
  L 216.8353 53.3376
  L 217.2640 53.0522
  L 217.5509 52.6245
  L 217.6523 52.1195
  L 217.6677 43.2596
  Z"
/>
<path d="
  M 231.79 43.74
  L 231.61 43.93
  L 231.62 44.47
  L 232.09 44.73
  L 241.49 44.73
  L 241.82 44.60
  L 241.95 44.28
  L 241.95 44.28
  L 241.95 44.28
  L 241.95 37.90
  L 242.06 37.36
  L 242.36 36.90
  L 242.82 36.60
  L 243.36 36.49
  L 246.28 36.49
  L 247.23 36.83
  L 247.76 37.69
  L 248.42 40.77
  L 248.45 41.19
  L 248.32 45.36
  L 248.40 49.58
  L 248.70 53.85
  L 249.22 58.16
  L 249.15 58.94
  L 248.76 59.62
  L 248.11 60.05
  L 247.33 60.16
  L 246.95 60.09
  L 243.30 58.96
  L 242.29 58.24
  L 241.90 57.07
  L 241.90 51.94
  L 241.75 51.57
  L 241.39 51.42
  L 241.39 51.42
  L 241.39 51.42
  L 232.88 51.42
  L 232.63 51.68
  L 232.63 58.43
  L 232.63 58.53
  L 232.47 59.06
  L 232.12 59.49
  L 231.62 59.74
  L 231.07 59.77
  L 227.52 59.26
  L 226.80 59.02
  L 226.20 58.54
  L 225.82 57.89
  L 225.68 57.14
  L 225.68 37.72
  L 225.93 37.04
  L 226.55 36.68
  L 228.31 36.47
  L 229.78 36.56
  L 230.97 36.92
  L 231.91 37.63
  L 232.49 38.62
  L 232.74 39.99
  L 232.76 40.39
  L 232.71 42.23
  L 232.20 43.38
  L 231.79 43.74
  Z"
/>
<path d="
  M 272.15 38.29
  L 272.69 39.01
  L 272.91 39.75
  L 272.91 39.93
  L 272.87 47.22
  L 273.14 53.37
  L 273.11 53.62
  L 271.70 58.17
  L 271.21 58.91
  L 270.39 59.28
  L 263.83 59.85
  L 257.49 59.71
  L 255.99 59.49
  L 254.65 59.09
  L 253.47 58.50
  L 252.45 57.75
  L 251.31 56.42
  L 250.47 54.79
  L 249.94 52.87
  L 249.72 50.68
  L 249.69 39.02
  L 249.92 38.01
  L 250.51 37.16
  L 251.38 36.59
  L 252.40 36.39
  L 253.48 36.39
  L 254.62 36.60
  L 255.60 37.20
  L 256.30 38.12
  L 256.63 39.22
  L 256.83 44.31
  L 256.97 48.73
  L 256.97 49.93
  L 256.61 51.53
  L 256.53 52.12
  L 256.71 52.69
  L 257.12 53.12
  L 257.66 53.35
  L 257.90 53.37
  L 264.80 53.37
  L 265.42 53.25
  L 265.95 52.89
  L 266.30 52.36
  L 266.42 51.74
  L 266.42 37.16
  L 266.52 36.81
  L 266.80 36.57
  L 267.07 36.51
  L 270.81 36.51
  L 271.41 36.71
  L 271.77 37.22
  L 272.15 38.29
  Z"
/>
<path d="
  M 275.48 36.48
  L 290.77 36.45
  L 291.01 36.48
  L 292.77 37.04
  L 294.25 37.79
  L 295.46 38.72
  L 296.38 39.83
  L 296.38 39.83
  L 297.08 41.30
  L 297.43 42.99
  L 297.43 44.91
  L 297.08 47.06
  L 297.04 48.20
  L 297.50 51.77
  L 297.50 54.41
  L 297.02 56.45
  L 296.06 57.97
  L 295.16 58.71
  L 293.99 59.27
  L 292.63 59.61
  L 291.00 59.76
  L 280.00 59.82
  L 277.82 59.62
  L 275.84 59.14
  L 274.85 58.41
  L 274.47 57.23
  L 274.47 37.49
  L 274.77 36.78
  L 275.48 36.48
  Z
  M 291.1644 43.4812
  L 290.7581 43.0598
  L 289.6427 42.7389
  L 286.0458 42.5713
  L 282.4806 43.0766
  L 281.4004 43.5011
  L 281.0356 43.9588
  L 281.4419 44.3802
  L 282.5573 44.7011
  L 286.1542 44.8687
  L 289.7194 44.3634
  L 290.7996 43.9389
  L 291.1644 43.4812
  Z
  M 290.5265 52.0743
  L 290.2745 51.5162
  L 289.7017 51.2998
  L 282.0255 51.5410
  L 281.4675 51.7930
  L 281.2510 52.3658
  L 281.2535 52.4457
  L 281.5055 53.0038
  L 282.0783 53.2202
  L 289.7545 52.9790
  L 290.3125 52.7270
  L 290.5290 52.1542
  L 290.5265 52.0743
  Z"
/>
<rect x="285.54" y="61.23" width="1.56" height="11.92" rx="0.71"/>
<path d="
  M 107.37 65.85
  L 107.43 65.74
  L 107.60 65.02
  L 107.49 63.98
  L 107.38 62.96
  L 107.51 62.22
  L 107.61 62.03
  L 108.31 61.54
  L 108.85 61.61
  L 109.15 62.06
  L 109.16 62.16
  L 109.16 72.55
  L 109.15 72.65
  L 108.91 72.95
  L 108.52 72.95
  L 107.53 72.73
  L 106.27 72.91
  L 104.83 73.07
  L 103.51 72.70
  L 102.82 72.18
  L 102.30 71.51
  L 101.92 70.62
  L 101.75 69.67
  L 101.79 68.70
  L 102.06 67.78
  L 102.49 67.05
  L 103.10 66.47
  L 103.81 66.09
  L 104.68 65.91
  L 106.61 66.14
  L 107.04 66.13
  L 107.37 65.85
  Z
  M 105.6889 67.0601
  L 104.8568 67.1641
  L 104.1181 67.6115
  L 103.5851 68.3343
  L 103.3391 69.2223
  L 103.4176 70.1405
  L 103.8085 70.9489
  L 104.4523 71.5246
  L 105.2511 71.7799
  L 106.0832 71.6759
  L 106.8219 71.2285
  L 107.3549 70.5057
  L 107.6009 69.6177
  L 107.5224 68.6995
  L 107.1315 67.8911
  L 106.4877 67.3154
  L 105.6889 67.0601
  Z"
/>
<rect x="153.87" y="61.58" width="1.78" height="11.48" rx="0.51"/>
<rect x="-0.91" y="-5.18" transform="translate(88.97,67.81) rotate(-0.1)" width="1.82" height="10.36" rx="0.49"/>
<path d="
  M 169.07 73.06
  L 163.58 73.06
  L 163.29 72.77
  L 163.29 62.90
  L 163.30 62.82
  L 163.58 62.61
  L 168.86 62.61
  L 169.00 62.65
  L 169.15 62.90
  L 169.15 63.85
  L 168.86 64.14
  L 165.30 64.14
  L 165.01 64.43
  L 165.01 66.48
  L 165.30 66.77
  L 168.76 66.77
  L 168.85 66.78
  L 169.05 67.06
  L 169.05 67.86
  L 168.76 68.15
  L 165.30 68.15
  L 165.01 68.44
  L 165.01 71.34
  L 165.30 71.63
  L 169.07 71.63
  L 169.22 71.67
  L 169.36 71.92
  L 169.36 72.77
  L 169.07 73.06
  Z"
/>
<ellipse cx="0.00" cy="0.00" transform="translate(192.07,63.52) rotate(-161.9)" rx="1.03" ry="0.91"/>
<path d="
  M 253.03 64.12
  L 250.91 64.12
  L 250.25 64.31
  L 249.78 64.81
  L 249.63 65.48
  L 249.86 66.13
  L 250.48 66.60
  L 252.06 67.28
  L 253.29 68.08
  L 254.09 68.98
  L 254.38 69.85
  L 254.22 70.76
  L 253.57 71.76
  L 252.23 72.76
  L 252.23 72.76
  L 251.36 73.04
  L 250.38 73.11
  L 248.16 72.62
  L 247.84 72.34
  L 247.80 71.92
  L 247.87 71.70
  L 247.88 71.66
  L 248.16 71.36
  L 248.58 71.36
  L 250.15 71.77
  L 251.48 71.58
  L 252.36 71.00
  L 252.64 70.58
  L 252.71 70.09
  L 252.58 69.61
  L 252.25 69.23
  L 252.09 69.13
  L 249.03 67.48
  L 248.31 66.81
  L 247.89 65.94
  L 247.85 65.01
  L 248.19 64.18
  L 248.19 64.18
  L 248.26 64.09
  L 248.90 63.43
  L 249.64 62.97
  L 251.26 62.61
  L 253.21 62.94
  L 253.62 63.42
  L 253.39 64.00
  L 253.03 64.12
  Z"
/>
<path d="
  M 142.73 63.15
  L 143.01 63.75
  L 142.68 64.19
  L 142.19 64.44
  L 141.66 64.43
  L 141.21 64.17
  L 141.21 64.17
  L 140.98 63.82
  L 140.90 63.22
  L 141.03 62.99
  L 141.40 62.72
  L 141.87 62.66
  L 142.34 62.81
  L 142.73 63.15
  Z"
/>
<path d="
  M 131.98 66.98
  L 131.05 67.18
  L 130.68 67.40
  L 130.53 67.80
  L 130.58 70.97
  L 130.94 71.67
  L 131.73 71.87
  L 132.29 72.17
  L 132.26 72.80
  L 131.94 73.02
  L 130.94 73.17
  L 130.10 72.97
  L 130.10 72.97
  L 129.47 72.47
  L 128.98 71.67
  L 128.84 70.70
  L 128.84 68.28
  L 128.56 67.36
  L 128.10 66.64
  L 128.05 66.13
  L 129.63 63.44
  L 129.95 63.40
  L 129.98 63.46
  L 130.80 64.97
  L 131.90 65.85
  L 131.90 65.85
  L 132.06 65.91
  L 132.41 66.34
  L 132.23 66.86
  L 131.98 66.98
  Z"
/>
<path d="
  M 241.03 67.01
  L 240.12 67.21
  L 239.76 67.43
  L 239.61 67.82
  L 239.69 70.93
  L 240.05 71.62
  L 240.82 71.81
  L 241.37 72.10
  L 241.35 72.71
  L 241.35 72.71
  L 241.04 72.94
  L 240.05 73.09
  L 239.23 72.90
  L 239.23 72.90
  L 238.60 72.41
  L 238.12 71.63
  L 237.98 70.68
  L 237.96 68.31
  L 237.68 67.41
  L 237.22 66.70
  L 237.17 66.20
  L 238.70 63.55
  L 239.01 63.51
  L 239.04 63.57
  L 239.86 65.04
  L 240.95 65.90
  L 241.10 65.96
  L 241.45 66.38
  L 241.27 66.89
  L 241.03 67.01
  Z"
/>
<path d="
  M 116.90 66.40
  L 117.00 66.10
  L 117.45 65.86
  L 117.87 65.87
  L 118.35 66.08
  L 118.54 66.57
  L 118.46 72.59
  L 118.33 72.90
  L 118.01 73.01
  L 117.98 73.00
  L 117.11 72.76
  L 116.33 72.70
  L 114.49 73.13
  L 113.71 73.07
  L 113.08 72.81
  L 112.39 72.10
  L 111.91 70.89
  L 111.69 69.30
  L 111.68 67.07
  L 111.69 66.57
  L 111.83 66.13
  L 112.18 65.83
  L 112.52 65.76
  L 112.79 65.77
  L 113.23 65.95
  L 113.40 66.39
  L 113.36 70.11
  L 113.36 70.25
  L 113.54 70.86
  L 113.96 71.34
  L 114.53 71.61
  L 115.17 71.63
  L 115.64 71.55
  L 116.50 71.05
  L 116.85 70.11
  L 116.90 66.40
  Z"
/>
<path d="
  M 99.16 72.55
  L 98.99 72.95
  L 98.59 73.12
  L 98.16 73.12
  L 97.76 72.95
  L 97.59 72.55
  L 97.59 68.68
  L 97.59 68.63
  L 97.47 68.10
  L 97.16 67.66
  L 96.70 67.36
  L 96.17 67.26
  L 95.46 67.26
  L 94.89 67.37
  L 94.40 67.70
  L 94.07 68.19
  L 93.96 68.77
  L 93.96 72.54
  L 93.80 72.94
  L 93.40 73.11
  L 93.14 73.11
  L 93.14 73.11
  L 92.60 72.88
  L 92.38 72.34
  L 92.38 66.29
  L 92.53 65.96
  L 92.88 65.87
  L 92.95 65.89
  L 94.22 66.04
  L 96.20 65.79
  L 97.23 65.81
  L 98.16 66.25
  L 98.84 67.02
  L 99.15 68.01
  L 99.16 68.24
  L 99.16 72.55
  Z"
/>
<path d="
  M 125.45 67.15
  L 124.30 67.13
  L 123.00 67.55
  L 122.75 67.92
  L 122.92 68.32
  L 122.92 68.32
  L 123.09 68.41
  L 124.06 68.72
  L 125.39 69.29
  L 125.98 69.76
  L 126.33 70.42
  L 126.37 71.15
  L 126.09 71.83
  L 125.91 72.04
  L 124.89 72.76
  L 123.43 73.12
  L 121.71 72.93
  L 121.44 72.75
  L 121.34 72.45
  L 121.34 71.67
  L 121.47 71.40
  L 121.76 71.35
  L 121.76 71.35
  L 121.84 71.38
  L 122.66 71.71
  L 123.46 71.78
  L 123.46 71.78
  L 124.33 71.54
  L 124.71 71.02
  L 124.49 70.42
  L 124.49 70.42
  L 124.26 70.28
  L 122.60 69.59
  L 121.51 68.86
  L 121.40 68.74
  L 121.13 68.19
  L 121.13 67.56
  L 121.40 66.94
  L 121.89 66.45
  L 122.98 65.90
  L 124.07 65.72
  L 124.93 65.84
  L 125.79 66.20
  L 126.00 66.43
  L 125.95 66.95
  L 125.45 67.15
  Z"
/>
<path d="
  M 136.34 72.40
  L 136.16 72.91
  L 135.67 73.14
  L 135.65 73.14
  L 135.32 73.14
  L 134.84 72.94
  L 134.64 72.46
  L 134.64 66.24
  L 134.65 66.17
  L 134.85 65.88
  L 135.20 65.84
  L 135.21 65.85
  L 136.51 66.05
  L 137.96 65.83
  L 138.46 65.90
  L 138.72 66.33
  L 138.73 66.41
  L 138.73 66.80
  L 138.62 67.12
  L 138.20 67.33
  L 137.39 67.41
  L 136.85 67.69
  L 136.53 68.19
  L 136.38 68.89
  L 136.34 72.40
  Z"
/>
<rect x="-0.77" y="-3.63" transform="translate(141.69,69.46) rotate(0.1)" width="1.54" height="7.26" rx="0.52"/>
<path d="
  M 147.14 67.34
  L 146.63 67.24
  L 146.61 67.24
  L 146.29 67.12
  L 146.15 66.79
  L 146.15 66.36
  L 146.37 66.07
  L 148.39 65.79
  L 149.22 65.94
  L 149.86 66.27
  L 150.51 67.05
  L 150.87 68.11
  L 151.07 71.70
  L 151.06 72.27
  L 150.87 72.71
  L 150.43 72.88
  L 150.42 72.88
  L 147.91 73.01
  L 146.58 72.92
  L 145.58 72.30
  L 145.13 71.24
  L 145.29 69.99
  L 145.93 68.87
  L 147.02 67.96
  L 147.05 67.94
  L 147.22 67.66
  L 147.14 67.34
  Z
  M 147.48 67.64
  L 147.64 68.41
  L 147.64 68.41
  L 147.47 69.31
  L 146.90 70.21
  L 146.72 70.57
  L 146.73 71.04
  L 146.99 71.45
  L 147.42 71.70
  L 147.92 71.73
  L 148.84 71.25
  L 149.09 70.64
  L 149.07 69.81
  L 148.18 67.45
  L 147.71 67.23
  L 147.70 67.23
  L 147.68 67.24
  L 147.48 67.64
  Z"
/>
<path d="
  M 176.19 72.71
  L 175.11 72.94
  L 174.14 72.93
  L 173.21 72.69
  L 172.43 72.24
  L 171.81 71.61
  L 171.39 70.85
  L 171.16 70.00
  L 171.14 69.10
  L 171.33 68.22
  L 171.75 67.38
  L 173.10 66.06
  L 173.61 65.91
  L 178.02 65.91
  L 178.43 66.08
  L 178.61 66.49
  L 178.61 66.49
  L 178.61 75.66
  L 178.46 76.02
  L 178.09 76.17
  L 177.42 76.17
  L 177.00 76.00
  L 176.83 75.59
  L 176.83 75.59
  L 176.83 75.59
  L 176.83 73.19
  L 176.66 72.81
  L 176.26 72.70
  L 176.19 72.71
  Z
  M 175.3352 67.0125
  L 174.5387 67.0674
  L 173.8033 67.4773
  L 173.2410 68.1800
  L 172.9373 69.0684
  L 172.9385 70.0073
  L 173.2444 70.8538
  L 173.8084 71.4789
  L 174.5448 71.7875
  L 175.3413 71.7326
  L 176.0767 71.3227
  L 176.6390 70.6200
  L 176.9427 69.7316
  L 176.9415 68.7927
  L 176.6356 67.9462
  L 176.0716 67.3211
  L 175.3352 67.0125
  Z"
/>
<path d="
  M 186.32 66.28
  L 186.37 66.04
  L 186.87 65.73
  L 187.30 65.73
  L 187.30 65.73
  L 187.79 65.94
  L 187.99 66.43
  L 187.99 72.56
  L 187.85 72.88
  L 187.53 72.99
  L 187.53 72.99
  L 187.50 72.99
  L 186.61 72.75
  L 185.82 72.70
  L 183.95 73.17
  L 183.16 73.11
  L 182.52 72.85
  L 181.80 72.14
  L 181.29 70.92
  L 181.06 69.31
  L 181.02 67.03
  L 181.02 66.52
  L 181.26 65.93
  L 181.85 65.69
  L 182.13 65.69
  L 182.58 65.87
  L 182.76 66.32
  L 182.76 70.10
  L 182.77 70.25
  L 182.96 70.86
  L 183.39 71.35
  L 183.97 71.62
  L 184.62 71.63
  L 185.10 71.54
  L 185.98 71.02
  L 186.32 70.06
  L 186.32 66.28
  Z"
/>
<rect x="191.01" y="65.85" width="1.60" height="7.22" rx="0.59"/>
<path d="
  M 196.91 73.19
  L 196.91 75.59
  L 196.74 76.00
  L 196.32 76.17
  L 195.65 76.17
  L 195.28 76.02
  L 195.13 75.66
  L 195.13 75.66
  L 195.13 66.48
  L 195.13 66.48
  L 195.30 66.07
  L 195.72 65.90
  L 200.14 65.90
  L 200.65 66.05
  L 202.00 67.37
  L 202.41 68.22
  L 202.61 69.09
  L 202.59 69.99
  L 202.36 70.84
  L 201.94 71.61
  L 201.32 72.24
  L 200.54 72.69
  L 199.60 72.93
  L 198.63 72.94
  L 197.55 72.71
  L 197.48 72.69
  L 197.08 72.81
  L 196.91 73.19
  Z
  M 198.9138 67.0423
  L 198.1183 67.1889
  L 197.4282 67.6751
  L 196.9483 68.4271
  L 196.7520 69.3301
  L 196.8689 70.2469
  L 197.2813 71.0378
  L 197.9265 71.5824
  L 198.7062 71.7977
  L 199.5017 71.6511
  L 200.1918 71.1649
  L 200.6717 70.4129
  L 200.8680 69.5099
  L 200.7511 68.5931
  L 200.3387 67.8022
  L 199.6935 67.2576
  L 198.9138 67.0423
  Z"
/>
<path d="
  M 211.39 72.56
  L 211.22 72.95
  L 210.82 73.11
  L 210.40 73.11
  L 210.00 72.95
  L 209.83 72.55
  L 209.83 68.43
  L 209.72 67.92
  L 209.43 67.50
  L 208.99 67.22
  L 208.47 67.15
  L 208.47 67.15
  L 208.39 67.16
  L 207.86 67.23
  L 207.11 67.63
  L 206.81 68.43
  L 206.81 72.46
  L 206.64 72.88
  L 206.23 73.05
  L 206.23 73.05
  L 205.77 73.05
  L 205.16 72.80
  L 204.91 72.19
  L 204.91 66.67
  L 205.08 66.23
  L 205.50 66.02
  L 208.68 65.94
  L 210.77 66.38
  L 211.28 66.46
  L 211.76 66.29
  L 212.60 65.87
  L 213.43 65.74
  L 213.43 65.74
  L 214.59 66.03
  L 215.73 66.89
  L 216.10 67.77
  L 216.10 72.51
  L 215.92 72.93
  L 215.49 73.11
  L 215.14 73.11
  L 214.72 72.94
  L 214.55 72.53
  L 214.55 72.53
  L 214.55 72.53
  L 214.57 68.66
  L 214.57 68.66
  L 214.45 68.08
  L 214.12 67.59
  L 213.63 67.26
  L 213.05 67.15
  L 212.96 67.15
  L 212.95 67.15
  L 212.37 67.25
  L 211.88 67.57
  L 211.55 68.05
  L 211.43 68.62
  L 211.39 72.56
  Z"
/>
<path d="
  M 224.90 72.24
  L 224.36 72.77
  L 223.06 73.14
  L 221.31 72.84
  L 220.28 72.34
  L 219.50 71.63
  L 218.84 70.43
  L 218.65 69.10
  L 218.93 67.83
  L 219.67 66.75
  L 220.34 66.27
  L 221.17 65.96
  L 222.89 65.79
  L 224.20 66.24
  L 224.20 66.24
  L 224.20 66.24
  L 224.73 66.72
  L 225.15 67.38
  L 225.63 69.22
  L 225.47 69.73
  L 225.00 69.97
  L 224.96 69.97
  L 220.88 69.97
  L 220.57 70.06
  L 220.28 70.59
  L 220.61 71.11
  L 222.40 71.67
  L 224.55 71.65
  L 224.88 71.77
  L 224.96 72.11
  L 224.90 72.24
  Z
  M 222.15 68.83
  L 223.58 68.66
  L 223.84 68.45
  L 223.84 68.12
  L 223.84 68.12
  L 223.81 68.06
  L 223.06 67.26
  L 222.27 66.95
  L 222.27 66.95
  L 222.14 66.94
  L 222.02 66.95
  L 222.02 66.95
  L 221.23 67.26
  L 220.48 68.06
  L 220.45 68.12
  L 220.46 68.45
  L 220.71 68.66
  L 222.15 68.83
  Z"
/>
<path d="
  M 229.69 72.53
  L 229.68 72.66
  L 229.48 72.96
  L 229.14 73.08
  L 228.71 73.08
  L 228.23 72.88
  L 228.03 72.38
  L 228.03 66.27
  L 228.17 65.95
  L 228.49 65.84
  L 228.52 65.84
  L 229.41 66.08
  L 230.20 66.13
  L 232.06 65.67
  L 232.86 65.73
  L 233.49 65.98
  L 234.21 66.70
  L 234.71 67.92
  L 234.94 69.52
  L 234.98 71.79
  L 234.98 72.30
  L 234.81 72.80
  L 234.15 73.13
  L 233.87 73.13
  L 233.68 73.10
  L 233.36 72.87
  L 233.24 72.50
  L 233.25 68.73
  L 233.24 68.58
  L 233.05 67.97
  L 232.62 67.48
  L 232.04 67.21
  L 231.39 67.20
  L 230.91 67.29
  L 230.04 67.81
  L 229.70 68.76
  L 229.69 72.53
  Z"
/>
<path d="
  M 258.38 66.35
  L 258.37 67.65
  L 258.39 69.77
  L 258.70 70.98
  L 259.18 71.48
  L 259.89 71.70
  L 260.63 71.53
  L 261.20 71.01
  L 261.46 70.29
  L 261.45 66.63
  L 261.63 66.04
  L 262.18 65.76
  L 262.18 65.76
  L 262.22 65.76
  L 262.51 65.76
  L 262.92 65.93
  L 263.09 66.34
  L 263.09 72.50
  L 263.07 72.65
  L 262.72 73.08
  L 262.16 73.06
  L 261.68 72.66
  L 261.64 72.61
  L 261.23 72.44
  L 260.82 72.63
  L 260.72 72.75
  L 260.17 73.07
  L 259.13 73.08
  L 258.25 72.79
  L 258.25 72.79
  L 257.46 72.10
  L 256.88 71.01
  L 256.82 70.66
  L 256.82 66.29
  L 256.82 66.29
  L 256.98 65.92
  L 257.35 65.77
  L 257.77 65.77
  L 258.19 65.94
  L 258.38 66.35
  Z"
/>
<path d="
  M 268.54 72.70
  L 268.47 72.69
  L 268.07 72.80
  L 267.90 73.18
  L 267.90 75.58
  L 267.72 75.99
  L 267.30 76.16
  L 266.64 76.16
  L 266.27 76.01
  L 266.12 75.65
  L 266.12 75.65
  L 266.13 66.47
  L 266.30 66.06
  L 266.72 65.89
  L 271.14 65.90
  L 271.65 66.05
  L 272.99 67.37
  L 273.41 68.22
  L 273.61 69.09
  L 273.59 69.99
  L 273.36 70.85
  L 272.93 71.61
  L 272.31 72.24
  L 271.53 72.69
  L 270.59 72.93
  L 269.62 72.93
  L 268.54 72.70
  Z
  M 271.8062 69.0477
  L 271.7097 68.3481
  L 271.3529 67.7387
  L 270.7900 67.3122
  L 270.1067 67.1336
  L 269.7873 67.1146
  L 269.0877 67.2110
  L 268.4782 67.5679
  L 268.0517 68.1308
  L 267.8731 68.8140
  L 267.8138 69.8123
  L 267.9103 70.5119
  L 268.2671 71.1213
  L 268.8300 71.5478
  L 269.5133 71.7264
  L 269.8327 71.7454
  L 270.5323 71.6490
  L 271.1418 71.2921
  L 271.5683 70.7292
  L 271.7469 70.0460
  L 271.8062 69.0477
  Z"
/>
<path d="
  M 278.40 72.67
  L 278.33 72.65
  L 277.94 72.77
  L 277.77 73.15
  L 277.76 75.53
  L 277.76 75.53
  L 277.59 75.94
  L 277.17 76.11
  L 276.51 76.11
  L 276.14 75.96
  L 275.99 75.60
  L 275.99 75.60
  L 276.01 66.47
  L 276.18 66.06
  L 276.59 65.89
  L 280.99 65.90
  L 281.50 66.05
  L 282.83 67.36
  L 283.25 68.21
  L 283.44 69.08
  L 283.42 69.98
  L 283.19 70.82
  L 282.77 71.58
  L 282.15 72.20
  L 281.38 72.65
  L 280.44 72.89
  L 279.48 72.90
  L 278.40 72.67
  Z
  M 281.8223 68.9807
  L 281.6837 68.2643
  L 281.2815 67.6555
  L 280.6770 67.2470
  L 279.9621 67.1009
  L 279.6221 67.0991
  L 278.9058 67.2377
  L 278.2970 67.6399
  L 277.8885 68.2445
  L 277.7424 68.9593
  L 277.7377 69.8593
  L 277.8763 70.5757
  L 278.2785 71.1845
  L 278.8830 71.5930
  L 279.5979 71.7391
  L 279.9379 71.7409
  L 280.6542 71.6023
  L 281.2630 71.2001
  L 281.6715 70.5955
  L 281.8176 69.8807
  L 281.8223 68.9807
  Z"
/>
<path d="
  M 292.63 70.32
  L 292.87 70.52
  L 293.17 70.42
  L 293.17 70.42
  L 293.24 70.30
  L 294.48 66.31
  L 294.91 65.79
  L 295.58 65.73
  L 295.96 65.85
  L 296.30 66.13
  L 296.33 66.57
  L 296.33 66.57
  L 296.32 66.59
  L 295.45 68.87
  L 294.13 72.24
  L 293.01 74.39
  L 291.82 75.83
  L 290.56 76.57
  L 290.08 76.54
  L 289.75 76.19
  L 289.65 75.94
  L 289.83 75.46
  L 290.77 74.84
  L 291.47 74.05
  L 291.47 74.05
  L 291.82 73.37
  L 291.82 72.48
  L 289.32 66.33
  L 289.28 66.17
  L 289.47 65.77
  L 289.91 65.69
  L 290.56 65.89
  L 290.99 66.28
  L 292.63 70.32
  Z"
/>
</g>
</svg>
