<?xml version="1.0" standalone="no"?>
<!DOCTYPE svg PUBLIC "-//W3C//DTD SVG 20010904//EN"
 "http://www.w3.org/TR/2001/REC-SVG-20010904/DTD/svg10.dtd">
<svg version="1.0" xmlns="http://www.w3.org/2000/svg"
 width="1148.000000pt" height="265.000000pt" viewBox="0 0 1148.000000 265.000000"
 preserveAspectRatio="xMidYMid meet">

<g transform="translate(0.000000,265.000000) scale(0.100000,-0.100000)"
fill="#ffffff" stroke="none">
<path d="M278 2631 c-101 -40 -171 -109 -220 -216 -19 -42 -23 -67 -23 -150 0
-93 2 -105 33 -167 42 -85 105 -148 190 -190 62 -31 73 -33 167 -33 93 0 104
3 164 34 81 42 155 115 189 189 24 51 27 69 27 162 0 99 -2 110 -33 172 -37
76 -114 152 -189 189 -66 33 -234 38 -305 10z"/>
<path d="M1257 2626 c-152 -64 -237 -193 -237 -362 0 -131 39 -209 180 -359
84 -90 109 -157 91 -240 -14 -62 -47 -112 -144 -214 -91 -96 -120 -160 -125
-268 -6 -119 21 -194 99 -277 79 -85 152 -118 269 -124 172 -7 303 74 378 236
22 48 26 71 26 147 0 125 -29 188 -151 317 -107 113 -128 158 -120 246 7 78
23 107 121 213 89 95 130 167 147 251 31 163 -68 351 -226 429 -41 20 -68 24
-150 27 -87 2 -108 -1 -158 -22z"/>
<path d="M2360 1755 l0 -895 170 0 170 0 2 616 3 616 126 -184 c69 -100 257
-378 419 -615 l294 -433 168 0 168 0 0 885 c0 487 1 888 3 893 1 4 -78 8 -175
10 l-178 2 -2 -617 -3 -618 -30 51 c-28 48 -259 393 -425 635 -41 60 -142 208
-225 329 l-149 220 -168 0 -168 0 0 -895z"/>
<path d="M4817 2630 c-377 -110 -619 -423 -644 -831 -23 -396 186 -751 527
-894 124 -53 192 -67 350 -72 121 -4 162 -1 244 16 431 89 732 496 702 952 -8
130 -36 235 -96 355 -108 220 -273 369 -503 457 -81 31 -84 31 -297 34 -190 2
-223 0 -283 -17z m386 -295 c210 -44 376 -214 422 -431 19 -89 19 -252 0 -332
-45 -191 -194 -353 -374 -408 -78 -24 -197 -28 -281 -10 -271 57 -440 286
-440 594 0 295 173 531 430 586 85 19 159 19 243 1z"/>
<path d="M10259 2631 c-149 -40 -278 -120 -396 -244 -125 -132 -209 -311 -235
-499 -17 -128 -5 -315 27 -422 96 -328 342 -554 675 -622 104 -21 339 -15 440
11 242 63 454 236 567 460 174 345 112 780 -150 1061 -114 123 -259 212 -409
254 -100 28 -418 28 -519 1z m443 -314 c179 -65 302 -207 355 -407 21 -80 23
-261 4 -340 -65 -270 -300 -444 -576 -427 -260 17 -440 178 -506 452 -17 72
-14 238 5 315 43 172 153 314 296 383 41 20 98 40 125 46 81 16 220 6 297 -22z"/>
<path d="M6901 2629 c-89 -16 -224 -65 -302 -111 -89 -52 -240 -199 -287 -280
-56 -95 -103 -214 -124 -316 -29 -140 -22 -350 16 -476 102 -341 362 -575 696
-627 111 -17 326 -6 420 21 219 63 419 235 515 442 19 42 35 81 35 87 0 7 -58
11 -175 11 l-174 0 -30 -44 c-180 -261 -584 -286 -811 -50 -219 228 -212 662
15 889 169 169 457 202 655 75 48 -31 160 -144 160 -162 0 -4 81 -8 181 -8
l180 0 -6 23 c-14 52 -89 187 -135 245 -97 120 -248 218 -400 262 -86 25 -335
36 -429 19z"/>
<path d="M8080 1745 l0 -895 175 0 175 0 0 279 0 279 97 106 c88 96 99 105
110 89 7 -10 135 -183 285 -385 l273 -367 208 0 c114 -1 207 2 207 7 0 4 -64
90 -143 192 -78 102 -187 244 -241 315 -55 72 -158 206 -228 298 l-129 168 94
102 c51 56 183 203 292 327 110 124 228 256 262 294 35 38 63 73 63 78 0 5
-84 8 -195 8 l-194 -2 -69 -71 c-141 -148 -582 -626 -665 -722 l-26 -30 -1
411 0 412 -175 1 -175 2 0 -896z"/>
<path d="M343 1559 c-115 -22 -229 -113 -279 -222 -26 -56 -29 -72 -29 -167 0
-92 4 -112 26 -160 108 -229 395 -303 594 -152 62 47 121 130 141 200 24 81
16 202 -18 274 -52 112 -165 202 -286 227 -60 12 -88 13 -149 0z"/>
<path d="M4642 665 c-37 -16 -71 -79 -72 -132 0 -28 -4 -33 -25 -33 -20 0 -25
-5 -25 -25 0 -20 5 -25 25 -25 l25 0 0 -155 0 -155 30 0 30 0 0 155 0 155 45
0 c41 0 45 2 45 25 0 23 -4 25 -46 25 l-46 0 7 43 c8 54 46 91 86 83 22 -4 28
-1 31 19 8 38 -47 47 -110 20z"/>
<path d="M8800 405 l0 -265 30 0 30 0 0 125 c0 123 0 125 29 157 36 40 89 44
124 10 20 -21 22 -34 25 -157 l4 -135 29 0 30 0 -3 149 c-3 150 -3 150 -32
180 -49 51 -119 53 -176 4 l-30 -25 0 111 0 111 -30 0 -30 0 0 -265z"/>
<path d="M10050 405 l0 -265 30 0 30 0 0 265 0 265 -30 0 -30 0 0 -265z"/>
<path d="M3970 635 c-15 -18 -10 -45 13 -59 34 -22 73 27 47 59 -16 19 -44 19
-60 0z"/>
<path d="M6670 635 c-26 -32 13 -81 48 -59 22 14 27 41 12 59 -16 19 -44 19
-60 0z"/>
<path d="M6458 593 c-14 -3 -18 -15 -18 -49 0 -42 -1 -44 -30 -44 -25 0 -30
-4 -30 -25 0 -21 5 -25 29 -25 l29 0 4 -136 c3 -135 3 -136 32 -160 22 -20 37
-24 70 -22 36 3 41 6 44 29 3 23 0 26 -20 22 -13 -2 -32 2 -43 11 -18 13 -20
28 -24 135 l-3 121 51 0 c48 0 51 2 51 25 0 23 -3 25 -50 25 l-50 0 0 50 c0
51 -3 53 -42 43z"/>
<path d="M7868 593 c-14 -3 -18 -15 -18 -49 0 -42 -1 -44 -30 -44 -25 0 -30
-4 -30 -25 0 -21 5 -25 29 -25 l29 0 4 -136 c3 -135 3 -136 32 -160 22 -20 37
-24 70 -22 36 3 41 6 44 29 3 23 0 26 -20 22 -13 -2 -32 2 -43 11 -18 13 -20
28 -24 135 l-3 121 51 0 c48 0 51 2 51 25 0 23 -3 25 -50 25 l-50 0 0 50 c0
51 -3 53 -42 43z"/>
<path d="M4270 499 c-14 -5 -35 -20 -47 -31 l-23 -21 0 26 c0 24 -4 27 -31 27
-28 0 -31 -3 -25 -22 3 -13 6 -94 6 -180 l0 -158 30 0 30 0 0 125 c0 123 0
125 29 157 36 40 89 44 124 10 20 -21 22 -34 25 -157 l4 -135 29 0 30 0 -3
150 -3 150 -31 31 c-35 35 -99 47 -144 28z"/>
<path d="M4850 488 c-125 -63 -134 -245 -17 -332 22 -16 43 -21 90 -21 76 0
122 26 156 85 20 35 23 53 19 113 -4 86 -29 129 -92 158 -55 25 -102 24 -156
-3z m125 -40 c80 -36 85 -187 9 -247 -83 -66 -196 42 -165 157 24 87 85 122
156 90z"/>
<path d="M5305 499 c-11 -6 -30 -23 -42 -38 l-23 -26 0 33 c0 29 -3 32 -31 32
-30 0 -31 -2 -25 -31 3 -17 6 -98 6 -180 l0 -149 30 0 30 0 0 111 c0 79 4 120
15 144 15 31 50 55 80 55 10 0 15 10 15 30 0 33 -18 39 -55 19z"/>
<path d="M5555 499 c-11 -6 -30 -21 -42 -32 l-23 -20 0 26 c0 24 -4 27 -31 27
-28 0 -31 -3 -25 -22 3 -13 6 -94 6 -180 l0 -158 30 0 30 0 0 120 c0 136 10
169 59 189 24 10 35 10 58 -1 40 -19 52 -64 52 -195 l1 -113 30 0 30 0 0 129
c0 121 2 132 23 155 34 38 68 42 103 13 29 -25 29 -25 32 -161 l4 -136 29 0
29 0 0 136 c0 154 -11 194 -63 221 -44 22 -103 12 -140 -25 l-29 -30 -27 30
c-20 23 -38 31 -71 34 -25 3 -54 -1 -65 -7z"/>
<path d="M6100 496 c-26 -10 -34 -18 -32 -32 5 -27 9 -29 37 -16 34 16 97 15
118 0 9 -7 21 -27 26 -44 l9 -32 -61 -7 c-106 -12 -157 -54 -157 -132 0 -71
57 -113 134 -99 19 4 45 15 59 26 25 20 25 20 30 0 3 -14 14 -20 31 -20 l26 0
0 133 c0 106 -4 139 -18 167 -31 62 -118 86 -202 56z m158 -200 c7 -61 -36
-116 -92 -116 -84 0 -88 116 -4 134 13 3 32 7 43 10 37 8 50 1 53 -28z"/>
<path d="M6920 488 c-125 -63 -134 -245 -17 -332 22 -16 43 -21 90 -21 76 0
122 26 156 85 20 35 23 53 19 113 -4 86 -29 129 -92 158 -55 25 -102 24 -156
-3z m125 -40 c80 -36 85 -187 9 -247 -83 -66 -196 42 -165 157 24 87 85 122
156 90z"/>
<path d="M7380 499 c-14 -5 -35 -20 -47 -31 l-23 -21 0 26 c0 24 -4 27 -31 27
-28 0 -31 -3 -25 -22 3 -13 6 -94 6 -180 l0 -158 30 0 30 0 0 125 c0 123 0
125 29 157 36 40 89 44 124 10 20 -21 22 -34 25 -157 l4 -135 29 0 30 0 -3
150 -3 150 -31 31 c-35 35 -99 47 -144 28z"/>
<path d="M8165 496 c-69 -30 -112 -119 -101 -209 14 -121 113 -179 249 -148
47 11 48 12 41 38 -5 18 -10 20 -37 12 -96 -27 -173 10 -193 94 l-6 27 132 0
133 0 -6 51 c-14 118 -111 179 -212 135z m107 -47 c16 -9 48 -64 48 -84 0 -3
-45 -5 -99 -5 l-100 0 11 30 c20 58 87 87 140 59z"/>
<path d="M8553 499 c-45 -13 -100 -71 -112 -116 -44 -157 67 -280 222 -247 36
8 42 13 42 34 0 20 -4 24 -20 20 -11 -3 -41 -5 -67 -5 -38 0 -52 5 -78 30
-106 102 -7 284 129 237 29 -10 31 -9 37 14 4 14 4 27 1 30 -11 11 -123 13
-154 3z"/>
<path d="M9340 499 c-14 -5 -35 -20 -47 -31 l-23 -21 0 26 c0 24 -4 27 -31 27
-28 0 -31 -3 -25 -22 3 -13 6 -94 6 -180 l0 -158 30 0 30 0 0 125 c0 123 0
125 29 157 36 40 89 44 124 10 20 -21 22 -34 25 -157 l4 -135 29 0 30 0 -3
150 -3 150 -31 31 c-35 35 -99 47 -144 28z"/>
<path d="M9700 488 c-125 -63 -134 -245 -17 -332 22 -16 43 -21 90 -21 76 0
122 26 156 85 20 35 23 53 19 113 -4 86 -29 129 -92 158 -55 25 -102 24 -156
-3z m125 -40 c80 -36 85 -187 9 -247 -83 -66 -196 42 -165 157 24 87 85 122
156 90z"/>
<path d="M10300 488 c-125 -63 -134 -245 -17 -332 22 -16 43 -21 90 -21 76 0
122 26 156 85 20 35 23 53 19 113 -4 86 -29 129 -92 158 -55 25 -102 24 -156
-3z m125 -40 c80 -36 85 -187 9 -247 -83 -66 -196 42 -165 157 24 87 85 122
156 90z"/>
<path d="M10703 489 c-53 -26 -93 -99 -93 -169 0 -55 33 -125 73 -154 42 -31
125 -29 168 3 l32 24 -5 -53 c-7 -74 -40 -105 -111 -105 -28 0 -66 4 -83 8
-27 7 -32 5 -37 -12 -2 -11 -2 -22 1 -25 3 -3 52 -6 109 -6 171 0 181 16 185
308 l3 192 -27 0 c-24 0 -28 -4 -28 -27 l0 -27 -21 23 c-42 45 -101 53 -166
20z m150 -58 c26 -26 36 -135 17 -182 -14 -32 -55 -59 -90 -59 -35 0 -76 27
-88 57 -21 55 -23 72 -11 117 16 65 59 100 112 93 22 -3 49 -15 60 -26z"/>
<path d="M3970 320 l0 -180 30 0 30 0 0 180 0 180 -30 0 -30 0 0 -180z"/>
<path d="M6670 320 l0 -180 30 0 30 0 0 180 0 180 -30 0 -30 0 0 -180z"/>
<path d="M11010 498 c0 -2 31 -82 70 -177 65 -163 68 -175 55 -201 -15 -29
-79 -90 -95 -90 -6 0 -10 -7 -10 -15 0 -11 12 -15 44 -15 80 0 99 35 265 473
11 28 11 28 -26 25 l-36 -3 -47 -139 -46 -139 -51 139 -51 139 -36 3 c-20 2
-36 2 -36 0z"/>
</g>
</svg>
