<?xml version="1.0" encoding="UTF-8" standalone="no"?>
<!DOCTYPE svg PUBLIC "-//W3C//DTD SVG 1.1//EN" "http://www.w3.org/Graphics/SVG/1.1/DTD/svg11.dtd">
<svg xmlns="http://www.w3.org/2000/svg" version="1.1" viewBox="0.00 0.00 927.00 922.00" width="927.00" height="922.00">
<g stroke-width="2.00" fill="none" stroke-linecap="butt">
<path stroke="#868786" vector-effect="non-scaling-stroke" d="
  M 176.68 210.99
  L 252.06 210.99
  L 252.52 211.18
  L 252.72 211.63
  L 252.70 218.81
  L 252.72 228.51
  L 253.26 234.97
  L 254.31 239.88
  L 255.87 244.50
  L 257.99 248.93
  L 260.58 252.99
  L 262.92 255.93
  L 265.51 258.63
  L 268.33 261.06
  L 271.34 263.22
  L 274.58 265.12
  L 277.98 266.72
  L 281.53 268.00
  L 285.19 268.96
  L 290.67 269.74
  L 296.28 269.77
  L 301.90 269.03
  L 307.33 267.56
  L 310.56 266.32
  L 313.62 264.85
  L 316.51 263.17
  L 319.24 261.27
  L 319.24 261.27
  L 323.09 257.93
  L 326.55 254.06
  L 329.62 249.69
  L 332.29 244.79
  L 333.49 241.84
  L 334.55 238.29
  L 335.30 234.70
  L 335.66 231.45
  L 335.89 222.49
  L 335.84 211.49
  L 335.98 211.14
  L 336.33 210.99
  L 336.33 210.99
  L 455.64 210.99
  L 455.64 210.99
  L 456.02 211.15
  L 456.17 211.53
  L 456.14 228.26
  L 456.27 231.55
  L 456.62 234.72
  L 457.19 237.87
  L 457.97 240.88
  L 458.96 243.81
  L 460.15 246.59
  L 461.57 249.31
  L 463.17 251.88
  L 465.35 254.78
  L 467.75 257.45
  L 470.44 259.93
  L 473.34 262.15
  L 476.46 264.13
  L 479.73 265.82
  L 483.15 267.22
  L 486.67 268.33
  L 490.28 269.13
  L 493.95 269.62
  L 497.66 269.80
  L 501.38 269.65
  L 505.04 269.19
  L 508.67 268.40
  L 512.15 267.32
  L 515.56 265.91
  L 520.41 263.25
  L 524.84 260.00
  L 528.93 256.08
  L 532.53 251.63
  L 534.59 248.43
  L 536.33 245.04
  L 537.43 242.27
  L 538.31 239.48
  L 538.99 236.54
  L 539.51 233.36
  L 540.05 226.30
  L 540.09 216.14
  L 540.06 211.39
  L 540.18 211.11
  L 540.47 210.99
  L 622.67 210.99
  L 622.99 211.12
  L 623.12 211.44
  L 623.08 363.05
  L 623.23 366.36
  L 623.75 369.12
  L 624.65 371.37
  L 625.93 373.15
  L 627.56 374.53
  L 628.04 374.83
  L 629.79 375.71
  L 631.61 376.30
  L 633.50 376.62
  L 635.40 376.68
  L 637.29 376.46
  L 639.14 375.97
  L 640.91 375.22
  L 642.58 374.20
  L 642.80 374.04
  L 644.05 372.95
  L 645.02 371.75
  L 646.04 369.82
  L 646.68 367.48
  L 646.98 364.63
  L 647.03 360.52
  L 647.02 358.89
  L 647.04 200.24
  L 646.84 197.14
  L 646.22 194.45
  L 645.19 192.17
  L 643.75 190.29
  L 643.75 190.29
  L 643.75 190.29
  L 643.75 190.29
  L 641.83 188.78
  L 639.48 187.71
  L 636.69 187.06
  L 633.47 186.84
  L 540.55 186.84
  L 540.18 186.69
  L 540.03 186.33
  L 540.03 186.33
  L 540.06 171.60
  L 539.97 162.74
  L 539.72 159.45
  L 539.34 156.92
  L 538.20 152.49
  L 536.68 148.33
  L 534.79 144.42
  L 532.53 140.78
  L 532.53 140.78
  L 530.43 138.03
  L 528.08 135.46
  L 525.49 133.05
  L 522.66 130.81
  L 518.75 128.26
  L 514.71 126.21
  L 510.45 124.61
  L 506.12 123.50
  L 503.20 123.02
  L 500.26 122.76
  L 497.34 122.71
  L 494.43 122.87
  L 491.50 123.24
  L 488.60 123.81
  L 485.76 124.58
  L 482.98 125.55
  L 480.27 126.71
  L 477.65 128.05
  L 475.12 129.58
  L 472.71 131.29
  L 470.44 133.13
  L 468.30 135.14
  L 466.30 137.31
  L 464.44 139.63
  L 462.04 143.25
  L 459.99 147.17
  L 458.38 151.25
  L 457.16 155.60
  L 456.65 158.51
  L 456.31 162.04
  L 456.12 170.98
  L 456.16 186.43
  L 456.04 186.73
  L 455.75 186.85
  L 336.33 186.85
  L 336.04 186.73
  L 335.92 186.44
  L 335.91 170.50
  L 335.94 165.52
  L 335.77 161.23
  L 335.41 157.63
  L 334.87 154.73
  L 333.98 151.63
  L 332.92 148.69
  L 331.64 145.81
  L 330.20 143.11
  L 328.58 140.54
  L 326.81 138.14
  L 324.83 135.84
  L 322.71 133.73
  L 320.04 131.47
  L 317.22 129.47
  L 314.16 127.68
  L 310.98 126.18
  L 307.65 124.94
  L 304.24 123.99
  L 300.76 123.33
  L 297.24 122.97
  L 293.69 122.89
  L 290.15 123.11
  L 286.64 123.62
  L 283.16 124.43
  L 279.80 125.52
  L 276.52 126.90
  L 273.43 128.52
  L 270.46 130.42
  L 266.19 133.89
  L 262.44 137.85
  L 259.14 142.42
  L 256.42 147.41
  L 255.06 150.66
  L 254.02 153.94
  L 253.30 157.24
  L 252.90 160.56
  L 252.90 160.56
  L 252.90 160.56
  L 252.81 162.76
  L 252.73 186.27
  L 252.57 186.68
  L 252.15 186.86
  L 252.15 186.86
  L 252.15 186.86
  L 168.15 186.82
  L 164.79 186.91
  L 162.17 187.22
  L 160.03 187.79
  L 158.11 188.70
  L 156.02 190.37
  L 154.12 192.79
  L 153.57 194.24
  L 153.18 196.68
  L 152.87 204.50
  L 152.87 667.20
  L 153.12 671.91
  L 153.42 673.55
  L 153.85 674.72
  L 155.65 677.44
  L 157.73 679.35
  L 159.72 680.42
  L 162.19 681.15
  L 165.24 681.54
  L 169.26 681.65
  L 435.01 681.67
  L 439.72 681.42
  L 441.48 681.11
  L 442.85 680.67
  L 443.80 680.22
  L 445.61 679.00
  L 447.13 677.50
  L 448.40 675.68
  L 449.30 673.66
  L 449.82 671.53
  L 449.93 669.33
  L 449.63 667.25
  L 448.92 665.24
  L 448.39 664.25
  L 446.68 661.98
  L 444.62 660.24
  L 444.62 660.24
  L 444.62 660.24
  L 442.97 659.33
  L 441.15 658.67
  L 439.16 658.28
  L 436.99 658.14
  L 176.45 658.11
  L 176.08 657.96
  L 175.93 657.60
  L 175.93 657.60
  L 175.93 321.04
  L 176.10 320.62
  L 176.51 320.45
  L 573.64 320.46
  L 579.29 320.13
  L 581.33 319.71
  L 582.85 319.13
  L 584.49 318.11
  L 585.91 316.92
  L 587.14 315.50
  L 588.12 313.95
  L 589.01 311.78
  L 589.46 309.50
  L 589.46 307.17
  L 589.02 304.87
  L 588.16 302.72
  L 586.87 300.72
  L 585.25 299.00
  L 583.24 297.54
  L 581.68 296.91
  L 579.38 296.46
  L 576.34 296.19
  L 572.57 296.10
  L 176.34 296.13
  L 176.04 296.01
  L 175.92 295.72
  L 175.92 295.72
  L 175.92 211.74
  L 175.92 211.74
  L 176.14 211.21
  L 176.68 210.99"
/>
<path stroke="#868786" vector-effect="non-scaling-stroke" d="
  M 253.31 429.57
  L 252.80 429.40
  L 235.91 410.33
  L 233.95 408.46
  L 231.78 407.04
  L 229.45 406.10
  L 226.99 405.66
  L 224.19 405.82
  L 221.34 406.67
  L 218.64 408.23
  L 217.55 409.20
  L 216.63 410.29
  L 216.63 410.29
  L 216.63 410.29
  L 216.63 410.29
  L 215.46 412.48
  L 214.81 415.04
  L 214.69 417.97
  L 215.08 421.28
  L 215.95 423.66
  L 217.66 426.07
  L 231.83 442.30
  L 243.41 455.88
  L 243.55 456.04
  L 244.95 457.38
  L 246.53 458.45
  L 248.34 459.27
  L 250.25 459.80
  L 252.25 460.02
  L 254.24 459.93
  L 256.18 459.53
  L 258.02 458.83
  L 260.75 456.69
  L 266.04 451.66
  L 325.87 393.39
  L 326.96 392.19
  L 327.87 390.88
  L 328.60 389.48
  L 329.14 388.01
  L 329.61 385.03
  L 329.54 383.52
  L 329.25 382.02
  L 328.65 380.33
  L 327.74 378.70
  L 326.46 377.06
  L 325.01 375.67
  L 323.33 374.48
  L 321.53 373.57
  L 319.64 372.96
  L 317.69 372.66
  L 315.72 372.66
  L 313.77 372.97
  L 311.50 373.77
  L 308.53 376.00
  L 303.14 381.05
  L 253.58 429.46
  L 253.42 429.56
  L 253.31 429.57"
/>
<path stroke="#868786" vector-effect="non-scaling-stroke" d="
  M 389.19 429.16
  L 389.18 429.17
  L 388.74 429.33
  L 388.31 429.12
  L 370.88 409.64
  L 369.60 408.38
  L 368.26 407.35
  L 366.84 406.54
  L 365.36 405.95
  L 365.36 405.95
  L 365.36 405.95
  L 362.87 405.48
  L 360.21 405.56
  L 357.88 406.02
  L 355.85 406.76
  L 354.12 407.76
  L 352.67 409.03
  L 352.67 409.03
  L 352.67 409.03
  L 351.27 411.03
  L 350.35 413.46
  L 349.89 416.32
  L 349.90 419.62
  L 350.17 421.38
  L 350.73 423.02
  L 350.73 423.02
  L 350.73 423.02
  L 351.42 424.29
  L 352.31 425.48
  L 378.78 455.74
  L 380.45 457.26
  L 382.44 458.47
  L 384.64 459.33
  L 386.96 459.80
  L 389.24 459.86
  L 391.47 459.50
  L 393.45 458.74
  L 395.23 457.56
  L 395.66 457.17
  L 458.72 397.08
  L 462.94 392.72
  L 464.22 391.05
  L 464.95 389.73
  L 465.50 388.00
  L 465.79 386.28
  L 465.83 384.48
  L 465.61 382.74
  L 465.15 381.10
  L 464.46 379.56
  L 463.57 378.11
  L 462.46 376.80
  L 461.21 375.65
  L 459.79 374.67
  L 458.21 373.85
  L 456.49 373.23
  L 454.58 372.82
  L 452.67 372.70
  L 452.67 372.70
  L 452.67 372.70
  L 450.90 372.84
  L 449.14 373.23
  L 447.38 373.86
  L 445.62 374.74
  L 444.85 375.32
  L 389.19 429.16"
/>
<path stroke="#868786" vector-effect="non-scaling-stroke" d="
  M 754.61 511.33
  L 768.35 497.76
  L 770.95 495.10
  L 772.98 492.70
  L 774.44 490.58
  L 775.34 488.72
  L 776.08 485.94
  L 776.31 483.24
  L 776.19 481.36
  L 775.84 479.52
  L 775.25 477.63
  L 774.46 475.80
  L 773.39 473.89
  L 772.13 472.04
  L 768.90 468.34
  L 737.98 437.66
  L 737.95 437.63
  L 732.09 432.14
  L 729.77 430.29
  L 727.54 428.79
  L 725.28 427.57
  L 723.12 426.72
  L 720.96 426.18
  L 718.72 425.96
  L 716.33 426.10
  L 713.84 426.66
  L 711.72 427.62
  L 709.20 429.31
  L 706.25 431.75
  L 702.90 434.92
  L 690.43 446.95
  L 689.80 447.26
  L 689.11 447.16
  L 684.95 445.24
  L 680.62 443.48
  L 676.11 441.87
  L 671.43 440.42
  L 671.12 440.21
  L 671.00 439.86
  L 670.97 412.26
  L 670.81 409.95
  L 670.36 407.80
  L 669.61 405.72
  L 668.59 403.83
  L 667.34 402.15
  L 665.88 400.67
  L 664.21 399.40
  L 662.38 398.34
  L 660.35 397.48
  L 658.17 396.87
  L 655.89 396.51
  L 653.52 396.40
  L 598.97 396.41
  L 593.38 396.51
  L 589.52 396.95
  L 586.32 397.83
  L 583.67 399.22
  L 582.22 400.39
  L 580.87 401.84
  L 579.69 403.51
  L 578.59 405.49
  L 577.89 407.39
  L 577.41 409.82
  L 577.12 412.78
  L 577.05 416.27
  L 577.08 439.24
  L 576.74 439.72
  L 558.17 446.54
  L 557.54 446.41
  L 544.01 433.56
  L 538.71 428.87
  L 536.76 427.43
  L 535.28 426.61
  L 532.88 425.78
  L 530.53 425.28
  L 528.25 425.14
  L 526.02 425.33
  L 526.02 425.33
  L 526.02 425.33
  L 526.02 425.33
  L 523.64 425.94
  L 521.33 426.97
  L 519.09 428.40
  L 516.92 430.25
  L 480.61 465.85
  L 475.56 471.02
  L 473.24 473.96
  L 471.87 477.01
  L 471.02 479.98
  L 470.70 482.85
  L 470.91 485.64
  L 470.91 485.64
  L 470.91 485.64
  L 470.91 485.64
  L 471.51 487.98
  L 472.50 490.26
  L 473.89 492.47
  L 475.68 494.61
  L 492.83 511.68
  L 492.96 512.30
  L 486.12 530.81
  L 485.91 531.08
  L 485.59 531.18
  L 467.67 531.12
  L 462.75 531.29
  L 458.77 531.92
  L 455.50 533.04
  L 452.80 534.69
  L 451.54 535.82
  L 450.38 537.16
  L 448.49 540.29
  L 447.84 542.24
  L 447.39 544.99
  L 447.11 548.53
  L 447.03 552.85
  L 447.04 602.33
  L 447.13 607.09
  L 447.69 610.97
  L 448.73 614.20
  L 450.29 616.88
  L 451.47 618.25
  L 452.88 619.52
  L 454.45 620.61
  L 456.27 621.60
  L 458.19 622.17
  L 461.18 622.55
  L 465.26 622.75
  L 470.42 622.75
  L 485.77 622.70
  L 486.15 622.82
  L 486.39 623.14
  L 493.06 640.78
  L 492.99 641.10
  L 476.82 657.03
  L 474.83 659.22
  L 473.23 661.51
  L 472.01 663.90
  L 471.19 666.38
  L 471.19 666.38
  L 471.19 666.38
  L 470.71 669.67
  L 470.80 672.70
  L 471.39 675.56
  L 472.46 678.15
  L 474.04 680.67
  L 476.16 683.22
  L 479.56 686.69
  L 480.64 687.75
  L 516.97 723.79
  L 519.49 725.91
  L 522.02 727.48
  L 524.63 728.58
  L 527.40 729.20
  L 529.92 729.30
  L 532.56 728.98
  L 534.64 728.33
  L 536.73 727.21
  L 538.94 725.55
  L 541.62 723.10
  L 558.14 707.25
  L 558.60 707.02
  L 559.11 707.09
  L 563.45 709.00
  L 567.83 710.71
  L 572.23 712.21
  L 576.66 713.51
  L 576.96 713.72
  L 577.08 714.06
  L 577.05 739.94
  L 577.16 743.32
  L 577.55 746.10
  L 578.26 748.45
  L 579.27 750.44
  L 580.59 752.14
  L 582.32 753.71
  L 584.61 755.25
  L 586.86 756.36
  L 589.08 757.03
  L 591.28 757.27
  L 649.84 757.37
  L 657.66 757.13
  L 659.93 756.55
  L 662.07 755.66
  L 664.05 754.51
  L 665.85 753.10
  L 667.43 751.47
  L 668.77 749.62
  L 669.78 747.68
  L 670.52 745.60
  L 670.60 745.29
  L 670.94 741.70
  L 671.02 734.65
  L 670.94 714.51
  L 671.26 714.05
  L 689.85 707.00
  L 690.17 707.06
  L 704.81 721.19
  L 708.84 724.75
  L 710.49 725.92
  L 711.90 726.67
  L 714.20 727.52
  L 716.38 728.05
  L 718.55 728.27
  L 720.62 728.19
  L 723.75 727.45
  L 726.93 725.94
  L 730.25 723.59
  L 733.90 720.27
  L 768.10 686.35
  L 772.57 681.56
  L 774.29 679.19
  L 775.47 676.66
  L 776.06 674.51
  L 776.33 672.32
  L 776.28 670.03
  L 775.90 667.75
  L 775.21 665.52
  L 774.22 663.38
  L 772.95 661.36
  L 771.41 659.50
  L 763.76 651.59
  L 754.22 642.12
  L 753.92 641.53
  L 754.02 640.88
  L 756.08 636.67
  L 757.96 632.33
  L 759.67 627.86
  L 761.19 623.27
  L 761.48 622.86
  L 761.96 622.70
  L 786.25 622.70
  L 787.04 622.62
  L 789.48 621.96
  L 791.70 621.06
  L 793.70 619.91
  L 795.48 618.52
  L 795.48 618.52
  L 797.74 615.97
  L 799.50 612.86
  L 800.14 610.97
  L 800.58 608.60
  L 800.83 605.74
  L 800.89 602.40
  L 800.82 547.75
  L 800.58 544.79
  L 799.87 542.02
  L 798.68 539.41
  L 797.07 537.10
  L 794.57 534.70
  L 791.58 532.89
  L 788.26 531.75
  L 784.61 531.29
  L 773.89 531.15
  L 762.16 531.23
  L 761.84 531.02
  L 754.43 512.20
  L 754.39 511.74
  L 754.61 511.33"
/>
<path stroke="#868786" vector-effect="non-scaling-stroke" d="
  M 253.80 548.76
  L 253.79 548.77
  L 253.34 548.93
  L 252.92 548.72
  L 236.98 529.78
  L 235.42 528.21
  L 233.65 526.95
  L 231.63 525.97
  L 229.50 525.36
  L 227.37 525.13
  L 225.25 525.28
  L 223.31 525.81
  L 221.48 526.70
  L 220.27 527.59
  L 219.16 528.68
  L 217.64 530.77
  L 216.59 533.02
  L 216.59 533.02
  L 216.59 533.02
  L 216.04 535.14
  L 215.86 537.39
  L 216.04 539.76
  L 216.58 542.26
  L 216.97 543.27
  L 217.54 544.20
  L 220.70 548.31
  L 231.50 561.55
  L 238.29 569.73
  L 238.98 570.57
  L 243.07 575.22
  L 244.66 576.58
  L 246.21 577.56
  L 248.69 578.54
  L 251.77 579.13
  L 253.83 579.17
  L 253.83 579.17
  L 256.03 578.76
  L 258.20 577.87
  L 260.33 576.52
  L 262.42 574.69
  L 325.36 512.85
  L 326.87 511.03
  L 328.04 508.94
  L 328.86 506.55
  L 329.26 504.06
  L 329.21 501.66
  L 328.72 499.34
  L 327.82 497.30
  L 326.49 495.49
  L 324.48 493.83
  L 322.12 492.55
  L 319.81 491.72
  L 317.56 491.32
  L 315.36 491.36
  L 315.36 491.36
  L 315.36 491.36
  L 313.29 491.82
  L 311.26 492.68
  L 309.29 493.95
  L 307.37 495.63
  L 253.80 548.76"
/>
<path stroke="#868786" vector-effect="non-scaling-stroke" d="
  M 386.51 548.67
  L 370.44 529.60
  L 368.07 527.37
  L 366.78 526.54
  L 365.41 525.90
  L 365.41 525.90
  L 365.41 525.90
  L 365.41 525.90
  L 363.88 525.43
  L 362.27 525.18
  L 360.57 525.14
  L 358.79 525.32
  L 356.39 525.96
  L 354.36 527.05
  L 353.03 528.15
  L 351.92 529.44
  L 350.97 530.98
  L 350.25 532.68
  L 349.75 534.56
  L 349.49 536.51
  L 349.47 538.51
  L 349.69 540.50
  L 350.18 541.98
  L 351.23 543.86
  L 354.97 548.83
  L 376.18 574.07
  L 378.08 575.78
  L 380.26 577.10
  L 382.72 578.03
  L 385.31 578.50
  L 387.89 578.50
  L 390.41 578.03
  L 392.70 577.11
  L 394.79 575.73
  L 395.68 574.93
  L 452.48 518.23
  L 457.12 513.35
  L 458.50 511.64
  L 459.26 510.42
  L 460.45 507.28
  L 461.04 504.37
  L 461.05 501.67
  L 460.46 499.20
  L 460.46 499.20
  L 459.85 497.86
  L 459.03 496.60
  L 456.81 494.30
  L 455.21 493.16
  L 453.48 492.27
  L 451.67 491.64
  L 449.82 491.28
  L 447.95 491.20
  L 446.11 491.41
  L 444.43 491.90
  L 442.83 492.66
  L 440.64 494.39
  L 387.71 548.72
  L 387.12 548.96
  L 386.54 548.70
  L 386.51 548.67"
/>
<path stroke="#868786" vector-effect="non-scaling-stroke" d="
  M 310.69 163.93
  L 310.39 160.85
  L 309.49 157.89
  L 308.03 155.16
  L 306.07 152.77
  L 303.68 150.81
  L 300.95 149.35
  L 297.99 148.45
  L 294.91 148.15
  L 293.79 148.15
  L 290.71 148.45
  L 287.75 149.35
  L 285.02 150.81
  L 282.63 152.77
  L 280.67 155.16
  L 279.21 157.89
  L 278.31 160.85
  L 278.01 163.93
  L 278.01 228.05
  L 278.31 231.13
  L 279.21 234.09
  L 280.67 236.82
  L 282.63 239.21
  L 285.02 241.17
  L 287.75 242.63
  L 290.71 243.53
  L 293.79 243.83
  L 294.91 243.83
  L 297.99 243.53
  L 300.95 242.63
  L 303.68 241.17
  L 306.07 239.21
  L 308.03 236.82
  L 309.49 234.09
  L 310.39 231.13
  L 310.69 228.05
  L 310.69 163.93"
/>
<path stroke="#868786" vector-effect="non-scaling-stroke" d="
  M 514.3360 163.8883
  L 514.0403 160.8307
  L 513.1537 157.8896
  L 511.7104 155.1779
  L 509.7657 152.7999
  L 507.3946 150.8470
  L 504.6880 149.3943
  L 501.7499 148.4974
  L 498.6934 148.1910
  L 497.6534 148.1892
  L 494.5958 148.4849
  L 491.6547 149.3715
  L 488.9430 150.8148
  L 486.5651 152.7595
  L 484.6121 155.1306
  L 483.1594 157.8372
  L 482.2625 160.7753
  L 481.9561 163.8318
  L 481.8440 228.0717
  L 482.1397 231.1293
  L 483.0263 234.0704
  L 484.4696 236.7821
  L 486.4143 239.1601
  L 488.7854 241.1130
  L 491.4920 242.5657
  L 494.4301 243.4626
  L 497.4866 243.7690
  L 498.5266 243.7708
  L 501.5842 243.4751
  L 504.5253 242.5885
  L 507.2370 241.1452
  L 509.6149 239.2005
  L 511.5679 236.8294
  L 513.0206 234.1228
  L 513.9175 231.1847
  L 514.2239 228.1282
  L 514.3360 163.8883"
/>
<path stroke="#868786" vector-effect="non-scaling-stroke" d="
  M 470.57 599.23
  L 493.50 599.25
  L 495.51 599.40
  L 497.40 599.76
  L 499.17 600.33
  L 500.81 601.13
  L 500.81 601.13
  L 500.81 601.13
  L 502.99 602.67
  L 504.90 604.67
  L 505.60 605.86
  L 506.39 607.78
  L 508.18 613.80
  L 509.88 619.45
  L 512.00 624.93
  L 512.00 624.93
  L 512.00 624.93
  L 514.04 629.30
  L 516.36 633.55
  L 518.48 637.81
  L 519.07 639.64
  L 519.39 641.45
  L 519.37 644.21
  L 518.77 647.27
  L 518.15 648.72
  L 517.02 650.41
  L 515.38 652.33
  L 513.22 654.49
  L 496.79 670.52
  L 496.79 670.97
  L 528.59 702.77
  L 528.93 702.91
  L 529.27 702.78
  L 547.42 685.08
  L 549.03 683.63
  L 550.65 682.51
  L 552.35 681.67
  L 554.06 681.15
  L 556.88 680.92
  L 559.97 681.42
  L 563.44 682.68
  L 567.52 684.78
  L 572.43 687.37
  L 577.35 689.60
  L 582.28 691.46
  L 587.23 692.95
  L 591.30 694.23
  L 594.50 695.72
  L 596.96 697.48
  L 598.73 699.54
  L 599.63 701.19
  L 600.28 703.08
  L 600.64 705.13
  L 600.74 707.44
  L 600.70 733.20
  L 600.70 733.22
  L 600.82 733.49
  L 601.10 733.60
  L 646.81 733.60
  L 647.08 733.49
  L 647.19 733.22
  L 647.22 708.49
  L 647.45 705.26
  L 648.11 702.42
  L 649.19 699.96
  L 650.69 697.89
  L 650.69 697.89
  L 652.54 696.27
  L 653.91 695.48
  L 655.83 694.67
  L 661.26 692.99
  L 666.91 691.26
  L 672.56 689.09
  L 678.21 686.46
  L 683.85 683.38
  L 686.72 682.04
  L 689.67 681.33
  L 689.67 681.33
  L 689.67 681.33
  L 692.52 681.24
  L 695.43 681.72
  L 697.20 682.48
  L 699.32 683.95
  L 701.79 686.14
  L 704.61 689.03
  L 718.52 702.62
  L 718.81 702.74
  L 719.10 702.62
  L 749.62 672.10
  L 749.88 671.46
  L 749.61 670.81
  L 731.58 652.93
  L 729.43 650.26
  L 728.66 648.83
  L 728.10 647.34
  L 728.10 647.34
  L 728.10 647.34
  L 727.64 644.82
  L 727.70 642.14
  L 728.03 640.58
  L 728.68 638.78
  L 730.93 634.45
  L 733.93 629.00
  L 736.45 623.48
  L 738.50 617.86
  L 740.07 612.17
  L 741.08 608.72
  L 742.32 605.94
  L 743.87 603.66
  L 745.78 601.84
  L 747.63 600.71
  L 749.76 599.88
  L 752.11 599.39
  L 754.77 599.19
  L 776.89 599.17
  L 777.27 599.02
  L 777.46 598.66
  L 777.46 598.60
  L 777.46 554.91
  L 777.15 554.60
  L 755.48 554.58
  L 752.68 554.45
  L 750.25 554.02
  L 748.07 553.26
  L 746.23 552.19
  L 744.28 550.38
  L 742.61 547.92
  L 741.19 544.72
  L 739.91 540.57
  L 738.25 535.13
  L 736.61 530.82
  L 734.63 526.40
  L 728.59 514.97
  L 728.12 513.76
  L 727.70 510.75
  L 727.94 507.88
  L 727.94 507.88
  L 727.94 507.88
  L 728.52 505.93
  L 729.42 504.04
  L 730.65 502.23
  L 732.22 500.48
  L 749.87 483.11
  L 749.87 483.11
  L 750.01 482.78
  L 749.87 482.44
  L 719.33 451.90
  L 719.33 451.90
  L 718.93 451.73
  L 718.52 451.90
  L 706.89 463.39
  L 699.70 470.24
  L 697.20 472.07
  L 695.85 472.71
  L 694.50 473.14
  L 692.88 473.40
  L 691.26 473.41
  L 689.50 473.17
  L 687.72 472.71
  L 683.77 471.09
  L 678.40 468.10
  L 674.26 465.90
  L 669.34 463.74
  L 664.22 461.87
  L 659.49 460.50
  L 656.65 459.60
  L 654.15 458.38
  L 652.02 456.84
  L 650.26 454.98
  L 649.01 453.02
  L 648.09 450.79
  L 647.51 448.28
  L 647.27 445.49
  L 647.16 420.60
  L 647.01 420.25
  L 646.65 420.10
  L 601.15 420.10
  L 600.74 420.44
  L 600.73 420.52
  L 600.65 446.71
  L 600.30 449.70
  L 599.39 452.44
  L 599.39 452.44
  L 598.58 453.95
  L 597.57 455.37
  L 596.35 456.70
  L 594.94 457.94
  L 593.49 458.87
  L 591.53 459.75
  L 585.32 461.64
  L 581.67 462.66
  L 578.41 463.84
  L 574.23 465.69
  L 563.17 471.39
  L 560.82 472.39
  L 558.49 472.86
  L 555.68 472.79
  L 552.78 472.00
  L 550.02 470.58
  L 547.34 468.50
  L 529.42 451.26
  L 528.95 451.07
  L 528.48 451.26
  L 497.73 482.01
  L 497.50 482.59
  L 497.74 483.16
  L 514.06 499.44
  L 516.93 502.67
  L 518.28 504.76
  L 519.06 507.16
  L 519.47 509.45
  L 519.49 511.64
  L 519.13 513.73
  L 519.13 513.73
  L 519.13 513.73
  L 517.97 516.51
  L 514.66 522.66
  L 511.94 528.58
  L 509.78 534.29
  L 508.21 539.77
  L 506.91 544.52
  L 505.49 548.02
  L 503.79 550.66
  L 501.73 552.59
  L 500.08 553.53
  L 498.14 554.20
  L 495.99 554.58
  L 493.54 554.68
  L 470.85 554.62
  L 470.43 554.79
  L 470.26 555.21
  L 470.26 598.93
  L 470.26 598.93
  L 470.57 599.23"
/>
<path stroke="#868786" vector-effect="non-scaling-stroke" d="
  M 651.2518 487.0617
  L 646.8155 485.8489
  L 642.3250 484.8558
  L 637.7909 484.0847
  L 633.2242 483.5375
  L 628.6359 483.2156
  L 624.0371 483.1196
  L 619.4388 483.2499
  L 614.8521 483.6061
  L 610.2881 484.1874
  L 605.7577 484.9924
  L 601.2719 486.0191
  L 596.8415 487.2650
  L 592.4772 488.7272
  L 588.1894 490.4021
  L 583.9885 492.2857
  L 579.8847 494.3735
  L 575.8877 496.6604
  L 572.0073 499.1409
  L 568.2527 501.8091
  L 564.6331 504.6584
  L 561.1571 507.6821
  L 557.8332 510.8729
  L 554.6693 514.2231
  L 551.6730 517.7245
  L 548.8516 521.3689
  L 546.2118 525.1473
  L 543.7601 529.0507
  L 541.5023 533.0698
  L 539.4439 537.1947
  L 537.5898 541.4155
  L 535.9446 545.7222
  L 534.5120 550.1043
  L 533.2957 554.5513
  L 532.2985 559.0524
  L 531.5229 563.5968
  L 530.9707 568.1736
  L 530.6432 572.7718
  L 530.5413 577.3801
  L 530.6651 581.9877
  L 531.0144 586.5833
  L 531.5883 591.1559
  L 532.3855 595.6944
  L 533.4041 600.1880
  L 534.6415 604.6258
  L 536.0948 608.9971
  L 537.7605 613.2914
  L 539.6346 617.4984
  L 541.7125 621.6078
  L 543.9894 625.6099
  L 546.4596 629.4949
  L 549.1172 633.2536
  L 551.9559 636.8768
  L 554.9687 640.3558
  L 558.1485 643.6822
  L 561.4875 646.8481
  L 564.9778 649.8458
  L 568.6109 652.6681
  L 572.3780 655.3082
  L 576.2702 657.7596
  L 580.2779 660.0166
  L 584.3916 662.0737
  L 588.6014 663.9259
  L 592.8970 665.5687
  L 597.2682 666.9983
  L 597.2682 666.9983
  L 601.7045 668.2111
  L 606.1950 669.2042
  L 610.7291 669.9753
  L 615.2958 670.5225
  L 619.8841 670.8444
  L 624.4829 670.9404
  L 629.0812 670.8101
  L 633.6679 670.4539
  L 638.2319 669.8726
  L 642.7623 669.0676
  L 647.2481 668.0409
  L 651.6785 666.7950
  L 656.0428 665.3328
  L 660.3306 663.6579
  L 664.5315 661.7743
  L 668.6353 659.6865
  L 672.6323 657.3996
  L 676.5127 654.9191
  L 680.2673 652.2509
  L 683.8869 649.4016
  L 687.3629 646.3779
  L 690.6868 643.1871
  L 693.8507 639.8369
  L 696.8470 636.3355
  L 699.6684 632.6911
  L 702.3082 628.9127
  L 704.7599 625.0093
  L 707.0177 620.9902
  L 709.0761 616.8653
  L 710.9302 612.6445
  L 712.5754 608.3378
  L 714.0080 603.9557
  L 715.2243 599.5087
  L 716.2215 595.0076
  L 716.9971 590.4632
  L 717.5493 585.8864
  L 717.8768 581.2882
  L 717.9787 576.6799
  L 717.8549 572.0723
  L 717.5056 567.4767
  L 716.9317 562.9041
  L 716.1345 558.3656
  L 715.1159 553.8720
  L 713.8785 549.4342
  L 712.4252 545.0629
  L 710.7595 540.7686
  L 708.8854 536.5616
  L 706.8075 532.4522
  L 704.5306 528.4501
  L 702.0604 524.5651
  L 699.4028 520.8064
  L 696.5641 517.1832
  L 693.5513 513.7042
  L 690.3715 510.3778
  L 687.0325 507.2119
  L 683.5422 504.2142
  L 679.9091 501.3919
  L 676.1420 498.7518
  L 672.2498 496.3004
  L 668.2421 494.0434
  L 664.1284 491.9863
  L 659.9186 490.1341
  L 655.6230 488.4913
  L 651.2518 487.0617"
/>
<path stroke="#868786" vector-effect="non-scaling-stroke" d="
  M 693.99 577.10
  L 693.65 570.26
  L 692.65 563.49
  L 690.99 556.85
  L 688.68 550.41
  L 685.75 544.22
  L 682.24 538.35
  L 678.16 532.85
  L 673.56 527.78
  L 668.49 523.18
  L 662.99 519.10
  L 657.12 515.59
  L 650.93 512.66
  L 644.49 510.35
  L 637.85 508.69
  L 631.08 507.69
  L 624.24 507.35
  L 617.40 507.69
  L 610.63 508.69
  L 603.99 510.35
  L 597.55 512.66
  L 591.36 515.59
  L 585.49 519.10
  L 579.99 523.18
  L 574.92 527.78
  L 570.32 532.85
  L 566.24 538.35
  L 562.73 544.22
  L 559.80 550.41
  L 557.49 556.85
  L 555.83 563.49
  L 554.83 570.26
  L 554.49 577.10
  L 554.83 583.94
  L 555.83 590.71
  L 557.49 597.35
  L 559.80 603.79
  L 562.73 609.98
  L 566.24 615.85
  L 570.32 621.35
  L 574.92 626.42
  L 579.99 631.02
  L 585.49 635.10
  L 591.36 638.61
  L 597.55 641.54
  L 603.99 643.85
  L 610.63 645.51
  L 617.40 646.51
  L 624.24 646.85
  L 631.08 646.51
  L 637.85 645.51
  L 644.49 643.85
  L 650.93 641.54
  L 657.12 638.61
  L 662.99 635.10
  L 668.49 631.02
  L 673.56 626.42
  L 678.16 621.35
  L 682.24 615.85
  L 685.75 609.98
  L 688.68 603.79
  L 690.99 597.35
  L 692.65 590.71
  L 693.65 583.94
  L 693.99 577.10"
/>
<path stroke="#868786" vector-effect="non-scaling-stroke" d="
  M 669.01 577.23
  L 668.79 572.84
  L 668.15 568.50
  L 667.08 564.23
  L 665.60 560.10
  L 663.72 556.13
  L 661.46 552.36
  L 658.85 548.83
  L 655.90 545.57
  L 652.64 542.62
  L 649.11 540.01
  L 645.34 537.75
  L 641.37 535.87
  L 637.24 534.39
  L 632.97 533.32
  L 628.63 532.68
  L 624.24 532.46
  L 619.85 532.68
  L 615.51 533.32
  L 611.24 534.39
  L 607.11 535.87
  L 603.14 537.75
  L 599.37 540.01
  L 595.84 542.62
  L 592.58 545.57
  L 589.63 548.83
  L 587.02 552.36
  L 584.76 556.13
  L 582.88 560.10
  L 581.40 564.23
  L 580.33 568.50
  L 579.69 572.84
  L 579.47 577.23
  L 579.69 581.62
  L 580.33 585.96
  L 581.40 590.23
  L 582.88 594.36
  L 584.76 598.33
  L 587.02 602.10
  L 589.63 605.63
  L 592.58 608.89
  L 595.84 611.84
  L 599.37 614.45
  L 603.14 616.71
  L 607.11 618.59
  L 611.24 620.07
  L 615.51 621.14
  L 619.85 621.78
  L 624.24 622.00
  L 628.63 621.78
  L 632.97 621.14
  L 637.24 620.07
  L 641.37 618.59
  L 645.34 616.71
  L 649.11 614.45
  L 652.64 611.84
  L 655.90 608.89
  L 658.85 605.63
  L 661.46 602.10
  L 663.72 598.33
  L 665.60 594.36
  L 667.08 590.23
  L 668.15 585.96
  L 668.79 581.62
  L 669.01 577.23"
/>
<path stroke="#868786" vector-effect="non-scaling-stroke" d="
  M 602.3265 574.0689
  L 602.1213 576.1856
  L 602.1281 578.3130
  L 602.3469 580.4306
  L 602.7756 582.5179
  L 603.4100 584.5548
  L 604.2441 586.5218
  L 605.2697 588.3999
  L 606.4771 590.1709
  L 607.8546 591.8180
  L 609.3890 593.3251
  L 611.0654 594.6778
  L 612.8677 595.8630
  L 614.7786 596.8694
  L 616.7796 597.6872
  L 618.8515 598.3086
  L 620.9744 598.7275
  L 623.1277 598.9400
  L 625.2908 598.9440
  L 627.4428 598.7395
  L 629.5630 598.3284
  L 631.6310 597.7146
  L 633.6268 596.9042
  L 635.5313 595.9049
  L 637.3260 594.7263
  L 638.9938 593.3798
  L 640.5185 591.8783
  L 641.8855 590.2364
  L 643.0816 588.4697
  L 644.0952 586.5954
  L 644.9167 584.6315
  L 645.5381 582.5969
  L 645.9535 580.5111
  L 645.9535 580.5111
  L 646.1587 578.3944
  L 646.1519 576.2670
  L 645.9331 574.1494
  L 645.5044 572.0621
  L 644.8700 570.0252
  L 644.0359 568.0582
  L 643.0103 566.1801
  L 641.8029 564.4091
  L 640.4254 562.7620
  L 638.8910 561.2549
  L 637.2146 559.9022
  L 635.4123 558.7170
  L 633.5014 557.7106
  L 631.5004 556.8928
  L 629.4285 556.2714
  L 627.3056 555.8525
  L 625.1523 555.6400
  L 622.9892 555.6360
  L 620.8372 555.8405
  L 618.7170 556.2516
  L 616.6490 556.8654
  L 614.6532 557.6758
  L 612.7487 558.6751
  L 610.9540 559.8537
  L 609.2862 561.2002
  L 607.7615 562.7017
  L 606.3945 564.3436
  L 605.1984 566.1103
  L 604.1848 567.9846
  L 603.3633 569.9485
  L 602.7419 571.9831
  L 602.3265 574.0689"
/>
</g>
<g fill="#ffffff">
<path d="
  M 0.00 476.10
  L 0.00 443.85
  L 0.86 431.91
  L 1.02 427.71
  L 1.23 422.28
  L 1.72 418.80
  L 2.01 417.01
  L 2.15 414.63
  L 2.37 411.41
  L 3.73 400.71
  L 5.81 386.51
  L 8.28 372.46
  L 11.16 358.56
  L 14.43 344.82
  L 18.09 331.23
  L 22.16 317.80
  L 26.62 304.52
  L 31.48 291.40
  L 31.48 291.40
  L 31.48 291.40
  L 31.48 291.40
  L 31.48 291.40
  L 36.11 279.90
  L 41.06 268.53
  L 46.31 257.27
  L 51.88 246.14
  L 56.13 238.20
  L 61.06 229.52
  L 72.95 209.94
  L 73.31 209.49
  L 74.29 208.32
  L 75.31 206.68
  L 76.02 205.50
  L 81.19 197.73
  L 86.60 190.01
  L 92.24 182.34
  L 98.12 174.73
  L 104.24 167.16
  L 110.60 159.65
  L 117.20 152.18
  L 124.03 144.77
  L 133.23 135.26
  L 142.64 126.07
  L 152.25 117.19
  L 162.08 108.62
  L 172.11 100.37
  L 182.35 92.43
  L 192.80 84.80
  L 203.46 77.49
  L 203.46 77.49
  L 203.46 77.49
  L 219.28 67.45
  L 235.54 58.07
  L 246.45 52.26
  L 257.49 46.76
  L 268.65 41.56
  L 279.94 36.67
  L 279.94 36.67
  L 279.94 36.67
  L 279.94 36.67
  L 292.47 31.65
  L 305.16 27.00
  L 318.01 22.71
  L 331.00 18.79
  L 344.15 15.23
  L 357.45 12.04
  L 370.90 9.22
  L 384.51 6.76
  L 398.50 4.58
  L 403.52 4.09
  L 406.87 3.64
  L 410.17 3.17
  L 416.25 2.55
  L 421.10 2.10
  L 426.50 2.08
  L 427.21 1.79
  L 428.87 1.38
  L 446.70 0.96
  L 446.97 0.91
  L 447.21 0.79
  L 447.73 0.65
  L 462.76 0.31
  L 475.64 0.62
  L 483.45 1.01
  L 487.33 1.09
  L 493.19 1.36
  L 499.24 1.95
  L 505.09 2.31
  L 507.22 2.50
  L 508.90 2.85
  L 510.13 3.07
  L 511.88 3.11
  L 514.01 3.18
  L 526.55 4.75
  L 538.89 6.58
  L 551.03 8.68
  L 562.95 11.04
  L 574.68 13.66
  L 586.20 16.55
  L 597.52 19.71
  L 608.63 23.13
  L 622.07 27.68
  L 635.29 32.60
  L 648.28 37.88
  L 661.05 43.52
  L 673.60 49.53
  L 685.92 55.89
  L 698.02 62.62
  L 709.89 69.72
  L 709.89 69.72
  L 709.89 69.72
  L 719.26 75.68
  L 728.50 81.87
  L 737.58 88.30
  L 746.52 94.96
  L 755.32 101.86
  L 763.97 108.99
  L 772.48 116.36
  L 780.84 123.96
  L 789.29 132.03
  L 797.50 140.27
  L 805.47 148.68
  L 813.20 157.26
  L 820.69 166.01
  L 827.93 174.94
  L 834.93 184.04
  L 841.69 193.31
  L 841.69 193.31
  L 841.69 193.31
  L 848.76 203.56
  L 855.54 214.02
  L 862.04 224.69
  L 868.25 235.55
  L 874.17 246.62
  L 879.81 257.89
  L 885.17 269.36
  L 890.24 281.03
  L 894.70 292.07
  L 898.87 303.16
  L 902.74 314.32
  L 906.31 325.53
  L 909.60 336.80
  L 912.58 348.13
  L 915.27 359.51
  L 917.67 370.95
  L 917.67 370.95
  L 920.38 386.12
  L 921.93 396.92
  L 922.37 400.33
  L 922.82 403.13
  L 922.93 405.26
  L 923.11 406.79
  L 923.75 410.37
  L 923.92 414.14
  L 924.05 415.54
  L 924.55 419.09
  L 924.89 424.14
  L 925.26 429.49
  L 925.80 435.50
  L 925.98 456.65
  L 925.86 481.51
  L 925.59 487.00
  L 925.03 491.81
  L 924.89 494.80
  L 924.83 497.40
  L 923.72 509.47
  L 922.29 521.48
  L 920.54 533.42
  L 918.47 545.31
  L 918.47 545.31
  L 914.65 563.60
  L 910.06 581.75
  L 904.70 599.76
  L 898.59 617.62
  L 891.63 635.58
  L 887.99 644.18
  L 884.24 652.52
  L 878.81 663.80
  L 872.60 675.82
  L 868.63 683.10
  L 859.46 698.81
  L 849.63 714.15
  L 839.14 729.13
  L 828.00 743.74
  L 816.50 757.72
  L 805.32 770.33
  L 794.08 782.06
  L 782.21 793.56
  L 769.73 804.84
  L 756.63 815.89
  L 748.40 822.46
  L 740.06 828.81
  L 731.63 834.95
  L 723.09 840.88
  L 714.45 846.59
  L 705.71 852.08
  L 696.86 857.36
  L 687.92 862.43
  L 670.81 871.43
  L 653.46 879.71
  L 635.89 887.25
  L 618.08 894.06
  L 607.82 897.62
  L 597.52 900.93
  L 587.18 903.98
  L 576.80 906.79
  L 566.38 909.35
  L 555.92 911.66
  L 545.42 913.71
  L 534.88 915.52
  L 534.88 915.52
  L 522.23 917.35
  L 509.53 918.83
  L 506.87 918.92
  L 505.57 919.03
  L 502.22 919.58
  L 497.68 919.85
  L 489.83 920.28
  L 484.27 920.68
  L 476.32 920.80
  L 468.25 921.02
  L 461.87 921.34
  L 456.25 921.05
  L 443.94 920.89
  L 434.86 920.35
  L 426.22 919.85
  L 423.41 919.72
  L 420.34 919.33
  L 415.68 918.91
  L 410.59 918.42
  L 406.75 917.94
  L 391.45 915.91
  L 376.17 913.29
  L 360.91 910.09
  L 345.67 906.31
  L 332.64 902.64
  L 319.79 898.63
  L 307.12 894.28
  L 294.63 889.60
  L 282.31 884.58
  L 270.18 879.22
  L 258.22 873.53
  L 246.44 867.50
  L 246.44 867.50
  L 246.44 867.50
  L 246.44 867.50
  L 237.64 862.72
  L 228.94 857.74
  L 220.35 852.57
  L 211.86 847.20
  L 203.47 841.65
  L 195.18 835.90
  L 186.99 829.95
  L 178.91 823.82
  L 170.62 817.21
  L 162.21 810.16
  L 153.68 802.67
  L 145.03 794.73
  L 136.65 786.78
  L 130.92 781.09
  L 122.87 772.60
  L 115.10 764.06
  L 107.61 755.46
  L 100.41 746.81
  L 93.49 738.09
  L 86.85 729.32
  L 80.49 720.49
  L 74.42 711.61
  L 70.24 705.21
  L 70.24 705.21
  L 70.24 705.21
  L 61.08 690.26
  L 52.50 674.93
  L 44.51 659.22
  L 37.11 643.14
  L 33.17 633.83
  L 29.45 624.46
  L 25.97 615.05
  L 22.70 605.58
  L 19.67 596.06
  L 16.86 586.49
  L 14.27 576.86
  L 11.91 567.18
  L 11.91 567.18
  L 11.91 567.18
  L 11.91 567.18
  L 11.91 567.18
  L 8.74 552.27
  L 6.10 537.24
  L 3.36 518.27
  L 3.20 515.46
  L 3.08 513.27
  L 2.75 511.77
  L 2.32 509.20
  L 1.39 495.99
  L 0.00 476.10
  Z
  M 176.68 210.99
  L 252.06 210.99
  L 252.52 211.18
  L 252.72 211.63
  L 252.70 218.81
  L 252.72 228.51
  L 253.26 234.97
  L 254.31 239.88
  L 255.87 244.50
  L 257.99 248.93
  L 260.58 252.99
  L 262.92 255.93
  L 265.51 258.63
  L 268.33 261.06
  L 271.34 263.22
  L 274.58 265.12
  L 277.98 266.72
  L 281.53 268.00
  L 285.19 268.96
  L 290.67 269.74
  L 296.28 269.77
  L 301.90 269.03
  L 307.33 267.56
  L 310.56 266.32
  L 313.62 264.85
  L 316.51 263.17
  L 319.24 261.27
  L 319.24 261.27
  L 323.09 257.93
  L 326.55 254.06
  L 329.62 249.69
  L 332.29 244.79
  L 333.49 241.84
  L 334.55 238.29
  L 335.30 234.70
  L 335.66 231.45
  L 335.89 222.49
  L 335.84 211.49
  L 335.98 211.14
  L 336.33 210.99
  L 336.33 210.99
  L 455.64 210.99
  L 455.64 210.99
  L 456.02 211.15
  L 456.17 211.53
  L 456.14 228.26
  L 456.27 231.55
  L 456.62 234.72
  L 457.19 237.87
  L 457.97 240.88
  L 458.96 243.81
  L 460.15 246.59
  L 461.57 249.31
  L 463.17 251.88
  L 465.35 254.78
  L 467.75 257.45
  L 470.44 259.93
  L 473.34 262.15
  L 476.46 264.13
  L 479.73 265.82
  L 483.15 267.22
  L 486.67 268.33
  L 490.28 269.13
  L 493.95 269.62
  L 497.66 269.80
  L 501.38 269.65
  L 505.04 269.19
  L 508.67 268.40
  L 512.15 267.32
  L 515.56 265.91
  L 520.41 263.25
  L 524.84 260.00
  L 528.93 256.08
  L 532.53 251.63
  L 534.59 248.43
  L 536.33 245.04
  L 537.43 242.27
  L 538.31 239.48
  L 538.99 236.54
  L 539.51 233.36
  L 540.05 226.30
  L 540.09 216.14
  L 540.06 211.39
  L 540.18 211.11
  L 540.47 210.99
  L 622.67 210.99
  L 622.99 211.12
  L 623.12 211.44
  L 623.08 363.05
  L 623.23 366.36
  L 623.75 369.12
  L 624.65 371.37
  L 625.93 373.15
  L 627.56 374.53
  L 628.04 374.83
  L 629.79 375.71
  L 631.61 376.30
  L 633.50 376.62
  L 635.40 376.68
  L 637.29 376.46
  L 639.14 375.97
  L 640.91 375.22
  L 642.58 374.20
  L 642.80 374.04
  L 644.05 372.95
  L 645.02 371.75
  L 646.04 369.82
  L 646.68 367.48
  L 646.98 364.63
  L 647.03 360.52
  L 647.02 358.89
  L 647.04 200.24
  L 646.84 197.14
  L 646.22 194.45
  L 645.19 192.17
  L 643.75 190.29
  L 643.75 190.29
  L 643.75 190.29
  L 643.75 190.29
  L 641.83 188.78
  L 639.48 187.71
  L 636.69 187.06
  L 633.47 186.84
  L 540.55 186.84
  L 540.18 186.69
  L 540.03 186.33
  L 540.03 186.33
  L 540.06 171.60
  L 539.97 162.74
  L 539.72 159.45
  L 539.34 156.92
  L 538.20 152.49
  L 536.68 148.33
  L 534.79 144.42
  L 532.53 140.78
  L 532.53 140.78
  L 530.43 138.03
  L 528.08 135.46
  L 525.49 133.05
  L 522.66 130.81
  L 518.75 128.26
  L 514.71 126.21
  L 510.45 124.61
  L 506.12 123.50
  L 503.20 123.02
  L 500.26 122.76
  L 497.34 122.71
  L 494.43 122.87
  L 491.50 123.24
  L 488.60 123.81
  L 485.76 124.58
  L 482.98 125.55
  L 480.27 126.71
  L 477.65 128.05
  L 475.12 129.58
  L 472.71 131.29
  L 470.44 133.13
  L 468.30 135.14
  L 466.30 137.31
  L 464.44 139.63
  L 462.04 143.25
  L 459.99 147.17
  L 458.38 151.25
  L 457.16 155.60
  L 456.65 158.51
  L 456.31 162.04
  L 456.12 170.98
  L 456.16 186.43
  L 456.04 186.73
  L 455.75 186.85
  L 336.33 186.85
  L 336.04 186.73
  L 335.92 186.44
  L 335.91 170.50
  L 335.94 165.52
  L 335.77 161.23
  L 335.41 157.63
  L 334.87 154.73
  L 333.98 151.63
  L 332.92 148.69
  L 331.64 145.81
  L 330.20 143.11
  L 328.58 140.54
  L 326.81 138.14
  L 324.83 135.84
  L 322.71 133.73
  L 320.04 131.47
  L 317.22 129.47
  L 314.16 127.68
  L 310.98 126.18
  L 307.65 124.94
  L 304.24 123.99
  L 300.76 123.33
  L 297.24 122.97
  L 293.69 122.89
  L 290.15 123.11
  L 286.64 123.62
  L 283.16 124.43
  L 279.80 125.52
  L 276.52 126.90
  L 273.43 128.52
  L 270.46 130.42
  L 266.19 133.89
  L 262.44 137.85
  L 259.14 142.42
  L 256.42 147.41
  L 255.06 150.66
  L 254.02 153.94
  L 253.30 157.24
  L 252.90 160.56
  L 252.90 160.56
  L 252.90 160.56
  L 252.81 162.76
  L 252.73 186.27
  L 252.57 186.68
  L 252.15 186.86
  L 252.15 186.86
  L 252.15 186.86
  L 168.15 186.82
  L 164.79 186.91
  L 162.17 187.22
  L 160.03 187.79
  L 158.11 188.70
  L 156.02 190.37
  L 154.12 192.79
  L 153.57 194.24
  L 153.18 196.68
  L 152.87 204.50
  L 152.87 667.20
  L 153.12 671.91
  L 153.42 673.55
  L 153.85 674.72
  L 155.65 677.44
  L 157.73 679.35
  L 159.72 680.42
  L 162.19 681.15
  L 165.24 681.54
  L 169.26 681.65
  L 435.01 681.67
  L 439.72 681.42
  L 441.48 681.11
  L 442.85 680.67
  L 443.80 680.22
  L 445.61 679.00
  L 447.13 677.50
  L 448.40 675.68
  L 449.30 673.66
  L 449.82 671.53
  L 449.93 669.33
  L 449.63 667.25
  L 448.92 665.24
  L 448.39 664.25
  L 446.68 661.98
  L 444.62 660.24
  L 444.62 660.24
  L 444.62 660.24
  L 442.97 659.33
  L 441.15 658.67
  L 439.16 658.28
  L 436.99 658.14
  L 176.45 658.11
  L 176.08 657.96
  L 175.93 657.60
  L 175.93 657.60
  L 175.93 321.04
  L 176.10 320.62
  L 176.51 320.45
  L 573.64 320.46
  L 579.29 320.13
  L 581.33 319.71
  L 582.85 319.13
  L 584.49 318.11
  L 585.91 316.92
  L 587.14 315.50
  L 588.12 313.95
  L 589.01 311.78
  L 589.46 309.50
  L 589.46 307.17
  L 589.02 304.87
  L 588.16 302.72
  L 586.87 300.72
  L 585.25 299.00
  L 583.24 297.54
  L 581.68 296.91
  L 579.38 296.46
  L 576.34 296.19
  L 572.57 296.10
  L 176.34 296.13
  L 176.04 296.01
  L 175.92 295.72
  L 175.92 295.72
  L 175.92 211.74
  L 175.92 211.74
  L 176.14 211.21
  L 176.68 210.99
  Z
  M 253.31 429.57
  L 252.80 429.40
  L 235.91 410.33
  L 233.95 408.46
  L 231.78 407.04
  L 229.45 406.10
  L 226.99 405.66
  L 224.19 405.82
  L 221.34 406.67
  L 218.64 408.23
  L 217.55 409.20
  L 216.63 410.29
  L 216.63 410.29
  L 216.63 410.29
  L 216.63 410.29
  L 215.46 412.48
  L 214.81 415.04
  L 214.69 417.97
  L 215.08 421.28
  L 215.95 423.66
  L 217.66 426.07
  L 231.83 442.30
  L 243.41 455.88
  L 243.55 456.04
  L 244.95 457.38
  L 246.53 458.45
  L 248.34 459.27
  L 250.25 459.80
  L 252.25 460.02
  L 254.24 459.93
  L 256.18 459.53
  L 258.02 458.83
  L 260.75 456.69
  L 266.04 451.66
  L 325.87 393.39
  L 326.96 392.19
  L 327.87 390.88
  L 328.60 389.48
  L 329.14 388.01
  L 329.61 385.03
  L 329.54 383.52
  L 329.25 382.02
  L 328.65 380.33
  L 327.74 378.70
  L 326.46 377.06
  L 325.01 375.67
  L 323.33 374.48
  L 321.53 373.57
  L 319.64 372.96
  L 317.69 372.66
  L 315.72 372.66
  L 313.77 372.97
  L 311.50 373.77
  L 308.53 376.00
  L 303.14 381.05
  L 253.58 429.46
  L 253.42 429.56
  L 253.31 429.57
  Z
  M 389.19 429.16
  L 389.18 429.17
  L 388.74 429.33
  L 388.31 429.12
  L 370.88 409.64
  L 369.60 408.38
  L 368.26 407.35
  L 366.84 406.54
  L 365.36 405.95
  L 365.36 405.95
  L 365.36 405.95
  L 362.87 405.48
  L 360.21 405.56
  L 357.88 406.02
  L 355.85 406.76
  L 354.12 407.76
  L 352.67 409.03
  L 352.67 409.03
  L 352.67 409.03
  L 351.27 411.03
  L 350.35 413.46
  L 349.89 416.32
  L 349.90 419.62
  L 350.17 421.38
  L 350.73 423.02
  L 350.73 423.02
  L 350.73 423.02
  L 351.42 424.29
  L 352.31 425.48
  L 378.78 455.74
  L 380.45 457.26
  L 382.44 458.47
  L 384.64 459.33
  L 386.96 459.80
  L 389.24 459.86
  L 391.47 459.50
  L 393.45 458.74
  L 395.23 457.56
  L 395.66 457.17
  L 458.72 397.08
  L 462.94 392.72
  L 464.22 391.05
  L 464.95 389.73
  L 465.50 388.00
  L 465.79 386.28
  L 465.83 384.48
  L 465.61 382.74
  L 465.15 381.10
  L 464.46 379.56
  L 463.57 378.11
  L 462.46 376.80
  L 461.21 375.65
  L 459.79 374.67
  L 458.21 373.85
  L 456.49 373.23
  L 454.58 372.82
  L 452.67 372.70
  L 452.67 372.70
  L 452.67 372.70
  L 450.90 372.84
  L 449.14 373.23
  L 447.38 373.86
  L 445.62 374.74
  L 444.85 375.32
  L 389.19 429.16
  Z
  M 754.61 511.33
  L 768.35 497.76
  L 770.95 495.10
  L 772.98 492.70
  L 774.44 490.58
  L 775.34 488.72
  L 776.08 485.94
  L 776.31 483.24
  L 776.19 481.36
  L 775.84 479.52
  L 775.25 477.63
  L 774.46 475.80
  L 773.39 473.89
  L 772.13 472.04
  L 768.90 468.34
  L 737.98 437.66
  L 737.95 437.63
  L 732.09 432.14
  L 729.77 430.29
  L 727.54 428.79
  L 725.28 427.57
  L 723.12 426.72
  L 720.96 426.18
  L 718.72 425.96
  L 716.33 426.10
  L 713.84 426.66
  L 711.72 427.62
  L 709.20 429.31
  L 706.25 431.75
  L 702.90 434.92
  L 690.43 446.95
  L 689.80 447.26
  L 689.11 447.16
  L 684.95 445.24
  L 680.62 443.48
  L 676.11 441.87
  L 671.43 440.42
  L 671.12 440.21
  L 671.00 439.86
  L 670.97 412.26
  L 670.81 409.95
  L 670.36 407.80
  L 669.61 405.72
  L 668.59 403.83
  L 667.34 402.15
  L 665.88 400.67
  L 664.21 399.40
  L 662.38 398.34
  L 660.35 397.48
  L 658.17 396.87
  L 655.89 396.51
  L 653.52 396.40
  L 598.97 396.41
  L 593.38 396.51
  L 589.52 396.95
  L 586.32 397.83
  L 583.67 399.22
  L 582.22 400.39
  L 580.87 401.84
  L 579.69 403.51
  L 578.59 405.49
  L 577.89 407.39
  L 577.41 409.82
  L 577.12 412.78
  L 577.05 416.27
  L 577.08 439.24
  L 576.74 439.72
  L 558.17 446.54
  L 557.54 446.41
  L 544.01 433.56
  L 538.71 428.87
  L 536.76 427.43
  L 535.28 426.61
  L 532.88 425.78
  L 530.53 425.28
  L 528.25 425.14
  L 526.02 425.33
  L 526.02 425.33
  L 526.02 425.33
  L 526.02 425.33
  L 523.64 425.94
  L 521.33 426.97
  L 519.09 428.40
  L 516.92 430.25
  L 480.61 465.85
  L 475.56 471.02
  L 473.24 473.96
  L 471.87 477.01
  L 471.02 479.98
  L 470.70 482.85
  L 470.91 485.64
  L 470.91 485.64
  L 470.91 485.64
  L 470.91 485.64
  L 471.51 487.98
  L 472.50 490.26
  L 473.89 492.47
  L 475.68 494.61
  L 492.83 511.68
  L 492.96 512.30
  L 486.12 530.81
  L 485.91 531.08
  L 485.59 531.18
  L 467.67 531.12
  L 462.75 531.29
  L 458.77 531.92
  L 455.50 533.04
  L 452.80 534.69
  L 451.54 535.82
  L 450.38 537.16
  L 448.49 540.29
  L 447.84 542.24
  L 447.39 544.99
  L 447.11 548.53
  L 447.03 552.85
  L 447.04 602.33
  L 447.13 607.09
  L 447.69 610.97
  L 448.73 614.20
  L 450.29 616.88
  L 451.47 618.25
  L 452.88 619.52
  L 454.45 620.61
  L 456.27 621.60
  L 458.19 622.17
  L 461.18 622.55
  L 465.26 622.75
  L 470.42 622.75
  L 485.77 622.70
  L 486.15 622.82
  L 486.39 623.14
  L 493.06 640.78
  L 492.99 641.10
  L 476.82 657.03
  L 474.83 659.22
  L 473.23 661.51
  L 472.01 663.90
  L 471.19 666.38
  L 471.19 666.38
  L 471.19 666.38
  L 470.71 669.67
  L 470.80 672.70
  L 471.39 675.56
  L 472.46 678.15
  L 474.04 680.67
  L 476.16 683.22
  L 479.56 686.69
  L 480.64 687.75
  L 516.97 723.79
  L 519.49 725.91
  L 522.02 727.48
  L 524.63 728.58
  L 527.40 729.20
  L 529.92 729.30
  L 532.56 728.98
  L 534.64 728.33
  L 536.73 727.21
  L 538.94 725.55
  L 541.62 723.10
  L 558.14 707.25
  L 558.60 707.02
  L 559.11 707.09
  L 563.45 709.00
  L 567.83 710.71
  L 572.23 712.21
  L 576.66 713.51
  L 576.96 713.72
  L 577.08 714.06
  L 577.05 739.94
  L 577.16 743.32
  L 577.55 746.10
  L 578.26 748.45
  L 579.27 750.44
  L 580.59 752.14
  L 582.32 753.71
  L 584.61 755.25
  L 586.86 756.36
  L 589.08 757.03
  L 591.28 757.27
  L 649.84 757.37
  L 657.66 757.13
  L 659.93 756.55
  L 662.07 755.66
  L 664.05 754.51
  L 665.85 753.10
  L 667.43 751.47
  L 668.77 749.62
  L 669.78 747.68
  L 670.52 745.60
  L 670.60 745.29
  L 670.94 741.70
  L 671.02 734.65
  L 670.94 714.51
  L 671.26 714.05
  L 689.85 707.00
  L 690.17 707.06
  L 704.81 721.19
  L 708.84 724.75
  L 710.49 725.92
  L 711.90 726.67
  L 714.20 727.52
  L 716.38 728.05
  L 718.55 728.27
  L 720.62 728.19
  L 723.75 727.45
  L 726.93 725.94
  L 730.25 723.59
  L 733.90 720.27
  L 768.10 686.35
  L 772.57 681.56
  L 774.29 679.19
  L 775.47 676.66
  L 776.06 674.51
  L 776.33 672.32
  L 776.28 670.03
  L 775.90 667.75
  L 775.21 665.52
  L 774.22 663.38
  L 772.95 661.36
  L 771.41 659.50
  L 763.76 651.59
  L 754.22 642.12
  L 753.92 641.53
  L 754.02 640.88
  L 756.08 636.67
  L 757.96 632.33
  L 759.67 627.86
  L 761.19 623.27
  L 761.48 622.86
  L 761.96 622.70
  L 786.25 622.70
  L 787.04 622.62
  L 789.48 621.96
  L 791.70 621.06
  L 793.70 619.91
  L 795.48 618.52
  L 795.48 618.52
  L 797.74 615.97
  L 799.50 612.86
  L 800.14 610.97
  L 800.58 608.60
  L 800.83 605.74
  L 800.89 602.40
  L 800.82 547.75
  L 800.58 544.79
  L 799.87 542.02
  L 798.68 539.41
  L 797.07 537.10
  L 794.57 534.70
  L 791.58 532.89
  L 788.26 531.75
  L 784.61 531.29
  L 773.89 531.15
  L 762.16 531.23
  L 761.84 531.02
  L 754.43 512.20
  L 754.39 511.74
  L 754.61 511.33
  Z
  M 253.80 548.76
  L 253.79 548.77
  L 253.34 548.93
  L 252.92 548.72
  L 236.98 529.78
  L 235.42 528.21
  L 233.65 526.95
  L 231.63 525.97
  L 229.50 525.36
  L 227.37 525.13
  L 225.25 525.28
  L 223.31 525.81
  L 221.48 526.70
  L 220.27 527.59
  L 219.16 528.68
  L 217.64 530.77
  L 216.59 533.02
  L 216.59 533.02
  L 216.59 533.02
  L 216.04 535.14
  L 215.86 537.39
  L 216.04 539.76
  L 216.58 542.26
  L 216.97 543.27
  L 217.54 544.20
  L 220.70 548.31
  L 231.50 561.55
  L 238.29 569.73
  L 238.98 570.57
  L 243.07 575.22
  L 244.66 576.58
  L 246.21 577.56
  L 248.69 578.54
  L 251.77 579.13
  L 253.83 579.17
  L 253.83 579.17
  L 256.03 578.76
  L 258.20 577.87
  L 260.33 576.52
  L 262.42 574.69
  L 325.36 512.85
  L 326.87 511.03
  L 328.04 508.94
  L 328.86 506.55
  L 329.26 504.06
  L 329.21 501.66
  L 328.72 499.34
  L 327.82 497.30
  L 326.49 495.49
  L 324.48 493.83
  L 322.12 492.55
  L 319.81 491.72
  L 317.56 491.32
  L 315.36 491.36
  L 315.36 491.36
  L 315.36 491.36
  L 313.29 491.82
  L 311.26 492.68
  L 309.29 493.95
  L 307.37 495.63
  L 253.80 548.76
  Z
  M 386.51 548.67
  L 370.44 529.60
  L 368.07 527.37
  L 366.78 526.54
  L 365.41 525.90
  L 365.41 525.90
  L 365.41 525.90
  L 365.41 525.90
  L 363.88 525.43
  L 362.27 525.18
  L 360.57 525.14
  L 358.79 525.32
  L 356.39 525.96
  L 354.36 527.05
  L 353.03 528.15
  L 351.92 529.44
  L 350.97 530.98
  L 350.25 532.68
  L 349.75 534.56
  L 349.49 536.51
  L 349.47 538.51
  L 349.69 540.50
  L 350.18 541.98
  L 351.23 543.86
  L 354.97 548.83
  L 376.18 574.07
  L 378.08 575.78
  L 380.26 577.10
  L 382.72 578.03
  L 385.31 578.50
  L 387.89 578.50
  L 390.41 578.03
  L 392.70 577.11
  L 394.79 575.73
  L 395.68 574.93
  L 452.48 518.23
  L 457.12 513.35
  L 458.50 511.64
  L 459.26 510.42
  L 460.45 507.28
  L 461.04 504.37
  L 461.05 501.67
  L 460.46 499.20
  L 460.46 499.20
  L 459.85 497.86
  L 459.03 496.60
  L 456.81 494.30
  L 455.21 493.16
  L 453.48 492.27
  L 451.67 491.64
  L 449.82 491.28
  L 447.95 491.20
  L 446.11 491.41
  L 444.43 491.90
  L 442.83 492.66
  L 440.64 494.39
  L 387.71 548.72
  L 387.12 548.96
  L 386.54 548.70
  L 386.51 548.67
  Z"
/>
<rect x="278.01" y="148.15" width="32.68" height="95.68" rx="15.78"/>
<rect x="-16.19" y="-47.79" transform="translate(498.09,195.98) rotate(0.1)" width="32.38" height="95.58" rx="15.67"/>
<path d="
  M 470.57 599.23
  L 470.26 598.93
  L 470.26 598.93
  L 470.26 555.21
  L 470.36 554.88
  L 470.85 554.62
  L 493.54 554.68
  L 495.99 554.58
  L 498.14 554.20
  L 500.08 553.53
  L 501.73 552.59
  L 503.79 550.66
  L 505.49 548.02
  L 506.91 544.52
  L 508.21 539.77
  L 509.78 534.29
  L 511.94 528.58
  L 514.66 522.66
  L 517.97 516.51
  L 519.13 513.73
  L 519.49 511.64
  L 519.47 509.45
  L 519.06 507.16
  L 518.28 504.76
  L 516.93 502.67
  L 514.06 499.44
  L 497.74 483.16
  L 497.50 482.59
  L 497.73 482.01
  L 528.48 451.26
  L 528.87 451.07
  L 529.42 451.26
  L 547.34 468.50
  L 550.02 470.58
  L 552.78 472.00
  L 555.68 472.79
  L 558.49 472.86
  L 560.82 472.39
  L 563.17 471.39
  L 574.23 465.69
  L 578.41 463.84
  L 581.67 462.66
  L 585.32 461.64
  L 591.53 459.75
  L 593.49 458.87
  L 594.94 457.94
  L 596.35 456.70
  L 597.57 455.37
  L 598.58 453.95
  L 599.39 452.44
  L 600.30 449.70
  L 600.65 446.71
  L 600.73 420.52
  L 600.81 420.27
  L 601.15 420.10
  L 646.65 420.10
  L 647.01 420.25
  L 647.16 420.60
  L 647.27 445.49
  L 647.51 448.28
  L 648.09 450.79
  L 649.01 453.02
  L 650.26 454.98
  L 652.02 456.84
  L 654.15 458.38
  L 656.65 459.60
  L 659.49 460.50
  L 664.22 461.87
  L 669.34 463.74
  L 674.26 465.90
  L 678.40 468.10
  L 683.77 471.09
  L 687.72 472.71
  L 689.50 473.17
  L 691.26 473.41
  L 692.88 473.40
  L 694.50 473.14
  L 695.85 472.71
  L 697.20 472.07
  L 699.70 470.24
  L 706.89 463.39
  L 718.52 451.90
  L 718.93 451.73
  L 719.33 451.90
  L 719.33 451.90
  L 749.87 482.44
  L 750.01 482.78
  L 749.87 483.11
  L 749.87 483.11
  L 732.22 500.48
  L 730.65 502.23
  L 729.42 504.04
  L 728.52 505.93
  L 727.94 507.88
  L 727.94 507.88
  L 727.70 510.75
  L 728.12 513.76
  L 728.59 514.97
  L 734.63 526.40
  L 736.61 530.82
  L 738.25 535.13
  L 739.91 540.57
  L 741.19 544.72
  L 742.61 547.92
  L 744.28 550.38
  L 746.23 552.19
  L 748.07 553.26
  L 750.25 554.02
  L 752.68 554.45
  L 755.48 554.58
  L 777.15 554.60
  L 777.37 554.69
  L 777.46 554.91
  L 777.46 598.60
  L 777.38 598.88
  L 776.89 599.17
  L 754.77 599.19
  L 752.11 599.39
  L 749.76 599.88
  L 747.63 600.71
  L 745.78 601.84
  L 743.87 603.66
  L 742.32 605.94
  L 741.08 608.72
  L 740.07 612.17
  L 738.50 617.86
  L 736.45 623.48
  L 733.93 629.00
  L 730.93 634.45
  L 728.68 638.78
  L 728.03 640.58
  L 727.70 642.14
  L 727.64 644.82
  L 728.10 647.34
  L 728.10 647.34
  L 728.10 647.34
  L 728.10 647.34
  L 728.66 648.83
  L 729.43 650.26
  L 731.58 652.93
  L 749.61 670.81
  L 749.88 671.46
  L 749.62 672.10
  L 749.62 672.10
  L 749.62 672.10
  L 719.10 702.62
  L 718.81 702.74
  L 718.52 702.62
  L 704.61 689.03
  L 701.79 686.14
  L 699.32 683.95
  L 697.20 682.48
  L 695.43 681.72
  L 692.52 681.24
  L 689.67 681.33
  L 689.67 681.33
  L 686.72 682.04
  L 683.85 683.38
  L 678.21 686.46
  L 672.56 689.09
  L 666.91 691.26
  L 661.26 692.99
  L 655.83 694.67
  L 653.91 695.48
  L 652.54 696.27
  L 650.69 697.89
  L 649.19 699.96
  L 648.11 702.42
  L 647.45 705.26
  L 647.22 708.49
  L 647.19 733.22
  L 647.15 733.38
  L 646.81 733.60
  L 601.10 733.60
  L 600.82 733.48
  L 600.70 733.20
  L 600.74 707.44
  L 600.64 705.13
  L 600.28 703.08
  L 599.63 701.19
  L 598.73 699.54
  L 596.96 697.48
  L 594.50 695.72
  L 591.30 694.23
  L 587.23 692.95
  L 582.28 691.46
  L 577.35 689.60
  L 572.43 687.37
  L 567.52 684.78
  L 563.44 682.68
  L 559.97 681.42
  L 556.88 680.92
  L 554.06 681.15
  L 552.35 681.67
  L 550.65 682.51
  L 549.03 683.63
  L 547.42 685.08
  L 529.27 702.78
  L 528.93 702.91
  L 528.59 702.77
  L 496.79 670.97
  L 496.79 670.52
  L 513.22 654.49
  L 515.38 652.33
  L 517.02 650.41
  L 518.15 648.72
  L 518.77 647.27
  L 519.37 644.21
  L 519.39 641.45
  L 519.07 639.64
  L 518.48 637.81
  L 516.36 633.55
  L 514.04 629.30
  L 512.00 624.93
  L 512.00 624.93
  L 509.88 619.45
  L 508.18 613.80
  L 506.39 607.78
  L 505.60 605.86
  L 504.90 604.67
  L 502.99 602.67
  L 500.81 601.13
  L 500.81 601.13
  L 499.17 600.33
  L 497.40 599.76
  L 495.51 599.40
  L 493.50 599.25
  L 470.57 599.23
  Z
  M 651.2518 487.0617
  L 646.8155 485.8489
  L 642.3250 484.8558
  L 637.7909 484.0847
  L 633.2242 483.5375
  L 628.6359 483.2156
  L 624.0371 483.1196
  L 619.4388 483.2499
  L 614.8521 483.6061
  L 610.2881 484.1874
  L 605.7577 484.9924
  L 601.2719 486.0191
  L 596.8415 487.2650
  L 592.4772 488.7272
  L 588.1894 490.4021
  L 583.9885 492.2857
  L 579.8847 494.3735
  L 575.8877 496.6604
  L 572.0073 499.1409
  L 568.2527 501.8091
  L 564.6331 504.6584
  L 561.1571 507.6821
  L 557.8332 510.8729
  L 554.6693 514.2231
  L 551.6730 517.7245
  L 548.8516 521.3689
  L 546.2118 525.1473
  L 543.7601 529.0507
  L 541.5023 533.0698
  L 539.4439 537.1947
  L 537.5898 541.4155
  L 535.9446 545.7222
  L 534.5120 550.1043
  L 533.2957 554.5513
  L 532.2985 559.0524
  L 531.5229 563.5968
  L 530.9707 568.1736
  L 530.6432 572.7718
  L 530.5413 577.3801
  L 530.6651 581.9877
  L 531.0144 586.5833
  L 531.5883 591.1559
  L 532.3855 595.6944
  L 533.4041 600.1880
  L 534.6415 604.6258
  L 536.0948 608.9971
  L 537.7605 613.2914
  L 539.6346 617.4984
  L 541.7125 621.6078
  L 543.9894 625.6099
  L 546.4596 629.4949
  L 549.1172 633.2536
  L 551.9559 636.8768
  L 554.9687 640.3558
  L 558.1485 643.6822
  L 561.4875 646.8481
  L 564.9778 649.8458
  L 568.6109 652.6681
  L 572.3780 655.3082
  L 576.2702 657.7596
  L 580.2779 660.0166
  L 584.3916 662.0737
  L 588.6014 663.9259
  L 592.8970 665.5687
  L 597.2682 666.9983
  L 597.2682 666.9983
  L 601.7045 668.2111
  L 606.1950 669.2042
  L 610.7291 669.9753
  L 615.2958 670.5225
  L 619.8841 670.8444
  L 624.4829 670.9404
  L 629.0812 670.8101
  L 633.6679 670.4539
  L 638.2319 669.8726
  L 642.7623 669.0676
  L 647.2481 668.0409
  L 651.6785 666.7950
  L 656.0428 665.3328
  L 660.3306 663.6579
  L 664.5315 661.7743
  L 668.6353 659.6865
  L 672.6323 657.3996
  L 676.5127 654.9191
  L 680.2673 652.2509
  L 683.8869 649.4016
  L 687.3629 646.3779
  L 690.6868 643.1871
  L 693.8507 639.8369
  L 696.8470 636.3355
  L 699.6684 632.6911
  L 702.3082 628.9127
  L 704.7599 625.0093
  L 707.0177 620.9902
  L 709.0761 616.8653
  L 710.9302 612.6445
  L 712.5754 608.3378
  L 714.0080 603.9557
  L 715.2243 599.5087
  L 716.2215 595.0076
  L 716.9971 590.4632
  L 717.5493 585.8864
  L 717.8768 581.2882
  L 717.9787 576.6799
  L 717.8549 572.0723
  L 717.5056 567.4767
  L 716.9317 562.9041
  L 716.1345 558.3656
  L 715.1159 553.8720
  L 713.8785 549.4342
  L 712.4252 545.0629
  L 710.7595 540.7686
  L 708.8854 536.5616
  L 706.8075 532.4522
  L 704.5306 528.4501
  L 702.0604 524.5651
  L 699.4028 520.8064
  L 696.5641 517.1832
  L 693.5513 513.7042
  L 690.3715 510.3778
  L 687.0325 507.2119
  L 683.5422 504.2142
  L 679.9091 501.3919
  L 676.1420 498.7518
  L 672.2498 496.3004
  L 668.2421 494.0434
  L 664.1284 491.9863
  L 659.9186 490.1341
  L 655.6230 488.4913
  L 651.2518 487.0617
  Z"
/>
<path d="
  M 693.99 577.10
  L 693.65 583.94
  L 692.65 590.71
  L 690.99 597.35
  L 688.68 603.79
  L 685.75 609.98
  L 682.24 615.85
  L 678.16 621.35
  L 673.56 626.42
  L 668.49 631.02
  L 662.99 635.10
  L 657.12 638.61
  L 650.93 641.54
  L 644.49 643.85
  L 637.85 645.51
  L 631.08 646.51
  L 624.24 646.85
  L 617.40 646.51
  L 610.63 645.51
  L 603.99 643.85
  L 597.55 641.54
  L 591.36 638.61
  L 585.49 635.10
  L 579.99 631.02
  L 574.92 626.42
  L 570.32 621.35
  L 566.24 615.85
  L 562.73 609.98
  L 559.80 603.79
  L 557.49 597.35
  L 555.83 590.71
  L 554.83 583.94
  L 554.49 577.10
  L 554.83 570.26
  L 555.83 563.49
  L 557.49 556.85
  L 559.80 550.41
  L 562.73 544.22
  L 566.24 538.35
  L 570.32 532.85
  L 574.92 527.78
  L 579.99 523.18
  L 585.49 519.10
  L 591.36 515.59
  L 597.55 512.66
  L 603.99 510.35
  L 610.63 508.69
  L 617.40 507.69
  L 624.24 507.35
  L 631.08 507.69
  L 637.85 508.69
  L 644.49 510.35
  L 650.93 512.66
  L 657.12 515.59
  L 662.99 519.10
  L 668.49 523.18
  L 673.56 527.78
  L 678.16 532.85
  L 682.24 538.35
  L 685.75 544.22
  L 688.68 550.41
  L 690.99 556.85
  L 692.65 563.49
  L 693.65 570.26
  L 693.99 577.10
  Z
  M 669.01 577.23
  L 668.79 572.84
  L 668.15 568.50
  L 667.08 564.23
  L 665.60 560.10
  L 663.72 556.13
  L 661.46 552.36
  L 658.85 548.83
  L 655.90 545.57
  L 652.64 542.62
  L 649.11 540.01
  L 645.34 537.75
  L 641.37 535.87
  L 637.24 534.39
  L 632.97 533.32
  L 628.63 532.68
  L 624.24 532.46
  L 619.85 532.68
  L 615.51 533.32
  L 611.24 534.39
  L 607.11 535.87
  L 603.14 537.75
  L 599.37 540.01
  L 595.84 542.62
  L 592.58 545.57
  L 589.63 548.83
  L 587.02 552.36
  L 584.76 556.13
  L 582.88 560.10
  L 581.40 564.23
  L 580.33 568.50
  L 579.69 572.84
  L 579.47 577.23
  L 579.69 581.62
  L 580.33 585.96
  L 581.40 590.23
  L 582.88 594.36
  L 584.76 598.33
  L 587.02 602.10
  L 589.63 605.63
  L 592.58 608.89
  L 595.84 611.84
  L 599.37 614.45
  L 603.14 616.71
  L 607.11 618.59
  L 611.24 620.07
  L 615.51 621.14
  L 619.85 621.78
  L 624.24 622.00
  L 628.63 621.78
  L 632.97 621.14
  L 637.24 620.07
  L 641.37 618.59
  L 645.34 616.71
  L 649.11 614.45
  L 652.64 611.84
  L 655.90 608.89
  L 658.85 605.63
  L 661.46 602.10
  L 663.72 598.33
  L 665.60 594.36
  L 667.08 590.23
  L 668.15 585.96
  L 668.79 581.62
  L 669.01 577.23
  Z"
/>
<ellipse cx="0.00" cy="0.00" transform="translate(624.14,577.29) rotate(-171.6)" rx="22.05" ry="21.67"/>
</g>
<g fill="#0c0e0d">
<path d="
  M 175.92 211.74
  L 175.92 295.72
  L 176.04 296.01
  L 176.34 296.13
  L 572.57 296.10
  L 576.34 296.19
  L 579.38 296.46
  L 581.68 296.91
  L 583.24 297.54
  L 585.25 299.00
  L 586.87 300.72
  L 588.16 302.72
  L 589.02 304.87
  L 589.46 307.17
  L 589.46 309.50
  L 589.01 311.78
  L 588.12 313.95
  L 587.14 315.50
  L 585.91 316.92
  L 584.49 318.11
  L 582.85 319.13
  L 581.33 319.71
  L 579.29 320.13
  L 573.64 320.46
  L 176.51 320.45
  L 176.51 320.45
  L 176.10 320.62
  L 175.93 321.04
  L 175.93 657.60
  L 176.08 657.96
  L 176.45 658.11
  L 436.99 658.14
  L 439.16 658.28
  L 441.15 658.67
  L 442.97 659.33
  L 444.62 660.24
  L 444.62 660.24
  L 444.62 660.24
  L 446.68 661.98
  L 448.39 664.25
  L 448.92 665.24
  L 449.63 667.25
  L 449.93 669.33
  L 449.82 671.53
  L 449.30 673.66
  L 448.40 675.68
  L 447.13 677.50
  L 445.61 679.00
  L 443.80 680.22
  L 442.85 680.67
  L 441.48 681.11
  L 439.72 681.42
  L 435.01 681.67
  L 169.26 681.65
  L 165.24 681.54
  L 162.19 681.15
  L 159.72 680.42
  L 157.73 679.35
  L 155.65 677.44
  L 153.85 674.72
  L 153.42 673.55
  L 153.12 671.91
  L 152.87 667.20
  L 152.87 204.50
  L 153.18 196.68
  L 153.57 194.24
  L 154.12 192.79
  L 156.02 190.37
  L 158.11 188.70
  L 160.03 187.79
  L 162.17 187.22
  L 164.79 186.91
  L 168.15 186.82
  L 252.15 186.86
  L 252.15 186.86
  L 252.57 186.68
  L 252.73 186.27
  L 252.81 162.76
  L 252.90 160.56
  L 252.90 160.56
  L 253.30 157.24
  L 254.02 153.94
  L 255.06 150.66
  L 256.42 147.41
  L 259.14 142.42
  L 262.44 137.85
  L 266.19 133.89
  L 270.46 130.42
  L 273.43 128.52
  L 276.52 126.90
  L 279.80 125.52
  L 283.16 124.43
  L 286.64 123.62
  L 290.15 123.11
  L 293.69 122.89
  L 297.24 122.97
  L 300.76 123.33
  L 304.24 123.99
  L 307.65 124.94
  L 310.98 126.18
  L 314.16 127.68
  L 317.22 129.47
  L 320.04 131.47
  L 322.71 133.73
  L 324.83 135.84
  L 326.81 138.14
  L 328.58 140.54
  L 330.20 143.11
  L 331.64 145.81
  L 332.92 148.69
  L 333.98 151.63
  L 334.87 154.73
  L 335.41 157.63
  L 335.77 161.23
  L 335.94 165.52
  L 335.91 170.50
  L 335.92 186.44
  L 336.04 186.73
  L 336.33 186.85
  L 455.75 186.85
  L 456.04 186.73
  L 456.16 186.43
  L 456.12 170.98
  L 456.31 162.04
  L 456.65 158.51
  L 457.16 155.60
  L 458.38 151.25
  L 459.99 147.17
  L 462.04 143.25
  L 464.44 139.63
  L 466.30 137.31
  L 468.30 135.14
  L 470.44 133.13
  L 472.71 131.29
  L 475.12 129.58
  L 477.65 128.05
  L 480.27 126.71
  L 482.98 125.55
  L 485.76 124.58
  L 488.60 123.81
  L 491.50 123.24
  L 494.43 122.87
  L 497.34 122.71
  L 500.26 122.76
  L 503.20 123.02
  L 506.12 123.50
  L 510.45 124.61
  L 514.71 126.21
  L 518.75 128.26
  L 522.66 130.81
  L 525.49 133.05
  L 528.08 135.46
  L 530.43 138.03
  L 532.53 140.78
  L 532.53 140.78
  L 534.79 144.42
  L 536.68 148.33
  L 538.20 152.49
  L 539.34 156.92
  L 539.72 159.45
  L 539.97 162.74
  L 540.06 171.60
  L 540.03 186.33
  L 540.18 186.69
  L 540.55 186.84
  L 633.47 186.84
  L 636.69 187.06
  L 639.48 187.71
  L 641.83 188.78
  L 643.75 190.29
  L 643.75 190.29
  L 643.75 190.29
  L 643.75 190.29
  L 645.19 192.17
  L 646.22 194.45
  L 646.84 197.14
  L 647.04 200.24
  L 647.02 358.89
  L 647.03 360.52
  L 646.98 364.63
  L 646.68 367.48
  L 646.04 369.82
  L 645.02 371.75
  L 644.05 372.95
  L 642.80 374.04
  L 642.58 374.20
  L 640.91 375.22
  L 639.14 375.97
  L 637.29 376.46
  L 635.40 376.68
  L 633.50 376.62
  L 631.61 376.30
  L 629.79 375.71
  L 628.04 374.83
  L 627.56 374.53
  L 625.93 373.15
  L 624.65 371.37
  L 623.75 369.12
  L 623.23 366.36
  L 623.08 363.05
  L 623.12 211.44
  L 622.99 211.12
  L 622.67 210.99
  L 540.47 210.99
  L 540.18 211.11
  L 540.06 211.39
  L 540.09 216.14
  L 540.05 226.30
  L 539.51 233.36
  L 538.99 236.54
  L 538.31 239.48
  L 537.43 242.27
  L 536.33 245.04
  L 534.59 248.43
  L 532.53 251.63
  L 528.93 256.08
  L 524.84 260.00
  L 520.41 263.25
  L 515.56 265.91
  L 512.15 267.32
  L 508.67 268.40
  L 505.04 269.19
  L 501.38 269.65
  L 497.66 269.80
  L 493.95 269.62
  L 490.28 269.13
  L 486.67 268.33
  L 483.15 267.22
  L 479.73 265.82
  L 476.46 264.13
  L 473.34 262.15
  L 470.44 259.93
  L 467.75 257.45
  L 465.35 254.78
  L 463.17 251.88
  L 461.57 249.31
  L 460.15 246.59
  L 458.96 243.81
  L 457.97 240.88
  L 457.19 237.87
  L 456.62 234.72
  L 456.27 231.55
  L 456.14 228.26
  L 456.17 211.53
  L 456.02 211.15
  L 455.64 210.99
  L 455.64 210.99
  L 336.33 210.99
  L 336.33 210.99
  L 335.98 211.14
  L 335.84 211.49
  L 335.89 222.49
  L 335.66 231.45
  L 335.30 234.70
  L 334.55 238.29
  L 333.49 241.84
  L 332.29 244.79
  L 329.62 249.69
  L 326.55 254.06
  L 323.09 257.93
  L 319.24 261.27
  L 319.24 261.27
  L 316.51 263.17
  L 313.62 264.85
  L 310.56 266.32
  L 307.33 267.56
  L 301.90 269.03
  L 296.28 269.77
  L 290.67 269.74
  L 285.19 268.96
  L 281.53 268.00
  L 277.98 266.72
  L 274.58 265.12
  L 271.34 263.22
  L 268.33 261.06
  L 265.51 258.63
  L 262.92 255.93
  L 260.58 252.99
  L 257.99 248.93
  L 255.87 244.50
  L 254.31 239.88
  L 253.26 234.97
  L 252.72 228.51
  L 252.70 218.81
  L 252.72 211.63
  L 252.52 211.18
  L 252.06 210.99
  L 176.68 210.99
  L 176.14 211.21
  L 175.92 211.74
  L 175.92 211.74
  Z
  M 310.69 163.93
  L 310.39 160.85
  L 309.49 157.89
  L 308.03 155.16
  L 306.07 152.77
  L 303.68 150.81
  L 300.95 149.35
  L 297.99 148.45
  L 294.91 148.15
  L 293.79 148.15
  L 290.71 148.45
  L 287.75 149.35
  L 285.02 150.81
  L 282.63 152.77
  L 280.67 155.16
  L 279.21 157.89
  L 278.31 160.85
  L 278.01 163.93
  L 278.01 228.05
  L 278.31 231.13
  L 279.21 234.09
  L 280.67 236.82
  L 282.63 239.21
  L 285.02 241.17
  L 287.75 242.63
  L 290.71 243.53
  L 293.79 243.83
  L 294.91 243.83
  L 297.99 243.53
  L 300.95 242.63
  L 303.68 241.17
  L 306.07 239.21
  L 308.03 236.82
  L 309.49 234.09
  L 310.39 231.13
  L 310.69 228.05
  L 310.69 163.93
  Z
  M 514.3360 163.8883
  L 514.0403 160.8307
  L 513.1537 157.8896
  L 511.7104 155.1779
  L 509.7657 152.7999
  L 507.3946 150.8470
  L 504.6880 149.3943
  L 501.7499 148.4974
  L 498.6934 148.1910
  L 497.6534 148.1892
  L 494.5958 148.4849
  L 491.6547 149.3715
  L 488.9430 150.8148
  L 486.5651 152.7595
  L 484.6121 155.1306
  L 483.1594 157.8372
  L 482.2625 160.7753
  L 481.9561 163.8318
  L 481.8440 228.0717
  L 482.1397 231.1293
  L 483.0263 234.0704
  L 484.4696 236.7821
  L 486.4143 239.1601
  L 488.7854 241.1130
  L 491.4920 242.5657
  L 494.4301 243.4626
  L 497.4866 243.7690
  L 498.5266 243.7708
  L 501.5842 243.4751
  L 504.5253 242.5885
  L 507.2370 241.1452
  L 509.6149 239.2005
  L 511.5679 236.8294
  L 513.0206 234.1228
  L 513.9175 231.1847
  L 514.2239 228.1282
  L 514.3360 163.8883
  Z"
/>
<path d="
  M 253.31 429.57
  L 253.42 429.56
  L 253.58 429.46
  L 303.14 381.05
  L 308.53 376.00
  L 311.50 373.77
  L 313.77 372.97
  L 315.72 372.66
  L 317.69 372.66
  L 319.64 372.96
  L 321.53 373.57
  L 323.33 374.48
  L 325.01 375.67
  L 326.46 377.06
  L 327.74 378.70
  L 328.65 380.33
  L 329.25 382.02
  L 329.54 383.52
  L 329.61 385.03
  L 329.14 388.01
  L 328.60 389.48
  L 327.87 390.88
  L 326.96 392.19
  L 325.87 393.39
  L 266.04 451.66
  L 260.75 456.69
  L 258.02 458.83
  L 256.18 459.53
  L 254.24 459.93
  L 252.25 460.02
  L 250.25 459.80
  L 248.34 459.27
  L 246.53 458.45
  L 244.95 457.38
  L 243.55 456.04
  L 243.41 455.88
  L 231.83 442.30
  L 217.66 426.07
  L 215.95 423.66
  L 215.08 421.28
  L 214.69 417.97
  L 214.81 415.04
  L 215.46 412.48
  L 216.63 410.29
  L 216.63 410.29
  L 216.63 410.29
  L 217.55 409.20
  L 218.64 408.23
  L 221.34 406.67
  L 224.19 405.82
  L 226.99 405.66
  L 229.45 406.10
  L 231.78 407.04
  L 233.95 408.46
  L 235.91 410.33
  L 252.80 429.40
  L 253.31 429.57
  Z"
/>
<path d="
  M 389.19 429.16
  L 444.85 375.32
  L 445.62 374.74
  L 447.38 373.86
  L 449.14 373.23
  L 450.90 372.84
  L 452.67 372.70
  L 452.67 372.70
  L 452.67 372.70
  L 454.58 372.82
  L 456.49 373.23
  L 458.21 373.85
  L 459.79 374.67
  L 461.21 375.65
  L 462.46 376.80
  L 463.57 378.11
  L 464.46 379.56
  L 465.15 381.10
  L 465.61 382.74
  L 465.83 384.48
  L 465.79 386.28
  L 465.50 388.00
  L 464.95 389.73
  L 464.22 391.05
  L 462.94 392.72
  L 458.72 397.08
  L 395.66 457.17
  L 395.23 457.56
  L 393.45 458.74
  L 391.47 459.50
  L 389.24 459.86
  L 386.96 459.80
  L 384.64 459.33
  L 382.44 458.47
  L 380.45 457.26
  L 378.78 455.74
  L 352.31 425.48
  L 351.42 424.29
  L 350.73 423.02
  L 350.73 423.02
  L 350.73 423.02
  L 350.17 421.38
  L 349.90 419.62
  L 349.89 416.32
  L 350.35 413.46
  L 351.27 411.03
  L 352.67 409.03
  L 352.67 409.03
  L 352.67 409.03
  L 354.12 407.76
  L 355.85 406.76
  L 357.88 406.02
  L 360.21 405.56
  L 362.87 405.48
  L 365.36 405.95
  L 365.36 405.95
  L 365.36 405.95
  L 366.84 406.54
  L 368.26 407.35
  L 369.60 408.38
  L 370.88 409.64
  L 388.31 429.12
  L 388.74 429.33
  L 389.18 429.17
  L 389.19 429.16
  Z"
/>
<path d="
  M 754.43 512.20
  L 761.84 531.02
  L 762.16 531.23
  L 773.89 531.15
  L 784.61 531.29
  L 788.26 531.75
  L 791.58 532.89
  L 794.57 534.70
  L 797.07 537.10
  L 798.68 539.41
  L 799.87 542.02
  L 800.58 544.79
  L 800.82 547.75
  L 800.89 602.40
  L 800.83 605.74
  L 800.58 608.60
  L 800.14 610.97
  L 799.50 612.86
  L 797.74 615.97
  L 795.48 618.52
  L 795.48 618.52
  L 795.48 618.52
  L 793.70 619.91
  L 791.70 621.06
  L 789.48 621.96
  L 787.04 622.62
  L 786.25 622.70
  L 761.96 622.70
  L 761.48 622.86
  L 761.19 623.27
  L 759.67 627.86
  L 757.96 632.33
  L 756.08 636.67
  L 754.02 640.88
  L 753.92 641.53
  L 754.22 642.12
  L 763.76 651.59
  L 771.41 659.50
  L 772.95 661.36
  L 774.22 663.38
  L 775.21 665.52
  L 775.90 667.75
  L 776.28 670.03
  L 776.33 672.32
  L 776.06 674.51
  L 775.47 676.66
  L 774.29 679.19
  L 772.57 681.56
  L 768.10 686.35
  L 733.90 720.27
  L 730.25 723.59
  L 726.93 725.94
  L 723.75 727.45
  L 720.62 728.19
  L 718.55 728.27
  L 716.38 728.05
  L 714.20 727.52
  L 711.90 726.67
  L 710.49 725.92
  L 708.84 724.75
  L 704.81 721.19
  L 690.17 707.06
  L 689.85 707.00
  L 671.26 714.05
  L 670.94 714.51
  L 671.02 734.65
  L 670.94 741.70
  L 670.60 745.29
  L 670.52 745.60
  L 669.78 747.68
  L 668.77 749.62
  L 667.43 751.47
  L 665.85 753.10
  L 664.05 754.51
  L 662.07 755.66
  L 659.93 756.55
  L 657.66 757.13
  L 649.84 757.37
  L 591.28 757.27
  L 589.08 757.03
  L 586.86 756.36
  L 584.61 755.25
  L 582.32 753.71
  L 580.59 752.14
  L 579.27 750.44
  L 578.26 748.45
  L 577.55 746.10
  L 577.16 743.32
  L 577.05 739.94
  L 577.08 714.06
  L 576.96 713.72
  L 576.66 713.51
  L 572.23 712.21
  L 567.83 710.71
  L 563.45 709.00
  L 559.11 707.09
  L 558.60 707.02
  L 558.14 707.25
  L 541.62 723.10
  L 538.94 725.55
  L 536.73 727.21
  L 534.64 728.33
  L 532.56 728.98
  L 529.92 729.30
  L 527.40 729.20
  L 524.63 728.58
  L 522.02 727.48
  L 519.49 725.91
  L 516.97 723.79
  L 480.64 687.75
  L 479.56 686.69
  L 476.16 683.22
  L 474.04 680.67
  L 472.46 678.15
  L 471.39 675.56
  L 470.80 672.70
  L 470.71 669.67
  L 471.19 666.38
  L 471.19 666.38
  L 471.19 666.38
  L 472.01 663.90
  L 473.23 661.51
  L 474.83 659.22
  L 476.82 657.03
  L 492.99 641.10
  L 493.06 640.78
  L 486.39 623.14
  L 486.15 622.82
  L 485.77 622.70
  L 470.42 622.75
  L 465.26 622.75
  L 461.18 622.55
  L 458.19 622.17
  L 456.27 621.60
  L 454.45 620.61
  L 452.88 619.52
  L 451.47 618.25
  L 450.29 616.88
  L 448.73 614.20
  L 447.69 610.97
  L 447.13 607.09
  L 447.04 602.33
  L 447.03 552.85
  L 447.11 548.53
  L 447.39 544.99
  L 447.84 542.24
  L 448.49 540.29
  L 450.38 537.16
  L 451.54 535.82
  L 452.80 534.69
  L 455.50 533.04
  L 458.77 531.92
  L 462.75 531.29
  L 467.67 531.12
  L 485.59 531.18
  L 485.91 531.08
  L 486.12 530.81
  L 492.96 512.30
  L 492.83 511.68
  L 475.68 494.61
  L 473.89 492.47
  L 472.50 490.26
  L 471.51 487.98
  L 470.91 485.64
  L 470.91 485.64
  L 470.91 485.64
  L 470.91 485.64
  L 470.91 485.64
  L 470.70 482.85
  L 471.02 479.98
  L 471.87 477.01
  L 473.24 473.96
  L 475.56 471.02
  L 480.61 465.85
  L 516.92 430.25
  L 519.09 428.40
  L 521.33 426.97
  L 523.64 425.94
  L 526.02 425.33
  L 526.02 425.33
  L 528.25 425.14
  L 530.53 425.28
  L 532.88 425.78
  L 535.28 426.61
  L 536.76 427.43
  L 538.71 428.87
  L 544.01 433.56
  L 557.54 446.41
  L 558.17 446.54
  L 576.74 439.72
  L 577.08 439.24
  L 577.05 416.27
  L 577.12 412.78
  L 577.41 409.82
  L 577.89 407.39
  L 578.59 405.49
  L 579.69 403.51
  L 580.87 401.84
  L 582.22 400.39
  L 583.67 399.22
  L 586.32 397.83
  L 589.52 396.95
  L 593.38 396.51
  L 598.97 396.41
  L 653.52 396.40
  L 655.89 396.51
  L 658.17 396.87
  L 660.35 397.48
  L 662.38 398.34
  L 664.21 399.40
  L 665.88 400.67
  L 667.34 402.15
  L 668.59 403.83
  L 669.61 405.72
  L 670.36 407.80
  L 670.81 409.95
  L 670.97 412.26
  L 671.00 439.86
  L 671.12 440.21
  L 671.43 440.42
  L 676.11 441.87
  L 680.62 443.48
  L 684.95 445.24
  L 689.11 447.16
  L 689.80 447.26
  L 690.43 446.95
  L 702.90 434.92
  L 706.25 431.75
  L 709.20 429.31
  L 711.72 427.62
  L 713.84 426.66
  L 716.33 426.10
  L 718.72 425.96
  L 720.96 426.18
  L 723.12 426.72
  L 725.28 427.57
  L 727.54 428.79
  L 729.77 430.29
  L 732.09 432.14
  L 737.95 437.63
  L 737.98 437.66
  L 768.90 468.34
  L 772.13 472.04
  L 773.39 473.89
  L 774.46 475.80
  L 775.25 477.63
  L 775.84 479.52
  L 776.19 481.36
  L 776.31 483.24
  L 776.08 485.94
  L 775.34 488.72
  L 774.44 490.58
  L 772.98 492.70
  L 770.95 495.10
  L 768.35 497.76
  L 754.61 511.33
  L 754.39 511.74
  L 754.43 512.20
  Z
  M 470.57 599.23
  L 493.50 599.25
  L 495.51 599.40
  L 497.40 599.76
  L 499.17 600.33
  L 500.81 601.13
  L 500.81 601.13
  L 500.81 601.13
  L 502.99 602.67
  L 504.90 604.67
  L 505.60 605.86
  L 506.39 607.78
  L 508.18 613.80
  L 509.88 619.45
  L 512.00 624.93
  L 512.00 624.93
  L 512.00 624.93
  L 514.04 629.30
  L 516.36 633.55
  L 518.48 637.81
  L 519.07 639.64
  L 519.39 641.45
  L 519.37 644.21
  L 518.77 647.27
  L 518.15 648.72
  L 517.02 650.41
  L 515.38 652.33
  L 513.22 654.49
  L 496.79 670.52
  L 496.79 670.97
  L 528.59 702.77
  L 528.93 702.91
  L 529.27 702.78
  L 547.42 685.08
  L 549.03 683.63
  L 550.65 682.51
  L 552.35 681.67
  L 554.06 681.15
  L 556.88 680.92
  L 559.97 681.42
  L 563.44 682.68
  L 567.52 684.78
  L 572.43 687.37
  L 577.35 689.60
  L 582.28 691.46
  L 587.23 692.95
  L 591.30 694.23
  L 594.50 695.72
  L 596.96 697.48
  L 598.73 699.54
  L 599.63 701.19
  L 600.28 703.08
  L 600.64 705.13
  L 600.74 707.44
  L 600.70 733.20
  L 600.70 733.22
  L 600.82 733.49
  L 601.10 733.60
  L 646.81 733.60
  L 647.08 733.49
  L 647.19 733.22
  L 647.22 708.49
  L 647.45 705.26
  L 648.11 702.42
  L 649.19 699.96
  L 650.69 697.89
  L 650.69 697.89
  L 652.54 696.27
  L 653.91 695.48
  L 655.83 694.67
  L 661.26 692.99
  L 666.91 691.26
  L 672.56 689.09
  L 678.21 686.46
  L 683.85 683.38
  L 686.72 682.04
  L 689.67 681.33
  L 689.67 681.33
  L 689.67 681.33
  L 692.52 681.24
  L 695.43 681.72
  L 697.20 682.48
  L 699.32 683.95
  L 701.79 686.14
  L 704.61 689.03
  L 718.52 702.62
  L 718.81 702.74
  L 719.10 702.62
  L 749.62 672.10
  L 749.88 671.46
  L 749.61 670.81
  L 731.58 652.93
  L 729.43 650.26
  L 728.66 648.83
  L 728.10 647.34
  L 728.10 647.34
  L 728.10 647.34
  L 727.64 644.82
  L 727.70 642.14
  L 728.03 640.58
  L 728.68 638.78
  L 730.93 634.45
  L 733.93 629.00
  L 736.45 623.48
  L 738.50 617.86
  L 740.07 612.17
  L 741.08 608.72
  L 742.32 605.94
  L 743.87 603.66
  L 745.78 601.84
  L 747.63 600.71
  L 749.76 599.88
  L 752.11 599.39
  L 754.77 599.19
  L 776.89 599.17
  L 777.27 599.02
  L 777.46 598.66
  L 777.46 598.60
  L 777.46 554.91
  L 777.15 554.60
  L 755.48 554.58
  L 752.68 554.45
  L 750.25 554.02
  L 748.07 553.26
  L 746.23 552.19
  L 744.28 550.38
  L 742.61 547.92
  L 741.19 544.72
  L 739.91 540.57
  L 738.25 535.13
  L 736.61 530.82
  L 734.63 526.40
  L 728.59 514.97
  L 728.12 513.76
  L 727.70 510.75
  L 727.94 507.88
  L 727.94 507.88
  L 727.94 507.88
  L 728.52 505.93
  L 729.42 504.04
  L 730.65 502.23
  L 732.22 500.48
  L 749.87 483.11
  L 749.87 483.11
  L 750.01 482.78
  L 749.87 482.44
  L 719.33 451.90
  L 719.33 451.90
  L 718.93 451.73
  L 718.52 451.90
  L 706.89 463.39
  L 699.70 470.24
  L 697.20 472.07
  L 695.85 472.71
  L 694.50 473.14
  L 692.88 473.40
  L 691.26 473.41
  L 689.50 473.17
  L 687.72 472.71
  L 683.77 471.09
  L 678.40 468.10
  L 674.26 465.90
  L 669.34 463.74
  L 664.22 461.87
  L 659.49 460.50
  L 656.65 459.60
  L 654.15 458.38
  L 652.02 456.84
  L 650.26 454.98
  L 649.01 453.02
  L 648.09 450.79
  L 647.51 448.28
  L 647.27 445.49
  L 647.16 420.60
  L 647.01 420.25
  L 646.65 420.10
  L 601.15 420.10
  L 600.74 420.44
  L 600.73 420.52
  L 600.65 446.71
  L 600.30 449.70
  L 599.39 452.44
  L 599.39 452.44
  L 598.58 453.95
  L 597.57 455.37
  L 596.35 456.70
  L 594.94 457.94
  L 593.49 458.87
  L 591.53 459.75
  L 585.32 461.64
  L 581.67 462.66
  L 578.41 463.84
  L 574.23 465.69
  L 563.17 471.39
  L 560.82 472.39
  L 558.49 472.86
  L 555.68 472.79
  L 552.78 472.00
  L 550.02 470.58
  L 547.34 468.50
  L 529.42 451.26
  L 528.95 451.07
  L 528.48 451.26
  L 497.73 482.01
  L 497.50 482.59
  L 497.74 483.16
  L 514.06 499.44
  L 516.93 502.67
  L 518.28 504.76
  L 519.06 507.16
  L 519.47 509.45
  L 519.49 511.64
  L 519.13 513.73
  L 519.13 513.73
  L 519.13 513.73
  L 517.97 516.51
  L 514.66 522.66
  L 511.94 528.58
  L 509.78 534.29
  L 508.21 539.77
  L 506.91 544.52
  L 505.49 548.02
  L 503.79 550.66
  L 501.73 552.59
  L 500.08 553.53
  L 498.14 554.20
  L 495.99 554.58
  L 493.54 554.68
  L 470.85 554.62
  L 470.43 554.79
  L 470.26 555.21
  L 470.26 598.93
  L 470.26 598.93
  L 470.57 599.23
  Z"
/>
<path d="
  M 651.2518 487.0617
  L 655.6230 488.4913
  L 659.9186 490.1341
  L 664.1284 491.9863
  L 668.2421 494.0434
  L 672.2498 496.3004
  L 676.1420 498.7518
  L 679.9091 501.3919
  L 683.5422 504.2142
  L 687.0325 507.2119
  L 690.3715 510.3778
  L 693.5513 513.7042
  L 696.5641 517.1832
  L 699.4028 520.8064
  L 702.0604 524.5651
  L 704.5306 528.4501
  L 706.8075 532.4522
  L 708.8854 536.5616
  L 710.7595 540.7686
  L 712.4252 545.0629
  L 713.8785 549.4342
  L 715.1159 553.8720
  L 716.1345 558.3656
  L 716.9317 562.9041
  L 717.5056 567.4767
  L 717.8549 572.0723
  L 717.9787 576.6799
  L 717.8768 581.2882
  L 717.5493 585.8864
  L 716.9971 590.4632
  L 716.2215 595.0076
  L 715.2243 599.5087
  L 714.0080 603.9557
  L 712.5754 608.3378
  L 710.9302 612.6445
  L 709.0761 616.8653
  L 707.0177 620.9902
  L 704.7599 625.0093
  L 702.3082 628.9127
  L 699.6684 632.6911
  L 696.8470 636.3355
  L 693.8507 639.8369
  L 690.6868 643.1871
  L 687.3629 646.3779
  L 683.8869 649.4016
  L 680.2673 652.2509
  L 676.5127 654.9191
  L 672.6323 657.3996
  L 668.6353 659.6865
  L 664.5315 661.7743
  L 660.3306 663.6579
  L 656.0428 665.3328
  L 651.6785 666.7950
  L 647.2481 668.0409
  L 642.7623 669.0676
  L 638.2319 669.8726
  L 633.6679 670.4539
  L 629.0812 670.8101
  L 624.4829 670.9404
  L 619.8841 670.8444
  L 615.2958 670.5225
  L 610.7291 669.9753
  L 606.1950 669.2042
  L 601.7045 668.2111
  L 597.2682 666.9983
  L 597.2682 666.9983
  L 592.8970 665.5687
  L 588.6014 663.9259
  L 584.3916 662.0737
  L 580.2779 660.0166
  L 576.2702 657.7596
  L 572.3780 655.3082
  L 568.6109 652.6681
  L 564.9778 649.8458
  L 561.4875 646.8481
  L 558.1485 643.6822
  L 554.9687 640.3558
  L 551.9559 636.8768
  L 549.1172 633.2536
  L 546.4596 629.4949
  L 543.9894 625.6099
  L 541.7125 621.6078
  L 539.6346 617.4984
  L 537.7605 613.2914
  L 536.0948 608.9971
  L 534.6415 604.6258
  L 533.4041 600.1880
  L 532.3855 595.6944
  L 531.5883 591.1559
  L 531.0144 586.5833
  L 530.6651 581.9877
  L 530.5413 577.3801
  L 530.6432 572.7718
  L 530.9707 568.1736
  L 531.5229 563.5968
  L 532.2985 559.0524
  L 533.2957 554.5513
  L 534.5120 550.1043
  L 535.9446 545.7222
  L 537.5898 541.4155
  L 539.4439 537.1947
  L 541.5023 533.0698
  L 543.7601 529.0507
  L 546.2118 525.1473
  L 548.8516 521.3689
  L 551.6730 517.7245
  L 554.6693 514.2231
  L 557.8332 510.8729
  L 561.1571 507.6821
  L 564.6331 504.6584
  L 568.2527 501.8091
  L 572.0073 499.1409
  L 575.8877 496.6604
  L 579.8847 494.3735
  L 583.9885 492.2857
  L 588.1894 490.4021
  L 592.4772 488.7272
  L 596.8415 487.2650
  L 601.2719 486.0191
  L 605.7577 484.9924
  L 610.2881 484.1874
  L 614.8521 483.6061
  L 619.4388 483.2499
  L 624.0371 483.1196
  L 628.6359 483.2156
  L 633.2242 483.5375
  L 637.7909 484.0847
  L 642.3250 484.8558
  L 646.8155 485.8489
  L 651.2518 487.0617
  Z
  M 693.99 577.10
  L 693.65 570.26
  L 692.65 563.49
  L 690.99 556.85
  L 688.68 550.41
  L 685.75 544.22
  L 682.24 538.35
  L 678.16 532.85
  L 673.56 527.78
  L 668.49 523.18
  L 662.99 519.10
  L 657.12 515.59
  L 650.93 512.66
  L 644.49 510.35
  L 637.85 508.69
  L 631.08 507.69
  L 624.24 507.35
  L 617.40 507.69
  L 610.63 508.69
  L 603.99 510.35
  L 597.55 512.66
  L 591.36 515.59
  L 585.49 519.10
  L 579.99 523.18
  L 574.92 527.78
  L 570.32 532.85
  L 566.24 538.35
  L 562.73 544.22
  L 559.80 550.41
  L 557.49 556.85
  L 555.83 563.49
  L 554.83 570.26
  L 554.49 577.10
  L 554.83 583.94
  L 555.83 590.71
  L 557.49 597.35
  L 559.80 603.79
  L 562.73 609.98
  L 566.24 615.85
  L 570.32 621.35
  L 574.92 626.42
  L 579.99 631.02
  L 585.49 635.10
  L 591.36 638.61
  L 597.55 641.54
  L 603.99 643.85
  L 610.63 645.51
  L 617.40 646.51
  L 624.24 646.85
  L 631.08 646.51
  L 637.85 645.51
  L 644.49 643.85
  L 650.93 641.54
  L 657.12 638.61
  L 662.99 635.10
  L 668.49 631.02
  L 673.56 626.42
  L 678.16 621.35
  L 682.24 615.85
  L 685.75 609.98
  L 688.68 603.79
  L 690.99 597.35
  L 692.65 590.71
  L 693.65 583.94
  L 693.99 577.10
  Z"
/>
<path d="
  M 253.80 548.76
  L 307.37 495.63
  L 309.29 493.95
  L 311.26 492.68
  L 313.29 491.82
  L 315.36 491.36
  L 315.36 491.36
  L 315.36 491.36
  L 315.36 491.36
  L 317.56 491.32
  L 319.81 491.72
  L 322.12 492.55
  L 324.48 493.83
  L 326.49 495.49
  L 327.82 497.30
  L 328.72 499.34
  L 329.21 501.66
  L 329.26 504.06
  L 328.86 506.55
  L 328.04 508.94
  L 326.87 511.03
  L 325.36 512.85
  L 262.42 574.69
  L 260.33 576.52
  L 258.20 577.87
  L 256.03 578.76
  L 253.83 579.17
  L 251.77 579.13
  L 248.69 578.54
  L 246.21 577.56
  L 244.66 576.58
  L 243.07 575.22
  L 238.98 570.57
  L 238.29 569.73
  L 231.50 561.55
  L 220.70 548.31
  L 217.54 544.20
  L 216.97 543.27
  L 216.58 542.26
  L 216.04 539.76
  L 215.86 537.39
  L 216.04 535.14
  L 216.59 533.02
  L 216.59 533.02
  L 217.64 530.77
  L 219.16 528.68
  L 220.27 527.59
  L 221.48 526.70
  L 223.31 525.81
  L 225.25 525.28
  L 227.37 525.13
  L 229.50 525.36
  L 231.63 525.97
  L 233.65 526.95
  L 235.42 528.21
  L 236.98 529.78
  L 252.92 548.72
  L 253.34 548.93
  L 253.79 548.77
  L 253.79 548.77
  L 253.80 548.76
  Z"
/>
<path d="
  M 386.51 548.67
  L 386.54 548.70
  L 387.12 548.96
  L 387.71 548.72
  L 440.64 494.39
  L 442.83 492.66
  L 444.43 491.90
  L 446.11 491.41
  L 447.95 491.20
  L 449.82 491.28
  L 451.67 491.64
  L 453.48 492.27
  L 455.21 493.16
  L 456.81 494.30
  L 459.03 496.60
  L 459.85 497.86
  L 460.46 499.20
  L 460.46 499.20
  L 461.05 501.67
  L 461.04 504.37
  L 460.45 507.28
  L 459.26 510.42
  L 458.50 511.64
  L 457.12 513.35
  L 452.48 518.23
  L 395.68 574.93
  L 394.79 575.73
  L 392.70 577.11
  L 390.41 578.03
  L 387.89 578.50
  L 385.31 578.50
  L 382.72 578.03
  L 380.26 577.10
  L 378.08 575.78
  L 376.18 574.07
  L 354.97 548.83
  L 351.23 543.86
  L 350.18 541.98
  L 349.69 540.50
  L 349.47 538.51
  L 349.49 536.51
  L 349.75 534.56
  L 350.25 532.68
  L 350.97 530.98
  L 351.92 529.44
  L 353.03 528.15
  L 354.36 527.05
  L 356.39 525.96
  L 358.79 525.32
  L 360.57 525.14
  L 362.27 525.18
  L 363.88 525.43
  L 365.41 525.90
  L 365.41 525.90
  L 366.78 526.54
  L 368.07 527.37
  L 370.44 529.60
  L 386.51 548.67
  Z"
/>
<path d="
  M 669.01 577.23
  L 668.79 581.62
  L 668.15 585.96
  L 667.08 590.23
  L 665.60 594.36
  L 663.72 598.33
  L 661.46 602.10
  L 658.85 605.63
  L 655.90 608.89
  L 652.64 611.84
  L 649.11 614.45
  L 645.34 616.71
  L 641.37 618.59
  L 637.24 620.07
  L 632.97 621.14
  L 628.63 621.78
  L 624.24 622.00
  L 619.85 621.78
  L 615.51 621.14
  L 611.24 620.07
  L 607.11 618.59
  L 603.14 616.71
  L 599.37 614.45
  L 595.84 611.84
  L 592.58 608.89
  L 589.63 605.63
  L 587.02 602.10
  L 584.76 598.33
  L 582.88 594.36
  L 581.40 590.23
  L 580.33 585.96
  L 579.69 581.62
  L 579.47 577.23
  L 579.69 572.84
  L 580.33 568.50
  L 581.40 564.23
  L 582.88 560.10
  L 584.76 556.13
  L 587.02 552.36
  L 589.63 548.83
  L 592.58 545.57
  L 595.84 542.62
  L 599.37 540.01
  L 603.14 537.75
  L 607.11 535.87
  L 611.24 534.39
  L 615.51 533.32
  L 619.85 532.68
  L 624.24 532.46
  L 628.63 532.68
  L 632.97 533.32
  L 637.24 534.39
  L 641.37 535.87
  L 645.34 537.75
  L 649.11 540.01
  L 652.64 542.62
  L 655.90 545.57
  L 658.85 548.83
  L 661.46 552.36
  L 663.72 556.13
  L 665.60 560.10
  L 667.08 564.23
  L 668.15 568.50
  L 668.79 572.84
  L 669.01 577.23
  Z
  M 602.3265 574.0689
  L 602.1213 576.1856
  L 602.1281 578.3130
  L 602.3469 580.4306
  L 602.7756 582.5179
  L 603.4100 584.5548
  L 604.2441 586.5218
  L 605.2697 588.3999
  L 606.4771 590.1709
  L 607.8546 591.8180
  L 609.3890 593.3251
  L 611.0654 594.6778
  L 612.8677 595.8630
  L 614.7786 596.8694
  L 616.7796 597.6872
  L 618.8515 598.3086
  L 620.9744 598.7275
  L 623.1277 598.9400
  L 625.2908 598.9440
  L 627.4428 598.7395
  L 629.5630 598.3284
  L 631.6310 597.7146
  L 633.6268 596.9042
  L 635.5313 595.9049
  L 637.3260 594.7263
  L 638.9938 593.3798
  L 640.5185 591.8783
  L 641.8855 590.2364
  L 643.0816 588.4697
  L 644.0952 586.5954
  L 644.9167 584.6315
  L 645.5381 582.5969
  L 645.9535 580.5111
  L 645.9535 580.5111
  L 646.1587 578.3944
  L 646.1519 576.2670
  L 645.9331 574.1494
  L 645.5044 572.0621
  L 644.8700 570.0252
  L 644.0359 568.0582
  L 643.0103 566.1801
  L 641.8029 564.4091
  L 640.4254 562.7620
  L 638.8910 561.2549
  L 637.2146 559.9022
  L 635.4123 558.7170
  L 633.5014 557.7106
  L 631.5004 556.8928
  L 629.4285 556.2714
  L 627.3056 555.8525
  L 625.1523 555.6400
  L 622.9892 555.6360
  L 620.8372 555.8405
  L 618.7170 556.2516
  L 616.6490 556.8654
  L 614.6532 557.6758
  L 612.7487 558.6751
  L 610.9540 559.8537
  L 609.2862 561.2002
  L 607.7615 562.7017
  L 606.3945 564.3436
  L 605.1984 566.1103
  L 604.1848 567.9846
  L 603.3633 569.9485
  L 602.7419 571.9831
  L 602.3265 574.0689
  Z"
/>
</g>
</svg>
