<?xml version="1.0" encoding="UTF-8" standalone="no"?>
<!DOCTYPE svg PUBLIC "-//W3C//DTD SVG 1.1//EN" "http://www.w3.org/Graphics/SVG/1.1/DTD/svg11.dtd">
<svg xmlns="http://www.w3.org/2000/svg" version="1.1" viewBox="0.00 0.00 1012.00 1006.00" width="1012.00" height="1006.00">
<g stroke-width="2.00" fill="none" stroke-linecap="butt">
<path stroke="#808080" vector-effect="non-scaling-stroke" d="
  M 717.84 304.83
  L 716.82 296.13
  L 715.40 287.64
  L 713.60 279.37
  L 711.41 271.32
  L 708.82 263.49
  L 705.85 255.88
  L 702.48 248.49
  L 698.72 241.31
  L 698.72 241.31
  L 698.72 241.31
  L 698.72 241.31
  L 698.72 241.31
  L 693.40 232.52
  L 687.44 224.09
  L 680.86 216.00
  L 673.65 208.27
  L 669.38 204.14
  L 664.96 200.17
  L 660.40 196.37
  L 655.69 192.73
  L 650.81 189.23
  L 645.80 185.91
  L 640.67 182.77
  L 635.44 179.82
  L 630.09 177.05
  L 624.66 174.48
  L 619.13 172.10
  L 613.53 169.93
  L 607.90 167.98
  L 602.20 166.23
  L 596.45 164.69
  L 590.65 163.37
  L 579.59 161.45
  L 568.54 160.29
  L 557.38 159.87
  L 546.31 160.21
  L 535.20 161.31
  L 524.26 163.14
  L 513.40 165.73
  L 502.78 169.05
  L 492.43 173.07
  L 482.40 177.77
  L 472.70 183.16
  L 463.39 189.20
  L 454.58 195.84
  L 446.21 203.09
  L 438.41 210.86
  L 431.13 219.21
  L 425.92 225.98
  L 421.04 233.08
  L 416.58 240.41
  L 412.48 248.04
  L 412.11 248.41
  L 411.60 248.48
  L 404.86 247.43
  L 398.20 246.69
  L 391.60 246.28
  L 385.07 246.18
  L 378.60 246.40
  L 372.21 246.93
  L 365.88 247.79
  L 359.62 248.96
  L 359.62 248.96
  L 359.62 248.96
  L 352.74 250.64
  L 345.95 252.71
  L 339.24 255.17
  L 332.61 258.03
  L 327.08 260.76
  L 321.72 263.73
  L 316.53 266.95
  L 311.53 270.39
  L 305.48 275.06
  L 299.74 280.08
  L 294.30 285.44
  L 289.19 291.12
  L 284.37 297.15
  L 279.90 303.49
  L 275.78 310.12
  L 272.02 317.02
  L 271.64 317.46
  L 271.11 317.68
  L 264.07 318.91
  L 257.19 320.47
  L 250.45 322.37
  L 243.87 324.60
  L 237.49 327.15
  L 231.27 330.04
  L 225.32 333.22
  L 219.54 336.74
  L 213.09 341.21
  L 206.90 346.12
  L 201.03 351.42
  L 195.43 357.15
  L 193.35 359.47
  L 187.54 366.64
  L 182.32 374.15
  L 177.62 382.08
  L 173.53 390.30
  L 170.01 398.87
  L 167.13 407.65
  L 164.87 416.69
  L 163.26 425.87
  L 162.32 435.11
  L 162.04 444.39
  L 162.43 453.68
  L 163.50 462.95
  L 165.20 471.98
  L 167.57 480.91
  L 170.55 489.58
  L 174.19 498.07
  L 176.68 503.01
  L 179.40 507.85
  L 182.41 512.67
  L 185.63 517.36
  L 189.14 522.01
  L 192.83 526.51
  L 196.76 530.90
  L 200.84 535.10
  L 206.40 540.28
  L 212.20 545.08
  L 218.23 549.49
  L 224.47 553.51
  L 230.88 557.10
  L 237.49 560.29
  L 244.27 563.06
  L 251.23 565.41
  L 258.53 567.37
  L 266.00 568.86
  L 273.50 569.86
  L 281.14 570.40
  L 284.56 570.40
  L 289.53 570.15
  L 295.60 569.87
  L 296.09 570.03
  L 296.39 570.46
  L 298.05 575.02
  L 300.25 579.24
  L 300.25 579.24
  L 302.51 582.52
  L 305.15 585.57
  L 307.62 587.92
  L 310.22 589.97
  L 312.95 591.74
  L 315.81 593.22
  L 315.81 593.22
  L 315.81 593.22
  L 319.28 594.57
  L 322.92 595.53
  L 326.74 596.11
  L 330.74 596.30
  L 692.00 596.29
  L 694.76 596.18
  L 697.44 595.85
  L 700.14 595.29
  L 702.75 594.52
  L 706.83 592.80
  L 710.61 590.57
  L 714.13 587.80
  L 717.27 584.59
  L 720.02 580.94
  L 722.31 576.93
  L 724.07 572.71
  L 725.33 568.23
  L 725.54 567.87
  L 725.93 567.70
  L 731.66 567.11
  L 737.29 566.31
  L 742.82 565.28
  L 748.26 564.03
  L 753.59 562.56
  L 758.82 560.87
  L 763.96 558.96
  L 768.99 556.83
  L 768.99 556.83
  L 768.99 556.83
  L 768.99 556.83
  L 775.49 553.68
  L 781.82 550.14
  L 787.98 546.22
  L 793.96 541.91
  L 798.33 538.42
  L 802.55 534.74
  L 806.68 530.81
  L 810.64 526.70
  L 814.44 522.41
  L 818.06 517.97
  L 821.49 513.37
  L 824.72 508.63
  L 827.78 503.74
  L 830.63 498.72
  L 833.27 493.59
  L 835.70 488.36
  L 837.88 483.09
  L 839.84 477.73
  L 841.57 472.30
  L 843.07 466.81
  L 844.40 460.87
  L 845.45 454.87
  L 846.21 448.84
  L 846.68 442.77
  L 846.87 436.64
  L 846.77 430.50
  L 846.39 424.37
  L 845.71 418.27
  L 844.76 412.21
  L 843.53 406.20
  L 842.02 400.26
  L 840.22 394.38
  L 838.16 388.61
  L 835.82 382.94
  L 833.26 377.46
  L 830.43 372.11
  L 826.46 365.50
  L 822.09 359.14
  L 817.26 352.95
  L 812.07 347.05
  L 806.52 341.46
  L 800.64 336.19
  L 794.47 331.27
  L 788.01 326.72
  L 781.34 322.59
  L 774.43 318.86
  L 767.41 315.60
  L 760.20 312.77
  L 752.97 310.43
  L 745.59 308.54
  L 738.22 307.15
  L 730.76 306.23
  L 718.34 305.31
  L 718.00 305.16
  L 717.84 304.83"
/>
<path stroke="#808080" vector-effect="non-scaling-stroke" d="
  M 295.07 760.76
  L 295.24 764.19
  L 295.74 767.58
  L 296.57 770.91
  L 297.73 774.13
  L 299.20 777.24
  L 300.96 780.18
  L 303.00 782.93
  L 305.31 785.47
  L 307.85 787.78
  L 310.60 789.82
  L 313.54 791.58
  L 316.65 793.05
  L 319.87 794.21
  L 323.20 795.04
  L 326.59 795.54
  L 330.02 795.71
  L 691.43 795.71
  L 694.86 795.54
  L 698.25 795.04
  L 701.58 794.21
  L 704.80 793.05
  L 707.91 791.58
  L 710.85 789.82
  L 713.60 787.78
  L 716.14 785.47
  L 718.45 782.93
  L 720.49 780.18
  L 722.25 777.24
  L 723.72 774.13
  L 724.88 770.91
  L 725.71 767.58
  L 726.21 764.19
  L 726.38 760.76
  L 726.38 652.23
  L 726.21 648.80
  L 725.71 645.41
  L 724.88 642.08
  L 723.72 638.86
  L 722.25 635.75
  L 720.49 632.81
  L 718.45 630.06
  L 716.14 627.52
  L 713.60 625.21
  L 710.85 623.17
  L 707.91 621.41
  L 704.80 619.94
  L 701.58 618.78
  L 698.25 617.95
  L 694.86 617.45
  L 691.43 617.28
  L 330.02 617.28
  L 326.59 617.45
  L 323.20 617.95
  L 319.87 618.78
  L 316.65 619.94
  L 313.54 621.41
  L 310.60 623.17
  L 307.85 625.21
  L 305.31 627.52
  L 303.00 630.06
  L 300.96 632.81
  L 299.20 635.75
  L 297.73 638.86
  L 296.57 642.08
  L 295.74 645.41
  L 295.24 648.80
  L 295.07 652.23
  L 295.07 760.76"
/>
<path stroke="#808080" vector-effect="non-scaling-stroke" d="
  M 726.50 538.12
  L 726.50 538.14
  L 726.65 538.45
  L 726.98 538.55
  L 732.75 537.80
  L 738.39 536.72
  L 743.98 535.30
  L 749.41 533.57
  L 753.78 531.91
  L 758.04 530.05
  L 762.27 527.96
  L 766.37 525.67
  L 770.35 523.20
  L 774.19 520.54
  L 777.97 517.65
  L 781.60 514.60
  L 785.12 511.34
  L 788.48 507.92
  L 791.68 504.36
  L 794.71 500.65
  L 797.59 496.76
  L 800.29 492.75
  L 802.81 488.62
  L 805.15 484.37
  L 807.28 480.03
  L 809.22 475.58
  L 810.96 471.05
  L 812.50 466.45
  L 813.81 461.82
  L 814.91 457.13
  L 815.80 452.38
  L 816.46 447.60
  L 816.91 442.82
  L 817.13 438.02
  L 817.12 433.30
  L 816.90 428.57
  L 816.45 423.84
  L 815.78 419.11
  L 814.90 414.49
  L 813.79 409.89
  L 811.73 403.13
  L 809.16 396.45
  L 805.79 389.25
  L 801.97 382.44
  L 797.66 375.93
  L 792.95 369.84
  L 787.79 364.14
  L 782.25 358.89
  L 776.36 354.10
  L 770.13 349.79
  L 763.49 345.92
  L 756.54 342.57
  L 749.32 339.76
  L 741.84 337.50
  L 734.20 335.81
  L 726.35 334.70
  L 718.43 334.18
  L 710.34 334.24
  L 703.36 334.38
  L 701.13 334.26
  L 699.74 334.03
  L 697.83 333.33
  L 696.09 332.46
  L 694.53 331.42
  L 693.13 330.21
  L 693.13 330.21
  L 693.13 330.21
  L 693.13 330.21
  L 691.10 327.69
  L 689.59 324.65
  L 689.25 323.22
  L 688.99 320.84
  L 688.65 313.27
  L 688.43 307.95
  L 688.00 302.70
  L 687.37 297.53
  L 686.53 292.44
  L 685.47 287.43
  L 684.22 282.49
  L 682.75 277.64
  L 681.07 272.86
  L 681.07 272.86
  L 681.07 272.86
  L 681.07 272.86
  L 678.05 265.58
  L 674.53 258.49
  L 671.61 253.37
  L 668.47 248.39
  L 665.10 243.54
  L 661.53 238.86
  L 657.75 234.33
  L 653.77 229.97
  L 649.61 225.79
  L 645.27 221.80
  L 640.77 218.02
  L 636.11 214.45
  L 631.30 211.08
  L 626.33 207.93
  L 621.26 205.03
  L 616.05 202.36
  L 610.81 199.98
  L 605.46 197.83
  L 595.96 194.65
  L 586.26 192.13
  L 576.55 190.34
  L 566.74 189.24
  L 557.03 188.88
  L 547.52 189.23
  L 538.07 190.32
  L 528.89 192.12
  L 521.27 194.16
  L 513.76 196.62
  L 506.39 199.48
  L 499.19 202.74
  L 492.19 206.39
  L 485.41 210.42
  L 478.96 214.76
  L 472.77 219.45
  L 466.94 224.42
  L 461.42 229.70
  L 456.29 235.23
  L 451.51 241.05
  L 447.19 247.02
  L 443.23 253.26
  L 439.73 259.65
  L 436.63 266.28
  L 433.92 271.93
  L 432.73 273.86
  L 431.66 275.18
  L 428.77 277.56
  L 425.75 279.08
  L 423.03 279.78
  L 419.96 279.96
  L 416.64 279.63
  L 412.88 278.78
  L 407.68 277.50
  L 401.71 276.32
  L 393.90 275.29
  L 386.11 274.95
  L 378.21 275.27
  L 370.42 276.26
  L 362.59 277.93
  L 354.95 280.23
  L 347.43 283.20
  L 340.18 286.76
  L 333.21 290.92
  L 326.59 295.63
  L 320.37 300.87
  L 314.59 306.60
  L 309.39 312.69
  L 304.69 319.20
  L 300.59 326.00
  L 297.06 333.17
  L 295.34 336.67
  L 293.55 339.46
  L 291.60 341.65
  L 289.47 343.32
  L 287.73 344.26
  L 285.78 344.99
  L 282.74 345.61
  L 278.08 346.05
  L 274.43 346.39
  L 269.49 347.24
  L 264.68 348.30
  L 260.00 349.57
  L 255.44 351.05
  L 251.01 352.74
  L 246.71 354.63
  L 242.53 356.74
  L 238.48 359.05
  L 238.48 359.05
  L 238.48 359.05
  L 238.48 359.05
  L 231.70 363.60
  L 225.31 368.78
  L 221.77 372.07
  L 218.42 375.45
  L 215.27 378.94
  L 212.32 382.52
  L 209.57 386.21
  L 207.01 390.00
  L 204.65 393.89
  L 202.49 397.88
  L 202.49 397.88
  L 202.49 397.88
  L 200.31 402.46
  L 198.37 407.17
  L 196.68 412.00
  L 195.24 416.95
  L 194.04 422.04
  L 193.09 427.25
  L 192.39 432.58
  L 191.93 438.04
  L 191.77 446.26
  L 192.30 454.35
  L 193.49 462.38
  L 195.35 470.22
  L 196.94 475.33
  L 198.81 480.33
  L 200.95 485.21
  L 203.35 489.96
  L 206.03 494.61
  L 208.96 499.11
  L 212.14 503.44
  L 215.56 507.61
  L 219.20 511.57
  L 223.06 515.35
  L 227.13 518.94
  L 231.42 522.31
  L 235.89 525.47
  L 240.56 528.40
  L 245.33 531.05
  L 250.27 533.47
  L 255.02 535.48
  L 259.84 537.20
  L 264.71 538.61
  L 269.64 539.72
  L 269.64 539.72
  L 269.64 539.72
  L 269.64 539.72
  L 275.06 540.59
  L 280.55 541.10
  L 286.11 541.26
  L 291.74 541.06
  L 294.70 540.61
  L 295.07 540.36
  L 295.21 539.94
  L 295.30 453.27
  L 295.58 448.79
  L 296.36 444.45
  L 297.66 440.21
  L 299.44 436.21
  L 301.68 432.48
  L 304.35 429.08
  L 307.37 426.11
  L 310.76 423.53
  L 314.65 421.31
  L 318.91 419.60
  L 321.80 418.95
  L 325.91 418.49
  L 331.24 418.21
  L 337.79 418.12
  L 691.74 418.15
  L 696.80 418.44
  L 701.51 419.31
  L 705.88 420.75
  L 709.89 422.77
  L 709.89 422.77
  L 709.89 422.77
  L 713.05 424.95
  L 715.95 427.55
  L 718.59 430.57
  L 720.99 434.01
  L 723.32 438.28
  L 725.00 442.55
  L 726.02 446.81
  L 726.38 451.06
  L 726.50 538.12"
/>
<path stroke="#808080" vector-effect="non-scaling-stroke" d="
  M 697.37 453.30
  L 697.26 452.21
  L 696.95 451.17
  L 696.43 450.21
  L 695.74 449.36
  L 694.89 448.67
  L 693.93 448.15
  L 692.89 447.84
  L 691.80 447.73
  L 330.36 447.73
  L 329.27 447.84
  L 328.23 448.15
  L 327.27 448.67
  L 326.42 449.36
  L 325.73 450.21
  L 325.21 451.17
  L 324.90 452.21
  L 324.79 453.30
  L 324.79 561.28
  L 324.90 562.37
  L 325.21 563.41
  L 325.73 564.37
  L 326.42 565.22
  L 327.27 565.91
  L 328.23 566.43
  L 329.27 566.74
  L 330.36 566.85
  L 691.80 566.85
  L 692.89 566.74
  L 693.93 566.43
  L 694.89 565.91
  L 695.74 565.22
  L 696.43 564.37
  L 696.95 563.41
  L 697.26 562.37
  L 697.37 561.28
  L 697.37 453.30"
/>
<path stroke="#808080" vector-effect="non-scaling-stroke" d="
  M 425.31 506.86
  L 425.13 503.14
  L 424.58 499.46
  L 423.68 495.84
  L 422.42 492.34
  L 420.83 488.97
  L 418.91 485.78
  L 416.70 482.78
  L 414.19 480.03
  L 411.44 477.52
  L 408.44 475.31
  L 405.25 473.39
  L 401.88 471.80
  L 398.38 470.54
  L 394.76 469.64
  L 391.08 469.09
  L 387.36 468.91
  L 383.64 469.09
  L 379.96 469.64
  L 376.34 470.54
  L 372.84 471.80
  L 369.47 473.39
  L 366.28 475.31
  L 363.28 477.52
  L 360.53 480.03
  L 358.02 482.78
  L 355.81 485.78
  L 353.89 488.97
  L 352.30 492.34
  L 351.04 495.84
  L 350.14 499.46
  L 349.59 503.14
  L 349.41 506.86
  L 349.59 510.58
  L 350.14 514.26
  L 351.04 517.88
  L 352.30 521.38
  L 353.89 524.75
  L 355.81 527.94
  L 358.02 530.94
  L 360.53 533.69
  L 363.28 536.20
  L 366.28 538.41
  L 369.47 540.33
  L 372.84 541.92
  L 376.34 543.18
  L 379.96 544.08
  L 383.64 544.63
  L 387.36 544.81
  L 391.08 544.63
  L 394.76 544.08
  L 398.38 543.18
  L 401.88 541.92
  L 405.25 540.33
  L 408.44 538.41
  L 411.44 536.20
  L 414.19 533.69
  L 416.70 530.94
  L 418.91 527.94
  L 420.83 524.75
  L 422.42 521.38
  L 423.68 517.88
  L 424.58 514.26
  L 425.13 510.58
  L 425.31 506.86"
/>
<path stroke="#808080" vector-effect="non-scaling-stroke" d="
  M 527.72 506.99
  L 527.54 503.28
  L 526.99 499.60
  L 526.09 495.99
  L 524.84 492.49
  L 523.25 489.13
  L 521.33 485.94
  L 519.12 482.95
  L 516.62 480.20
  L 513.87 477.70
  L 510.88 475.49
  L 507.69 473.57
  L 504.33 471.98
  L 500.83 470.73
  L 497.22 469.83
  L 493.54 469.28
  L 489.83 469.10
  L 486.12 469.28
  L 482.44 469.83
  L 478.83 470.73
  L 475.33 471.98
  L 471.97 473.57
  L 468.78 475.49
  L 465.79 477.70
  L 463.04 480.20
  L 460.54 482.95
  L 458.33 485.94
  L 456.41 489.13
  L 454.82 492.49
  L 453.57 495.99
  L 452.67 499.60
  L 452.12 503.28
  L 451.94 506.99
  L 452.12 510.70
  L 452.67 514.38
  L 453.57 517.99
  L 454.82 521.49
  L 456.41 524.85
  L 458.33 528.04
  L 460.54 531.03
  L 463.04 533.78
  L 465.79 536.28
  L 468.78 538.49
  L 471.97 540.41
  L 475.33 542.00
  L 478.83 543.25
  L 482.44 544.15
  L 486.12 544.70
  L 489.83 544.88
  L 493.54 544.70
  L 497.22 544.15
  L 500.83 543.25
  L 504.33 542.00
  L 507.69 540.41
  L 510.88 538.49
  L 513.87 536.28
  L 516.62 533.78
  L 519.12 531.03
  L 521.33 528.04
  L 523.25 524.85
  L 524.84 521.49
  L 526.09 517.99
  L 526.99 514.38
  L 527.54 510.70
  L 527.72 506.99"
/>
<path stroke="#808080" vector-effect="non-scaling-stroke" d="
  M 670.3405 506.9586
  L 670.0940 504.4103
  L 669.3551 501.9590
  L 668.1522 499.6990
  L 666.5314 497.7171
  L 664.5552 496.0895
  L 662.2994 494.8787
  L 659.8507 494.1312
  L 657.3033 493.8758
  L 570.4634 493.7242
  L 567.9151 493.9707
  L 565.4639 494.7096
  L 563.2039 495.9126
  L 561.2220 497.5333
  L 559.5943 499.5095
  L 558.3835 501.7653
  L 557.6361 504.2140
  L 557.3807 506.7614
  L 557.3795 507.4214
  L 557.6260 509.9697
  L 558.3649 512.4210
  L 559.5678 514.6810
  L 561.1886 516.6629
  L 563.1648 518.2905
  L 565.4206 519.5013
  L 567.8693 520.2488
  L 570.4167 520.5042
  L 657.2566 520.6558
  L 659.8049 520.4093
  L 662.2561 519.6704
  L 664.5161 518.4674
  L 666.4980 516.8467
  L 668.1257 514.8705
  L 669.3365 512.6147
  L 670.0839 510.1660
  L 670.3393 507.6186
  L 670.3405 506.9586"
/>
<path stroke="#808080" vector-effect="non-scaling-stroke" d="
  M 396.17 507.15
  L 396.00 505.38
  L 395.48 503.68
  L 394.64 502.11
  L 393.51 500.74
  L 392.14 499.61
  L 390.57 498.77
  L 388.87 498.25
  L 387.10 498.08
  L 385.33 498.25
  L 383.63 498.77
  L 382.06 499.61
  L 380.69 500.74
  L 379.56 502.11
  L 378.72 503.68
  L 378.20 505.38
  L 378.03 507.15
  L 378.20 508.92
  L 378.72 510.62
  L 379.56 512.19
  L 380.69 513.56
  L 382.06 514.69
  L 383.63 515.53
  L 385.33 516.05
  L 387.10 516.22
  L 388.87 516.05
  L 390.57 515.53
  L 392.14 514.69
  L 393.51 513.56
  L 394.64 512.19
  L 395.48 510.62
  L 396.00 508.92
  L 396.17 507.15"
/>
<path stroke="#808080" vector-effect="non-scaling-stroke" d="
  M 498.83 507.14
  L 498.66 505.37
  L 498.14 503.67
  L 497.30 502.11
  L 496.18 500.73
  L 494.80 499.61
  L 493.24 498.77
  L 491.54 498.25
  L 489.77 498.08
  L 488.00 498.25
  L 486.30 498.77
  L 484.74 499.61
  L 483.36 500.73
  L 482.24 502.11
  L 481.40 503.67
  L 480.88 505.37
  L 480.71 507.14
  L 480.88 508.91
  L 481.40 510.61
  L 482.24 512.17
  L 483.36 513.55
  L 484.74 514.67
  L 486.30 515.51
  L 488.00 516.03
  L 489.77 516.20
  L 491.54 516.03
  L 493.24 515.51
  L 494.80 514.67
  L 496.18 513.55
  L 497.30 512.17
  L 498.14 510.61
  L 498.66 508.91
  L 498.83 507.14"
/>
<path stroke="#808080" vector-effect="non-scaling-stroke" d="
  M 697.11 652.18
  L 696.72 650.22
  L 695.61 648.57
  L 693.96 647.46
  L 692.00 647.07
  L 329.84 647.07
  L 327.88 647.46
  L 326.23 648.57
  L 325.12 650.22
  L 324.73 652.18
  L 324.73 760.80
  L 325.12 762.76
  L 326.23 764.41
  L 327.88 765.52
  L 329.84 765.91
  L 692.00 765.91
  L 693.96 765.52
  L 695.61 764.41
  L 696.72 762.76
  L 697.11 760.80
  L 697.11 652.18"
/>
<path stroke="#808080" vector-effect="non-scaling-stroke" d="
  M 425.23 706.47
  L 425.05 702.76
  L 424.50 699.08
  L 423.60 695.47
  L 422.35 691.97
  L 420.75 688.60
  L 418.84 685.41
  L 416.63 682.43
  L 414.13 679.67
  L 411.37 677.17
  L 408.39 674.96
  L 405.20 673.05
  L 401.83 671.45
  L 398.33 670.20
  L 394.72 669.30
  L 391.04 668.75
  L 387.33 668.57
  L 383.62 668.75
  L 379.94 669.30
  L 376.33 670.20
  L 372.83 671.45
  L 369.46 673.05
  L 366.27 674.96
  L 363.29 677.17
  L 360.53 679.67
  L 358.03 682.43
  L 355.82 685.41
  L 353.91 688.60
  L 352.31 691.97
  L 351.06 695.47
  L 350.16 699.08
  L 349.61 702.76
  L 349.43 706.47
  L 349.61 710.18
  L 350.16 713.86
  L 351.06 717.47
  L 352.31 720.97
  L 353.91 724.34
  L 355.82 727.53
  L 358.03 730.51
  L 360.53 733.27
  L 363.29 735.77
  L 366.27 737.98
  L 369.46 739.89
  L 372.83 741.49
  L 376.33 742.74
  L 379.94 743.64
  L 383.62 744.19
  L 387.33 744.37
  L 391.04 744.19
  L 394.72 743.64
  L 398.33 742.74
  L 401.83 741.49
  L 405.20 739.89
  L 408.39 737.98
  L 411.37 735.77
  L 414.13 733.27
  L 416.63 730.51
  L 418.84 727.53
  L 420.75 724.34
  L 422.35 720.97
  L 423.60 717.47
  L 424.50 713.86
  L 425.05 710.18
  L 425.23 706.47"
/>
<path stroke="#808080" vector-effect="non-scaling-stroke" d="
  M 527.71 706.41
  L 527.53 702.70
  L 526.98 699.02
  L 526.08 695.42
  L 524.83 691.92
  L 523.24 688.56
  L 521.33 685.38
  L 519.12 682.39
  L 516.62 679.64
  L 513.87 677.14
  L 510.88 674.93
  L 507.70 673.02
  L 504.34 671.43
  L 500.84 670.18
  L 497.24 669.28
  L 493.56 668.73
  L 489.85 668.55
  L 486.14 668.73
  L 482.46 669.28
  L 478.86 670.18
  L 475.36 671.43
  L 472.00 673.02
  L 468.82 674.93
  L 465.83 677.14
  L 463.08 679.64
  L 460.58 682.39
  L 458.37 685.38
  L 456.46 688.56
  L 454.87 691.92
  L 453.62 695.42
  L 452.72 699.02
  L 452.17 702.70
  L 451.99 706.41
  L 452.17 710.12
  L 452.72 713.80
  L 453.62 717.40
  L 454.87 720.90
  L 456.46 724.26
  L 458.37 727.44
  L 460.58 730.43
  L 463.08 733.18
  L 465.83 735.68
  L 468.82 737.89
  L 472.00 739.80
  L 475.36 741.39
  L 478.86 742.64
  L 482.46 743.54
  L 486.14 744.09
  L 489.85 744.27
  L 493.56 744.09
  L 497.24 743.54
  L 500.84 742.64
  L 504.34 741.39
  L 507.70 739.80
  L 510.88 737.89
  L 513.87 735.68
  L 516.62 733.18
  L 519.12 730.43
  L 521.33 727.44
  L 523.24 724.26
  L 524.83 720.90
  L 526.08 717.40
  L 526.98 713.80
  L 527.53 710.12
  L 527.71 706.41"
/>
<path stroke="#808080" vector-effect="non-scaling-stroke" d="
  M 669.52 706.00
  L 669.27 703.46
  L 668.53 701.02
  L 667.33 698.77
  L 665.71 696.79
  L 663.73 695.17
  L 661.48 693.97
  L 659.04 693.23
  L 656.50 692.98
  L 570.06 692.98
  L 567.52 693.23
  L 565.08 693.97
  L 562.83 695.17
  L 560.85 696.79
  L 559.23 698.77
  L 558.03 701.02
  L 557.29 703.46
  L 557.04 706.00
  L 557.04 706.68
  L 557.29 709.22
  L 558.03 711.66
  L 559.23 713.91
  L 560.85 715.89
  L 562.83 717.51
  L 565.08 718.71
  L 567.52 719.45
  L 570.06 719.70
  L 656.50 719.70
  L 659.04 719.45
  L 661.48 718.71
  L 663.73 717.51
  L 665.71 715.89
  L 667.33 713.91
  L 668.53 711.66
  L 669.27 709.22
  L 669.52 706.68
  L 669.52 706.00"
/>
<path stroke="#808080" vector-effect="non-scaling-stroke" d="
  M 396.20 706.84
  L 396.03 705.07
  L 395.51 703.37
  L 394.67 701.80
  L 393.54 700.42
  L 392.16 699.29
  L 390.59 698.45
  L 388.89 697.93
  L 387.12 697.76
  L 385.35 697.93
  L 383.65 698.45
  L 382.08 699.29
  L 380.70 700.42
  L 379.57 701.80
  L 378.73 703.37
  L 378.21 705.07
  L 378.04 706.84
  L 378.21 708.61
  L 378.73 710.31
  L 379.57 711.88
  L 380.70 713.26
  L 382.08 714.39
  L 383.65 715.23
  L 385.35 715.75
  L 387.12 715.92
  L 388.89 715.75
  L 390.59 715.23
  L 392.16 714.39
  L 393.54 713.26
  L 394.67 711.88
  L 395.51 710.31
  L 396.03 708.61
  L 396.20 706.84"
/>
<path stroke="#808080" vector-effect="non-scaling-stroke" d="
  M 498.83 706.90
  L 498.66 705.13
  L 498.14 703.43
  L 497.30 701.86
  L 496.17 700.48
  L 494.79 699.35
  L 493.22 698.51
  L 491.52 697.99
  L 489.75 697.82
  L 487.98 697.99
  L 486.28 698.51
  L 484.71 699.35
  L 483.33 700.48
  L 482.20 701.86
  L 481.36 703.43
  L 480.84 705.13
  L 480.67 706.90
  L 480.84 708.67
  L 481.36 710.37
  L 482.20 711.94
  L 483.33 713.32
  L 484.71 714.45
  L 486.28 715.29
  L 487.98 715.81
  L 489.75 715.98
  L 491.52 715.81
  L 493.22 715.29
  L 494.79 714.45
  L 496.17 713.32
  L 497.30 711.94
  L 498.14 710.37
  L 498.66 708.67
  L 498.83 706.90"
/>
</g>
<g fill="#ffffff">
<path d="
  M 526.08 1006.00
  L 491.35 1006.00
  L 474.00 1004.93
  L 456.70 1003.34
  L 456.70 1003.34
  L 436.77 1000.85
  L 425.63 999.14
  L 414.57 997.21
  L 403.59 995.05
  L 392.69 992.66
  L 381.87 990.05
  L 371.14 987.21
  L 360.48 984.14
  L 349.90 980.85
  L 337.86 976.79
  L 325.95 972.44
  L 314.17 967.78
  L 302.51 962.84
  L 302.51 962.84
  L 302.51 962.84
  L 287.46 955.92
  L 272.64 948.49
  L 258.03 940.55
  L 243.65 932.11
  L 232.31 925.00
  L 221.20 917.64
  L 210.33 910.03
  L 199.69 902.17
  L 189.29 894.06
  L 179.12 885.70
  L 169.19 877.09
  L 159.50 868.22
  L 159.50 868.22
  L 159.50 868.22
  L 149.72 858.79
  L 140.19 849.09
  L 129.74 837.84
  L 119.69 826.37
  L 110.03 814.67
  L 100.76 802.74
  L 91.89 790.59
  L 83.41 778.20
  L 75.32 765.59
  L 67.62 752.75
  L 67.62 752.75
  L 67.62 752.75
  L 62.29 743.30
  L 57.16 733.73
  L 52.24 724.05
  L 47.53 714.24
  L 43.02 704.31
  L 38.72 694.26
  L 34.63 684.10
  L 30.74 673.81
  L 27.19 663.79
  L 23.87 653.74
  L 20.78 643.64
  L 17.91 633.50
  L 15.27 623.32
  L 12.86 613.10
  L 10.67 602.84
  L 8.71 592.54
  L 8.71 592.54
  L 5.84 574.63
  L 3.66 556.61
  L 3.04 549.40
  L 3.00 548.51
  L 2.36 544.62
  L 2.15 540.44
  L 1.68 532.26
  L 1.19 524.75
  L 0.88 499.37
  L 1.27 474.50
  L 1.66 469.51
  L 2.08 463.49
  L 2.24 458.90
  L 2.63 455.49
  L 3.13 450.22
  L 3.38 446.74
  L 3.81 444.16
  L 4.12 441.03
  L 4.28 438.55
  L 6.43 423.65
  L 8.86 409.42
  L 11.57 395.88
  L 14.56 383.01
  L 18.78 367.29
  L 23.61 351.31
  L 29.05 335.07
  L 35.11 318.57
  L 42.19 301.15
  L 50.02 283.87
  L 58.62 266.73
  L 67.98 249.72
  L 75.88 236.46
  L 84.17 223.49
  L 92.85 210.81
  L 101.91 198.43
  L 101.91 198.43
  L 111.54 186.13
  L 121.56 174.13
  L 131.98 162.43
  L 142.81 151.04
  L 155.31 138.78
  L 168.53 126.71
  L 182.48 114.85
  L 197.16 103.18
  L 211.84 92.34
  L 226.89 82.09
  L 242.14 72.54
  L 257.77 63.56
  L 266.87 58.68
  L 276.03 53.99
  L 285.27 49.50
  L 294.57 45.20
  L 303.94 41.10
  L 313.39 37.20
  L 322.90 33.48
  L 332.48 29.97
  L 332.48 29.97
  L 332.48 29.97
  L 332.48 29.97
  L 346.50 25.21
  L 360.68 20.86
  L 374.99 16.92
  L 389.46 13.40
  L 404.07 10.28
  L 418.82 7.57
  L 433.72 5.28
  L 448.77 3.39
  L 453.89 2.99
  L 457.01 2.61
  L 461.38 2.15
  L 469.16 1.63
  L 474.27 1.20
  L 477.89 1.12
  L 489.25 0.61
  L 498.39 0.25
  L 507.84 0.17
  L 517.60 0.36
  L 527.67 0.83
  L 534.83 1.11
  L 543.56 1.66
  L 550.17 2.11
  L 554.29 2.37
  L 558.48 2.97
  L 559.86 3.09
  L 563.62 3.26
  L 567.09 3.91
  L 568.01 4.02
  L 573.53 4.45
  L 587.30 6.48
  L 600.68 8.76
  L 613.66 11.29
  L 626.24 14.08
  L 645.46 19.00
  L 664.39 24.63
  L 683.03 30.97
  L 701.38 38.03
  L 701.38 38.03
  L 701.38 38.03
  L 701.38 38.03
  L 715.00 43.82
  L 728.46 50.01
  L 741.76 56.61
  L 754.89 63.61
  L 771.16 72.98
  L 787.00 82.91
  L 802.41 93.40
  L 817.40 104.44
  L 817.40 104.44
  L 817.40 104.44
  L 817.40 104.44
  L 830.61 114.93
  L 843.48 125.88
  L 855.99 137.28
  L 868.16 149.14
  L 874.90 156.27
  L 879.65 161.32
  L 883.87 165.75
  L 893.17 176.48
  L 902.10 187.34
  L 910.66 198.33
  L 918.85 209.47
  L 926.67 220.74
  L 934.12 232.14
  L 941.20 243.68
  L 947.91 255.36
  L 954.84 268.25
  L 961.38 281.26
  L 967.51 294.39
  L 973.25 307.63
  L 978.59 320.98
  L 983.53 334.44
  L 988.07 348.02
  L 992.21 361.72
  L 992.21 361.72
  L 992.21 361.72
  L 992.21 361.72
  L 995.41 373.41
  L 998.32 385.17
  L 1000.95 397.03
  L 1003.29 408.96
  L 1005.35 420.97
  L 1007.12 433.07
  L 1008.60 445.25
  L 1009.80 457.51
  L 1010.14 461.48
  L 1010.60 466.13
  L 1010.84 471.48
  L 1011.26 481.51
  L 1011.66 490.66
  L 1011.81 499.75
  L 1011.70 508.78
  L 1011.35 517.75
  L 1010.91 527.15
  L 1010.82 531.25
  L 1010.37 535.83
  L 1010.02 539.60
  L 1009.82 544.52
  L 1009.67 547.08
  L 1009.36 548.89
  L 1009.06 550.62
  L 1008.93 552.93
  L 1008.83 554.72
  L 1007.00 570.02
  L 1004.74 585.17
  L 1002.05 600.16
  L 998.92 614.99
  L 995.36 629.67
  L 991.36 644.19
  L 986.93 658.55
  L 982.07 672.76
  L 982.07 672.76
  L 982.07 672.76
  L 975.02 691.20
  L 967.22 709.36
  L 958.68 727.25
  L 949.38 744.88
  L 940.49 760.30
  L 931.05 775.37
  L 921.45 789.55
  L 911.34 803.40
  L 900.73 816.92
  L 889.61 830.11
  L 881.91 838.74
  L 874.05 847.18
  L 866.03 855.42
  L 857.85 863.47
  L 849.51 871.32
  L 841.02 878.97
  L 832.36 886.42
  L 823.55 893.68
  L 823.55 893.68
  L 814.26 900.98
  L 804.80 908.08
  L 795.16 914.96
  L 785.36 921.64
  L 775.39 928.10
  L 765.25 934.35
  L 754.93 940.39
  L 744.45 946.22
  L 730.80 953.33
  L 716.83 960.04
  L 702.56 966.35
  L 687.98 972.26
  L 674.94 977.11
  L 661.85 981.57
  L 648.70 985.65
  L 635.50 989.35
  L 622.24 992.67
  L 608.92 995.60
  L 595.54 998.15
  L 582.11 1000.31
  L 582.11 1000.31
  L 582.11 1000.31
  L 571.49 1001.75
  L 569.30 1002.05
  L 566.18 1002.70
  L 562.55 1002.92
  L 561.46 1003.06
  L 554.49 1003.87
  L 549.25 1004.35
  L 526.08 1006.00
  Z
  M 717.84 304.83
  L 716.82 296.13
  L 715.40 287.64
  L 713.60 279.37
  L 711.41 271.32
  L 708.82 263.49
  L 705.85 255.88
  L 702.48 248.49
  L 698.72 241.31
  L 698.72 241.31
  L 698.72 241.31
  L 698.72 241.31
  L 698.72 241.31
  L 693.40 232.52
  L 687.44 224.09
  L 680.86 216.00
  L 673.65 208.27
  L 669.38 204.14
  L 664.96 200.17
  L 660.40 196.37
  L 655.69 192.73
  L 650.81 189.23
  L 645.80 185.91
  L 640.67 182.77
  L 635.44 179.82
  L 630.09 177.05
  L 624.66 174.48
  L 619.13 172.10
  L 613.53 169.93
  L 607.90 167.98
  L 602.20 166.23
  L 596.45 164.69
  L 590.65 163.37
  L 579.59 161.45
  L 568.54 160.29
  L 557.38 159.87
  L 546.31 160.21
  L 535.20 161.31
  L 524.26 163.14
  L 513.40 165.73
  L 502.78 169.05
  L 492.43 173.07
  L 482.40 177.77
  L 472.70 183.16
  L 463.39 189.20
  L 454.58 195.84
  L 446.21 203.09
  L 438.41 210.86
  L 431.13 219.21
  L 425.92 225.98
  L 421.04 233.08
  L 416.58 240.41
  L 412.48 248.04
  L 412.11 248.41
  L 411.60 248.48
  L 404.86 247.43
  L 398.20 246.69
  L 391.60 246.28
  L 385.07 246.18
  L 378.60 246.40
  L 372.21 246.93
  L 365.88 247.79
  L 359.62 248.96
  L 359.62 248.96
  L 359.62 248.96
  L 352.74 250.64
  L 345.95 252.71
  L 339.24 255.17
  L 332.61 258.03
  L 327.08 260.76
  L 321.72 263.73
  L 316.53 266.95
  L 311.53 270.39
  L 305.48 275.06
  L 299.74 280.08
  L 294.30 285.44
  L 289.19 291.12
  L 284.37 297.15
  L 279.90 303.49
  L 275.78 310.12
  L 272.02 317.02
  L 271.64 317.46
  L 271.11 317.68
  L 264.07 318.91
  L 257.19 320.47
  L 250.45 322.37
  L 243.87 324.60
  L 237.49 327.15
  L 231.27 330.04
  L 225.32 333.22
  L 219.54 336.74
  L 213.09 341.21
  L 206.90 346.12
  L 201.03 351.42
  L 195.43 357.15
  L 193.35 359.47
  L 187.54 366.64
  L 182.32 374.15
  L 177.62 382.08
  L 173.53 390.30
  L 170.01 398.87
  L 167.13 407.65
  L 164.87 416.69
  L 163.26 425.87
  L 162.32 435.11
  L 162.04 444.39
  L 162.43 453.68
  L 163.50 462.95
  L 165.20 471.98
  L 167.57 480.91
  L 170.55 489.58
  L 174.19 498.07
  L 176.68 503.01
  L 179.40 507.85
  L 182.41 512.67
  L 185.63 517.36
  L 189.14 522.01
  L 192.83 526.51
  L 196.76 530.90
  L 200.84 535.10
  L 206.40 540.28
  L 212.20 545.08
  L 218.23 549.49
  L 224.47 553.51
  L 230.88 557.10
  L 237.49 560.29
  L 244.27 563.06
  L 251.23 565.41
  L 258.53 567.37
  L 266.00 568.86
  L 273.50 569.86
  L 281.14 570.40
  L 284.56 570.40
  L 289.53 570.15
  L 295.60 569.87
  L 296.09 570.03
  L 296.39 570.46
  L 298.05 575.02
  L 300.25 579.24
  L 300.25 579.24
  L 302.51 582.52
  L 305.15 585.57
  L 307.62 587.92
  L 310.22 589.97
  L 312.95 591.74
  L 315.81 593.22
  L 315.81 593.22
  L 315.81 593.22
  L 319.28 594.57
  L 322.92 595.53
  L 326.74 596.11
  L 330.74 596.30
  L 692.00 596.29
  L 694.76 596.18
  L 697.44 595.85
  L 700.14 595.29
  L 702.75 594.52
  L 706.83 592.80
  L 710.61 590.57
  L 714.13 587.80
  L 717.27 584.59
  L 720.02 580.94
  L 722.31 576.93
  L 724.07 572.71
  L 725.33 568.23
  L 725.54 567.87
  L 725.93 567.70
  L 731.66 567.11
  L 737.29 566.31
  L 742.82 565.28
  L 748.26 564.03
  L 753.59 562.56
  L 758.82 560.87
  L 763.96 558.96
  L 768.99 556.83
  L 768.99 556.83
  L 768.99 556.83
  L 768.99 556.83
  L 775.49 553.68
  L 781.82 550.14
  L 787.98 546.22
  L 793.96 541.91
  L 798.33 538.42
  L 802.55 534.74
  L 806.68 530.81
  L 810.64 526.70
  L 814.44 522.41
  L 818.06 517.97
  L 821.49 513.37
  L 824.72 508.63
  L 827.78 503.74
  L 830.63 498.72
  L 833.27 493.59
  L 835.70 488.36
  L 837.88 483.09
  L 839.84 477.73
  L 841.57 472.30
  L 843.07 466.81
  L 844.40 460.87
  L 845.45 454.87
  L 846.21 448.84
  L 846.68 442.77
  L 846.87 436.64
  L 846.77 430.50
  L 846.39 424.37
  L 845.71 418.27
  L 844.76 412.21
  L 843.53 406.20
  L 842.02 400.26
  L 840.22 394.38
  L 838.16 388.61
  L 835.82 382.94
  L 833.26 377.46
  L 830.43 372.11
  L 826.46 365.50
  L 822.09 359.14
  L 817.26 352.95
  L 812.07 347.05
  L 806.52 341.46
  L 800.64 336.19
  L 794.47 331.27
  L 788.01 326.72
  L 781.34 322.59
  L 774.43 318.86
  L 767.41 315.60
  L 760.20 312.77
  L 752.97 310.43
  L 745.59 308.54
  L 738.22 307.15
  L 730.76 306.23
  L 718.34 305.31
  L 718.00 305.16
  L 717.84 304.83
  Z
  M 295.07 760.76
  L 295.24 764.19
  L 295.74 767.58
  L 296.57 770.91
  L 297.73 774.13
  L 299.20 777.24
  L 300.96 780.18
  L 303.00 782.93
  L 305.31 785.47
  L 307.85 787.78
  L 310.60 789.82
  L 313.54 791.58
  L 316.65 793.05
  L 319.87 794.21
  L 323.20 795.04
  L 326.59 795.54
  L 330.02 795.71
  L 691.43 795.71
  L 694.86 795.54
  L 698.25 795.04
  L 701.58 794.21
  L 704.80 793.05
  L 707.91 791.58
  L 710.85 789.82
  L 713.60 787.78
  L 716.14 785.47
  L 718.45 782.93
  L 720.49 780.18
  L 722.25 777.24
  L 723.72 774.13
  L 724.88 770.91
  L 725.71 767.58
  L 726.21 764.19
  L 726.38 760.76
  L 726.38 652.23
  L 726.21 648.80
  L 725.71 645.41
  L 724.88 642.08
  L 723.72 638.86
  L 722.25 635.75
  L 720.49 632.81
  L 718.45 630.06
  L 716.14 627.52
  L 713.60 625.21
  L 710.85 623.17
  L 707.91 621.41
  L 704.80 619.94
  L 701.58 618.78
  L 698.25 617.95
  L 694.86 617.45
  L 691.43 617.28
  L 330.02 617.28
  L 326.59 617.45
  L 323.20 617.95
  L 319.87 618.78
  L 316.65 619.94
  L 313.54 621.41
  L 310.60 623.17
  L 307.85 625.21
  L 305.31 627.52
  L 303.00 630.06
  L 300.96 632.81
  L 299.20 635.75
  L 297.73 638.86
  L 296.57 642.08
  L 295.74 645.41
  L 295.24 648.80
  L 295.07 652.23
  L 295.07 760.76
  Z"
/>
<path d="
  M 726.50 538.12
  L 726.38 451.06
  L 726.02 446.81
  L 725.00 442.55
  L 723.32 438.28
  L 720.99 434.01
  L 718.59 430.57
  L 715.95 427.55
  L 713.05 424.95
  L 709.89 422.77
  L 709.89 422.77
  L 709.89 422.77
  L 709.89 422.77
  L 705.88 420.75
  L 701.51 419.31
  L 696.80 418.44
  L 691.74 418.15
  L 337.79 418.12
  L 331.24 418.21
  L 325.91 418.49
  L 321.80 418.95
  L 318.91 419.60
  L 314.65 421.31
  L 310.76 423.53
  L 307.37 426.11
  L 304.35 429.08
  L 301.68 432.48
  L 299.44 436.21
  L 297.66 440.21
  L 296.36 444.45
  L 295.58 448.79
  L 295.30 453.27
  L 295.21 539.94
  L 295.07 540.36
  L 294.70 540.61
  L 291.74 541.06
  L 286.11 541.26
  L 280.55 541.10
  L 275.06 540.59
  L 269.64 539.72
  L 269.64 539.72
  L 264.71 538.61
  L 259.84 537.20
  L 255.02 535.48
  L 250.27 533.47
  L 245.33 531.05
  L 240.56 528.40
  L 235.89 525.47
  L 231.42 522.31
  L 227.13 518.94
  L 223.06 515.35
  L 219.20 511.57
  L 215.56 507.61
  L 212.14 503.44
  L 208.96 499.11
  L 206.03 494.61
  L 203.35 489.96
  L 200.95 485.21
  L 198.81 480.33
  L 196.94 475.33
  L 195.35 470.22
  L 193.49 462.38
  L 192.30 454.35
  L 191.77 446.26
  L 191.93 438.04
  L 192.39 432.58
  L 193.09 427.25
  L 194.04 422.04
  L 195.24 416.95
  L 196.68 412.00
  L 198.37 407.17
  L 200.31 402.46
  L 202.49 397.88
  L 202.49 397.88
  L 202.49 397.88
  L 204.65 393.89
  L 207.01 390.00
  L 209.57 386.21
  L 212.32 382.52
  L 215.27 378.94
  L 218.42 375.45
  L 221.77 372.07
  L 225.31 368.78
  L 231.70 363.60
  L 238.48 359.05
  L 238.48 359.05
  L 238.48 359.05
  L 238.48 359.05
  L 242.53 356.74
  L 246.71 354.63
  L 251.01 352.74
  L 255.44 351.05
  L 260.00 349.57
  L 264.68 348.30
  L 269.49 347.24
  L 274.43 346.39
  L 278.08 346.05
  L 282.74 345.61
  L 285.78 344.99
  L 287.73 344.26
  L 289.47 343.32
  L 291.60 341.65
  L 293.55 339.46
  L 295.34 336.67
  L 297.06 333.17
  L 300.59 326.00
  L 304.69 319.20
  L 309.39 312.69
  L 314.59 306.60
  L 320.37 300.87
  L 326.59 295.63
  L 333.21 290.92
  L 340.18 286.76
  L 347.43 283.20
  L 354.95 280.23
  L 362.59 277.93
  L 370.42 276.26
  L 378.21 275.27
  L 386.11 274.95
  L 393.90 275.29
  L 401.71 276.32
  L 407.68 277.50
  L 412.88 278.78
  L 416.64 279.63
  L 419.96 279.96
  L 423.03 279.78
  L 425.75 279.08
  L 428.77 277.56
  L 431.66 275.18
  L 432.73 273.86
  L 433.92 271.93
  L 436.63 266.28
  L 439.73 259.65
  L 443.23 253.26
  L 447.19 247.02
  L 451.51 241.05
  L 456.29 235.23
  L 461.42 229.70
  L 466.94 224.42
  L 472.77 219.45
  L 478.96 214.76
  L 485.41 210.42
  L 492.19 206.39
  L 499.19 202.74
  L 506.39 199.48
  L 513.76 196.62
  L 521.27 194.16
  L 528.89 192.12
  L 538.07 190.32
  L 547.52 189.23
  L 557.03 188.88
  L 566.74 189.24
  L 576.55 190.34
  L 586.26 192.13
  L 595.96 194.65
  L 605.46 197.83
  L 610.81 199.98
  L 616.05 202.36
  L 621.26 205.03
  L 626.33 207.93
  L 631.30 211.08
  L 636.11 214.45
  L 640.77 218.02
  L 645.27 221.80
  L 649.61 225.79
  L 653.77 229.97
  L 657.75 234.33
  L 661.53 238.86
  L 665.10 243.54
  L 668.47 248.39
  L 671.61 253.37
  L 674.53 258.49
  L 678.05 265.58
  L 681.07 272.86
  L 681.07 272.86
  L 681.07 272.86
  L 681.07 272.86
  L 682.75 277.64
  L 684.22 282.49
  L 685.47 287.43
  L 686.53 292.44
  L 687.37 297.53
  L 688.00 302.70
  L 688.43 307.95
  L 688.65 313.27
  L 688.99 320.84
  L 689.25 323.22
  L 689.59 324.65
  L 691.10 327.69
  L 693.13 330.21
  L 693.13 330.21
  L 693.13 330.21
  L 693.13 330.21
  L 694.53 331.42
  L 696.09 332.46
  L 697.83 333.33
  L 699.74 334.03
  L 701.13 334.26
  L 703.36 334.38
  L 710.34 334.24
  L 718.43 334.18
  L 726.35 334.70
  L 734.20 335.81
  L 741.84 337.50
  L 749.32 339.76
  L 756.54 342.57
  L 763.49 345.92
  L 770.13 349.79
  L 776.36 354.10
  L 782.25 358.89
  L 787.79 364.14
  L 792.95 369.84
  L 797.66 375.93
  L 801.97 382.44
  L 805.79 389.25
  L 809.16 396.45
  L 811.73 403.13
  L 813.79 409.89
  L 814.90 414.49
  L 815.78 419.11
  L 816.45 423.84
  L 816.90 428.57
  L 817.12 433.30
  L 817.13 438.02
  L 816.91 442.82
  L 816.46 447.60
  L 815.80 452.38
  L 814.91 457.13
  L 813.81 461.82
  L 812.50 466.45
  L 810.96 471.05
  L 809.22 475.58
  L 807.28 480.03
  L 805.15 484.37
  L 802.81 488.62
  L 800.29 492.75
  L 797.59 496.76
  L 794.71 500.65
  L 791.68 504.36
  L 788.48 507.92
  L 785.12 511.34
  L 781.60 514.60
  L 777.97 517.65
  L 774.19 520.54
  L 770.35 523.20
  L 766.37 525.67
  L 762.27 527.96
  L 758.04 530.05
  L 753.78 531.91
  L 749.41 533.57
  L 743.98 535.30
  L 738.39 536.72
  L 732.75 537.80
  L 726.98 538.55
  L 726.65 538.45
  L 726.50 538.14
  L 726.50 538.14
  L 726.50 538.12
  Z"
/>
<path d="
  M 697.37 561.28
  L 697.26 562.37
  L 696.95 563.41
  L 696.43 564.37
  L 695.74 565.22
  L 694.89 565.91
  L 693.93 566.43
  L 692.89 566.74
  L 691.80 566.85
  L 330.36 566.85
  L 329.27 566.74
  L 328.23 566.43
  L 327.27 565.91
  L 326.42 565.22
  L 325.73 564.37
  L 325.21 563.41
  L 324.90 562.37
  L 324.79 561.28
  L 324.79 453.30
  L 324.90 452.21
  L 325.21 451.17
  L 325.73 450.21
  L 326.42 449.36
  L 327.27 448.67
  L 328.23 448.15
  L 329.27 447.84
  L 330.36 447.73
  L 691.80 447.73
  L 692.89 447.84
  L 693.93 448.15
  L 694.89 448.67
  L 695.74 449.36
  L 696.43 450.21
  L 696.95 451.17
  L 697.26 452.21
  L 697.37 453.30
  L 697.37 561.28
  Z
  M 425.31 506.86
  L 425.13 503.14
  L 424.58 499.46
  L 423.68 495.84
  L 422.42 492.34
  L 420.83 488.97
  L 418.91 485.78
  L 416.70 482.78
  L 414.19 480.03
  L 411.44 477.52
  L 408.44 475.31
  L 405.25 473.39
  L 401.88 471.80
  L 398.38 470.54
  L 394.76 469.64
  L 391.08 469.09
  L 387.36 468.91
  L 383.64 469.09
  L 379.96 469.64
  L 376.34 470.54
  L 372.84 471.80
  L 369.47 473.39
  L 366.28 475.31
  L 363.28 477.52
  L 360.53 480.03
  L 358.02 482.78
  L 355.81 485.78
  L 353.89 488.97
  L 352.30 492.34
  L 351.04 495.84
  L 350.14 499.46
  L 349.59 503.14
  L 349.41 506.86
  L 349.59 510.58
  L 350.14 514.26
  L 351.04 517.88
  L 352.30 521.38
  L 353.89 524.75
  L 355.81 527.94
  L 358.02 530.94
  L 360.53 533.69
  L 363.28 536.20
  L 366.28 538.41
  L 369.47 540.33
  L 372.84 541.92
  L 376.34 543.18
  L 379.96 544.08
  L 383.64 544.63
  L 387.36 544.81
  L 391.08 544.63
  L 394.76 544.08
  L 398.38 543.18
  L 401.88 541.92
  L 405.25 540.33
  L 408.44 538.41
  L 411.44 536.20
  L 414.19 533.69
  L 416.70 530.94
  L 418.91 527.94
  L 420.83 524.75
  L 422.42 521.38
  L 423.68 517.88
  L 424.58 514.26
  L 425.13 510.58
  L 425.31 506.86
  Z
  M 527.72 506.99
  L 527.54 503.28
  L 526.99 499.60
  L 526.09 495.99
  L 524.84 492.49
  L 523.25 489.13
  L 521.33 485.94
  L 519.12 482.95
  L 516.62 480.20
  L 513.87 477.70
  L 510.88 475.49
  L 507.69 473.57
  L 504.33 471.98
  L 500.83 470.73
  L 497.22 469.83
  L 493.54 469.28
  L 489.83 469.10
  L 486.12 469.28
  L 482.44 469.83
  L 478.83 470.73
  L 475.33 471.98
  L 471.97 473.57
  L 468.78 475.49
  L 465.79 477.70
  L 463.04 480.20
  L 460.54 482.95
  L 458.33 485.94
  L 456.41 489.13
  L 454.82 492.49
  L 453.57 495.99
  L 452.67 499.60
  L 452.12 503.28
  L 451.94 506.99
  L 452.12 510.70
  L 452.67 514.38
  L 453.57 517.99
  L 454.82 521.49
  L 456.41 524.85
  L 458.33 528.04
  L 460.54 531.03
  L 463.04 533.78
  L 465.79 536.28
  L 468.78 538.49
  L 471.97 540.41
  L 475.33 542.00
  L 478.83 543.25
  L 482.44 544.15
  L 486.12 544.70
  L 489.83 544.88
  L 493.54 544.70
  L 497.22 544.15
  L 500.83 543.25
  L 504.33 542.00
  L 507.69 540.41
  L 510.88 538.49
  L 513.87 536.28
  L 516.62 533.78
  L 519.12 531.03
  L 521.33 528.04
  L 523.25 524.85
  L 524.84 521.49
  L 526.09 517.99
  L 526.99 514.38
  L 527.54 510.70
  L 527.72 506.99
  Z
  M 670.3405 506.9586
  L 670.0940 504.4103
  L 669.3551 501.9590
  L 668.1522 499.6990
  L 666.5314 497.7171
  L 664.5552 496.0895
  L 662.2994 494.8787
  L 659.8507 494.1312
  L 657.3033 493.8758
  L 570.4634 493.7242
  L 567.9151 493.9707
  L 565.4639 494.7096
  L 563.2039 495.9126
  L 561.2220 497.5333
  L 559.5943 499.5095
  L 558.3835 501.7653
  L 557.6361 504.2140
  L 557.3807 506.7614
  L 557.3795 507.4214
  L 557.6260 509.9697
  L 558.3649 512.4210
  L 559.5678 514.6810
  L 561.1886 516.6629
  L 563.1648 518.2905
  L 565.4206 519.5013
  L 567.8693 520.2488
  L 570.4167 520.5042
  L 657.2566 520.6558
  L 659.8049 520.4093
  L 662.2561 519.6704
  L 664.5161 518.4674
  L 666.4980 516.8467
  L 668.1257 514.8705
  L 669.3365 512.6147
  L 670.0839 510.1660
  L 670.3393 507.6186
  L 670.3405 506.9586
  Z"
/>
<circle cx="387.10" cy="507.15" r="9.07"/>
<circle cx="489.77" cy="507.14" r="9.06"/>
<path d="
  M 697.11 760.80
  L 696.72 762.76
  L 695.61 764.41
  L 693.96 765.52
  L 692.00 765.91
  L 329.84 765.91
  L 327.88 765.52
  L 326.23 764.41
  L 325.12 762.76
  L 324.73 760.80
  L 324.73 652.18
  L 325.12 650.22
  L 326.23 648.57
  L 327.88 647.46
  L 329.84 647.07
  L 692.00 647.07
  L 693.96 647.46
  L 695.61 648.57
  L 696.72 650.22
  L 697.11 652.18
  L 697.11 760.80
  Z
  M 425.23 706.47
  L 425.05 702.76
  L 424.50 699.08
  L 423.60 695.47
  L 422.35 691.97
  L 420.75 688.60
  L 418.84 685.41
  L 416.63 682.43
  L 414.13 679.67
  L 411.37 677.17
  L 408.39 674.96
  L 405.20 673.05
  L 401.83 671.45
  L 398.33 670.20
  L 394.72 669.30
  L 391.04 668.75
  L 387.33 668.57
  L 383.62 668.75
  L 379.94 669.30
  L 376.33 670.20
  L 372.83 671.45
  L 369.46 673.05
  L 366.27 674.96
  L 363.29 677.17
  L 360.53 679.67
  L 358.03 682.43
  L 355.82 685.41
  L 353.91 688.60
  L 352.31 691.97
  L 351.06 695.47
  L 350.16 699.08
  L 349.61 702.76
  L 349.43 706.47
  L 349.61 710.18
  L 350.16 713.86
  L 351.06 717.47
  L 352.31 720.97
  L 353.91 724.34
  L 355.82 727.53
  L 358.03 730.51
  L 360.53 733.27
  L 363.29 735.77
  L 366.27 737.98
  L 369.46 739.89
  L 372.83 741.49
  L 376.33 742.74
  L 379.94 743.64
  L 383.62 744.19
  L 387.33 744.37
  L 391.04 744.19
  L 394.72 743.64
  L 398.33 742.74
  L 401.83 741.49
  L 405.20 739.89
  L 408.39 737.98
  L 411.37 735.77
  L 414.13 733.27
  L 416.63 730.51
  L 418.84 727.53
  L 420.75 724.34
  L 422.35 720.97
  L 423.60 717.47
  L 424.50 713.86
  L 425.05 710.18
  L 425.23 706.47
  Z
  M 527.71 706.41
  L 527.53 702.70
  L 526.98 699.02
  L 526.08 695.42
  L 524.83 691.92
  L 523.24 688.56
  L 521.33 685.38
  L 519.12 682.39
  L 516.62 679.64
  L 513.87 677.14
  L 510.88 674.93
  L 507.70 673.02
  L 504.34 671.43
  L 500.84 670.18
  L 497.24 669.28
  L 493.56 668.73
  L 489.85 668.55
  L 486.14 668.73
  L 482.46 669.28
  L 478.86 670.18
  L 475.36 671.43
  L 472.00 673.02
  L 468.82 674.93
  L 465.83 677.14
  L 463.08 679.64
  L 460.58 682.39
  L 458.37 685.38
  L 456.46 688.56
  L 454.87 691.92
  L 453.62 695.42
  L 452.72 699.02
  L 452.17 702.70
  L 451.99 706.41
  L 452.17 710.12
  L 452.72 713.80
  L 453.62 717.40
  L 454.87 720.90
  L 456.46 724.26
  L 458.37 727.44
  L 460.58 730.43
  L 463.08 733.18
  L 465.83 735.68
  L 468.82 737.89
  L 472.00 739.80
  L 475.36 741.39
  L 478.86 742.64
  L 482.46 743.54
  L 486.14 744.09
  L 489.85 744.27
  L 493.56 744.09
  L 497.24 743.54
  L 500.84 742.64
  L 504.34 741.39
  L 507.70 739.80
  L 510.88 737.89
  L 513.87 735.68
  L 516.62 733.18
  L 519.12 730.43
  L 521.33 727.44
  L 523.24 724.26
  L 524.83 720.90
  L 526.08 717.40
  L 526.98 713.80
  L 527.53 710.12
  L 527.71 706.41
  Z
  M 669.52 706.00
  L 669.27 703.46
  L 668.53 701.02
  L 667.33 698.77
  L 665.71 696.79
  L 663.73 695.17
  L 661.48 693.97
  L 659.04 693.23
  L 656.50 692.98
  L 570.06 692.98
  L 567.52 693.23
  L 565.08 693.97
  L 562.83 695.17
  L 560.85 696.79
  L 559.23 698.77
  L 558.03 701.02
  L 557.29 703.46
  L 557.04 706.00
  L 557.04 706.68
  L 557.29 709.22
  L 558.03 711.66
  L 559.23 713.91
  L 560.85 715.89
  L 562.83 717.51
  L 565.08 718.71
  L 567.52 719.45
  L 570.06 719.70
  L 656.50 719.70
  L 659.04 719.45
  L 661.48 718.71
  L 663.73 717.51
  L 665.71 715.89
  L 667.33 713.91
  L 668.53 711.66
  L 669.27 709.22
  L 669.52 706.68
  L 669.52 706.00
  Z"
/>
<circle cx="387.12" cy="706.84" r="9.08"/>
<circle cx="489.75" cy="706.90" r="9.08"/>
</g>
<g fill="#000000">
<path d="
  M 717.84 304.83
  L 718.00 305.16
  L 718.34 305.31
  L 730.76 306.23
  L 738.22 307.15
  L 745.59 308.54
  L 752.97 310.43
  L 760.20 312.77
  L 767.41 315.60
  L 774.43 318.86
  L 781.34 322.59
  L 788.01 326.72
  L 794.47 331.27
  L 800.64 336.19
  L 806.52 341.46
  L 812.07 347.05
  L 817.26 352.95
  L 822.09 359.14
  L 826.46 365.50
  L 830.43 372.11
  L 833.26 377.46
  L 835.82 382.94
  L 838.16 388.61
  L 840.22 394.38
  L 842.02 400.26
  L 843.53 406.20
  L 844.76 412.21
  L 845.71 418.27
  L 846.39 424.37
  L 846.77 430.50
  L 846.87 436.64
  L 846.68 442.77
  L 846.21 448.84
  L 845.45 454.87
  L 844.40 460.87
  L 843.07 466.81
  L 841.57 472.30
  L 839.84 477.73
  L 837.88 483.09
  L 835.70 488.36
  L 833.27 493.59
  L 830.63 498.72
  L 827.78 503.74
  L 824.72 508.63
  L 821.49 513.37
  L 818.06 517.97
  L 814.44 522.41
  L 810.64 526.70
  L 806.68 530.81
  L 802.55 534.74
  L 798.33 538.42
  L 793.96 541.91
  L 787.98 546.22
  L 781.82 550.14
  L 775.49 553.68
  L 768.99 556.83
  L 768.99 556.83
  L 768.99 556.83
  L 768.99 556.83
  L 768.99 556.83
  L 763.96 558.96
  L 758.82 560.87
  L 753.59 562.56
  L 748.26 564.03
  L 742.82 565.28
  L 737.29 566.31
  L 731.66 567.11
  L 725.93 567.70
  L 725.54 567.87
  L 725.33 568.23
  L 724.07 572.71
  L 722.31 576.93
  L 720.02 580.94
  L 717.27 584.59
  L 714.13 587.80
  L 710.61 590.57
  L 706.83 592.80
  L 702.75 594.52
  L 700.14 595.29
  L 697.44 595.85
  L 694.76 596.18
  L 692.00 596.29
  L 330.74 596.30
  L 326.74 596.11
  L 322.92 595.53
  L 319.28 594.57
  L 315.81 593.22
  L 315.81 593.22
  L 315.81 593.22
  L 312.95 591.74
  L 310.22 589.97
  L 307.62 587.92
  L 305.15 585.57
  L 302.51 582.52
  L 300.25 579.24
  L 300.25 579.24
  L 298.05 575.02
  L 296.39 570.46
  L 296.09 570.03
  L 295.60 569.87
  L 289.53 570.15
  L 284.56 570.40
  L 281.14 570.40
  L 273.50 569.86
  L 266.00 568.86
  L 258.53 567.37
  L 251.23 565.41
  L 244.27 563.06
  L 237.49 560.29
  L 230.88 557.10
  L 224.47 553.51
  L 218.23 549.49
  L 212.20 545.08
  L 206.40 540.28
  L 200.84 535.10
  L 196.76 530.90
  L 192.83 526.51
  L 189.14 522.01
  L 185.63 517.36
  L 182.41 512.67
  L 179.40 507.85
  L 176.68 503.01
  L 174.19 498.07
  L 170.55 489.58
  L 167.57 480.91
  L 165.20 471.98
  L 163.50 462.95
  L 162.43 453.68
  L 162.04 444.39
  L 162.32 435.11
  L 163.26 425.87
  L 164.87 416.69
  L 167.13 407.65
  L 170.01 398.87
  L 173.53 390.30
  L 177.62 382.08
  L 182.32 374.15
  L 187.54 366.64
  L 193.35 359.47
  L 195.43 357.15
  L 201.03 351.42
  L 206.90 346.12
  L 213.09 341.21
  L 219.54 336.74
  L 225.32 333.22
  L 231.27 330.04
  L 237.49 327.15
  L 243.87 324.60
  L 250.45 322.37
  L 257.19 320.47
  L 264.07 318.91
  L 271.11 317.68
  L 271.64 317.46
  L 272.02 317.02
  L 275.78 310.12
  L 279.90 303.49
  L 284.37 297.15
  L 289.19 291.12
  L 294.30 285.44
  L 299.74 280.08
  L 305.48 275.06
  L 311.53 270.39
  L 316.53 266.95
  L 321.72 263.73
  L 327.08 260.76
  L 332.61 258.03
  L 339.24 255.17
  L 345.95 252.71
  L 352.74 250.64
  L 359.62 248.96
  L 359.62 248.96
  L 359.62 248.96
  L 365.88 247.79
  L 372.21 246.93
  L 378.60 246.40
  L 385.07 246.18
  L 391.60 246.28
  L 398.20 246.69
  L 404.86 247.43
  L 411.60 248.48
  L 412.11 248.41
  L 412.48 248.04
  L 416.58 240.41
  L 421.04 233.08
  L 425.92 225.98
  L 431.13 219.21
  L 438.41 210.86
  L 446.21 203.09
  L 454.58 195.84
  L 463.39 189.20
  L 472.70 183.16
  L 482.40 177.77
  L 492.43 173.07
  L 502.78 169.05
  L 513.40 165.73
  L 524.26 163.14
  L 535.20 161.31
  L 546.31 160.21
  L 557.38 159.87
  L 568.54 160.29
  L 579.59 161.45
  L 590.65 163.37
  L 596.45 164.69
  L 602.20 166.23
  L 607.90 167.98
  L 613.53 169.93
  L 619.13 172.10
  L 624.66 174.48
  L 630.09 177.05
  L 635.44 179.82
  L 640.67 182.77
  L 645.80 185.91
  L 650.81 189.23
  L 655.69 192.73
  L 660.40 196.37
  L 664.96 200.17
  L 669.38 204.14
  L 673.65 208.27
  L 680.86 216.00
  L 687.44 224.09
  L 693.40 232.52
  L 698.72 241.31
  L 698.72 241.31
  L 702.48 248.49
  L 705.85 255.88
  L 708.82 263.49
  L 711.41 271.32
  L 713.60 279.37
  L 715.40 287.64
  L 716.82 296.13
  L 717.84 304.83
  Z
  M 726.50 538.12
  L 726.50 538.14
  L 726.65 538.45
  L 726.98 538.55
  L 732.75 537.80
  L 738.39 536.72
  L 743.98 535.30
  L 749.41 533.57
  L 753.78 531.91
  L 758.04 530.05
  L 762.27 527.96
  L 766.37 525.67
  L 770.35 523.20
  L 774.19 520.54
  L 777.97 517.65
  L 781.60 514.60
  L 785.12 511.34
  L 788.48 507.92
  L 791.68 504.36
  L 794.71 500.65
  L 797.59 496.76
  L 800.29 492.75
  L 802.81 488.62
  L 805.15 484.37
  L 807.28 480.03
  L 809.22 475.58
  L 810.96 471.05
  L 812.50 466.45
  L 813.81 461.82
  L 814.91 457.13
  L 815.80 452.38
  L 816.46 447.60
  L 816.91 442.82
  L 817.13 438.02
  L 817.12 433.30
  L 816.90 428.57
  L 816.45 423.84
  L 815.78 419.11
  L 814.90 414.49
  L 813.79 409.89
  L 811.73 403.13
  L 809.16 396.45
  L 805.79 389.25
  L 801.97 382.44
  L 797.66 375.93
  L 792.95 369.84
  L 787.79 364.14
  L 782.25 358.89
  L 776.36 354.10
  L 770.13 349.79
  L 763.49 345.92
  L 756.54 342.57
  L 749.32 339.76
  L 741.84 337.50
  L 734.20 335.81
  L 726.35 334.70
  L 718.43 334.18
  L 710.34 334.24
  L 703.36 334.38
  L 701.13 334.26
  L 699.74 334.03
  L 697.83 333.33
  L 696.09 332.46
  L 694.53 331.42
  L 693.13 330.21
  L 693.13 330.21
  L 693.13 330.21
  L 693.13 330.21
  L 691.10 327.69
  L 689.59 324.65
  L 689.25 323.22
  L 688.99 320.84
  L 688.65 313.27
  L 688.43 307.95
  L 688.00 302.70
  L 687.37 297.53
  L 686.53 292.44
  L 685.47 287.43
  L 684.22 282.49
  L 682.75 277.64
  L 681.07 272.86
  L 681.07 272.86
  L 681.07 272.86
  L 681.07 272.86
  L 678.05 265.58
  L 674.53 258.49
  L 671.61 253.37
  L 668.47 248.39
  L 665.10 243.54
  L 661.53 238.86
  L 657.75 234.33
  L 653.77 229.97
  L 649.61 225.79
  L 645.27 221.80
  L 640.77 218.02
  L 636.11 214.45
  L 631.30 211.08
  L 626.33 207.93
  L 621.26 205.03
  L 616.05 202.36
  L 610.81 199.98
  L 605.46 197.83
  L 595.96 194.65
  L 586.26 192.13
  L 576.55 190.34
  L 566.74 189.24
  L 557.03 188.88
  L 547.52 189.23
  L 538.07 190.32
  L 528.89 192.12
  L 521.27 194.16
  L 513.76 196.62
  L 506.39 199.48
  L 499.19 202.74
  L 492.19 206.39
  L 485.41 210.42
  L 478.96 214.76
  L 472.77 219.45
  L 466.94 224.42
  L 461.42 229.70
  L 456.29 235.23
  L 451.51 241.05
  L 447.19 247.02
  L 443.23 253.26
  L 439.73 259.65
  L 436.63 266.28
  L 433.92 271.93
  L 432.73 273.86
  L 431.66 275.18
  L 428.77 277.56
  L 425.75 279.08
  L 423.03 279.78
  L 419.96 279.96
  L 416.64 279.63
  L 412.88 278.78
  L 407.68 277.50
  L 401.71 276.32
  L 393.90 275.29
  L 386.11 274.95
  L 378.21 275.27
  L 370.42 276.26
  L 362.59 277.93
  L 354.95 280.23
  L 347.43 283.20
  L 340.18 286.76
  L 333.21 290.92
  L 326.59 295.63
  L 320.37 300.87
  L 314.59 306.60
  L 309.39 312.69
  L 304.69 319.20
  L 300.59 326.00
  L 297.06 333.17
  L 295.34 336.67
  L 293.55 339.46
  L 291.60 341.65
  L 289.47 343.32
  L 287.73 344.26
  L 285.78 344.99
  L 282.74 345.61
  L 278.08 346.05
  L 274.43 346.39
  L 269.49 347.24
  L 264.68 348.30
  L 260.00 349.57
  L 255.44 351.05
  L 251.01 352.74
  L 246.71 354.63
  L 242.53 356.74
  L 238.48 359.05
  L 238.48 359.05
  L 238.48 359.05
  L 238.48 359.05
  L 231.70 363.60
  L 225.31 368.78
  L 221.77 372.07
  L 218.42 375.45
  L 215.27 378.94
  L 212.32 382.52
  L 209.57 386.21
  L 207.01 390.00
  L 204.65 393.89
  L 202.49 397.88
  L 202.49 397.88
  L 202.49 397.88
  L 200.31 402.46
  L 198.37 407.17
  L 196.68 412.00
  L 195.24 416.95
  L 194.04 422.04
  L 193.09 427.25
  L 192.39 432.58
  L 191.93 438.04
  L 191.77 446.26
  L 192.30 454.35
  L 193.49 462.38
  L 195.35 470.22
  L 196.94 475.33
  L 198.81 480.33
  L 200.95 485.21
  L 203.35 489.96
  L 206.03 494.61
  L 208.96 499.11
  L 212.14 503.44
  L 215.56 507.61
  L 219.20 511.57
  L 223.06 515.35
  L 227.13 518.94
  L 231.42 522.31
  L 235.89 525.47
  L 240.56 528.40
  L 245.33 531.05
  L 250.27 533.47
  L 255.02 535.48
  L 259.84 537.20
  L 264.71 538.61
  L 269.64 539.72
  L 269.64 539.72
  L 269.64 539.72
  L 269.64 539.72
  L 275.06 540.59
  L 280.55 541.10
  L 286.11 541.26
  L 291.74 541.06
  L 294.70 540.61
  L 295.07 540.36
  L 295.21 539.94
  L 295.30 453.27
  L 295.58 448.79
  L 296.36 444.45
  L 297.66 440.21
  L 299.44 436.21
  L 301.68 432.48
  L 304.35 429.08
  L 307.37 426.11
  L 310.76 423.53
  L 314.65 421.31
  L 318.91 419.60
  L 321.80 418.95
  L 325.91 418.49
  L 331.24 418.21
  L 337.79 418.12
  L 691.74 418.15
  L 696.80 418.44
  L 701.51 419.31
  L 705.88 420.75
  L 709.89 422.77
  L 709.89 422.77
  L 709.89 422.77
  L 713.05 424.95
  L 715.95 427.55
  L 718.59 430.57
  L 720.99 434.01
  L 723.32 438.28
  L 725.00 442.55
  L 726.02 446.81
  L 726.38 451.06
  L 726.50 538.12
  Z
  M 697.37 453.30
  L 697.26 452.21
  L 696.95 451.17
  L 696.43 450.21
  L 695.74 449.36
  L 694.89 448.67
  L 693.93 448.15
  L 692.89 447.84
  L 691.80 447.73
  L 330.36 447.73
  L 329.27 447.84
  L 328.23 448.15
  L 327.27 448.67
  L 326.42 449.36
  L 325.73 450.21
  L 325.21 451.17
  L 324.90 452.21
  L 324.79 453.30
  L 324.79 561.28
  L 324.90 562.37
  L 325.21 563.41
  L 325.73 564.37
  L 326.42 565.22
  L 327.27 565.91
  L 328.23 566.43
  L 329.27 566.74
  L 330.36 566.85
  L 691.80 566.85
  L 692.89 566.74
  L 693.93 566.43
  L 694.89 565.91
  L 695.74 565.22
  L 696.43 564.37
  L 696.95 563.41
  L 697.26 562.37
  L 697.37 561.28
  L 697.37 453.30
  Z"
/>
<path d="
  M 425.31 506.86
  L 425.13 510.58
  L 424.58 514.26
  L 423.68 517.88
  L 422.42 521.38
  L 420.83 524.75
  L 418.91 527.94
  L 416.70 530.94
  L 414.19 533.69
  L 411.44 536.20
  L 408.44 538.41
  L 405.25 540.33
  L 401.88 541.92
  L 398.38 543.18
  L 394.76 544.08
  L 391.08 544.63
  L 387.36 544.81
  L 383.64 544.63
  L 379.96 544.08
  L 376.34 543.18
  L 372.84 541.92
  L 369.47 540.33
  L 366.28 538.41
  L 363.28 536.20
  L 360.53 533.69
  L 358.02 530.94
  L 355.81 527.94
  L 353.89 524.75
  L 352.30 521.38
  L 351.04 517.88
  L 350.14 514.26
  L 349.59 510.58
  L 349.41 506.86
  L 349.59 503.14
  L 350.14 499.46
  L 351.04 495.84
  L 352.30 492.34
  L 353.89 488.97
  L 355.81 485.78
  L 358.02 482.78
  L 360.53 480.03
  L 363.28 477.52
  L 366.28 475.31
  L 369.47 473.39
  L 372.84 471.80
  L 376.34 470.54
  L 379.96 469.64
  L 383.64 469.09
  L 387.36 468.91
  L 391.08 469.09
  L 394.76 469.64
  L 398.38 470.54
  L 401.88 471.80
  L 405.25 473.39
  L 408.44 475.31
  L 411.44 477.52
  L 414.19 480.03
  L 416.70 482.78
  L 418.91 485.78
  L 420.83 488.97
  L 422.42 492.34
  L 423.68 495.84
  L 424.58 499.46
  L 425.13 503.14
  L 425.31 506.86
  Z
  M 396.17 507.15
  L 396.00 505.38
  L 395.48 503.68
  L 394.64 502.11
  L 393.51 500.74
  L 392.14 499.61
  L 390.57 498.77
  L 388.87 498.25
  L 387.10 498.08
  L 385.33 498.25
  L 383.63 498.77
  L 382.06 499.61
  L 380.69 500.74
  L 379.56 502.11
  L 378.72 503.68
  L 378.20 505.38
  L 378.03 507.15
  L 378.20 508.92
  L 378.72 510.62
  L 379.56 512.19
  L 380.69 513.56
  L 382.06 514.69
  L 383.63 515.53
  L 385.33 516.05
  L 387.10 516.22
  L 388.87 516.05
  L 390.57 515.53
  L 392.14 514.69
  L 393.51 513.56
  L 394.64 512.19
  L 395.48 510.62
  L 396.00 508.92
  L 396.17 507.15
  Z"
/>
<path d="
  M 527.72 506.99
  L 527.54 510.70
  L 526.99 514.38
  L 526.09 517.99
  L 524.84 521.49
  L 523.25 524.85
  L 521.33 528.04
  L 519.12 531.03
  L 516.62 533.78
  L 513.87 536.28
  L 510.88 538.49
  L 507.69 540.41
  L 504.33 542.00
  L 500.83 543.25
  L 497.22 544.15
  L 493.54 544.70
  L 489.83 544.88
  L 486.12 544.70
  L 482.44 544.15
  L 478.83 543.25
  L 475.33 542.00
  L 471.97 540.41
  L 468.78 538.49
  L 465.79 536.28
  L 463.04 533.78
  L 460.54 531.03
  L 458.33 528.04
  L 456.41 524.85
  L 454.82 521.49
  L 453.57 517.99
  L 452.67 514.38
  L 452.12 510.70
  L 451.94 506.99
  L 452.12 503.28
  L 452.67 499.60
  L 453.57 495.99
  L 454.82 492.49
  L 456.41 489.13
  L 458.33 485.94
  L 460.54 482.95
  L 463.04 480.20
  L 465.79 477.70
  L 468.78 475.49
  L 471.97 473.57
  L 475.33 471.98
  L 478.83 470.73
  L 482.44 469.83
  L 486.12 469.28
  L 489.83 469.10
  L 493.54 469.28
  L 497.22 469.83
  L 500.83 470.73
  L 504.33 471.98
  L 507.69 473.57
  L 510.88 475.49
  L 513.87 477.70
  L 516.62 480.20
  L 519.12 482.95
  L 521.33 485.94
  L 523.25 489.13
  L 524.84 492.49
  L 526.09 495.99
  L 526.99 499.60
  L 527.54 503.28
  L 527.72 506.99
  Z
  M 498.83 507.14
  L 498.66 505.37
  L 498.14 503.67
  L 497.30 502.11
  L 496.18 500.73
  L 494.80 499.61
  L 493.24 498.77
  L 491.54 498.25
  L 489.77 498.08
  L 488.00 498.25
  L 486.30 498.77
  L 484.74 499.61
  L 483.36 500.73
  L 482.24 502.11
  L 481.40 503.67
  L 480.88 505.37
  L 480.71 507.14
  L 480.88 508.91
  L 481.40 510.61
  L 482.24 512.17
  L 483.36 513.55
  L 484.74 514.67
  L 486.30 515.51
  L 488.00 516.03
  L 489.77 516.20
  L 491.54 516.03
  L 493.24 515.51
  L 494.80 514.67
  L 496.18 513.55
  L 497.30 512.17
  L 498.14 510.61
  L 498.66 508.91
  L 498.83 507.14
  Z"
/>
<rect x="-56.48" y="-13.39" transform="translate(613.86,507.19) rotate(0.1)" width="112.96" height="26.78" rx="13.06"/>
<path d="
  M 295.07 760.76
  L 295.07 652.23
  L 295.24 648.80
  L 295.74 645.41
  L 296.57 642.08
  L 297.73 638.86
  L 299.20 635.75
  L 300.96 632.81
  L 303.00 630.06
  L 305.31 627.52
  L 307.85 625.21
  L 310.60 623.17
  L 313.54 621.41
  L 316.65 619.94
  L 319.87 618.78
  L 323.20 617.95
  L 326.59 617.45
  L 330.02 617.28
  L 691.43 617.28
  L 694.86 617.45
  L 698.25 617.95
  L 701.58 618.78
  L 704.80 619.94
  L 707.91 621.41
  L 710.85 623.17
  L 713.60 625.21
  L 716.14 627.52
  L 718.45 630.06
  L 720.49 632.81
  L 722.25 635.75
  L 723.72 638.86
  L 724.88 642.08
  L 725.71 645.41
  L 726.21 648.80
  L 726.38 652.23
  L 726.38 760.76
  L 726.21 764.19
  L 725.71 767.58
  L 724.88 770.91
  L 723.72 774.13
  L 722.25 777.24
  L 720.49 780.18
  L 718.45 782.93
  L 716.14 785.47
  L 713.60 787.78
  L 710.85 789.82
  L 707.91 791.58
  L 704.80 793.05
  L 701.58 794.21
  L 698.25 795.04
  L 694.86 795.54
  L 691.43 795.71
  L 330.02 795.71
  L 326.63 795.55
  L 323.28 795.05
  L 319.99 794.24
  L 316.79 793.11
  L 316.79 793.11
  L 312.17 790.81
  L 307.94 787.85
  L 304.19 784.30
  L 301.00 780.24
  L 298.45 775.76
  L 296.59 770.94
  L 295.45 765.91
  L 295.07 760.76
  Z
  M 697.11 652.18
  L 696.72 650.22
  L 695.61 648.57
  L 693.96 647.46
  L 692.00 647.07
  L 329.84 647.07
  L 327.88 647.46
  L 326.23 648.57
  L 325.12 650.22
  L 324.73 652.18
  L 324.73 760.80
  L 325.12 762.76
  L 326.23 764.41
  L 327.88 765.52
  L 329.84 765.91
  L 692.00 765.91
  L 693.96 765.52
  L 695.61 764.41
  L 696.72 762.76
  L 697.11 760.80
  L 697.11 652.18
  Z"
/>
<path d="
  M 425.23 706.47
  L 425.05 710.18
  L 424.50 713.86
  L 423.60 717.47
  L 422.35 720.97
  L 420.75 724.34
  L 418.84 727.53
  L 416.63 730.51
  L 414.13 733.27
  L 411.37 735.77
  L 408.39 737.98
  L 405.20 739.89
  L 401.83 741.49
  L 398.33 742.74
  L 394.72 743.64
  L 391.04 744.19
  L 387.33 744.37
  L 383.62 744.19
  L 379.94 743.64
  L 376.33 742.74
  L 372.83 741.49
  L 369.46 739.89
  L 366.27 737.98
  L 363.29 735.77
  L 360.53 733.27
  L 358.03 730.51
  L 355.82 727.53
  L 353.91 724.34
  L 352.31 720.97
  L 351.06 717.47
  L 350.16 713.86
  L 349.61 710.18
  L 349.43 706.47
  L 349.61 702.76
  L 350.16 699.08
  L 351.06 695.47
  L 352.31 691.97
  L 353.91 688.60
  L 355.82 685.41
  L 358.03 682.43
  L 360.53 679.67
  L 363.29 677.17
  L 366.27 674.96
  L 369.46 673.05
  L 372.83 671.45
  L 376.33 670.20
  L 379.94 669.30
  L 383.62 668.75
  L 387.33 668.57
  L 391.04 668.75
  L 394.72 669.30
  L 398.33 670.20
  L 401.83 671.45
  L 405.20 673.05
  L 408.39 674.96
  L 411.37 677.17
  L 414.13 679.67
  L 416.63 682.43
  L 418.84 685.41
  L 420.75 688.60
  L 422.35 691.97
  L 423.60 695.47
  L 424.50 699.08
  L 425.05 702.76
  L 425.23 706.47
  Z
  M 396.20 706.84
  L 396.03 705.07
  L 395.51 703.37
  L 394.67 701.80
  L 393.54 700.42
  L 392.16 699.29
  L 390.59 698.45
  L 388.89 697.93
  L 387.12 697.76
  L 385.35 697.93
  L 383.65 698.45
  L 382.08 699.29
  L 380.70 700.42
  L 379.57 701.80
  L 378.73 703.37
  L 378.21 705.07
  L 378.04 706.84
  L 378.21 708.61
  L 378.73 710.31
  L 379.57 711.88
  L 380.70 713.26
  L 382.08 714.39
  L 383.65 715.23
  L 385.35 715.75
  L 387.12 715.92
  L 388.89 715.75
  L 390.59 715.23
  L 392.16 714.39
  L 393.54 713.26
  L 394.67 711.88
  L 395.51 710.31
  L 396.03 708.61
  L 396.20 706.84
  Z"
/>
<path d="
  M 527.71 706.41
  L 527.53 710.12
  L 526.98 713.80
  L 526.08 717.40
  L 524.83 720.90
  L 523.24 724.26
  L 521.33 727.44
  L 519.12 730.43
  L 516.62 733.18
  L 513.87 735.68
  L 510.88 737.89
  L 507.70 739.80
  L 504.34 741.39
  L 500.84 742.64
  L 497.24 743.54
  L 493.56 744.09
  L 489.85 744.27
  L 486.14 744.09
  L 482.46 743.54
  L 478.86 742.64
  L 475.36 741.39
  L 472.00 739.80
  L 468.82 737.89
  L 465.83 735.68
  L 463.08 733.18
  L 460.58 730.43
  L 458.37 727.44
  L 456.46 724.26
  L 454.87 720.90
  L 453.62 717.40
  L 452.72 713.80
  L 452.17 710.12
  L 451.99 706.41
  L 452.17 702.70
  L 452.72 699.02
  L 453.62 695.42
  L 454.87 691.92
  L 456.46 688.56
  L 458.37 685.38
  L 460.58 682.39
  L 463.08 679.64
  L 465.83 677.14
  L 468.82 674.93
  L 472.00 673.02
  L 475.36 671.43
  L 478.86 670.18
  L 482.46 669.28
  L 486.14 668.73
  L 489.85 668.55
  L 493.56 668.73
  L 497.24 669.28
  L 500.84 670.18
  L 504.34 671.43
  L 507.70 673.02
  L 510.88 674.93
  L 513.87 677.14
  L 516.62 679.64
  L 519.12 682.39
  L 521.33 685.38
  L 523.24 688.56
  L 524.83 691.92
  L 526.08 695.42
  L 526.98 699.02
  L 527.53 702.70
  L 527.71 706.41
  Z
  M 498.83 706.90
  L 498.66 705.13
  L 498.14 703.43
  L 497.30 701.86
  L 496.17 700.48
  L 494.79 699.35
  L 493.22 698.51
  L 491.52 697.99
  L 489.75 697.82
  L 487.98 697.99
  L 486.28 698.51
  L 484.71 699.35
  L 483.33 700.48
  L 482.20 701.86
  L 481.36 703.43
  L 480.84 705.13
  L 480.67 706.90
  L 480.84 708.67
  L 481.36 710.37
  L 482.20 711.94
  L 483.33 713.32
  L 484.71 714.45
  L 486.28 715.29
  L 487.98 715.81
  L 489.75 715.98
  L 491.52 715.81
  L 493.22 715.29
  L 494.79 714.45
  L 496.17 713.32
  L 497.30 711.94
  L 498.14 710.37
  L 498.66 708.67
  L 498.83 706.90
  Z"
/>
<rect x="557.04" y="692.98" width="112.48" height="26.72" rx="13.02"/>
</g>
</svg>
