<?xml version="1.0" encoding="UTF-8" standalone="no"?>
<!DOCTYPE svg PUBLIC "-//W3C//DTD SVG 1.1//EN" "http://www.w3.org/Graphics/SVG/1.1/DTD/svg11.dtd">
<svg xmlns="http://www.w3.org/2000/svg" version="1.1" viewBox="0.00 0.00 955.00 950.00" width="955.00" height="950.00">
<g stroke-width="2.00" fill="none" stroke-linecap="butt">
<path stroke="#8a8b8b" vector-effect="non-scaling-stroke" d="
  M 218.50 524.85
  L 218.48 576.26
  L 218.62 578.67
  L 219.03 580.80
  L 219.72 582.62
  L 220.69 584.16
  L 222.31 585.83
  L 224.14 587.04
  L 226.12 587.79
  L 228.18 588.04
  L 229.79 587.89
  L 231.38 587.43
  L 232.84 586.72
  L 234.25 585.71
  L 243.37 578.12
  L 309.68 524.54
  L 310.31 524.18
  L 311.03 524.06
  L 497.23 524.02
  L 503.23 523.65
  L 509.06 522.56
  L 514.76 520.76
  L 520.17 518.28
  L 525.22 515.16
  L 529.85 511.44
  L 533.92 507.23
  L 537.47 502.49
  L 539.22 499.61
  L 540.76 496.58
  L 541.49 494.93
  L 541.49 494.93
  L 543.21 490.13
  L 544.45 485.13
  L 545.18 479.92
  L 545.43 474.50
  L 545.43 261.20
  L 545.08 251.49
  L 544.64 247.64
  L 544.03 244.48
  L 543.03 240.98
  L 541.80 237.59
  L 540.31 234.23
  L 538.59 231.00
  L 536.65 227.91
  L 534.51 224.98
  L 532.18 222.21
  L 529.66 219.62
  L 526.97 217.22
  L 524.12 215.02
  L 521.12 213.03
  L 517.98 211.26
  L 514.72 209.73
  L 511.35 208.43
  L 507.97 207.41
  L 504.49 206.64
  L 500.16 206.04
  L 495.73 205.84
  L 206.26 205.82
  L 198.46 206.08
  L 195.33 206.41
  L 192.72 206.87
  L 189.33 207.76
  L 186.04 208.89
  L 182.78 210.29
  L 179.65 211.91
  L 176.64 213.76
  L 173.77 215.82
  L 170.99 218.13
  L 168.38 220.63
  L 165.92 223.34
  L 163.66 226.20
  L 161.59 229.22
  L 159.74 232.36
  L 158.12 235.62
  L 156.72 238.98
  L 155.56 242.42
  L 154.65 245.94
  L 154.08 249.93
  L 153.71 255.81
  L 153.56 263.56
  L 153.61 273.19
  L 153.61 469.11
  L 153.85 478.45
  L 154.55 484.82
  L 155.91 490.26
  L 157.81 495.38
  L 160.28 500.24
  L 163.26 504.72
  L 166.13 508.18
  L 169.33 511.34
  L 172.82 514.20
  L 176.59 516.73
  L 180.62 518.93
  L 184.89 520.78
  L 189.38 522.27
  L 194.08 523.38
  L 196.98 523.79
  L 200.53 524.04
  L 210.75 524.11
  L 217.80 524.13
  L 218.29 524.35
  L 218.50 524.85"
/>
<path stroke="#8a8b8b" vector-effect="non-scaling-stroke" d="
  M 734.89 760.74
  L 675.13 712.87
  L 672.40 711.12
  L 670.98 710.55
  L 669.52 710.17
  L 667.50 709.99
  L 453.88 710.02
  L 447.18 709.80
  L 444.68 709.51
  L 442.74 709.11
  L 439.45 707.95
  L 436.35 706.37
  L 433.41 704.35
  L 430.76 701.96
  L 428.49 699.30
  L 426.60 696.36
  L 425.17 693.28
  L 424.19 690.02
  L 423.62 685.31
  L 423.44 678.01
  L 423.44 550.53
  L 423.31 548.87
  L 422.96 547.34
  L 422.36 545.86
  L 421.57 544.55
  L 420.47 543.29
  L 419.20 542.25
  L 417.70 541.41
  L 416.08 540.84
  L 414.40 540.55
  L 412.68 540.56
  L 411.09 540.86
  L 409.54 541.43
  L 408.10 542.30
  L 406.79 543.45
  L 405.70 544.83
  L 404.78 546.49
  L 404.07 549.19
  L 403.83 553.15
  L 403.82 675.74
  L 403.91 682.86
  L 404.19 688.71
  L 404.67 693.32
  L 405.34 696.66
  L 407.38 702.39
  L 410.07 707.66
  L 413.43 712.53
  L 417.36 716.85
  L 420.26 719.39
  L 423.37 721.67
  L 426.68 723.67
  L 430.17 725.39
  L 433.84 726.82
  L 437.66 727.93
  L 441.52 728.72
  L 445.51 729.19
  L 457.52 729.33
  L 662.79 729.30
  L 663.84 729.48
  L 664.78 730.00
  L 737.13 788.23
  L 740.02 790.31
  L 742.16 791.26
  L 744.74 791.47
  L 747.39 790.95
  L 749.79 789.75
  L 751.91 787.90
  L 753.55 785.57
  L 754.07 784.27
  L 754.44 782.59
  L 754.75 778.08
  L 754.72 730.25
  L 754.72 730.24
  L 754.87 729.89
  L 755.23 729.76
  L 762.27 729.89
  L 767.81 729.79
  L 772.80 729.45
  L 777.37 728.84
  L 781.63 727.93
  L 785.60 726.73
  L 789.39 725.18
  L 792.91 723.32
  L 796.87 720.63
  L 800.34 717.71
  L 803.45 714.58
  L 806.20 711.23
  L 808.57 707.66
  L 808.57 707.66
  L 808.57 707.66
  L 810.09 704.90
  L 811.41 702.02
  L 812.53 699.02
  L 813.46 695.91
  L 814.09 692.37
  L 814.54 687.28
  L 814.80 680.66
  L 814.89 672.49
  L 814.94 455.63
  L 814.87 447.92
  L 814.58 441.56
  L 814.06 436.56
  L 813.32 432.92
  L 811.33 427.22
  L 808.74 421.88
  L 805.54 416.88
  L 801.80 412.35
  L 797.61 408.39
  L 792.97 405.01
  L 788.02 402.30
  L 782.71 400.24
  L 777.95 399.04
  L 772.98 398.38
  L 763.00 398.18
  L 568.75 398.22
  L 565.84 398.60
  L 564.57 399.06
  L 563.42 399.69
  L 563.42 399.69
  L 561.77 401.16
  L 560.45 403.13
  L 559.69 405.10
  L 559.37 407.15
  L 559.47 409.30
  L 559.99 411.37
  L 560.91 413.28
  L 562.18 414.95
  L 563.71 416.23
  L 565.50 417.14
  L 566.93 417.53
  L 568.47 417.66
  L 766.28 417.65
  L 770.68 417.89
  L 774.77 418.64
  L 778.54 419.89
  L 782.01 421.66
  L 782.01 421.66
  L 782.01 421.66
  L 782.01 421.66
  L 784.14 423.11
  L 786.14 424.79
  L 788.00 426.69
  L 789.72 428.81
  L 791.60 431.71
  L 793.10 434.77
  L 794.05 437.42
  L 794.74 440.14
  L 795.15 442.93
  L 795.29 445.75
  L 795.36 676.79
  L 795.27 682.16
  L 795.00 686.59
  L 794.54 690.05
  L 793.90 692.57
  L 792.92 694.93
  L 791.74 697.17
  L 790.14 699.57
  L 788.28 701.82
  L 786.14 703.90
  L 783.74 705.83
  L 781.45 707.27
  L 778.69 708.51
  L 775.60 709.38
  L 772.08 709.91
  L 768.00 710.11
  L 747.99 710.17
  L 743.85 710.40
  L 742.29 710.75
  L 740.91 711.31
  L 738.80 712.78
  L 736.59 715.23
  L 735.94 716.52
  L 735.51 718.43
  L 735.28 720.98
  L 735.27 724.15
  L 735.27 760.56
  L 735.26 760.64
  L 734.89 760.74"
/>
<path stroke="#8a8b8b" vector-effect="non-scaling-stroke" d="
  M 623.79 496.12
  L 623.60 494.24
  L 623.06 492.43
  L 622.17 490.77
  L 620.97 489.31
  L 619.51 488.11
  L 617.85 487.22
  L 616.04 486.68
  L 614.16 486.49
  L 613.80 486.49
  L 611.92 486.68
  L 610.11 487.22
  L 608.45 488.11
  L 606.99 489.31
  L 605.79 490.77
  L 604.90 492.43
  L 604.36 494.24
  L 604.17 496.12
  L 604.17 591.00
  L 604.36 592.88
  L 604.90 594.69
  L 605.79 596.35
  L 606.99 597.81
  L 608.45 599.01
  L 610.11 599.90
  L 611.92 600.44
  L 613.80 600.63
  L 614.16 600.63
  L 616.04 600.44
  L 617.85 599.90
  L 619.51 599.01
  L 620.97 597.81
  L 622.17 596.35
  L 623.06 594.69
  L 623.60 592.88
  L 623.79 591.00
  L 623.79 496.12"
/>
<path stroke="#8a8b8b" vector-effect="non-scaling-stroke" d="
  M 614.3630 620.5053
  L 612.3529 620.6143
  L 610.3977 621.1466
  L 608.5724 622.0818
  L 606.9473 623.3839
  L 605.5847 625.0030
  L 604.5371 626.8767
  L 603.8447 628.9330
  L 603.5341 631.0930
  L 603.6172 633.2737
  L 604.0909 635.3912
  L 604.9369 637.3641
  L 606.1228 639.1167
  L 607.6029 640.5816
  L 609.3204 641.7024
  L 611.2093 642.4362
  L 613.1970 642.7547
  L 615.2071 642.6457
  L 617.1623 642.1134
  L 618.9876 641.1782
  L 620.6127 639.8761
  L 621.9753 638.2570
  L 623.0229 636.3833
  L 623.7153 634.3270
  L 624.0259 632.1670
  L 623.9428 629.9863
  L 623.4691 627.8688
  L 622.6231 625.8959
  L 621.4372 624.1433
  L 619.9571 622.6784
  L 618.2396 621.5576
  L 616.3507 620.8238
  L 614.3630 620.5053"
/>
<path stroke="#8a8b8b" vector-effect="non-scaling-stroke" d="
  M 238.09 556.39
  L 238.11 556.50
  L 238.33 556.70
  L 238.62 556.64
  L 301.04 506.04
  L 302.98 504.84
  L 304.97 504.34
  L 305.38 504.33
  L 493.06 504.34
  L 499.00 504.18
  L 502.89 503.72
  L 506.62 502.63
  L 510.12 501.02
  L 513.46 498.89
  L 516.47 496.32
  L 519.17 493.33
  L 521.45 490.01
  L 523.28 486.44
  L 524.60 482.68
  L 525.03 480.06
  L 525.34 475.77
  L 525.58 462.20
  L 525.52 260.05
  L 525.39 255.25
  L 524.95 251.17
  L 524.17 247.59
  L 523.02 244.35
  L 521.70 241.70
  L 520.01 239.07
  L 517.60 236.06
  L 514.98 233.43
  L 512.16 231.20
  L 509.14 229.34
  L 509.14 229.34
  L 505.66 227.79
  L 501.94 226.67
  L 497.98 226.01
  L 493.79 225.79
  L 212.12 225.81
  L 203.83 225.89
  L 199.43 226.13
  L 195.39 226.99
  L 191.56 228.41
  L 187.88 230.42
  L 184.51 232.92
  L 181.42 235.94
  L 178.77 239.34
  L 176.61 243.07
  L 174.98 247.04
  L 174.37 249.53
  L 173.94 252.79
  L 173.68 256.82
  L 173.60 261.63
  L 173.60 474.25
  L 173.75 477.43
  L 174.19 480.51
  L 174.91 483.49
  L 175.92 486.34
  L 177.21 489.10
  L 178.77 491.69
  L 180.58 494.10
  L 182.65 496.31
  L 185.03 498.37
  L 187.65 500.18
  L 190.42 501.67
  L 193.39 502.88
  L 195.96 503.56
  L 199.13 504.05
  L 202.92 504.32
  L 207.32 504.40
  L 226.46 504.31
  L 230.10 504.52
  L 231.46 504.81
  L 232.51 505.23
  L 234.84 506.80
  L 236.45 508.61
  L 237.35 510.40
  L 237.89 512.44
  L 238.15 515.06
  L 238.14 518.50
  L 238.09 556.39"
/>
<path stroke="#8a8b8b" vector-effect="non-scaling-stroke" d="
  M 338.80 398.94
  L 341.19 400.11
  L 343.58 400.71
  L 346.02 400.74
  L 348.34 400.19
  L 349.91 399.42
  L 351.34 398.35
  L 352.55 397.06
  L 353.58 395.51
  L 354.11 394.27
  L 354.45 392.68
  L 354.58 388.35
  L 354.57 388.04
  L 354.63 385.45
  L 354.94 383.10
  L 355.50 380.83
  L 356.29 378.79
  L 357.96 375.86
  L 360.23 373.14
  L 363.12 370.51
  L 367.53 367.20
  L 373.22 362.81
  L 375.97 360.19
  L 378.47 357.43
  L 380.76 354.45
  L 382.77 351.35
  L 384.52 348.12
  L 385.99 344.80
  L 387.21 341.31
  L 388.13 337.76
  L 388.77 334.12
  L 389.10 330.46
  L 389.13 326.79
  L 388.86 323.14
  L 388.30 319.57
  L 387.44 316.05
  L 386.29 312.61
  L 384.84 309.25
  L 383.33 306.40
  L 381.60 303.64
  L 379.71 301.07
  L 377.61 298.62
  L 375.31 296.29
  L 372.80 294.10
  L 370.16 292.11
  L 367.33 290.27
  L 363.27 288.10
  L 359.07 286.39
  L 353.67 284.89
  L 348.18 284.09
  L 342.57 283.99
  L 337.00 284.60
  L 331.56 285.91
  L 326.32 287.89
  L 321.42 290.49
  L 316.85 293.73
  L 312.90 297.34
  L 309.36 301.50
  L 307.58 304.04
  L 305.99 306.69
  L 305.99 306.69
  L 305.99 306.69
  L 305.99 306.69
  L 303.65 311.58
  L 301.88 316.78
  L 300.68 322.30
  L 300.06 328.14
  L 299.88 332.60
  L 299.97 334.63
  L 301.06 337.13
  L 302.46 338.89
  L 304.20 340.26
  L 306.28 341.26
  L 308.53 341.80
  L 310.84 341.88
  L 313.10 341.48
  L 315.12 340.63
  L 316.92 339.31
  L 317.97 338.13
  L 318.84 336.73
  L 319.52 334.33
  L 319.83 330.53
  L 320.31 325.52
  L 321.47 320.89
  L 323.27 316.76
  L 324.42 314.85
  L 325.74 313.06
  L 327.62 311.02
  L 329.76 309.16
  L 332.09 307.56
  L 334.67 306.16
  L 336.95 305.22
  L 339.31 304.53
  L 341.74 304.09
  L 344.20 303.90
  L 346.67 303.96
  L 349.11 304.28
  L 351.49 304.85
  L 353.80 305.67
  L 357.13 307.35
  L 360.09 309.39
  L 362.73 311.83
  L 364.95 314.56
  L 366.77 317.61
  L 368.11 320.86
  L 368.96 324.25
  L 369.31 327.75
  L 369.26 330.02
  L 369.00 332.29
  L 368.51 334.56
  L 367.79 336.80
  L 366.87 338.96
  L 365.73 341.07
  L 364.41 343.03
  L 362.89 344.92
  L 359.47 348.16
  L 353.91 352.27
  L 350.21 354.93
  L 346.60 357.94
  L 343.44 361.18
  L 340.74 364.67
  L 338.50 368.39
  L 337.02 371.57
  L 335.84 374.90
  L 335.06 378.17
  L 334.55 381.90
  L 334.30 386.12
  L 334.28 391.26
  L 334.52 393.31
  L 335.18 395.16
  L 335.18 395.16
  L 336.65 397.22
  L 338.80 398.94"
/>
<path stroke="#8a8b8b" vector-effect="non-scaling-stroke" d="
  M 345.2182 417.9475
  L 343.2042 418.0878
  L 341.2520 418.6506
  L 339.4364 419.6142
  L 337.8274 420.9415
  L 336.4867 422.5816
  L 335.4659 424.4714
  L 334.8041 426.5383
  L 334.5269 428.7029
  L 334.6449 430.8820
  L 335.1534 432.9919
  L 336.0331 434.9514
  L 337.2501 436.6853
  L 338.7576 438.1269
  L 340.4977 439.2208
  L 342.4035 439.9250
  L 344.4018 440.2125
  L 346.4158 440.0722
  L 348.3680 439.5094
  L 350.1836 438.5458
  L 351.7926 437.2185
  L 353.1333 435.5784
  L 354.1541 433.6886
  L 354.8159 431.6217
  L 355.0931 429.4571
  L 354.9751 427.2780
  L 354.4666 425.1681
  L 353.5869 423.2086
  L 352.3699 421.4747
  L 350.8624 420.0331
  L 349.1223 418.9392
  L 347.2165 418.2350
  L 345.2182 417.9475"
/>
</g>
<g fill="#ffffff">
<path d="
  M 651.07 917.18
  L 648.74 918.27
  L 635.35 923.32
  L 624.57 926.90
  L 606.85 932.01
  L 589.64 936.54
  L 573.34 940.30
  L 557.96 943.29
  L 543.49 945.52
  L 529.73 947.34
  L 523.58 947.77
  L 517.85 948.27
  L 510.15 948.84
  L 502.86 949.12
  L 491.84 949.64
  L 480.86 949.91
  L 469.91 949.93
  L 458.99 949.69
  L 448.11 949.20
  L 437.25 948.46
  L 426.43 947.47
  L 415.64 946.22
  L 415.64 946.22
  L 399.94 943.94
  L 384.30 941.11
  L 368.74 937.75
  L 353.24 933.85
  L 342.69 930.88
  L 332.25 927.68
  L 321.92 924.26
  L 311.69 920.61
  L 301.57 916.74
  L 291.56 912.64
  L 281.66 908.32
  L 271.86 903.77
  L 271.86 903.77
  L 271.86 903.77
  L 271.86 903.77
  L 257.75 896.73
  L 243.87 889.21
  L 230.21 881.21
  L 216.79 872.73
  L 207.44 866.47
  L 198.28 860.03
  L 189.36 853.49
  L 180.61 846.78
  L 172.06 839.91
  L 163.67 832.86
  L 155.53 825.70
  L 147.55 818.36
  L 134.59 805.65
  L 122.04 792.30
  L 109.91 778.32
  L 98.19 763.71
  L 90.54 753.53
  L 83.21 743.23
  L 76.21 732.83
  L 69.54 722.31
  L 63.19 711.69
  L 57.17 700.95
  L 51.47 690.10
  L 46.10 679.14
  L 41.57 669.26
  L 37.17 659.08
  L 32.90 648.58
  L 28.76 637.77
  L 23.57 623.03
  L 18.58 607.00
  L 14.18 590.77
  L 10.38 574.34
  L 7.18 557.71
  L 5.23 545.19
  L 3.60 531.83
  L 1.94 515.47
  L 1.23 505.80
  L 0.72 495.31
  L 0.30 485.64
  L 0.15 475.31
  L 0.26 464.30
  L 0.65 452.63
  L 1.20 442.57
  L 1.98 432.24
  L 4.21 410.76
  L 6.01 398.05
  L 8.44 384.29
  L 11.49 369.48
  L 15.17 353.62
  L 17.28 345.40
  L 19.65 337.06
  L 25.12 320.00
  L 31.59 302.43
  L 39.07 284.35
  L 43.75 273.91
  L 48.63 263.69
  L 53.70 253.67
  L 58.97 243.86
  L 64.43 234.27
  L 70.08 224.88
  L 75.93 215.71
  L 81.98 206.74
  L 91.82 193.00
  L 101.82 179.92
  L 111.97 167.52
  L 122.29 155.78
  L 136.27 140.85
  L 143.48 133.48
  L 147.20 130.14
  L 158.52 119.78
  L 168.74 110.78
  L 179.66 101.87
  L 191.27 93.06
  L 203.59 84.35
  L 214.56 77.06
  L 225.71 70.10
  L 237.02 63.45
  L 248.51 57.13
  L 248.51 57.13
  L 261.66 50.40
  L 275.02 44.08
  L 288.60 38.16
  L 302.40 32.66
  L 319.34 26.61
  L 337.91 20.73
  L 346.52 18.29
  L 356.14 15.80
  L 378.42 10.67
  L 389.95 8.36
  L 401.54 6.36
  L 401.54 6.36
  L 417.62 4.12
  L 433.79 2.47
  L 450.06 1.43
  L 466.43 0.98
  L 467.02 0.93
  L 469.50 0.71
  L 486.48 0.77
  L 506.00 1.32
  L 512.50 1.83
  L 516.69 2.12
  L 522.25 2.58
  L 525.50 3.02
  L 537.64 4.25
  L 551.35 6.13
  L 561.98 7.87
  L 572.54 9.82
  L 583.02 12.01
  L 593.42 14.41
  L 603.75 17.04
  L 614.00 19.89
  L 624.18 22.97
  L 634.28 26.26
  L 634.28 26.26
  L 634.28 26.26
  L 644.15 29.73
  L 653.95 33.41
  L 663.68 37.31
  L 673.33 41.42
  L 682.91 45.75
  L 692.41 50.30
  L 701.84 55.06
  L 711.20 60.04
  L 724.10 67.34
  L 736.72 75.03
  L 749.07 83.09
  L 761.15 91.54
  L 761.15 91.54
  L 769.70 97.87
  L 778.10 104.40
  L 786.36 111.13
  L 794.48 118.05
  L 802.46 125.17
  L 810.29 132.49
  L 817.98 140.01
  L 825.53 147.73
  L 826.87 149.14
  L 835.18 158.39
  L 843.85 168.64
  L 853.05 180.11
  L 862.47 192.43
  L 871.42 204.86
  L 879.67 217.30
  L 886.99 229.19
  L 893.94 241.19
  L 900.51 253.31
  L 906.72 265.54
  L 912.55 277.89
  L 918.01 290.36
  L 923.09 302.95
  L 927.81 315.65
  L 931.04 325.08
  L 934.08 334.70
  L 936.93 344.52
  L 939.61 354.53
  L 942.10 364.73
  L 944.40 375.12
  L 946.52 385.70
  L 948.46 396.48
  L 948.77 398.84
  L 949.19 402.00
  L 949.30 402.64
  L 951.32 416.06
  L 952.84 431.45
  L 953.36 436.54
  L 953.83 443.53
  L 954.34 450.85
  L 954.57 455.00
  L 954.72 463.54
  L 954.76 486.46
  L 954.56 493.55
  L 954.21 497.72
  L 953.92 500.66
  L 953.79 505.18
  L 953.58 511.00
  L 953.12 514.84
  L 952.77 518.87
  L 952.52 522.53
  L 952.09 525.14
  L 951.80 528.52
  L 951.61 531.63
  L 948.33 554.59
  L 944.77 573.28
  L 940.43 591.88
  L 935.30 610.41
  L 929.39 628.86
  L 925.98 638.38
  L 922.11 648.35
  L 917.77 658.78
  L 912.97 669.67
  L 906.69 683.01
  L 900.05 696.05
  L 893.05 708.82
  L 885.70 721.30
  L 877.99 733.49
  L 869.93 745.40
  L 861.50 757.02
  L 852.72 768.35
  L 852.72 768.35
  L 852.72 768.35
  L 850.55 771.05
  L 843.85 779.10
  L 836.09 788.07
  L 828.46 796.53
  L 820.90 804.45
  L 807.41 817.67
  L 793.49 830.33
  L 779.14 842.42
  L 764.37 853.94
  L 764.37 853.94
  L 755.43 860.48
  L 746.35 866.82
  L 737.12 872.96
  L 727.74 878.90
  L 718.21 884.65
  L 708.53 890.19
  L 698.71 895.54
  L 688.73 900.69
  L 684.73 902.52
  L 679.82 904.85
  L 672.29 908.39
  L 657.06 914.89
  L 652.03 916.95
  L 651.07 917.18
  Z
  M 218.50 524.85
  L 218.48 576.26
  L 218.62 578.67
  L 219.03 580.80
  L 219.72 582.62
  L 220.69 584.16
  L 222.31 585.83
  L 224.14 587.04
  L 226.12 587.79
  L 228.18 588.04
  L 229.79 587.89
  L 231.38 587.43
  L 232.84 586.72
  L 234.25 585.71
  L 243.37 578.12
  L 309.68 524.54
  L 310.31 524.18
  L 311.03 524.06
  L 497.23 524.02
  L 503.23 523.65
  L 509.06 522.56
  L 514.76 520.76
  L 520.17 518.28
  L 525.22 515.16
  L 529.85 511.44
  L 533.92 507.23
  L 537.47 502.49
  L 539.22 499.61
  L 540.76 496.58
  L 541.49 494.93
  L 541.49 494.93
  L 543.21 490.13
  L 544.45 485.13
  L 545.18 479.92
  L 545.43 474.50
  L 545.43 261.20
  L 545.08 251.49
  L 544.64 247.64
  L 544.03 244.48
  L 543.03 240.98
  L 541.80 237.59
  L 540.31 234.23
  L 538.59 231.00
  L 536.65 227.91
  L 534.51 224.98
  L 532.18 222.21
  L 529.66 219.62
  L 526.97 217.22
  L 524.12 215.02
  L 521.12 213.03
  L 517.98 211.26
  L 514.72 209.73
  L 511.35 208.43
  L 507.97 207.41
  L 504.49 206.64
  L 500.16 206.04
  L 495.73 205.84
  L 206.26 205.82
  L 198.46 206.08
  L 195.33 206.41
  L 192.72 206.87
  L 189.33 207.76
  L 186.04 208.89
  L 182.78 210.29
  L 179.65 211.91
  L 176.64 213.76
  L 173.77 215.82
  L 170.99 218.13
  L 168.38 220.63
  L 165.92 223.34
  L 163.66 226.20
  L 161.59 229.22
  L 159.74 232.36
  L 158.12 235.62
  L 156.72 238.98
  L 155.56 242.42
  L 154.65 245.94
  L 154.08 249.93
  L 153.71 255.81
  L 153.56 263.56
  L 153.61 273.19
  L 153.61 469.11
  L 153.85 478.45
  L 154.55 484.82
  L 155.91 490.26
  L 157.81 495.38
  L 160.28 500.24
  L 163.26 504.72
  L 166.13 508.18
  L 169.33 511.34
  L 172.82 514.20
  L 176.59 516.73
  L 180.62 518.93
  L 184.89 520.78
  L 189.38 522.27
  L 194.08 523.38
  L 196.98 523.79
  L 200.53 524.04
  L 210.75 524.11
  L 217.80 524.13
  L 218.29 524.35
  L 218.50 524.85
  Z
  M 734.89 760.74
  L 675.13 712.87
  L 672.40 711.12
  L 670.98 710.55
  L 669.52 710.17
  L 667.50 709.99
  L 453.88 710.02
  L 447.18 709.80
  L 444.68 709.51
  L 442.74 709.11
  L 439.45 707.95
  L 436.35 706.37
  L 433.41 704.35
  L 430.76 701.96
  L 428.49 699.30
  L 426.60 696.36
  L 425.17 693.28
  L 424.19 690.02
  L 423.62 685.31
  L 423.44 678.01
  L 423.44 550.53
  L 423.31 548.87
  L 422.96 547.34
  L 422.36 545.86
  L 421.57 544.55
  L 420.47 543.29
  L 419.20 542.25
  L 417.70 541.41
  L 416.08 540.84
  L 414.40 540.55
  L 412.68 540.56
  L 411.09 540.86
  L 409.54 541.43
  L 408.10 542.30
  L 406.79 543.45
  L 405.70 544.83
  L 404.78 546.49
  L 404.07 549.19
  L 403.83 553.15
  L 403.82 675.74
  L 403.91 682.86
  L 404.19 688.71
  L 404.67 693.32
  L 405.34 696.66
  L 407.38 702.39
  L 410.07 707.66
  L 413.43 712.53
  L 417.36 716.85
  L 420.26 719.39
  L 423.37 721.67
  L 426.68 723.67
  L 430.17 725.39
  L 433.84 726.82
  L 437.66 727.93
  L 441.52 728.72
  L 445.51 729.19
  L 457.52 729.33
  L 662.79 729.30
  L 663.84 729.48
  L 664.78 730.00
  L 737.13 788.23
  L 740.02 790.31
  L 742.16 791.26
  L 744.74 791.47
  L 747.39 790.95
  L 749.79 789.75
  L 751.91 787.90
  L 753.55 785.57
  L 754.07 784.27
  L 754.44 782.59
  L 754.75 778.08
  L 754.72 730.25
  L 754.72 730.24
  L 754.87 729.89
  L 755.23 729.76
  L 762.27 729.89
  L 767.81 729.79
  L 772.80 729.45
  L 777.37 728.84
  L 781.63 727.93
  L 785.60 726.73
  L 789.39 725.18
  L 792.91 723.32
  L 796.87 720.63
  L 800.34 717.71
  L 803.45 714.58
  L 806.20 711.23
  L 808.57 707.66
  L 808.57 707.66
  L 808.57 707.66
  L 810.09 704.90
  L 811.41 702.02
  L 812.53 699.02
  L 813.46 695.91
  L 814.09 692.37
  L 814.54 687.28
  L 814.80 680.66
  L 814.89 672.49
  L 814.94 455.63
  L 814.87 447.92
  L 814.58 441.56
  L 814.06 436.56
  L 813.32 432.92
  L 811.33 427.22
  L 808.74 421.88
  L 805.54 416.88
  L 801.80 412.35
  L 797.61 408.39
  L 792.97 405.01
  L 788.02 402.30
  L 782.71 400.24
  L 777.95 399.04
  L 772.98 398.38
  L 763.00 398.18
  L 568.75 398.22
  L 565.84 398.60
  L 564.57 399.06
  L 563.42 399.69
  L 563.42 399.69
  L 561.77 401.16
  L 560.45 403.13
  L 559.69 405.10
  L 559.37 407.15
  L 559.47 409.30
  L 559.99 411.37
  L 560.91 413.28
  L 562.18 414.95
  L 563.71 416.23
  L 565.50 417.14
  L 566.93 417.53
  L 568.47 417.66
  L 766.28 417.65
  L 770.68 417.89
  L 774.77 418.64
  L 778.54 419.89
  L 782.01 421.66
  L 782.01 421.66
  L 782.01 421.66
  L 782.01 421.66
  L 784.14 423.11
  L 786.14 424.79
  L 788.00 426.69
  L 789.72 428.81
  L 791.60 431.71
  L 793.10 434.77
  L 794.05 437.42
  L 794.74 440.14
  L 795.15 442.93
  L 795.29 445.75
  L 795.36 676.79
  L 795.27 682.16
  L 795.00 686.59
  L 794.54 690.05
  L 793.90 692.57
  L 792.92 694.93
  L 791.74 697.17
  L 790.14 699.57
  L 788.28 701.82
  L 786.14 703.90
  L 783.74 705.83
  L 781.45 707.27
  L 778.69 708.51
  L 775.60 709.38
  L 772.08 709.91
  L 768.00 710.11
  L 747.99 710.17
  L 743.85 710.40
  L 742.29 710.75
  L 740.91 711.31
  L 738.80 712.78
  L 736.59 715.23
  L 735.94 716.52
  L 735.51 718.43
  L 735.28 720.98
  L 735.27 724.15
  L 735.27 760.56
  L 735.26 760.64
  L 734.89 760.74
  Z
  M 623.79 496.12
  L 623.60 494.24
  L 623.06 492.43
  L 622.17 490.77
  L 620.97 489.31
  L 619.51 488.11
  L 617.85 487.22
  L 616.04 486.68
  L 614.16 486.49
  L 613.80 486.49
  L 611.92 486.68
  L 610.11 487.22
  L 608.45 488.11
  L 606.99 489.31
  L 605.79 490.77
  L 604.90 492.43
  L 604.36 494.24
  L 604.17 496.12
  L 604.17 591.00
  L 604.36 592.88
  L 604.90 594.69
  L 605.79 596.35
  L 606.99 597.81
  L 608.45 599.01
  L 610.11 599.90
  L 611.92 600.44
  L 613.80 600.63
  L 614.16 600.63
  L 616.04 600.44
  L 617.85 599.90
  L 619.51 599.01
  L 620.97 597.81
  L 622.17 596.35
  L 623.06 594.69
  L 623.60 592.88
  L 623.79 591.00
  L 623.79 496.12
  Z
  M 614.3630 620.5053
  L 612.3529 620.6143
  L 610.3977 621.1466
  L 608.5724 622.0818
  L 606.9473 623.3839
  L 605.5847 625.0030
  L 604.5371 626.8767
  L 603.8447 628.9330
  L 603.5341 631.0930
  L 603.6172 633.2737
  L 604.0909 635.3912
  L 604.9369 637.3641
  L 606.1228 639.1167
  L 607.6029 640.5816
  L 609.3204 641.7024
  L 611.2093 642.4362
  L 613.1970 642.7547
  L 615.2071 642.6457
  L 617.1623 642.1134
  L 618.9876 641.1782
  L 620.6127 639.8761
  L 621.9753 638.2570
  L 623.0229 636.3833
  L 623.7153 634.3270
  L 624.0259 632.1670
  L 623.9428 629.9863
  L 623.4691 627.8688
  L 622.6231 625.8959
  L 621.4372 624.1433
  L 619.9571 622.6784
  L 618.2396 621.5576
  L 616.3507 620.8238
  L 614.3630 620.5053
  Z"
/>
<path d="
  M 238.09 556.39
  L 238.14 518.50
  L 238.15 515.06
  L 237.89 512.44
  L 237.35 510.40
  L 236.45 508.61
  L 234.84 506.80
  L 232.51 505.23
  L 231.46 504.81
  L 230.10 504.52
  L 226.46 504.31
  L 207.32 504.40
  L 202.92 504.32
  L 199.13 504.05
  L 195.96 503.56
  L 193.39 502.88
  L 190.42 501.67
  L 187.65 500.18
  L 185.03 498.37
  L 182.65 496.31
  L 180.58 494.10
  L 178.77 491.69
  L 177.21 489.10
  L 175.92 486.34
  L 174.91 483.49
  L 174.19 480.51
  L 173.75 477.43
  L 173.60 474.25
  L 173.60 261.63
  L 173.68 256.82
  L 173.94 252.79
  L 174.37 249.53
  L 174.98 247.04
  L 176.61 243.07
  L 178.77 239.34
  L 181.42 235.94
  L 184.51 232.92
  L 187.88 230.42
  L 191.56 228.41
  L 195.39 226.99
  L 199.43 226.13
  L 203.83 225.89
  L 212.12 225.81
  L 493.79 225.79
  L 497.98 226.01
  L 501.94 226.67
  L 505.66 227.79
  L 509.14 229.34
  L 509.14 229.34
  L 512.16 231.20
  L 514.98 233.43
  L 517.60 236.06
  L 520.01 239.07
  L 521.70 241.70
  L 523.02 244.35
  L 524.17 247.59
  L 524.95 251.17
  L 525.39 255.25
  L 525.52 260.05
  L 525.58 462.20
  L 525.34 475.77
  L 525.03 480.06
  L 524.60 482.68
  L 523.28 486.44
  L 521.45 490.01
  L 519.17 493.33
  L 516.47 496.32
  L 513.46 498.89
  L 510.12 501.02
  L 506.62 502.63
  L 502.89 503.72
  L 499.00 504.18
  L 493.06 504.34
  L 305.38 504.33
  L 304.97 504.34
  L 302.98 504.84
  L 301.04 506.04
  L 238.62 556.64
  L 238.33 556.70
  L 238.11 556.50
  L 238.09 556.39
  Z
  M 338.80 398.94
  L 341.19 400.11
  L 343.58 400.71
  L 346.02 400.74
  L 348.34 400.19
  L 349.91 399.42
  L 351.34 398.35
  L 352.55 397.06
  L 353.58 395.51
  L 354.11 394.27
  L 354.45 392.68
  L 354.58 388.35
  L 354.57 388.04
  L 354.63 385.45
  L 354.94 383.10
  L 355.50 380.83
  L 356.29 378.79
  L 357.96 375.86
  L 360.23 373.14
  L 363.12 370.51
  L 367.53 367.20
  L 373.22 362.81
  L 375.97 360.19
  L 378.47 357.43
  L 380.76 354.45
  L 382.77 351.35
  L 384.52 348.12
  L 385.99 344.80
  L 387.21 341.31
  L 388.13 337.76
  L 388.77 334.12
  L 389.10 330.46
  L 389.13 326.79
  L 388.86 323.14
  L 388.30 319.57
  L 387.44 316.05
  L 386.29 312.61
  L 384.84 309.25
  L 383.33 306.40
  L 381.60 303.64
  L 379.71 301.07
  L 377.61 298.62
  L 375.31 296.29
  L 372.80 294.10
  L 370.16 292.11
  L 367.33 290.27
  L 363.27 288.10
  L 359.07 286.39
  L 353.67 284.89
  L 348.18 284.09
  L 342.57 283.99
  L 337.00 284.60
  L 331.56 285.91
  L 326.32 287.89
  L 321.42 290.49
  L 316.85 293.73
  L 312.90 297.34
  L 309.36 301.50
  L 307.58 304.04
  L 305.99 306.69
  L 305.99 306.69
  L 305.99 306.69
  L 305.99 306.69
  L 303.65 311.58
  L 301.88 316.78
  L 300.68 322.30
  L 300.06 328.14
  L 299.88 332.60
  L 299.97 334.63
  L 301.06 337.13
  L 302.46 338.89
  L 304.20 340.26
  L 306.28 341.26
  L 308.53 341.80
  L 310.84 341.88
  L 313.10 341.48
  L 315.12 340.63
  L 316.92 339.31
  L 317.97 338.13
  L 318.84 336.73
  L 319.52 334.33
  L 319.83 330.53
  L 320.31 325.52
  L 321.47 320.89
  L 323.27 316.76
  L 324.42 314.85
  L 325.74 313.06
  L 327.62 311.02
  L 329.76 309.16
  L 332.09 307.56
  L 334.67 306.16
  L 336.95 305.22
  L 339.31 304.53
  L 341.74 304.09
  L 344.20 303.90
  L 346.67 303.96
  L 349.11 304.28
  L 351.49 304.85
  L 353.80 305.67
  L 357.13 307.35
  L 360.09 309.39
  L 362.73 311.83
  L 364.95 314.56
  L 366.77 317.61
  L 368.11 320.86
  L 368.96 324.25
  L 369.31 327.75
  L 369.26 330.02
  L 369.00 332.29
  L 368.51 334.56
  L 367.79 336.80
  L 366.87 338.96
  L 365.73 341.07
  L 364.41 343.03
  L 362.89 344.92
  L 359.47 348.16
  L 353.91 352.27
  L 350.21 354.93
  L 346.60 357.94
  L 343.44 361.18
  L 340.74 364.67
  L 338.50 368.39
  L 337.02 371.57
  L 335.84 374.90
  L 335.06 378.17
  L 334.55 381.90
  L 334.30 386.12
  L 334.28 391.26
  L 334.52 393.31
  L 335.18 395.16
  L 335.18 395.16
  L 336.65 397.22
  L 338.80 398.94
  Z
  M 345.2182 417.9475
  L 343.2042 418.0878
  L 341.2520 418.6506
  L 339.4364 419.6142
  L 337.8274 420.9415
  L 336.4867 422.5816
  L 335.4659 424.4714
  L 334.8041 426.5383
  L 334.5269 428.7029
  L 334.6449 430.8820
  L 335.1534 432.9919
  L 336.0331 434.9514
  L 337.2501 436.6853
  L 338.7576 438.1269
  L 340.4977 439.2208
  L 342.4035 439.9250
  L 344.4018 440.2125
  L 346.4158 440.0722
  L 348.3680 439.5094
  L 350.1836 438.5458
  L 351.7926 437.2185
  L 353.1333 435.5784
  L 354.1541 433.6886
  L 354.8159 431.6217
  L 355.0931 429.4571
  L 354.9751 427.2780
  L 354.4666 425.1681
  L 353.5869 423.2086
  L 352.3699 421.4747
  L 350.8624 420.0331
  L 349.1223 418.9392
  L 347.2165 418.2350
  L 345.2182 417.9475
  Z"
/>
</g>
<g fill="#151617">
<path d="
  M 217.80 524.13
  L 210.75 524.11
  L 200.53 524.04
  L 196.98 523.79
  L 194.08 523.38
  L 189.38 522.27
  L 184.89 520.78
  L 180.62 518.93
  L 176.59 516.73
  L 172.82 514.20
  L 169.33 511.34
  L 166.13 508.18
  L 163.26 504.72
  L 160.28 500.24
  L 157.81 495.38
  L 155.91 490.26
  L 154.55 484.82
  L 153.85 478.45
  L 153.61 469.11
  L 153.61 273.19
  L 153.56 263.56
  L 153.71 255.81
  L 154.08 249.93
  L 154.65 245.94
  L 155.56 242.42
  L 156.72 238.98
  L 158.12 235.62
  L 159.74 232.36
  L 161.59 229.22
  L 163.66 226.20
  L 165.92 223.34
  L 168.38 220.63
  L 170.99 218.13
  L 173.77 215.82
  L 176.64 213.76
  L 179.65 211.91
  L 182.78 210.29
  L 186.04 208.89
  L 189.33 207.76
  L 192.72 206.87
  L 195.33 206.41
  L 198.46 206.08
  L 206.26 205.82
  L 495.73 205.84
  L 500.16 206.04
  L 504.49 206.64
  L 507.97 207.41
  L 511.35 208.43
  L 514.72 209.73
  L 517.98 211.26
  L 521.12 213.03
  L 524.12 215.02
  L 526.97 217.22
  L 529.66 219.62
  L 532.18 222.21
  L 534.51 224.98
  L 536.65 227.91
  L 538.59 231.00
  L 540.31 234.23
  L 541.80 237.59
  L 543.03 240.98
  L 544.03 244.48
  L 544.64 247.64
  L 545.08 251.49
  L 545.43 261.20
  L 545.43 474.50
  L 545.18 479.92
  L 544.45 485.13
  L 543.21 490.13
  L 541.49 494.93
  L 541.49 494.93
  L 540.76 496.58
  L 539.22 499.61
  L 537.47 502.49
  L 533.92 507.23
  L 529.85 511.44
  L 525.22 515.16
  L 520.17 518.28
  L 514.76 520.76
  L 509.06 522.56
  L 503.23 523.65
  L 497.23 524.02
  L 311.03 524.06
  L 310.31 524.18
  L 309.68 524.54
  L 243.37 578.12
  L 234.25 585.71
  L 232.84 586.72
  L 231.38 587.43
  L 229.79 587.89
  L 228.18 588.04
  L 226.12 587.79
  L 224.14 587.04
  L 222.31 585.83
  L 220.69 584.16
  L 219.72 582.62
  L 219.03 580.80
  L 218.62 578.67
  L 218.48 576.26
  L 218.50 524.85
  L 218.29 524.35
  L 217.80 524.13
  Z
  M 238.09 556.39
  L 238.11 556.50
  L 238.33 556.70
  L 238.62 556.64
  L 301.04 506.04
  L 302.98 504.84
  L 304.97 504.34
  L 305.38 504.33
  L 493.06 504.34
  L 499.00 504.18
  L 502.89 503.72
  L 506.62 502.63
  L 510.12 501.02
  L 513.46 498.89
  L 516.47 496.32
  L 519.17 493.33
  L 521.45 490.01
  L 523.28 486.44
  L 524.60 482.68
  L 525.03 480.06
  L 525.34 475.77
  L 525.58 462.20
  L 525.52 260.05
  L 525.39 255.25
  L 524.95 251.17
  L 524.17 247.59
  L 523.02 244.35
  L 521.70 241.70
  L 520.01 239.07
  L 517.60 236.06
  L 514.98 233.43
  L 512.16 231.20
  L 509.14 229.34
  L 509.14 229.34
  L 505.66 227.79
  L 501.94 226.67
  L 497.98 226.01
  L 493.79 225.79
  L 212.12 225.81
  L 203.83 225.89
  L 199.43 226.13
  L 195.39 226.99
  L 191.56 228.41
  L 187.88 230.42
  L 184.51 232.92
  L 181.42 235.94
  L 178.77 239.34
  L 176.61 243.07
  L 174.98 247.04
  L 174.37 249.53
  L 173.94 252.79
  L 173.68 256.82
  L 173.60 261.63
  L 173.60 474.25
  L 173.75 477.43
  L 174.19 480.51
  L 174.91 483.49
  L 175.92 486.34
  L 177.21 489.10
  L 178.77 491.69
  L 180.58 494.10
  L 182.65 496.31
  L 185.03 498.37
  L 187.65 500.18
  L 190.42 501.67
  L 193.39 502.88
  L 195.96 503.56
  L 199.13 504.05
  L 202.92 504.32
  L 207.32 504.40
  L 226.46 504.31
  L 230.10 504.52
  L 231.46 504.81
  L 232.51 505.23
  L 234.84 506.80
  L 236.45 508.61
  L 237.35 510.40
  L 237.89 512.44
  L 238.15 515.06
  L 238.14 518.50
  L 238.09 556.39
  Z"
/>
<path d="
  M 353.58 395.51
  L 352.55 397.06
  L 351.34 398.35
  L 349.91 399.42
  L 348.34 400.19
  L 346.02 400.74
  L 343.58 400.71
  L 341.19 400.11
  L 338.80 398.94
  L 336.65 397.22
  L 335.18 395.16
  L 335.18 395.16
  L 334.52 393.31
  L 334.28 391.26
  L 334.30 386.12
  L 334.55 381.90
  L 335.06 378.17
  L 335.84 374.90
  L 337.02 371.57
  L 338.50 368.39
  L 338.50 368.39
  L 340.74 364.67
  L 343.44 361.18
  L 346.60 357.94
  L 350.21 354.93
  L 353.91 352.27
  L 359.47 348.16
  L 362.89 344.92
  L 364.41 343.03
  L 365.73 341.07
  L 366.87 338.96
  L 367.79 336.80
  L 368.51 334.56
  L 369.00 332.29
  L 369.26 330.02
  L 369.31 327.75
  L 368.96 324.25
  L 368.11 320.86
  L 366.77 317.61
  L 364.95 314.56
  L 362.73 311.83
  L 360.09 309.39
  L 357.13 307.35
  L 353.80 305.67
  L 351.49 304.85
  L 349.11 304.28
  L 346.67 303.96
  L 344.20 303.90
  L 341.74 304.09
  L 339.31 304.53
  L 336.95 305.22
  L 334.67 306.16
  L 332.09 307.56
  L 329.76 309.16
  L 327.62 311.02
  L 325.74 313.06
  L 324.42 314.85
  L 323.27 316.76
  L 321.47 320.89
  L 320.31 325.52
  L 319.83 330.53
  L 319.52 334.33
  L 318.84 336.73
  L 317.97 338.13
  L 316.92 339.31
  L 315.12 340.63
  L 313.10 341.48
  L 310.84 341.88
  L 308.53 341.80
  L 306.28 341.26
  L 304.20 340.26
  L 302.46 338.89
  L 301.06 337.13
  L 299.97 334.63
  L 299.88 332.60
  L 300.06 328.14
  L 300.68 322.30
  L 301.88 316.78
  L 303.65 311.58
  L 305.99 306.69
  L 305.99 306.69
  L 305.99 306.69
  L 307.58 304.04
  L 309.36 301.50
  L 312.90 297.34
  L 316.85 293.73
  L 321.42 290.49
  L 326.32 287.89
  L 331.56 285.91
  L 337.00 284.60
  L 342.57 283.99
  L 348.18 284.09
  L 353.67 284.89
  L 359.07 286.39
  L 363.27 288.10
  L 367.33 290.27
  L 370.16 292.11
  L 372.80 294.10
  L 375.31 296.29
  L 377.61 298.62
  L 379.71 301.07
  L 381.60 303.64
  L 383.33 306.40
  L 384.84 309.25
  L 386.29 312.61
  L 387.44 316.05
  L 388.30 319.57
  L 388.86 323.14
  L 389.13 326.79
  L 389.10 330.46
  L 388.77 334.12
  L 388.13 337.76
  L 387.21 341.31
  L 385.99 344.80
  L 384.52 348.12
  L 382.77 351.35
  L 380.76 354.45
  L 378.47 357.43
  L 375.97 360.19
  L 373.22 362.81
  L 367.53 367.20
  L 363.12 370.51
  L 360.23 373.14
  L 357.96 375.86
  L 356.29 378.79
  L 355.50 380.83
  L 354.94 383.10
  L 354.63 385.45
  L 354.57 388.04
  L 354.58 388.35
  L 354.45 392.68
  L 354.11 394.27
  L 353.58 395.51
  Z"
/>
<path d="
  M 734.89 760.74
  L 735.26 760.64
  L 735.27 760.56
  L 735.27 724.15
  L 735.28 720.98
  L 735.51 718.43
  L 735.94 716.52
  L 736.59 715.23
  L 738.80 712.78
  L 740.91 711.31
  L 742.29 710.75
  L 743.85 710.40
  L 747.99 710.17
  L 768.00 710.11
  L 772.08 709.91
  L 775.60 709.38
  L 778.69 708.51
  L 781.45 707.27
  L 783.74 705.83
  L 786.14 703.90
  L 788.28 701.82
  L 790.14 699.57
  L 791.74 697.17
  L 792.92 694.93
  L 793.90 692.57
  L 794.54 690.05
  L 795.00 686.59
  L 795.27 682.16
  L 795.36 676.79
  L 795.29 445.75
  L 795.15 442.93
  L 794.74 440.14
  L 794.05 437.42
  L 793.10 434.77
  L 791.60 431.71
  L 789.72 428.81
  L 788.00 426.69
  L 786.14 424.79
  L 784.14 423.11
  L 782.01 421.66
  L 782.01 421.66
  L 778.54 419.89
  L 774.77 418.64
  L 770.68 417.89
  L 766.28 417.65
  L 568.47 417.66
  L 566.93 417.53
  L 565.50 417.14
  L 563.71 416.23
  L 562.18 414.95
  L 560.91 413.28
  L 559.99 411.37
  L 559.47 409.30
  L 559.37 407.15
  L 559.69 405.10
  L 560.45 403.13
  L 561.77 401.16
  L 563.42 399.69
  L 563.42 399.69
  L 564.57 399.06
  L 565.84 398.60
  L 568.75 398.22
  L 763.00 398.18
  L 772.98 398.38
  L 777.95 399.04
  L 782.71 400.24
  L 788.02 402.30
  L 792.97 405.01
  L 797.61 408.39
  L 801.80 412.35
  L 805.54 416.88
  L 808.74 421.88
  L 811.33 427.22
  L 813.32 432.92
  L 814.06 436.56
  L 814.58 441.56
  L 814.87 447.92
  L 814.94 455.63
  L 814.89 672.49
  L 814.80 680.66
  L 814.54 687.28
  L 814.09 692.37
  L 813.46 695.91
  L 812.53 699.02
  L 811.41 702.02
  L 810.09 704.90
  L 808.57 707.66
  L 808.57 707.66
  L 808.57 707.66
  L 806.20 711.23
  L 803.45 714.58
  L 800.34 717.71
  L 796.87 720.63
  L 792.91 723.32
  L 789.39 725.18
  L 785.60 726.73
  L 781.63 727.93
  L 777.37 728.84
  L 772.80 729.45
  L 767.81 729.79
  L 762.27 729.89
  L 755.23 729.76
  L 754.87 729.89
  L 754.72 730.24
  L 754.72 730.25
  L 754.75 778.08
  L 754.44 782.59
  L 754.07 784.27
  L 753.55 785.57
  L 751.91 787.90
  L 749.79 789.75
  L 747.39 790.95
  L 744.74 791.47
  L 742.16 791.26
  L 740.02 790.31
  L 737.13 788.23
  L 664.78 730.00
  L 663.84 729.48
  L 662.79 729.30
  L 457.52 729.33
  L 445.51 729.19
  L 441.52 728.72
  L 437.66 727.93
  L 433.84 726.82
  L 430.17 725.39
  L 426.68 723.67
  L 423.37 721.67
  L 420.26 719.39
  L 417.36 716.85
  L 413.43 712.53
  L 410.07 707.66
  L 407.38 702.39
  L 405.34 696.66
  L 404.67 693.32
  L 404.19 688.71
  L 403.91 682.86
  L 403.82 675.74
  L 403.83 553.15
  L 404.07 549.19
  L 404.78 546.49
  L 405.70 544.83
  L 406.79 543.45
  L 408.10 542.30
  L 409.54 541.43
  L 411.09 540.86
  L 412.68 540.56
  L 414.40 540.55
  L 416.08 540.84
  L 417.70 541.41
  L 419.20 542.25
  L 420.47 543.29
  L 421.57 544.55
  L 422.36 545.86
  L 422.96 547.34
  L 423.31 548.87
  L 423.44 550.53
  L 423.44 678.01
  L 423.62 685.31
  L 424.19 690.02
  L 425.17 693.28
  L 426.60 696.36
  L 428.49 699.30
  L 430.76 701.96
  L 433.41 704.35
  L 436.35 706.37
  L 439.45 707.95
  L 442.74 709.11
  L 444.68 709.51
  L 447.18 709.80
  L 453.88 710.02
  L 667.50 709.99
  L 669.52 710.17
  L 670.98 710.55
  L 672.40 711.12
  L 675.13 712.87
  L 734.89 760.74
  Z"
/>
<ellipse cx="0.00" cy="0.00" transform="translate(344.81,429.08) rotate(-87.9)" rx="11.14" ry="10.29"/>
<rect x="604.17" y="486.49" width="19.62" height="114.14" rx="9.63"/>
<ellipse cx="0.00" cy="0.00" transform="translate(613.78,631.63) rotate(-87.0)" rx="11.14" ry="10.26"/>
</g>
</svg>
