<?xml version="1.0" encoding="UTF-8" standalone="no"?>
<!DOCTYPE svg PUBLIC "-//W3C//DTD SVG 1.1//EN" "http://www.w3.org/Graphics/SVG/1.1/DTD/svg11.dtd">
<svg xmlns="http://www.w3.org/2000/svg" version="1.1" viewBox="0.00 0.00 918.00 917.00" width="918.00" height="917.00">
<g stroke-width="2.00" fill="none" stroke-linecap="butt">
<path stroke="#8c8d8d" vector-effect="non-scaling-stroke" d="
  M 753.18 242.77
  L 753.00 239.17
  L 752.45 235.61
  L 751.55 232.13
  L 750.31 228.75
  L 747.92 224.14
  L 744.89 219.92
  L 741.28 216.19
  L 737.17 213.02
  L 732.64 210.49
  L 727.79 208.63
  L 722.72 207.51
  L 717.54 207.13
  L 197.98 207.13
  L 194.96 207.26
  L 191.96 207.64
  L 189.01 208.28
  L 186.12 209.16
  L 183.57 210.17
  L 181.11 211.38
  L 178.74 212.77
  L 176.49 214.34
  L 174.37 216.07
  L 172.39 217.97
  L 170.56 220.01
  L 168.89 222.18
  L 167.39 224.48
  L 166.07 226.89
  L 164.95 229.39
  L 164.02 231.97
  L 163.29 234.61
  L 162.76 237.30
  L 162.45 240.03
  L 162.34 242.77
  L 162.34 340.12
  L 162.48 343.24
  L 162.89 346.34
  L 163.57 349.39
  L 164.51 352.36
  L 165.71 355.25
  L 167.16 358.02
  L 168.84 360.65
  L 170.75 363.12
  L 172.87 365.41
  L 175.18 367.51
  L 177.67 369.41
  L 180.31 371.07
  L 183.09 372.50
  L 185.98 373.68
  L 188.97 374.60
  L 192.02 375.26
  L 192.02 375.26
  L 192.02 375.26
  L 194.99 375.63
  L 197.98 375.76
  L 717.54 375.76
  L 718.33 375.75
  L 721.77 375.51
  L 725.17 374.93
  L 728.50 374.03
  L 731.73 372.81
  L 734.82 371.29
  L 737.75 369.47
  L 740.49 367.38
  L 743.02 365.04
  L 745.31 362.46
  L 747.34 359.67
  L 749.09 356.70
  L 750.54 353.58
  L 751.69 350.32
  L 752.51 346.98
  L 753.01 343.56
  L 753.18 340.12
  L 753.18 242.77"
/>
<path stroke="#8c8d8d" vector-effect="non-scaling-stroke" d="
  M 634.59 745.90
  L 644.32 745.54
  L 653.94 744.44
  L 663.53 742.59
  L 672.92 740.04
  L 682.22 736.74
  L 691.22 732.76
  L 699.90 728.13
  L 708.20 722.86
  L 716.04 717.01
  L 723.42 710.59
  L 730.24 703.68
  L 736.53 696.26
  L 742.14 688.50
  L 747.16 680.27
  L 751.52 671.68
  L 755.16 662.88
  L 755.92 660.72
  L 758.13 653.61
  L 759.96 646.17
  L 761.40 638.41
  L 762.46 630.32
  L 762.90 619.87
  L 763.08 599.17
  L 763.14 513.86
  L 763.02 511.99
  L 762.67 510.28
  L 762.09 508.73
  L 761.29 507.35
  L 761.29 507.35
  L 761.29 507.35
  L 759.99 505.90
  L 758.37 504.69
  L 756.40 503.73
  L 754.09 503.00
  L 753.73 502.96
  L 710.20 502.96
  L 709.79 502.79
  L 709.62 502.38
  L 709.64 477.02
  L 709.37 470.31
  L 708.67 464.06
  L 707.56 458.26
  L 706.03 452.92
  L 704.35 448.44
  L 702.41 444.11
  L 700.17 439.86
  L 697.68 435.78
  L 694.94 431.86
  L 691.97 428.14
  L 688.79 424.63
  L 685.39 421.33
  L 681.79 418.24
  L 678.00 415.38
  L 674.04 412.77
  L 669.92 410.41
  L 665.69 408.33
  L 661.33 406.52
  L 656.85 404.99
  L 652.25 403.74
  L 648.01 402.86
  L 643.69 402.22
  L 639.41 401.84
  L 635.07 401.71
  L 630.73 401.83
  L 626.45 402.20
  L 622.13 402.82
  L 617.88 403.69
  L 613.28 404.93
  L 608.79 406.45
  L 604.43 408.25
  L 600.19 410.31
  L 596.07 412.66
  L 592.10 415.26
  L 588.30 418.11
  L 584.69 421.19
  L 581.29 424.48
  L 578.09 427.98
  L 575.11 431.70
  L 572.36 435.61
  L 569.86 439.68
  L 567.61 443.92
  L 565.66 448.24
  L 563.97 452.72
  L 562.42 458.06
  L 561.29 463.85
  L 560.58 470.11
  L 560.29 476.81
  L 560.24 502.17
  L 560.16 502.46
  L 559.66 502.75
  L 516.13 502.63
  L 515.77 502.67
  L 513.46 503.39
  L 511.49 504.35
  L 509.85 505.56
  L 508.56 507.00
  L 508.56 507.00
  L 507.74 508.38
  L 507.16 509.92
  L 506.81 511.63
  L 506.69 513.50
  L 506.51 598.81
  L 506.64 619.52
  L 507.04 629.97
  L 508.08 638.06
  L 509.50 645.82
  L 511.30 653.26
  L 513.49 660.38
  L 514.26 662.54
  L 517.86 671.36
  L 522.20 679.96
  L 527.20 688.20
  L 532.79 695.98
  L 539.06 703.42
  L 545.86 710.34
  L 553.22 716.79
  L 561.05 722.65
  L 569.33 727.95
  L 578.00 732.61
  L 586.99 736.61
  L 596.27 739.93
  L 605.66 742.51
  L 615.25 744.38
  L 624.86 745.51
  L 634.59 745.90"
/>
<path stroke="#8c8d8d" vector-effect="non-scaling-stroke" d="
  M 459.65 629.72
  L 460.68 627.88
  L 461.33 626.01
  L 461.62 624.05
  L 461.53 622.12
  L 461.09 620.29
  L 460.33 618.59
  L 459.26 617.04
  L 457.91 615.70
  L 456.35 614.63
  L 454.58 613.83
  L 452.71 613.36
  L 450.68 613.19
  L 196.57 613.18
  L 192.52 612.95
  L 191.08 612.67
  L 190.02 612.27
  L 187.48 610.58
  L 185.72 608.64
  L 184.77 606.83
  L 184.13 604.57
  L 183.80 601.77
  L 183.71 597.99
  L 183.71 496.71
  L 183.76 494.04
  L 184.01 491.71
  L 184.47 489.70
  L 185.14 488.03
  L 186.67 485.87
  L 188.40 484.50
  L 190.53 483.53
  L 193.06 482.94
  L 195.99 482.75
  L 486.75 482.78
  L 488.63 482.64
  L 490.33 482.24
  L 491.92 481.57
  L 493.30 480.67
  L 494.83 479.14
  L 495.97 477.33
  L 496.73 475.23
  L 497.05 473.01
  L 496.91 470.76
  L 496.33 468.58
  L 495.35 466.65
  L 493.95 464.94
  L 492.32 463.67
  L 490.36 462.70
  L 488.21 462.13
  L 485.75 461.93
  L 201.39 461.89
  L 195.72 461.92
  L 191.05 462.13
  L 187.39 462.52
  L 184.72 463.10
  L 180.97 464.49
  L 177.59 466.21
  L 174.49 468.31
  L 171.75 470.72
  L 169.59 473.15
  L 167.72 475.80
  L 166.09 478.75
  L 164.77 481.88
  L 163.73 485.23
  L 162.99 488.74
  L 162.53 492.50
  L 162.38 496.38
  L 162.42 601.01
  L 162.63 604.94
  L 163.22 608.75
  L 164.18 612.39
  L 165.51 615.85
  L 167.18 619.09
  L 169.20 622.10
  L 171.54 624.83
  L 174.21 627.28
  L 176.56 628.99
  L 179.09 630.49
  L 181.72 631.73
  L 184.52 632.73
  L 187.37 633.39
  L 191.04 633.86
  L 195.52 634.14
  L 200.81 634.23
  L 448.84 634.23
  L 451.42 634.13
  L 453.54 633.83
  L 455.33 633.29
  L 456.94 632.45
  L 458.37 631.28
  L 459.65 629.72"
/>
<path stroke="#8c8d8d" vector-effect="non-scaling-stroke" d="
  M 262.92 549.65
  L 262.69 547.28
  L 262.00 545.00
  L 260.87 542.91
  L 259.36 541.07
  L 257.52 539.56
  L 255.43 538.43
  L 253.15 537.74
  L 250.78 537.51
  L 248.41 537.74
  L 246.13 538.43
  L 244.04 539.56
  L 242.20 541.07
  L 240.69 542.91
  L 239.56 545.00
  L 238.87 547.28
  L 238.64 549.65
  L 238.87 552.02
  L 239.56 554.30
  L 240.69 556.39
  L 242.20 558.23
  L 244.04 559.74
  L 246.13 560.87
  L 248.41 561.56
  L 250.78 561.79
  L 253.15 561.56
  L 255.43 560.87
  L 257.52 559.74
  L 259.36 558.23
  L 260.87 556.39
  L 262.00 554.30
  L 262.69 552.02
  L 262.92 549.65"
/>
<path stroke="#8c8d8d" vector-effect="non-scaling-stroke" d="
  M 322.01 549.64
  L 321.78 547.27
  L 321.08 544.98
  L 319.96 542.88
  L 318.45 541.03
  L 316.60 539.52
  L 314.50 538.40
  L 312.21 537.70
  L 309.84 537.47
  L 307.47 537.70
  L 305.18 538.40
  L 303.08 539.52
  L 301.23 541.03
  L 299.72 542.88
  L 298.60 544.98
  L 297.90 547.27
  L 297.67 549.64
  L 297.90 552.01
  L 298.60 554.30
  L 299.72 556.40
  L 301.23 558.25
  L 303.08 559.76
  L 305.18 560.88
  L 307.47 561.58
  L 309.84 561.81
  L 312.21 561.58
  L 314.50 560.88
  L 316.60 559.76
  L 318.45 558.25
  L 319.96 556.40
  L 321.08 554.30
  L 321.78 552.01
  L 322.01 549.64"
/>
<path stroke="#8c8d8d" vector-effect="non-scaling-stroke" d="
  M 380.30 549.66
  L 380.07 547.29
  L 379.38 545.02
  L 378.26 542.92
  L 376.75 541.08
  L 374.91 539.57
  L 372.81 538.45
  L 370.54 537.76
  L 368.17 537.53
  L 365.80 537.76
  L 363.53 538.45
  L 361.43 539.57
  L 359.59 541.08
  L 358.08 542.92
  L 356.96 545.02
  L 356.27 547.29
  L 356.04 549.66
  L 356.27 552.03
  L 356.96 554.30
  L 358.08 556.40
  L 359.59 558.24
  L 361.43 559.75
  L 363.53 560.87
  L 365.80 561.56
  L 368.17 561.79
  L 370.54 561.56
  L 372.81 560.87
  L 374.91 559.75
  L 376.75 558.24
  L 378.26 556.40
  L 379.38 554.30
  L 380.07 552.03
  L 380.30 549.66"
/>
<path stroke="#8c8d8d" vector-effect="non-scaling-stroke" d="
  M 439.22 549.63
  L 438.99 547.26
  L 438.30 544.98
  L 437.17 542.89
  L 435.66 541.05
  L 433.82 539.54
  L 431.73 538.41
  L 429.45 537.72
  L 427.08 537.49
  L 424.71 537.72
  L 422.43 538.41
  L 420.34 539.54
  L 418.50 541.05
  L 416.99 542.89
  L 415.86 544.98
  L 415.17 547.26
  L 414.94 549.63
  L 415.17 552.00
  L 415.86 554.28
  L 416.99 556.37
  L 418.50 558.21
  L 420.34 559.72
  L 422.43 560.85
  L 424.71 561.54
  L 427.08 561.77
  L 429.45 561.54
  L 431.73 560.85
  L 433.82 559.72
  L 435.66 558.21
  L 437.17 556.37
  L 438.30 554.28
  L 438.99 552.00
  L 439.22 549.63"
/>
<path stroke="#8c8d8d" vector-effect="non-scaling-stroke" d="
  M 731.90 241.94
  L 731.64 239.31
  L 730.87 236.78
  L 729.63 234.45
  L 727.95 232.40
  L 725.90 230.72
  L 723.57 229.48
  L 721.04 228.71
  L 718.41 228.45
  L 197.29 228.45
  L 194.66 228.71
  L 192.13 229.48
  L 189.80 230.72
  L 187.75 232.40
  L 186.07 234.45
  L 184.83 236.78
  L 184.06 239.31
  L 183.80 241.94
  L 183.80 340.60
  L 184.06 343.23
  L 184.83 345.76
  L 186.07 348.09
  L 187.75 350.14
  L 189.80 351.82
  L 192.13 353.06
  L 194.66 353.83
  L 197.29 354.09
  L 718.41 354.09
  L 721.04 353.83
  L 723.57 353.06
  L 725.90 351.82
  L 727.95 350.14
  L 729.63 348.09
  L 730.87 345.76
  L 731.64 343.23
  L 731.90 340.60
  L 731.90 241.94"
/>
<path stroke="#8c8d8d" vector-effect="non-scaling-stroke" d="
  M 657.91 291.26
  L 657.71 289.23
  L 657.12 287.27
  L 656.15 285.47
  L 654.86 283.88
  L 653.27 282.59
  L 651.47 281.62
  L 649.51 281.03
  L 647.48 280.83
  L 267.86 280.83
  L 265.83 281.03
  L 263.87 281.62
  L 262.07 282.59
  L 260.48 283.88
  L 259.19 285.47
  L 258.22 287.27
  L 257.63 289.23
  L 257.43 291.26
  L 257.43 291.64
  L 257.63 293.67
  L 258.22 295.63
  L 259.19 297.43
  L 260.48 299.02
  L 262.07 300.31
  L 263.87 301.28
  L 265.83 301.87
  L 267.86 302.07
  L 647.48 302.07
  L 649.51 301.87
  L 651.47 301.28
  L 653.27 300.31
  L 654.86 299.02
  L 656.15 297.43
  L 657.12 295.63
  L 657.71 293.67
  L 657.91 291.64
  L 657.91 291.26"
/>
<path stroke="#8c8d8d" vector-effect="non-scaling-stroke" d="
  M 581.12 502.82
  L 688.88 502.82
  L 689.29 502.65
  L 689.46 502.24
  L 689.46 477.06
  L 689.20 471.68
  L 688.42 466.35
  L 687.12 461.12
  L 685.32 456.04
  L 683.04 451.17
  L 680.30 446.55
  L 677.13 442.22
  L 673.54 438.23
  L 669.59 434.61
  L 665.31 431.40
  L 660.74 428.62
  L 655.92 426.32
  L 650.89 424.50
  L 645.72 423.20
  L 640.45 422.40
  L 635.12 422.14
  L 635.12 422.14
  L 634.88 422.14
  L 634.88 422.14
  L 629.55 422.40
  L 624.28 423.20
  L 619.11 424.50
  L 614.08 426.32
  L 609.26 428.62
  L 604.69 431.40
  L 600.41 434.61
  L 596.46 438.23
  L 592.87 442.22
  L 589.70 446.55
  L 586.96 451.17
  L 584.68 456.04
  L 582.88 461.12
  L 581.58 466.35
  L 580.80 471.68
  L 580.54 477.06
  L 580.54 502.24
  L 580.71 502.65
  L 581.12 502.82"
/>
<path stroke="#8c8d8d" vector-effect="non-scaling-stroke" d="
  M 741.74 523.31
  L 527.80 523.69
  L 527.05 524.00
  L 526.74 524.76
  L 526.90 616.42
  L 527.04 621.78
  L 527.43 627.13
  L 528.09 632.45
  L 529.01 637.73
  L 530.18 642.96
  L 531.60 648.13
  L 533.27 653.22
  L 535.19 658.22
  L 537.35 663.12
  L 539.74 667.91
  L 542.36 672.57
  L 545.21 677.09
  L 548.27 681.47
  L 551.54 685.70
  L 555.01 689.75
  L 558.67 693.63
  L 562.52 697.32
  L 566.54 700.82
  L 570.72 704.11
  L 575.06 707.19
  L 579.55 710.05
  L 584.16 712.69
  L 588.90 715.09
  L 593.75 717.25
  L 598.70 719.18
  L 603.74 720.85
  L 608.85 722.27
  L 614.03 723.44
  L 619.25 724.34
  L 624.52 724.99
  L 629.81 725.38
  L 635.11 725.50
  L 635.11 725.50
  L 635.11 725.50
  L 635.11 725.50
  L 635.15 725.50
  L 640.45 725.36
  L 645.73 724.96
  L 650.99 724.29
  L 656.22 723.36
  L 661.39 722.18
  L 666.49 720.74
  L 671.53 719.05
  L 676.47 717.11
  L 681.31 714.93
  L 686.04 712.51
  L 690.65 709.86
  L 695.13 706.98
  L 699.46 703.88
  L 703.63 700.58
  L 707.64 697.07
  L 711.47 693.36
  L 715.12 689.47
  L 718.58 685.40
  L 721.83 681.17
  L 724.88 676.78
  L 727.71 672.24
  L 730.31 667.57
  L 732.69 662.78
  L 734.83 657.87
  L 736.73 652.86
  L 738.38 647.77
  L 739.78 642.60
  L 740.94 637.36
  L 741.83 632.08
  L 742.47 626.75
  L 742.85 621.40
  L 742.98 616.04
  L 742.82 524.38
  L 742.50 523.63
  L 741.74 523.31"
/>
<path stroke="#8c8d8d" vector-effect="non-scaling-stroke" d="
  M 634.69 694.46
  L 636.74 694.26
  L 638.19 693.84
  L 639.56 693.23
  L 640.81 692.43
  L 641.93 691.46
  L 642.90 690.34
  L 643.70 689.09
  L 644.33 687.73
  L 644.74 686.27
  L 644.96 684.25
  L 645.05 654.25
  L 645.15 653.96
  L 645.42 653.80
  L 650.13 652.61
  L 654.58 651.04
  L 658.78 649.09
  L 662.74 646.75
  L 666.07 644.34
  L 669.21 641.61
  L 671.58 639.20
  L 673.76 636.63
  L 675.76 633.92
  L 677.56 631.08
  L 679.19 628.09
  L 680.61 624.99
  L 681.83 621.80
  L 682.82 618.54
  L 683.59 615.24
  L 684.13 611.90
  L 684.44 608.52
  L 684.52 605.13
  L 684.37 601.77
  L 683.97 598.42
  L 683.35 595.19
  L 682.50 592.01
  L 681.45 588.93
  L 680.21 585.94
  L 677.22 580.29
  L 675.46 577.59
  L 673.53 575.01
  L 671.45 572.58
  L 669.23 570.28
  L 666.86 568.13
  L 664.37 566.14
  L 661.76 564.31
  L 659.03 562.65
  L 656.23 561.18
  L 653.34 559.90
  L 650.36 558.80
  L 647.29 557.90
  L 641.24 556.73
  L 635.17 556.34
  L 629.09 556.69
  L 623.03 557.82
  L 619.96 558.70
  L 616.97 559.78
  L 614.07 561.04
  L 611.26 562.48
  L 608.52 564.12
  L 605.89 565.94
  L 603.39 567.91
  L 601.01 570.04
  L 598.77 572.33
  L 596.68 574.75
  L 594.73 577.31
  L 592.95 579.99
  L 589.92 585.63
  L 588.66 588.61
  L 587.59 591.68
  L 586.72 594.86
  L 586.08 598.08
  L 585.66 601.43
  L 585.48 604.79
  L 585.53 608.18
  L 585.82 611.56
  L 586.34 614.91
  L 587.09 618.21
  L 588.06 621.48
  L 589.25 624.67
  L 590.65 627.78
  L 592.26 630.79
  L 594.04 633.64
  L 596.02 636.36
  L 598.19 638.94
  L 600.54 641.37
  L 603.65 644.12
  L 606.97 646.56
  L 606.97 646.56
  L 606.97 646.56
  L 610.91 648.92
  L 615.10 650.90
  L 619.54 652.50
  L 624.24 653.73
  L 624.51 653.89
  L 624.61 654.18
  L 624.49 684.18
  L 624.69 686.20
  L 625.10 687.66
  L 625.71 689.03
  L 626.51 690.28
  L 627.47 691.41
  L 628.59 692.38
  L 629.83 693.19
  L 631.19 693.82
  L 632.65 694.24
  L 634.69 694.46"
/>
<path stroke="#8c8d8d" vector-effect="non-scaling-stroke" d="
  M 664.33 605.81
  L 664.19 602.94
  L 663.77 600.09
  L 663.07 597.30
  L 662.10 594.60
  L 660.87 592.00
  L 659.39 589.53
  L 657.68 587.22
  L 655.75 585.09
  L 653.62 583.16
  L 651.31 581.45
  L 648.84 579.97
  L 646.24 578.74
  L 643.54 577.77
  L 640.75 577.07
  L 637.90 576.65
  L 635.03 576.51
  L 632.16 576.65
  L 629.31 577.07
  L 626.52 577.77
  L 623.82 578.74
  L 621.22 579.97
  L 618.75 581.45
  L 616.44 583.16
  L 614.31 585.09
  L 612.38 587.22
  L 610.67 589.53
  L 609.19 592.00
  L 607.96 594.60
  L 606.99 597.30
  L 606.29 600.09
  L 605.87 602.94
  L 605.73 605.81
  L 605.87 608.68
  L 606.29 611.53
  L 606.99 614.32
  L 607.96 617.02
  L 609.19 619.62
  L 610.67 622.09
  L 612.38 624.40
  L 614.31 626.53
  L 616.44 628.46
  L 618.75 630.17
  L 621.22 631.65
  L 623.82 632.88
  L 626.52 633.85
  L 629.31 634.55
  L 632.16 634.97
  L 635.03 635.11
  L 637.90 634.97
  L 640.75 634.55
  L 643.54 633.85
  L 646.24 632.88
  L 648.84 631.65
  L 651.31 630.17
  L 653.62 628.46
  L 655.75 626.53
  L 657.68 624.40
  L 659.39 622.09
  L 660.87 619.62
  L 662.10 617.02
  L 663.07 614.32
  L 663.77 611.53
  L 664.19 608.68
  L 664.33 605.81"
/>
</g>
<g fill="#ffffff">
<path d="
  M 918.00 452.89
  L 918.00 453.73
  L 917.87 467.16
  L 917.40 480.58
  L 917.40 480.58
  L 916.25 498.44
  L 914.96 511.81
  L 913.27 525.10
  L 911.18 538.31
  L 908.70 551.43
  L 908.70 551.43
  L 908.70 551.43
  L 908.70 551.43
  L 908.70 551.43
  L 905.16 567.26
  L 901.03 582.97
  L 896.32 598.55
  L 891.02 614.02
  L 884.24 631.60
  L 876.78 648.81
  L 868.64 665.63
  L 859.83 682.06
  L 859.83 682.06
  L 859.83 682.06
  L 859.83 682.06
  L 859.83 682.06
  L 851.92 695.54
  L 843.54 708.74
  L 834.69 721.68
  L 825.36 734.35
  L 815.99 746.13
  L 804.88 759.16
  L 793.45 771.77
  L 782.82 782.57
  L 769.53 795.00
  L 755.96 806.83
  L 742.12 818.06
  L 728.01 828.68
  L 713.63 838.69
  L 698.97 848.10
  L 684.04 856.90
  L 668.84 865.10
  L 658.06 870.48
  L 647.16 875.57
  L 636.16 880.37
  L 625.04 884.89
  L 611.35 890.01
  L 597.49 894.71
  L 583.46 898.98
  L 569.27 902.82
  L 555.00 906.20
  L 540.68 909.09
  L 526.30 911.49
  L 511.87 913.41
  L 511.87 913.41
  L 498.08 914.78
  L 495.60 914.94
  L 491.05 915.33
  L 490.70 915.38
  L 485.65 915.73
  L 475.78 915.94
  L 474.34 916.18
  L 473.75 916.27
  L 469.02 916.53
  L 462.38 916.60
  L 443.36 916.18
  L 432.15 915.66
  L 421.00 914.87
  L 409.91 913.82
  L 398.89 912.50
  L 387.93 910.92
  L 377.02 909.07
  L 366.19 906.95
  L 355.41 904.57
  L 355.41 904.57
  L 355.41 904.57
  L 355.41 904.57
  L 355.41 904.57
  L 355.41 904.57
  L 355.41 904.57
  L 345.90 902.24
  L 336.44 899.70
  L 327.03 896.95
  L 317.67 893.98
  L 308.36 890.81
  L 299.10 887.44
  L 289.89 883.85
  L 280.72 880.05
  L 270.43 875.52
  L 260.29 870.76
  L 250.30 865.79
  L 240.45 860.59
  L 230.76 855.18
  L 221.22 849.54
  L 211.82 843.68
  L 202.57 837.61
  L 202.57 837.61
  L 202.57 837.61
  L 192.37 830.52
  L 182.36 823.16
  L 172.53 815.52
  L 162.89 807.60
  L 152.80 798.84
  L 142.99 789.83
  L 133.45 780.55
  L 124.18 771.02
  L 124.18 771.02
  L 112.20 757.86
  L 100.70 744.23
  L 89.69 730.14
  L 79.17 715.59
  L 73.90 707.83
  L 68.79 699.92
  L 63.84 691.86
  L 59.04 683.65
  L 53.69 674.00
  L 48.60 664.27
  L 43.76 654.45
  L 39.17 644.54
  L 34.84 634.56
  L 30.76 624.48
  L 26.94 614.32
  L 23.37 604.08
  L 23.37 604.08
  L 23.37 604.08
  L 23.37 604.08
  L 19.78 592.82
  L 16.48 581.46
  L 13.49 570.00
  L 10.80 558.44
  L 8.41 546.77
  L 6.32 535.01
  L 4.53 523.15
  L 3.05 511.18
  L 1.34 492.35
  L 0.37 473.42
  L 0.15 454.39
  L 0.66 435.25
  L 0.87 434.39
  L 1.06 433.53
  L 1.21 426.59
  L 2.05 415.27
  L 3.20 403.68
  L 4.66 392.14
  L 4.66 392.14
  L 6.32 381.13
  L 8.27 370.16
  L 10.48 359.24
  L 12.97 348.34
  L 15.73 337.49
  L 18.76 326.68
  L 22.06 315.90
  L 25.64 305.16
  L 31.67 288.77
  L 38.25 272.79
  L 45.37 257.23
  L 53.04 242.09
  L 58.80 231.60
  L 64.80 221.31
  L 71.04 211.23
  L 77.52 201.36
  L 84.24 191.69
  L 91.20 182.22
  L 98.41 172.96
  L 105.85 163.90
  L 115.11 153.26
  L 124.62 142.95
  L 134.37 132.99
  L 144.38 123.36
  L 154.63 114.08
  L 165.12 105.13
  L 175.87 96.53
  L 186.86 88.26
  L 186.86 88.26
  L 186.86 88.26
  L 198.53 80.04
  L 210.47 72.19
  L 222.68 64.70
  L 235.15 57.58
  L 247.89 50.83
  L 260.90 44.44
  L 274.17 38.42
  L 287.71 32.76
  L 297.95 28.81
  L 308.24 25.12
  L 318.57 21.69
  L 328.96 18.54
  L 339.40 15.64
  L 349.88 13.01
  L 360.41 10.65
  L 371.00 8.55
  L 371.00 8.55
  L 371.00 8.55
  L 380.68 6.87
  L 390.41 5.41
  L 400.17 4.17
  L 409.98 3.15
  L 424.78 1.91
  L 438.02 1.06
  L 449.68 0.62
  L 459.77 0.57
  L 474.76 0.92
  L 487.25 1.41
  L 491.58 1.91
  L 492.52 2.00
  L 496.99 2.23
  L 505.75 3.05
  L 519.32 4.63
  L 532.77 6.57
  L 546.09 8.88
  L 559.29 11.55
  L 572.37 14.58
  L 585.32 17.98
  L 598.15 21.75
  L 610.85 25.87
  L 610.85 25.87
  L 610.85 25.87
  L 610.85 25.87
  L 620.23 29.19
  L 629.55 32.70
  L 638.79 36.42
  L 647.97 40.34
  L 657.07 44.46
  L 666.11 48.78
  L 675.08 53.31
  L 683.98 58.04
  L 697.08 65.47
  L 707.54 71.85
  L 717.82 78.54
  L 727.93 85.52
  L 737.86 92.80
  L 747.61 100.39
  L 757.19 108.27
  L 766.59 116.46
  L 775.81 124.94
  L 788.44 137.35
  L 800.53 150.19
  L 812.08 163.44
  L 823.08 177.11
  L 823.08 177.11
  L 823.08 177.11
  L 823.08 177.11
  L 829.56 185.71
  L 835.83 194.47
  L 841.91 203.39
  L 847.77 212.46
  L 853.43 221.70
  L 858.89 231.09
  L 864.14 240.64
  L 869.19 250.35
  L 874.30 260.82
  L 879.11 271.41
  L 883.63 282.09
  L 887.84 292.89
  L 892.02 304.47
  L 895.89 316.03
  L 899.43 327.55
  L 902.65 339.04
  L 905.54 350.51
  L 908.12 361.95
  L 910.37 373.35
  L 912.30 384.73
  L 914.52 400.91
  L 916.20 417.66
  L 917.37 434.99
  L 918.00 452.89
  Z
  M 753.18 242.77
  L 753.00 239.17
  L 752.45 235.61
  L 751.55 232.13
  L 750.31 228.75
  L 747.92 224.14
  L 744.89 219.92
  L 741.28 216.19
  L 737.17 213.02
  L 732.64 210.49
  L 727.79 208.63
  L 722.72 207.51
  L 717.54 207.13
  L 197.98 207.13
  L 194.96 207.26
  L 191.96 207.64
  L 189.01 208.28
  L 186.12 209.16
  L 183.57 210.17
  L 181.11 211.38
  L 178.74 212.77
  L 176.49 214.34
  L 174.37 216.07
  L 172.39 217.97
  L 170.56 220.01
  L 168.89 222.18
  L 167.39 224.48
  L 166.07 226.89
  L 164.95 229.39
  L 164.02 231.97
  L 163.29 234.61
  L 162.76 237.30
  L 162.45 240.03
  L 162.34 242.77
  L 162.34 340.12
  L 162.48 343.24
  L 162.89 346.34
  L 163.57 349.39
  L 164.51 352.36
  L 165.71 355.25
  L 167.16 358.02
  L 168.84 360.65
  L 170.75 363.12
  L 172.87 365.41
  L 175.18 367.51
  L 177.67 369.41
  L 180.31 371.07
  L 183.09 372.50
  L 185.98 373.68
  L 188.97 374.60
  L 192.02 375.26
  L 192.02 375.26
  L 192.02 375.26
  L 194.99 375.63
  L 197.98 375.76
  L 717.54 375.76
  L 718.33 375.75
  L 721.77 375.51
  L 725.17 374.93
  L 728.50 374.03
  L 731.73 372.81
  L 734.82 371.29
  L 737.75 369.47
  L 740.49 367.38
  L 743.02 365.04
  L 745.31 362.46
  L 747.34 359.67
  L 749.09 356.70
  L 750.54 353.58
  L 751.69 350.32
  L 752.51 346.98
  L 753.01 343.56
  L 753.18 340.12
  L 753.18 242.77
  Z
  M 634.59 745.90
  L 644.32 745.54
  L 653.94 744.44
  L 663.53 742.59
  L 672.92 740.04
  L 682.22 736.74
  L 691.22 732.76
  L 699.90 728.13
  L 708.20 722.86
  L 716.04 717.01
  L 723.42 710.59
  L 730.24 703.68
  L 736.53 696.26
  L 742.14 688.50
  L 747.16 680.27
  L 751.52 671.68
  L 755.16 662.88
  L 755.92 660.72
  L 758.13 653.61
  L 759.96 646.17
  L 761.40 638.41
  L 762.46 630.32
  L 762.90 619.87
  L 763.08 599.17
  L 763.14 513.86
  L 763.02 511.99
  L 762.67 510.28
  L 762.09 508.73
  L 761.29 507.35
  L 761.29 507.35
  L 761.29 507.35
  L 759.99 505.90
  L 758.37 504.69
  L 756.40 503.73
  L 754.09 503.00
  L 753.73 502.96
  L 710.20 502.96
  L 709.79 502.79
  L 709.62 502.38
  L 709.64 477.02
  L 709.37 470.31
  L 708.67 464.06
  L 707.56 458.26
  L 706.03 452.92
  L 704.35 448.44
  L 702.41 444.11
  L 700.17 439.86
  L 697.68 435.78
  L 694.94 431.86
  L 691.97 428.14
  L 688.79 424.63
  L 685.39 421.33
  L 681.79 418.24
  L 678.00 415.38
  L 674.04 412.77
  L 669.92 410.41
  L 665.69 408.33
  L 661.33 406.52
  L 656.85 404.99
  L 652.25 403.74
  L 648.01 402.86
  L 643.69 402.22
  L 639.41 401.84
  L 635.07 401.71
  L 630.73 401.83
  L 626.45 402.20
  L 622.13 402.82
  L 617.88 403.69
  L 613.28 404.93
  L 608.79 406.45
  L 604.43 408.25
  L 600.19 410.31
  L 596.07 412.66
  L 592.10 415.26
  L 588.30 418.11
  L 584.69 421.19
  L 581.29 424.48
  L 578.09 427.98
  L 575.11 431.70
  L 572.36 435.61
  L 569.86 439.68
  L 567.61 443.92
  L 565.66 448.24
  L 563.97 452.72
  L 562.42 458.06
  L 561.29 463.85
  L 560.58 470.11
  L 560.29 476.81
  L 560.24 502.17
  L 560.16 502.46
  L 559.66 502.75
  L 516.13 502.63
  L 515.77 502.67
  L 513.46 503.39
  L 511.49 504.35
  L 509.85 505.56
  L 508.56 507.00
  L 508.56 507.00
  L 507.74 508.38
  L 507.16 509.92
  L 506.81 511.63
  L 506.69 513.50
  L 506.51 598.81
  L 506.64 619.52
  L 507.04 629.97
  L 508.08 638.06
  L 509.50 645.82
  L 511.30 653.26
  L 513.49 660.38
  L 514.26 662.54
  L 517.86 671.36
  L 522.20 679.96
  L 527.20 688.20
  L 532.79 695.98
  L 539.06 703.42
  L 545.86 710.34
  L 553.22 716.79
  L 561.05 722.65
  L 569.33 727.95
  L 578.00 732.61
  L 586.99 736.61
  L 596.27 739.93
  L 605.66 742.51
  L 615.25 744.38
  L 624.86 745.51
  L 634.59 745.90
  Z
  M 459.65 629.72
  L 460.68 627.88
  L 461.33 626.01
  L 461.62 624.05
  L 461.53 622.12
  L 461.09 620.29
  L 460.33 618.59
  L 459.26 617.04
  L 457.91 615.70
  L 456.35 614.63
  L 454.58 613.83
  L 452.71 613.36
  L 450.68 613.19
  L 196.57 613.18
  L 192.52 612.95
  L 191.08 612.67
  L 190.02 612.27
  L 187.48 610.58
  L 185.72 608.64
  L 184.77 606.83
  L 184.13 604.57
  L 183.80 601.77
  L 183.71 597.99
  L 183.71 496.71
  L 183.76 494.04
  L 184.01 491.71
  L 184.47 489.70
  L 185.14 488.03
  L 186.67 485.87
  L 188.40 484.50
  L 190.53 483.53
  L 193.06 482.94
  L 195.99 482.75
  L 486.75 482.78
  L 488.63 482.64
  L 490.33 482.24
  L 491.92 481.57
  L 493.30 480.67
  L 494.83 479.14
  L 495.97 477.33
  L 496.73 475.23
  L 497.05 473.01
  L 496.91 470.76
  L 496.33 468.58
  L 495.35 466.65
  L 493.95 464.94
  L 492.32 463.67
  L 490.36 462.70
  L 488.21 462.13
  L 485.75 461.93
  L 201.39 461.89
  L 195.72 461.92
  L 191.05 462.13
  L 187.39 462.52
  L 184.72 463.10
  L 180.97 464.49
  L 177.59 466.21
  L 174.49 468.31
  L 171.75 470.72
  L 169.59 473.15
  L 167.72 475.80
  L 166.09 478.75
  L 164.77 481.88
  L 163.73 485.23
  L 162.99 488.74
  L 162.53 492.50
  L 162.38 496.38
  L 162.42 601.01
  L 162.63 604.94
  L 163.22 608.75
  L 164.18 612.39
  L 165.51 615.85
  L 167.18 619.09
  L 169.20 622.10
  L 171.54 624.83
  L 174.21 627.28
  L 176.56 628.99
  L 179.09 630.49
  L 181.72 631.73
  L 184.52 632.73
  L 187.37 633.39
  L 191.04 633.86
  L 195.52 634.14
  L 200.81 634.23
  L 448.84 634.23
  L 451.42 634.13
  L 453.54 633.83
  L 455.33 633.29
  L 456.94 632.45
  L 458.37 631.28
  L 459.65 629.72
  Z
  M 262.92 549.65
  L 262.69 547.28
  L 262.00 545.00
  L 260.87 542.91
  L 259.36 541.07
  L 257.52 539.56
  L 255.43 538.43
  L 253.15 537.74
  L 250.78 537.51
  L 248.41 537.74
  L 246.13 538.43
  L 244.04 539.56
  L 242.20 541.07
  L 240.69 542.91
  L 239.56 545.00
  L 238.87 547.28
  L 238.64 549.65
  L 238.87 552.02
  L 239.56 554.30
  L 240.69 556.39
  L 242.20 558.23
  L 244.04 559.74
  L 246.13 560.87
  L 248.41 561.56
  L 250.78 561.79
  L 253.15 561.56
  L 255.43 560.87
  L 257.52 559.74
  L 259.36 558.23
  L 260.87 556.39
  L 262.00 554.30
  L 262.69 552.02
  L 262.92 549.65
  Z
  M 322.01 549.64
  L 321.78 547.27
  L 321.08 544.98
  L 319.96 542.88
  L 318.45 541.03
  L 316.60 539.52
  L 314.50 538.40
  L 312.21 537.70
  L 309.84 537.47
  L 307.47 537.70
  L 305.18 538.40
  L 303.08 539.52
  L 301.23 541.03
  L 299.72 542.88
  L 298.60 544.98
  L 297.90 547.27
  L 297.67 549.64
  L 297.90 552.01
  L 298.60 554.30
  L 299.72 556.40
  L 301.23 558.25
  L 303.08 559.76
  L 305.18 560.88
  L 307.47 561.58
  L 309.84 561.81
  L 312.21 561.58
  L 314.50 560.88
  L 316.60 559.76
  L 318.45 558.25
  L 319.96 556.40
  L 321.08 554.30
  L 321.78 552.01
  L 322.01 549.64
  Z
  M 380.30 549.66
  L 380.07 547.29
  L 379.38 545.02
  L 378.26 542.92
  L 376.75 541.08
  L 374.91 539.57
  L 372.81 538.45
  L 370.54 537.76
  L 368.17 537.53
  L 365.80 537.76
  L 363.53 538.45
  L 361.43 539.57
  L 359.59 541.08
  L 358.08 542.92
  L 356.96 545.02
  L 356.27 547.29
  L 356.04 549.66
  L 356.27 552.03
  L 356.96 554.30
  L 358.08 556.40
  L 359.59 558.24
  L 361.43 559.75
  L 363.53 560.87
  L 365.80 561.56
  L 368.17 561.79
  L 370.54 561.56
  L 372.81 560.87
  L 374.91 559.75
  L 376.75 558.24
  L 378.26 556.40
  L 379.38 554.30
  L 380.07 552.03
  L 380.30 549.66
  Z
  M 439.22 549.63
  L 438.99 547.26
  L 438.30 544.98
  L 437.17 542.89
  L 435.66 541.05
  L 433.82 539.54
  L 431.73 538.41
  L 429.45 537.72
  L 427.08 537.49
  L 424.71 537.72
  L 422.43 538.41
  L 420.34 539.54
  L 418.50 541.05
  L 416.99 542.89
  L 415.86 544.98
  L 415.17 547.26
  L 414.94 549.63
  L 415.17 552.00
  L 415.86 554.28
  L 416.99 556.37
  L 418.50 558.21
  L 420.34 559.72
  L 422.43 560.85
  L 424.71 561.54
  L 427.08 561.77
  L 429.45 561.54
  L 431.73 560.85
  L 433.82 559.72
  L 435.66 558.21
  L 437.17 556.37
  L 438.30 554.28
  L 438.99 552.00
  L 439.22 549.63
  Z"
/>
<path d="
  M 731.90 340.60
  L 731.64 343.23
  L 730.87 345.76
  L 729.63 348.09
  L 727.95 350.14
  L 725.90 351.82
  L 723.57 353.06
  L 721.04 353.83
  L 718.41 354.09
  L 197.29 354.09
  L 194.66 353.83
  L 192.13 353.06
  L 189.80 351.82
  L 187.75 350.14
  L 186.07 348.09
  L 184.83 345.76
  L 184.06 343.23
  L 183.80 340.60
  L 183.80 241.94
  L 184.06 239.31
  L 184.83 236.78
  L 186.07 234.45
  L 187.75 232.40
  L 189.80 230.72
  L 192.13 229.48
  L 194.66 228.71
  L 197.29 228.45
  L 718.41 228.45
  L 721.04 228.71
  L 723.57 229.48
  L 725.90 230.72
  L 727.95 232.40
  L 729.63 234.45
  L 730.87 236.78
  L 731.64 239.31
  L 731.90 241.94
  L 731.90 340.60
  Z
  M 657.91 291.26
  L 657.71 289.23
  L 657.12 287.27
  L 656.15 285.47
  L 654.86 283.88
  L 653.27 282.59
  L 651.47 281.62
  L 649.51 281.03
  L 647.48 280.83
  L 267.86 280.83
  L 265.83 281.03
  L 263.87 281.62
  L 262.07 282.59
  L 260.48 283.88
  L 259.19 285.47
  L 258.22 287.27
  L 257.63 289.23
  L 257.43 291.26
  L 257.43 291.64
  L 257.63 293.67
  L 258.22 295.63
  L 259.19 297.43
  L 260.48 299.02
  L 262.07 300.31
  L 263.87 301.28
  L 265.83 301.87
  L 267.86 302.07
  L 647.48 302.07
  L 649.51 301.87
  L 651.47 301.28
  L 653.27 300.31
  L 654.86 299.02
  L 656.15 297.43
  L 657.12 295.63
  L 657.71 293.67
  L 657.91 291.64
  L 657.91 291.26
  Z"
/>
<path d="
  M 581.12 502.82
  L 580.80 502.72
  L 580.54 502.24
  L 580.54 477.06
  L 580.80 471.68
  L 581.58 466.35
  L 582.88 461.12
  L 584.68 456.04
  L 586.96 451.17
  L 589.70 446.55
  L 592.87 442.22
  L 596.46 438.23
  L 600.41 434.61
  L 604.69 431.40
  L 609.26 428.62
  L 614.08 426.32
  L 619.11 424.50
  L 624.28 423.20
  L 629.55 422.40
  L 634.88 422.14
  L 634.88 422.14
  L 634.88 422.14
  L 634.88 422.14
  L 635.12 422.14
  L 640.45 422.40
  L 645.72 423.20
  L 650.89 424.50
  L 655.92 426.32
  L 660.74 428.62
  L 665.31 431.40
  L 669.59 434.61
  L 673.54 438.23
  L 677.13 442.22
  L 680.30 446.55
  L 683.04 451.17
  L 685.32 456.04
  L 687.12 461.12
  L 688.42 466.35
  L 689.20 471.68
  L 689.46 477.06
  L 689.46 502.24
  L 689.29 502.65
  L 688.88 502.82
  L 581.12 502.82
  Z"
/>
<path d="
  M 741.74 523.31
  L 742.50 523.63
  L 742.82 524.38
  L 742.98 616.04
  L 742.85 621.40
  L 742.47 626.75
  L 741.83 632.08
  L 740.94 637.36
  L 739.78 642.60
  L 738.38 647.77
  L 736.73 652.86
  L 734.83 657.87
  L 732.69 662.78
  L 730.31 667.57
  L 727.71 672.24
  L 724.88 676.78
  L 721.83 681.17
  L 718.58 685.40
  L 715.12 689.47
  L 711.47 693.36
  L 707.64 697.07
  L 703.63 700.58
  L 699.46 703.88
  L 695.13 706.98
  L 690.65 709.86
  L 686.04 712.51
  L 681.31 714.93
  L 676.47 717.11
  L 671.53 719.05
  L 666.49 720.74
  L 661.39 722.18
  L 656.22 723.36
  L 650.99 724.29
  L 645.73 724.96
  L 640.45 725.36
  L 635.15 725.50
  L 635.11 725.50
  L 635.11 725.50
  L 629.81 725.38
  L 624.52 724.99
  L 619.25 724.34
  L 614.03 723.44
  L 608.85 722.27
  L 603.74 720.85
  L 598.70 719.18
  L 593.75 717.25
  L 588.90 715.09
  L 584.16 712.69
  L 579.55 710.05
  L 575.06 707.19
  L 570.72 704.11
  L 566.54 700.82
  L 562.52 697.32
  L 558.67 693.63
  L 555.01 689.75
  L 551.54 685.70
  L 548.27 681.47
  L 545.21 677.09
  L 542.36 672.57
  L 539.74 667.91
  L 537.35 663.12
  L 535.19 658.22
  L 533.27 653.22
  L 531.60 648.13
  L 530.18 642.96
  L 529.01 637.73
  L 528.09 632.45
  L 527.43 627.13
  L 527.04 621.78
  L 526.90 616.42
  L 526.74 524.76
  L 527.05 524.00
  L 527.80 523.69
  L 741.74 523.31
  Z
  M 634.69 694.46
  L 636.74 694.26
  L 638.19 693.84
  L 639.56 693.23
  L 640.81 692.43
  L 641.93 691.46
  L 642.90 690.34
  L 643.70 689.09
  L 644.33 687.73
  L 644.74 686.27
  L 644.96 684.25
  L 645.05 654.25
  L 645.15 653.96
  L 645.42 653.80
  L 650.13 652.61
  L 654.58 651.04
  L 658.78 649.09
  L 662.74 646.75
  L 666.07 644.34
  L 669.21 641.61
  L 671.58 639.20
  L 673.76 636.63
  L 675.76 633.92
  L 677.56 631.08
  L 679.19 628.09
  L 680.61 624.99
  L 681.83 621.80
  L 682.82 618.54
  L 683.59 615.24
  L 684.13 611.90
  L 684.44 608.52
  L 684.52 605.13
  L 684.37 601.77
  L 683.97 598.42
  L 683.35 595.19
  L 682.50 592.01
  L 681.45 588.93
  L 680.21 585.94
  L 677.22 580.29
  L 675.46 577.59
  L 673.53 575.01
  L 671.45 572.58
  L 669.23 570.28
  L 666.86 568.13
  L 664.37 566.14
  L 661.76 564.31
  L 659.03 562.65
  L 656.23 561.18
  L 653.34 559.90
  L 650.36 558.80
  L 647.29 557.90
  L 641.24 556.73
  L 635.17 556.34
  L 629.09 556.69
  L 623.03 557.82
  L 619.96 558.70
  L 616.97 559.78
  L 614.07 561.04
  L 611.26 562.48
  L 608.52 564.12
  L 605.89 565.94
  L 603.39 567.91
  L 601.01 570.04
  L 598.77 572.33
  L 596.68 574.75
  L 594.73 577.31
  L 592.95 579.99
  L 589.92 585.63
  L 588.66 588.61
  L 587.59 591.68
  L 586.72 594.86
  L 586.08 598.08
  L 585.66 601.43
  L 585.48 604.79
  L 585.53 608.18
  L 585.82 611.56
  L 586.34 614.91
  L 587.09 618.21
  L 588.06 621.48
  L 589.25 624.67
  L 590.65 627.78
  L 592.26 630.79
  L 594.04 633.64
  L 596.02 636.36
  L 598.19 638.94
  L 600.54 641.37
  L 603.65 644.12
  L 606.97 646.56
  L 606.97 646.56
  L 606.97 646.56
  L 610.91 648.92
  L 615.10 650.90
  L 619.54 652.50
  L 624.24 653.73
  L 624.51 653.89
  L 624.61 654.18
  L 624.49 684.18
  L 624.69 686.20
  L 625.10 687.66
  L 625.71 689.03
  L 626.51 690.28
  L 627.47 691.41
  L 628.59 692.38
  L 629.83 693.19
  L 631.19 693.82
  L 632.65 694.24
  L 634.69 694.46
  Z"
/>
<circle cx="635.03" cy="605.81" r="29.30"/>
</g>
<g fill="#191a1b">
<path d="
  M 753.18 242.77
  L 753.18 340.12
  L 753.01 343.61
  L 752.50 347.07
  L 751.65 350.47
  L 750.47 353.76
  L 748.97 356.92
  L 747.17 359.92
  L 745.09 362.73
  L 742.74 365.32
  L 740.15 367.67
  L 737.34 369.75
  L 734.34 371.55
  L 731.18 373.05
  L 727.89 374.23
  L 724.49 375.08
  L 721.03 375.59
  L 717.54 375.76
  L 197.98 375.76
  L 195.03 375.64
  L 192.10 375.27
  L 189.20 374.66
  L 186.37 373.82
  L 183.62 372.74
  L 180.97 371.44
  L 178.43 369.92
  L 176.03 368.20
  L 176.03 368.20
  L 173.00 365.54
  L 170.28 362.55
  L 167.92 359.27
  L 165.95 355.74
  L 164.38 352.01
  L 163.25 348.14
  L 162.57 344.15
  L 162.34 340.12
  L 162.34 242.77
  L 162.51 239.28
  L 163.02 235.82
  L 163.87 232.42
  L 165.05 229.13
  L 166.55 225.97
  L 168.35 222.97
  L 170.43 220.16
  L 172.78 217.57
  L 175.37 215.22
  L 178.18 213.14
  L 181.18 211.34
  L 184.34 209.84
  L 187.63 208.66
  L 191.03 207.81
  L 194.49 207.30
  L 197.98 207.13
  L 717.54 207.13
  L 721.03 207.30
  L 724.49 207.81
  L 727.89 208.66
  L 731.18 209.84
  L 734.34 211.34
  L 737.34 213.14
  L 740.15 215.22
  L 742.74 217.57
  L 745.09 220.16
  L 747.17 222.97
  L 748.97 225.97
  L 750.47 229.13
  L 751.65 232.42
  L 752.50 235.82
  L 753.01 239.28
  L 753.18 242.77
  Z
  M 731.90 241.94
  L 731.64 239.31
  L 730.87 236.78
  L 729.63 234.45
  L 727.95 232.40
  L 725.90 230.72
  L 723.57 229.48
  L 721.04 228.71
  L 718.41 228.45
  L 197.29 228.45
  L 194.66 228.71
  L 192.13 229.48
  L 189.80 230.72
  L 187.75 232.40
  L 186.07 234.45
  L 184.83 236.78
  L 184.06 239.31
  L 183.80 241.94
  L 183.80 340.60
  L 184.06 343.23
  L 184.83 345.76
  L 186.07 348.09
  L 187.75 350.14
  L 189.80 351.82
  L 192.13 353.06
  L 194.66 353.83
  L 197.29 354.09
  L 718.41 354.09
  L 721.04 353.83
  L 723.57 353.06
  L 725.90 351.82
  L 727.95 350.14
  L 729.63 348.09
  L 730.87 345.76
  L 731.64 343.23
  L 731.90 340.60
  L 731.90 241.94
  Z"
/>
<rect x="257.43" y="280.83" width="400.48" height="21.24" rx="10.43"/>
<path d="
  M 635.07 401.71
  L 639.41 401.84
  L 643.69 402.22
  L 648.01 402.86
  L 652.25 403.74
  L 656.85 404.99
  L 661.33 406.52
  L 665.69 408.33
  L 669.92 410.41
  L 674.04 412.77
  L 678.00 415.38
  L 681.79 418.24
  L 685.39 421.33
  L 688.79 424.63
  L 691.97 428.14
  L 694.94 431.86
  L 697.68 435.78
  L 700.17 439.86
  L 702.41 444.11
  L 704.35 448.44
  L 706.03 452.92
  L 707.56 458.26
  L 708.67 464.06
  L 709.37 470.31
  L 709.64 477.02
  L 709.62 502.38
  L 709.65 502.57
  L 709.86 502.85
  L 710.20 502.96
  L 753.73 502.96
  L 754.09 503.00
  L 756.40 503.73
  L 758.37 504.69
  L 759.99 505.90
  L 761.29 507.35
  L 761.29 507.35
  L 761.29 507.35
  L 762.09 508.73
  L 762.67 510.28
  L 763.02 511.99
  L 763.14 513.86
  L 763.08 599.17
  L 762.90 619.87
  L 762.46 630.32
  L 761.40 638.41
  L 759.96 646.17
  L 758.13 653.61
  L 755.92 660.72
  L 755.16 662.88
  L 751.52 671.68
  L 747.16 680.27
  L 742.14 688.50
  L 736.53 696.26
  L 730.24 703.68
  L 723.42 710.59
  L 716.04 717.01
  L 708.20 722.86
  L 699.90 728.13
  L 691.22 732.76
  L 682.22 736.74
  L 672.92 740.04
  L 663.53 742.59
  L 653.94 744.44
  L 644.32 745.54
  L 634.59 745.90
  L 624.86 745.51
  L 615.25 744.38
  L 605.66 742.51
  L 596.27 739.93
  L 586.99 736.61
  L 578.00 732.61
  L 569.33 727.95
  L 561.05 722.65
  L 553.22 716.79
  L 545.86 710.34
  L 539.06 703.42
  L 532.79 695.98
  L 527.20 688.20
  L 522.20 679.96
  L 517.86 671.36
  L 514.26 662.54
  L 513.49 660.38
  L 511.30 653.26
  L 509.50 645.82
  L 508.08 638.06
  L 507.04 629.97
  L 506.64 619.52
  L 506.51 598.81
  L 506.69 513.50
  L 506.81 511.63
  L 507.16 509.92
  L 507.74 508.38
  L 508.56 507.00
  L 508.56 507.00
  L 509.85 505.56
  L 511.49 504.35
  L 513.46 503.39
  L 515.77 502.67
  L 516.13 502.63
  L 559.66 502.75
  L 560.04 502.60
  L 560.23 502.23
  L 560.24 502.17
  L 560.29 476.81
  L 560.58 470.11
  L 561.29 463.85
  L 562.42 458.06
  L 563.97 452.72
  L 565.66 448.24
  L 567.61 443.92
  L 569.86 439.68
  L 572.36 435.61
  L 575.11 431.70
  L 578.09 427.98
  L 581.29 424.48
  L 584.69 421.19
  L 588.30 418.11
  L 592.10 415.26
  L 596.07 412.66
  L 600.19 410.31
  L 604.43 408.25
  L 608.79 406.45
  L 613.28 404.93
  L 617.88 403.69
  L 622.13 402.82
  L 626.45 402.20
  L 630.73 401.83
  L 635.07 401.71
  Z
  M 581.12 502.82
  L 688.88 502.82
  L 689.29 502.65
  L 689.46 502.24
  L 689.46 477.06
  L 689.20 471.68
  L 688.42 466.35
  L 687.12 461.12
  L 685.32 456.04
  L 683.04 451.17
  L 680.30 446.55
  L 677.13 442.22
  L 673.54 438.23
  L 669.59 434.61
  L 665.31 431.40
  L 660.74 428.62
  L 655.92 426.32
  L 650.89 424.50
  L 645.72 423.20
  L 640.45 422.40
  L 635.12 422.14
  L 635.12 422.14
  L 634.88 422.14
  L 634.88 422.14
  L 629.55 422.40
  L 624.28 423.20
  L 619.11 424.50
  L 614.08 426.32
  L 609.26 428.62
  L 604.69 431.40
  L 600.41 434.61
  L 596.46 438.23
  L 592.87 442.22
  L 589.70 446.55
  L 586.96 451.17
  L 584.68 456.04
  L 582.88 461.12
  L 581.58 466.35
  L 580.80 471.68
  L 580.54 477.06
  L 580.54 502.24
  L 580.71 502.65
  L 581.12 502.82
  Z
  M 741.74 523.31
  L 527.80 523.69
  L 527.05 524.00
  L 526.74 524.76
  L 526.90 616.42
  L 527.04 621.78
  L 527.43 627.13
  L 528.09 632.45
  L 529.01 637.73
  L 530.18 642.96
  L 531.60 648.13
  L 533.27 653.22
  L 535.19 658.22
  L 537.35 663.12
  L 539.74 667.91
  L 542.36 672.57
  L 545.21 677.09
  L 548.27 681.47
  L 551.54 685.70
  L 555.01 689.75
  L 558.67 693.63
  L 562.52 697.32
  L 566.54 700.82
  L 570.72 704.11
  L 575.06 707.19
  L 579.55 710.05
  L 584.16 712.69
  L 588.90 715.09
  L 593.75 717.25
  L 598.70 719.18
  L 603.74 720.85
  L 608.85 722.27
  L 614.03 723.44
  L 619.25 724.34
  L 624.52 724.99
  L 629.81 725.38
  L 635.11 725.50
  L 635.11 725.50
  L 635.11 725.50
  L 635.11 725.50
  L 635.15 725.50
  L 640.45 725.36
  L 645.73 724.96
  L 650.99 724.29
  L 656.22 723.36
  L 661.39 722.18
  L 666.49 720.74
  L 671.53 719.05
  L 676.47 717.11
  L 681.31 714.93
  L 686.04 712.51
  L 690.65 709.86
  L 695.13 706.98
  L 699.46 703.88
  L 703.63 700.58
  L 707.64 697.07
  L 711.47 693.36
  L 715.12 689.47
  L 718.58 685.40
  L 721.83 681.17
  L 724.88 676.78
  L 727.71 672.24
  L 730.31 667.57
  L 732.69 662.78
  L 734.83 657.87
  L 736.73 652.86
  L 738.38 647.77
  L 739.78 642.60
  L 740.94 637.36
  L 741.83 632.08
  L 742.47 626.75
  L 742.85 621.40
  L 742.98 616.04
  L 742.82 524.38
  L 742.50 523.63
  L 741.74 523.31
  Z"
/>
<path d="
  M 450.68 613.19
  L 452.71 613.36
  L 454.58 613.83
  L 456.35 614.63
  L 457.91 615.70
  L 459.26 617.04
  L 460.33 618.59
  L 461.09 620.29
  L 461.53 622.12
  L 461.62 624.05
  L 461.33 626.01
  L 460.68 627.88
  L 459.65 629.72
  L 458.37 631.28
  L 456.94 632.45
  L 455.33 633.29
  L 453.54 633.83
  L 451.42 634.13
  L 448.84 634.23
  L 200.81 634.23
  L 195.52 634.14
  L 191.04 633.86
  L 187.37 633.39
  L 184.52 632.73
  L 181.72 631.73
  L 179.09 630.49
  L 176.56 628.99
  L 174.21 627.28
  L 171.54 624.83
  L 169.20 622.10
  L 167.18 619.09
  L 165.51 615.85
  L 164.18 612.39
  L 163.22 608.75
  L 162.63 604.94
  L 162.42 601.01
  L 162.38 496.38
  L 162.53 492.50
  L 162.99 488.74
  L 163.73 485.23
  L 164.77 481.88
  L 166.09 478.75
  L 167.72 475.80
  L 169.59 473.15
  L 171.75 470.72
  L 174.49 468.31
  L 177.59 466.21
  L 180.97 464.49
  L 184.72 463.10
  L 187.39 462.52
  L 191.05 462.13
  L 195.72 461.92
  L 201.39 461.89
  L 485.75 461.93
  L 488.21 462.13
  L 490.36 462.70
  L 492.32 463.67
  L 493.95 464.94
  L 495.35 466.65
  L 496.33 468.58
  L 496.91 470.76
  L 497.05 473.01
  L 496.73 475.23
  L 495.97 477.33
  L 494.83 479.14
  L 493.30 480.67
  L 491.92 481.57
  L 490.33 482.24
  L 488.63 482.64
  L 486.75 482.78
  L 195.99 482.75
  L 193.06 482.94
  L 190.53 483.53
  L 188.40 484.50
  L 186.67 485.87
  L 185.14 488.03
  L 184.47 489.70
  L 184.01 491.71
  L 183.76 494.04
  L 183.71 496.71
  L 183.71 597.99
  L 183.80 601.77
  L 184.13 604.57
  L 184.77 606.83
  L 185.72 608.64
  L 187.48 610.58
  L 190.02 612.27
  L 191.08 612.67
  L 192.52 612.95
  L 196.57 613.18
  L 450.68 613.19
  Z"
/>
<circle cx="250.78" cy="549.65" r="12.14"/>
<circle cx="309.84" cy="549.64" r="12.17"/>
<circle cx="368.17" cy="549.66" r="12.13"/>
<circle cx="427.08" cy="549.63" r="12.14"/>
<path d="
  M 635.17 556.34
  L 641.24 556.73
  L 647.29 557.90
  L 650.36 558.80
  L 653.34 559.90
  L 656.23 561.18
  L 659.03 562.65
  L 661.76 564.31
  L 664.37 566.14
  L 666.86 568.13
  L 669.23 570.28
  L 671.45 572.58
  L 673.53 575.01
  L 675.46 577.59
  L 677.22 580.29
  L 680.21 585.94
  L 681.45 588.93
  L 682.50 592.01
  L 683.35 595.19
  L 683.97 598.42
  L 684.37 601.77
  L 684.52 605.13
  L 684.44 608.52
  L 684.13 611.90
  L 683.59 615.24
  L 682.82 618.54
  L 681.83 621.80
  L 680.61 624.99
  L 679.19 628.09
  L 677.56 631.08
  L 675.76 633.92
  L 673.76 636.63
  L 671.58 639.20
  L 669.21 641.61
  L 666.07 644.34
  L 662.74 646.75
  L 662.74 646.75
  L 658.78 649.09
  L 654.58 651.04
  L 650.13 652.61
  L 645.42 653.80
  L 645.15 653.96
  L 645.05 654.25
  L 644.96 684.25
  L 644.74 686.27
  L 644.33 687.73
  L 643.70 689.09
  L 642.90 690.34
  L 641.93 691.46
  L 640.81 692.43
  L 639.56 693.23
  L 638.19 693.84
  L 636.74 694.26
  L 634.69 694.46
  L 632.65 694.24
  L 631.19 693.82
  L 629.83 693.19
  L 628.59 692.38
  L 627.47 691.41
  L 626.51 690.28
  L 625.71 689.03
  L 625.10 687.66
  L 624.69 686.20
  L 624.49 684.18
  L 624.61 654.18
  L 624.51 653.89
  L 624.24 653.73
  L 619.54 652.50
  L 615.10 650.90
  L 610.91 648.92
  L 606.97 646.56
  L 606.97 646.56
  L 606.97 646.56
  L 603.65 644.12
  L 600.54 641.37
  L 598.19 638.94
  L 596.02 636.36
  L 594.04 633.64
  L 592.26 630.79
  L 590.65 627.78
  L 589.25 624.67
  L 588.06 621.48
  L 587.09 618.21
  L 586.34 614.91
  L 585.82 611.56
  L 585.53 608.18
  L 585.48 604.79
  L 585.66 601.43
  L 586.08 598.08
  L 586.72 594.86
  L 587.59 591.68
  L 588.66 588.61
  L 589.92 585.63
  L 592.95 579.99
  L 594.73 577.31
  L 596.68 574.75
  L 598.77 572.33
  L 601.01 570.04
  L 603.39 567.91
  L 605.89 565.94
  L 608.52 564.12
  L 611.26 562.48
  L 614.07 561.04
  L 616.97 559.78
  L 619.96 558.70
  L 623.03 557.82
  L 629.09 556.69
  L 635.17 556.34
  Z
  M 664.33 605.81
  L 664.19 602.94
  L 663.77 600.09
  L 663.07 597.30
  L 662.10 594.60
  L 660.87 592.00
  L 659.39 589.53
  L 657.68 587.22
  L 655.75 585.09
  L 653.62 583.16
  L 651.31 581.45
  L 648.84 579.97
  L 646.24 578.74
  L 643.54 577.77
  L 640.75 577.07
  L 637.90 576.65
  L 635.03 576.51
  L 632.16 576.65
  L 629.31 577.07
  L 626.52 577.77
  L 623.82 578.74
  L 621.22 579.97
  L 618.75 581.45
  L 616.44 583.16
  L 614.31 585.09
  L 612.38 587.22
  L 610.67 589.53
  L 609.19 592.00
  L 607.96 594.60
  L 606.99 597.30
  L 606.29 600.09
  L 605.87 602.94
  L 605.73 605.81
  L 605.87 608.68
  L 606.29 611.53
  L 606.99 614.32
  L 607.96 617.02
  L 609.19 619.62
  L 610.67 622.09
  L 612.38 624.40
  L 614.31 626.53
  L 616.44 628.46
  L 618.75 630.17
  L 621.22 631.65
  L 623.82 632.88
  L 626.52 633.85
  L 629.31 634.55
  L 632.16 634.97
  L 635.03 635.11
  L 637.90 634.97
  L 640.75 634.55
  L 643.54 633.85
  L 646.24 632.88
  L 648.84 631.65
  L 651.31 630.17
  L 653.62 628.46
  L 655.75 626.53
  L 657.68 624.40
  L 659.39 622.09
  L 660.87 619.62
  L 662.10 617.02
  L 663.07 614.32
  L 663.77 611.53
  L 664.19 608.68
  L 664.33 605.81
  Z"
/>
</g>
</svg>
