<?xml version="1.0" encoding="UTF-8" standalone="no"?>
<!DOCTYPE svg PUBLIC "-//W3C//DTD SVG 1.1//EN" "http://www.w3.org/Graphics/SVG/1.1/DTD/svg11.dtd">
<svg xmlns="http://www.w3.org/2000/svg" version="1.1" viewBox="0.00 0.00 862.00 860.00" width="862.00" height="860.00">
<g stroke-width="2.00" fill="none" stroke-linecap="butt">
<path stroke="#fbfbfb" vector-effect="non-scaling-stroke" d="
  M 833.62 414.99
  L 832.82 403.29
  L 831.71 391.65
  L 830.27 380.07
  L 828.52 368.57
  L 826.45 357.07
  L 824.06 345.67
  L 821.37 334.35
  L 818.37 323.13
  L 815.04 311.96
  L 811.41 300.90
  L 807.48 289.95
  L 803.25 279.14
  L 798.72 268.46
  L 793.90 257.92
  L 788.79 247.52
  L 783.39 237.28
  L 777.73 227.24
  L 771.79 217.37
  L 765.57 207.66
  L 759.08 198.14
  L 752.36 188.85
  L 745.37 179.74
  L 738.11 170.84
  L 730.60 162.14
  L 722.88 153.70
  L 714.90 145.47
  L 706.75 137.53
  L 698.36 129.81
  L 689.74 122.33
  L 680.89 115.09
  L 671.88 108.15
  L 662.65 101.44
  L 655.10 96.26
  L 647.42 91.25
  L 639.68 86.45
  L 631.80 81.81
  L 619.03 74.81
  L 606.01 68.31
  L 606.01 68.31
  L 606.01 68.31
  L 593.84 62.77
  L 581.46 57.66
  L 568.89 52.98
  L 556.11 48.72
  L 546.10 45.70
  L 536.06 42.94
  L 525.99 40.42
  L 515.90 38.16
  L 505.78 36.14
  L 495.63 34.38
  L 485.46 32.86
  L 475.26 31.60
  L 460.03 30.30
  L 443.36 29.61
  L 425.32 29.54
  L 406.00 30.10
  L 392.03 30.99
  L 377.94 32.46
  L 363.74 34.51
  L 349.41 37.13
  L 334.97 40.33
  L 320.40 44.10
  L 305.72 48.45
  L 290.92 53.38
  L 279.64 57.64
  L 267.88 62.65
  L 251.73 70.32
  L 236.02 78.64
  L 220.75 87.59
  L 205.91 97.19
  L 205.91 97.19
  L 205.91 97.19
  L 205.91 97.19
  L 205.91 97.19
  L 194.73 105.06
  L 183.80 113.32
  L 173.14 121.96
  L 162.74 130.99
  L 151.64 141.36
  L 140.05 153.09
  L 128.89 165.40
  L 118.27 178.14
  L 108.07 191.47
  L 98.35 205.30
  L 89.03 219.75
  L 80.21 234.68
  L 71.80 250.22
  L 65.00 264.04
  L 58.90 277.91
  L 53.48 291.81
  L 48.76 305.76
  L 44.38 320.55
  L 40.53 335.23
  L 37.23 349.80
  L 34.47 364.25
  L 32.54 376.59
  L 31.03 388.94
  L 29.92 401.31
  L 29.23 413.70
  L 29.23 413.70
  L 28.96 424.92
  L 29.02 436.15
  L 29.42 447.40
  L 30.15 458.66
  L 31.55 472.89
  L 33.45 487.07
  L 35.88 501.29
  L 38.81 515.43
  L 42.24 529.48
  L 46.16 543.41
  L 50.57 557.20
  L 55.46 570.84
  L 60.81 584.28
  L 66.63 597.54
  L 72.92 610.58
  L 79.65 623.40
  L 86.81 635.93
  L 94.41 648.20
  L 102.38 660.10
  L 110.77 671.72
  L 118.94 682.24
  L 127.44 692.44
  L 136.27 702.32
  L 145.41 711.87
  L 145.41 711.87
  L 145.41 711.87
  L 156.68 722.78
  L 168.40 733.24
  L 180.58 743.25
  L 193.22 752.80
  L 205.72 761.55
  L 218.41 769.81
  L 231.27 777.56
  L 244.32 784.82
  L 257.55 791.57
  L 270.95 797.83
  L 284.54 803.59
  L 298.31 808.84
  L 298.31 808.84
  L 298.31 808.84
  L 298.31 808.84
  L 307.38 812.00
  L 316.53 814.95
  L 327.52 818.17
  L 338.59 821.05
  L 338.59 821.05
  L 338.59 821.05
  L 350.45 823.75
  L 362.40 826.07
  L 374.45 828.01
  L 386.59 829.58
  L 398.82 830.77
  L 411.14 831.58
  L 423.55 832.01
  L 436.06 832.06
  L 446.50 831.55
  L 454.75 831.10
  L 460.94 830.79
  L 468.74 830.08
  L 482.92 828.36
  L 496.92 826.21
  L 510.75 823.61
  L 524.41 820.57
  L 537.89 817.08
  L 551.20 813.16
  L 564.34 808.79
  L 577.31 803.98
  L 577.31 803.98
  L 587.58 799.81
  L 595.88 796.20
  L 604.09 792.40
  L 612.20 788.43
  L 620.21 784.28
  L 628.17 779.94
  L 636.02 775.43
  L 643.76 770.74
  L 651.38 765.89
  L 658.90 760.87
  L 666.30 755.68
  L 673.58 750.34
  L 680.73 744.84
  L 687.76 739.18
  L 694.66 733.37
  L 701.42 727.40
  L 708.05 721.29
  L 714.53 715.04
  L 720.86 708.65
  L 727.05 702.12
  L 733.09 695.44
  L 738.95 688.67
  L 744.66 681.76
  L 750.21 674.73
  L 755.61 667.56
  L 760.80 660.33
  L 765.83 652.97
  L 770.70 645.49
  L 775.40 637.90
  L 779.90 630.25
  L 784.23 622.48
  L 788.39 614.60
  L 792.37 606.62
  L 797.09 596.55
  L 801.52 586.42
  L 805.67 576.22
  L 809.54 565.94
  L 813.13 555.60
  L 816.43 545.19
  L 819.45 534.71
  L 822.19 524.16
  L 822.19 524.16
  L 822.19 524.16
  L 822.19 524.16
  L 824.61 513.74
  L 826.75 503.27
  L 828.62 492.72
  L 830.21 482.11
  L 831.54 471.43
  L 832.59 460.69
  L 833.38 449.88
  L 833.89 439.00
  L 834.02 427.21
  L 833.62 414.99"
/>
<path stroke="#7b7b7b" vector-effect="non-scaling-stroke" d="
  M 690.48 343.20
  L 689.16 334.12
  L 687.58 325.11
  L 685.74 316.17
  L 683.63 307.29
  L 683.63 307.29
  L 683.63 307.29
  L 681.17 298.15
  L 678.43 289.08
  L 675.41 280.08
  L 672.11 271.15
  L 667.87 260.97
  L 663.11 250.97
  L 657.83 241.14
  L 652.02 231.48
  L 643.78 219.24
  L 634.87 207.41
  L 625.39 196.13
  L 620.41 190.69
  L 615.29 185.38
  L 610.07 180.25
  L 604.72 175.28
  L 599.30 170.52
  L 593.76 165.92
  L 588.10 161.49
  L 582.32 157.22
  L 576.51 153.19
  L 570.59 149.33
  L 560.69 143.37
  L 550.58 137.88
  L 540.29 132.85
  L 529.83 128.28
  L 519.16 124.17
  L 508.34 120.54
  L 497.38 117.39
  L 486.29 114.72
  L 478.41 113.14
  L 470.47 111.80
  L 462.49 110.70
  L 454.46 109.85
  L 446.45 109.25
  L 438.40 108.90
  L 430.33 108.80
  L 422.23 108.94
  L 410.78 109.58
  L 399.44 110.72
  L 389.27 112.19
  L 379.20 114.06
  L 369.15 116.35
  L 359.21 119.04
  L 349.38 122.13
  L 339.69 125.60
  L 330.04 129.49
  L 320.55 133.76
  L 311.17 138.44
  L 301.95 143.48
  L 292.91 148.89
  L 284.06 154.66
  L 275.36 160.80
  L 266.87 167.29
  L 258.58 174.13
  L 250.51 181.29
  L 244.98 186.56
  L 244.98 186.56
  L 237.23 194.60
  L 229.87 203.03
  L 222.90 211.86
  L 216.32 221.08
  L 211.80 227.98
  L 207.47 235.02
  L 203.34 242.20
  L 199.41 249.51
  L 195.68 256.93
  L 192.17 264.47
  L 188.88 272.12
  L 185.80 279.86
  L 182.98 287.61
  L 180.39 295.43
  L 178.02 303.33
  L 175.89 311.29
  L 174.00 319.27
  L 172.35 327.30
  L 170.97 335.27
  L 169.82 343.28
  L 169.58 343.73
  L 169.10 343.92
  L 162.58 344.48
  L 156.26 345.79
  L 153.16 346.74
  L 150.15 347.87
  L 147.22 349.18
  L 144.40 350.67
  L 141.72 352.30
  L 139.16 354.10
  L 136.72 356.06
  L 134.43 358.17
  L 132.32 360.39
  L 130.36 362.76
  L 128.55 365.26
  L 126.91 367.90
  L 125.45 370.66
  L 124.17 373.54
  L 123.12 376.46
  L 122.25 379.49
  L 120.96 386.18
  L 120.63 389.39
  L 120.52 392.50
  L 120.46 492.00
  L 120.77 501.28
  L 121.16 505.33
  L 121.71 508.98
  L 122.97 514.44
  L 124.73 519.55
  L 126.99 524.30
  L 129.74 528.71
  L 129.74 528.71
  L 129.74 528.71
  L 129.74 528.71
  L 132.98 532.76
  L 136.71 536.45
  L 140.94 539.80
  L 145.66 542.80
  L 149.84 544.93
  L 155.38 547.04
  L 161.33 548.57
  L 167.95 549.62
  L 176.44 550.38
  L 176.83 550.56
  L 177.00 550.95
  L 178.18 568.21
  L 178.92 574.98
  L 179.76 580.50
  L 181.29 587.81
  L 183.21 594.95
  L 185.53 602.00
  L 188.22 608.86
  L 191.28 615.55
  L 194.69 622.02
  L 198.50 628.34
  L 202.64 634.42
  L 206.63 639.66
  L 210.88 644.69
  L 215.38 649.49
  L 220.10 654.06
  L 225.06 658.38
  L 230.22 662.46
  L 235.60 666.28
  L 241.17 669.83
  L 246.86 673.07
  L 252.72 676.04
  L 258.76 678.72
  L 264.95 681.11
  L 271.23 683.18
  L 277.66 684.95
  L 284.12 686.40
  L 290.70 687.53
  L 296.25 688.17
  L 302.97 688.63
  L 310.83 688.89
  L 319.86 688.97
  L 349.13 688.91
  L 349.66 689.13
  L 349.89 689.66
  L 350.28 694.16
  L 351.29 698.24
  L 352.93 702.00
  L 355.12 705.28
  L 357.03 707.35
  L 359.18 709.16
  L 361.56 710.71
  L 364.16 712.00
  L 367.01 713.03
  L 370.04 713.78
  L 373.24 714.25
  L 376.59 714.42
  L 455.91 714.45
  L 459.28 714.25
  L 462.45 713.69
  L 465.41 712.76
  L 468.16 711.46
  L 468.16 711.46
  L 470.21 710.16
  L 472.13 708.62
  L 473.92 706.85
  L 475.57 704.84
  L 476.65 703.20
  L 477.93 700.40
  L 478.75 697.25
  L 479.16 693.65
  L 479.28 688.52
  L 479.18 667.53
  L 478.88 663.30
  L 478.08 659.41
  L 476.79 655.84
  L 475.00 652.60
  L 475.00 652.60
  L 475.00 652.60
  L 475.00 652.60
  L 473.23 650.27
  L 471.15 648.15
  L 468.76 646.23
  L 466.06 644.52
  L 464.07 643.54
  L 461.95 642.76
  L 457.05 641.64
  L 451.27 641.10
  L 443.23 640.99
  L 441.01 641.00
  L 378.75 640.99
  L 371.42 641.19
  L 366.97 641.80
  L 363.73 642.89
  L 360.85 644.29
  L 358.32 646.02
  L 356.14 648.07
  L 356.14 648.07
  L 356.14 648.07
  L 354.21 650.62
  L 352.68 653.53
  L 351.56 656.82
  L 350.85 660.47
  L 350.64 660.86
  L 350.22 661.01
  L 337.64 661.10
  L 325.27 661.18
  L 316.28 661.07
  L 308.29 660.72
  L 300.93 660.12
  L 293.86 659.22
  L 287.12 657.99
  L 280.73 656.45
  L 274.54 654.56
  L 269.90 652.82
  L 265.15 650.72
  L 260.47 648.32
  L 255.74 645.57
  L 251.02 642.51
  L 246.30 639.12
  L 241.70 635.49
  L 237.16 631.59
  L 236.30 630.80
  L 233.53 628.02
  L 230.84 624.93
  L 224.31 616.17
  L 220.16 609.90
  L 216.54 603.45
  L 213.44 596.83
  L 210.88 590.03
  L 210.88 590.03
  L 210.88 590.03
  L 210.88 590.03
  L 209.46 585.37
  L 208.27 580.64
  L 207.33 575.82
  L 206.62 570.92
  L 206.15 565.95
  L 205.91 560.90
  L 205.92 555.76
  L 206.16 550.55
  L 206.29 550.28
  L 206.57 550.18
  L 207.48 550.22
  L 214.13 550.26
  L 216.44 549.98
  L 218.30 549.48
  L 220.79 548.32
  L 223.03 546.80
  L 225.07 544.90
  L 226.80 542.70
  L 228.20 540.26
  L 229.22 537.63
  L 229.86 534.86
  L 230.07 532.00
  L 230.06 369.25
  L 229.82 363.43
  L 229.08 358.64
  L 227.85 354.89
  L 225.99 351.57
  L 223.57 348.75
  L 220.64 346.52
  L 218.54 345.44
  L 216.28 344.64
  L 213.95 344.15
  L 211.49 343.96
  L 199.60 343.92
  L 199.10 343.71
  L 198.91 343.21
  L 198.91 343.17
  L 199.77 337.29
  L 202.28 325.30
  L 205.32 313.52
  L 208.89 301.94
  L 212.99 290.57
  L 212.99 290.57
  L 218.18 278.17
  L 224.03 266.01
  L 230.54 254.12
  L 237.71 242.48
  L 242.80 234.99
  L 248.17 227.76
  L 253.82 220.77
  L 259.74 214.04
  L 259.74 214.04
  L 259.74 214.04
  L 268.68 204.85
  L 278.18 196.18
  L 288.24 188.02
  L 298.87 180.38
  L 305.15 176.26
  L 311.50 172.35
  L 317.93 168.66
  L 324.44 165.17
  L 331.03 161.89
  L 337.70 158.82
  L 344.44 155.96
  L 351.26 153.31
  L 351.26 153.31
  L 351.26 153.31
  L 351.26 153.31
  L 358.45 150.78
  L 365.73 148.47
  L 373.09 146.38
  L 380.53 144.53
  L 393.19 142.00
  L 406.10 140.21
  L 419.29 139.18
  L 432.73 138.90
  L 446.51 139.39
  L 460.24 140.66
  L 473.73 142.70
  L 480.41 144.02
  L 487.05 145.53
  L 493.57 147.22
  L 500.03 149.10
  L 506.33 151.15
  L 512.56 153.39
  L 518.70 155.81
  L 524.77 158.43
  L 530.65 161.19
  L 536.45 164.14
  L 540.56 166.31
  L 554.17 173.73
  L 559.02 176.74
  L 563.46 179.80
  L 577.30 190.61
  L 582.80 195.20
  L 588.13 199.92
  L 597.83 209.35
  L 602.52 214.34
  L 607.07 219.46
  L 615.73 230.10
  L 623.95 241.46
  L 630.87 252.32
  L 637.27 263.85
  L 643.14 276.03
  L 648.42 288.76
  L 653.06 301.93
  L 657.06 315.50
  L 660.33 329.21
  L 662.91 343.15
  L 662.76 343.72
  L 662.23 343.99
  L 662.16 343.99
  L 655.47 343.86
  L 650.27 344.20
  L 645.87 345.03
  L 642.21 346.40
  L 639.85 347.82
  L 637.86 349.48
  L 636.26 351.29
  L 634.95 353.27
  L 633.87 355.48
  L 632.97 358.01
  L 632.31 360.73
  L 631.85 363.75
  L 631.59 367.16
  L 631.50 371.00
  L 631.59 526.75
  L 631.78 530.68
  L 632.31 534.51
  L 633.12 537.96
  L 634.22 541.06
  L 635.57 543.69
  L 637.14 545.84
  L 639.01 547.62
  L 641.05 548.89
  L 643.38 549.73
  L 646.05 550.08
  L 662.14 550.25
  L 688.48 550.01
  L 692.42 549.82
  L 696.32 549.35
  L 700.16 548.62
  L 703.94 547.63
  L 707.63 546.39
  L 711.21 544.90
  L 714.67 543.17
  L 717.99 541.21
  L 721.13 539.04
  L 724.10 536.65
  L 726.82 534.12
  L 729.34 531.40
  L 731.64 528.51
  L 733.72 525.43
  L 735.52 522.27
  L 737.09 518.95
  L 738.41 515.43
  L 739.47 511.75
  L 740.35 507.68
  L 741.04 503.54
  L 741.53 499.30
  L 741.83 494.99
  L 741.89 405.51
  L 741.78 395.43
  L 741.32 388.62
  L 740.37 382.80
  L 738.81 377.50
  L 737.86 375.15
  L 735.10 369.65
  L 731.89 364.68
  L 728.24 360.23
  L 724.14 356.31
  L 724.14 356.31
  L 724.14 356.31
  L 721.51 354.23
  L 718.71 352.33
  L 715.76 350.62
  L 712.65 349.10
  L 709.39 347.76
  L 705.97 346.60
  L 702.39 345.63
  L 698.66 344.84
  L 691.06 343.78
  L 690.67 343.59
  L 690.48 343.20"
/>
<path stroke="#7b7b7b" vector-effect="non-scaling-stroke" d="
  M 561.99 327.72
  L 565.59 323.23
  L 569.04 318.44
  L 572.35 313.34
  L 575.50 307.94
  L 577.12 305.13
  L 580.33 299.36
  L 582.08 295.17
  L 582.13 294.99
  L 582.35 293.54
  L 582.23 292.07
  L 581.79 290.52
  L 580.99 288.80
  L 579.85 286.99
  L 578.38 285.10
  L 574.23 280.72
  L 573.65 280.15
  L 548.16 254.64
  L 545.33 251.91
  L 543.03 250.11
  L 540.88 248.95
  L 538.78 248.37
  L 536.38 248.33
  L 533.71 248.96
  L 526.77 252.15
  L 525.58 252.74
  L 517.39 256.92
  L 511.62 260.17
  L 506.72 263.37
  L 502.48 266.67
  L 501.82 266.95
  L 501.11 266.79
  L 497.30 264.61
  L 493.42 262.65
  L 489.46 260.91
  L 485.43 259.39
  L 485.43 259.39
  L 485.43 259.39
  L 480.00 257.73
  L 474.45 256.45
  L 473.36 255.86
  L 472.81 254.75
  L 468.16 226.32
  L 467.27 222.37
  L 466.11 219.24
  L 464.63 216.78
  L 462.84 214.96
  L 461.10 213.85
  L 459.03 213.04
  L 456.70 212.57
  L 454.00 212.39
  L 411.25 212.35
  L 406.55 212.57
  L 402.73 213.27
  L 399.62 214.48
  L 397.08 216.26
  L 395.46 218.09
  L 394.12 220.40
  L 392.89 224.12
  L 391.91 229.42
  L 388.72 253.44
  L 388.34 254.40
  L 387.54 255.03
  L 360.93 266.63
  L 360.25 266.57
  L 353.68 262.46
  L 346.77 258.50
  L 339.52 254.68
  L 331.93 251.02
  L 331.57 250.85
  L 328.31 249.41
  L 325.94 248.64
  L 323.88 248.34
  L 322.02 248.49
  L 320.84 248.84
  L 319.65 249.42
  L 317.40 251.17
  L 288.25 280.25
  L 288.09 280.42
  L 284.59 284.06
  L 282.46 286.78
  L 280.99 289.45
  L 280.17 292.17
  L 279.99 293.84
  L 280.04 295.63
  L 280.33 297.03
  L 280.94 298.76
  L 283.16 303.15
  L 287.11 309.77
  L 291.14 315.99
  L 295.27 321.79
  L 299.49 327.18
  L 299.94 328.31
  L 299.68 329.49
  L 295.91 336.41
  L 292.51 343.39
  L 289.47 350.41
  L 286.80 357.49
  L 286.29 358.23
  L 285.48 358.60
  L 259.06 363.07
  L 255.06 363.94
  L 252.05 364.98
  L 249.75 366.30
  L 248.09 367.91
  L 247.16 369.40
  L 246.49 371.18
  L 246.10 373.17
  L 245.97 375.48
  L 246.02 421.25
  L 246.28 425.21
  L 246.90 428.31
  L 247.94 430.74
  L 249.43 432.62
  L 251.43 434.01
  L 253.86 434.87
  L 260.21 436.36
  L 276.06 439.90
  L 281.61 440.85
  L 286.80 441.48
  L 287.68 441.84
  L 288.19 442.64
  L 290.48 450.09
  L 293.16 457.21
  L 296.23 463.98
  L 299.69 470.42
  L 300.01 471.68
  L 299.63 472.93
  L 292.70 483.44
  L 285.48 493.98
  L 282.42 498.81
  L 281.40 500.88
  L 280.66 502.80
  L 280.18 504.69
  L 279.98 506.39
  L 280.05 508.03
  L 280.41 509.64
  L 281.45 511.81
  L 283.04 513.71
  L 309.88 540.43
  L 316.02 546.27
  L 318.12 547.98
  L 319.57 548.90
  L 320.39 549.24
  L 322.67 549.87
  L 325.20 550.12
  L 327.76 549.95
  L 330.53 549.39
  L 333.47 548.42
  L 336.53 547.05
  L 339.83 545.24
  L 343.29 543.03
  L 360.10 531.19
  L 361.20 530.84
  L 362.29 531.21
  L 365.35 533.30
  L 365.35 533.30
  L 368.82 535.21
  L 372.49 536.77
  L 387.80 542.65
  L 388.66 543.29
  L 389.08 544.27
  L 391.42 559.50
  L 393.68 572.89
  L 394.55 576.37
  L 395.78 579.24
  L 397.40 581.59
  L 399.46 583.45
  L 401.11 584.40
  L 402.97 585.09
  L 404.96 585.48
  L 407.17 585.62
  L 454.51 585.72
  L 458.46 585.63
  L 459.86 585.37
  L 460.89 584.98
  L 462.92 583.61
  L 464.83 581.69
  L 466.42 579.28
  L 467.59 576.52
  L 468.40 573.37
  L 470.64 559.54
  L 472.46 544.33
  L 472.96 543.12
  L 474.03 542.37
  L 480.54 540.04
  L 486.90 537.39
  L 486.90 537.39
  L 492.76 534.62
  L 498.50 531.57
  L 499.46 531.31
  L 500.42 531.55
  L 526.82 546.21
  L 530.99 548.31
  L 534.21 549.31
  L 536.44 549.47
  L 538.06 549.31
  L 539.63 548.95
  L 542.78 547.59
  L 545.97 545.38
  L 549.56 542.06
  L 565.31 526.16
  L 579.57 512.02
  L 580.71 510.36
  L 581.16 508.40
  L 581.09 506.24
  L 580.74 503.96
  L 580.14 501.62
  L 579.33 499.48
  L 576.19 493.34
  L 572.31 487.16
  L 567.62 480.78
  L 561.76 473.75
  L 561.43 473.05
  L 561.52 472.27
  L 574.06 442.16
  L 574.66 441.40
  L 575.58 441.07
  L 583.33 440.14
  L 595.05 437.84
  L 602.75 436.25
  L 606.80 435.22
  L 609.98 433.91
  L 612.38 432.26
  L 614.09 430.23
  L 614.73 428.99
  L 615.19 427.58
  L 615.52 424.49
  L 615.47 373.25
  L 615.22 370.97
  L 614.43 368.90
  L 613.67 367.79
  L 612.75 366.82
  L 610.28 365.18
  L 606.91 363.91
  L 602.53 362.95
  L 576.21 358.56
  L 575.05 358.03
  L 574.33 356.97
  L 573.12 353.45
  L 570.03 344.66
  L 567.54 338.60
  L 564.91 333.42
  L 561.95 328.81
  L 561.78 328.26
  L 561.99 327.72"
/>
<path stroke="#7b7b7b" vector-effect="non-scaling-stroke" d="
  M 656.98 370.94
  L 656.98 523.04
  L 656.98 523.04
  L 657.10 523.33
  L 657.39 523.44
  L 679.00 523.37
  L 688.19 523.12
  L 691.65 522.79
  L 694.36 522.33
  L 698.13 521.24
  L 701.51 519.76
  L 704.50 517.89
  L 707.10 515.64
  L 707.10 515.64
  L 707.10 515.64
  L 708.83 513.65
  L 710.33 511.44
  L 711.59 508.99
  L 712.63 506.32
  L 713.37 503.36
  L 713.84 499.83
  L 714.07 495.66
  L 714.10 489.82
  L 714.09 488.00
  L 714.05 402.50
  L 713.96 397.69
  L 713.64 393.51
  L 713.10 389.84
  L 712.31 386.52
  L 711.25 383.54
  L 709.95 380.94
  L 708.31 378.56
  L 706.46 376.57
  L 704.95 375.33
  L 703.26 374.21
  L 701.47 373.28
  L 699.49 372.49
  L 696.38 371.57
  L 693.10 370.91
  L 689.64 370.50
  L 686.01 370.36
  L 657.67 370.26
  L 657.18 370.46
  L 656.98 370.94
  L 656.98 370.94"
/>
<path stroke="#7b7b7b" vector-effect="non-scaling-stroke" d="
  M 204.45 523.10
  L 204.45 370.40
  L 204.45 370.40
  L 204.16 370.11
  L 172.65 370.11
  L 170.23 370.23
  L 167.82 370.58
  L 165.47 371.17
  L 163.18 371.99
  L 160.99 373.03
  L 158.91 374.27
  L 156.96 375.71
  L 155.16 377.34
  L 153.53 379.14
  L 152.08 381.08
  L 150.83 383.16
  L 149.79 385.35
  L 148.98 387.63
  L 148.39 389.98
  L 148.03 392.38
  L 147.91 394.80
  L 147.91 394.80
  L 147.91 498.70
  L 147.91 498.70
  L 148.03 501.12
  L 148.39 503.52
  L 148.98 505.87
  L 149.79 508.15
  L 150.83 510.34
  L 152.08 512.42
  L 153.53 514.36
  L 155.16 516.16
  L 156.96 517.79
  L 158.91 519.23
  L 160.99 520.47
  L 163.18 521.51
  L 165.47 522.33
  L 167.82 522.92
  L 170.23 523.27
  L 172.65 523.39
  L 204.16 523.39
  L 204.45 523.10
  L 204.45 523.10"
/>
<path stroke="#7b7b7b" vector-effect="non-scaling-stroke" d="
  M 454.81 666.22
  L 454.63 665.78
  L 454.19 665.60
  L 375.31 665.60
  L 374.87 665.78
  L 374.69 666.22
  L 374.69 689.06
  L 374.87 689.50
  L 375.31 689.68
  L 454.19 689.68
  L 454.63 689.50
  L 454.81 689.06
  L 454.81 666.22"
/>
<path stroke="#7b7b7b" vector-effect="non-scaling-stroke" d="
  M 306.80 504.91
  L 326.40 524.51
  L 327.30 524.94
  L 328.27 524.69
  L 339.00 517.62
  L 349.22 511.22
  L 349.74 510.90
  L 354.31 508.28
  L 357.81 506.85
  L 359.27 506.52
  L 360.68 506.42
  L 361.90 506.57
  L 363.04 506.99
  L 371.65 510.96
  L 383.67 515.73
  L 395.34 520.36
  L 403.61 524.16
  L 406.58 526.08
  L 407.80 527.23
  L 408.85 528.51
  L 408.85 528.51
  L 408.85 528.51
  L 408.85 528.51
  L 410.26 531.03
  L 411.14 533.92
  L 413.31 546.72
  L 415.11 561.73
  L 415.26 562.02
  L 415.57 562.14
  L 446.42 562.14
  L 446.82 561.99
  L 447.01 561.61
  L 448.89 543.13
  L 449.79 537.56
  L 450.89 533.50
  L 452.41 530.10
  L 454.42 527.25
  L 456.91 524.96
  L 459.91 523.11
  L 467.37 519.56
  L 481.85 513.78
  L 496.64 507.08
  L 498.45 506.39
  L 500.30 506.05
  L 500.30 506.05
  L 500.30 506.05
  L 501.98 506.05
  L 503.69 506.32
  L 505.42 506.88
  L 507.18 507.72
  L 520.30 515.27
  L 533.71 523.55
  L 534.75 523.79
  L 535.72 523.33
  L 554.86 504.20
  L 555.10 503.68
  L 554.93 503.13
  L 546.62 491.80
  L 537.48 478.74
  L 536.07 476.04
  L 535.68 474.68
  L 535.51 473.30
  L 535.51 473.30
  L 535.51 473.30
  L 535.56 471.76
  L 535.88 470.21
  L 536.47 468.65
  L 537.31 467.07
  L 541.39 459.99
  L 545.13 452.55
  L 548.52 444.76
  L 551.58 436.62
  L 555.83 427.20
  L 557.22 424.95
  L 559.25 422.94
  L 561.82 421.33
  L 564.99 420.05
  L 569.34 418.90
  L 581.26 416.45
  L 591.25 414.96
  L 591.56 414.80
  L 591.69 414.47
  L 591.69 385.44
  L 591.40 384.65
  L 590.66 384.24
  L 577.67 381.98
  L 565.99 379.28
  L 563.57 378.50
  L 561.38 377.49
  L 559.41 376.24
  L 557.66 374.77
  L 557.66 374.77
  L 556.24 373.21
  L 555.02 371.44
  L 553.98 369.49
  L 553.13 367.33
  L 550.12 358.87
  L 546.77 350.48
  L 543.09 342.18
  L 539.07 333.96
  L 537.61 330.61
  L 536.77 327.46
  L 536.63 324.83
  L 537.17 322.67
  L 539.48 318.42
  L 542.53 314.03
  L 555.53 296.79
  L 555.76 296.04
  L 555.44 295.32
  L 535.82 274.99
  L 535.12 274.63
  L 534.35 274.78
  L 506.59 290.55
  L 503.82 291.67
  L 502.44 291.92
  L 501.09 291.95
  L 501.09 291.95
  L 501.09 291.95
  L 499.02 291.59
  L 496.99 290.74
  L 489.68 286.98
  L 482.45 283.71
  L 475.29 280.91
  L 468.20 278.59
  L 465.08 277.33
  L 458.98 274.52
  L 457.08 273.49
  L 455.39 272.30
  L 453.93 270.96
  L 452.69 269.46
  L 452.69 269.46
  L 451.68 267.83
  L 450.89 266.04
  L 450.31 264.10
  L 449.94 262.01
  L 446.90 236.19
  L 446.72 235.83
  L 446.34 235.68
  L 415.59 235.68
  L 415.21 235.82
  L 415.01 236.18
  L 413.95 244.19
  L 412.21 256.36
  L 411.26 261.04
  L 410.13 265.51
  L 408.85 268.78
  L 407.00 271.57
  L 405.43 273.18
  L 403.59 274.56
  L 401.48 275.73
  L 399.12 276.67
  L 389.71 280.06
  L 389.71 280.06
  L 379.84 284.20
  L 370.17 288.85
  L 366.97 290.39
  L 364.38 291.36
  L 362.17 291.86
  L 359.99 291.96
  L 358.34 291.76
  L 356.64 291.30
  L 354.85 290.57
  L 352.95 289.54
  L 328.20 274.91
  L 327.74 274.82
  L 327.32 275.02
  L 306.52 295.82
  L 306.18 296.31
  L 306.05 296.89
  L 306.13 297.48
  L 306.42 298.00
  L 314.57 308.19
  L 321.85 317.85
  L 323.26 320.06
  L 324.27 322.27
  L 324.89 324.48
  L 325.12 326.71
  L 325.12 326.71
  L 325.02 328.47
  L 324.67 330.24
  L 324.08 332.01
  L 323.24 333.79
  L 320.63 338.54
  L 315.57 348.07
  L 313.94 351.68
  L 312.58 355.21
  L 312.31 355.98
  L 311.14 359.60
  L 309.17 365.51
  L 307.46 369.55
  L 305.55 372.85
  L 303.36 375.45
  L 301.47 376.84
  L 298.87 378.07
  L 295.53 379.17
  L 291.01 380.25
  L 280.59 382.39
  L 270.55 384.23
  L 270.13 384.48
  L 269.96 384.94
  L 269.96 413.99
  L 270.20 414.65
  L 270.81 415.00
  L 280.87 416.74
  L 290.62 418.66
  L 295.34 419.82
  L 299.01 421.15
  L 301.96 422.78
  L 304.36 424.81
  L 306.39 427.46
  L 307.91 430.62
  L 315.47 450.77
  L 317.42 455.35
  L 320.37 461.40
  L 323.93 468.88
  L 324.49 470.53
  L 324.79 472.15
  L 324.79 474.46
  L 324.29 476.91
  L 323.27 479.55
  L 321.69 482.46
  L 318.15 488.12
  L 314.48 493.59
  L 310.68 498.87
  L 306.75 503.96
  L 306.59 504.45
  L 306.80 504.91"
/>
<path stroke="#7b7b7b" vector-effect="non-scaling-stroke" d="
  M 510.4514 370.5121
  L 508.9493 366.6410
  L 507.2587 362.8483
  L 505.3838 359.1432
  L 503.3290 355.5346
  L 501.0994 352.0313
  L 498.7003 348.6416
  L 496.1375 345.3738
  L 493.4171 342.2356
  L 490.5457 339.2347
  L 487.5303 336.3783
  L 484.3780 333.6732
  L 481.0965 331.1260
  L 477.6937 328.7429
  L 474.1778 326.5295
  L 470.5572 324.4912
  L 466.8408 322.6329
  L 463.0373 320.9591
  L 459.1561 319.4738
  L 455.2063 318.1806
  L 451.1977 317.0826
  L 447.1397 316.1824
  L 443.0423 315.4823
  L 438.9152 314.9839
  L 434.7684 314.6884
  L 430.6119 314.5965
  L 426.4557 314.7084
  L 422.3099 315.0239
  L 418.1843 315.5423
  L 414.0890 316.2622
  L 410.0338 317.1819
  L 406.0285 318.2992
  L 402.0828 319.6115
  L 398.2060 321.1155
  L 394.4077 322.8077
  L 390.6968 324.6839
  L 387.0825 326.7396
  L 383.5733 328.9700
  L 380.1777 331.3695
  L 376.9040 333.9325
  L 373.7599 336.6528
  L 370.7531 339.5237
  L 367.8909 342.5385
  L 365.1800 345.6897
  L 362.6271 348.9699
  L 360.2383 352.3712
  L 358.0193 355.8853
  L 355.9755 359.5037
  L 354.1118 363.2178
  L 352.4327 367.0186
  L 350.9423 370.8970
  L 349.6441 374.8436
  L 348.5413 378.8488
  L 347.6365 382.9032
  L 346.9319 386.9968
  L 346.4292 391.1198
  L 346.1296 395.2623
  L 346.0339 399.4144
  L 346.1422 403.5659
  L 346.4543 407.7070
  L 346.9695 411.8276
  L 347.6864 415.9177
  L 348.6035 419.9677
  L 349.7185 423.9676
  L 351.0286 427.9079
  L 351.0286 427.9079
  L 352.5307 431.7790
  L 354.2213 435.5717
  L 356.0962 439.2768
  L 358.1510 442.8854
  L 360.3806 446.3887
  L 362.7797 449.7784
  L 365.3425 453.0462
  L 368.0629 456.1844
  L 370.9343 459.1853
  L 373.9497 462.0417
  L 377.1020 464.7468
  L 380.3835 467.2940
  L 383.7863 469.6771
  L 387.3022 471.8905
  L 390.9228 473.9288
  L 394.6392 475.7871
  L 398.4427 477.4609
  L 402.3239 478.9462
  L 406.2737 480.2394
  L 410.2823 481.3374
  L 414.3403 482.2376
  L 418.4377 482.9377
  L 422.5648 483.4361
  L 426.7116 483.7316
  L 430.8681 483.8235
  L 435.0243 483.7116
  L 439.1701 483.3961
  L 443.2957 482.8777
  L 447.3910 482.1578
  L 451.4462 481.2381
  L 455.4515 480.1208
  L 459.3972 478.8085
  L 463.2740 477.3045
  L 467.0723 475.6123
  L 470.7832 473.7361
  L 474.3975 471.6804
  L 477.9067 469.4500
  L 481.3023 467.0505
  L 484.5760 464.4875
  L 487.7201 461.7672
  L 490.7269 458.8963
  L 493.5891 455.8815
  L 496.3000 452.7303
  L 498.8529 449.4501
  L 501.2417 446.0488
  L 503.4607 442.5347
  L 505.5045 438.9163
  L 507.3682 435.2022
  L 509.0473 431.4014
  L 510.5377 427.5230
  L 511.8359 423.5764
  L 512.9387 419.5712
  L 513.8435 415.5168
  L 514.5481 411.4232
  L 515.0508 407.3002
  L 515.3504 403.1577
  L 515.4461 399.0056
  L 515.3378 394.8541
  L 515.0257 390.7130
  L 514.5105 386.5924
  L 513.7936 382.5023
  L 512.8765 378.4523
  L 511.7615 374.4524
  L 510.4514 370.5121"
/>
<path stroke="#7b7b7b" vector-effect="non-scaling-stroke" d="
  M 369.9501 399.1338
  L 370.2328 405.0192
  L 371.0989 410.8490
  L 372.5399 416.5670
  L 374.5419 422.1182
  L 377.0858 427.4490
  L 380.1469 432.5081
  L 383.6959 437.2468
  L 387.6985 441.6195
  L 392.1162 445.5841
  L 396.9065 449.1024
  L 402.0231 452.1404
  L 407.4169 454.6690
  L 413.0359 456.6638
  L 418.8260 458.1055
  L 424.7314 458.9804
  L 430.6952 459.2799
  L 436.6600 459.0012
  L 442.5685 458.1470
  L 448.3635 456.7254
  L 453.9894 454.7503
  L 459.3920 452.2405
  L 464.5193 449.2204
  L 469.3218 445.7189
  L 473.7533 441.7697
  L 477.7711 437.4110
  L 481.3366 432.6847
  L 484.4154 427.6363
  L 486.9779 422.3144
  L 488.9993 416.7703
  L 490.4602 411.0574
  L 491.3466 405.2306
  L 491.6499 399.3462
  L 491.6499 399.3462
  L 491.3672 393.4608
  L 490.5011 387.6310
  L 489.0601 381.9130
  L 487.0581 376.3618
  L 484.5142 371.0310
  L 481.4531 365.9719
  L 477.9041 361.2332
  L 473.9015 356.8605
  L 469.4838 352.8959
  L 464.6935 349.3776
  L 459.5769 346.3396
  L 454.1831 343.8110
  L 448.5641 341.8162
  L 442.7740 340.3745
  L 436.8686 339.4996
  L 430.9048 339.2001
  L 424.9400 339.4788
  L 419.0315 340.3330
  L 413.2365 341.7546
  L 407.6106 343.7297
  L 402.2080 346.2395
  L 397.0807 349.2596
  L 392.2782 352.7611
  L 387.8467 356.7103
  L 383.8289 361.0690
  L 380.2634 365.7953
  L 377.1846 370.8437
  L 374.6221 376.1656
  L 372.6007 381.7097
  L 371.1398 387.4226
  L 370.2534 393.2494
  L 369.9501 399.1338"
/>
</g>
<g fill="#f6f6f6">
<path d="
  M 631.80 81.81
  L 639.68 86.45
  L 647.42 91.25
  L 655.10 96.26
  L 662.65 101.44
  L 671.88 108.15
  L 680.89 115.09
  L 689.74 122.33
  L 698.36 129.81
  L 706.75 137.53
  L 714.90 145.47
  L 722.88 153.70
  L 730.60 162.14
  L 738.11 170.84
  L 745.37 179.74
  L 752.36 188.85
  L 759.08 198.14
  L 765.57 207.66
  L 771.79 217.37
  L 777.73 227.24
  L 783.39 237.28
  L 788.79 247.52
  L 793.90 257.92
  L 798.72 268.46
  L 803.25 279.14
  L 807.48 289.95
  L 811.41 300.90
  L 815.04 311.96
  L 818.37 323.13
  L 821.37 334.35
  L 824.06 345.67
  L 826.45 357.07
  L 828.52 368.57
  L 830.27 380.07
  L 831.71 391.65
  L 832.82 403.29
  L 833.62 414.99
  L 834.02 427.21
  L 833.89 439.00
  L 833.38 449.88
  L 832.59 460.69
  L 831.54 471.43
  L 830.21 482.11
  L 828.62 492.72
  L 826.75 503.27
  L 824.61 513.74
  L 822.19 524.16
  L 822.19 524.16
  L 822.19 524.16
  L 822.19 524.16
  L 822.19 524.16
  L 819.45 534.71
  L 816.43 545.19
  L 813.13 555.60
  L 809.54 565.94
  L 805.67 576.22
  L 801.52 586.42
  L 797.09 596.55
  L 792.37 606.62
  L 788.39 614.60
  L 784.23 622.48
  L 779.90 630.25
  L 775.40 637.90
  L 770.70 645.49
  L 765.83 652.97
  L 760.80 660.33
  L 755.61 667.56
  L 750.21 674.73
  L 744.66 681.76
  L 738.95 688.67
  L 733.09 695.44
  L 727.05 702.12
  L 720.86 708.65
  L 714.53 715.04
  L 708.05 721.29
  L 701.42 727.40
  L 694.66 733.37
  L 687.76 739.18
  L 680.73 744.84
  L 673.58 750.34
  L 666.30 755.68
  L 658.90 760.87
  L 651.38 765.89
  L 643.76 770.74
  L 636.02 775.43
  L 628.17 779.94
  L 620.21 784.28
  L 612.20 788.43
  L 604.09 792.40
  L 595.88 796.20
  L 587.58 799.81
  L 577.31 803.98
  L 577.31 803.98
  L 564.34 808.79
  L 551.20 813.16
  L 537.89 817.08
  L 524.41 820.57
  L 510.75 823.61
  L 496.92 826.21
  L 482.92 828.36
  L 468.74 830.08
  L 460.94 830.79
  L 454.75 831.10
  L 446.50 831.55
  L 436.06 832.06
  L 423.55 832.01
  L 411.14 831.58
  L 398.82 830.77
  L 386.59 829.58
  L 374.45 828.01
  L 362.40 826.07
  L 350.45 823.75
  L 338.59 821.05
  L 338.59 821.05
  L 338.59 821.05
  L 327.52 818.17
  L 316.53 814.95
  L 307.38 812.00
  L 298.31 808.84
  L 298.31 808.84
  L 298.31 808.84
  L 298.31 808.84
  L 284.54 803.59
  L 270.95 797.83
  L 257.55 791.57
  L 244.32 784.82
  L 231.27 777.56
  L 218.41 769.81
  L 205.72 761.55
  L 193.22 752.80
  L 180.58 743.25
  L 168.40 733.24
  L 156.68 722.78
  L 145.41 711.87
  L 145.41 711.87
  L 136.27 702.32
  L 127.44 692.44
  L 118.94 682.24
  L 110.77 671.72
  L 102.38 660.10
  L 94.41 648.20
  L 86.81 635.93
  L 79.65 623.40
  L 72.92 610.58
  L 66.63 597.54
  L 60.81 584.28
  L 55.46 570.84
  L 50.57 557.20
  L 46.16 543.41
  L 42.24 529.48
  L 38.81 515.43
  L 35.88 501.29
  L 33.45 487.07
  L 31.55 472.89
  L 30.15 458.66
  L 29.42 447.40
  L 29.02 436.15
  L 28.96 424.92
  L 29.23 413.70
  L 29.23 413.70
  L 29.92 401.31
  L 31.03 388.94
  L 32.54 376.59
  L 34.47 364.25
  L 37.23 349.80
  L 40.53 335.23
  L 44.38 320.55
  L 48.76 305.76
  L 53.48 291.81
  L 58.90 277.91
  L 65.00 264.04
  L 71.80 250.22
  L 80.21 234.68
  L 89.03 219.75
  L 98.35 205.30
  L 108.07 191.47
  L 118.27 178.14
  L 128.89 165.40
  L 140.05 153.09
  L 151.64 141.36
  L 162.74 130.99
  L 173.14 121.96
  L 183.80 113.32
  L 194.73 105.06
  L 205.91 97.19
  L 205.91 97.19
  L 220.75 87.59
  L 236.02 78.64
  L 251.73 70.32
  L 267.88 62.65
  L 279.64 57.64
  L 290.92 53.38
  L 305.72 48.45
  L 320.40 44.10
  L 334.97 40.33
  L 349.41 37.13
  L 363.74 34.51
  L 377.94 32.46
  L 392.03 30.99
  L 406.00 30.10
  L 425.32 29.54
  L 443.36 29.61
  L 460.03 30.30
  L 475.26 31.60
  L 485.46 32.86
  L 495.63 34.38
  L 505.78 36.14
  L 515.90 38.16
  L 525.99 40.42
  L 536.06 42.94
  L 546.10 45.70
  L 556.11 48.72
  L 568.89 52.98
  L 581.46 57.66
  L 593.84 62.77
  L 606.01 68.31
  L 606.01 68.31
  L 606.01 68.31
  L 619.03 74.81
  L 631.80 81.81
  Z
  M 690.48 343.20
  L 689.16 334.12
  L 687.58 325.11
  L 685.74 316.17
  L 683.63 307.29
  L 683.63 307.29
  L 683.63 307.29
  L 681.17 298.15
  L 678.43 289.08
  L 675.41 280.08
  L 672.11 271.15
  L 667.87 260.97
  L 663.11 250.97
  L 657.83 241.14
  L 652.02 231.48
  L 643.78 219.24
  L 634.87 207.41
  L 625.39 196.13
  L 620.41 190.69
  L 615.29 185.38
  L 610.07 180.25
  L 604.72 175.28
  L 599.30 170.52
  L 593.76 165.92
  L 588.10 161.49
  L 582.32 157.22
  L 576.51 153.19
  L 570.59 149.33
  L 560.69 143.37
  L 550.58 137.88
  L 540.29 132.85
  L 529.83 128.28
  L 519.16 124.17
  L 508.34 120.54
  L 497.38 117.39
  L 486.29 114.72
  L 478.41 113.14
  L 470.47 111.80
  L 462.49 110.70
  L 454.46 109.85
  L 446.45 109.25
  L 438.40 108.90
  L 430.33 108.80
  L 422.23 108.94
  L 410.78 109.58
  L 399.44 110.72
  L 389.27 112.19
  L 379.20 114.06
  L 369.15 116.35
  L 359.21 119.04
  L 349.38 122.13
  L 339.69 125.60
  L 330.04 129.49
  L 320.55 133.76
  L 311.17 138.44
  L 301.95 143.48
  L 292.91 148.89
  L 284.06 154.66
  L 275.36 160.80
  L 266.87 167.29
  L 258.58 174.13
  L 250.51 181.29
  L 244.98 186.56
  L 244.98 186.56
  L 237.23 194.60
  L 229.87 203.03
  L 222.90 211.86
  L 216.32 221.08
  L 211.80 227.98
  L 207.47 235.02
  L 203.34 242.20
  L 199.41 249.51
  L 195.68 256.93
  L 192.17 264.47
  L 188.88 272.12
  L 185.80 279.86
  L 182.98 287.61
  L 180.39 295.43
  L 178.02 303.33
  L 175.89 311.29
  L 174.00 319.27
  L 172.35 327.30
  L 170.97 335.27
  L 169.82 343.28
  L 169.58 343.73
  L 169.10 343.92
  L 162.58 344.48
  L 156.26 345.79
  L 153.16 346.74
  L 150.15 347.87
  L 147.22 349.18
  L 144.40 350.67
  L 141.72 352.30
  L 139.16 354.10
  L 136.72 356.06
  L 134.43 358.17
  L 132.32 360.39
  L 130.36 362.76
  L 128.55 365.26
  L 126.91 367.90
  L 125.45 370.66
  L 124.17 373.54
  L 123.12 376.46
  L 122.25 379.49
  L 120.96 386.18
  L 120.63 389.39
  L 120.52 392.50
  L 120.46 492.00
  L 120.77 501.28
  L 121.16 505.33
  L 121.71 508.98
  L 122.97 514.44
  L 124.73 519.55
  L 126.99 524.30
  L 129.74 528.71
  L 129.74 528.71
  L 129.74 528.71
  L 129.74 528.71
  L 132.98 532.76
  L 136.71 536.45
  L 140.94 539.80
  L 145.66 542.80
  L 149.84 544.93
  L 155.38 547.04
  L 161.33 548.57
  L 167.95 549.62
  L 176.44 550.38
  L 176.83 550.56
  L 177.00 550.95
  L 178.18 568.21
  L 178.92 574.98
  L 179.76 580.50
  L 181.29 587.81
  L 183.21 594.95
  L 185.53 602.00
  L 188.22 608.86
  L 191.28 615.55
  L 194.69 622.02
  L 198.50 628.34
  L 202.64 634.42
  L 206.63 639.66
  L 210.88 644.69
  L 215.38 649.49
  L 220.10 654.06
  L 225.06 658.38
  L 230.22 662.46
  L 235.60 666.28
  L 241.17 669.83
  L 246.86 673.07
  L 252.72 676.04
  L 258.76 678.72
  L 264.95 681.11
  L 271.23 683.18
  L 277.66 684.95
  L 284.12 686.40
  L 290.70 687.53
  L 296.25 688.17
  L 302.97 688.63
  L 310.83 688.89
  L 319.86 688.97
  L 349.13 688.91
  L 349.66 689.13
  L 349.89 689.66
  L 350.28 694.16
  L 351.29 698.24
  L 352.93 702.00
  L 355.12 705.28
  L 357.03 707.35
  L 359.18 709.16
  L 361.56 710.71
  L 364.16 712.00
  L 367.01 713.03
  L 370.04 713.78
  L 373.24 714.25
  L 376.59 714.42
  L 455.91 714.45
  L 459.28 714.25
  L 462.45 713.69
  L 465.41 712.76
  L 468.16 711.46
  L 468.16 711.46
  L 470.21 710.16
  L 472.13 708.62
  L 473.92 706.85
  L 475.57 704.84
  L 476.65 703.20
  L 477.93 700.40
  L 478.75 697.25
  L 479.16 693.65
  L 479.28 688.52
  L 479.18 667.53
  L 478.88 663.30
  L 478.08 659.41
  L 476.79 655.84
  L 475.00 652.60
  L 475.00 652.60
  L 475.00 652.60
  L 475.00 652.60
  L 473.23 650.27
  L 471.15 648.15
  L 468.76 646.23
  L 466.06 644.52
  L 464.07 643.54
  L 461.95 642.76
  L 457.05 641.64
  L 451.27 641.10
  L 443.23 640.99
  L 441.01 641.00
  L 378.75 640.99
  L 371.42 641.19
  L 366.97 641.80
  L 363.73 642.89
  L 360.85 644.29
  L 358.32 646.02
  L 356.14 648.07
  L 356.14 648.07
  L 356.14 648.07
  L 354.21 650.62
  L 352.68 653.53
  L 351.56 656.82
  L 350.85 660.47
  L 350.64 660.86
  L 350.22 661.01
  L 337.64 661.10
  L 325.27 661.18
  L 316.28 661.07
  L 308.29 660.72
  L 300.93 660.12
  L 293.86 659.22
  L 287.12 657.99
  L 280.73 656.45
  L 274.54 654.56
  L 269.90 652.82
  L 265.15 650.72
  L 260.47 648.32
  L 255.74 645.57
  L 251.02 642.51
  L 246.30 639.12
  L 241.70 635.49
  L 237.16 631.59
  L 236.30 630.80
  L 233.53 628.02
  L 230.84 624.93
  L 224.31 616.17
  L 220.16 609.90
  L 216.54 603.45
  L 213.44 596.83
  L 210.88 590.03
  L 210.88 590.03
  L 210.88 590.03
  L 210.88 590.03
  L 209.46 585.37
  L 208.27 580.64
  L 207.33 575.82
  L 206.62 570.92
  L 206.15 565.95
  L 205.91 560.90
  L 205.92 555.76
  L 206.16 550.55
  L 206.29 550.28
  L 206.57 550.18
  L 207.48 550.22
  L 214.13 550.26
  L 216.44 549.98
  L 218.30 549.48
  L 220.79 548.32
  L 223.03 546.80
  L 225.07 544.90
  L 226.80 542.70
  L 228.20 540.26
  L 229.22 537.63
  L 229.86 534.86
  L 230.07 532.00
  L 230.06 369.25
  L 229.82 363.43
  L 229.08 358.64
  L 227.85 354.89
  L 225.99 351.57
  L 223.57 348.75
  L 220.64 346.52
  L 218.54 345.44
  L 216.28 344.64
  L 213.95 344.15
  L 211.49 343.96
  L 199.60 343.92
  L 199.10 343.71
  L 198.91 343.21
  L 198.91 343.17
  L 199.77 337.29
  L 202.28 325.30
  L 205.32 313.52
  L 208.89 301.94
  L 212.99 290.57
  L 212.99 290.57
  L 218.18 278.17
  L 224.03 266.01
  L 230.54 254.12
  L 237.71 242.48
  L 242.80 234.99
  L 248.17 227.76
  L 253.82 220.77
  L 259.74 214.04
  L 259.74 214.04
  L 259.74 214.04
  L 268.68 204.85
  L 278.18 196.18
  L 288.24 188.02
  L 298.87 180.38
  L 305.15 176.26
  L 311.50 172.35
  L 317.93 168.66
  L 324.44 165.17
  L 331.03 161.89
  L 337.70 158.82
  L 344.44 155.96
  L 351.26 153.31
  L 351.26 153.31
  L 351.26 153.31
  L 351.26 153.31
  L 358.45 150.78
  L 365.73 148.47
  L 373.09 146.38
  L 380.53 144.53
  L 393.19 142.00
  L 406.10 140.21
  L 419.29 139.18
  L 432.73 138.90
  L 446.51 139.39
  L 460.24 140.66
  L 473.73 142.70
  L 480.41 144.02
  L 487.05 145.53
  L 493.57 147.22
  L 500.03 149.10
  L 506.33 151.15
  L 512.56 153.39
  L 518.70 155.81
  L 524.77 158.43
  L 530.65 161.19
  L 536.45 164.14
  L 540.56 166.31
  L 554.17 173.73
  L 559.02 176.74
  L 563.46 179.80
  L 577.30 190.61
  L 582.80 195.20
  L 588.13 199.92
  L 597.83 209.35
  L 602.52 214.34
  L 607.07 219.46
  L 615.73 230.10
  L 623.95 241.46
  L 630.87 252.32
  L 637.27 263.85
  L 643.14 276.03
  L 648.42 288.76
  L 653.06 301.93
  L 657.06 315.50
  L 660.33 329.21
  L 662.91 343.15
  L 662.76 343.72
  L 662.23 343.99
  L 662.16 343.99
  L 655.47 343.86
  L 650.27 344.20
  L 645.87 345.03
  L 642.21 346.40
  L 639.85 347.82
  L 637.86 349.48
  L 636.26 351.29
  L 634.95 353.27
  L 633.87 355.48
  L 632.97 358.01
  L 632.31 360.73
  L 631.85 363.75
  L 631.59 367.16
  L 631.50 371.00
  L 631.59 526.75
  L 631.78 530.68
  L 632.31 534.51
  L 633.12 537.96
  L 634.22 541.06
  L 635.57 543.69
  L 637.14 545.84
  L 639.01 547.62
  L 641.05 548.89
  L 643.38 549.73
  L 646.05 550.08
  L 662.14 550.25
  L 688.48 550.01
  L 692.42 549.82
  L 696.32 549.35
  L 700.16 548.62
  L 703.94 547.63
  L 707.63 546.39
  L 711.21 544.90
  L 714.67 543.17
  L 717.99 541.21
  L 721.13 539.04
  L 724.10 536.65
  L 726.82 534.12
  L 729.34 531.40
  L 731.64 528.51
  L 733.72 525.43
  L 735.52 522.27
  L 737.09 518.95
  L 738.41 515.43
  L 739.47 511.75
  L 740.35 507.68
  L 741.04 503.54
  L 741.53 499.30
  L 741.83 494.99
  L 741.89 405.51
  L 741.78 395.43
  L 741.32 388.62
  L 740.37 382.80
  L 738.81 377.50
  L 737.86 375.15
  L 735.10 369.65
  L 731.89 364.68
  L 728.24 360.23
  L 724.14 356.31
  L 724.14 356.31
  L 724.14 356.31
  L 721.51 354.23
  L 718.71 352.33
  L 715.76 350.62
  L 712.65 349.10
  L 709.39 347.76
  L 705.97 346.60
  L 702.39 345.63
  L 698.66 344.84
  L 691.06 343.78
  L 690.67 343.59
  L 690.48 343.20
  Z
  M 561.99 327.72
  L 565.59 323.23
  L 569.04 318.44
  L 572.35 313.34
  L 575.50 307.94
  L 577.12 305.13
  L 580.33 299.36
  L 582.08 295.17
  L 582.13 294.99
  L 582.35 293.54
  L 582.23 292.07
  L 581.79 290.52
  L 580.99 288.80
  L 579.85 286.99
  L 578.38 285.10
  L 574.23 280.72
  L 573.65 280.15
  L 548.16 254.64
  L 545.33 251.91
  L 543.03 250.11
  L 540.88 248.95
  L 538.78 248.37
  L 536.38 248.33
  L 533.71 248.96
  L 526.77 252.15
  L 525.58 252.74
  L 517.39 256.92
  L 511.62 260.17
  L 506.72 263.37
  L 502.48 266.67
  L 501.82 266.95
  L 501.11 266.79
  L 497.30 264.61
  L 493.42 262.65
  L 489.46 260.91
  L 485.43 259.39
  L 485.43 259.39
  L 485.43 259.39
  L 480.00 257.73
  L 474.45 256.45
  L 473.36 255.86
  L 472.81 254.75
  L 468.16 226.32
  L 467.27 222.37
  L 466.11 219.24
  L 464.63 216.78
  L 462.84 214.96
  L 461.10 213.85
  L 459.03 213.04
  L 456.70 212.57
  L 454.00 212.39
  L 411.25 212.35
  L 406.55 212.57
  L 402.73 213.27
  L 399.62 214.48
  L 397.08 216.26
  L 395.46 218.09
  L 394.12 220.40
  L 392.89 224.12
  L 391.91 229.42
  L 388.72 253.44
  L 388.34 254.40
  L 387.54 255.03
  L 360.93 266.63
  L 360.25 266.57
  L 353.68 262.46
  L 346.77 258.50
  L 339.52 254.68
  L 331.93 251.02
  L 331.57 250.85
  L 328.31 249.41
  L 325.94 248.64
  L 323.88 248.34
  L 322.02 248.49
  L 320.84 248.84
  L 319.65 249.42
  L 317.40 251.17
  L 288.25 280.25
  L 288.09 280.42
  L 284.59 284.06
  L 282.46 286.78
  L 280.99 289.45
  L 280.17 292.17
  L 279.99 293.84
  L 280.04 295.63
  L 280.33 297.03
  L 280.94 298.76
  L 283.16 303.15
  L 287.11 309.77
  L 291.14 315.99
  L 295.27 321.79
  L 299.49 327.18
  L 299.94 328.31
  L 299.68 329.49
  L 295.91 336.41
  L 292.51 343.39
  L 289.47 350.41
  L 286.80 357.49
  L 286.29 358.23
  L 285.48 358.60
  L 259.06 363.07
  L 255.06 363.94
  L 252.05 364.98
  L 249.75 366.30
  L 248.09 367.91
  L 247.16 369.40
  L 246.49 371.18
  L 246.10 373.17
  L 245.97 375.48
  L 246.02 421.25
  L 246.28 425.21
  L 246.90 428.31
  L 247.94 430.74
  L 249.43 432.62
  L 251.43 434.01
  L 253.86 434.87
  L 260.21 436.36
  L 276.06 439.90
  L 281.61 440.85
  L 286.80 441.48
  L 287.68 441.84
  L 288.19 442.64
  L 290.48 450.09
  L 293.16 457.21
  L 296.23 463.98
  L 299.69 470.42
  L 300.01 471.68
  L 299.63 472.93
  L 292.70 483.44
  L 285.48 493.98
  L 282.42 498.81
  L 281.40 500.88
  L 280.66 502.80
  L 280.18 504.69
  L 279.98 506.39
  L 280.05 508.03
  L 280.41 509.64
  L 281.45 511.81
  L 283.04 513.71
  L 309.88 540.43
  L 316.02 546.27
  L 318.12 547.98
  L 319.57 548.90
  L 320.39 549.24
  L 322.67 549.87
  L 325.20 550.12
  L 327.76 549.95
  L 330.53 549.39
  L 333.47 548.42
  L 336.53 547.05
  L 339.83 545.24
  L 343.29 543.03
  L 360.10 531.19
  L 361.20 530.84
  L 362.29 531.21
  L 365.35 533.30
  L 365.35 533.30
  L 368.82 535.21
  L 372.49 536.77
  L 387.80 542.65
  L 388.66 543.29
  L 389.08 544.27
  L 391.42 559.50
  L 393.68 572.89
  L 394.55 576.37
  L 395.78 579.24
  L 397.40 581.59
  L 399.46 583.45
  L 401.11 584.40
  L 402.97 585.09
  L 404.96 585.48
  L 407.17 585.62
  L 454.51 585.72
  L 458.46 585.63
  L 459.86 585.37
  L 460.89 584.98
  L 462.92 583.61
  L 464.83 581.69
  L 466.42 579.28
  L 467.59 576.52
  L 468.40 573.37
  L 470.64 559.54
  L 472.46 544.33
  L 472.96 543.12
  L 474.03 542.37
  L 480.54 540.04
  L 486.90 537.39
  L 486.90 537.39
  L 492.76 534.62
  L 498.50 531.57
  L 499.46 531.31
  L 500.42 531.55
  L 526.82 546.21
  L 530.99 548.31
  L 534.21 549.31
  L 536.44 549.47
  L 538.06 549.31
  L 539.63 548.95
  L 542.78 547.59
  L 545.97 545.38
  L 549.56 542.06
  L 565.31 526.16
  L 579.57 512.02
  L 580.71 510.36
  L 581.16 508.40
  L 581.09 506.24
  L 580.74 503.96
  L 580.14 501.62
  L 579.33 499.48
  L 576.19 493.34
  L 572.31 487.16
  L 567.62 480.78
  L 561.76 473.75
  L 561.43 473.05
  L 561.52 472.27
  L 574.06 442.16
  L 574.66 441.40
  L 575.58 441.07
  L 583.33 440.14
  L 595.05 437.84
  L 602.75 436.25
  L 606.80 435.22
  L 609.98 433.91
  L 612.38 432.26
  L 614.09 430.23
  L 614.73 428.99
  L 615.19 427.58
  L 615.52 424.49
  L 615.47 373.25
  L 615.22 370.97
  L 614.43 368.90
  L 613.67 367.79
  L 612.75 366.82
  L 610.28 365.18
  L 606.91 363.91
  L 602.53 362.95
  L 576.21 358.56
  L 575.05 358.03
  L 574.33 356.97
  L 573.12 353.45
  L 570.03 344.66
  L 567.54 338.60
  L 564.91 333.42
  L 561.95 328.81
  L 561.78 328.26
  L 561.99 327.72
  Z"
/>
<path d="
  M 306.75 503.96
  L 310.68 498.87
  L 314.48 493.59
  L 318.15 488.12
  L 321.69 482.46
  L 323.27 479.55
  L 324.29 476.91
  L 324.79 474.46
  L 324.79 472.15
  L 324.49 470.53
  L 323.93 468.88
  L 320.37 461.40
  L 317.42 455.35
  L 315.47 450.77
  L 307.91 430.62
  L 306.39 427.46
  L 304.36 424.81
  L 301.96 422.78
  L 299.01 421.15
  L 295.34 419.82
  L 290.62 418.66
  L 280.87 416.74
  L 270.81 415.00
  L 270.20 414.65
  L 269.96 413.99
  L 269.96 384.94
  L 270.13 384.48
  L 270.55 384.23
  L 280.59 382.39
  L 291.01 380.25
  L 295.53 379.17
  L 298.87 378.07
  L 301.47 376.84
  L 303.36 375.45
  L 305.55 372.85
  L 307.46 369.55
  L 309.17 365.51
  L 311.14 359.60
  L 312.31 355.98
  L 312.58 355.21
  L 313.94 351.68
  L 315.57 348.07
  L 320.63 338.54
  L 323.24 333.79
  L 324.08 332.01
  L 324.67 330.24
  L 325.02 328.47
  L 325.12 326.71
  L 325.12 326.71
  L 325.12 326.71
  L 325.12 326.71
  L 324.89 324.48
  L 324.27 322.27
  L 323.26 320.06
  L 321.85 317.85
  L 314.57 308.19
  L 306.42 298.00
  L 306.13 297.48
  L 306.05 296.89
  L 306.18 296.31
  L 306.52 295.82
  L 327.32 275.02
  L 327.74 274.82
  L 328.20 274.91
  L 352.95 289.54
  L 354.85 290.57
  L 356.64 291.30
  L 358.34 291.76
  L 359.99 291.96
  L 362.17 291.86
  L 364.38 291.36
  L 366.97 290.39
  L 370.17 288.85
  L 379.84 284.20
  L 389.71 280.06
  L 389.71 280.06
  L 399.12 276.67
  L 401.48 275.73
  L 403.59 274.56
  L 405.43 273.18
  L 407.00 271.57
  L 408.85 268.78
  L 410.13 265.51
  L 411.26 261.04
  L 412.21 256.36
  L 413.95 244.19
  L 415.01 236.18
  L 415.21 235.82
  L 415.59 235.68
  L 446.34 235.68
  L 446.72 235.83
  L 446.90 236.19
  L 449.94 262.01
  L 450.31 264.10
  L 450.89 266.04
  L 451.68 267.83
  L 452.69 269.46
  L 453.93 270.96
  L 455.39 272.30
  L 457.08 273.49
  L 458.98 274.52
  L 465.08 277.33
  L 468.20 278.59
  L 475.29 280.91
  L 482.45 283.71
  L 489.68 286.98
  L 496.99 290.74
  L 499.02 291.59
  L 501.09 291.95
  L 501.09 291.95
  L 501.09 291.95
  L 502.44 291.92
  L 503.82 291.67
  L 506.59 290.55
  L 534.35 274.78
  L 535.12 274.63
  L 535.82 274.99
  L 555.44 295.32
  L 555.76 296.04
  L 555.53 296.79
  L 542.53 314.03
  L 539.48 318.42
  L 537.17 322.67
  L 536.63 324.83
  L 536.77 327.46
  L 537.61 330.61
  L 539.07 333.96
  L 543.09 342.18
  L 546.77 350.48
  L 550.12 358.87
  L 553.13 367.33
  L 553.98 369.49
  L 555.02 371.44
  L 556.24 373.21
  L 557.66 374.77
  L 557.66 374.77
  L 557.66 374.77
  L 559.41 376.24
  L 561.38 377.49
  L 563.57 378.50
  L 565.99 379.28
  L 577.67 381.98
  L 590.66 384.24
  L 591.40 384.65
  L 591.69 385.44
  L 591.69 414.47
  L 591.56 414.80
  L 591.25 414.96
  L 581.26 416.45
  L 569.34 418.90
  L 564.99 420.05
  L 561.82 421.33
  L 559.25 422.94
  L 557.22 424.95
  L 555.83 427.20
  L 551.58 436.62
  L 548.52 444.76
  L 545.13 452.55
  L 541.39 459.99
  L 537.31 467.07
  L 536.47 468.65
  L 535.88 470.21
  L 535.56 471.76
  L 535.51 473.30
  L 535.51 473.30
  L 535.51 473.30
  L 535.68 474.68
  L 536.07 476.04
  L 537.48 478.74
  L 546.62 491.80
  L 554.93 503.13
  L 555.10 503.68
  L 554.86 504.20
  L 535.72 523.33
  L 534.75 523.79
  L 533.71 523.55
  L 520.30 515.27
  L 507.18 507.72
  L 505.42 506.88
  L 503.69 506.32
  L 501.98 506.05
  L 500.30 506.05
  L 500.30 506.05
  L 500.30 506.05
  L 498.45 506.39
  L 496.64 507.08
  L 481.85 513.78
  L 467.37 519.56
  L 459.91 523.11
  L 456.91 524.96
  L 454.42 527.25
  L 452.41 530.10
  L 450.89 533.50
  L 449.79 537.56
  L 448.89 543.13
  L 447.01 561.61
  L 446.82 561.99
  L 446.42 562.14
  L 415.57 562.14
  L 415.26 562.02
  L 415.11 561.73
  L 413.31 546.72
  L 411.14 533.92
  L 410.26 531.03
  L 408.85 528.51
  L 408.85 528.51
  L 408.85 528.51
  L 408.85 528.51
  L 407.80 527.23
  L 406.58 526.08
  L 403.61 524.16
  L 395.34 520.36
  L 383.67 515.73
  L 371.65 510.96
  L 363.04 506.99
  L 361.90 506.57
  L 360.68 506.42
  L 359.27 506.52
  L 357.81 506.85
  L 354.31 508.28
  L 349.74 510.90
  L 349.22 511.22
  L 339.00 517.62
  L 328.27 524.69
  L 327.30 524.94
  L 326.40 524.51
  L 306.80 504.91
  L 306.59 504.45
  L 306.75 503.96
  Z
  M 510.4514 370.5121
  L 508.9493 366.6410
  L 507.2587 362.8483
  L 505.3838 359.1432
  L 503.3290 355.5346
  L 501.0994 352.0313
  L 498.7003 348.6416
  L 496.1375 345.3738
  L 493.4171 342.2356
  L 490.5457 339.2347
  L 487.5303 336.3783
  L 484.3780 333.6732
  L 481.0965 331.1260
  L 477.6937 328.7429
  L 474.1778 326.5295
  L 470.5572 324.4912
  L 466.8408 322.6329
  L 463.0373 320.9591
  L 459.1561 319.4738
  L 455.2063 318.1806
  L 451.1977 317.0826
  L 447.1397 316.1824
  L 443.0423 315.4823
  L 438.9152 314.9839
  L 434.7684 314.6884
  L 430.6119 314.5965
  L 426.4557 314.7084
  L 422.3099 315.0239
  L 418.1843 315.5423
  L 414.0890 316.2622
  L 410.0338 317.1819
  L 406.0285 318.2992
  L 402.0828 319.6115
  L 398.2060 321.1155
  L 394.4077 322.8077
  L 390.6968 324.6839
  L 387.0825 326.7396
  L 383.5733 328.9700
  L 380.1777 331.3695
  L 376.9040 333.9325
  L 373.7599 336.6528
  L 370.7531 339.5237
  L 367.8909 342.5385
  L 365.1800 345.6897
  L 362.6271 348.9699
  L 360.2383 352.3712
  L 358.0193 355.8853
  L 355.9755 359.5037
  L 354.1118 363.2178
  L 352.4327 367.0186
  L 350.9423 370.8970
  L 349.6441 374.8436
  L 348.5413 378.8488
  L 347.6365 382.9032
  L 346.9319 386.9968
  L 346.4292 391.1198
  L 346.1296 395.2623
  L 346.0339 399.4144
  L 346.1422 403.5659
  L 346.4543 407.7070
  L 346.9695 411.8276
  L 347.6864 415.9177
  L 348.6035 419.9677
  L 349.7185 423.9676
  L 351.0286 427.9079
  L 351.0286 427.9079
  L 352.5307 431.7790
  L 354.2213 435.5717
  L 356.0962 439.2768
  L 358.1510 442.8854
  L 360.3806 446.3887
  L 362.7797 449.7784
  L 365.3425 453.0462
  L 368.0629 456.1844
  L 370.9343 459.1853
  L 373.9497 462.0417
  L 377.1020 464.7468
  L 380.3835 467.2940
  L 383.7863 469.6771
  L 387.3022 471.8905
  L 390.9228 473.9288
  L 394.6392 475.7871
  L 398.4427 477.4609
  L 402.3239 478.9462
  L 406.2737 480.2394
  L 410.2823 481.3374
  L 414.3403 482.2376
  L 418.4377 482.9377
  L 422.5648 483.4361
  L 426.7116 483.7316
  L 430.8681 483.8235
  L 435.0243 483.7116
  L 439.1701 483.3961
  L 443.2957 482.8777
  L 447.3910 482.1578
  L 451.4462 481.2381
  L 455.4515 480.1208
  L 459.3972 478.8085
  L 463.2740 477.3045
  L 467.0723 475.6123
  L 470.7832 473.7361
  L 474.3975 471.6804
  L 477.9067 469.4500
  L 481.3023 467.0505
  L 484.5760 464.4875
  L 487.7201 461.7672
  L 490.7269 458.8963
  L 493.5891 455.8815
  L 496.3000 452.7303
  L 498.8529 449.4501
  L 501.2417 446.0488
  L 503.4607 442.5347
  L 505.5045 438.9163
  L 507.3682 435.2022
  L 509.0473 431.4014
  L 510.5377 427.5230
  L 511.8359 423.5764
  L 512.9387 419.5712
  L 513.8435 415.5168
  L 514.5481 411.4232
  L 515.0508 407.3002
  L 515.3504 403.1577
  L 515.4461 399.0056
  L 515.3378 394.8541
  L 515.0257 390.7130
  L 514.5105 386.5924
  L 513.7936 382.5023
  L 512.8765 378.4523
  L 511.7615 374.4524
  L 510.4514 370.5121
  Z"
/>
<ellipse cx="0.00" cy="0.00" transform="translate(430.80,399.24) rotate(-179.9)" rx="60.85" ry="60.04"/>
<path d="
  M 657.67 370.26
  L 686.01 370.36
  L 689.64 370.50
  L 693.10 370.91
  L 696.38 371.57
  L 699.49 372.49
  L 701.47 373.28
  L 703.26 374.21
  L 704.95 375.33
  L 706.46 376.57
  L 708.31 378.56
  L 709.95 380.94
  L 711.25 383.54
  L 712.31 386.52
  L 713.10 389.84
  L 713.64 393.51
  L 713.96 397.69
  L 714.05 402.50
  L 714.09 488.00
  L 714.10 489.82
  L 714.07 495.66
  L 713.84 499.83
  L 713.37 503.36
  L 712.63 506.32
  L 711.59 508.99
  L 710.33 511.44
  L 708.83 513.65
  L 707.10 515.64
  L 707.10 515.64
  L 704.50 517.89
  L 701.51 519.76
  L 698.13 521.24
  L 694.36 522.33
  L 691.65 522.79
  L 688.19 523.12
  L 679.00 523.37
  L 657.39 523.44
  L 657.10 523.33
  L 656.98 523.04
  L 656.98 523.04
  L 656.98 523.04
  L 656.98 370.94
  L 656.98 370.94
  L 657.18 370.46
  L 657.67 370.26
  Z"
/>
<path d="
  M 204.45 523.10
  L 204.16 523.39
  L 172.65 523.39
  L 170.23 523.27
  L 167.82 522.92
  L 165.47 522.33
  L 163.18 521.51
  L 160.99 520.47
  L 158.91 519.23
  L 156.96 517.79
  L 155.16 516.16
  L 153.53 514.36
  L 152.08 512.42
  L 150.83 510.34
  L 149.79 508.15
  L 148.98 505.87
  L 148.39 503.52
  L 148.03 501.12
  L 147.91 498.70
  L 147.91 498.70
  L 147.91 498.70
  L 147.91 498.70
  L 147.91 394.80
  L 148.03 392.38
  L 148.39 389.98
  L 148.98 387.63
  L 149.79 385.35
  L 150.83 383.16
  L 152.08 381.08
  L 153.53 379.14
  L 155.16 377.34
  L 156.96 375.71
  L 158.91 374.27
  L 160.99 373.03
  L 163.18 371.99
  L 165.47 371.17
  L 167.82 370.58
  L 170.23 370.23
  L 172.65 370.11
  L 204.16 370.11
  L 204.45 370.40
  L 204.45 523.10
  Z"
/>
<rect x="374.69" y="665.60" width="80.12" height="24.08" rx="0.62"/>
</g>
<g fill="#000000">
<path d="
  M 691.06 343.78
  L 698.66 344.84
  L 702.39 345.63
  L 705.97 346.60
  L 709.39 347.76
  L 712.65 349.10
  L 715.76 350.62
  L 718.71 352.33
  L 721.51 354.23
  L 724.14 356.31
  L 724.14 356.31
  L 728.24 360.23
  L 731.89 364.68
  L 735.10 369.65
  L 737.86 375.15
  L 738.81 377.50
  L 740.37 382.80
  L 741.32 388.62
  L 741.78 395.43
  L 741.89 405.51
  L 741.83 494.99
  L 741.53 499.30
  L 741.04 503.54
  L 740.35 507.68
  L 739.47 511.75
  L 738.41 515.43
  L 737.09 518.95
  L 735.52 522.27
  L 733.72 525.43
  L 731.64 528.51
  L 729.34 531.40
  L 726.82 534.12
  L 724.10 536.65
  L 721.13 539.04
  L 717.99 541.21
  L 714.67 543.17
  L 711.21 544.90
  L 707.63 546.39
  L 703.94 547.63
  L 700.16 548.62
  L 696.32 549.35
  L 692.42 549.82
  L 688.48 550.01
  L 662.14 550.25
  L 646.05 550.08
  L 643.38 549.73
  L 641.05 548.89
  L 639.01 547.62
  L 637.14 545.84
  L 635.57 543.69
  L 634.22 541.06
  L 633.12 537.96
  L 632.31 534.51
  L 631.78 530.68
  L 631.59 526.75
  L 631.50 371.00
  L 631.59 367.16
  L 631.85 363.75
  L 632.31 360.73
  L 632.97 358.01
  L 633.87 355.48
  L 634.95 353.27
  L 636.26 351.29
  L 637.86 349.48
  L 639.85 347.82
  L 642.21 346.40
  L 645.87 345.03
  L 650.27 344.20
  L 655.47 343.86
  L 662.16 343.99
  L 662.23 343.99
  L 662.76 343.72
  L 662.91 343.15
  L 660.33 329.21
  L 657.06 315.50
  L 653.06 301.93
  L 648.42 288.76
  L 643.14 276.03
  L 637.27 263.85
  L 630.87 252.32
  L 623.95 241.46
  L 615.73 230.10
  L 607.07 219.46
  L 602.52 214.34
  L 597.83 209.35
  L 588.13 199.92
  L 582.80 195.20
  L 577.30 190.61
  L 563.46 179.80
  L 559.02 176.74
  L 554.17 173.73
  L 540.56 166.31
  L 536.45 164.14
  L 530.65 161.19
  L 524.77 158.43
  L 518.70 155.81
  L 512.56 153.39
  L 506.33 151.15
  L 500.03 149.10
  L 493.57 147.22
  L 487.05 145.53
  L 480.41 144.02
  L 473.73 142.70
  L 460.24 140.66
  L 446.51 139.39
  L 432.73 138.90
  L 419.29 139.18
  L 406.10 140.21
  L 393.19 142.00
  L 380.53 144.53
  L 373.09 146.38
  L 365.73 148.47
  L 358.45 150.78
  L 351.26 153.31
  L 351.26 153.31
  L 344.44 155.96
  L 337.70 158.82
  L 331.03 161.89
  L 324.44 165.17
  L 317.93 168.66
  L 311.50 172.35
  L 305.15 176.26
  L 298.87 180.38
  L 288.24 188.02
  L 278.18 196.18
  L 268.68 204.85
  L 259.74 214.04
  L 259.74 214.04
  L 259.74 214.04
  L 259.74 214.04
  L 253.82 220.77
  L 248.17 227.76
  L 242.80 234.99
  L 237.71 242.48
  L 230.54 254.12
  L 224.03 266.01
  L 218.18 278.17
  L 212.99 290.57
  L 212.99 290.57
  L 212.99 290.57
  L 212.99 290.57
  L 212.99 290.57
  L 208.89 301.94
  L 205.32 313.52
  L 202.28 325.30
  L 199.77 337.29
  L 198.91 343.17
  L 198.91 343.21
  L 199.10 343.71
  L 199.60 343.92
  L 211.49 343.96
  L 213.95 344.15
  L 216.28 344.64
  L 218.54 345.44
  L 220.64 346.52
  L 223.57 348.75
  L 225.99 351.57
  L 227.85 354.89
  L 229.08 358.64
  L 229.82 363.43
  L 230.06 369.25
  L 230.07 532.00
  L 229.86 534.86
  L 229.22 537.63
  L 228.20 540.26
  L 226.80 542.70
  L 225.07 544.90
  L 223.03 546.80
  L 220.79 548.32
  L 218.30 549.48
  L 216.44 549.98
  L 214.13 550.26
  L 207.48 550.22
  L 206.57 550.18
  L 206.44 550.20
  L 206.16 550.55
  L 205.92 555.76
  L 205.91 560.90
  L 206.15 565.95
  L 206.62 570.92
  L 207.33 575.82
  L 208.27 580.64
  L 209.46 585.37
  L 210.88 590.03
  L 210.88 590.03
  L 210.88 590.03
  L 210.88 590.03
  L 213.44 596.83
  L 216.54 603.45
  L 220.16 609.90
  L 224.31 616.17
  L 230.84 624.93
  L 233.53 628.02
  L 236.30 630.80
  L 237.16 631.59
  L 241.70 635.49
  L 246.30 639.12
  L 251.02 642.51
  L 255.74 645.57
  L 260.47 648.32
  L 265.15 650.72
  L 269.90 652.82
  L 274.54 654.56
  L 280.73 656.45
  L 287.12 657.99
  L 293.86 659.22
  L 300.93 660.12
  L 308.29 660.72
  L 316.28 661.07
  L 325.27 661.18
  L 337.64 661.10
  L 350.22 661.01
  L 350.64 660.86
  L 350.85 660.47
  L 351.56 656.82
  L 352.68 653.53
  L 354.21 650.62
  L 356.14 648.07
  L 356.14 648.07
  L 356.14 648.07
  L 358.32 646.02
  L 360.85 644.29
  L 363.73 642.89
  L 366.97 641.80
  L 371.42 641.19
  L 378.75 640.99
  L 441.01 641.00
  L 443.23 640.99
  L 451.27 641.10
  L 457.05 641.64
  L 461.95 642.76
  L 464.07 643.54
  L 466.06 644.52
  L 468.76 646.23
  L 471.15 648.15
  L 473.23 650.27
  L 475.00 652.60
  L 475.00 652.60
  L 475.00 652.60
  L 475.00 652.60
  L 476.79 655.84
  L 478.08 659.41
  L 478.88 663.30
  L 479.18 667.53
  L 479.28 688.52
  L 479.16 693.65
  L 478.75 697.25
  L 477.93 700.40
  L 476.65 703.20
  L 475.57 704.84
  L 473.92 706.85
  L 472.13 708.62
  L 470.21 710.16
  L 468.16 711.46
  L 468.16 711.46
  L 465.41 712.76
  L 462.45 713.69
  L 459.28 714.25
  L 455.91 714.45
  L 376.59 714.42
  L 373.24 714.25
  L 370.04 713.78
  L 367.01 713.03
  L 364.16 712.00
  L 361.56 710.71
  L 359.18 709.16
  L 357.03 707.35
  L 355.12 705.28
  L 352.93 702.00
  L 351.29 698.24
  L 350.28 694.16
  L 349.89 689.66
  L 349.66 689.13
  L 349.13 688.91
  L 319.86 688.97
  L 310.83 688.89
  L 302.97 688.63
  L 296.25 688.17
  L 290.70 687.53
  L 284.12 686.40
  L 277.66 684.95
  L 271.23 683.18
  L 264.95 681.11
  L 258.76 678.72
  L 252.72 676.04
  L 246.86 673.07
  L 241.17 669.83
  L 235.60 666.28
  L 230.22 662.46
  L 225.06 658.38
  L 220.10 654.06
  L 215.38 649.49
  L 210.88 644.69
  L 206.63 639.66
  L 202.64 634.42
  L 198.50 628.34
  L 194.69 622.02
  L 191.28 615.55
  L 188.22 608.86
  L 185.53 602.00
  L 183.21 594.95
  L 181.29 587.81
  L 179.76 580.50
  L 178.92 574.98
  L 178.18 568.21
  L 177.00 550.95
  L 176.83 550.56
  L 176.44 550.38
  L 167.95 549.62
  L 161.33 548.57
  L 155.38 547.04
  L 149.84 544.93
  L 145.66 542.80
  L 140.94 539.80
  L 136.71 536.45
  L 132.98 532.76
  L 129.74 528.71
  L 129.74 528.71
  L 126.99 524.30
  L 124.73 519.55
  L 122.97 514.44
  L 121.71 508.98
  L 121.16 505.33
  L 120.77 501.28
  L 120.46 492.00
  L 120.52 392.50
  L 120.63 389.39
  L 120.96 386.18
  L 122.25 379.49
  L 123.12 376.46
  L 124.17 373.54
  L 125.45 370.66
  L 126.91 367.90
  L 128.55 365.26
  L 130.36 362.76
  L 132.32 360.39
  L 134.43 358.17
  L 136.72 356.06
  L 139.16 354.10
  L 141.72 352.30
  L 144.40 350.67
  L 147.22 349.18
  L 150.15 347.87
  L 153.16 346.74
  L 156.26 345.79
  L 162.58 344.48
  L 169.10 343.92
  L 169.58 343.73
  L 169.82 343.28
  L 170.97 335.27
  L 172.35 327.30
  L 174.00 319.27
  L 175.89 311.29
  L 178.02 303.33
  L 180.39 295.43
  L 182.98 287.61
  L 185.80 279.86
  L 188.88 272.12
  L 192.17 264.47
  L 195.68 256.93
  L 199.41 249.51
  L 203.34 242.20
  L 207.47 235.02
  L 211.80 227.98
  L 216.32 221.08
  L 222.90 211.86
  L 229.87 203.03
  L 237.23 194.60
  L 244.98 186.56
  L 250.51 181.29
  L 258.58 174.13
  L 266.87 167.29
  L 275.36 160.80
  L 284.06 154.66
  L 292.91 148.89
  L 301.95 143.48
  L 311.17 138.44
  L 320.55 133.76
  L 330.04 129.49
  L 339.69 125.60
  L 349.38 122.13
  L 359.21 119.04
  L 369.15 116.35
  L 379.20 114.06
  L 389.27 112.19
  L 399.44 110.72
  L 410.78 109.58
  L 422.23 108.94
  L 430.33 108.80
  L 438.40 108.90
  L 446.45 109.25
  L 454.46 109.85
  L 462.49 110.70
  L 470.47 111.80
  L 478.41 113.14
  L 486.29 114.72
  L 497.38 117.39
  L 508.34 120.54
  L 519.16 124.17
  L 529.83 128.28
  L 540.29 132.85
  L 550.58 137.88
  L 560.69 143.37
  L 570.59 149.33
  L 576.51 153.19
  L 582.32 157.22
  L 588.10 161.49
  L 593.76 165.92
  L 599.30 170.52
  L 604.72 175.28
  L 610.07 180.25
  L 615.29 185.38
  L 620.41 190.69
  L 625.39 196.13
  L 634.87 207.41
  L 643.78 219.24
  L 652.02 231.48
  L 657.83 241.14
  L 663.11 250.97
  L 667.87 260.97
  L 672.11 271.15
  L 675.41 280.08
  L 678.43 289.08
  L 681.17 298.15
  L 683.63 307.29
  L 683.63 307.29
  L 683.63 307.29
  L 685.74 316.17
  L 687.58 325.11
  L 689.16 334.12
  L 690.48 343.20
  L 690.67 343.59
  L 691.06 343.78
  Z
  M 656.98 370.94
  L 656.98 523.04
  L 656.98 523.04
  L 657.10 523.33
  L 657.39 523.44
  L 679.00 523.37
  L 688.19 523.12
  L 691.65 522.79
  L 694.36 522.33
  L 698.13 521.24
  L 701.51 519.76
  L 704.50 517.89
  L 707.10 515.64
  L 707.10 515.64
  L 707.10 515.64
  L 708.83 513.65
  L 710.33 511.44
  L 711.59 508.99
  L 712.63 506.32
  L 713.37 503.36
  L 713.84 499.83
  L 714.07 495.66
  L 714.10 489.82
  L 714.09 488.00
  L 714.05 402.50
  L 713.96 397.69
  L 713.64 393.51
  L 713.10 389.84
  L 712.31 386.52
  L 711.25 383.54
  L 709.95 380.94
  L 708.31 378.56
  L 706.46 376.57
  L 704.95 375.33
  L 703.26 374.21
  L 701.47 373.28
  L 699.49 372.49
  L 696.38 371.57
  L 693.10 370.91
  L 689.64 370.50
  L 686.01 370.36
  L 657.67 370.26
  L 657.18 370.46
  L 656.98 370.94
  L 656.98 370.94
  Z
  M 204.45 523.10
  L 204.45 370.40
  L 204.45 370.40
  L 204.16 370.11
  L 172.65 370.11
  L 170.23 370.23
  L 167.82 370.58
  L 165.47 371.17
  L 163.18 371.99
  L 160.99 373.03
  L 158.91 374.27
  L 156.96 375.71
  L 155.16 377.34
  L 153.53 379.14
  L 152.08 381.08
  L 150.83 383.16
  L 149.79 385.35
  L 148.98 387.63
  L 148.39 389.98
  L 148.03 392.38
  L 147.91 394.80
  L 147.91 394.80
  L 147.91 498.70
  L 147.91 498.70
  L 148.03 501.12
  L 148.39 503.52
  L 148.98 505.87
  L 149.79 508.15
  L 150.83 510.34
  L 152.08 512.42
  L 153.53 514.36
  L 155.16 516.16
  L 156.96 517.79
  L 158.91 519.23
  L 160.99 520.47
  L 163.18 521.51
  L 165.47 522.33
  L 167.82 522.92
  L 170.23 523.27
  L 172.65 523.39
  L 204.16 523.39
  L 204.45 523.10
  L 204.45 523.10
  Z
  M 454.81 666.22
  L 454.63 665.78
  L 454.19 665.60
  L 375.31 665.60
  L 374.87 665.78
  L 374.69 666.22
  L 374.69 689.06
  L 374.87 689.50
  L 375.31 689.68
  L 454.19 689.68
  L 454.63 689.50
  L 454.81 689.06
  L 454.81 666.22
  Z"
/>
<path d="
  M 561.99 327.72
  L 561.78 328.26
  L 561.95 328.81
  L 564.91 333.42
  L 567.54 338.60
  L 570.03 344.66
  L 573.12 353.45
  L 574.33 356.97
  L 575.05 358.03
  L 576.21 358.56
  L 602.53 362.95
  L 606.91 363.91
  L 610.28 365.18
  L 612.75 366.82
  L 613.67 367.79
  L 614.43 368.90
  L 615.22 370.97
  L 615.47 373.25
  L 615.52 424.49
  L 615.19 427.58
  L 614.73 428.99
  L 614.09 430.23
  L 612.38 432.26
  L 609.98 433.91
  L 606.80 435.22
  L 602.75 436.25
  L 595.05 437.84
  L 583.33 440.14
  L 575.58 441.07
  L 574.66 441.40
  L 574.06 442.16
  L 561.52 472.27
  L 561.43 473.05
  L 561.76 473.75
  L 567.62 480.78
  L 572.31 487.16
  L 576.19 493.34
  L 579.33 499.48
  L 580.14 501.62
  L 580.74 503.96
  L 581.09 506.24
  L 581.16 508.40
  L 580.71 510.36
  L 579.57 512.02
  L 565.31 526.16
  L 549.56 542.06
  L 545.97 545.38
  L 542.78 547.59
  L 539.63 548.95
  L 538.06 549.31
  L 536.44 549.47
  L 534.21 549.31
  L 530.99 548.31
  L 526.82 546.21
  L 500.42 531.55
  L 499.46 531.31
  L 498.50 531.57
  L 492.76 534.62
  L 486.90 537.39
  L 480.54 540.04
  L 474.03 542.37
  L 472.96 543.12
  L 472.46 544.33
  L 470.64 559.54
  L 468.40 573.37
  L 467.59 576.52
  L 466.42 579.28
  L 464.83 581.69
  L 462.92 583.61
  L 460.89 584.98
  L 459.86 585.37
  L 458.46 585.63
  L 454.51 585.72
  L 407.17 585.62
  L 404.96 585.48
  L 402.97 585.09
  L 401.11 584.40
  L 399.46 583.45
  L 397.40 581.59
  L 395.78 579.24
  L 394.55 576.37
  L 393.68 572.89
  L 391.42 559.50
  L 389.08 544.27
  L 388.66 543.29
  L 387.80 542.65
  L 372.49 536.77
  L 368.82 535.21
  L 365.35 533.30
  L 362.29 531.21
  L 361.20 530.84
  L 360.10 531.19
  L 343.29 543.03
  L 339.83 545.24
  L 336.53 547.05
  L 333.47 548.42
  L 330.53 549.39
  L 327.76 549.95
  L 325.20 550.12
  L 322.67 549.87
  L 320.39 549.24
  L 319.57 548.90
  L 318.12 547.98
  L 316.02 546.27
  L 309.88 540.43
  L 283.04 513.71
  L 281.45 511.81
  L 280.41 509.64
  L 280.05 508.03
  L 279.98 506.39
  L 280.18 504.69
  L 280.66 502.80
  L 281.40 500.88
  L 282.42 498.81
  L 285.48 493.98
  L 292.70 483.44
  L 299.63 472.93
  L 300.01 471.68
  L 299.69 470.42
  L 296.23 463.98
  L 293.16 457.21
  L 290.48 450.09
  L 288.19 442.64
  L 287.68 441.84
  L 286.80 441.48
  L 281.61 440.85
  L 276.06 439.90
  L 260.21 436.36
  L 253.86 434.87
  L 251.43 434.01
  L 249.43 432.62
  L 247.94 430.74
  L 246.90 428.31
  L 246.28 425.21
  L 246.02 421.25
  L 245.97 375.48
  L 246.10 373.17
  L 246.49 371.18
  L 247.16 369.40
  L 248.09 367.91
  L 249.75 366.30
  L 252.05 364.98
  L 255.06 363.94
  L 259.06 363.07
  L 285.48 358.60
  L 286.29 358.23
  L 286.80 357.49
  L 289.47 350.41
  L 292.51 343.39
  L 295.91 336.41
  L 299.68 329.49
  L 299.94 328.31
  L 299.49 327.18
  L 295.27 321.79
  L 291.14 315.99
  L 287.11 309.77
  L 283.16 303.15
  L 280.94 298.76
  L 280.33 297.03
  L 280.04 295.63
  L 279.99 293.84
  L 280.17 292.17
  L 280.99 289.45
  L 282.46 286.78
  L 284.59 284.06
  L 288.09 280.42
  L 288.25 280.25
  L 317.40 251.17
  L 319.65 249.42
  L 320.84 248.84
  L 322.02 248.49
  L 323.88 248.34
  L 325.94 248.64
  L 328.31 249.41
  L 331.57 250.85
  L 331.93 251.02
  L 339.52 254.68
  L 346.77 258.50
  L 353.68 262.46
  L 360.25 266.57
  L 360.93 266.63
  L 387.54 255.03
  L 388.34 254.40
  L 388.72 253.44
  L 391.91 229.42
  L 392.89 224.12
  L 394.12 220.40
  L 395.46 218.09
  L 397.08 216.26
  L 399.62 214.48
  L 402.73 213.27
  L 406.55 212.57
  L 411.25 212.35
  L 454.00 212.39
  L 456.70 212.57
  L 459.03 213.04
  L 461.10 213.85
  L 462.84 214.96
  L 464.63 216.78
  L 466.11 219.24
  L 467.27 222.37
  L 468.16 226.32
  L 472.81 254.75
  L 473.36 255.86
  L 474.45 256.45
  L 480.00 257.73
  L 485.43 259.39
  L 485.43 259.39
  L 485.43 259.39
  L 489.46 260.91
  L 493.42 262.65
  L 497.30 264.61
  L 501.11 266.79
  L 501.82 266.95
  L 502.48 266.67
  L 506.72 263.37
  L 511.62 260.17
  L 517.39 256.92
  L 525.58 252.74
  L 526.77 252.15
  L 533.71 248.96
  L 536.38 248.33
  L 538.78 248.37
  L 540.88 248.95
  L 543.03 250.11
  L 545.33 251.91
  L 548.16 254.64
  L 573.65 280.15
  L 574.23 280.72
  L 578.35 285.06
  L 579.81 286.94
  L 580.95 288.73
  L 581.77 290.47
  L 582.22 292.04
  L 582.35 293.53
  L 582.13 294.99
  L 582.08 295.17
  L 580.33 299.36
  L 577.12 305.13
  L 575.50 307.94
  L 572.35 313.34
  L 569.04 318.44
  L 565.59 323.23
  L 561.99 327.72
  Z
  M 306.80 504.91
  L 326.40 524.51
  L 327.30 524.94
  L 328.27 524.69
  L 339.00 517.62
  L 349.22 511.22
  L 349.74 510.90
  L 354.31 508.28
  L 357.81 506.85
  L 359.27 506.52
  L 360.68 506.42
  L 361.90 506.57
  L 363.04 506.99
  L 371.65 510.96
  L 383.67 515.73
  L 395.34 520.36
  L 403.61 524.16
  L 406.58 526.08
  L 407.80 527.23
  L 408.85 528.51
  L 408.85 528.51
  L 408.85 528.51
  L 408.85 528.51
  L 410.26 531.03
  L 411.14 533.92
  L 413.31 546.72
  L 415.11 561.73
  L 415.26 562.02
  L 415.57 562.14
  L 446.42 562.14
  L 446.82 561.99
  L 447.01 561.61
  L 448.89 543.13
  L 449.79 537.56
  L 450.89 533.50
  L 452.41 530.10
  L 454.42 527.25
  L 456.91 524.96
  L 459.91 523.11
  L 467.37 519.56
  L 481.85 513.78
  L 496.64 507.08
  L 498.45 506.39
  L 500.30 506.05
  L 500.30 506.05
  L 500.30 506.05
  L 501.98 506.05
  L 503.69 506.32
  L 505.42 506.88
  L 507.18 507.72
  L 520.30 515.27
  L 533.71 523.55
  L 534.75 523.79
  L 535.72 523.33
  L 554.86 504.20
  L 555.10 503.68
  L 554.93 503.13
  L 546.62 491.80
  L 537.48 478.74
  L 536.07 476.04
  L 535.68 474.68
  L 535.51 473.30
  L 535.51 473.30
  L 535.51 473.30
  L 535.56 471.76
  L 535.88 470.21
  L 536.47 468.65
  L 537.31 467.07
  L 541.39 459.99
  L 545.13 452.55
  L 548.52 444.76
  L 551.58 436.62
  L 555.83 427.20
  L 557.22 424.95
  L 559.25 422.94
  L 561.82 421.33
  L 564.99 420.05
  L 569.34 418.90
  L 581.26 416.45
  L 591.25 414.96
  L 591.56 414.80
  L 591.69 414.47
  L 591.69 385.44
  L 591.40 384.65
  L 590.66 384.24
  L 577.67 381.98
  L 565.99 379.28
  L 563.57 378.50
  L 561.38 377.49
  L 559.41 376.24
  L 557.66 374.77
  L 557.66 374.77
  L 556.24 373.21
  L 555.02 371.44
  L 553.98 369.49
  L 553.13 367.33
  L 550.12 358.87
  L 546.77 350.48
  L 543.09 342.18
  L 539.07 333.96
  L 537.61 330.61
  L 536.77 327.46
  L 536.63 324.83
  L 537.17 322.67
  L 539.48 318.42
  L 542.53 314.03
  L 555.53 296.79
  L 555.76 296.04
  L 555.44 295.32
  L 535.82 274.99
  L 535.12 274.63
  L 534.35 274.78
  L 506.59 290.55
  L 503.82 291.67
  L 502.44 291.92
  L 501.09 291.95
  L 501.09 291.95
  L 501.09 291.95
  L 499.02 291.59
  L 496.99 290.74
  L 489.68 286.98
  L 482.45 283.71
  L 475.29 280.91
  L 468.20 278.59
  L 465.08 277.33
  L 458.98 274.52
  L 457.08 273.49
  L 455.39 272.30
  L 453.93 270.96
  L 452.69 269.46
  L 452.69 269.46
  L 451.68 267.83
  L 450.89 266.04
  L 450.31 264.10
  L 449.94 262.01
  L 446.90 236.19
  L 446.72 235.83
  L 446.34 235.68
  L 415.59 235.68
  L 415.21 235.82
  L 415.01 236.18
  L 413.95 244.19
  L 412.21 256.36
  L 411.26 261.04
  L 410.13 265.51
  L 408.85 268.78
  L 407.00 271.57
  L 405.43 273.18
  L 403.59 274.56
  L 401.48 275.73
  L 399.12 276.67
  L 389.71 280.06
  L 389.71 280.06
  L 379.84 284.20
  L 370.17 288.85
  L 366.97 290.39
  L 364.38 291.36
  L 362.17 291.86
  L 359.99 291.96
  L 358.34 291.76
  L 356.64 291.30
  L 354.85 290.57
  L 352.95 289.54
  L 328.20 274.91
  L 327.74 274.82
  L 327.32 275.02
  L 306.52 295.82
  L 306.18 296.31
  L 306.05 296.89
  L 306.13 297.48
  L 306.42 298.00
  L 314.57 308.19
  L 321.85 317.85
  L 323.26 320.06
  L 324.27 322.27
  L 324.89 324.48
  L 325.12 326.71
  L 325.12 326.71
  L 325.02 328.47
  L 324.67 330.24
  L 324.08 332.01
  L 323.24 333.79
  L 320.63 338.54
  L 315.57 348.07
  L 313.94 351.68
  L 312.58 355.21
  L 312.31 355.98
  L 311.14 359.60
  L 309.17 365.51
  L 307.46 369.55
  L 305.55 372.85
  L 303.36 375.45
  L 301.47 376.84
  L 298.87 378.07
  L 295.53 379.17
  L 291.01 380.25
  L 280.59 382.39
  L 270.55 384.23
  L 270.13 384.48
  L 269.96 384.94
  L 269.96 413.99
  L 270.20 414.65
  L 270.81 415.00
  L 280.87 416.74
  L 290.62 418.66
  L 295.34 419.82
  L 299.01 421.15
  L 301.96 422.78
  L 304.36 424.81
  L 306.39 427.46
  L 307.91 430.62
  L 315.47 450.77
  L 317.42 455.35
  L 320.37 461.40
  L 323.93 468.88
  L 324.49 470.53
  L 324.79 472.15
  L 324.79 474.46
  L 324.29 476.91
  L 323.27 479.55
  L 321.69 482.46
  L 318.15 488.12
  L 314.48 493.59
  L 310.68 498.87
  L 306.75 503.96
  L 306.59 504.45
  L 306.80 504.91
  Z"
/>
<path d="
  M 510.4514 370.5121
  L 511.7615 374.4524
  L 512.8765 378.4523
  L 513.7936 382.5023
  L 514.5105 386.5924
  L 515.0257 390.7130
  L 515.3378 394.8541
  L 515.4461 399.0056
  L 515.3504 403.1577
  L 515.0508 407.3002
  L 514.5481 411.4232
  L 513.8435 415.5168
  L 512.9387 419.5712
  L 511.8359 423.5764
  L 510.5377 427.5230
  L 509.0473 431.4014
  L 507.3682 435.2022
  L 505.5045 438.9163
  L 503.4607 442.5347
  L 501.2417 446.0488
  L 498.8529 449.4501
  L 496.3000 452.7303
  L 493.5891 455.8815
  L 490.7269 458.8963
  L 487.7201 461.7672
  L 484.5760 464.4875
  L 481.3023 467.0505
  L 477.9067 469.4500
  L 474.3975 471.6804
  L 470.7832 473.7361
  L 467.0723 475.6123
  L 463.2740 477.3045
  L 459.3972 478.8085
  L 455.4515 480.1208
  L 451.4462 481.2381
  L 447.3910 482.1578
  L 443.2957 482.8777
  L 439.1701 483.3961
  L 435.0243 483.7116
  L 430.8681 483.8235
  L 426.7116 483.7316
  L 422.5648 483.4361
  L 418.4377 482.9377
  L 414.3403 482.2376
  L 410.2823 481.3374
  L 406.2737 480.2394
  L 402.3239 478.9462
  L 398.4427 477.4609
  L 394.6392 475.7871
  L 390.9228 473.9288
  L 387.3022 471.8905
  L 383.7863 469.6771
  L 380.3835 467.2940
  L 377.1020 464.7468
  L 373.9497 462.0417
  L 370.9343 459.1853
  L 368.0629 456.1844
  L 365.3425 453.0462
  L 362.7797 449.7784
  L 360.3806 446.3887
  L 358.1510 442.8854
  L 356.0962 439.2768
  L 354.2213 435.5717
  L 352.5307 431.7790
  L 351.0286 427.9079
  L 351.0286 427.9079
  L 349.7185 423.9676
  L 348.6035 419.9677
  L 347.6864 415.9177
  L 346.9695 411.8276
  L 346.4543 407.7070
  L 346.1422 403.5659
  L 346.0339 399.4144
  L 346.1296 395.2623
  L 346.4292 391.1198
  L 346.9319 386.9968
  L 347.6365 382.9032
  L 348.5413 378.8488
  L 349.6441 374.8436
  L 350.9423 370.8970
  L 352.4327 367.0186
  L 354.1118 363.2178
  L 355.9755 359.5037
  L 358.0193 355.8853
  L 360.2383 352.3712
  L 362.6271 348.9699
  L 365.1800 345.6897
  L 367.8909 342.5385
  L 370.7531 339.5237
  L 373.7599 336.6528
  L 376.9040 333.9325
  L 380.1777 331.3695
  L 383.5733 328.9700
  L 387.0825 326.7396
  L 390.6968 324.6839
  L 394.4077 322.8077
  L 398.2060 321.1155
  L 402.0828 319.6115
  L 406.0285 318.2992
  L 410.0338 317.1819
  L 414.0890 316.2622
  L 418.1843 315.5423
  L 422.3099 315.0239
  L 426.4557 314.7084
  L 430.6119 314.5965
  L 434.7684 314.6884
  L 438.9152 314.9839
  L 443.0423 315.4823
  L 447.1397 316.1824
  L 451.1977 317.0826
  L 455.2063 318.1806
  L 459.1561 319.4738
  L 463.0373 320.9591
  L 466.8408 322.6329
  L 470.5572 324.4912
  L 474.1778 326.5295
  L 477.6937 328.7429
  L 481.0965 331.1260
  L 484.3780 333.6732
  L 487.5303 336.3783
  L 490.5457 339.2347
  L 493.4171 342.2356
  L 496.1375 345.3738
  L 498.7003 348.6416
  L 501.0994 352.0313
  L 503.3290 355.5346
  L 505.3838 359.1432
  L 507.2587 362.8483
  L 508.9493 366.6410
  L 510.4514 370.5121
  Z
  M 369.9501 399.1338
  L 370.2328 405.0192
  L 371.0989 410.8490
  L 372.5399 416.5670
  L 374.5419 422.1182
  L 377.0858 427.4490
  L 380.1469 432.5081
  L 383.6959 437.2468
  L 387.6985 441.6195
  L 392.1162 445.5841
  L 396.9065 449.1024
  L 402.0231 452.1404
  L 407.4169 454.6690
  L 413.0359 456.6638
  L 418.8260 458.1055
  L 424.7314 458.9804
  L 430.6952 459.2799
  L 436.6600 459.0012
  L 442.5685 458.1470
  L 448.3635 456.7254
  L 453.9894 454.7503
  L 459.3920 452.2405
  L 464.5193 449.2204
  L 469.3218 445.7189
  L 473.7533 441.7697
  L 477.7711 437.4110
  L 481.3366 432.6847
  L 484.4154 427.6363
  L 486.9779 422.3144
  L 488.9993 416.7703
  L 490.4602 411.0574
  L 491.3466 405.2306
  L 491.6499 399.3462
  L 491.6499 399.3462
  L 491.3672 393.4608
  L 490.5011 387.6310
  L 489.0601 381.9130
  L 487.0581 376.3618
  L 484.5142 371.0310
  L 481.4531 365.9719
  L 477.9041 361.2332
  L 473.9015 356.8605
  L 469.4838 352.8959
  L 464.6935 349.3776
  L 459.5769 346.3396
  L 454.1831 343.8110
  L 448.5641 341.8162
  L 442.7740 340.3745
  L 436.8686 339.4996
  L 430.9048 339.2001
  L 424.9400 339.4788
  L 419.0315 340.3330
  L 413.2365 341.7546
  L 407.6106 343.7297
  L 402.2080 346.2395
  L 397.0807 349.2596
  L 392.2782 352.7611
  L 387.8467 356.7103
  L 383.8289 361.0690
  L 380.2634 365.7953
  L 377.1846 370.8437
  L 374.6221 376.1656
  L 372.6007 381.7097
  L 371.1398 387.4226
  L 370.2534 393.2494
  L 369.9501 399.1338
  Z"
/>
</g>
<path fill="#ffffff" d="
  M 862.00 410.14
  L 862.00 443.63
  L 860.93 454.34
  L 860.92 455.00
  L 860.87 460.41
  L 860.16 467.55
  L 859.83 470.76
  L 858.40 484.32
  L 856.67 497.67
  L 854.61 510.81
  L 852.25 523.75
  L 850.43 532.47
  L 848.41 541.14
  L 846.19 549.74
  L 843.76 558.28
  L 843.76 558.28
  L 843.76 558.28
  L 843.76 558.28
  L 840.90 567.52
  L 837.80 576.68
  L 834.46 585.77
  L 830.88 594.79
  L 827.06 603.74
  L 823.01 612.62
  L 818.72 621.43
  L 814.19 630.17
  L 807.92 641.54
  L 801.41 652.61
  L 794.65 663.40
  L 787.64 673.89
  L 780.39 684.09
  L 772.90 694.00
  L 765.16 703.61
  L 757.18 712.94
  L 750.75 720.25
  L 747.51 723.82
  L 742.27 729.22
  L 725.80 745.47
  L 723.24 747.62
  L 720.73 749.72
  L 716.47 753.64
  L 711.73 757.63
  L 703.88 764.00
  L 696.92 769.64
  L 689.80 775.13
  L 682.53 780.46
  L 675.10 785.65
  L 667.52 790.68
  L 659.79 795.57
  L 651.91 800.30
  L 643.87 804.88
  L 633.59 810.42
  L 623.23 815.66
  L 612.77 820.62
  L 602.23 825.28
  L 591.60 829.66
  L 580.88 833.74
  L 570.06 837.54
  L 559.16 841.04
  L 559.16 841.04
  L 559.16 841.04
  L 559.16 841.04
  L 559.16 841.04
  L 541.34 846.10
  L 523.29 850.39
  L 505.00 853.93
  L 486.48 856.70
  L 483.85 856.90
  L 481.41 857.08
  L 479.55 857.47
  L 476.94 857.89
  L 473.28 857.92
  L 472.12 858.03
  L 469.24 858.55
  L 466.24 858.87
  L 463.14 858.98
  L 459.92 858.89
  L 459.42 858.91
  L 450.03 860.00
  L 408.35 860.00
  L 403.63 859.40
  L 398.91 859.02
  L 398.91 859.02
  L 394.98 858.87
  L 391.69 858.68
  L 389.08 858.25
  L 386.97 857.90
  L 385.11 857.90
  L 382.92 857.89
  L 379.94 857.43
  L 375.78 856.90
  L 373.55 856.74
  L 371.78 856.37
  L 368.49 855.90
  L 366.45 855.70
  L 348.70 852.68
  L 348.70 852.68
  L 337.47 850.36
  L 326.30 847.71
  L 315.19 844.75
  L 304.15 841.47
  L 293.16 837.87
  L 282.24 833.95
  L 271.37 829.72
  L 260.57 825.17
  L 248.90 819.88
  L 237.44 814.32
  L 226.18 808.47
  L 215.12 802.34
  L 204.28 795.92
  L 193.63 789.23
  L 183.20 782.25
  L 172.97 775.00
  L 172.97 775.00
  L 160.00 765.16
  L 149.77 756.66
  L 139.42 747.55
  L 131.07 739.52
  L 120.38 728.88
  L 110.65 718.73
  L 102.63 709.63
  L 96.42 702.03
  L 90.39 694.33
  L 84.53 686.53
  L 78.85 678.63
  L 73.35 670.62
  L 68.02 662.51
  L 62.87 654.29
  L 57.90 645.97
  L 57.90 645.97
  L 57.90 645.97
  L 57.90 645.97
  L 55.04 641.00
  L 49.60 631.16
  L 44.53 621.47
  L 40.10 612.48
  L 35.93 603.42
  L 32.01 594.30
  L 28.35 585.12
  L 24.95 575.87
  L 21.80 566.56
  L 18.90 557.19
  L 16.26 547.76
  L 12.44 532.14
  L 9.14 515.98
  L 6.35 499.29
  L 4.07 482.06
  L 3.37 477.31
  L 3.08 474.88
  L 3.07 472.47
  L 2.90 470.97
  L 2.44 468.90
  L 2.16 466.58
  L 2.09 461.21
  L 1.90 459.37
  L 1.30 455.51
  L 1.10 450.00
  L 1.00 445.42
  L 0.69 440.55
  L 0.29 433.88
  L 0.16 426.73
  L 0.28 419.10
  L 0.67 411.00
  L 1.08 400.50
  L 1.30 397.06
  L 1.85 394.24
  L 2.04 393.01
  L 2.08 390.57
  L 2.33 385.85
  L 2.66 384.07
  L 3.07 380.36
  L 3.23 378.12
  L 3.57 376.37
  L 4.17 372.53
  L 6.52 358.03
  L 10.10 339.11
  L 13.26 324.74
  L 17.14 309.88
  L 21.72 294.54
  L 27.01 278.73
  L 28.08 275.75
  L 33.17 262.69
  L 38.25 250.73
  L 38.88 249.82
  L 39.01 249.64
  L 39.07 248.85
  L 39.08 248.52
  L 39.55 248.09
  L 39.98 247.72
  L 40.03 247.20
  L 40.12 246.51
  L 51.02 224.50
  L 51.64 223.95
  L 52.00 223.68
  L 52.03 223.20
  L 52.09 222.75
  L 57.61 213.08
  L 62.71 204.28
  L 68.02 195.66
  L 73.54 187.22
  L 79.26 178.97
  L 85.19 170.91
  L 91.33 163.03
  L 97.68 155.34
  L 104.23 147.84
  L 104.23 147.84
  L 104.23 147.84
  L 107.01 144.77
  L 117.33 134.19
  L 136.72 115.02
  L 142.14 110.09
  L 147.87 104.83
  L 148.60 104.25
  L 152.99 100.77
  L 164.50 91.43
  L 176.21 82.54
  L 188.12 74.11
  L 200.25 66.13
  L 212.58 58.61
  L 225.12 51.53
  L 237.86 44.91
  L 250.81 38.75
  L 250.81 38.75
  L 250.81 38.75
  L 264.22 32.93
  L 277.84 27.58
  L 291.68 22.70
  L 305.73 18.30
  L 320.00 14.36
  L 334.48 10.90
  L 349.17 7.90
  L 364.08 5.38
  L 374.39 4.02
  L 378.63 3.34
  L 380.97 3.05
  L 383.41 3.06
  L 385.10 2.86
  L 385.87 2.64
  L 389.05 2.15
  L 394.34 2.06
  L 395.86 2.06
  L 397.23 1.90
  L 399.86 1.42
  L 402.80 1.12
  L 410.67 0.99
  L 416.19 0.91
  L 423.13 0.53
  L 430.22 0.40
  L 437.45 0.52
  L 444.82 0.89
  L 451.33 1.01
  L 459.84 1.20
  L 463.06 1.51
  L 465.99 1.98
  L 467.74 2.10
  L 472.21 2.17
  L 474.17 2.46
  L 475.94 2.92
  L 477.35 3.10
  L 480.83 3.15
  L 483.95 3.72
  L 485.01 3.90
  L 493.98 5.10
  L 505.74 6.93
  L 517.39 9.07
  L 528.93 11.50
  L 540.35 14.22
  L 551.67 17.25
  L 562.87 20.58
  L 573.96 24.20
  L 584.94 28.12
  L 584.94 28.12
  L 584.94 28.12
  L 595.65 32.27
  L 606.24 36.71
  L 616.73 41.44
  L 627.10 46.46
  L 637.37 51.76
  L 647.54 57.36
  L 657.59 63.25
  L 667.54 69.42
  L 675.80 74.83
  L 683.88 80.41
  L 691.79 86.16
  L 699.52 92.09
  L 707.08 98.17
  L 714.47 104.43
  L 721.69 110.86
  L 728.73 117.46
  L 739.54 128.12
  L 754.60 143.39
  L 756.86 145.91
  L 767.11 157.93
  L 775.59 168.68
  L 784.55 181.08
  L 784.55 181.08
  L 793.29 194.15
  L 801.56 207.56
  L 809.34 221.29
  L 816.65 235.35
  L 823.48 249.75
  L 829.84 264.48
  L 835.72 279.54
  L 841.12 294.93
  L 843.68 303.02
  L 846.01 311.15
  L 848.11 319.33
  L 849.98 327.54
  L 853.32 343.89
  L 856.08 358.85
  L 858.26 372.40
  L 859.85 384.55
  L 859.96 387.30
  L 860.05 388.67
  L 860.70 392.07
  L 860.90 395.95
  L 861.03 399.76
  L 861.53 405.14
  L 862.00 410.14
  Z
  M 833.62 414.99
  L 832.82 403.29
  L 831.71 391.65
  L 830.27 380.07
  L 828.52 368.57
  L 826.45 357.07
  L 824.06 345.67
  L 821.37 334.35
  L 818.37 323.13
  L 815.04 311.96
  L 811.41 300.90
  L 807.48 289.95
  L 803.25 279.14
  L 798.72 268.46
  L 793.90 257.92
  L 788.79 247.52
  L 783.39 237.28
  L 777.73 227.24
  L 771.79 217.37
  L 765.57 207.66
  L 759.08 198.14
  L 752.36 188.85
  L 745.37 179.74
  L 738.11 170.84
  L 730.60 162.14
  L 722.88 153.70
  L 714.90 145.47
  L 706.75 137.53
  L 698.36 129.81
  L 689.74 122.33
  L 680.89 115.09
  L 671.88 108.15
  L 662.65 101.44
  L 655.10 96.26
  L 647.42 91.25
  L 639.68 86.45
  L 631.80 81.81
  L 619.03 74.81
  L 606.01 68.31
  L 606.01 68.31
  L 606.01 68.31
  L 593.84 62.77
  L 581.46 57.66
  L 568.89 52.98
  L 556.11 48.72
  L 546.10 45.70
  L 536.06 42.94
  L 525.99 40.42
  L 515.90 38.16
  L 505.78 36.14
  L 495.63 34.38
  L 485.46 32.86
  L 475.26 31.60
  L 460.03 30.30
  L 443.36 29.61
  L 425.32 29.54
  L 406.00 30.10
  L 392.03 30.99
  L 377.94 32.46
  L 363.74 34.51
  L 349.41 37.13
  L 334.97 40.33
  L 320.40 44.10
  L 305.72 48.45
  L 290.92 53.38
  L 279.64 57.64
  L 267.88 62.65
  L 251.73 70.32
  L 236.02 78.64
  L 220.75 87.59
  L 205.91 97.19
  L 205.91 97.19
  L 205.91 97.19
  L 205.91 97.19
  L 205.91 97.19
  L 194.73 105.06
  L 183.80 113.32
  L 173.14 121.96
  L 162.74 130.99
  L 151.64 141.36
  L 140.05 153.09
  L 128.89 165.40
  L 118.27 178.14
  L 108.07 191.47
  L 98.35 205.30
  L 89.03 219.75
  L 80.21 234.68
  L 71.80 250.22
  L 65.00 264.04
  L 58.90 277.91
  L 53.48 291.81
  L 48.76 305.76
  L 44.38 320.55
  L 40.53 335.23
  L 37.23 349.80
  L 34.47 364.25
  L 32.54 376.59
  L 31.03 388.94
  L 29.92 401.31
  L 29.23 413.70
  L 29.23 413.70
  L 28.96 424.92
  L 29.02 436.15
  L 29.42 447.40
  L 30.15 458.66
  L 31.55 472.89
  L 33.45 487.07
  L 35.88 501.29
  L 38.81 515.43
  L 42.24 529.48
  L 46.16 543.41
  L 50.57 557.20
  L 55.46 570.84
  L 60.81 584.28
  L 66.63 597.54
  L 72.92 610.58
  L 79.65 623.40
  L 86.81 635.93
  L 94.41 648.20
  L 102.38 660.10
  L 110.77 671.72
  L 118.94 682.24
  L 127.44 692.44
  L 136.27 702.32
  L 145.41 711.87
  L 145.41 711.87
  L 145.41 711.87
  L 156.68 722.78
  L 168.40 733.24
  L 180.58 743.25
  L 193.22 752.80
  L 205.72 761.55
  L 218.41 769.81
  L 231.27 777.56
  L 244.32 784.82
  L 257.55 791.57
  L 270.95 797.83
  L 284.54 803.59
  L 298.31 808.84
  L 298.31 808.84
  L 298.31 808.84
  L 298.31 808.84
  L 307.38 812.00
  L 316.53 814.95
  L 327.52 818.17
  L 338.59 821.05
  L 338.59 821.05
  L 338.59 821.05
  L 350.45 823.75
  L 362.40 826.07
  L 374.45 828.01
  L 386.59 829.58
  L 398.82 830.77
  L 411.14 831.58
  L 423.55 832.01
  L 436.06 832.06
  L 446.50 831.55
  L 454.75 831.10
  L 460.94 830.79
  L 468.74 830.08
  L 482.92 828.36
  L 496.92 826.21
  L 510.75 823.61
  L 524.41 820.57
  L 537.89 817.08
  L 551.20 813.16
  L 564.34 808.79
  L 577.31 803.98
  L 577.31 803.98
  L 587.58 799.81
  L 595.88 796.20
  L 604.09 792.40
  L 612.20 788.43
  L 620.21 784.28
  L 628.17 779.94
  L 636.02 775.43
  L 643.76 770.74
  L 651.38 765.89
  L 658.90 760.87
  L 666.30 755.68
  L 673.58 750.34
  L 680.73 744.84
  L 687.76 739.18
  L 694.66 733.37
  L 701.42 727.40
  L 708.05 721.29
  L 714.53 715.04
  L 720.86 708.65
  L 727.05 702.12
  L 733.09 695.44
  L 738.95 688.67
  L 744.66 681.76
  L 750.21 674.73
  L 755.61 667.56
  L 760.80 660.33
  L 765.83 652.97
  L 770.70 645.49
  L 775.40 637.90
  L 779.90 630.25
  L 784.23 622.48
  L 788.39 614.60
  L 792.37 606.62
  L 797.09 596.55
  L 801.52 586.42
  L 805.67 576.22
  L 809.54 565.94
  L 813.13 555.60
  L 816.43 545.19
  L 819.45 534.71
  L 822.19 524.16
  L 822.19 524.16
  L 822.19 524.16
  L 822.19 524.16
  L 824.61 513.74
  L 826.75 503.27
  L 828.62 492.72
  L 830.21 482.11
  L 831.54 471.43
  L 832.59 460.69
  L 833.38 449.88
  L 833.89 439.00
  L 834.02 427.21
  L 833.62 414.99
  Z"
/>
</svg>
