<?xml version="1.0" encoding="UTF-8" standalone="no"?>
<!DOCTYPE svg PUBLIC "-//W3C//DTD SVG 1.1//EN" "http://www.w3.org/Graphics/SVG/1.1/DTD/svg11.dtd">
<svg xmlns="http://www.w3.org/2000/svg" version="1.1" viewBox="0.00 0.00 1024.00 1024.00" width="1024.00" height="1024.00">
<g stroke-width="2.00" fill="none" stroke-linecap="butt">
<path stroke="#808080" vector-effect="non-scaling-stroke" d="
  M 705.17 366.27
  L 705.26 365.93
  L 705.17 365.77
  L 688.88 349.49
  L 688.78 349.30
  L 688.88 348.99
  L 736.37 301.50
  L 736.47 301.25
  L 736.37 301.00
  L 721.18 285.82
  L 720.93 285.72
  L 720.68 285.82
  L 588.79 417.71
  L 588.70 417.87
  L 588.79 418.21
  L 636.29 466.21
  L 636.53 466.32
  L 636.79 466.22
  L 636.80 466.21
  L 650.99 452.02
  L 651.04 451.57
  L 651.00 451.53
  L 636.45 435.47
  L 636.36 435.29
  L 636.46 434.98
  L 705.17 366.27"
/>
<path stroke="#808080" vector-effect="non-scaling-stroke" d="
  M 398.07 335.41
  L 397.33 318.39
  L 397.47 318.03
  L 397.82 317.87
  L 397.83 317.87
  L 464.88 317.87
  L 464.88 317.87
  L 465.20 318.20
  L 464.56 335.54
  L 464.70 335.92
  L 465.08 336.09
  L 465.08 336.09
  L 465.09 336.09
  L 489.77 336.09
  L 490.02 336.19
  L 490.12 336.43
  L 490.12 363.33
  L 490.26 363.68
  L 490.60 363.82
  L 518.69 363.79
  L 521.02 363.87
  L 523.09 364.17
  L 524.83 364.67
  L 526.41 365.42
  L 528.48 367.04
  L 530.34 369.36
  L 530.91 370.54
  L 531.32 372.11
  L 531.65 376.43
  L 531.64 404.95
  L 531.64 404.95
  L 531.44 405.42
  L 530.96 405.62
  L 526.41 405.62
  L 526.01 405.79
  L 525.84 406.19
  L 525.84 433.87
  L 525.87 434.01
  L 526.14 434.19
  L 526.43 434.06
  L 529.79 429.71
  L 538.44 419.34
  L 551.47 404.93
  L 554.08 402.08
  L 555.35 400.52
  L 557.08 397.47
  L 557.29 396.47
  L 557.33 317.27
  L 557.08 311.91
  L 556.77 309.90
  L 556.34 308.33
  L 555.22 305.81
  L 553.81 303.47
  L 552.07 301.26
  L 550.07 299.29
  L 547.88 297.62
  L 545.50 296.23
  L 542.95 295.14
  L 540.26 294.38
  L 535.99 294.05
  L 527.20 293.94
  L 326.75 293.95
  L 323.48 294.21
  L 320.33 294.98
  L 317.27 296.24
  L 314.43 297.95
  L 311.84 300.09
  L 309.60 302.60
  L 307.81 305.33
  L 306.45 308.32
  L 305.96 310.28
  L 305.61 313.10
  L 305.33 321.30
  L 305.32 482.11
  L 305.51 487.85
  L 306.16 491.58
  L 307.01 493.81
  L 308.09 495.88
  L 309.68 498.20
  L 311.55 500.26
  L 313.75 502.12
  L 316.18 503.68
  L 318.81 504.91
  L 321.59 505.82
  L 324.50 506.37
  L 327.50 506.56
  L 477.01 506.56
  L 477.71 506.39
  L 478.25 505.93
  L 499.15 477.13
  L 499.20 476.83
  L 498.98 476.62
  L 498.88 476.60
  L 494.64 476.60
  L 494.10 476.38
  L 493.87 475.84
  L 493.87 421.52
  L 493.58 421.23
  L 485.46 421.23
  L 485.17 421.52
  L 485.17 475.92
  L 484.99 476.36
  L 484.55 476.54
  L 474.51 476.54
  L 474.08 476.36
  L 473.90 475.93
  L 473.90 421.52
  L 473.90 421.52
  L 473.60 421.23
  L 465.91 421.23
  L 465.63 421.50
  L 465.63 476.02
  L 465.48 476.38
  L 465.12 476.53
  L 455.33 476.53
  L 454.85 476.33
  L 454.65 475.85
  L 454.65 421.52
  L 454.35 421.21
  L 454.35 421.21
  L 446.11 421.21
  L 445.91 421.29
  L 445.83 421.49
  L 445.83 475.96
  L 445.72 476.29
  L 445.26 476.53
  L 435.07 476.53
  L 435.07 476.53
  L 434.76 476.40
  L 434.63 476.08
  L 434.63 421.49
  L 434.38 421.21
  L 434.35 421.21
  L 426.45 421.21
  L 426.12 421.54
  L 426.12 475.68
  L 425.87 476.29
  L 425.26 476.54
  L 415.74 476.54
  L 415.36 476.38
  L 415.20 476.01
  L 415.20 476.01
  L 415.20 421.51
  L 414.92 421.22
  L 407.38 421.22
  L 407.06 421.54
  L 407.06 475.96
  L 406.95 476.29
  L 406.49 476.53
  L 396.12 476.53
  L 395.77 476.38
  L 395.62 476.03
  L 395.62 421.50
  L 395.33 421.20
  L 387.44 421.20
  L 387.43 421.20
  L 387.12 421.52
  L 387.12 475.82
  L 386.91 476.33
  L 386.41 476.54
  L 386.41 476.54
  L 376.90 476.54
  L 376.90 476.54
  L 376.41 476.33
  L 376.21 475.84
  L 376.21 421.55
  L 376.21 421.55
  L 376.10 421.30
  L 375.85 421.20
  L 367.59 421.20
  L 367.31 421.32
  L 367.19 421.60
  L 367.19 476.24
  L 367.10 476.46
  L 366.88 476.55
  L 343.66 476.58
  L 341.16 476.55
  L 338.89 476.23
  L 336.93 475.63
  L 335.15 474.74
  L 332.98 472.98
  L 331.12 470.58
  L 330.54 469.33
  L 330.14 467.69
  L 329.82 463.22
  L 329.85 437.05
  L 330.04 436.58
  L 330.51 436.38
  L 330.51 436.38
  L 335.12 436.38
  L 335.52 436.22
  L 335.69 435.82
  L 335.69 406.17
  L 335.69 406.15
  L 335.52 405.78
  L 335.15 405.63
  L 330.50 405.63
  L 330.50 405.63
  L 330.02 405.43
  L 329.83 404.95
  L 329.82 376.90
  L 329.93 374.31
  L 330.27 372.16
  L 330.87 370.26
  L 331.76 368.55
  L 333.25 366.73
  L 335.27 365.13
  L 336.50 364.53
  L 338.10 364.11
  L 340.07 363.86
  L 342.42 363.79
  L 370.67 363.80
  L 371.01 363.66
  L 371.15 363.32
  L 371.15 336.75
  L 371.27 336.37
  L 371.81 336.09
  L 397.41 336.09
  L 397.88 335.89
  L 398.07 335.42
  L 398.07 335.42
  L 398.07 335.41"
/>
<path stroke="#808080" vector-effect="non-scaling-stroke" d="
  M 744.1141 308.2659
  L 743.7538 308.1159
  L 743.3929 308.2646
  L 702.1108 349.4028
  L 701.9608 349.7632
  L 702.1096 350.1240
  L 711.7659 359.8141
  L 712.1262 359.9641
  L 712.4871 359.8154
  L 753.7692 318.6772
  L 753.9192 318.3168
  L 753.7704 317.9560
  L 744.1141 308.2659"
/>
<path stroke="#808080" vector-effect="non-scaling-stroke" d="
  M 761.1909 325.8100
  L 760.9438 325.7066
  L 760.6959 325.8083
  L 719.3705 366.8462
  L 719.2671 367.0933
  L 719.3688 367.3411
  L 729.1491 377.1900
  L 729.3962 377.2934
  L 729.6441 377.1917
  L 770.9695 336.1538
  L 771.0729 335.9067
  L 770.9712 335.6589
  L 761.1909 325.8100"
/>
<path stroke="#808080" vector-effect="non-scaling-stroke" d="
  M 778.4518 343.0557
  L 778.0702 342.8969
  L 777.6881 343.0544
  L 736.7603 383.8397
  L 736.6014 384.2212
  L 736.7589 384.6033
  L 745.8082 393.6843
  L 746.1898 393.8431
  L 746.5719 393.6856
  L 787.4997 352.9003
  L 787.6586 352.5188
  L 787.5011 352.1367
  L 778.4518 343.0557"
/>
<path stroke="#808080" vector-effect="non-scaling-stroke" d="
  M 794.9568 359.9741
  L 794.6179 359.8324
  L 794.2780 359.9718
  L 753.3357 400.6292
  L 753.1940 400.9681
  L 753.3334 401.3080
  L 763.0432 411.0859
  L 763.3821 411.2276
  L 763.7220 411.0882
  L 804.6643 370.4308
  L 804.8060 370.0919
  L 804.6666 369.7520
  L 794.9568 359.9741"
/>
<path stroke="#808080" vector-effect="non-scaling-stroke" d="
  M 713.83 374.55
  L 713.40 374.37
  L 712.97 374.55
  L 650.74 436.79
  L 650.56 437.17
  L 650.67 437.57
  L 650.70 437.62
  L 664.40 453.72
  L 664.54 454.14
  L 664.36 454.55
  L 606.18 512.73
  L 606.16 512.75
  L 606.00 513.18
  L 606.18 513.59
  L 630.58 538.00
  L 631.01 538.18
  L 631.44 538.00
  L 688.80 480.64
  L 689.10 480.47
  L 689.59 480.58
  L 709.96 495.36
  L 710.36 495.48
  L 710.75 495.30
  L 772.24 433.82
  L 772.38 433.59
  L 772.24 432.96
  L 713.83 374.55"
/>
<path stroke="#808080" vector-effect="non-scaling-stroke" d="
  M 779.42 427.34
  L 779.78 427.49
  L 780.14 427.34
  L 820.95 386.96
  L 821.10 386.60
  L 820.95 386.24
  L 812.37 377.57
  L 812.01 377.42
  L 811.65 377.57
  L 770.84 417.94
  L 770.69 418.30
  L 770.84 418.66
  L 779.42 427.34"
/>
<path stroke="#808080" vector-effect="non-scaling-stroke" d="
  M 828.4699 394.0871
  L 828.1169 393.9394
  L 827.7628 394.0846
  L 787.1895 434.3756
  L 787.0419 434.7287
  L 787.1871 435.0827
  L 796.7701 444.7329
  L 797.1231 444.8806
  L 797.4772 444.7354
  L 838.0505 404.4444
  L 838.1981 404.0913
  L 838.0529 403.7373
  L 828.4699 394.0871"
/>
<path stroke="#808080" vector-effect="non-scaling-stroke" d="
  M 634.55 646.66
  L 634.59 646.63
  L 634.78 646.25
  L 634.62 645.86
  L 585.72 596.96
  L 585.59 596.64
  L 585.72 596.32
  L 596.82 585.34
  L 597.20 585.18
  L 597.58 585.34
  L 621.34 608.66
  L 646.78 633.22
  L 648.67 634.79
  L 651.37 636.69
  L 651.80 636.82
  L 652.23 636.70
  L 680.52 618.07
  L 709.23 598.24
  L 719.72 590.33
  L 720.23 589.83
  L 731.80 576.22
  L 731.90 575.95
  L 731.78 575.68
  L 670.73 514.64
  L 670.13 514.39
  L 669.53 514.64
  L 627.25 556.92
  L 626.85 557.08
  L 626.46 556.92
  L 586.19 516.65
  L 586.19 516.30
  L 586.19 516.30
  L 628.57 473.92
  L 628.73 473.53
  L 628.57 473.13
  L 567.16 411.07
  L 567.16 411.07
  L 566.88 410.96
  L 566.61 411.08
  L 554.42 424.41
  L 549.31 430.49
  L 543.23 438.62
  L 534.67 450.53
  L 521.62 468.78
  L 512.99 481.24
  L 505.61 492.38
  L 505.53 492.70
  L 505.67 493.00
  L 558.34 545.67
  L 558.34 545.67
  L 558.46 545.97
  L 558.33 546.27
  L 547.45 557.04
  L 546.95 557.25
  L 546.45 557.04
  L 497.07 507.66
  L 497.04 507.63
  L 496.60 507.50
  L 496.21 507.73
  L 482.18 527.06
  L 482.06 527.47
  L 482.24 527.86
  L 528.86 574.48
  L 529.02 574.87
  L 528.86 575.27
  L 517.75 586.26
  L 517.26 586.46
  L 516.77 586.26
  L 472.72 542.21
  L 472.70 542.19
  L 472.41 542.10
  L 472.14 542.25
  L 457.79 562.03
  L 457.63 562.59
  L 457.87 563.13
  L 498.69 604.38
  L 498.84 604.75
  L 498.69 605.12
  L 487.61 616.08
  L 487.07 616.30
  L 486.54 616.08
  L 448.39 577.93
  L 447.91 577.74
  L 447.44 577.96
  L 447.41 578.00
  L 433.29 597.45
  L 433.14 597.96
  L 433.36 598.44
  L 468.93 634.38
  L 469.09 634.77
  L 468.93 635.16
  L 457.79 646.18
  L 457.39 646.35
  L 457.00 646.18
  L 457.00 646.18
  L 424.24 613.43
  L 423.93 613.30
  L 423.63 613.44
  L 423.63 613.44
  L 423.61 613.47
  L 410.67 631.31
  L 410.58 631.62
  L 410.71 631.91
  L 438.80 660.30
  L 438.90 660.55
  L 438.80 660.79
  L 438.80 660.79
  L 435.16 664.35
  L 431.37 667.74
  L 427.45 670.96
  L 423.39 674.01
  L 419.21 676.87
  L 414.91 679.55
  L 410.51 682.03
  L 406.00 684.31
  L 401.49 686.34
  L 396.90 688.17
  L 392.23 689.79
  L 387.49 691.19
  L 382.73 692.36
  L 377.92 693.30
  L 373.16 694.00
  L 368.36 694.47
  L 361.11 694.76
  L 353.95 694.57
  L 345.63 693.74
  L 337.28 692.25
  L 329.07 690.10
  L 321.07 687.34
  L 313.14 683.91
  L 305.49 679.91
  L 298.04 675.28
  L 290.93 670.13
  L 284.07 664.38
  L 277.61 658.15
  L 271.58 651.48
  L 266.00 644.38
  L 260.87 636.87
  L 256.25 629.00
  L 252.21 620.91
  L 248.72 612.54
  L 246.26 605.45
  L 244.21 598.31
  L 242.57 591.11
  L 241.34 583.85
  L 241.34 583.85
  L 241.34 583.85
  L 241.34 583.85
  L 241.34 583.85
  L 240.59 577.36
  L 240.16 570.82
  L 240.06 564.24
  L 240.28 557.61
  L 240.82 550.94
  L 241.68 544.22
  L 242.86 537.46
  L 244.37 530.65
  L 247.32 520.13
  L 251.08 509.51
  L 255.61 498.84
  L 260.90 488.22
  L 266.84 477.83
  L 273.44 467.67
  L 280.57 457.94
  L 288.13 448.78
  L 288.49 448.17
  L 288.62 447.47
  L 288.62 411.67
  L 288.61 411.59
  L 288.44 411.44
  L 288.23 411.49
  L 276.47 422.04
  L 265.23 433.10
  L 258.46 440.27
  L 251.90 447.64
  L 243.22 458.27
  L 235.23 469.26
  L 227.95 480.62
  L 221.37 492.34
  L 221.37 492.34
  L 217.26 500.59
  L 213.49 509.01
  L 210.04 517.60
  L 206.92 526.37
  L 204.00 536.10
  L 202.16 543.76
  L 200.69 551.45
  L 199.58 559.26
  L 198.85 567.07
  L 198.48 575.00
  L 198.49 582.91
  L 198.87 590.88
  L 199.63 598.81
  L 200.75 606.73
  L 202.24 614.57
  L 204.11 622.43
  L 206.33 630.18
  L 208.91 637.83
  L 211.83 645.35
  L 215.09 652.72
  L 218.67 659.93
  L 222.58 666.97
  L 226.80 673.82
  L 231.33 680.47
  L 236.16 686.91
  L 241.27 693.09
  L 246.66 699.04
  L 252.26 704.66
  L 258.12 710.01
  L 264.19 715.05
  L 270.50 719.81
  L 276.97 724.21
  L 283.67 728.31
  L 290.47 732.03
  L 297.48 735.43
  L 304.59 738.47
  L 311.89 741.17
  L 321.54 744.13
  L 331.28 746.45
  L 342.76 748.41
  L 354.30 749.59
  L 365.73 749.96
  L 371.43 749.84
  L 377.13 749.52
  L 382.74 749.00
  L 388.32 748.28
  L 393.78 747.36
  L 399.21 746.25
  L 404.60 744.93
  L 409.95 743.41
  L 415.15 741.71
  L 420.31 739.81
  L 427.44 736.72
  L 434.95 732.85
  L 442.85 728.22
  L 451.12 722.82
  L 458.91 717.35
  L 466.20 711.95
  L 472.97 706.62
  L 479.24 701.35
  L 479.65 701.21
  L 480.06 701.38
  L 507.83 729.16
  L 508.14 729.30
  L 508.47 729.22
  L 527.01 716.80
  L 527.07 716.44
  L 527.05 716.42
  L 496.02 685.39
  L 496.02 685.39
  L 495.79 684.83
  L 496.03 684.28
  L 506.62 673.79
  L 507.19 673.56
  L 507.76 673.80
  L 540.65 706.68
  L 541.67 707.16
  L 542.75 706.89
  L 562.58 693.61
  L 562.59 693.60
  L 562.60 693.40
  L 524.94 655.74
  L 524.94 655.33
  L 524.94 655.33
  L 536.58 643.81
  L 536.82 643.68
  L 537.28 643.81
  L 577.31 683.84
  L 577.92 684.13
  L 578.58 683.96
  L 598.26 670.78
  L 598.29 670.76
  L 598.46 670.43
  L 598.33 670.09
  L 555.14 626.90
  L 554.94 626.41
  L 555.14 625.93
  L 555.14 625.93
  L 566.13 615.05
  L 566.84 614.76
  L 567.54 615.05
  L 612.88 660.39
  L 613.37 660.62
  L 613.89 660.49
  L 634.55 646.66"
/>
<path stroke="#808080" vector-effect="non-scaling-stroke" d="
  M 728.82 559.24
  L 728.86 559.27
  L 729.30 559.24
  L 861.71 428.22
  L 861.71 427.74
  L 845.54 411.40
  L 845.06 411.40
  L 798.07 457.89
  L 797.59 457.89
  L 781.45 441.75
  L 780.97 441.75
  L 712.82 509.19
  L 712.65 509.28
  L 712.36 509.21
  L 691.62 492.60
  L 691.16 492.62
  L 676.85 506.79
  L 676.80 506.86
  L 676.85 507.27
  L 728.82 559.24"
/>
</g>
<path fill="#ffffff" d="
  M 90.42 715.58
  L 84.23 702.13
  L 78.49 688.52
  L 73.20 674.77
  L 68.37 660.87
  L 68.37 660.87
  L 68.37 660.87
  L 68.37 660.87
  L 63.65 645.68
  L 59.47 630.31
  L 55.82 614.77
  L 52.70 599.06
  L 50.23 584.13
  L 48.12 568.74
  L 46.65 554.11
  L 45.43 536.00
  L 45.02 526.18
  L 44.83 515.59
  L 44.87 504.24
  L 45.12 492.13
  L 45.63 481.37
  L 46.37 470.61
  L 47.69 457.35
  L 49.38 444.16
  L 51.44 431.04
  L 53.87 418.00
  L 53.87 418.00
  L 53.87 418.00
  L 53.87 418.00
  L 53.87 418.00
  L 57.61 401.09
  L 61.99 384.30
  L 67.00 367.63
  L 72.64 351.10
  L 76.12 341.79
  L 79.79 332.58
  L 83.63 323.47
  L 87.66 314.47
  L 91.88 305.57
  L 96.28 296.78
  L 100.86 288.09
  L 105.62 279.51
  L 105.62 279.51
  L 105.62 279.51
  L 105.62 279.51
  L 115.36 263.20
  L 125.78 247.28
  L 136.89 231.76
  L 148.68 216.62
  L 157.79 205.73
  L 167.15 195.19
  L 176.77 184.98
  L 186.64 175.10
  L 196.77 165.57
  L 207.16 156.37
  L 217.80 147.52
  L 228.70 139.00
  L 239.47 131.09
  L 250.48 123.50
  L 261.73 116.22
  L 273.22 109.26
  L 284.94 102.62
  L 296.91 96.29
  L 309.12 90.28
  L 321.56 84.58
  L 332.16 80.06
  L 342.84 75.81
  L 353.61 71.83
  L 364.47 68.12
  L 364.47 68.12
  L 364.47 68.12
  L 376.87 64.25
  L 389.38 60.72
  L 402.01 57.53
  L 414.75 54.69
  L 427.60 52.19
  L 440.57 50.04
  L 453.65 48.23
  L 466.84 46.77
  L 475.70 46.10
  L 481.53 45.70
  L 487.49 45.26
  L 505.25 44.76
  L 517.29 44.78
  L 529.27 45.10
  L 541.19 45.70
  L 553.07 46.58
  L 564.89 47.76
  L 576.66 49.22
  L 588.37 50.97
  L 600.03 53.00
  L 600.03 53.00
  L 600.03 53.00
  L 617.82 56.69
  L 635.49 61.05
  L 650.25 65.25
  L 664.92 69.80
  L 678.84 74.75
  L 692.52 80.08
  L 705.95 85.80
  L 719.13 91.89
  L 732.06 98.37
  L 744.75 105.23
  L 757.19 112.47
  L 769.38 120.09
  L 769.38 120.09
  L 781.85 128.46
  L 794.04 137.24
  L 805.97 146.44
  L 817.63 156.06
  L 829.02 166.09
  L 840.13 176.54
  L 850.98 187.40
  L 861.56 198.68
  L 873.23 212.03
  L 884.31 225.75
  L 894.80 239.87
  L 904.72 254.36
  L 904.72 254.36
  L 904.72 254.36
  L 904.72 254.36
  L 913.93 269.05
  L 922.57 284.12
  L 930.65 299.56
  L 938.15 315.37
  L 944.67 330.48
  L 950.67 345.75
  L 956.15 361.18
  L 961.11 376.76
  L 961.11 376.76
  L 961.11 376.76
  L 966.31 395.43
  L 967.23 399.06
  L 967.23 399.06
  L 967.23 399.06
  L 969.87 410.38
  L 972.21 421.78
  L 974.24 433.26
  L 975.95 444.81
  L 977.86 459.66
  L 978.73 468.01
  L 979.25 474.50
  L 979.77 480.99
  L 980.76 505.00
  L 980.76 514.88
  L 980.22 531.63
  L 979.77 540.14
  L 979.08 549.29
  L 976.96 569.51
  L 975.54 580.23
  L 973.88 590.91
  L 973.88 590.91
  L 973.88 590.91
  L 971.99 601.53
  L 969.86 612.10
  L 967.50 622.64
  L 964.90 633.14
  L 961.29 646.25
  L 957.28 659.21
  L 952.90 672.01
  L 948.13 684.66
  L 948.13 684.66
  L 944.16 694.39
  L 939.95 704.02
  L 935.52 713.55
  L 930.85 723.00
  L 924.74 734.63
  L 918.35 746.02
  L 911.69 757.20
  L 904.76 768.14
  L 897.54 778.86
  L 890.06 789.35
  L 882.29 799.62
  L 874.26 809.65
  L 874.26 809.65
  L 874.26 809.65
  L 865.70 819.74
  L 856.85 829.59
  L 847.71 839.20
  L 838.28 848.57
  L 828.56 857.70
  L 818.55 866.59
  L 808.25 875.24
  L 797.65 883.65
  L 790.04 889.40
  L 782.30 894.98
  L 782.30 894.98
  L 782.30 894.98
  L 767.10 905.26
  L 751.46 914.92
  L 735.39 923.97
  L 718.89 932.40
  L 703.12 939.72
  L 687.15 946.42
  L 670.98 952.50
  L 654.63 957.96
  L 654.63 957.96
  L 648.33 959.88
  L 634.67 963.73
  L 620.94 967.17
  L 607.13 970.21
  L 593.26 972.84
  L 593.26 972.84
  L 574.56 975.73
  L 555.73 977.89
  L 541.19 978.99
  L 524.50 979.73
  L 507.62 979.90
  L 490.37 979.39
  L 472.74 978.17
  L 454.75 976.27
  L 442.53 974.60
  L 430.38 972.61
  L 418.30 970.31
  L 406.29 967.70
  L 406.29 967.70
  L 388.32 963.18
  L 370.52 957.94
  L 352.88 952.00
  L 335.40 945.34
  L 321.98 939.69
  L 308.80 933.63
  L 295.83 927.16
  L 283.10 920.29
  L 283.10 920.29
  L 283.10 920.29
  L 283.10 920.29
  L 283.10 920.29
  L 267.21 910.95
  L 251.69 900.95
  L 236.54 890.30
  L 221.76 878.99
  L 213.53 872.29
  L 205.47 865.43
  L 197.59 858.43
  L 189.89 851.27
  L 182.37 843.96
  L 175.02 836.51
  L 167.85 828.91
  L 160.85 821.15
  L 150.27 808.76
  L 140.20 796.14
  L 130.63 783.28
  L 121.58 770.20
  L 113.03 756.89
  L 104.98 743.35
  L 97.45 729.58
  L 90.42 715.58
  Z
  M 705.17 366.27
  L 705.26 365.93
  L 705.17 365.77
  L 688.88 349.49
  L 688.78 349.30
  L 688.88 348.99
  L 736.37 301.50
  L 736.47 301.25
  L 736.37 301.00
  L 721.18 285.82
  L 720.93 285.72
  L 720.68 285.82
  L 588.79 417.71
  L 588.70 417.87
  L 588.79 418.21
  L 636.29 466.21
  L 636.53 466.32
  L 636.79 466.22
  L 636.80 466.21
  L 650.99 452.02
  L 651.04 451.57
  L 651.00 451.53
  L 636.45 435.47
  L 636.36 435.29
  L 636.46 434.98
  L 705.17 366.27
  Z
  M 398.07 335.41
  L 397.33 318.39
  L 397.47 318.03
  L 397.82 317.87
  L 397.83 317.87
  L 464.88 317.87
  L 464.88 317.87
  L 465.20 318.20
  L 464.56 335.54
  L 464.70 335.92
  L 465.08 336.09
  L 465.08 336.09
  L 465.09 336.09
  L 489.77 336.09
  L 490.02 336.19
  L 490.12 336.43
  L 490.12 363.33
  L 490.26 363.68
  L 490.60 363.82
  L 518.69 363.79
  L 521.02 363.87
  L 523.09 364.17
  L 524.83 364.67
  L 526.41 365.42
  L 528.48 367.04
  L 530.34 369.36
  L 530.91 370.54
  L 531.32 372.11
  L 531.65 376.43
  L 531.64 404.95
  L 531.64 404.95
  L 531.44 405.42
  L 530.96 405.62
  L 526.41 405.62
  L 526.01 405.79
  L 525.84 406.19
  L 525.84 433.87
  L 525.87 434.01
  L 526.14 434.19
  L 526.43 434.06
  L 529.79 429.71
  L 538.44 419.34
  L 551.47 404.93
  L 554.08 402.08
  L 555.35 400.52
  L 557.08 397.47
  L 557.29 396.47
  L 557.33 317.27
  L 557.08 311.91
  L 556.77 309.90
  L 556.34 308.33
  L 555.22 305.81
  L 553.81 303.47
  L 552.07 301.26
  L 550.07 299.29
  L 547.88 297.62
  L 545.50 296.23
  L 542.95 295.14
  L 540.26 294.38
  L 535.99 294.05
  L 527.20 293.94
  L 326.75 293.95
  L 323.48 294.21
  L 320.33 294.98
  L 317.27 296.24
  L 314.43 297.95
  L 311.84 300.09
  L 309.60 302.60
  L 307.81 305.33
  L 306.45 308.32
  L 305.96 310.28
  L 305.61 313.10
  L 305.33 321.30
  L 305.32 482.11
  L 305.51 487.85
  L 306.16 491.58
  L 307.01 493.81
  L 308.09 495.88
  L 309.68 498.20
  L 311.55 500.26
  L 313.75 502.12
  L 316.18 503.68
  L 318.81 504.91
  L 321.59 505.82
  L 324.50 506.37
  L 327.50 506.56
  L 477.01 506.56
  L 477.71 506.39
  L 478.25 505.93
  L 499.15 477.13
  L 499.20 476.83
  L 498.98 476.62
  L 498.88 476.60
  L 494.64 476.60
  L 494.10 476.38
  L 493.87 475.84
  L 493.87 421.52
  L 493.58 421.23
  L 485.46 421.23
  L 485.17 421.52
  L 485.17 475.92
  L 484.99 476.36
  L 484.55 476.54
  L 474.51 476.54
  L 474.08 476.36
  L 473.90 475.93
  L 473.90 421.52
  L 473.90 421.52
  L 473.60 421.23
  L 465.91 421.23
  L 465.63 421.50
  L 465.63 476.02
  L 465.48 476.38
  L 465.12 476.53
  L 455.33 476.53
  L 454.85 476.33
  L 454.65 475.85
  L 454.65 421.52
  L 454.35 421.21
  L 454.35 421.21
  L 446.11 421.21
  L 445.91 421.29
  L 445.83 421.49
  L 445.83 475.96
  L 445.72 476.29
  L 445.26 476.53
  L 435.07 476.53
  L 435.07 476.53
  L 434.76 476.40
  L 434.63 476.08
  L 434.63 421.49
  L 434.38 421.21
  L 434.35 421.21
  L 426.45 421.21
  L 426.12 421.54
  L 426.12 475.68
  L 425.87 476.29
  L 425.26 476.54
  L 415.74 476.54
  L 415.36 476.38
  L 415.20 476.01
  L 415.20 476.01
  L 415.20 421.51
  L 414.92 421.22
  L 407.38 421.22
  L 407.06 421.54
  L 407.06 475.96
  L 406.95 476.29
  L 406.49 476.53
  L 396.12 476.53
  L 395.77 476.38
  L 395.62 476.03
  L 395.62 421.50
  L 395.33 421.20
  L 387.44 421.20
  L 387.43 421.20
  L 387.12 421.52
  L 387.12 475.82
  L 386.91 476.33
  L 386.41 476.54
  L 386.41 476.54
  L 376.90 476.54
  L 376.90 476.54
  L 376.41 476.33
  L 376.21 475.84
  L 376.21 421.55
  L 376.21 421.55
  L 376.10 421.30
  L 375.85 421.20
  L 367.59 421.20
  L 367.31 421.32
  L 367.19 421.60
  L 367.19 476.24
  L 367.10 476.46
  L 366.88 476.55
  L 343.66 476.58
  L 341.16 476.55
  L 338.89 476.23
  L 336.93 475.63
  L 335.15 474.74
  L 332.98 472.98
  L 331.12 470.58
  L 330.54 469.33
  L 330.14 467.69
  L 329.82 463.22
  L 329.85 437.05
  L 330.04 436.58
  L 330.51 436.38
  L 330.51 436.38
  L 335.12 436.38
  L 335.52 436.22
  L 335.69 435.82
  L 335.69 406.17
  L 335.69 406.15
  L 335.52 405.78
  L 335.15 405.63
  L 330.50 405.63
  L 330.50 405.63
  L 330.02 405.43
  L 329.83 404.95
  L 329.82 376.90
  L 329.93 374.31
  L 330.27 372.16
  L 330.87 370.26
  L 331.76 368.55
  L 333.25 366.73
  L 335.27 365.13
  L 336.50 364.53
  L 338.10 364.11
  L 340.07 363.86
  L 342.42 363.79
  L 370.67 363.80
  L 371.01 363.66
  L 371.15 363.32
  L 371.15 336.75
  L 371.27 336.37
  L 371.81 336.09
  L 397.41 336.09
  L 397.88 335.89
  L 398.07 335.42
  L 398.07 335.42
  L 398.07 335.41
  Z
  M 744.1141 308.2659
  L 743.7538 308.1159
  L 743.3929 308.2646
  L 702.1108 349.4028
  L 701.9608 349.7632
  L 702.1096 350.1240
  L 711.7659 359.8141
  L 712.1262 359.9641
  L 712.4871 359.8154
  L 753.7692 318.6772
  L 753.9192 318.3168
  L 753.7704 317.9560
  L 744.1141 308.2659
  Z
  M 761.1909 325.8100
  L 760.9438 325.7066
  L 760.6959 325.8083
  L 719.3705 366.8462
  L 719.2671 367.0933
  L 719.3688 367.3411
  L 729.1491 377.1900
  L 729.3962 377.2934
  L 729.6441 377.1917
  L 770.9695 336.1538
  L 771.0729 335.9067
  L 770.9712 335.6589
  L 761.1909 325.8100
  Z
  M 778.4518 343.0557
  L 778.0702 342.8969
  L 777.6881 343.0544
  L 736.7603 383.8397
  L 736.6014 384.2212
  L 736.7589 384.6033
  L 745.8082 393.6843
  L 746.1898 393.8431
  L 746.5719 393.6856
  L 787.4997 352.9003
  L 787.6586 352.5188
  L 787.5011 352.1367
  L 778.4518 343.0557
  Z
  M 794.9568 359.9741
  L 794.6179 359.8324
  L 794.2780 359.9718
  L 753.3357 400.6292
  L 753.1940 400.9681
  L 753.3334 401.3080
  L 763.0432 411.0859
  L 763.3821 411.2276
  L 763.7220 411.0882
  L 804.6643 370.4308
  L 804.8060 370.0919
  L 804.6666 369.7520
  L 794.9568 359.9741
  Z
  M 713.83 374.55
  L 713.40 374.37
  L 712.97 374.55
  L 650.74 436.79
  L 650.56 437.17
  L 650.67 437.57
  L 650.70 437.62
  L 664.40 453.72
  L 664.54 454.14
  L 664.36 454.55
  L 606.18 512.73
  L 606.16 512.75
  L 606.00 513.18
  L 606.18 513.59
  L 630.58 538.00
  L 631.01 538.18
  L 631.44 538.00
  L 688.80 480.64
  L 689.10 480.47
  L 689.59 480.58
  L 709.96 495.36
  L 710.36 495.48
  L 710.75 495.30
  L 772.24 433.82
  L 772.38 433.59
  L 772.24 432.96
  L 713.83 374.55
  Z
  M 779.42 427.34
  L 779.78 427.49
  L 780.14 427.34
  L 820.95 386.96
  L 821.10 386.60
  L 820.95 386.24
  L 812.37 377.57
  L 812.01 377.42
  L 811.65 377.57
  L 770.84 417.94
  L 770.69 418.30
  L 770.84 418.66
  L 779.42 427.34
  Z
  M 828.4699 394.0871
  L 828.1169 393.9394
  L 827.7628 394.0846
  L 787.1895 434.3756
  L 787.0419 434.7287
  L 787.1871 435.0827
  L 796.7701 444.7329
  L 797.1231 444.8806
  L 797.4772 444.7354
  L 838.0505 404.4444
  L 838.1981 404.0913
  L 838.0529 403.7373
  L 828.4699 394.0871
  Z
  M 634.55 646.66
  L 634.59 646.63
  L 634.78 646.25
  L 634.62 645.86
  L 585.72 596.96
  L 585.59 596.64
  L 585.72 596.32
  L 596.82 585.34
  L 597.20 585.18
  L 597.58 585.34
  L 621.34 608.66
  L 646.78 633.22
  L 648.67 634.79
  L 651.37 636.69
  L 651.80 636.82
  L 652.23 636.70
  L 680.52 618.07
  L 709.23 598.24
  L 719.72 590.33
  L 720.23 589.83
  L 731.80 576.22
  L 731.90 575.95
  L 731.78 575.68
  L 670.73 514.64
  L 670.13 514.39
  L 669.53 514.64
  L 627.25 556.92
  L 626.85 557.08
  L 626.46 556.92
  L 586.19 516.65
  L 586.19 516.30
  L 586.19 516.30
  L 628.57 473.92
  L 628.73 473.53
  L 628.57 473.13
  L 567.16 411.07
  L 567.16 411.07
  L 566.88 410.96
  L 566.61 411.08
  L 554.42 424.41
  L 549.31 430.49
  L 543.23 438.62
  L 534.67 450.53
  L 521.62 468.78
  L 512.99 481.24
  L 505.61 492.38
  L 505.53 492.70
  L 505.67 493.00
  L 558.34 545.67
  L 558.34 545.67
  L 558.46 545.97
  L 558.33 546.27
  L 547.45 557.04
  L 546.95 557.25
  L 546.45 557.04
  L 497.07 507.66
  L 497.04 507.63
  L 496.60 507.50
  L 496.21 507.73
  L 482.18 527.06
  L 482.06 527.47
  L 482.24 527.86
  L 528.86 574.48
  L 529.02 574.87
  L 528.86 575.27
  L 517.75 586.26
  L 517.26 586.46
  L 516.77 586.26
  L 472.72 542.21
  L 472.70 542.19
  L 472.41 542.10
  L 472.14 542.25
  L 457.79 562.03
  L 457.63 562.59
  L 457.87 563.13
  L 498.69 604.38
  L 498.84 604.75
  L 498.69 605.12
  L 487.61 616.08
  L 487.07 616.30
  L 486.54 616.08
  L 448.39 577.93
  L 447.91 577.74
  L 447.44 577.96
  L 447.41 578.00
  L 433.29 597.45
  L 433.14 597.96
  L 433.36 598.44
  L 468.93 634.38
  L 469.09 634.77
  L 468.93 635.16
  L 457.79 646.18
  L 457.39 646.35
  L 457.00 646.18
  L 457.00 646.18
  L 424.24 613.43
  L 423.93 613.30
  L 423.63 613.44
  L 423.63 613.44
  L 423.61 613.47
  L 410.67 631.31
  L 410.58 631.62
  L 410.71 631.91
  L 438.80 660.30
  L 438.90 660.55
  L 438.80 660.79
  L 438.80 660.79
  L 435.16 664.35
  L 431.37 667.74
  L 427.45 670.96
  L 423.39 674.01
  L 419.21 676.87
  L 414.91 679.55
  L 410.51 682.03
  L 406.00 684.31
  L 401.49 686.34
  L 396.90 688.17
  L 392.23 689.79
  L 387.49 691.19
  L 382.73 692.36
  L 377.92 693.30
  L 373.16 694.00
  L 368.36 694.47
  L 361.11 694.76
  L 353.95 694.57
  L 345.63 693.74
  L 337.28 692.25
  L 329.07 690.10
  L 321.07 687.34
  L 313.14 683.91
  L 305.49 679.91
  L 298.04 675.28
  L 290.93 670.13
  L 284.07 664.38
  L 277.61 658.15
  L 271.58 651.48
  L 266.00 644.38
  L 260.87 636.87
  L 256.25 629.00
  L 252.21 620.91
  L 248.72 612.54
  L 246.26 605.45
  L 244.21 598.31
  L 242.57 591.11
  L 241.34 583.85
  L 241.34 583.85
  L 241.34 583.85
  L 241.34 583.85
  L 241.34 583.85
  L 240.59 577.36
  L 240.16 570.82
  L 240.06 564.24
  L 240.28 557.61
  L 240.82 550.94
  L 241.68 544.22
  L 242.86 537.46
  L 244.37 530.65
  L 247.32 520.13
  L 251.08 509.51
  L 255.61 498.84
  L 260.90 488.22
  L 266.84 477.83
  L 273.44 467.67
  L 280.57 457.94
  L 288.13 448.78
  L 288.49 448.17
  L 288.62 447.47
  L 288.62 411.67
  L 288.61 411.59
  L 288.44 411.44
  L 288.23 411.49
  L 276.47 422.04
  L 265.23 433.10
  L 258.46 440.27
  L 251.90 447.64
  L 243.22 458.27
  L 235.23 469.26
  L 227.95 480.62
  L 221.37 492.34
  L 221.37 492.34
  L 217.26 500.59
  L 213.49 509.01
  L 210.04 517.60
  L 206.92 526.37
  L 204.00 536.10
  L 202.16 543.76
  L 200.69 551.45
  L 199.58 559.26
  L 198.85 567.07
  L 198.48 575.00
  L 198.49 582.91
  L 198.87 590.88
  L 199.63 598.81
  L 200.75 606.73
  L 202.24 614.57
  L 204.11 622.43
  L 206.33 630.18
  L 208.91 637.83
  L 211.83 645.35
  L 215.09 652.72
  L 218.67 659.93
  L 222.58 666.97
  L 226.80 673.82
  L 231.33 680.47
  L 236.16 686.91
  L 241.27 693.09
  L 246.66 699.04
  L 252.26 704.66
  L 258.12 710.01
  L 264.19 715.05
  L 270.50 719.81
  L 276.97 724.21
  L 283.67 728.31
  L 290.47 732.03
  L 297.48 735.43
  L 304.59 738.47
  L 311.89 741.17
  L 321.54 744.13
  L 331.28 746.45
  L 342.76 748.41
  L 354.30 749.59
  L 365.73 749.96
  L 371.43 749.84
  L 377.13 749.52
  L 382.74 749.00
  L 388.32 748.28
  L 393.78 747.36
  L 399.21 746.25
  L 404.60 744.93
  L 409.95 743.41
  L 415.15 741.71
  L 420.31 739.81
  L 427.44 736.72
  L 434.95 732.85
  L 442.85 728.22
  L 451.12 722.82
  L 458.91 717.35
  L 466.20 711.95
  L 472.97 706.62
  L 479.24 701.35
  L 479.65 701.21
  L 480.06 701.38
  L 507.83 729.16
  L 508.14 729.30
  L 508.47 729.22
  L 527.01 716.80
  L 527.07 716.44
  L 527.05 716.42
  L 496.02 685.39
  L 496.02 685.39
  L 495.79 684.83
  L 496.03 684.28
  L 506.62 673.79
  L 507.19 673.56
  L 507.76 673.80
  L 540.65 706.68
  L 541.67 707.16
  L 542.75 706.89
  L 562.58 693.61
  L 562.59 693.60
  L 562.60 693.40
  L 524.94 655.74
  L 524.94 655.33
  L 524.94 655.33
  L 536.58 643.81
  L 536.82 643.68
  L 537.28 643.81
  L 577.31 683.84
  L 577.92 684.13
  L 578.58 683.96
  L 598.26 670.78
  L 598.29 670.76
  L 598.46 670.43
  L 598.33 670.09
  L 555.14 626.90
  L 554.94 626.41
  L 555.14 625.93
  L 555.14 625.93
  L 566.13 615.05
  L 566.84 614.76
  L 567.54 615.05
  L 612.88 660.39
  L 613.37 660.62
  L 613.89 660.49
  L 634.55 646.66
  Z
  M 728.82 559.24
  L 728.86 559.27
  L 729.30 559.24
  L 861.71 428.22
  L 861.71 427.74
  L 845.54 411.40
  L 845.06 411.40
  L 798.07 457.89
  L 797.59 457.89
  L 781.45 441.75
  L 780.97 441.75
  L 712.82 509.19
  L 712.65 509.28
  L 712.36 509.21
  L 691.62 492.60
  L 691.16 492.62
  L 676.85 506.79
  L 676.80 506.86
  L 676.85 507.27
  L 728.82 559.24
  Z"
/>
<g fill="#000000">
<path d="
  M 705.17 366.27
  L 636.46 434.98
  L 636.43 435.45
  L 636.45 435.47
  L 651.00 451.53
  L 651.09 451.71
  L 650.99 452.02
  L 636.80 466.21
  L 636.61 466.31
  L 636.29 466.21
  L 588.79 418.21
  L 588.69 417.90
  L 588.79 417.71
  L 720.68 285.82
  L 720.88 285.72
  L 721.18 285.82
  L 736.37 301.00
  L 736.47 301.25
  L 736.37 301.50
  L 688.88 348.99
  L 688.82 349.40
  L 688.88 349.49
  L 705.17 365.77
  L 705.26 365.92
  L 705.17 366.27
  Z"
/>
<path d="
  M 397.41 336.09
  L 371.81 336.09
  L 371.34 336.28
  L 371.15 336.75
  L 371.15 363.32
  L 371.01 363.66
  L 370.67 363.80
  L 342.42 363.79
  L 340.07 363.86
  L 338.10 364.11
  L 336.50 364.53
  L 335.27 365.13
  L 333.25 366.73
  L 331.76 368.55
  L 330.87 370.26
  L 330.27 372.16
  L 329.93 374.31
  L 329.82 376.90
  L 329.83 404.95
  L 330.02 405.43
  L 330.50 405.63
  L 330.50 405.63
  L 330.50 405.63
  L 335.15 405.63
  L 335.53 405.79
  L 335.69 406.17
  L 335.69 435.82
  L 335.69 435.82
  L 335.52 436.22
  L 335.12 436.38
  L 330.51 436.38
  L 330.51 436.38
  L 330.04 436.58
  L 329.85 437.05
  L 329.82 463.22
  L 330.14 467.69
  L 330.54 469.33
  L 331.12 470.58
  L 332.98 472.98
  L 335.15 474.74
  L 336.93 475.63
  L 338.89 476.23
  L 341.16 476.55
  L 343.66 476.58
  L 366.88 476.55
  L 367.10 476.46
  L 367.19 476.24
  L 367.19 421.60
  L 367.31 421.32
  L 367.59 421.20
  L 375.85 421.20
  L 376.10 421.30
  L 376.21 421.55
  L 376.21 475.84
  L 376.41 476.33
  L 376.90 476.54
  L 386.41 476.54
  L 386.41 476.54
  L 386.91 476.33
  L 387.12 475.82
  L 387.12 421.52
  L 387.44 421.20
  L 395.33 421.20
  L 395.33 421.20
  L 395.62 421.50
  L 395.62 476.03
  L 395.77 476.38
  L 396.12 476.53
  L 406.49 476.53
  L 406.89 476.36
  L 407.06 475.96
  L 407.06 421.54
  L 407.12 421.35
  L 407.38 421.22
  L 414.92 421.22
  L 414.92 421.22
  L 415.20 421.51
  L 415.20 476.01
  L 415.20 476.01
  L 415.36 476.38
  L 415.74 476.54
  L 425.26 476.54
  L 425.87 476.29
  L 426.12 475.68
  L 426.12 421.54
  L 426.45 421.21
  L 434.35 421.21
  L 434.49 421.25
  L 434.63 421.49
  L 434.63 476.08
  L 434.76 476.40
  L 435.07 476.53
  L 435.07 476.53
  L 445.26 476.53
  L 445.66 476.36
  L 445.83 475.96
  L 445.83 421.49
  L 445.91 421.29
  L 446.11 421.21
  L 454.35 421.21
  L 454.35 421.21
  L 454.65 421.52
  L 454.65 475.85
  L 454.66 475.95
  L 454.88 476.36
  L 455.33 476.53
  L 465.12 476.53
  L 465.48 476.38
  L 465.63 476.02
  L 465.63 421.50
  L 465.91 421.23
  L 473.60 421.23
  L 473.90 421.52
  L 473.90 475.93
  L 474.08 476.36
  L 474.51 476.54
  L 484.55 476.54
  L 484.99 476.36
  L 485.17 475.92
  L 485.17 421.52
  L 485.25 421.31
  L 485.46 421.23
  L 493.58 421.23
  L 493.79 421.31
  L 493.87 421.52
  L 493.87 475.84
  L 494.10 476.38
  L 494.64 476.60
  L 498.88 476.60
  L 498.98 476.62
  L 499.20 476.83
  L 499.15 477.13
  L 478.25 505.93
  L 477.71 506.39
  L 477.01 506.56
  L 327.50 506.56
  L 324.50 506.37
  L 321.59 505.82
  L 318.81 504.91
  L 316.18 503.68
  L 313.75 502.12
  L 311.55 500.26
  L 309.68 498.20
  L 308.09 495.88
  L 307.01 493.81
  L 306.16 491.58
  L 305.51 487.85
  L 305.32 482.11
  L 305.33 321.30
  L 305.61 313.10
  L 305.96 310.28
  L 306.45 308.32
  L 307.81 305.33
  L 309.60 302.60
  L 311.84 300.09
  L 314.43 297.95
  L 317.27 296.24
  L 320.33 294.98
  L 323.48 294.21
  L 326.75 293.95
  L 527.20 293.94
  L 535.99 294.05
  L 540.26 294.38
  L 542.95 295.14
  L 545.50 296.23
  L 547.88 297.62
  L 550.07 299.29
  L 552.07 301.26
  L 553.81 303.47
  L 555.22 305.81
  L 556.34 308.33
  L 556.77 309.90
  L 557.08 311.91
  L 557.33 317.27
  L 557.29 396.47
  L 557.08 397.47
  L 555.35 400.52
  L 554.08 402.08
  L 551.47 404.93
  L 538.44 419.34
  L 529.79 429.71
  L 526.43 434.06
  L 526.14 434.19
  L 525.87 434.01
  L 525.87 434.01
  L 525.84 433.87
  L 525.84 406.19
  L 526.01 405.79
  L 526.41 405.62
  L 530.96 405.62
  L 531.44 405.42
  L 531.64 404.95
  L 531.64 404.95
  L 531.65 376.43
  L 531.32 372.11
  L 530.91 370.54
  L 530.34 369.36
  L 528.48 367.04
  L 526.41 365.42
  L 524.83 364.67
  L 523.09 364.17
  L 521.02 363.87
  L 518.69 363.79
  L 490.60 363.82
  L 490.26 363.68
  L 490.12 363.33
  L 490.12 336.43
  L 490.12 336.43
  L 490.02 336.19
  L 489.77 336.09
  L 465.09 336.09
  L 465.08 336.09
  L 464.70 335.92
  L 464.56 335.54
  L 465.20 318.20
  L 464.88 317.87
  L 464.88 317.87
  L 397.83 317.87
  L 397.82 317.87
  L 397.47 318.03
  L 397.33 318.39
  L 398.07 335.41
  L 398.07 335.42
  L 397.88 335.89
  L 397.41 336.09
  Z"
/>
<rect x="-29.65" y="-7.35" transform="translate(727.94,334.04) rotate(-44.9)" width="59.30" height="14.70" rx="0.51"/>
<rect x="-29.47" y="-7.29" transform="translate(745.17,351.50) rotate(-44.8)" width="58.94" height="14.58" rx="0.35"/>
<rect x="-29.43" y="-6.95" transform="translate(762.13,368.37) rotate(-44.9)" width="58.86" height="13.90" rx="0.54"/>
<rect x="-29.33" y="-7.37" transform="translate(779.00,385.53) rotate(-44.8)" width="58.66" height="14.74" rx="0.48"/>
<path d="
  M 713.83 374.55
  L 772.24 432.96
  L 772.41 433.51
  L 772.24 433.82
  L 710.75 495.30
  L 710.53 495.44
  L 709.96 495.36
  L 689.59 480.58
  L 689.19 480.46
  L 688.80 480.64
  L 631.44 538.00
  L 631.01 538.18
  L 630.58 538.00
  L 606.18 513.59
  L 606.00 513.16
  L 606.18 512.73
  L 664.36 454.55
  L 664.54 454.14
  L 664.40 453.72
  L 650.70 437.62
  L 650.56 437.27
  L 650.74 436.79
  L 712.97 374.55
  L 713.40 374.37
  L 713.83 374.55
  Z"
/>
<path d="
  M 779.42 427.34
  L 770.84 418.66
  L 770.71 418.42
  L 770.84 417.94
  L 811.65 377.57
  L 811.92 377.43
  L 812.37 377.57
  L 820.95 386.24
  L 821.10 386.60
  L 820.95 386.96
  L 780.14 427.34
  L 779.85 427.48
  L 779.42 427.34
  Z"
/>
<rect x="-29.09" y="-7.30" transform="translate(812.62,419.41) rotate(-44.8)" width="58.18" height="14.60" rx="0.50"/>
<path d="
  M 634.55 646.66
  L 613.89 660.49
  L 613.37 660.62
  L 612.88 660.39
  L 567.54 615.05
  L 566.84 614.76
  L 566.13 615.05
  L 555.14 625.93
  L 555.14 625.93
  L 554.94 626.41
  L 555.14 626.90
  L 598.33 670.09
  L 598.46 670.43
  L 598.29 670.76
  L 598.29 670.76
  L 598.26 670.78
  L 578.58 683.96
  L 577.92 684.13
  L 577.31 683.84
  L 537.28 643.81
  L 536.93 643.67
  L 536.58 643.81
  L 524.94 655.33
  L 524.94 655.33
  L 524.94 655.74
  L 562.60 693.40
  L 562.59 693.60
  L 562.58 693.61
  L 542.75 706.89
  L 541.67 707.16
  L 540.65 706.68
  L 507.76 673.80
  L 507.19 673.56
  L 506.62 673.79
  L 496.03 684.28
  L 495.79 684.83
  L 496.02 685.39
  L 496.02 685.39
  L 496.02 685.39
  L 527.05 716.42
  L 527.07 716.44
  L 527.01 716.80
  L 508.47 729.22
  L 508.14 729.30
  L 507.83 729.16
  L 480.06 701.38
  L 479.65 701.21
  L 479.24 701.35
  L 472.97 706.62
  L 466.20 711.95
  L 458.91 717.35
  L 451.12 722.82
  L 442.85 728.22
  L 434.95 732.85
  L 427.44 736.72
  L 420.31 739.81
  L 415.15 741.71
  L 409.95 743.41
  L 404.60 744.93
  L 399.21 746.25
  L 393.78 747.36
  L 388.32 748.28
  L 382.74 749.00
  L 377.13 749.52
  L 371.43 749.84
  L 365.73 749.96
  L 354.30 749.59
  L 342.76 748.41
  L 331.28 746.45
  L 321.54 744.13
  L 311.89 741.17
  L 304.59 738.47
  L 297.48 735.43
  L 290.47 732.03
  L 283.67 728.31
  L 276.97 724.21
  L 270.50 719.81
  L 264.19 715.05
  L 258.12 710.01
  L 252.26 704.66
  L 246.66 699.04
  L 241.27 693.09
  L 236.16 686.91
  L 231.33 680.47
  L 226.80 673.82
  L 222.58 666.97
  L 218.67 659.93
  L 215.09 652.72
  L 211.83 645.35
  L 208.91 637.83
  L 206.33 630.18
  L 204.11 622.43
  L 202.24 614.57
  L 200.75 606.73
  L 199.63 598.81
  L 198.87 590.88
  L 198.49 582.91
  L 198.48 575.00
  L 198.85 567.07
  L 199.58 559.26
  L 200.69 551.45
  L 202.16 543.76
  L 204.00 536.10
  L 206.92 526.37
  L 210.04 517.60
  L 213.49 509.01
  L 217.26 500.59
  L 221.37 492.34
  L 221.37 492.34
  L 221.37 492.34
  L 227.95 480.62
  L 235.23 469.26
  L 243.22 458.27
  L 251.90 447.64
  L 258.46 440.27
  L 265.23 433.10
  L 276.47 422.04
  L 288.23 411.49
  L 288.44 411.44
  L 288.61 411.59
  L 288.62 411.67
  L 288.62 447.47
  L 288.49 448.17
  L 288.13 448.78
  L 280.57 457.94
  L 273.44 467.67
  L 266.84 477.83
  L 260.90 488.22
  L 255.61 498.84
  L 251.08 509.51
  L 247.32 520.13
  L 244.37 530.65
  L 242.86 537.46
  L 241.68 544.22
  L 240.82 550.94
  L 240.28 557.61
  L 240.06 564.24
  L 240.16 570.82
  L 240.59 577.36
  L 241.34 583.85
  L 241.34 583.85
  L 241.34 583.85
  L 241.34 583.85
  L 241.34 583.85
  L 242.57 591.11
  L 244.21 598.31
  L 246.26 605.45
  L 248.72 612.54
  L 252.21 620.91
  L 256.25 629.00
  L 260.87 636.87
  L 266.00 644.38
  L 271.58 651.48
  L 277.61 658.15
  L 284.07 664.38
  L 290.93 670.13
  L 298.04 675.28
  L 305.49 679.91
  L 313.14 683.91
  L 321.07 687.34
  L 329.07 690.10
  L 337.28 692.25
  L 345.63 693.74
  L 353.95 694.57
  L 361.11 694.76
  L 368.36 694.47
  L 373.16 694.00
  L 377.92 693.30
  L 382.73 692.36
  L 387.49 691.19
  L 392.23 689.79
  L 396.90 688.17
  L 401.49 686.34
  L 406.00 684.31
  L 410.51 682.03
  L 414.91 679.55
  L 419.21 676.87
  L 423.39 674.01
  L 427.45 670.96
  L 431.37 667.74
  L 435.16 664.35
  L 438.80 660.79
  L 438.80 660.79
  L 438.90 660.55
  L 438.80 660.30
  L 410.71 631.91
  L 410.58 631.62
  L 410.67 631.31
  L 423.61 613.47
  L 423.63 613.44
  L 423.93 613.30
  L 424.24 613.43
  L 457.00 646.18
  L 457.00 646.18
  L 457.39 646.35
  L 457.79 646.18
  L 468.93 635.16
  L 469.09 634.77
  L 468.93 634.38
  L 433.36 598.44
  L 433.14 597.96
  L 433.29 597.45
  L 447.41 578.00
  L 447.44 577.96
  L 447.91 577.74
  L 448.39 577.93
  L 486.54 616.08
  L 487.07 616.30
  L 487.61 616.08
  L 498.69 605.12
  L 498.84 604.75
  L 498.69 604.38
  L 457.87 563.13
  L 457.63 562.59
  L 457.79 562.03
  L 472.14 542.25
  L 472.41 542.10
  L 472.70 542.19
  L 472.72 542.21
  L 516.77 586.26
  L 516.83 586.32
  L 517.30 586.46
  L 517.75 586.26
  L 528.86 575.27
  L 529.02 574.87
  L 528.86 574.48
  L 482.24 527.86
  L 482.06 527.47
  L 482.18 527.06
  L 496.21 507.73
  L 496.60 507.50
  L 497.04 507.63
  L 497.07 507.66
  L 546.45 557.04
  L 546.95 557.25
  L 547.45 557.04
  L 558.33 546.27
  L 558.46 545.97
  L 558.34 545.67
  L 558.34 545.67
  L 505.67 493.00
  L 505.53 492.70
  L 505.61 492.38
  L 512.99 481.24
  L 521.62 468.78
  L 534.67 450.53
  L 543.23 438.62
  L 549.31 430.49
  L 554.42 424.41
  L 566.61 411.08
  L 566.88 410.96
  L 567.16 411.07
  L 567.16 411.07
  L 628.57 473.13
  L 628.73 473.53
  L 628.57 473.92
  L 586.19 516.30
  L 586.19 516.30
  L 586.19 516.65
  L 626.46 556.92
  L 626.85 557.08
  L 627.25 556.92
  L 669.53 514.64
  L 670.13 514.39
  L 670.73 514.64
  L 731.78 575.68
  L 731.90 575.95
  L 731.80 576.22
  L 720.23 589.83
  L 719.72 590.33
  L 709.23 598.24
  L 680.52 618.07
  L 652.23 636.70
  L 651.80 636.82
  L 651.37 636.69
  L 648.67 634.79
  L 646.78 633.22
  L 621.34 608.66
  L 597.58 585.34
  L 597.20 585.18
  L 596.82 585.34
  L 585.72 596.32
  L 585.71 596.33
  L 585.59 596.65
  L 585.72 596.96
  L 634.62 645.86
  L 634.78 646.25
  L 634.59 646.63
  L 634.55 646.66
  Z"
/>
<path d="
  M 728.82 559.24
  L 676.85 507.27
  L 676.77 506.94
  L 676.85 506.79
  L 691.16 492.62
  L 691.62 492.60
  L 712.36 509.21
  L 712.81 509.19
  L 712.82 509.19
  L 780.97 441.75
  L 781.45 441.75
  L 797.59 457.89
  L 798.07 457.89
  L 845.06 411.40
  L 845.27 411.30
  L 845.54 411.40
  L 861.71 427.74
  L 861.71 427.74
  L 861.71 428.22
  L 729.30 559.24
  L 728.82 559.24
  Z"
/>
</g>
</svg>
