<?xml version="1.0" encoding="UTF-8" standalone="no"?>
<!DOCTYPE svg PUBLIC "-//W3C//DTD SVG 1.1//EN" "http://www.w3.org/Graphics/SVG/1.1/DTD/svg11.dtd">
<svg xmlns="http://www.w3.org/2000/svg" version="1.1" viewBox="0.00 0.00 755.00 780.00" width="755.00" height="780.00">
<path stroke="#a2e9bb" stroke-width="2.00" fill="none" stroke-linecap="butt" vector-effect="non-scaling-stroke" d="
  M 413.89 754.06
  L 414.37 754.59
  L 414.86 754.77
  L 415.15 754.70
  L 415.39 754.21
  L 415.12 753.62
  L 414.70 753.25
  L 414.10 753.01"
/>
<g fill="#ffffff">
<path d="
  M 228.51 456.22
  L 228.15 456.39
  L 228.03 456.78
  L 228.03 456.78
  L 228.03 456.81
  L 229.55 464.78
  L 229.95 467.15
  L 230.08 469.25
  L 229.93 471.09
  L 229.51 472.66
  L 228.60 474.40
  L 227.36 475.77
  L 227.36 475.77
  L 227.36 475.77
  L 226.32 476.51
  L 225.13 477.07
  L 223.79 477.45
  L 222.29 477.66
  L 220.58 477.62
  L 219.00 477.24
  L 219.00 477.24
  L 217.72 476.63
  L 216.53 475.76
  L 215.44 474.63
  L 214.44 473.25
  L 214.21 472.67
  L 211.10 456.68
  L 210.88 456.30
  L 210.46 456.15
  L 48.23 456.15
  L 48.06 456.17
  L 47.51 456.60
  L 47.51 457.29
  L 54.53 471.24
  L 62.13 484.76
  L 70.30 497.87
  L 79.06 510.56
  L 79.06 510.56
  L 79.06 510.56
  L 79.06 510.56
  L 84.69 518.12
  L 90.55 525.52
  L 96.62 532.76
  L 102.91 539.84
  L 109.16 546.49
  L 115.60 552.93
  L 122.21 559.16
  L 129.00 565.18
  L 129.00 565.18
  L 129.00 565.18
  L 137.41 572.17
  L 146.09 578.85
  L 155.03 585.24
  L 164.23 591.32
  L 173.68 597.11
  L 183.40 602.59
  L 193.37 607.77
  L 203.60 612.65
  L 213.39 616.94
  L 223.30 620.93
  L 233.93 624.82
  L 235.24 625.41
  L 236.36 626.21
  L 236.36 626.21
  L 237.72 627.87
  L 238.65 630.02
  L 239.05 632.50
  L 238.78 634.79
  L 237.88 636.92
  L 236.43 638.64
  L 234.76 639.74
  L 232.81 640.39
  L 230.75 640.53
  L 228.53 640.14
  L 223.53 638.47
  L 216.96 635.95
  L 199.10 628.35
  L 185.61 621.99
  L 172.46 615.03
  L 159.54 607.42
  L 147.00 599.24
  L 134.75 590.43
  L 122.90 581.08
  L 111.42 571.14
  L 100.38 560.70
  L 89.81 549.76
  L 79.74 538.37
  L 70.17 526.53
  L 61.13 514.28
  L 52.66 501.65
  L 44.75 488.65
  L 37.47 475.38
  L 30.78 461.79
  L 26.85 452.95
  L 23.19 443.96
  L 19.79 434.81
  L 16.67 425.51
  L 13.82 416.06
  L 11.24 406.45
  L 8.92 396.69
  L 6.88 386.77
  L 5.10 376.72
  L 3.59 366.73
  L 2.37 356.82
  L 1.44 346.97
  L 0.78 337.19
  L 0.41 327.48
  L 0.32 317.83
  L 0.51 308.26
  L 1.28 295.71
  L 2.74 282.15
  L 4.91 267.58
  L 7.77 252.00
  L 9.92 242.32
  L 12.58 232.16
  L 15.76 221.53
  L 19.47 210.42
  L 23.08 200.64
  L 27.02 190.99
  L 31.34 181.40
  L 35.97 171.96
  L 40.95 162.64
  L 46.24 153.50
  L 51.83 144.54
  L 57.70 135.79
  L 63.91 127.19
  L 70.38 118.82
  L 77.13 110.69
  L 84.12 102.80
  L 91.37 95.17
  L 98.85 87.81
  L 106.56 80.74
  L 114.48 73.95
  L 123.22 66.96
  L 132.12 60.32
  L 141.18 54.03
  L 150.38 48.09
  L 159.75 42.50
  L 169.26 37.26
  L 178.93 32.37
  L 188.75 27.82
  L 188.75 27.82
  L 188.75 27.82
  L 188.75 27.82
  L 198.06 23.90
  L 207.50 20.27
  L 217.08 16.96
  L 226.79 13.94
  L 236.63 11.23
  L 246.61 8.83
  L 256.72 6.73
  L 266.97 4.93
  L 280.14 3.14
  L 293.94 1.85
  L 308.36 1.08
  L 323.41 0.82
  L 330.95 1.19
  L 338.50 1.49
  L 344.81 1.88
  L 352.00 2.59
  L 369.01 4.98
  L 379.58 6.86
  L 390.02 9.06
  L 400.32 11.57
  L 410.48 14.39
  L 420.50 17.52
  L 430.38 20.97
  L 440.12 24.73
  L 449.73 28.80
  L 449.73 28.80
  L 449.73 28.80
  L 449.73 28.80
  L 461.47 34.29
  L 472.99 40.26
  L 484.30 46.72
  L 495.40 53.66
  L 503.52 59.17
  L 511.61 65.05
  L 519.72 71.36
  L 527.79 78.06
  L 535.88 85.18
  L 544.00 92.72
  L 552.25 100.80
  L 560.62 109.39
  L 562.97 112.35
  L 563.40 113.28
  L 563.78 115.42
  L 563.81 117.35
  L 563.49 119.08
  L 562.82 120.59
  L 562.82 120.59
  L 561.36 122.31
  L 558.95 123.89
  L 557.72 124.34
  L 556.46 124.57
  L 556.46 124.57
  L 556.46 124.57
  L 555.12 124.57
  L 553.75 124.32
  L 552.36 123.82
  L 550.94 123.07
  L 550.18 122.45
  L 542.12 114.18
  L 533.26 105.68
  L 523.60 96.96
  L 513.14 88.02
  L 503.05 79.91
  L 493.00 72.47
  L 483.01 65.69
  L 473.07 59.59
  L 459.39 52.08
  L 445.47 45.31
  L 431.29 39.28
  L 416.86 34.00
  L 416.86 34.00
  L 416.86 34.00
  L 416.86 34.00
  L 416.86 34.00
  L 403.07 29.71
  L 389.05 26.08
  L 374.82 23.10
  L 360.36 20.78
  L 360.01 21.06
  L 360.01 21.08
  L 360.12 21.80
  L 360.42 22.34
  L 360.47 22.40
  L 367.20 29.53
  L 373.25 36.39
  L 378.63 42.97
  L 383.34 49.26
  L 387.55 55.41
  L 391.68 61.90
  L 395.76 68.78
  L 399.75 75.98
  L 403.70 83.59
  L 407.58 91.56
  L 411.45 100.00
  L 415.28 108.86
  L 420.35 121.59
  L 424.97 134.62
  L 429.14 147.97
  L 432.87 161.62
  L 435.53 172.56
  L 437.87 183.13
  L 439.87 193.32
  L 441.55 203.13
  L 441.77 203.52
  L 442.19 203.68
  L 472.15 203.61
  L 474.60 203.64
  L 476.66 203.86
  L 478.33 204.26
  L 479.61 204.86
  L 481.02 205.96
  L 482.14 207.26
  L 482.88 208.52
  L 483.39 209.85
  L 483.68 211.23
  L 483.75 212.64
  L 483.60 214.03
  L 483.23 215.38
  L 482.63 216.65
  L 481.82 217.82
  L 480.08 219.39
  L 478.93 220.00
  L 477.57 220.44
  L 474.19 220.77
  L 444.67 220.74
  L 444.28 220.91
  L 444.14 221.31
  L 444.14 221.33
  L 446.00 238.02
  L 447.27 250.77
  L 448.31 264.48
  L 449.43 285.12
  L 450.17 307.00
  L 450.11 309.51
  L 449.78 311.59
  L 449.16 313.25
  L 448.28 314.53
  L 447.14 315.63
  L 445.96 316.48
  L 444.74 317.08
  L 443.47 317.44
  L 443.47 317.44
  L 443.47 317.44
  L 441.68 317.53
  L 440.15 317.33
  L 438.77 316.94
  L 437.53 316.38
  L 436.44 315.64
  L 436.44 315.64
  L 436.44 315.64
  L 435.40 314.61
  L 434.53 313.37
  L 433.99 312.04
  L 433.61 310.19
  L 433.32 304.91
  L 433.16 292.00
  L 433.11 290.51
  L 432.22 273.20
  L 430.95 255.95
  L 429.28 238.76
  L 427.22 221.63
  L 427.02 221.25
  L 426.63 221.09
  L 410.78 220.77
  L 394.95 220.75
  L 392.59 220.94
  L 390.51 220.87
  L 388.80 220.74
  L 364.18 220.74
  L 360.34 220.95
  L 357.52 220.89
  L 355.21 220.74
  L 258.94 220.77
  L 257.42 220.84
  L 254.91 220.93
  L 252.91 220.79
  L 251.32 220.69
  L 249.26 220.81
  L 247.19 220.93
  L 245.53 220.84
  L 240.98 220.86
  L 233.70 221.03
  L 225.26 220.61
  L 224.30 220.91
  L 223.80 221.78
  L 221.03 243.25
  L 218.98 264.91
  L 217.64 286.74
  L 217.02 308.75
  L 216.78 310.71
  L 216.71 311.34
  L 216.69 324.80
  L 216.91 341.76
  L 217.75 366.27
  L 219.39 390.61
  L 220.50 402.73
  L 221.81 414.80
  L 223.32 426.84
  L 225.02 438.83
  L 225.27 439.27
  L 225.75 439.44
  L 232.36 439.37
  L 237.42 439.51
  L 239.67 440.00
  L 239.67 440.00
  L 239.67 440.00
  L 240.73 440.54
  L 241.71 441.27
  L 243.44 443.31
  L 244.48 445.42
  L 244.88 447.55
  L 244.88 447.55
  L 244.60 449.89
  L 243.59 452.25
  L 242.47 453.77
  L 241.11 454.92
  L 241.11 454.92
  L 241.11 454.92
  L 239.02 455.83
  L 236.52 456.13
  L 228.51 456.22
  Z
  M 188.91 46.12
  L 186.65 47.20
  L 177.74 51.61
  L 169.04 56.27
  L 160.55 61.17
  L 152.28 66.33
  L 144.22 71.73
  L 136.38 77.39
  L 128.75 83.29
  L 121.33 89.44
  L 121.33 89.44
  L 121.33 89.44
  L 121.33 89.44
  L 112.24 97.61
  L 103.48 106.17
  L 95.07 115.13
  L 87.01 124.49
  L 79.29 134.26
  L 71.91 144.42
  L 64.88 154.98
  L 58.19 165.95
  L 53.21 174.88
  L 48.57 184.02
  L 44.25 193.38
  L 40.27 202.96
  L 40.30 203.41
  L 40.66 203.67
  L 40.66 203.67
  L 40.76 203.68
  L 208.99 203.68
  L 209.60 203.46
  L 209.92 202.89
  L 212.17 190.06
  L 215.18 174.98
  L 217.08 166.37
  L 219.18 157.79
  L 221.47 149.35
  L 223.95 140.96
  L 226.63 132.64
  L 229.51 124.39
  L 232.55 116.30
  L 235.79 108.29
  L 239.19 100.44
  L 242.78 92.68
  L 246.52 85.11
  L 250.44 77.65
  L 254.53 70.34
  L 258.81 63.14
  L 263.21 56.16
  L 267.80 49.30
  L 273.50 41.48
  L 279.65 33.92
  L 286.26 26.62
  L 293.32 19.58
  L 293.36 19.54
  L 293.64 18.83
  L 293.64 18.80
  L 293.52 18.54
  L 293.24 18.45
  L 277.30 20.25
  L 261.58 22.82
  L 246.08 26.15
  L 230.82 30.24
  L 230.82 30.24
  L 220.92 33.34
  L 211.11 36.77
  L 201.41 40.52
  L 191.80 44.61
  L 188.91 46.12
  Z
  M 325.53 203.67
  L 423.90 203.61
  L 423.94 203.61
  L 424.25 203.44
  L 424.34 203.09
  L 421.34 186.79
  L 417.68 170.50
  L 413.36 154.22
  L 408.38 137.95
  L 404.45 126.71
  L 399.88 115.18
  L 394.68 103.34
  L 388.84 91.21
  L 384.13 82.22
  L 379.24 73.71
  L 374.20 65.71
  L 368.97 58.16
  L 363.47 50.96
  L 357.78 44.19
  L 351.74 37.68
  L 345.48 31.58
  L 338.11 25.10
  L 330.41 19.06
  L 329.50 18.76
  L 325.62 18.72
  L 321.74 18.75
  L 320.83 19.06
  L 313.13 25.09
  L 305.74 31.56
  L 299.48 37.65
  L 293.44 44.16
  L 287.73 50.93
  L 282.23 58.12
  L 276.99 65.67
  L 271.94 73.66
  L 267.05 82.16
  L 262.33 91.15
  L 256.48 103.27
  L 251.27 115.10
  L 246.69 126.64
  L 242.75 137.87
  L 237.75 154.14
  L 233.41 170.41
  L 229.74 186.70
  L 226.72 203.00
  L 226.81 203.34
  L 227.12 203.52
  L 227.16 203.52
  L 325.53 203.67
  Z
  M 208.39 438.91
  L 206.48 424.83
  L 204.82 410.74
  L 203.42 396.66
  L 202.27 382.58
  L 201.37 368.50
  L 200.73 354.42
  L 200.34 340.35
  L 200.21 326.27
  L 200.16 325.74
  L 200.01 324.09
  L 200.14 321.93
  L 200.25 320.25
  L 200.59 296.82
  L 201.66 273.76
  L 203.46 251.06
  L 205.99 228.73
  L 206.77 221.25
  L 206.64 220.89
  L 206.29 220.73
  L 206.29 220.73
  L 206.28 220.73
  L 33.85 220.73
  L 33.81 220.73
  L 33.50 220.91
  L 33.42 221.26
  L 33.39 221.88
  L 33.21 222.23
  L 32.78 223.22
  L 30.29 230.96
  L 28.01 238.73
  L 25.94 246.52
  L 24.08 254.33
  L 22.43 262.17
  L 20.99 270.03
  L 19.76 277.92
  L 18.73 285.83
  L 18.73 285.83
  L 18.73 285.83
  L 17.93 293.64
  L 17.32 301.49
  L 16.93 309.35
  L 16.73 317.24
  L 16.74 325.15
  L 16.94 333.08
  L 17.36 341.04
  L 17.97 349.02
  L 19.59 363.46
  L 21.85 377.72
  L 24.73 391.80
  L 28.26 405.71
  L 30.72 414.11
  L 33.41 422.44
  L 36.34 430.71
  L 39.51 438.91
  L 40.06 439.37
  L 40.23 439.39
  L 207.98 439.39
  L 208.01 439.39
  L 208.30 439.23
  L 208.39 438.91
  Z"
/>
<path d="
  M 360.01 557.39
  L 418.50 557.41
  L 422.46 557.84
  L 427.66 559.14
  L 431.88 560.67
  L 436.06 562.76
  L 440.04 565.37
  L 443.74 568.39
  L 447.28 571.94
  L 450.45 575.83
  L 453.29 580.08
  L 455.70 584.55
  L 475.31 626.14
  L 477.15 629.62
  L 479.27 632.78
  L 481.65 635.62
  L 484.30 638.15
  L 484.30 638.15
  L 486.52 639.88
  L 488.91 641.42
  L 491.46 642.77
  L 494.16 643.94
  L 496.38 644.65
  L 498.84 645.17
  L 501.55 645.50
  L 504.49 645.63
  L 523.75 645.71
  L 526.21 645.56
  L 528.48 645.18
  L 532.66 643.93
  L 536.58 642.18
  L 536.58 642.18
  L 536.58 642.18
  L 536.58 642.18
  L 539.66 640.32
  L 542.55 638.11
  L 545.26 635.55
  L 547.78 632.64
  L 549.49 630.11
  L 551.19 626.87
  L 552.88 622.93
  L 554.56 618.28
  L 561.48 597.47
  L 564.47 589.10
  L 567.43 582.19
  L 569.61 578.21
  L 572.26 574.44
  L 575.39 570.87
  L 578.89 567.61
  L 582.71 564.72
  L 586.79 562.23
  L 591.00 560.24
  L 595.35 558.73
  L 598.07 558.11
  L 601.30 557.68
  L 609.28 557.34
  L 665.91 557.38
  L 665.91 557.38
  L 666.19 557.26
  L 666.30 556.98
  L 666.09 551.52
  L 665.66 545.85
  L 664.14 533.89
  L 661.73 521.09
  L 658.44 507.46
  L 658.08 504.87
  L 658.45 502.51
  L 658.45 502.51
  L 659.02 501.21
  L 659.86 500.00
  L 660.95 498.87
  L 662.31 497.83
  L 663.17 497.44
  L 664.86 497.09
  L 666.45 496.99
  L 667.92 497.15
  L 669.29 497.57
  L 670.44 498.18
  L 671.51 499.01
  L 672.48 500.05
  L 673.36 501.30
  L 673.77 502.21
  L 676.91 513.32
  L 679.38 524.40
  L 681.17 535.47
  L 682.30 546.51
  L 683.01 561.34
  L 683.04 568.44
  L 682.66 576.18
  L 681.61 587.24
  L 680.06 598.17
  L 678.00 608.97
  L 675.45 619.63
  L 675.45 619.63
  L 675.45 619.63
  L 671.83 631.92
  L 667.52 644.03
  L 663.21 654.12
  L 657.85 664.79
  L 653.40 672.73
  L 648.70 680.40
  L 643.75 687.80
  L 638.55 694.93
  L 633.10 701.80
  L 627.40 708.40
  L 621.44 714.73
  L 615.24 720.79
  L 615.24 720.79
  L 615.24 720.79
  L 615.24 720.79
  L 615.24 720.79
  L 609.08 726.33
  L 602.69 731.62
  L 596.08 736.67
  L 589.23 741.48
  L 582.16 746.04
  L 574.85 750.36
  L 567.32 754.43
  L 559.56 758.26
  L 548.03 763.32
  L 536.42 767.66
  L 524.75 771.29
  L 513.01 774.20
  L 503.49 776.04
  L 493.86 777.45
  L 484.11 778.44
  L 474.24 778.99
  L 467.92 779.10
  L 463.16 778.92
  L 455.81 778.60
  L 448.46 778.02
  L 440.42 777.00
  L 432.49 775.71
  L 424.67 774.15
  L 416.97 772.32
  L 409.38 770.22
  L 401.91 767.85
  L 394.55 765.21
  L 387.31 762.30
  L 387.31 762.30
  L 387.31 762.30
  L 387.31 762.30
  L 387.31 762.30
  L 380.17 759.12
  L 373.16 755.67
  L 366.25 751.95
  L 359.46 747.96
  L 352.79 743.70
  L 346.23 739.17
  L 339.78 734.37
  L 333.45 729.30
  L 327.96 724.60
  L 322.65 719.76
  L 317.51 714.77
  L 312.55 709.63
  L 307.77 704.36
  L 303.18 698.96
  L 298.78 693.42
  L 294.56 687.75
  L 290.56 681.98
  L 286.75 676.08
  L 283.14 670.06
  L 279.73 663.93
  L 276.55 657.73
  L 273.57 651.43
  L 270.81 645.02
  L 268.25 638.50
  L 264.83 628.57
  L 261.90 618.42
  L 259.50 608.17
  L 257.59 597.74
  L 256.67 590.77
  L 255.60 580.50
  L 254.91 569.15
  L 254.89 556.64
  L 255.06 553.49
  L 256.17 539.46
  L 257.90 526.40
  L 260.26 514.32
  L 261.67 508.64
  L 263.23 503.20
  L 267.20 491.42
  L 271.81 479.74
  L 277.05 468.15
  L 282.93 456.65
  L 288.30 447.33
  L 294.03 438.54
  L 300.10 430.29
  L 306.53 422.57
  L 314.42 414.16
  L 322.87 406.11
  L 331.72 398.57
  L 341.15 391.40
  L 351.03 384.68
  L 361.48 378.35
  L 372.34 372.48
  L 383.76 367.01
  L 391.52 363.74
  L 399.55 360.81
  L 407.85 358.20
  L 416.42 355.92
  L 423.49 354.40
  L 430.44 353.30
  L 437.28 352.60
  L 443.99 352.32
  L 449.83 352.02
  L 457.02 351.73
  L 470.65 352.11
  L 479.02 352.58
  L 489.10 353.87
  L 500.22 355.99
  L 508.66 358.09
  L 516.72 360.59
  L 518.98 361.52
  L 520.75 362.56
  L 522.13 363.77
  L 523.17 365.23
  L 523.77 366.78
  L 524.04 368.58
  L 523.96 370.41
  L 523.55 372.09
  L 522.84 373.60
  L 521.86 374.90
  L 520.71 375.92
  L 519.36 376.71
  L 517.84 377.25
  L 516.15 377.52
  L 514.25 377.32
  L 510.94 376.53
  L 501.99 374.26
  L 493.78 372.41
  L 486.30 371.00
  L 479.56 370.01
  L 468.42 368.99
  L 458.34 368.65
  L 448.22 368.84
  L 446.50 369.18
  L 444.97 370.02
  L 438.41 375.25
  L 432.12 380.72
  L 426.09 386.44
  L 420.33 392.40
  L 414.45 399.05
  L 408.89 405.98
  L 403.62 413.20
  L 398.66 420.69
  L 394.90 426.85
  L 391.34 433.07
  L 387.97 439.36
  L 384.79 445.72
  L 381.80 452.14
  L 379.01 458.63
  L 376.42 465.19
  L 374.01 471.82
  L 374.01 471.82
  L 371.08 480.86
  L 369.01 488.08
  L 367.15 495.37
  L 365.50 502.73
  L 364.07 510.16
  L 362.84 517.66
  L 361.83 525.24
  L 361.03 532.88
  L 360.44 540.60
  L 360.18 544.51
  L 359.74 551.59
  L 359.59 556.96
  L 359.71 557.26
  L 360.01 557.39
  L 360.01 557.39
  Z
  M 272.01 557.38
  L 342.16 557.38
  L 342.53 557.23
  L 342.70 556.87
  L 343.33 544.01
  L 344.07 533.07
  L 345.24 521.56
  L 346.90 510.17
  L 349.03 498.91
  L 351.65 487.77
  L 351.65 487.77
  L 351.65 487.77
  L 354.32 478.19
  L 357.35 468.70
  L 360.74 459.30
  L 364.50 450.00
  L 369.65 438.69
  L 375.31 427.73
  L 381.49 417.13
  L 388.17 406.87
  L 388.17 406.87
  L 388.17 406.87
  L 388.17 406.87
  L 392.32 401.05
  L 396.64 395.35
  L 401.13 389.76
  L 405.80 384.30
  L 409.63 380.16
  L 413.66 376.20
  L 413.82 375.94
  L 413.68 375.38
  L 413.12 375.22
  L 406.32 377.09
  L 399.57 379.27
  L 392.89 381.75
  L 386.27 384.53
  L 380.31 387.30
  L 374.49 390.23
  L 368.79 393.32
  L 363.23 396.58
  L 357.81 400.00
  L 352.51 403.59
  L 347.34 407.34
  L 342.31 411.25
  L 342.31 411.25
  L 342.31 411.25
  L 342.31 411.25
  L 336.82 415.84
  L 331.49 420.64
  L 326.33 425.65
  L 321.34 430.86
  L 315.59 437.47
  L 310.07 444.61
  L 304.77 452.30
  L 299.74 460.47
  L 294.99 469.08
  L 290.56 478.08
  L 286.43 487.49
  L 282.67 497.18
  L 280.08 504.78
  L 277.83 512.44
  L 275.93 520.17
  L 274.36 527.95
  L 274.36 527.95
  L 274.36 527.95
  L 274.36 527.95
  L 273.22 535.11
  L 272.37 542.31
  L 271.80 549.57
  L 271.52 556.88
  L 271.66 557.23
  L 272.01 557.38
  L 272.01 557.38
  Z
  M 413.89 754.06
  L 414.37 754.59
  L 414.86 754.77
  L 415.15 754.70
  L 415.39 754.21
  L 415.12 753.62
  L 414.70 753.25
  L 414.10 753.01
  L 413.93 752.51
  L 413.47 751.75
  L 407.58 745.22
  L 402.03 738.69
  L 396.89 732.23
  L 392.09 725.76
  L 387.63 719.26
  L 383.53 712.78
  L 379.81 706.33
  L 376.47 699.93
  L 368.09 682.42
  L 363.25 670.82
  L 358.92 659.04
  L 358.92 659.04
  L 354.89 646.32
  L 351.45 633.41
  L 348.59 620.29
  L 346.31 606.98
  L 345.16 598.56
  L 344.26 590.34
  L 343.59 582.34
  L 343.16 574.54
  L 343.01 574.20
  L 342.66 574.06
  L 272.12 574.06
  L 272.10 574.06
  L 271.70 574.25
  L 271.56 574.66
  L 272.39 584.18
  L 273.65 593.78
  L 275.36 603.47
  L 277.50 613.25
  L 279.24 619.92
  L 281.24 626.49
  L 283.51 633.05
  L 286.03 639.51
  L 288.80 645.90
  L 291.81 652.17
  L 295.10 658.42
  L 298.61 664.54
  L 302.39 670.59
  L 306.38 676.50
  L 310.64 682.36
  L 315.12 688.08
  L 319.80 693.64
  L 324.68 699.06
  L 329.82 704.39
  L 335.15 709.55
  L 340.33 714.24
  L 345.65 718.72
  L 351.12 723.00
  L 356.72 727.07
  L 356.72 727.07
  L 362.84 731.17
  L 369.11 735.04
  L 375.55 738.68
  L 382.14 742.09
  L 388.90 745.26
  L 395.82 748.21
  L 402.90 750.93
  L 410.14 753.41
  L 413.89 754.06
  Z
  M 666.12 574.52
  L 666.00 574.20
  L 665.69 574.06
  L 665.68 574.06
  L 607.22 574.08
  L 604.27 574.19
  L 601.81 574.52
  L 599.24 575.16
  L 596.80 576.03
  L 594.03 577.35
  L 591.44 578.96
  L 588.98 580.91
  L 586.75 583.12
  L 584.73 585.59
  L 582.95 588.29
  L 581.44 591.17
  L 580.20 594.23
  L 571.85 618.92
  L 569.55 625.68
  L 567.35 631.35
  L 565.26 635.92
  L 563.26 639.39
  L 560.51 643.18
  L 557.52 646.68
  L 554.28 649.87
  L 550.82 652.73
  L 547.16 655.25
  L 543.31 657.40
  L 539.36 659.15
  L 535.25 660.53
  L 529.62 661.75
  L 523.75 662.26
  L 510.96 662.37
  L 500.28 662.00
  L 496.08 661.52
  L 492.17 660.62
  L 487.90 659.18
  L 483.86 657.42
  L 480.05 655.35
  L 476.47 652.97
  L 476.47 652.97
  L 472.73 649.93
  L 469.28 646.50
  L 466.12 642.68
  L 463.25 638.47
  L 461.45 635.22
  L 458.92 630.09
  L 440.62 590.91
  L 439.13 588.03
  L 437.42 585.39
  L 435.48 583.00
  L 433.33 580.86
  L 433.33 580.86
  L 431.19 579.13
  L 428.87 577.61
  L 426.36 576.28
  L 423.68 575.16
  L 420.09 574.34
  L 415.14 574.05
  L 365.00 574.04
  L 360.89 573.70
  L 360.83 573.69
  L 360.37 573.87
  L 360.19 574.33
  L 360.71 584.40
  L 361.57 594.36
  L 362.78 604.20
  L 364.33 613.93
  L 366.22 623.53
  L 368.47 633.03
  L 371.05 642.40
  L 373.99 651.66
  L 373.99 651.66
  L 373.99 651.66
  L 377.02 660.16
  L 380.35 668.57
  L 383.99 676.87
  L 387.92 685.07
  L 392.15 693.18
  L 396.67 701.18
  L 401.50 709.08
  L 406.62 716.88
  L 410.95 722.98
  L 415.48 728.89
  L 420.24 734.59
  L 425.21 740.09
  L 425.21 740.09
  L 430.61 745.61
  L 436.25 750.91
  L 442.12 755.99
  L 448.22 760.85
  L 449.82 761.74
  L 451.60 762.13
  L 464.37 762.74
  L 476.22 762.71
  L 487.31 762.05
  L 497.70 760.74
  L 504.28 759.57
  L 510.77 758.20
  L 517.18 756.64
  L 523.50 754.89
  L 529.75 752.95
  L 535.90 750.82
  L 541.98 748.49
  L 547.96 745.98
  L 547.96 745.98
  L 547.96 745.98
  L 547.96 745.98
  L 547.96 745.98
  L 554.18 743.12
  L 560.30 740.05
  L 566.33 736.77
  L 572.27 733.28
  L 578.04 729.62
  L 583.64 725.81
  L 589.07 721.84
  L 594.34 717.71
  L 599.43 713.42
  L 604.36 708.98
  L 609.11 704.38
  L 613.70 699.62
  L 613.70 699.62
  L 613.70 699.62
  L 613.70 699.62
  L 613.70 699.62
  L 618.45 694.34
  L 623.00 688.87
  L 627.35 683.22
  L 631.51 677.38
  L 635.47 671.37
  L 639.24 665.17
  L 642.82 658.80
  L 646.20 652.24
  L 649.75 644.65
  L 652.96 636.95
  L 655.83 629.15
  L 658.35 621.25
  L 658.35 621.25
  L 658.35 621.25
  L 661.33 609.88
  L 663.62 598.30
  L 665.22 586.51
  L 666.12 574.52
  Z"
/>
</g>
<g fill="#44d277">
<path d="
  M 635.91 145.11
  L 636.28 145.21
  L 641.47 145.58
  L 641.47 145.58
  L 647.70 146.33
  L 653.91 147.41
  L 660.08 148.82
  L 666.22 150.56
  L 672.06 152.53
  L 677.74 154.75
  L 683.36 157.27
  L 688.81 160.04
  L 694.11 163.08
  L 699.24 166.35
  L 704.17 169.86
  L 708.91 173.59
  L 712.97 177.10
  L 716.86 180.78
  L 720.59 184.62
  L 724.14 188.62
  L 727.53 192.77
  L 730.73 197.07
  L 733.76 201.51
  L 736.59 206.09
  L 739.23 210.78
  L 741.68 215.60
  L 743.93 220.54
  L 745.98 225.60
  L 747.81 230.71
  L 749.44 235.94
  L 750.85 241.26
  L 752.06 246.67
  L 753.12 252.95
  L 753.85 259.58
  L 754.23 266.55
  L 754.28 273.87
  L 753.83 278.64
  L 753.30 283.38
  L 752.68 287.70
  L 751.86 291.96
  L 750.82 296.15
  L 749.57 300.26
  L 749.57 300.26
  L 749.57 300.26
  L 749.57 300.26
  L 747.91 304.84
  L 745.98 309.32
  L 743.77 313.72
  L 741.30 318.03
  L 643.29 478.29
  L 641.69 480.48
  L 639.87 482.21
  L 637.79 483.52
  L 635.56 484.33
  L 632.59 484.66
  L 629.56 484.20
  L 626.64 483.01
  L 623.84 481.09
  L 621.83 478.89
  L 619.37 475.28
  L 569.02 393.97
  L 530.69 332.10
  L 522.48 318.76
  L 519.95 314.36
  L 517.68 309.87
  L 515.69 305.30
  L 513.96 300.63
  L 513.96 300.63
  L 513.96 300.63
  L 512.46 295.69
  L 511.24 290.66
  L 510.32 285.53
  L 509.68 280.31
  L 509.37 274.42
  L 509.30 266.27
  L 509.52 258.56
  L 510.07 252.25
  L 511.42 243.94
  L 513.29 235.82
  L 515.69 227.83
  L 518.61 220.07
  L 522.03 212.54
  L 525.94 205.30
  L 530.31 198.35
  L 535.15 191.72
  L 538.95 187.10
  L 542.99 182.68
  L 547.24 178.44
  L 551.73 174.41
  L 556.38 170.62
  L 561.24 167.05
  L 566.30 163.69
  L 571.56 160.56
  L 578.80 156.80
  L 586.25 153.55
  L 586.25 153.55
  L 586.25 153.55
  L 593.34 151.00
  L 600.60 148.88
  L 608.03 147.20
  L 615.64 145.96
  L 622.23 145.42
  L 628.24 144.95
  L 630.49 144.95
  L 633.15 145.41
  L 635.55 145.03
  L 635.64 145.02
  L 635.91 145.11
  Z
  M 631.79 463.77
  L 632.31 463.88
  L 632.74 463.60
  L 632.75 463.58
  L 728.36 307.40
  L 730.30 303.99
  L 731.98 300.50
  L 733.41 296.94
  L 734.60 293.31
  L 734.60 293.31
  L 734.60 293.31
  L 736.02 287.03
  L 737.05 278.85
  L 737.42 270.53
  L 737.14 262.08
  L 736.21 253.49
  L 735.34 248.42
  L 734.23 243.41
  L 732.87 238.47
  L 731.27 233.61
  L 729.42 228.77
  L 727.34 224.02
  L 725.03 219.39
  L 722.50 214.86
  L 719.74 210.43
  L 716.77 206.12
  L 713.59 201.96
  L 710.22 197.95
  L 706.69 194.12
  L 702.98 190.47
  L 699.09 186.98
  L 695.03 183.67
  L 690.05 180.03
  L 684.92 176.71
  L 679.64 173.73
  L 674.21 171.07
  L 674.21 171.07
  L 674.21 171.07
  L 674.21 171.07
  L 674.21 171.07
  L 668.96 168.87
  L 663.56 166.95
  L 658.04 165.34
  L 652.38 164.01
  L 646.59 162.98
  L 640.67 162.24
  L 634.62 161.79
  L 628.43 161.64
  L 623.53 161.99
  L 619.75 162.31
  L 616.59 162.55
  L 613.29 163.04
  L 607.99 164.14
  L 602.83 165.46
  L 597.81 167.00
  L 592.93 168.75
  L 588.18 170.71
  L 583.57 172.90
  L 579.10 175.30
  L 574.77 177.91
  L 574.77 177.91
  L 574.77 177.91
  L 568.30 182.41
  L 562.16 187.43
  L 555.18 194.13
  L 551.96 197.63
  L 548.93 201.23
  L 546.08 204.93
  L 543.42 208.73
  L 540.94 212.64
  L 538.64 216.64
  L 538.64 216.64
  L 538.64 216.64
  L 536.01 221.82
  L 533.66 227.15
  L 531.61 232.65
  L 529.85 238.31
  L 528.38 244.12
  L 527.20 250.09
  L 526.32 256.22
  L 525.72 262.51
  L 525.51 267.30
  L 525.51 267.30
  L 525.55 271.86
  L 525.83 276.43
  L 526.35 281.00
  L 527.11 285.58
  L 528.61 291.99
  L 530.58 298.00
  L 533.01 303.61
  L 535.90 308.82
  L 579.96 379.82
  L 631.26 463.23
  L 631.79 463.77
  Z"
/>
<path d="
  M 683.17 270.87
  L 682.92 275.89
  L 682.19 280.86
  L 680.96 285.74
  L 679.27 290.47
  L 677.12 295.01
  L 674.54 299.33
  L 671.54 303.36
  L 668.17 307.09
  L 664.44 310.46
  L 660.41 313.46
  L 656.09 316.04
  L 651.55 318.19
  L 646.82 319.88
  L 641.94 321.11
  L 636.97 321.84
  L 631.95 322.09
  L 626.93 321.84
  L 621.96 321.11
  L 617.08 319.88
  L 612.35 318.19
  L 607.81 316.04
  L 603.49 313.46
  L 599.46 310.46
  L 595.73 307.09
  L 592.36 303.36
  L 589.36 299.33
  L 586.78 295.01
  L 584.63 290.47
  L 582.94 285.74
  L 581.71 280.86
  L 580.98 275.89
  L 580.73 270.87
  L 580.98 265.85
  L 581.71 260.88
  L 582.94 256.00
  L 584.63 251.27
  L 586.78 246.73
  L 589.36 242.41
  L 592.36 238.38
  L 595.73 234.65
  L 599.46 231.28
  L 603.49 228.28
  L 607.81 225.70
  L 612.35 223.55
  L 617.08 221.86
  L 621.96 220.63
  L 626.93 219.90
  L 631.95 219.65
  L 636.97 219.90
  L 641.94 220.63
  L 646.82 221.86
  L 651.55 223.55
  L 656.09 225.70
  L 660.41 228.28
  L 664.44 231.28
  L 668.17 234.65
  L 671.54 238.38
  L 674.54 242.41
  L 677.12 246.73
  L 679.27 251.27
  L 680.96 256.00
  L 682.19 260.88
  L 682.92 265.85
  L 683.17 270.87
  Z
  M 666.75 270.92
  L 666.58 267.51
  L 666.08 264.14
  L 665.25 260.83
  L 664.10 257.61
  L 662.64 254.53
  L 660.89 251.60
  L 658.86 248.86
  L 656.57 246.33
  L 654.04 244.04
  L 651.30 242.01
  L 648.37 240.26
  L 645.29 238.80
  L 642.07 237.65
  L 638.76 236.82
  L 635.39 236.32
  L 631.98 236.15
  L 628.57 236.32
  L 625.20 236.82
  L 621.89 237.65
  L 618.67 238.80
  L 615.59 240.26
  L 612.66 242.01
  L 609.92 244.04
  L 607.39 246.33
  L 605.10 248.86
  L 603.07 251.60
  L 601.32 254.53
  L 599.86 257.61
  L 598.71 260.83
  L 597.88 264.14
  L 597.38 267.51
  L 597.21 270.92
  L 597.38 274.33
  L 597.88 277.70
  L 598.71 281.01
  L 599.86 284.23
  L 601.32 287.31
  L 603.07 290.24
  L 605.10 292.98
  L 607.39 295.51
  L 609.92 297.80
  L 612.66 299.83
  L 615.59 301.58
  L 618.67 303.04
  L 621.89 304.19
  L 625.20 305.02
  L 628.57 305.52
  L 631.98 305.69
  L 635.39 305.52
  L 638.76 305.02
  L 642.07 304.19
  L 645.29 303.04
  L 648.37 301.58
  L 651.30 299.83
  L 654.04 297.80
  L 656.57 295.51
  L 658.86 292.98
  L 660.89 290.24
  L 662.64 287.31
  L 664.10 284.23
  L 665.25 281.01
  L 666.08 277.70
  L 666.58 274.33
  L 666.75 270.92
  Z"
/>
<path d="
  M 413.89 754.06
  L 414.10 753.01
  L 414.70 753.25
  L 415.12 753.62
  L 415.12 753.62
  L 415.39 754.21
  L 415.15 754.70
  L 414.86 754.77
  L 414.37 754.59
  L 413.89 754.06
  Z"
/>
</g>
</svg>
