<?xml version="1.0" encoding="UTF-8" standalone="no"?>
<!DOCTYPE svg PUBLIC "-//W3C//DTD SVG 1.1//EN" "http://www.w3.org/Graphics/SVG/1.1/DTD/svg11.dtd">
<svg xmlns="http://www.w3.org/2000/svg" version="1.1" viewBox="0.00 0.00 823.00 877.00" width="823.00" height="877.00">
<g fill="#ffffff">
<path d="
  M 260.46 0.00
  L 354.33 0.00
  L 356.72 0.00
  L 763.25 0.14
  L 765.25 0.32
  L 768.09 0.88
  L 776.31 3.08
  L 776.45 3.14
  L 783.90 6.84
  L 784.57 7.32
  L 786.45 8.96
  L 788.51 10.18
  L 788.82 10.39
  L 794.40 15.58
  L 794.61 15.83
  L 798.30 20.86
  L 800.07 23.44
  L 801.47 25.81
  L 803.00 28.96
  L 804.27 32.16
  L 805.28 35.41
  L 806.03 38.70
  L 806.59 42.70
  L 806.77 46.76
  L 806.78 387.58
  L 806.72 387.98
  L 805.93 390.22
  L 804.91 392.13
  L 803.67 393.71
  L 802.20 394.96
  L 802.20 394.96
  L 802.20 394.96
  L 802.20 394.96
  L 800.16 396.03
  L 797.79 396.63
  L 794.84 396.78
  L 792.16 396.38
  L 789.80 395.45
  L 787.80 394.02
  L 786.34 392.30
  L 785.26 390.21
  L 784.62 387.88
  L 784.40 385.25
  L 784.42 49.58
  L 784.11 43.79
  L 783.72 41.46
  L 783.17 39.52
  L 781.46 35.67
  L 779.21 32.23
  L 779.21 32.23
  L 777.28 30.02
  L 775.08 28.03
  L 772.60 26.24
  L 769.86 24.67
  L 768.61 24.09
  L 766.42 23.33
  L 763.97 22.79
  L 761.32 22.49
  L 758.27 22.40
  L 51.34 22.39
  L 44.91 22.71
  L 42.41 23.11
  L 40.37 23.67
  L 37.60 24.81
  L 35.07 26.18
  L 32.76 27.78
  L 30.69 29.61
  L 30.69 29.61
  L 30.69 29.61
  L 28.61 31.98
  L 26.82 34.65
  L 25.34 37.61
  L 24.15 40.88
  L 23.60 43.22
  L 23.42 45.44
  L 23.43 830.75
  L 23.61 832.51
  L 24.16 834.95
  L 25.12 837.78
  L 26.43 840.44
  L 28.14 843.02
  L 30.14 845.36
  L 32.52 847.57
  L 35.13 849.47
  L 37.91 851.04
  L 40.81 852.26
  L 43.06 852.85
  L 45.99 853.27
  L 53.86 853.60
  L 487.26 853.59
  L 492.05 853.86
  L 493.79 854.20
  L 495.08 854.67
  L 497.15 855.95
  L 498.86 857.54
  L 498.86 857.54
  L 500.41 859.80
  L 500.71 860.59
  L 501.24 863.38
  L 501.32 865.94
  L 500.94 868.24
  L 500.12 870.30
  L 500.12 870.30
  L 500.12 870.30
  L 500.12 870.30
  L 499.03 871.90
  L 497.61 873.31
  L 495.84 874.54
  L 493.73 875.58
  L 491.44 876.04
  L 487.89 876.05
  L 482.11 875.89
  L 57.98 875.90
  L 44.55 875.82
  L 41.45 875.45
  L 38.25 874.84
  L 34.92 873.97
  L 31.49 872.86
  L 29.62 871.91
  L 27.91 871.01
  L 26.81 870.74
  L 26.31 870.64
  L 25.89 870.34
  L 24.81 869.52
  L 22.83 868.37
  L 19.70 866.27
  L 14.23 861.36
  L 12.00 859.00
  L 10.11 856.70
  L 7.39 852.76
  L 5.14 848.70
  L 3.35 844.52
  L 2.03 840.23
  L 2.01 840.16
  L 1.54 837.41
  L 1.20 833.42
  L 0.93 821.75
  L 0.94 45.01
  L 1.08 41.99
  L 1.51 38.95
  L 2.23 35.87
  L 3.23 32.77
  L 5.20 26.93
  L 5.47 26.41
  L 7.71 23.30
  L 7.88 23.01
  L 9.41 20.02
  L 11.07 17.80
  L 14.18 14.41
  L 15.41 12.81
  L 16.05 12.09
  L 20.02 9.26
  L 22.62 7.30
  L 24.66 6.05
  L 31.09 3.05
  L 34.15 1.95
  L 37.10 1.10
  L 39.47 0.66
  L 42.49 0.35
  L 50.46 0.10
  L 260.19 0.00
  L 260.23 0.01
  L 260.46 0.00
  Z"
/>
<rect x="100.17" y="138.11" width="606.68" height="22.06" rx="10.65"/>
<rect x="99.96" y="248.11" width="381.56" height="22.32" rx="10.69"/>
<rect x="100.04" y="358.38" width="290.02" height="22.74" rx="10.97"/>
<path d="
  M 131.01 661.26
  L 130.85 661.45
  L 130.87 765.85
  L 130.79 769.21
  L 130.53 771.93
  L 130.09 774.00
  L 129.48 775.42
  L 128.11 777.19
  L 126.51 778.60
  L 124.81 779.62
  L 122.98 780.33
  L 120.99 780.73
  L 118.97 780.79
  L 116.98 780.50
  L 115.07 779.87
  L 113.37 778.96
  L 111.84 777.74
  L 110.58 776.31
  L 109.56 774.60
  L 109.06 773.10
  L 108.70 770.96
  L 108.42 764.75
  L 108.40 656.35
  L 108.40 652.33
  L 108.67 649.01
  L 109.23 646.39
  L 110.07 644.47
  L 111.75 642.31
  L 113.76 640.68
  L 113.76 640.68
  L 115.24 639.90
  L 116.85 639.35
  L 118.61 639.02
  L 120.50 638.91
  L 302.16 638.86
  L 306.22 638.88
  L 309.55 639.16
  L 312.16 639.70
  L 314.05 640.50
  L 315.97 642.07
  L 317.52 644.22
  L 318.53 646.75
  L 318.96 649.47
  L 318.81 652.22
  L 318.05 654.84
  L 316.72 657.14
  L 314.97 658.89
  L 313.88 659.61
  L 312.31 660.27
  L 310.28 660.74
  L 307.78 661.03
  L 304.82 661.12
  L 132.29 661.13
  L 131.01 661.26
  Z"
/>
<rect x="-81.28" y="-11.09" transform="translate(232.99,707.72) rotate(-2.0)" width="162.56" height="22.18" rx="10.59"/>
<rect x="-81.30" y="-11.22" transform="translate(233.08,760.30) rotate(-1.8)" width="162.60" height="22.44" rx="10.90"/>
<path d="
  M 765.14 852.70
  L 768.54 851.47
  L 771.63 849.92
  L 774.42 848.07
  L 776.90 845.91
  L 776.90 845.91
  L 776.90 845.91
  L 779.21 843.27
  L 781.17 840.27
  L 782.78 836.92
  L 784.04 833.22
  L 784.21 832.18
  L 784.44 822.38
  L 784.35 810.76
  L 784.60 808.88
  L 785.38 805.50
  L 785.85 804.46
  L 787.24 802.67
  L 788.75 801.23
  L 790.36 800.15
  L 792.09 799.41
  L 792.09 799.41
  L 793.75 799.04
  L 795.49 798.97
  L 797.33 799.17
  L 799.26 799.67
  L 801.65 800.72
  L 803.61 802.21
  L 803.61 802.21
  L 803.61 802.21
  L 804.73 803.50
  L 805.64 805.00
  L 806.19 806.45
  L 806.58 808.31
  L 806.86 813.28
  L 806.88 821.88
  L 806.84 830.08
  L 806.40 834.94
  L 805.64 839.49
  L 805.21 840.79
  L 804.19 843.64
  L 803.57 846.06
  L 803.14 847.05
  L 801.47 849.69
  L 800.46 852.01
  L 800.10 852.83
  L 799.55 853.55
  L 796.90 856.79
  L 793.73 860.71
  L 791.22 863.15
  L 786.89 867.11
  L 785.71 867.88
  L 783.88 868.73
  L 781.57 870.10
  L 778.12 871.97
  L 772.27 874.03
  L 767.69 875.28
  L 763.07 875.88
  L 756.80 876.02
  L 730.25 875.88
  L 701.26 876.04
  L 699.45 875.74
  L 697.27 874.83
  L 695.32 873.57
  L 693.82 872.11
  L 692.73 870.53
  L 691.92 868.93
  L 691.38 867.31
  L 691.12 865.66
  L 691.12 865.66
  L 691.12 864.11
  L 691.36 862.54
  L 691.85 860.96
  L 692.57 859.35
  L 693.98 857.23
  L 695.73 855.60
  L 695.73 855.60
  L 697.18 854.75
  L 698.79 854.14
  L 700.58 853.77
  L 702.54 853.64
  L 758.63 853.62
  L 762.01 853.39
  L 765.14 852.70
  Z"
/>
</g>
<g fill="#40d542">
<path d="
  M 655.52 787.07
  L 651.19 827.52
  L 650.69 830.94
  L 650.05 833.37
  L 648.80 836.21
  L 647.29 838.71
  L 645.53 840.89
  L 643.50 842.74
  L 643.50 842.74
  L 643.50 842.74
  L 643.50 842.74
  L 640.60 844.59
  L 637.28 845.92
  L 633.56 846.74
  L 629.44 847.03
  L 595.32 847.17
  L 557.75 847.07
  L 555.65 846.93
  L 553.24 846.55
  L 551.00 845.98
  L 549.16 845.29
  L 546.67 843.98
  L 544.45 842.47
  L 542.52 840.74
  L 540.86 838.81
  L 540.86 838.81
  L 539.27 836.28
  L 538.07 833.47
  L 537.25 830.37
  L 536.82 826.98
  L 536.12 819.13
  L 532.39 787.07
  L 532.22 786.67
  L 531.86 786.41
  L 518.49 781.25
  L 507.96 776.52
  L 500.93 772.83
  L 494.09 768.84
  L 488.31 765.14
  L 482.67 761.21
  L 477.18 757.05
  L 471.82 752.67
  L 470.66 752.17
  L 469.42 752.41
  L 435.83 770.32
  L 435.19 770.55
  L 431.70 771.06
  L 428.41 771.08
  L 425.32 770.64
  L 422.43 769.71
  L 422.43 769.71
  L 422.43 769.71
  L 419.66 768.26
  L 417.10 766.31
  L 414.75 763.85
  L 412.61 760.88
  L 369.70 692.80
  L 368.46 690.52
  L 367.57 688.22
  L 367.02 685.83
  L 366.82 683.45
  L 366.94 681.32
  L 367.33 679.23
  L 367.98 677.19
  L 368.88 675.22
  L 370.04 673.28
  L 371.44 671.45
  L 373.06 669.72
  L 374.89 668.12
  L 411.38 640.00
  L 411.83 639.39
  L 411.91 638.64
  L 411.04 633.60
  L 409.99 627.17
  L 409.55 622.33
  L 409.54 622.05
  L 408.85 612.26
  L 408.73 606.64
  L 409.22 598.25
  L 409.41 595.49
  L 409.87 590.41
  L 410.56 585.37
  L 410.56 585.37
  L 410.56 585.37
  L 411.81 578.87
  L 413.44 572.42
  L 413.43 571.89
  L 413.13 571.46
  L 377.79 543.45
  L 376.04 541.90
  L 374.55 540.24
  L 373.32 538.46
  L 372.34 536.58
  L 372.34 536.58
  L 372.34 536.58
  L 371.75 535.00
  L 370.82 530.91
  L 370.70 527.00
  L 371.24 523.66
  L 372.40 520.25
  L 374.19 516.60
  L 377.15 511.64
  L 396.79 480.22
  L 410.57 458.59
  L 412.96 455.38
  L 415.55 452.82
  L 418.33 450.91
  L 421.32 449.64
  L 421.32 449.64
  L 421.32 449.64
  L 421.32 449.64
  L 423.08 449.22
  L 424.90 449.00
  L 426.78 448.98
  L 428.73 449.16
  L 432.80 450.14
  L 437.13 451.93
  L 454.48 460.66
  L 475.41 471.49
  L 475.91 471.58
  L 476.37 471.37
  L 482.24 466.30
  L 488.60 461.47
  L 495.30 457.02
  L 502.43 452.87
  L 509.89 449.08
  L 517.72 445.64
  L 525.70 442.64
  L 533.97 440.02
  L 534.50 439.68
  L 534.74 439.10
  L 538.55 398.22
  L 539.10 394.94
  L 540.16 391.89
  L 540.16 391.89
  L 541.49 389.45
  L 543.20 387.19
  L 545.96 384.52
  L 549.04 382.46
  L 549.04 382.46
  L 549.04 382.46
  L 551.42 381.38
  L 553.96 380.60
  L 556.67 380.13
  L 559.54 379.96
  L 628.99 379.90
  L 632.48 380.17
  L 635.92 380.92
  L 639.72 382.18
  L 643.06 384.07
  L 643.06 384.07
  L 643.06 384.07
  L 643.06 384.07
  L 644.87 385.54
  L 646.52 387.24
  L 648.00 389.18
  L 649.31 391.35
  L 650.13 393.24
  L 650.78 395.56
  L 651.25 398.30
  L 651.55 401.46
  L 652.46 412.05
  L 654.31 429.84
  L 654.62 436.53
  L 654.71 439.94
  L 654.88 440.38
  L 655.25 440.66
  L 667.90 445.38
  L 674.85 448.30
  L 681.61 451.52
  L 688.19 455.03
  L 694.59 458.84
  L 694.59 458.84
  L 703.32 464.74
  L 711.68 471.23
  L 712.10 471.41
  L 712.55 471.33
  L 752.93 451.42
  L 755.11 450.48
  L 757.29 449.78
  L 759.49 449.32
  L 761.70 449.10
  L 761.70 449.10
  L 764.22 449.14
  L 766.76 449.50
  L 769.82 450.36
  L 772.43 451.61
  L 774.48 453.06
  L 776.46 454.98
  L 778.45 457.45
  L 780.63 460.71
  L 817.95 520.54
  L 819.01 523.02
  L 819.76 526.35
  L 819.99 530.29
  L 819.81 532.16
  L 819.43 533.98
  L 818.32 537.01
  L 816.64 539.84
  L 814.35 542.54
  L 811.53 545.03
  L 776.73 572.45
  L 776.37 572.96
  L 776.36 573.58
  L 778.25 581.28
  L 779.61 588.93
  L 780.43 596.52
  L 780.72 604.05
  L 780.80 604.82
  L 781.05 607.44
  L 780.88 610.92
  L 780.72 613.71
  L 780.47 620.05
  L 779.85 626.47
  L 778.87 632.94
  L 777.52 639.49
  L 777.57 640.25
  L 778.02 640.86
  L 815.35 669.15
  L 816.90 670.51
  L 818.34 672.10
  L 819.66 673.92
  L 820.87 675.98
  L 822.02 678.70
  L 822.64 681.44
  L 822.74 684.46
  L 822.29 687.45
  L 821.27 690.50
  L 819.73 693.47
  L 777.29 760.02
  L 774.71 763.64
  L 772.49 765.88
  L 770.51 767.25
  L 768.44 768.41
  L 766.39 769.32
  L 764.27 770.01
  L 762.16 770.46
  L 760.03 770.65
  L 757.98 770.59
  L 755.93 770.28
  L 753.83 769.67
  L 751.75 768.75
  L 719.03 751.44
  L 718.36 751.32
  L 717.74 751.61
  L 712.65 756.16
  L 707.39 760.46
  L 701.98 764.50
  L 696.39 768.29
  L 696.39 768.29
  L 696.39 768.29
  L 688.53 773.04
  L 680.36 777.33
  L 675.78 779.43
  L 670.40 781.65
  L 657.23 786.48
  L 656.88 786.57
  L 656.37 786.59
  L 655.90 786.62
  L 655.52 787.07
  Z
  M 630.20 401.52
  L 560.02 401.52
  L 559.67 401.84
  L 556.16 438.98
  L 555.81 440.64
  L 555.66 441.85
  L 555.35 446.81
  L 555.00 448.74
  L 554.53 450.29
  L 554.16 451.14
  L 552.49 453.60
  L 550.07 455.75
  L 546.88 457.55
  L 542.96 458.97
  L 534.91 461.55
  L 527.02 464.57
  L 519.41 467.97
  L 512.01 471.78
  L 504.94 475.93
  L 498.13 480.47
  L 491.69 485.33
  L 485.57 490.54
  L 482.97 492.43
  L 480.17 493.60
  L 480.17 493.60
  L 480.17 493.60
  L 478.46 493.94
  L 476.69 494.05
  L 474.85 493.85
  L 472.72 493.27
  L 470.28 492.31
  L 467.54 490.98
  L 429.11 471.35
  L 428.26 471.26
  L 427.57 471.77
  L 392.63 526.99
  L 392.48 527.73
  L 392.86 528.38
  L 429.61 557.47
  L 431.61 559.18
  L 433.18 560.85
  L 434.30 562.46
  L 435.08 564.12
  L 435.60 566.28
  L 435.69 568.67
  L 435.37 571.49
  L 434.62 574.97
  L 433.10 581.73
  L 431.91 588.50
  L 431.03 595.29
  L 430.48 602.10
  L 430.48 602.10
  L 430.48 602.10
  L 430.25 611.50
  L 430.64 620.93
  L 431.63 630.40
  L 433.23 639.90
  L 433.53 643.17
  L 433.10 646.17
  L 432.26 648.39
  L 431.02 650.44
  L 429.32 652.42
  L 427.23 654.23
  L 389.64 682.71
  L 389.21 683.41
  L 389.37 684.21
  L 430.10 748.23
  L 430.49 748.65
  L 431.00 748.89
  L 431.57 748.93
  L 432.12 748.76
  L 465.38 730.40
  L 468.06 729.25
  L 470.78 728.80
  L 472.35 728.86
  L 473.87 729.16
  L 477.04 730.43
  L 480.40 732.59
  L 484.96 736.31
  L 485.74 736.98
  L 490.27 740.68
  L 494.95 744.22
  L 499.79 747.59
  L 504.79 750.79
  L 509.94 753.83
  L 515.24 756.70
  L 520.70 759.40
  L 526.31 761.94
  L 544.09 768.95
  L 546.09 769.87
  L 547.85 770.97
  L 549.36 772.25
  L 550.62 773.71
  L 550.62 773.71
  L 550.62 773.71
  L 550.62 773.71
  L 551.56 775.20
  L 552.29 776.84
  L 552.82 778.63
  L 553.15 780.57
  L 558.29 825.25
  L 558.50 825.64
  L 558.91 825.78
  L 566.75 825.49
  L 623.75 825.51
  L 629.91 825.85
  L 629.94 825.85
  L 630.25 825.73
  L 630.37 825.42
  L 630.69 819.25
  L 634.93 781.08
  L 635.32 778.87
  L 635.96 776.86
  L 636.84 775.04
  L 637.95 773.42
  L 639.32 771.99
  L 640.93 770.75
  L 642.78 769.71
  L 644.88 768.87
  L 655.36 765.17
  L 664.68 761.44
  L 670.48 758.82
  L 676.08 755.99
  L 681.48 752.97
  L 686.69 749.73
  L 691.71 746.30
  L 696.53 742.66
  L 701.15 738.82
  L 705.58 734.77
  L 705.58 734.77
  L 705.58 734.77
  L 705.87 734.49
  L 709.29 731.42
  L 711.48 729.99
  L 714.77 729.01
  L 717.72 728.75
  L 719.89 729.00
  L 722.29 729.68
  L 725.04 730.85
  L 728.62 732.70
  L 758.17 748.69
  L 759.03 748.80
  L 759.74 748.28
  L 799.68 685.15
  L 799.85 684.29
  L 799.39 683.54
  L 766.78 658.72
  L 764.96 657.33
  L 762.00 655.03
  L 760.05 653.29
  L 758.56 651.60
  L 757.44 649.88
  L 756.65 648.10
  L 756.08 646.05
  L 755.98 643.39
  L 756.55 639.52
  L 757.75 632.73
  L 758.63 625.91
  L 758.63 625.91
  L 758.63 625.91
  L 759.18 619.27
  L 759.42 612.60
  L 759.37 605.90
  L 759.02 599.16
  L 758.39 592.72
  L 757.42 586.05
  L 756.12 579.15
  L 754.48 572.02
  L 754.20 570.04
  L 754.33 567.96
  L 754.87 565.76
  L 755.81 563.45
  L 756.68 562.05
  L 757.99 560.54
  L 761.91 557.18
  L 797.35 529.30
  L 797.61 528.86
  L 797.51 528.35
  L 762.55 471.98
  L 762.09 471.48
  L 761.48 471.18
  L 760.81 471.11
  L 760.16 471.30
  L 716.79 492.54
  L 714.87 493.34
  L 713.07 493.87
  L 711.36 494.12
  L 709.72 494.12
  L 707.58 493.71
  L 705.46 492.87
  L 703.22 491.56
  L 700.70 489.68
  L 690.70 481.81
  L 686.12 478.63
  L 681.36 475.59
  L 676.43 472.71
  L 671.33 469.98
  L 666.05 467.39
  L 660.59 464.96
  L 654.96 462.67
  L 649.15 460.54
  L 644.13 458.65
  L 640.80 456.99
  L 638.25 455.11
  L 636.39 452.92
  L 635.67 451.63
  L 635.11 450.19
  L 634.48 447.01
  L 630.54 406.25
  L 630.35 403.45
  L 630.42 401.80
  L 630.22 401.52
  L 630.20 401.52
  Z"
/>
<path d="
  M 577.81 669.71
  L 579.56 668.04
  L 681.29 546.28
  L 683.04 544.33
  L 684.61 542.91
  L 686.22 541.87
  L 687.80 541.24
  L 690.18 540.94
  L 692.75 541.26
  L 694.51 541.81
  L 696.07 542.59
  L 697.50 543.62
  L 698.69 544.84
  L 699.75 546.39
  L 700.50 548.08
  L 700.95 549.89
  L 701.07 551.77
  L 700.86 553.66
  L 700.32 555.53
  L 699.50 557.24
  L 698.36 558.87
  L 654.44 611.62
  L 589.69 688.95
  L 586.69 692.24
  L 584.37 694.10
  L 582.57 695.01
  L 580.84 695.62
  L 579.09 695.95
  L 577.41 695.99
  L 574.78 695.49
  L 572.13 694.27
  L 569.40 692.28
  L 566.52 689.48
  L 518.66 637.82
  L 516.79 635.53
  L 515.47 633.26
  L 514.72 631.02
  L 514.53 628.79
  L 514.53 628.79
  L 514.53 628.79
  L 514.80 626.94
  L 515.47 625.10
  L 516.27 623.66
  L 517.23 622.36
  L 518.34 621.22
  L 519.57 620.25
  L 520.86 619.50
  L 522.24 618.93
  L 523.68 618.58
  L 525.18 618.44
  L 527.38 618.67
  L 529.61 619.43
  L 531.90 620.97
  L 534.80 623.74
  L 556.42 646.86
  L 577.19 669.63
  L 577.48 669.78
  L 577.81 669.71
  Z"
/>
</g>
</svg>
