<?xml version="1.0" encoding="UTF-8" standalone="no"?>
<!DOCTYPE svg PUBLIC "-//W3C//DTD SVG 1.1//EN" "http://www.w3.org/Graphics/SVG/1.1/DTD/svg11.dtd">
<svg xmlns="http://www.w3.org/2000/svg" version="1.1" viewBox="0.00 0.00 814.00 687.00" width="814.00" height="687.00">
<g fill="#ffffff">
<path d="
  M 237.12 665.98
  L 511.26 666.01
  L 513.99 666.19
  L 516.35 666.74
  L 518.34 667.65
  L 519.97 668.92
  L 519.97 668.92
  L 520.69 669.76
  L 521.60 671.18
  L 522.25 672.67
  L 522.68 674.30
  L 522.84 675.94
  L 522.73 677.57
  L 522.37 679.15
  L 521.76 680.66
  L 520.90 682.05
  L 519.84 683.27
  L 518.58 684.33
  L 517.19 685.15
  L 515.63 685.78
  L 513.74 686.11
  L 510.81 686.22
  L 154.25 686.24
  L 150.64 686.19
  L 148.21 685.96
  L 146.24 685.47
  L 144.67 684.74
  L 142.87 683.25
  L 141.23 681.00
  L 140.34 678.99
  L 140.34 678.99
  L 139.99 677.17
  L 140.01 675.23
  L 140.64 672.38
  L 141.91 670.00
  L 141.91 670.00
  L 141.91 670.00
  L 143.02 668.75
  L 144.38 667.69
  L 145.99 666.81
  L 147.84 666.11
  L 148.60 666.00
  L 214.67 666.00
  L 215.19 665.83
  L 215.51 665.38
  L 241.18 580.71
  L 241.19 580.64
  L 241.09 580.28
  L 240.74 580.12
  L 44.86 580.15
  L 39.35 580.07
  L 34.67 579.79
  L 30.82 579.31
  L 27.79 578.63
  L 24.59 577.53
  L 21.53 576.18
  L 18.62 574.59
  L 15.89 572.77
  L 13.34 570.73
  L 10.98 568.48
  L 8.83 566.02
  L 6.91 563.38
  L 5.34 560.77
  L 3.98 558.02
  L 2.88 555.22
  L 2.00 552.30
  L 1.48 549.63
  L 1.10 546.26
  L 0.80 537.40
  L 0.81 33.75
  L 1.01 30.80
  L 1.62 27.62
  L 2.63 24.20
  L 4.04 20.56
  L 5.46 17.62
  L 7.12 14.89
  L 8.99 12.36
  L 11.08 10.05
  L 14.17 7.30
  L 17.58 4.96
  L 21.30 3.02
  L 25.30 1.51
  L 27.81 0.91
  L 31.00 0.48
  L 39.37 0.14
  L 685.51 0.13
  L 691.50 0.22
  L 696.47 0.47
  L 700.42 0.90
  L 703.35 1.49
  L 706.96 2.73
  L 710.10 4.20
  L 713.11 6.00
  L 715.98 8.12
  L 718.72 10.57
  L 721.57 13.76
  L 724.03 17.38
  L 726.10 21.42
  L 727.78 25.90
  L 728.47 28.80
  L 728.94 32.49
  L 729.22 36.98
  L 729.28 42.27
  L 729.24 298.43
  L 729.16 301.50
  L 728.91 304.00
  L 728.48 305.91
  L 727.88 307.25
  L 726.42 309.10
  L 724.76 310.53
  L 722.86 311.59
  L 720.85 312.21
  L 718.86 312.40
  L 716.88 312.19
  L 714.96 311.60
  L 713.17 310.65
  L 711.60 309.38
  L 710.24 307.79
  L 709.19 305.98
  L 708.42 303.90
  L 708.30 303.02
  L 708.30 99.74
  L 708.13 99.34
  L 707.73 99.17
  L 707.73 99.17
  L 22.11 99.17
  L 21.63 99.37
  L 21.43 99.86
  L 21.43 443.92
  L 21.57 444.34
  L 21.94 444.59
  L 22.13 444.62
  L 425.19 444.62
  L 428.96 444.71
  L 432.02 445.00
  L 434.37 445.46
  L 436.02 446.12
  L 437.61 447.25
  L 438.90 448.62
  L 439.87 450.20
  L 440.53 452.02
  L 440.89 454.06
  L 440.95 456.34
  L 440.77 457.34
  L 439.38 460.23
  L 438.49 461.45
  L 437.45 462.51
  L 437.45 462.51
  L 437.45 462.51
  L 437.45 462.51
  L 436.13 463.51
  L 434.64 464.32
  L 433.16 464.79
  L 431.10 465.13
  L 425.25 465.40
  L 21.90 465.40
  L 21.90 465.40
  L 21.57 465.54
  L 21.43 465.87
  L 21.43 540.40
  L 21.66 545.48
  L 22.34 548.95
  L 23.63 551.87
  L 25.49 554.39
  L 26.78 555.61
  L 28.21 556.65
  L 29.85 557.55
  L 31.61 558.27
  L 35.71 559.25
  L 40.40 559.58
  L 434.74 559.58
  L 434.98 559.58
  L 438.41 559.91
  L 440.31 560.16
  L 441.26 560.39
  L 443.28 561.39
  L 444.95 562.56
  L 446.28 563.91
  L 447.27 565.43
  L 447.27 565.43
  L 447.27 565.43
  L 447.77 566.65
  L 448.09 567.98
  L 448.18 570.90
  L 447.65 573.51
  L 446.56 575.76
  L 445.61 576.96
  L 444.44 578.02
  L 442.94 578.93
  L 441.11 579.59
  L 438.97 579.98
  L 436.51 580.11
  L 263.54 580.11
  L 262.84 580.34
  L 262.42 580.94
  L 236.78 665.52
  L 236.82 665.81
  L 237.07 665.98
  L 237.07 665.98
  L 237.12 665.98
  Z
  M 364.93 78.66
  L 707.95 78.66
  L 707.95 78.66
  L 708.27 78.52
  L 708.41 78.19
  L 708.45 38.50
  L 708.38 35.67
  L 708.13 33.17
  L 707.69 30.98
  L 707.07 29.12
  L 705.81 26.75
  L 704.18 24.77
  L 704.18 24.77
  L 704.18 24.77
  L 701.83 22.97
  L 698.97 21.69
  L 695.61 20.91
  L 691.75 20.65
  L 364.93 20.65
  L 38.11 20.65
  L 34.25 20.91
  L 30.89 21.69
  L 28.03 22.97
  L 25.68 24.77
  L 25.68 24.77
  L 24.05 26.75
  L 22.79 29.12
  L 22.17 30.98
  L 21.74 33.17
  L 21.48 35.67
  L 21.41 38.50
  L 21.45 78.19
  L 21.59 78.52
  L 21.92 78.66
  L 21.92 78.66
  L 364.93 78.66
  Z"
/>
<path d="
  M 679.46 354.44
  L 682.89 355.59
  L 686.63 356.85
  L 693.21 359.69
  L 699.88 362.92
  L 700.71 363.06
  L 701.47 362.70
  L 709.21 355.36
  L 715.89 348.71
  L 718.45 346.22
  L 720.75 344.27
  L 722.77 342.86
  L 724.53 342.00
  L 727.22 341.28
  L 729.81 341.10
  L 732.89 341.53
  L 736.02 342.69
  L 739.23 344.63
  L 742.55 347.34
  L 765.77 368.87
  L 775.24 377.94
  L 781.33 384.30
  L 783.14 386.82
  L 784.29 389.54
  L 784.29 389.54
  L 784.72 391.64
  L 784.80 393.84
  L 784.53 396.14
  L 783.91 398.54
  L 782.30 401.51
  L 778.79 406.31
  L 772.01 414.77
  L 764.33 423.92
  L 764.06 424.54
  L 764.19 425.20
  L 767.96 432.81
  L 771.11 440.63
  L 771.11 440.63
  L 773.20 447.11
  L 773.60 447.72
  L 774.29 447.98
  L 794.19 449.01
  L 797.35 449.27
  L 800.05 449.69
  L 802.30 450.28
  L 804.08 451.03
  L 806.94 452.89
  L 809.35 455.14
  L 809.35 455.14
  L 811.01 457.32
  L 812.35 459.78
  L 812.93 461.48
  L 813.33 463.73
  L 813.64 469.87
  L 813.68 515.83
  L 813.64 518.90
  L 813.40 521.54
  L 812.96 523.77
  L 812.33 525.58
  L 811.09 527.89
  L 809.57 529.97
  L 809.57 529.97
  L 809.57 529.97
  L 807.15 532.35
  L 804.26 534.33
  L 802.77 535.00
  L 800.97 535.51
  L 796.42 536.04
  L 774.53 537.69
  L 773.76 538.00
  L 773.28 538.68
  L 771.60 543.44
  L 769.71 548.21
  L 765.25 557.77
  L 765.17 558.24
  L 765.38 558.66
  L 774.84 569.18
  L 778.80 573.98
  L 782.25 578.47
  L 783.78 580.83
  L 784.88 583.20
  L 785.55 585.58
  L 785.80 587.96
  L 785.80 587.96
  L 785.80 587.96
  L 785.65 590.17
  L 785.14 592.38
  L 784.28 594.39
  L 782.87 596.68
  L 780.91 599.23
  L 778.41 602.05
  L 759.88 621.40
  L 743.59 637.57
  L 742.08 638.88
  L 740.49 639.98
  L 738.84 640.87
  L 737.12 641.54
  L 737.12 641.54
  L 734.69 642.10
  L 732.14 642.27
  L 729.46 642.05
  L 726.65 641.44
  L 725.34 640.88
  L 723.68 639.84
  L 719.32 636.31
  L 708.94 627.03
  L 703.40 621.83
  L 702.87 621.55
  L 702.29 621.63
  L 696.82 624.11
  L 691.23 626.39
  L 685.52 628.46
  L 679.70 630.34
  L 678.83 630.93
  L 678.44 631.92
  L 676.70 657.19
  L 676.63 657.60
  L 675.78 660.01
  L 674.70 662.19
  L 673.40 664.15
  L 671.88 665.87
  L 669.90 667.54
  L 667.65 668.92
  L 665.11 670.02
  L 662.29 670.83
  L 661.50 670.91
  L 611.21 670.95
  L 608.33 670.90
  L 605.82 670.66
  L 603.69 670.23
  L 601.95 669.61
  L 598.50 667.62
  L 597.01 666.42
  L 595.67 665.08
  L 595.67 665.08
  L 595.67 665.08
  L 595.67 665.08
  L 595.67 665.08
  L 594.44 663.54
  L 593.38 661.84
  L 592.49 660.00
  L 591.77 658.00
  L 591.39 655.37
  L 591.11 650.35
  L 590.36 638.51
  L 589.83 631.33
  L 589.70 630.97
  L 589.39 630.76
  L 583.69 628.77
  L 578.13 626.56
  L 572.70 624.11
  L 567.42 621.44
  L 566.88 621.33
  L 566.37 621.54
  L 547.86 636.66
  L 544.99 638.93
  L 542.26 640.56
  L 539.50 641.66
  L 536.66 642.21
  L 533.58 642.18
  L 530.35 641.50
  L 528.75 640.82
  L 526.96 639.72
  L 522.75 636.23
  L 511.42 625.22
  L 496.90 610.50
  L 489.90 603.35
  L 486.53 599.83
  L 484.48 597.35
  L 483.02 595.04
  L 482.12 592.82
  L 481.75 591.19
  L 481.59 589.43
  L 481.90 585.36
  L 482.31 583.79
  L 483.08 582.07
  L 484.19 580.20
  L 485.65 578.17
  L 489.92 572.95
  L 494.42 567.96
  L 499.23 563.14
  L 504.27 558.55
  L 504.46 558.24
  L 504.44 557.88
  L 496.34 537.76
  L 496.00 537.32
  L 495.49 537.13
  L 472.29 535.47
  L 470.51 535.27
  L 468.78 534.87
  L 466.48 533.99
  L 464.28 532.74
  L 462.54 531.43
  L 461.01 530.00
  L 459.69 528.44
  L 458.59 526.77
  L 458.59 526.77
  L 458.59 526.77
  L 458.59 526.77
  L 457.59 524.66
  L 456.87 522.39
  L 456.44 519.95
  L 456.31 517.35
  L 456.31 464.93
  L 456.48 463.41
  L 457.23 460.83
  L 458.24 458.48
  L 459.49 456.37
  L 461.00 454.49
  L 461.00 454.49
  L 463.29 452.43
  L 465.98 450.76
  L 468.06 449.97
  L 470.81 449.37
  L 474.22 448.96
  L 478.31 448.75
  L 495.70 447.78
  L 496.17 447.60
  L 496.44 447.18
  L 498.02 442.04
  L 499.85 437.19
  L 501.94 432.62
  L 504.27 428.34
  L 504.40 427.75
  L 504.17 427.20
  L 496.13 417.65
  L 487.78 407.10
  L 485.75 404.29
  L 484.26 401.82
  L 483.30 399.70
  L 482.87 397.92
  L 482.78 393.87
  L 483.02 392.14
  L 483.46 390.56
  L 484.37 388.59
  L 485.65 386.69
  L 487.45 384.61
  L 490.00 382.07
  L 524.41 348.41
  L 527.59 345.57
  L 530.29 343.69
  L 533.22 342.51
  L 535.64 342.07
  L 538.10 342.06
  L 540.58 342.47
  L 543.02 343.30
  L 546.08 345.01
  L 549.61 347.70
  L 567.78 362.99
  L 568.37 363.25
  L 569.01 363.14
  L 578.52 358.95
  L 588.50 355.33
  L 589.00 354.99
  L 589.23 354.44
  L 590.33 343.47
  L 590.92 334.13
  L 591.15 330.41
  L 591.53 327.33
  L 592.05 324.90
  L 592.72 323.10
  L 594.51 320.22
  L 596.74 317.83
  L 596.74 317.83
  L 596.74 317.83
  L 598.69 316.35
  L 600.89 315.14
  L 602.62 314.54
  L 604.82 314.11
  L 610.61 313.76
  L 662.36 313.88
  L 663.91 314.13
  L 665.65 314.70
  L 667.58 315.61
  L 669.70 316.84
  L 672.32 318.88
  L 674.32 321.33
  L 674.32 321.33
  L 674.32 321.33
  L 674.32 321.33
  L 675.18 322.90
  L 675.84 324.61
  L 676.30 326.45
  L 676.55 328.42
  L 678.76 353.50
  L 678.98 354.07
  L 679.46 354.44
  Z
  M 657.55 649.45
  L 659.17 628.11
  L 659.70 623.86
  L 660.64 620.86
  L 661.87 618.76
  L 663.70 616.58
  L 664.86 615.66
  L 666.66 614.70
  L 672.17 612.60
  L 678.40 610.46
  L 684.37 608.15
  L 690.08 605.66
  L 695.54 603.00
  L 698.43 601.68
  L 701.08 600.83
  L 703.47 600.46
  L 705.75 600.52
  L 708.31 601.14
  L 710.87 602.35
  L 713.54 604.18
  L 716.54 606.79
  L 731.29 621.04
  L 731.29 621.04
  L 731.81 621.24
  L 732.31 621.02
  L 763.85 587.79
  L 763.96 587.53
  L 763.87 587.26
  L 756.16 578.50
  L 747.10 568.58
  L 745.59 566.73
  L 744.47 564.85
  L 743.73 562.93
  L 743.37 560.99
  L 743.37 560.99
  L 743.37 560.99
  L 743.36 559.38
  L 743.61 557.75
  L 744.11 556.10
  L 744.86 554.43
  L 748.24 547.72
  L 751.07 541.57
  L 753.34 535.99
  L 755.06 530.97
  L 756.95 525.76
  L 757.85 524.02
  L 758.72 522.87
  L 760.14 521.59
  L 761.62 520.53
  L 763.17 519.71
  L 764.79 519.12
  L 764.79 519.12
  L 764.79 519.12
  L 766.52 518.76
  L 792.92 516.12
  L 793.25 515.96
  L 793.39 515.61
  L 793.39 469.38
  L 793.38 469.26
  L 793.15 468.86
  L 792.71 468.70
  L 786.08 468.18
  L 778.90 467.72
  L 769.59 467.13
  L 764.76 466.49
  L 762.88 465.80
  L 760.70 464.40
  L 758.74 462.33
  L 757.04 459.60
  L 755.60 456.20
  L 753.09 449.46
  L 750.27 442.48
  L 743.65 427.76
  L 743.34 426.77
  L 743.04 423.60
  L 743.23 420.78
  L 743.90 418.30
  L 745.05 416.17
  L 745.55 415.53
  L 757.59 400.84
  L 760.65 397.08
  L 763.10 394.37
  L 763.11 394.36
  L 763.31 393.83
  L 763.07 393.32
  L 730.09 363.44
  L 729.49 363.21
  L 728.89 363.47
  L 721.80 370.35
  L 712.79 378.63
  L 710.40 380.67
  L 708.31 382.21
  L 706.52 383.24
  L 705.03 383.77
  L 701.82 384.11
  L 698.79 383.75
  L 695.83 382.62
  L 689.58 379.47
  L 683.69 376.78
  L 678.13 374.55
  L 672.93 372.78
  L 669.86 371.76
  L 667.49 370.76
  L 665.58 369.67
  L 663.92 368.36
  L 662.24 366.43
  L 660.78 363.97
  L 659.99 360.46
  L 658.97 352.64
  L 657.00 334.46
  L 656.85 334.15
  L 656.54 334.03
  L 611.18 334.03
  L 610.73 334.21
  L 610.53 334.64
  L 608.68 359.98
  L 608.12 363.26
  L 606.95 366.22
  L 605.91 367.90
  L 604.63 369.45
  L 603.27 370.56
  L 601.27 371.68
  L 598.62 372.83
  L 595.34 373.99
  L 586.23 377.30
  L 576.45 381.54
  L 570.87 383.79
  L 568.82 384.33
  L 567.28 384.47
  L 564.58 384.18
  L 562.18 383.58
  L 560.07 382.66
  L 558.27 381.43
  L 548.69 373.18
  L 537.76 363.44
  L 537.06 363.19
  L 536.38 363.49
  L 504.40 396.28
  L 504.13 396.90
  L 504.35 397.55
  L 522.15 418.47
  L 523.74 420.59
  L 524.90 422.73
  L 525.63 424.88
  L 525.93 427.05
  L 525.93 427.05
  L 525.93 427.05
  L 525.87 428.72
  L 525.55 430.40
  L 524.98 432.10
  L 524.16 433.80
  L 520.66 440.34
  L 517.76 446.26
  L 515.46 451.58
  L 513.76 456.28
  L 512.62 459.22
  L 511.30 461.44
  L 509.50 463.46
  L 507.60 464.89
  L 505.91 465.69
  L 504.04 466.24
  L 498.76 466.90
  L 484.63 467.94
  L 477.02 468.67
  L 476.71 468.84
  L 476.59 469.16
  L 476.59 514.78
  L 476.81 515.36
  L 477.37 515.64
  L 504.47 518.18
  L 504.70 518.24
  L 506.81 519.27
  L 508.64 520.49
  L 510.18 521.90
  L 511.42 523.50
  L 511.42 523.50
  L 512.22 524.92
  L 512.83 526.47
  L 515.14 533.29
  L 517.48 539.44
  L 519.87 544.90
  L 522.29 549.69
  L 524.82 554.98
  L 525.45 557.00
  L 525.67 558.59
  L 525.56 560.46
  L 525.20 562.27
  L 525.20 562.27
  L 525.20 562.27
  L 524.65 563.85
  L 523.89 565.38
  L 522.93 566.86
  L 521.75 568.27
  L 518.89 571.37
  L 511.00 579.83
  L 505.77 585.06
  L 503.70 586.98
  L 503.68 587.00
  L 503.33 587.82
  L 503.68 588.65
  L 536.46 620.63
  L 537.07 620.88
  L 537.68 620.66
  L 557.96 602.57
  L 558.17 602.43
  L 560.51 601.41
  L 562.79 600.77
  L 565.00 600.52
  L 567.16 600.67
  L 568.81 601.05
  L 570.43 601.68
  L 578.62 605.41
  L 586.21 608.61
  L 593.21 611.28
  L 599.63 613.43
  L 601.01 613.95
  L 601.01 613.95
  L 602.69 614.84
  L 604.25 615.99
  L 605.69 617.41
  L 607.02 619.08
  L 607.80 620.53
  L 608.46 622.49
  L 608.98 624.97
  L 609.37 627.96
  L 610.32 638.83
  L 610.96 649.29
  L 611.24 649.91
  L 611.87 650.16
  L 656.80 650.16
  L 657.32 649.95
  L 657.55 649.45
  Z"
/>
<ellipse cx="0.00" cy="0.00" transform="translate(636.62,491.39) rotate(-13.8)" rx="71.24" ry="71.11"/>
</g>
<path fill="#53c647" d="
  M 361.34 320.36
  L 427.63 260.71
  L 497.89 197.90
  L 500.42 196.10
  L 501.75 195.51
  L 503.07 195.16
  L 505.41 195.06
  L 507.98 195.58
  L 510.85 196.70
  L 515.10 198.85
  L 515.93 199.29
  L 591.11 238.85
  L 592.21 239.03
  L 593.22 238.54
  L 609.36 223.06
  L 628.63 204.52
  L 632.17 201.07
  L 655.83 178.08
  L 667.74 166.75
  L 669.28 165.51
  L 670.86 164.58
  L 672.46 163.96
  L 674.08 163.66
  L 674.08 163.66
  L 674.08 163.66
  L 674.08 163.66
  L 675.64 163.66
  L 677.22 163.94
  L 679.97 165.05
  L 682.21 166.75
  L 683.83 168.92
  L 684.37 170.14
  L 684.72 171.45
  L 684.80 174.07
  L 684.12 176.61
  L 682.72 178.75
  L 679.98 181.65
  L 600.53 257.98
  L 598.13 259.78
  L 596.87 260.36
  L 595.57 260.72
  L 595.57 260.72
  L 595.57 260.72
  L 593.91 260.87
  L 592.19 260.71
  L 590.41 260.21
  L 588.56 259.40
  L 541.71 234.92
  L 507.21 216.63
  L 506.54 216.50
  L 505.92 216.78
  L 387.97 321.97
  L 369.66 338.66
  L 367.00 340.64
  L 365.58 341.30
  L 364.17 341.72
  L 361.67 341.91
  L 358.90 341.47
  L 355.73 340.35
  L 351.77 338.42
  L 232.58 275.77
  L 231.80 275.60
  L 231.04 275.87
  L 71.88 386.85
  L 66.37 390.35
  L 64.36 391.32
  L 62.84 391.77
  L 60.94 391.87
  L 59.15 391.59
  L 59.15 391.59
  L 59.15 391.59
  L 57.70 391.04
  L 56.32 390.20
  L 55.03 389.08
  L 53.81 387.67
  L 52.56 385.57
  L 51.97 383.38
  L 51.97 383.38
  L 51.93 381.79
  L 52.23 380.16
  L 52.84 378.49
  L 53.78 376.78
  L 54.65 375.66
  L 55.91 374.43
  L 59.61 371.60
  L 124.67 326.15
  L 176.13 290.19
  L 224.29 256.78
  L 227.13 255.26
  L 228.57 254.82
  L 230.03 254.59
  L 230.03 254.59
  L 230.03 254.59
  L 231.66 254.58
  L 233.30 254.82
  L 234.97 255.32
  L 236.66 256.07
  L 296.91 287.32
  L 360.29 320.49
  L 360.84 320.59
  L 361.34 320.36
  Z"
/>
</svg>
