<?xml version="1.0" encoding="UTF-8" standalone="no"?>
<!DOCTYPE svg PUBLIC "-//W3C//DTD SVG 1.1//EN" "http://www.w3.org/Graphics/SVG/1.1/DTD/svg11.dtd">
<svg xmlns="http://www.w3.org/2000/svg" version="1.1" viewBox="0.00 0.00 739.00 716.00" width="739.00" height="716.00">
<path stroke="#bff5bf" stroke-width="2.00" fill="none" stroke-linecap="butt" vector-effect="non-scaling-stroke" d="
  M 631.47 621.25
  L 630.81 620.78"
/>
<g fill="#ffffff">
<path d="
  M 603.65 219.75
  L 595.30 216.21
  L 537.29 190.38
  L 536.64 189.99
  L 534.99 188.27
  L 533.87 186.16
  L 533.51 184.78
  L 533.40 183.39
  L 533.52 182.01
  L 533.86 180.67
  L 534.41 179.41
  L 535.16 178.26
  L 536.10 177.24
  L 537.22 176.39
  L 538.34 175.81
  L 539.58 175.41
  L 542.18 175.18
  L 544.08 175.58
  L 546.83 176.64
  L 590.39 195.82
  L 590.80 195.79
  L 591.01 195.43
  L 590.98 195.26
  L 587.91 187.49
  L 584.63 179.81
  L 581.13 172.20
  L 577.42 164.67
  L 573.49 157.23
  L 569.34 149.86
  L 564.98 142.58
  L 560.40 135.37
  L 552.03 123.29
  L 543.10 111.78
  L 533.62 100.84
  L 523.57 90.47
  L 523.57 90.47
  L 523.57 90.47
  L 515.26 82.70
  L 506.60 75.29
  L 497.60 68.23
  L 488.25 61.52
  L 477.09 54.28
  L 465.66 47.69
  L 453.97 41.73
  L 442.01 36.43
  L 442.01 36.43
  L 442.01 36.43
  L 432.14 32.60
  L 422.10 29.20
  L 412.15 26.28
  L 402.14 23.77
  L 392.06 21.66
  L 381.93 19.96
  L 381.93 19.96
  L 381.93 19.96
  L 381.93 19.96
  L 373.86 18.91
  L 365.75 18.11
  L 357.60 17.57
  L 349.42 17.28
  L 336.69 17.35
  L 324.02 18.06
  L 324.02 18.06
  L 324.02 18.06
  L 324.02 18.06
  L 313.63 19.13
  L 303.27 20.62
  L 292.95 22.56
  L 282.67 24.92
  L 270.36 28.33
  L 258.32 32.32
  L 246.55 36.88
  L 235.06 42.01
  L 235.06 42.01
  L 227.58 45.74
  L 220.23 49.71
  L 213.09 53.88
  L 213.09 53.88
  L 205.46 58.67
  L 198.00 63.73
  L 190.70 69.05
  L 183.56 74.65
  L 176.58 80.50
  L 169.76 86.63
  L 163.11 93.01
  L 156.61 99.67
  L 156.08 100.11
  L 154.79 100.85
  L 153.45 101.38
  L 152.07 101.70
  L 150.70 101.81
  L 149.34 101.72
  L 148.03 101.42
  L 146.79 100.92
  L 145.64 100.20
  L 143.97 98.48
  L 142.86 96.35
  L 142.31 94.16
  L 142.31 92.21
  L 142.70 90.67
  L 143.52 89.02
  L 144.73 87.35
  L 146.50 85.36
  L 153.65 78.10
  L 161.38 70.90
  L 169.70 63.74
  L 178.60 56.63
  L 190.47 47.96
  L 202.68 40.01
  L 215.23 32.77
  L 228.11 26.25
  L 228.11 26.25
  L 228.11 26.25
  L 235.39 22.94
  L 242.76 19.86
  L 250.24 16.99
  L 257.82 14.35
  L 265.50 11.92
  L 273.29 9.71
  L 281.18 7.71
  L 289.17 5.94
  L 297.57 4.33
  L 305.95 2.98
  L 314.33 1.90
  L 322.69 1.07
  L 331.04 0.51
  L 339.38 0.21
  L 347.71 0.17
  L 356.03 0.40
  L 356.03 0.40
  L 356.03 0.40
  L 356.03 0.40
  L 370.00 1.36
  L 383.95 3.07
  L 394.74 4.88
  L 405.34 7.07
  L 415.77 9.63
  L 426.00 12.57
  L 436.06 15.88
  L 445.93 19.57
  L 455.61 23.63
  L 465.11 28.06
  L 465.11 28.06
  L 465.11 28.06
  L 465.11 28.06
  L 465.11 28.06
  L 472.46 31.82
  L 479.69 35.81
  L 486.82 40.03
  L 493.82 44.48
  L 500.72 49.16
  L 507.49 54.08
  L 514.16 59.23
  L 520.71 64.61
  L 527.26 70.33
  L 533.61 76.22
  L 539.77 82.30
  L 545.73 88.57
  L 545.73 88.57
  L 545.73 88.57
  L 545.73 88.57
  L 545.73 88.57
  L 551.43 94.94
  L 556.94 101.49
  L 562.26 108.22
  L 567.38 115.13
  L 572.32 122.22
  L 577.06 129.48
  L 581.61 136.92
  L 585.96 144.54
  L 592.02 155.95
  L 597.80 167.75
  L 603.31 179.93
  L 608.53 192.49
  L 609.69 196.04
  L 610.12 196.76
  L 610.78 197.05
  L 611.48 196.96
  L 612.03 196.50
  L 612.26 195.82
  L 612.34 194.79
  L 622.84 159.87
  L 633.73 124.64
  L 633.85 124.35
  L 634.87 122.84
  L 636.00 121.63
  L 637.22 120.71
  L 638.55 120.08
  L 638.55 120.08
  L 639.94 119.74
  L 641.43 119.69
  L 643.02 119.90
  L 644.70 120.40
  L 646.62 121.37
  L 648.08 122.70
  L 648.98 124.13
  L 649.55 125.83
  L 649.69 127.18
  L 649.56 128.86
  L 648.53 133.22
  L 622.72 217.99
  L 622.59 218.29
  L 621.70 219.68
  L 620.69 220.86
  L 619.58 221.83
  L 618.37 222.59
  L 618.37 222.59
  L 618.37 222.59
  L 617.07 223.14
  L 615.66 223.49
  L 614.16 223.65
  L 612.55 223.60
  L 609.74 222.65
  L 604.39 220.05
  L 603.65 219.75
  Z"
/>
<path d="
  M 286.03 419.74
  L 285.87 419.62
  L 285.65 419.32
  L 283.24 413.90
  L 281.16 408.59
  L 279.42 403.38
  L 278.00 398.28
  L 276.11 389.30
  L 274.90 380.35
  L 274.36 371.44
  L 274.50 362.57
  L 274.50 362.57
  L 274.50 362.57
  L 274.50 362.57
  L 275.39 353.20
  L 277.04 343.86
  L 279.45 334.57
  L 282.62 325.32
  L 282.62 324.88
  L 282.34 324.53
  L 140.26 239.14
  L 139.50 239.01
  L 138.85 239.44
  L 135.27 243.87
  L 130.91 248.18
  L 126.97 251.50
  L 122.91 254.51
  L 118.66 257.27
  L 114.31 259.71
  L 109.77 261.88
  L 105.16 263.74
  L 100.39 265.30
  L 95.57 266.54
  L 90.81 267.43
  L 86.03 268.02
  L 81.15 268.31
  L 76.28 268.29
  L 71.41 267.96
  L 66.59 267.32
  L 61.83 266.39
  L 57.14 265.15
  L 52.53 263.62
  L 48.03 261.81
  L 43.64 259.71
  L 39.39 257.32
  L 35.30 254.68
  L 31.38 251.77
  L 27.71 248.66
  L 24.22 245.31
  L 21.02 241.81
  L 18.02 238.09
  L 15.29 234.23
  L 12.77 230.15
  L 10.53 225.97
  L 8.52 221.59
  L 6.78 217.12
  L 5.29 212.46
  L 3.92 206.91
  L 3.92 206.91
  L 3.92 206.91
  L 2.99 201.39
  L 2.46 195.80
  L 2.35 190.12
  L 2.65 184.35
  L 3.31 178.87
  L 4.32 173.53
  L 5.69 168.33
  L 7.41 163.26
  L 7.41 163.26
  L 7.41 163.26
  L 7.41 163.26
  L 9.45 158.42
  L 11.83 153.71
  L 14.55 149.14
  L 17.62 144.69
  L 21.01 140.41
  L 24.63 136.44
  L 28.48 132.77
  L 32.57 129.40
  L 38.74 125.15
  L 45.36 121.51
  L 52.46 118.47
  L 60.01 116.03
  L 64.21 115.01
  L 68.41 114.24
  L 72.62 113.72
  L 76.85 113.45
  L 76.85 113.45
  L 76.85 113.45
  L 83.76 113.55
  L 90.70 114.33
  L 97.66 115.77
  L 104.64 117.89
  L 110.87 120.40
  L 116.78 123.42
  L 122.48 127.01
  L 127.82 131.07
  L 132.86 135.65
  L 137.48 140.63
  L 141.71 146.06
  L 145.45 151.84
  L 148.67 157.89
  L 151.36 164.19
  L 153.46 170.61
  L 155.00 177.20
  L 155.94 183.79
  L 156.29 190.46
  L 156.04 197.04
  L 155.18 203.64
  L 154.15 208.61
  L 152.84 213.45
  L 151.25 218.18
  L 149.39 222.78
  L 149.39 222.78
  L 148.46 224.80
  L 148.48 224.94
  L 148.51 224.97
  L 289.68 309.80
  L 289.88 309.89
  L 290.34 309.95
  L 290.79 309.80
  L 291.13 309.47
  L 291.29 309.03
  L 291.72 307.97
  L 296.45 301.03
  L 301.67 294.51
  L 301.67 294.51
  L 306.16 289.64
  L 310.96 285.03
  L 318.12 279.02
  L 325.59 273.66
  L 333.34 268.95
  L 341.39 264.89
  L 341.39 264.89
  L 341.39 264.89
  L 346.04 262.90
  L 350.78 261.11
  L 355.62 259.53
  L 360.55 258.15
  L 365.57 256.98
  L 370.68 256.01
  L 375.89 255.25
  L 381.19 254.69
  L 389.67 254.28
  L 398.05 254.49
  L 406.42 255.33
  L 414.65 256.78
  L 419.42 257.91
  L 424.13 259.25
  L 428.77 260.79
  L 433.33 262.53
  L 437.86 264.48
  L 442.30 266.63
  L 446.65 268.97
  L 450.90 271.50
  L 455.02 274.20
  L 459.04 277.08
  L 462.94 280.14
  L 466.72 283.38
  L 470.34 286.75
  L 473.84 290.29
  L 477.20 293.99
  L 480.42 297.85
  L 485.74 305.01
  L 490.42 312.42
  L 494.46 320.07
  L 497.88 327.97
  L 497.88 327.97
  L 499.85 333.52
  L 501.52 339.18
  L 502.89 344.96
  L 503.97 350.85
  L 504.74 356.79
  L 505.22 362.71
  L 505.39 368.62
  L 505.26 374.51
  L 505.26 374.51
  L 505.26 374.51
  L 504.75 381.11
  L 503.87 387.70
  L 502.60 394.26
  L 500.95 400.81
  L 499.02 407.01
  L 496.76 413.03
  L 494.18 418.88
  L 491.28 424.54
  L 491.28 424.54
  L 491.28 424.54
  L 488.17 429.85
  L 484.75 434.99
  L 481.04 439.96
  L 477.02 444.77
  L 473.50 448.60
  L 469.87 452.23
  L 466.14 455.66
  L 462.29 458.89
  L 458.34 461.93
  L 454.28 464.77
  L 450.12 467.40
  L 445.85 469.84
  L 443.86 470.89
  L 438.65 473.40
  L 433.33 475.64
  L 427.81 477.64
  L 422.20 479.36
  L 416.51 480.80
  L 410.74 481.95
  L 404.93 482.82
  L 399.09 483.40
  L 393.22 483.70
  L 387.36 483.70
  L 381.49 483.41
  L 375.66 482.83
  L 369.87 481.97
  L 364.13 480.81
  L 358.55 479.38
  L 353.05 477.67
  L 343.93 474.19
  L 335.29 470.09
  L 327.10 465.37
  L 319.39 460.03
  L 319.39 460.03
  L 319.39 460.03
  L 312.75 454.61
  L 306.50 448.67
  L 300.65 442.21
  L 295.18 435.24
  L 294.91 435.08
  L 294.61 435.15
  L 294.60 435.16
  L 192.53 516.05
  L 192.06 516.87
  L 192.30 517.79
  L 197.42 525.24
  L 201.83 532.92
  L 205.55 540.82
  L 208.58 548.95
  L 210.45 555.45
  L 211.90 562.09
  L 212.92 568.87
  L 213.52 575.79
  L 213.66 583.80
  L 213.19 591.76
  L 212.11 599.74
  L 210.43 607.59
  L 208.18 615.23
  L 205.36 622.67
  L 201.97 629.88
  L 198.03 636.82
  L 197.94 637.54
  L 198.42 638.09
  L 198.42 638.09
  L 198.54 638.13
  L 247.61 651.63
  L 252.41 653.24
  L 253.94 654.02
  L 254.90 654.78
  L 255.64 655.75
  L 255.64 655.75
  L 255.64 655.75
  L 256.34 657.15
  L 256.77 658.72
  L 256.94 660.46
  L 256.83 662.38
  L 256.40 663.68
  L 255.40 665.21
  L 253.60 667.06
  L 251.76 668.10
  L 250.35 668.42
  L 248.83 668.43
  L 247.01 668.16
  L 244.71 667.59
  L 187.91 652.06
  L 187.24 652.07
  L 186.69 652.42
  L 180.91 658.44
  L 174.81 663.93
  L 168.39 668.87
  L 161.64 673.28
  L 161.64 673.28
  L 161.64 673.28
  L 156.96 675.93
  L 152.14 678.33
  L 147.17 680.50
  L 142.06 682.42
  L 135.74 684.42
  L 129.38 686.01
  L 122.98 687.21
  L 116.55 688.01
  L 108.50 688.45
  L 100.40 688.27
  L 95.30 687.84
  L 90.27 687.18
  L 85.32 686.30
  L 80.45 685.18
  L 75.61 683.83
  L 70.86 682.25
  L 66.22 680.46
  L 61.67 678.45
  L 55.54 675.30
  L 49.63 671.75
  L 43.96 667.81
  L 38.54 663.49
  L 33.43 658.84
  L 28.59 653.84
  L 24.04 648.49
  L 19.80 642.80
  L 16.66 638.02
  L 13.81 633.09
  L 11.20 627.92
  L 8.88 622.62
  L 6.85 617.16
  L 5.11 611.59
  L 3.68 605.93
  L 2.56 600.20
  L 1.74 594.38
  L 1.22 588.51
  L 1.02 582.61
  L 1.13 576.70
  L 1.56 570.85
  L 2.29 565.01
  L 3.33 559.20
  L 4.69 553.44
  L 6.17 548.38
  L 8.65 541.53
  L 11.59 534.92
  L 15.02 528.49
  L 18.88 522.34
  L 23.22 516.42
  L 27.95 510.83
  L 33.13 505.51
  L 38.67 500.57
  L 44.51 496.05
  L 50.65 491.93
  L 57.08 488.23
  L 63.76 484.98
  L 70.63 482.20
  L 77.70 479.90
  L 84.85 478.10
  L 92.16 476.80
  L 99.20 476.02
  L 106.18 475.69
  L 113.11 475.83
  L 119.98 476.42
  L 119.98 476.42
  L 127.07 477.52
  L 134.11 479.11
  L 142.38 481.64
  L 150.36 484.82
  L 150.36 484.82
  L 150.36 484.82
  L 158.20 488.74
  L 165.75 493.34
  L 172.98 498.62
  L 179.92 504.57
  L 180.30 504.73
  L 180.70 504.61
  L 286.05 421.12
  L 286.38 420.48
  L 286.12 419.81
  L 286.03 419.74
  Z
  M 78.5072 130.1845
  L 72.6184 130.5493
  L 66.7935 131.4960
  L 61.0886 133.0156
  L 55.5585 135.0934
  L 50.2567 137.7094
  L 45.2340 140.8385
  L 40.5389 144.4504
  L 36.2167 148.5105
  L 32.3089 152.9795
  L 28.8531 157.8146
  L 25.8827 162.9690
  L 23.4263 168.3932
  L 21.5074 174.0349
  L 20.1447 179.8398
  L 19.3512 185.7520
  L 19.1345 191.7145
  L 19.4968 197.6699
  L 20.4345 203.5610
  L 21.9387 209.3309
  L 23.9948 214.9240
  L 26.5830 220.2865
  L 29.6785 225.3669
  L 33.2513 230.1160
  L 37.2671 234.4882
  L 41.6873 238.4415
  L 46.4692 241.9376
  L 51.5668 244.9430
  L 56.9310 247.4288
  L 62.5102 249.3708
  L 68.2506 250.7506
  L 74.0969 251.5547
  L 79.9928 251.7755
  L 79.9928 251.7755
  L 85.8816 251.4107
  L 91.7065 250.4640
  L 97.4114 248.9444
  L 102.9415 246.8666
  L 108.2433 244.2506
  L 113.2660 241.1215
  L 117.9611 237.5096
  L 122.2833 233.4495
  L 126.1911 228.9805
  L 129.6469 224.1454
  L 132.6173 218.9910
  L 135.0737 213.5668
  L 136.9926 207.9251
  L 138.3553 202.1202
  L 139.1488 196.2080
  L 139.3655 190.2455
  L 139.0032 184.2901
  L 138.0655 178.3990
  L 136.5613 172.6291
  L 134.5052 167.0360
  L 131.9170 161.6735
  L 128.8215 156.5931
  L 125.2487 151.8440
  L 121.2329 147.4718
  L 116.8127 143.5185
  L 112.0308 140.0224
  L 106.9332 137.0170
  L 101.5690 134.5312
  L 95.9898 132.5892
  L 90.2494 131.2094
  L 84.4031 130.4053
  L 78.5072 130.1845
  Z
  M 290.59 368.72
  L 290.75 374.72
  L 291.28 380.67
  L 292.18 386.65
  L 293.44 392.53
  L 295.04 398.28
  L 296.98 403.88
  L 299.25 409.29
  L 301.84 414.49
  L 306.56 422.45
  L 311.83 429.79
  L 314.67 433.23
  L 317.64 436.52
  L 320.75 439.65
  L 323.99 442.63
  L 323.99 442.63
  L 323.99 442.63
  L 327.56 445.62
  L 331.29 448.43
  L 335.16 451.06
  L 339.19 453.53
  L 343.36 455.83
  L 347.69 457.95
  L 352.17 459.90
  L 356.80 461.68
  L 362.88 463.64
  L 369.13 465.20
  L 375.60 466.39
  L 382.14 467.17
  L 388.76 467.53
  L 395.34 467.47
  L 401.73 466.99
  L 407.98 466.10
  L 415.20 464.55
  L 422.17 462.50
  L 428.88 459.97
  L 435.35 456.95
  L 435.35 456.95
  L 435.35 456.95
  L 439.18 454.86
  L 442.92 452.58
  L 446.56 450.13
  L 450.11 447.48
  L 453.57 444.66
  L 456.93 441.65
  L 463.37 435.09
  L 467.89 429.74
  L 471.98 424.17
  L 475.64 418.40
  L 478.87 412.41
  L 478.87 412.41
  L 478.87 412.41
  L 482.03 405.34
  L 484.63 398.00
  L 486.67 390.38
  L 488.16 382.49
  L 488.82 376.36
  L 489.05 369.32
  L 488.86 362.29
  L 488.24 356.15
  L 486.80 348.25
  L 484.80 340.62
  L 482.25 333.26
  L 479.14 326.18
  L 479.14 326.18
  L 479.14 326.18
  L 479.14 326.18
  L 475.94 320.17
  L 472.32 314.37
  L 468.26 308.78
  L 463.77 303.40
  L 457.37 296.80
  L 454.03 293.77
  L 450.59 290.92
  L 447.06 288.26
  L 443.43 285.78
  L 439.71 283.48
  L 435.88 281.37
  L 435.88 281.37
  L 429.44 278.31
  L 422.74 275.74
  L 415.78 273.65
  L 408.57 272.05
  L 402.33 271.12
  L 395.94 270.60
  L 389.36 270.50
  L 382.74 270.83
  L 376.20 271.56
  L 369.72 272.71
  L 363.46 274.24
  L 357.37 276.16
  L 352.73 277.91
  L 348.24 279.83
  L 343.90 281.93
  L 339.71 284.20
  L 335.67 286.64
  L 331.77 289.25
  L 328.03 292.04
  L 324.44 295.00
  L 324.44 295.00
  L 324.44 295.00
  L 324.44 295.00
  L 321.18 297.96
  L 318.06 301.08
  L 315.06 304.35
  L 312.21 307.77
  L 306.89 315.08
  L 302.12 323.01
  L 299.50 328.20
  L 297.20 333.59
  L 295.22 339.18
  L 293.58 344.92
  L 292.29 350.79
  L 291.35 356.76
  L 290.79 362.71
  L 290.59 368.72
  Z
  M 118.4375 492.7895
  L 114.0509 492.3446
  L 109.6477 492.1158
  L 105.2386 492.1037
  L 100.8340 492.3084
  L 96.4447 492.7292
  L 92.0812 493.3653
  L 87.7541 494.2150
  L 83.4737 495.2763
  L 79.2503 496.5467
  L 75.0942 498.0232
  L 71.0153 499.7020
  L 67.0235 501.5793
  L 63.1284 503.6505
  L 59.3394 505.9106
  L 55.6656 508.3541
  L 52.1159 510.9751
  L 48.6987 513.7675
  L 45.4224 516.7243
  L 42.2948 519.8386
  L 39.3235 523.1027
  L 36.5156 526.5089
  L 33.8779 530.0489
  L 31.4167 533.7142
  L 29.1380 537.4960
  L 27.0473 541.3851
  L 25.1496 545.3723
  L 23.4494 549.4478
  L 21.9509 553.6018
  L 20.6577 557.8245
  L 19.5729 562.1055
  L 18.6990 566.4346
  L 18.0383 570.8013
  L 17.5923 575.1952
  L 17.3621 579.6056
  L 17.3482 584.0219
  L 17.5507 588.4335
  L 17.9690 592.8297
  L 18.6022 597.2000
  L 19.4488 601.5338
  L 20.5066 605.8207
  L 21.7732 610.0503
  L 23.2455 614.2125
  L 24.9200 618.2973
  L 26.7926 622.2948
  L 28.8588 626.1953
  L 31.1137 629.9895
  L 33.5517 633.6683
  L 36.1671 637.2227
  L 38.9535 640.6442
  L 41.9042 643.9246
  L 45.0121 647.0559
  L 48.2698 650.0307
  L 51.6693 652.8417
  L 55.2025 655.4822
  L 58.8609 657.9459
  L 62.6356 660.2267
  L 66.5176 662.3192
  L 70.4975 664.2183
  L 74.5657 665.9195
  L 78.7124 667.4187
  L 82.9277 668.7123
  L 87.2014 669.7971
  L 91.5231 670.6705
  L 95.8825 671.3305
  L 95.8825 671.3305
  L 100.2691 671.7754
  L 104.6723 672.0042
  L 109.0814 672.0163
  L 113.4860 671.8116
  L 117.8753 671.3908
  L 122.2388 670.7547
  L 126.5659 669.9050
  L 130.8463 668.8437
  L 135.0697 667.5733
  L 139.2258 666.0968
  L 143.3047 664.4180
  L 147.2965 662.5407
  L 151.1916 660.4695
  L 154.9806 658.2094
  L 158.6544 655.7659
  L 162.2041 653.1449
  L 165.6213 650.3525
  L 168.8976 647.3957
  L 172.0252 644.2814
  L 174.9965 641.0173
  L 177.8044 637.6111
  L 180.4421 634.0711
  L 182.9033 630.4058
  L 185.1820 626.6240
  L 187.2727 622.7349
  L 189.1704 618.7477
  L 190.8706 614.6722
  L 192.3691 610.5182
  L 193.6623 606.2955
  L 194.7471 602.0145
  L 195.6210 597.6854
  L 196.2817 593.3187
  L 196.7277 588.9248
  L 196.9579 584.5144
  L 196.9718 580.0981
  L 196.7693 575.6865
  L 196.3510 571.2903
  L 195.7178 566.9200
  L 194.8712 562.5862
  L 193.8134 558.2993
  L 192.5468 554.0697
  L 191.0745 549.9075
  L 189.4000 545.8227
  L 187.5274 541.8252
  L 185.4612 537.9247
  L 183.2063 534.1305
  L 180.7683 530.4517
  L 178.1529 526.8973
  L 175.3665 523.4758
  L 172.4158 520.1954
  L 169.3079 517.0641
  L 166.0502 514.0893
  L 162.6507 511.2783
  L 159.1175 508.6378
  L 155.4591 506.1741
  L 151.6844 503.8933
  L 147.8024 501.8008
  L 143.8225 499.9017
  L 139.7543 498.2005
  L 135.6076 496.7013
  L 131.3923 495.4077
  L 127.1186 494.3229
  L 122.7969 493.4495
  L 118.4375 492.7895
  Z"
/>
<path d="
  M 20.50 301.80
  L 21.33 302.83
  L 21.97 303.95
  L 21.97 303.95
  L 22.43 305.25
  L 22.69 306.65
  L 22.72 308.15
  L 22.53 309.75
  L 21.23 317.53
  L 20.13 325.30
  L 19.24 333.05
  L 18.56 340.79
  L 18.08 348.52
  L 17.81 356.23
  L 17.75 363.93
  L 17.89 371.61
  L 18.34 381.21
  L 19.09 390.87
  L 20.13 400.60
  L 21.46 410.40
  L 23.08 420.27
  L 25.00 430.21
  L 27.21 440.21
  L 29.72 450.28
  L 30.58 454.05
  L 30.77 456.28
  L 30.34 458.27
  L 29.51 459.98
  L 28.60 461.12
  L 27.53 462.07
  L 26.22 462.86
  L 24.79 463.41
  L 23.29 463.69
  L 21.75 463.71
  L 20.32 463.47
  L 18.93 462.98
  L 17.37 462.05
  L 15.97 460.72
  L 14.86 458.78
  L 13.92 455.79
  L 10.61 441.74
  L 7.95 429.32
  L 5.55 415.97
  L 3.70 402.60
  L 2.39 389.21
  L 1.63 375.80
  L 1.63 375.80
  L 1.63 375.80
  L 1.41 362.78
  L 1.71 349.75
  L 2.36 338.22
  L 3.34 326.94
  L 4.63 315.91
  L 6.24 305.13
  L 6.57 303.87
  L 7.11 302.85
  L 7.48 302.37
  L 8.68 301.19
  L 10.06 300.27
  L 11.67 299.61
  L 13.36 299.26
  L 15.09 299.23
  L 16.78 299.54
  L 18.30 300.14
  L 19.69 301.04
  L 20.50 301.80
  Z"
/>
<rect x="-7.75" y="-79.11" transform="translate(486.28,637.08) rotate(10.8)" width="15.50" height="158.22" rx="7.36"/>
<path d="
  M 311.22 583.11
  L 308.14 584.90
  L 305.89 586.27
  L 303.85 587.79
  L 302.01 589.48
  L 300.37 591.33
  L 300.37 591.33
  L 300.37 591.33
  L 300.37 591.33
  L 298.93 593.33
  L 297.69 595.50
  L 296.65 597.83
  L 295.81 600.32
  L 295.23 601.94
  L 294.48 603.33
  L 293.57 604.47
  L 292.50 605.38
  L 292.50 605.38
  L 291.09 606.12
  L 289.47 606.55
  L 287.80 606.71
  L 286.28 606.63
  L 284.90 606.30
  L 283.67 605.73
  L 283.67 605.73
  L 283.67 605.73
  L 282.73 605.06
  L 281.90 604.20
  L 280.56 601.96
  L 280.32 601.10
  L 280.22 599.57
  L 280.34 597.96
  L 281.21 594.51
  L 282.64 590.95
  L 284.30 587.61
  L 286.19 584.48
  L 288.30 581.57
  L 290.98 578.49
  L 293.85 575.76
  L 296.92 573.36
  L 300.17 571.31
  L 300.17 571.31
  L 300.17 571.31
  L 300.17 571.31
  L 300.17 571.31
  L 303.07 569.85
  L 306.11 568.63
  L 309.28 567.65
  L 312.59 566.92
  L 317.81 566.34
  L 317.81 566.34
  L 317.81 566.34
  L 321.74 566.38
  L 325.69 566.82
  L 329.65 567.66
  L 333.63 568.90
  L 336.43 570.05
  L 339.11 571.43
  L 342.41 573.56
  L 345.48 576.08
  L 348.34 578.98
  L 350.98 582.27
  L 353.20 585.66
  L 355.02 589.16
  L 356.44 592.78
  L 357.46 596.50
  L 358.11 600.72
  L 358.25 605.05
  L 357.88 609.47
  L 356.99 613.98
  L 355.87 617.86
  L 354.48 621.62
  L 354.48 621.62
  L 354.48 621.62
  L 352.74 625.47
  L 350.71 629.19
  L 348.39 632.80
  L 345.78 636.29
  L 337.54 645.92
  L 321.72 663.33
  L 307.07 679.36
  L 306.90 680.02
  L 307.35 680.54
  L 307.61 680.59
  L 354.86 680.60
  L 355.88 680.74
  L 357.61 681.34
  L 359.07 682.12
  L 360.28 683.07
  L 361.24 684.19
  L 361.24 684.19
  L 361.24 684.19
  L 361.94 685.52
  L 362.38 687.02
  L 362.55 688.71
  L 362.45 690.57
  L 362.07 692.01
  L 361.23 693.67
  L 360.50 694.67
  L 359.67 695.43
  L 358.60 696.06
  L 357.39 696.46
  L 354.22 696.75
  L 289.76 696.72
  L 286.28 696.39
  L 284.96 695.97
  L 283.94 695.39
  L 282.88 694.44
  L 282.02 693.36
  L 282.02 693.36
  L 282.02 693.36
  L 281.27 691.92
  L 280.79 690.30
  L 280.67 687.89
  L 281.01 686.28
  L 281.68 684.75
  L 282.71 683.16
  L 284.15 681.41
  L 330.92 629.93
  L 333.83 626.53
  L 336.37 623.10
  L 338.52 619.64
  L 340.29 616.14
  L 341.44 613.19
  L 342.23 610.26
  L 342.67 607.33
  L 342.76 604.42
  L 342.76 604.42
  L 342.76 604.42
  L 342.27 600.30
  L 341.07 596.20
  L 339.86 593.55
  L 338.34 591.14
  L 338.34 591.14
  L 338.34 591.14
  L 336.27 588.70
  L 333.80 586.55
  L 330.94 584.69
  L 327.69 583.11
  L 325.72 582.63
  L 324.38 582.36
  L 323.40 581.98
  L 322.51 581.72
  L 320.21 581.68
  L 317.69 581.85
  L 311.97 582.82
  L 311.22 583.11
  Z"
/>
<path d="
  M 387.74 606.45
  L 406.09 573.36
  L 407.41 571.33
  L 408.84 569.75
  L 410.39 568.63
  L 412.06 567.98
  L 412.06 567.98
  L 412.62 567.86
  L 413.47 567.78
  L 428.83 567.66
  L 431.51 567.76
  L 433.75 568.06
  L 435.54 568.57
  L 436.89 569.28
  L 437.89 570.16
  L 438.83 571.43
  L 439.51 572.96
  L 439.92 574.74
  L 440.06 576.77
  L 440.18 646.02
  L 440.34 646.41
  L 440.73 646.58
  L 448.82 646.75
  L 449.25 646.81
  L 450.97 647.37
  L 452.43 648.12
  L 453.62 649.04
  L 454.55 650.14
  L 454.55 650.14
  L 454.55 650.14
  L 455.40 651.91
  L 455.75 654.02
  L 455.52 656.76
  L 455.12 657.94
  L 454.54 658.98
  L 454.54 658.98
  L 454.08 659.56
  L 453.03 660.54
  L 451.87 661.27
  L 451.87 661.27
  L 450.38 661.81
  L 448.74 662.03
  L 440.94 662.07
  L 440.42 662.27
  L 440.20 662.78
  L 440.20 662.79
  L 440.30 685.74
  L 440.09 690.79
  L 439.76 692.49
  L 439.29 693.65
  L 437.93 695.38
  L 436.29 696.63
  L 436.29 696.63
  L 434.62 697.33
  L 432.74 697.65
  L 430.47 697.52
  L 428.52 696.82
  L 428.52 696.82
  L 427.37 696.03
  L 426.36 694.98
  L 425.50 693.67
  L 424.77 692.10
  L 424.62 691.29
  L 424.56 662.60
  L 424.56 662.60
  L 424.40 662.23
  L 424.03 662.08
  L 377.27 662.08
  L 375.88 661.90
  L 374.40 661.38
  L 372.84 660.52
  L 371.18 659.31
  L 368.91 657.07
  L 367.21 654.54
  L 367.21 654.54
  L 366.36 652.57
  L 365.80 650.46
  L 365.71 649.82
  L 365.71 649.82
  L 365.69 648.61
  L 365.87 647.38
  L 366.84 644.85
  L 387.74 606.45
  Z
  M 419.00 582.47
  L 418.57 582.73
  L 383.92 646.00
  L 383.87 646.12
  L 383.96 646.55
  L 384.36 646.74
  L 424.22 646.43
  L 424.57 646.28
  L 424.72 645.93
  L 424.22 582.92
  L 423.96 582.48
  L 423.72 582.42
  L 419.00 582.47
  Z"
/>
<path d="
  M 574.94 585.05
  L 574.94 585.03
  L 574.68 584.74
  L 568.20 584.70
  L 559.35 584.89
  L 551.11 585.07
  L 530.47 585.00
  L 528.10 584.60
  L 527.07 584.15
  L 525.69 583.24
  L 524.60 582.11
  L 524.60 582.11
  L 523.74 580.64
  L 523.21 578.93
  L 523.00 576.96
  L 523.13 574.74
  L 523.55 573.53
  L 525.22 571.40
  L 527.24 569.91
  L 527.24 569.91
  L 529.36 569.11
  L 531.76 568.84
  L 583.00 568.83
  L 584.51 568.96
  L 585.93 569.30
  L 587.25 569.83
  L 588.46 570.53
  L 590.26 572.11
  L 591.62 574.09
  L 592.47 576.31
  L 592.82 578.78
  L 592.46 581.70
  L 591.23 585.90
  L 554.76 691.78
  L 553.99 693.61
  L 553.04 695.13
  L 551.93 696.32
  L 550.66 697.20
  L 550.66 697.20
  L 550.66 697.20
  L 550.66 697.20
  L 550.66 697.20
  L 549.39 697.70
  L 547.99 697.96
  L 546.46 697.96
  L 544.80 697.72
  L 543.81 697.39
  L 541.77 696.14
  L 540.31 694.51
  L 540.31 694.51
  L 539.61 693.09
  L 539.22 691.46
  L 539.23 690.25
  L 539.51 688.58
  L 540.88 683.88
  L 574.34 587.32
  L 574.94 585.05
  Z"
/>
<path d="
  M 631.47 621.25
  L 631.15 621.27
  L 630.89 621.25
  L 630.87 621.23
  L 630.81 620.78
  L 631.47 621.25
  Z"
/>
</g>
<path fill="#7eea7e" d="
  M 631.47 621.25
  L 630.81 620.78
  L 630.35 620.41
  L 630.17 620.36
  L 629.45 620.21
  L 628.35 619.48
  L 627.76 618.57
  L 627.76 618.57
  L 627.64 617.81
  L 627.47 617.38
  L 627.04 617.20
  L 627.04 617.20
  L 626.63 617.06
  L 626.71 616.29
  L 626.75 615.81
  L 626.47 615.42
  L 626.04 614.95
  L 625.87 614.25
  L 625.65 485.87
  L 625.51 485.51
  L 625.17 485.34
  L 625.17 485.34
  L 625.12 485.34
  L 619.76 485.38
  L 619.29 485.55
  L 618.92 485.83
  L 618.15 486.07
  L 601.59 486.47
  L 601.38 486.55
  L 600.92 486.91
  L 600.56 487.04
  L 584.93 487.45
  L 584.34 487.61
  L 583.26 488.02
  L 574.25 488.32
  L 566.72 488.39
  L 566.30 488.64
  L 566.03 488.93
  L 565.77 489.00
  L 556.89 489.34
  L 550.01 489.33
  L 549.14 489.15
  L 546.65 487.76
  L 545.68 486.89
  L 544.90 485.89
  L 544.90 485.89
  L 544.90 485.89
  L 544.90 485.89
  L 544.27 484.66
  L 543.85 483.29
  L 543.66 481.77
  L 543.69 480.10
  L 543.90 479.35
  L 570.49 426.36
  L 585.25 397.07
  L 600.00 367.77
  L 638.78 290.54
  L 640.04 288.93
  L 642.12 287.50
  L 643.38 286.95
  L 644.65 286.63
  L 646.98 286.62
  L 649.23 287.27
  L 651.37 288.56
  L 653.19 290.39
  L 653.41 290.69
  L 653.41 290.69
  L 654.09 292.15
  L 654.35 293.89
  L 654.41 307.09
  L 654.57 307.74
  L 654.93 308.81
  L 655.05 310.25
  L 655.21 418.46
  L 655.41 418.67
  L 656.63 418.69
  L 657.63 418.40
  L 659.11 417.98
  L 659.47 417.96
  L 696.55 417.99
  L 696.86 418.12
  L 697.52 418.53
  L 698.02 418.61
  L 731.43 418.65
  L 732.20 418.76
  L 732.93 419.07
  L 734.42 420.10
  L 735.63 421.22
  L 736.55 422.45
  L 737.19 423.78
  L 737.19 423.78
  L 737.59 425.75
  L 737.49 427.20
  L 737.04 429.01
  L 735.04 433.75
  L 718.31 467.20
  L 705.22 492.79
  L 701.45 500.20
  L 642.22 617.62
  L 641.74 618.27
  L 638.87 621.07
  L 638.12 621.38
  L 636.93 621.39
  L 636.43 621.60
  L 636.01 621.91
  L 635.26 622.18
  L 634.45 622.20
  L 633.52 621.97
  L 632.62 621.53
  L 632.39 621.41
  L 631.47 621.25
  Z
  M 717.92 433.42
  L 717.96 433.31
  L 717.86 432.87
  L 717.46 432.68
  L 649.09 432.68
  L 647.15 432.59
  L 645.46 432.31
  L 644.07 431.82
  L 642.88 431.10
  L 641.49 429.62
  L 640.41 427.51
  L 640.29 426.87
  L 639.52 325.98
  L 639.41 325.59
  L 639.12 325.32
  L 638.74 325.24
  L 638.36 325.36
  L 638.10 325.65
  L 564.07 472.51
  L 564.07 473.12
  L 564.55 473.49
  L 564.55 473.49
  L 564.72 473.50
  L 626.28 470.51
  L 633.74 470.28
  L 636.47 471.02
  L 637.61 471.65
  L 638.55 472.41
  L 639.87 474.24
  L 640.70 476.69
  L 641.09 479.79
  L 641.18 484.66
  L 641.18 485.09
  L 641.23 513.63
  L 641.24 543.23
  L 640.95 564.59
  L 640.92 573.91
  L 640.71 583.28
  L 640.80 583.68
  L 641.09 583.99
  L 641.49 584.10
  L 641.89 583.99
  L 642.19 583.67
  L 717.92 433.42
  Z"
/>
</svg>
