<?xml version="1.0" encoding="UTF-8" standalone="no"?>
<!DOCTYPE svg PUBLIC "-//W3C//DTD SVG 1.1//EN" "http://www.w3.org/Graphics/SVG/1.1/DTD/svg11.dtd">
<svg xmlns="http://www.w3.org/2000/svg" version="1.1" viewBox="0.00 0.00 726.00 805.00" width="726.00" height="805.00">
<path fill="#ffffff" d="
  M 295.28 305.89
  L 294.74 306.10
  L 294.33 306.51
  L 294.13 307.05
  L 294.16 307.62
  L 294.21 307.77
  L 296.29 313.26
  L 298.13 318.82
  L 299.77 324.52
  L 301.18 330.27
  L 302.36 336.10
  L 303.30 341.97
  L 304.00 347.87
  L 304.48 353.79
  L 304.72 359.80
  L 304.73 365.83
  L 304.51 371.85
  L 304.05 377.87
  L 303.36 383.93
  L 302.44 389.96
  L 301.28 395.97
  L 299.90 401.94
  L 298.36 407.53
  L 296.59 413.01
  L 294.58 418.38
  L 292.33 423.65
  L 292.33 423.65
  L 289.49 429.50
  L 286.35 435.21
  L 286.34 435.22
  L 286.24 436.05
  L 286.76 436.70
  L 371.25 482.94
  L 446.61 523.92
  L 451.05 526.43
  L 453.82 528.36
  L 455.86 530.36
  L 457.23 532.52
  L 457.75 533.87
  L 458.08 535.36
  L 458.18 538.61
  L 457.94 540.40
  L 457.49 542.07
  L 456.81 543.71
  L 455.92 545.21
  L 454.68 546.74
  L 453.23 548.06
  L 451.59 549.14
  L 449.80 549.99
  L 447.87 550.57
  L 445.84 550.89
  L 443.83 550.93
  L 441.78 550.70
  L 439.72 549.99
  L 436.43 548.34
  L 271.63 459.11
  L 271.10 459.03
  L 270.64 459.32
  L 267.72 462.95
  L 267.72 462.95
  L 261.80 469.52
  L 255.40 475.69
  L 250.76 479.71
  L 246.03 483.51
  L 241.20 487.11
  L 236.27 490.49
  L 231.25 493.66
  L 226.13 496.62
  L 220.92 499.36
  L 215.61 501.90
  L 215.61 501.90
  L 215.61 501.90
  L 207.86 505.15
  L 199.92 507.97
  L 191.79 510.35
  L 183.46 512.31
  L 174.59 513.88
  L 165.74 514.94
  L 156.90 515.49
  L 148.07 515.53
  L 139.72 515.10
  L 131.38 514.20
  L 121.92 512.61
  L 121.92 512.61
  L 121.92 512.61
  L 111.65 510.14
  L 101.53 506.93
  L 91.56 502.97
  L 81.74 498.26
  L 73.63 493.70
  L 65.85 488.66
  L 65.85 488.66
  L 65.85 488.66
  L 60.00 484.39
  L 54.36 479.82
  L 48.92 474.97
  L 43.69 469.82
  L 37.19 462.64
  L 31.11 454.95
  L 25.43 446.75
  L 20.17 438.03
  L 16.74 431.58
  L 13.64 425.01
  L 10.88 418.34
  L 8.46 411.55
  L 8.46 411.55
  L 5.51 401.32
  L 3.19 390.43
  L 1.62 379.37
  L 0.83 368.30
  L 0.80 357.18
  L 1.54 346.26
  L 3.06 335.42
  L 4.11 330.09
  L 5.35 324.80
  L 8.36 314.56
  L 12.28 304.10
  L 16.85 294.11
  L 19.39 289.29
  L 22.09 284.58
  L 24.95 279.99
  L 27.98 275.52
  L 27.98 275.52
  L 27.98 275.52
  L 27.98 275.52
  L 31.48 270.77
  L 35.17 266.16
  L 39.05 261.69
  L 43.14 257.35
  L 47.41 253.16
  L 51.89 249.10
  L 56.56 245.18
  L 61.43 241.40
  L 67.15 237.32
  L 73.02 233.52
  L 79.03 230.02
  L 85.18 226.80
  L 85.18 226.80
  L 85.18 226.80
  L 85.18 226.80
  L 85.18 226.80
  L 93.92 222.82
  L 102.93 219.39
  L 112.21 216.52
  L 121.77 214.19
  L 127.57 213.08
  L 133.38 212.22
  L 139.20 211.60
  L 145.03 211.21
  L 145.03 211.21
  L 145.03 211.21
  L 145.03 211.21
  L 153.36 211.08
  L 161.72 211.45
  L 170.10 212.30
  L 178.50 213.64
  L 184.28 214.83
  L 189.97 216.21
  L 195.56 217.77
  L 201.06 219.51
  L 206.47 221.44
  L 211.78 223.56
  L 217.00 225.86
  L 222.13 228.34
  L 222.13 228.34
  L 222.13 228.34
  L 229.80 232.50
  L 237.25 237.09
  L 244.49 242.11
  L 251.50 247.57
  L 255.45 250.96
  L 259.45 254.68
  L 267.29 262.84
  L 275.01 272.00
  L 282.60 282.20
  L 282.95 282.43
  L 283.36 282.37
  L 496.30 161.37
  L 496.74 161.00
  L 497.01 160.50
  L 497.09 159.94
  L 496.96 159.38
  L 493.65 151.01
  L 491.30 143.30
  L 489.56 134.94
  L 488.59 126.55
  L 488.27 116.36
  L 488.41 111.35
  L 488.76 106.39
  L 489.30 101.48
  L 490.04 96.63
  L 490.99 91.83
  L 492.13 87.08
  L 492.13 87.08
  L 492.13 87.08
  L 494.95 77.94
  L 498.54 69.01
  L 502.90 60.29
  L 508.02 51.76
  L 512.06 45.98
  L 516.41 40.53
  L 521.06 35.42
  L 526.02 30.66
  L 526.02 30.66
  L 531.80 25.82
  L 538.27 21.10
  L 544.94 16.83
  L 551.81 13.01
  L 558.87 9.65
  L 558.87 9.65
  L 562.31 8.21
  L 567.58 6.24
  L 572.91 4.54
  L 578.28 3.12
  L 583.71 1.98
  L 583.71 1.98
  L 592.70 0.69
  L 601.82 0.15
  L 611.08 0.34
  L 620.48 1.27
  L 628.34 2.61
  L 635.98 4.46
  L 643.41 6.81
  L 650.61 9.66
  L 653.86 11.14
  L 662.92 15.90
  L 672.27 21.67
  L 676.72 24.79
  L 680.91 28.09
  L 684.84 31.57
  L 688.52 35.23
  L 692.76 39.96
  L 696.07 44.05
  L 699.18 48.27
  L 702.10 52.61
  L 704.82 57.06
  L 707.37 61.66
  L 709.70 66.37
  L 711.82 71.17
  L 713.73 76.06
  L 715.43 81.05
  L 716.91 86.11
  L 718.17 91.25
  L 719.20 96.43
  L 720.00 101.63
  L 720.58 106.86
  L 720.92 112.13
  L 721.04 117.43
  L 720.86 123.54
  L 720.86 123.54
  L 720.11 131.40
  L 718.77 139.22
  L 716.84 147.01
  L 714.33 154.76
  L 711.50 161.85
  L 708.28 168.67
  L 704.65 175.21
  L 700.63 181.47
  L 700.63 181.47
  L 700.63 181.47
  L 700.63 181.47
  L 697.08 186.34
  L 693.27 191.03
  L 689.19 195.53
  L 684.86 199.86
  L 679.62 204.68
  L 675.42 208.07
  L 674.50 208.75
  L 667.63 213.37
  L 660.57 217.50
  L 653.32 221.11
  L 645.88 224.23
  L 645.88 224.23
  L 645.88 224.23
  L 638.19 226.85
  L 630.32 228.96
  L 622.25 230.57
  L 613.98 231.66
  L 606.09 232.16
  L 598.22 232.08
  L 598.22 232.08
  L 598.22 232.08
  L 592.10 231.60
  L 586.00 230.77
  L 577.51 229.09
  L 569.52 226.95
  L 562.20 224.39
  L 555.47 221.39
  L 548.07 217.39
  L 541.03 212.98
  L 534.35 208.16
  L 528.03 202.94
  L 528.03 202.94
  L 523.49 198.72
  L 519.15 194.27
  L 515.02 189.58
  L 511.09 184.66
  L 510.44 184.25
  L 509.67 184.37
  L 295.99 305.79
  L 295.74 305.86
  L 295.28 305.89
  Z
  M 574.55 32.51
  L 567.29 35.25
  L 560.20 38.75
  L 553.44 42.93
  L 547.12 47.71
  L 541.13 53.17
  L 535.67 59.16
  L 530.78 65.60
  L 526.49 72.46
  L 523.12 79.04
  L 520.28 85.92
  L 518.02 92.94
  L 516.35 100.14
  L 515.30 107.34
  L 514.89 114.39
  L 515.10 121.44
  L 515.94 128.25
  L 516.85 132.89
  L 517.96 137.44
  L 519.27 141.89
  L 520.79 146.24
  L 522.80 151.16
  L 525.06 155.90
  L 527.59 160.46
  L 530.37 164.85
  L 534.10 169.95
  L 538.22 174.78
  L 543.48 180.18
  L 548.87 185.04
  L 554.40 189.37
  L 560.06 193.16
  L 563.94 195.40
  L 567.90 197.40
  L 571.94 199.16
  L 576.06 200.68
  L 576.06 200.68
  L 583.53 202.77
  L 591.26 204.11
  L 596.76 204.67
  L 601.98 204.98
  L 606.94 205.03
  L 611.63 204.82
  L 619.74 203.89
  L 627.56 202.31
  L 635.09 200.08
  L 642.32 197.21
  L 642.32 197.21
  L 642.32 197.21
  L 647.87 194.45
  L 653.24 191.29
  L 658.42 187.71
  L 663.41 183.72
  L 667.14 180.32
  L 670.61 176.74
  L 673.82 172.98
  L 676.77 169.04
  L 676.77 169.04
  L 678.38 166.64
  L 681.18 162.02
  L 683.81 157.07
  L 686.29 151.81
  L 688.61 146.22
  L 690.13 141.98
  L 691.41 137.71
  L 692.44 133.40
  L 693.23 129.05
  L 693.23 129.05
  L 693.23 129.05
  L 694.02 121.42
  L 694.07 113.68
  L 693.37 105.09
  L 691.96 96.82
  L 689.84 88.87
  L 687.02 81.25
  L 684.69 76.21
  L 682.07 71.38
  L 679.12 66.68
  L 675.91 62.21
  L 670.84 56.22
  L 665.27 50.73
  L 659.16 45.70
  L 652.62 41.23
  L 645.67 37.34
  L 638.35 34.04
  L 630.71 31.35
  L 622.78 29.30
  L 618.10 28.44
  L 613.34 27.85
  L 608.51 27.52
  L 603.60 27.46
  L 598.61 27.67
  L 593.55 28.15
  L 588.41 28.90
  L 583.20 29.91
  L 574.55 32.51
  Z
  M 31.4105 332.4458
  L 30.0404 338.4318
  L 28.9659 344.4778
  L 28.1897 350.5693
  L 27.7137 356.6917
  L 27.5389 362.8303
  L 27.6658 368.9701
  L 28.0941 375.0965
  L 28.8227 381.1946
  L 29.8500 387.2499
  L 31.1733 393.2476
  L 32.7896 399.1734
  L 34.6950 405.0129
  L 36.8848 410.7522
  L 39.3538 416.3773
  L 42.0960 421.8748
  L 45.1048 427.2313
  L 48.3730 432.4340
  L 51.8927 437.4704
  L 55.6555 442.3283
  L 59.6521 446.9959
  L 63.8732 451.4622
  L 68.3083 455.7162
  L 72.9470 459.7478
  L 77.7780 463.5472
  L 82.7896 467.1053
  L 87.9698 470.4136
  L 93.3061 473.4640
  L 98.7857 476.2491
  L 104.3953 478.7624
  L 110.1214 480.9977
  L 115.9503 482.9497
  L 121.8680 484.6136
  L 127.8600 485.9854
  L 133.9121 487.0619
  L 140.0096 487.8404
  L 146.1378 488.3190
  L 152.2820 488.4967
  L 158.4274 488.3730
  L 164.5592 487.9481
  L 170.6625 487.2232
  L 176.7228 486.1999
  L 182.7253 484.8807
  L 188.6557 483.2688
  L 194.4996 481.3681
  L 200.2430 479.1832
  L 205.8721 476.7192
  L 211.3732 473.9823
  L 216.7331 470.9788
  L 221.9389 467.7162
  L 226.9781 464.2022
  L 231.8386 460.4453
  L 236.5085 456.4546
  L 240.9767 452.2396
  L 245.2324 447.8106
  L 249.2654 443.1782
  L 253.0659 438.3535
  L 256.6248 433.3482
  L 259.9334 428.1744
  L 262.9840 422.8445
  L 265.7690 417.3713
  L 268.2817 411.7680
  L 270.5162 406.0482
  L 272.4671 400.2255
  L 274.1295 394.3142
  L 274.1295 394.3142
  L 275.4996 388.3282
  L 276.5741 382.2822
  L 277.3503 376.1907
  L 277.8263 370.0683
  L 278.0011 363.9297
  L 277.8742 357.7899
  L 277.4459 351.6635
  L 276.7173 345.5654
  L 275.6900 339.5101
  L 274.3667 333.5124
  L 272.7504 327.5866
  L 270.8450 321.7471
  L 268.6552 316.0078
  L 266.1862 310.3827
  L 263.4440 304.8852
  L 260.4352 299.5287
  L 257.1670 294.3260
  L 253.6473 289.2896
  L 249.8845 284.4317
  L 245.8879 279.7641
  L 241.6668 275.2978
  L 237.2317 271.0438
  L 232.5930 267.0122
  L 227.7620 263.2128
  L 222.7504 259.6547
  L 217.5702 256.3464
  L 212.2339 253.2960
  L 206.7543 250.5109
  L 201.1447 247.9976
  L 195.4186 245.7623
  L 189.5897 243.8103
  L 183.6720 242.1464
  L 177.6800 240.7746
  L 171.6279 239.6981
  L 165.5304 238.9196
  L 159.4022 238.4410
  L 153.2580 238.2633
  L 147.1126 238.3870
  L 140.9808 238.8119
  L 134.8775 239.5368
  L 128.8172 240.5601
  L 122.8147 241.8793
  L 116.8843 243.4912
  L 111.0404 245.3919
  L 105.2970 247.5768
  L 99.6679 250.0408
  L 94.1668 252.7777
  L 88.8069 255.7812
  L 83.6011 259.0438
  L 78.5619 262.5578
  L 73.7014 266.3147
  L 69.0315 270.3054
  L 64.5633 274.5204
  L 60.3076 278.9494
  L 56.2746 283.5818
  L 52.4741 288.4065
  L 48.9152 293.4118
  L 45.6066 298.5856
  L 42.5560 303.9155
  L 39.7710 309.3887
  L 37.2583 314.9920
  L 35.0238 320.7118
  L 33.0729 326.5345
  L 31.4105 332.4458
  Z"
/>
<path fill="#5dd65a" d="
  M 631.08 550.80
  L 714.70 550.80
  L 715.45 550.92
  L 717.44 551.66
  L 719.21 552.59
  L 720.75 553.71
  L 722.08 555.02
  L 722.08 555.02
  L 723.31 556.74
  L 724.26 558.71
  L 724.87 560.84
  L 725.06 562.85
  L 724.74 565.43
  L 723.78 568.05
  L 722.14 570.88
  L 719.47 574.52
  L 718.63 575.63
  L 648.56 669.00
  L 550.59 800.33
  L 549.35 801.70
  L 549.35 801.70
  L 548.05 802.70
  L 546.55 803.50
  L 544.87 804.10
  L 542.99 804.48
  L 541.10 804.61
  L 539.29 804.48
  L 537.48 804.07
  L 535.79 803.41
  L 534.22 802.49
  L 532.82 801.36
  L 531.62 800.03
  L 530.63 798.53
  L 529.78 796.57
  L 529.29 794.43
  L 529.19 792.26
  L 529.49 790.00
  L 563.26 639.51
  L 563.76 636.54
  L 563.82 634.06
  L 563.64 633.70
  L 563.26 633.56
  L 484.01 633.59
  L 482.56 633.39
  L 481.05 632.80
  L 479.47 631.82
  L 477.84 630.44
  L 476.41 628.92
  L 475.32 627.36
  L 474.51 625.70
  L 474.04 624.01
  L 473.92 621.44
  L 474.49 618.65
  L 475.72 615.85
  L 477.64 612.89
  L 577.53 479.77
  L 645.60 389.35
  L 646.87 387.90
  L 648.30 386.69
  L 649.94 385.68
  L 651.69 384.94
  L 653.51 384.50
  L 655.37 384.35
  L 657.22 384.50
  L 659.04 384.97
  L 661.02 385.88
  L 662.85 387.22
  L 664.79 389.33
  L 665.96 391.50
  L 666.42 393.35
  L 666.51 395.33
  L 666.27 397.66
  L 665.68 400.57
  L 630.52 550.09
  L 630.61 550.55
  L 631.01 550.80
  L 631.08 550.80
  Z
  M 629.90 450.95
  L 629.87 450.51
  L 629.63 450.14
  L 629.23 449.95
  L 628.79 449.99
  L 628.41 450.27
  L 509.30 609.30
  L 509.19 609.91
  L 509.62 610.35
  L 509.84 610.39
  L 572.24 610.39
  L 577.47 610.42
  L 580.27 610.64
  L 582.54 611.33
  L 584.62 612.45
  L 586.52 614.00
  L 588.10 615.87
  L 589.27 617.96
  L 590.02 620.22
  L 590.28 622.47
  L 590.04 624.75
  L 590.04 624.77
  L 564.15 741.06
  L 564.13 741.31
  L 564.52 741.93
  L 565.26 741.99
  L 565.84 741.60
  L 625.24 661.86
  L 690.53 574.72
  L 690.65 574.05
  L 690.18 573.57
  L 689.94 573.53
  L 616.49 573.51
  L 614.71 573.37
  L 612.76 572.90
  L 610.94 572.13
  L 609.21 571.03
  L 607.68 569.67
  L 606.41 568.08
  L 605.42 566.29
  L 604.77 564.46
  L 604.44 562.50
  L 604.43 560.74
  L 604.70 558.94
  L 628.21 458.74
  L 629.90 450.95
  Z"
/>
</svg>
