<?xml version="1.0" encoding="UTF-8" standalone="no"?>
<!DOCTYPE svg PUBLIC "-//W3C//DTD SVG 1.1//EN" "http://www.w3.org/Graphics/SVG/1.1/DTD/svg11.dtd">
<svg xmlns="http://www.w3.org/2000/svg" version="1.1" viewBox="0.00 0.00 971.00 968.00" width="971.00" height="968.00">
<g stroke-width="2.00" fill="none" stroke-linecap="butt">
<path stroke="#85d7bb" vector-effect="non-scaling-stroke" d="
  M 425.51 169.80
  L 419.03 167.83
  L 412.47 166.23
  L 405.84 165.00
  L 399.16 164.15
  L 392.45 163.68
  L 385.72 163.59
  L 379.01 163.88
  L 372.32 164.55
  L 365.73 165.60
  L 359.20 167.02
  L 352.85 168.79
  L 346.60 170.94
  L 340.50 173.43
  L 334.54 176.30
  L 328.81 179.48
  L 323.24 183.02
  L 318.30 186.56
  L 313.59 190.29
  L 309.04 194.30
  L 304.74 198.49
  L 300.66 202.89
  L 296.84 207.47
  L 293.27 212.22
  L 289.96 217.13
  L 285.42 224.92
  L 281.50 233.04
  L 278.22 241.46
  L 275.58 250.14
  L 273.60 259.06
  L 272.29 268.19
  L 271.66 277.40
  L 271.71 286.76
  L 272.10 292.60
  L 272.79 298.40
  L 273.77 304.16
  L 275.04 309.86
  L 276.60 315.55
  L 278.44 321.14
  L 280.56 326.65
  L 282.94 332.04
  L 285.58 337.29
  L 288.48 342.41
  L 291.63 347.38
  L 295.03 352.19
  L 298.65 356.81
  L 302.50 361.24
  L 306.51 365.39
  L 310.73 369.35
  L 315.64 373.48
  L 320.79 377.34
  L 326.15 380.92
  L 331.71 384.20
  L 337.45 387.19
  L 343.34 389.87
  L 349.37 392.22
  L 355.52 394.25
  L 361.72 395.92
  L 368.00 397.24
  L 374.25 398.19
  L 380.53 398.79
  L 386.73 399.03
  L 392.94 398.90
  L 399.04 398.41
  L 405.11 397.56
  L 413.68 395.78
  L 421.99 393.44
  L 430.11 390.53
  L 437.92 387.08
  L 445.49 383.07
  L 452.70 378.56
  L 459.61 373.50
  L 466.12 367.96
  L 469.77 364.47
  L 473.27 360.83
  L 476.62 357.04
  L 479.80 353.10
  L 482.81 349.02
  L 485.65 344.80
  L 488.32 340.46
  L 490.81 335.99
  L 493.08 331.46
  L 495.17 326.83
  L 497.07 322.08
  L 498.78 317.22
  L 500.28 312.33
  L 501.59 307.35
  L 502.70 302.27
  L 503.61 297.11
  L 504.47 289.92
  L 504.84 282.72
  L 504.73 275.39
  L 504.13 268.10
  L 503.04 260.73
  L 501.48 253.45
  L 499.43 246.18
  L 496.93 239.05
  L 493.98 232.07
  L 490.60 225.29
  L 486.81 218.73
  L 482.62 212.44
  L 478.07 206.45
  L 473.15 200.77
  L 467.95 195.50
  L 462.42 190.58
  L 455.58 185.28
  L 448.49 180.57
  L 441.16 176.43
  L 433.58 172.87
  L 433.58 172.87
  L 425.51 169.80"
/>
<path stroke="#85d7bb" vector-effect="non-scaling-stroke" d="
  M 772.08 674.89
  L 778.23 673.17
  L 784.14 671.03
  L 789.80 668.48
  L 795.20 665.51
  L 795.20 665.51
  L 796.03 665.01
  L 797.26 664.21
  L 800.80 661.46
  L 804.06 658.18
  L 806.90 654.47
  L 809.28 650.44
  L 811.27 645.95
  L 812.76 641.25
  L 813.76 636.28
  L 814.25 631.23
  L 815.11 613.07
  L 815.52 609.18
  L 816.29 605.53
  L 817.49 601.92
  L 819.11 598.38
  L 821.21 594.69
  L 823.91 590.69
  L 828.41 584.25
  L 833.22 576.99
  L 836.70 571.29
  L 838.84 566.98
  L 840.46 562.37
  L 841.55 557.79
  L 842.11 553.24
  L 842.14 548.72
  L 842.14 548.72
  L 842.14 548.72
  L 841.54 543.67
  L 840.27 538.66
  L 838.33 533.68
  L 835.73 528.74
  L 831.68 522.73
  L 824.36 512.81
  L 820.06 506.80
  L 817.78 502.84
  L 816.24 498.41
  L 815.23 493.41
  L 814.67 487.72
  L 814.40 479.72
  L 814.00 469.75
  L 813.59 466.03
  L 812.99 462.65
  L 811.81 458.21
  L 810.28 454.15
  L 808.36 450.35
  L 806.11 446.91
  L 803.80 444.09
  L 801.25 441.52
  L 798.36 439.11
  L 795.22 436.94
  L 791.74 434.92
  L 787.85 433.03
  L 783.67 431.32
  L 779.06 429.74
  L 776.52 428.95
  L 769.34 426.63
  L 764.21 424.65
  L 759.77 422.47
  L 755.92 420.02
  L 754.50 418.77
  L 752.90 416.98
  L 749.12 411.73
  L 744.08 404.49
  L 738.66 397.61
  L 735.87 394.52
  L 732.93 391.72
  L 729.90 389.29
  L 726.74 387.18
  L 723.53 385.44
  L 720.20 384.03
  L 716.84 383.00
  L 713.39 382.32
  L 709.69 382.00
  L 705.89 382.08
  L 702.10 382.57
  L 698.22 383.49
  L 689.22 386.45
  L 679.14 389.73
  L 675.52 390.65
  L 672.38 391.20
  L 666.52 391.65
  L 660.89 391.48
  L 655.47 390.67
  L 650.28 389.24
  L 633.83 383.77
  L 628.69 382.47
  L 623.70 381.85
  L 618.88 381.91
  L 614.21 382.64
  L 614.21 382.64
  L 614.21 382.64
  L 610.02 383.93
  L 605.96 385.81
  L 602.04 388.27
  L 598.26 391.32
  L 594.60 394.99
  L 590.80 399.53
  L 586.79 404.96
  L 581.88 412.27
  L 581.86 412.30
  L 579.44 415.72
  L 577.08 418.50
  L 574.69 420.75
  L 572.07 422.63
  L 569.22 424.12
  L 566.01 425.28
  L 555.86 428.40
  L 546.19 431.71
  L 540.08 434.32
  L 537.29 435.84
  L 534.68 437.50
  L 532.24 439.30
  L 529.99 441.24
  L 527.90 443.32
  L 526.00 445.54
  L 526.00 445.54
  L 523.23 449.54
  L 520.94 453.94
  L 519.15 458.73
  L 517.85 463.91
  L 517.12 469.39
  L 516.83 476.19
  L 516.81 478.56
  L 516.54 488.85
  L 516.18 492.44
  L 515.59 495.77
  L 514.53 499.72
  L 513.70 501.83
  L 512.48 504.17
  L 508.86 509.53
  L 506.27 512.94
  L 500.23 521.03
  L 496.33 526.95
  L 493.32 532.51
  L 491.06 538.11
  L 490.51 539.82
  L 489.46 544.27
  L 488.98 548.79
  L 489.06 552.94
  L 489.64 557.18
  L 490.74 561.52
  L 492.35 565.94
  L 494.47 570.46
  L 497.13 575.18
  L 500.39 580.23
  L 504.63 586.19
  L 509.89 593.74
  L 512.96 599.07
  L 513.97 601.53
  L 514.85 604.29
  L 515.54 607.17
  L 516.07 610.35
  L 516.72 617.50
  L 516.92 627.46
  L 517.21 632.78
  L 518.00 638.01
  L 519.28 642.97
  L 521.06 647.72
  L 523.25 652.02
  L 525.91 656.03
  L 528.95 659.58
  L 532.44 662.75
  L 534.90 664.55
  L 537.55 666.17
  L 542.32 668.65
  L 547.28 670.86
  L 552.41 672.82
  L 557.72 674.52
  L 558.03 674.78
  L 558.06 675.18
  L 558.05 675.21
  L 551.23 692.47
  L 523.50 766.26
  L 522.35 770.03
  L 521.85 773.55
  L 521.99 776.76
  L 522.76 779.67
  L 523.95 782.04
  L 525.69 784.30
  L 527.10 785.67
  L 528.59 786.81
  L 530.15 787.73
  L 531.79 788.43
  L 531.79 788.43
  L 531.79 788.43
  L 531.79 788.43
  L 533.76 788.95
  L 535.83 789.18
  L 538.01 789.12
  L 540.28 788.77
  L 558.72 784.63
  L 578.26 779.83
  L 579.31 779.86
  L 580.18 780.46
  L 602.73 808.02
  L 605.66 811.19
  L 608.12 813.05
  L 610.41 814.04
  L 612.80 814.62
  L 615.33 814.81
  L 617.86 814.60
  L 620.34 814.00
  L 622.68 813.03
  L 624.83 811.72
  L 626.72 810.07
  L 627.89 808.52
  L 629.20 806.12
  L 632.28 798.82
  L 664.47 713.08
  L 664.99 712.33
  L 665.81 711.93
  L 666.72 711.96
  L 667.50 712.43
  L 667.92 713.09
  L 685.53 760.66
  L 702.49 805.76
  L 703.69 808.21
  L 705.26 810.27
  L 706.96 811.82
  L 708.88 813.04
  L 711.06 813.98
  L 713.37 814.56
  L 715.77 814.79
  L 718.20 814.66
  L 720.62 814.17
  L 722.98 813.33
  L 724.71 812.31
  L 726.60 810.73
  L 728.63 808.58
  L 730.82 805.87
  L 751.19 780.56
  L 752.03 779.99
  L 753.04 779.96
  L 770.07 784.28
  L 789.19 788.83
  L 792.27 789.23
  L 795.22 788.96
  L 795.22 788.96
  L 798.04 788.02
  L 800.73 786.40
  L 802.58 784.84
  L 804.12 783.17
  L 805.36 781.37
  L 806.30 779.46
  L 806.30 779.46
  L 806.92 777.44
  L 807.24 775.30
  L 807.27 773.05
  L 806.99 770.68
  L 806.14 767.58
  L 804.24 762.79
  L 802.59 758.68
  L 786.68 715.10
  L 771.82 675.40
  L 771.81 675.38
  L 771.84 675.08
  L 772.08 674.89"
/>
<path stroke="#85d7bb" vector-effect="non-scaling-stroke" d="
  M 277.76 661.66
  L 277.79 598.94
  L 277.64 595.38
  L 277.18 592.49
  L 276.36 590.09
  L 275.20 588.13
  L 273.80 586.61
  L 271.99 585.27
  L 270.40 584.45
  L 268.79 583.91
  L 267.11 583.65
  L 265.45 583.68
  L 262.80 584.35
  L 260.41 585.75
  L 258.38 587.79
  L 256.82 590.40
  L 256.31 591.92
  L 255.95 593.92
  L 255.67 599.31
  L 255.68 661.61
  L 255.51 662.03
  L 255.09 662.21
  L 255.09 662.21
  L 194.52 662.35
  L 192.29 662.20
  L 190.36 661.76
  L 188.71 661.02
  L 187.34 659.98
  L 187.34 659.98
  L 186.40 658.85
  L 185.67 657.49
  L 185.20 655.81
  L 184.95 653.49
  L 184.91 650.51
  L 185.08 646.88
  L 188.17 600.72
  L 189.28 587.91
  L 190.99 575.11
  L 193.29 562.54
  L 196.16 550.23
  L 199.58 538.32
  L 203.52 526.84
  L 207.95 515.95
  L 212.86 505.62
  L 216.43 499.22
  L 220.42 493.11
  L 224.87 487.19
  L 229.69 481.58
  L 234.97 476.19
  L 240.58 471.16
  L 246.58 466.43
  L 252.85 462.09
  L 259.44 457.97
  L 266.14 454.10
  L 272.83 450.52
  L 279.65 447.20
  L 286.43 444.18
  L 293.33 441.41
  L 300.27 438.93
  L 307.33 436.69
  L 317.11 434.06
  L 320.93 433.28
  L 324.76 432.76
  L 328.43 432.53
  L 331.98 432.58
  L 336.72 433.07
  L 338.32 433.43
  L 339.41 433.88
  L 343.53 435.99
  L 348.16 437.81
  L 353.32 439.34
  L 358.99 440.58
  L 366.36 441.78
  L 373.66 442.64
  L 380.90 443.17
  L 388.07 443.36
  L 395.19 443.22
  L 402.23 442.74
  L 409.22 441.93
  L 416.14 440.79
  L 416.14 440.79
  L 416.14 440.79
  L 416.14 440.79
  L 422.25 439.49
  L 428.31 437.92
  L 434.32 436.09
  L 440.28 434.00
  L 443.18 433.16
  L 445.97 432.83
  L 449.44 433.08
  L 457.31 434.55
  L 464.62 436.14
  L 471.38 437.84
  L 477.76 439.70
  L 483.73 441.72
  L 489.36 443.92
  L 494.61 446.28
  L 499.51 448.81
  L 499.91 448.86
  L 500.23 448.61
  L 509.68 432.25
  L 509.79 431.57
  L 509.43 430.99
  L 506.16 428.69
  L 502.45 426.57
  L 494.13 422.58
  L 485.67 419.13
  L 477.09 416.23
  L 468.38 413.87
  L 468.38 413.87
  L 468.38 413.87
  L 468.38 413.87
  L 458.26 411.84
  L 447.97 410.53
  L 444.75 410.36
  L 441.71 410.43
  L 439.13 410.74
  L 437.01 411.28
  L 424.19 415.53
  L 414.60 418.21
  L 405.75 420.00
  L 397.50 420.90
  L 387.45 421.18
  L 377.78 420.81
  L 368.89 419.78
  L 364.68 419.01
  L 360.79 418.10
  L 357.11 416.92
  L 352.42 414.94
  L 346.83 412.65
  L 342.43 411.53
  L 338.72 411.07
  L 334.50 410.81
  L 327.31 410.77
  L 320.43 411.19
  L 313.86 412.05
  L 307.59 413.36
  L 299.48 415.61
  L 291.21 418.33
  L 282.81 421.52
  L 274.34 425.16
  L 265.90 429.20
  L 257.48 433.64
  L 249.13 438.47
  L 240.91 443.65
  L 232.56 449.54
  L 224.74 455.88
  L 217.47 462.67
  L 210.74 469.91
  L 204.36 477.82
  L 198.55 486.21
  L 193.30 495.08
  L 188.60 504.42
  L 185.92 510.53
  L 183.41 516.87
  L 181.04 523.52
  L 178.81 530.45
  L 176.71 537.74
  L 174.71 545.44
  L 170.79 563.01
  L 169.68 569.11
  L 168.66 576.12
  L 166.89 592.90
  L 164.95 619.53
  L 163.01 654.98
  L 163.01 658.34
  L 163.35 661.55
  L 164.03 664.62
  L 165.06 667.55
  L 165.06 667.55
  L 166.35 670.21
  L 167.96 672.74
  L 169.88 675.14
  L 172.11 677.41
  L 174.29 679.19
  L 177.99 681.38
  L 182.16 682.94
  L 186.86 683.87
  L 192.02 684.16
  L 296.61 683.94
  L 452.50 683.94
  L 518.93 684.36
  L 519.55 684.14
  L 519.88 683.57
  L 519.91 681.79
  L 519.44 680.36
  L 518.40 678.79
  L 505.45 662.50
  L 504.95 662.09
  L 504.32 661.95
  L 278.04 661.95
  L 278.04 661.95
  L 277.76 661.66"
/>
<path stroke="#85d7bb" vector-effect="non-scaling-stroke" d="
  M 380.4715 186.4056
  L 375.9091 186.8873
  L 371.3760 187.5957
  L 366.8832 188.5290
  L 362.4414 189.6851
  L 358.0613 191.0610
  L 353.7536 192.6535
  L 349.5286 194.4588
  L 345.3965 196.4725
  L 341.3672 198.6898
  L 337.4504 201.1053
  L 333.6556 203.7132
  L 329.9919 206.5072
  L 326.4682 209.4806
  L 323.0928 212.6263
  L 319.8741 215.9365
  L 316.8196 219.4035
  L 313.9368 223.0187
  L 311.2327 226.7736
  L 308.7137 230.6590
  L 306.3858 234.6657
  L 304.2548 238.7839
  L 302.3257 243.0037
  L 300.6033 247.3150
  L 299.0915 251.7073
  L 297.7941 256.1702
  L 296.7143 260.6928
  L 295.8545 265.2643
  L 295.2170 269.8736
  L 294.8031 274.5096
  L 294.6140 279.1612
  L 294.6500 283.8171
  L 294.9111 288.4662
  L 295.3966 293.0972
  L 296.1055 297.6990
  L 297.0359 302.2605
  L 298.1856 306.7708
  L 299.5519 311.2188
  L 301.1315 315.5940
  L 302.9206 319.8858
  L 304.9148 324.0838
  L 307.1093 328.1780
  L 309.4990 332.1584
  L 312.0779 336.0155
  L 314.8399 339.7400
  L 317.7784 343.3230
  L 320.8862 346.7557
  L 324.1559 350.0299
  L 327.5796 353.1377
  L 331.1491 356.0717
  L 334.8557 358.8248
  L 338.6905 361.3903
  L 342.6443 363.7621
  L 346.7076 365.9344
  L 350.8705 367.9020
  L 355.1231 369.6603
  L 359.4551 371.2048
  L 363.8560 372.5320
  L 368.3153 373.6385
  L 372.8223 374.5219
  L 377.3659 375.1798
  L 381.9354 375.6108
  L 386.5197 375.8138
  L 391.1077 375.7883
  L 395.6885 375.5344
  L 395.6885 375.5344
  L 400.2509 375.0527
  L 404.7840 374.3443
  L 409.2768 373.4110
  L 413.7186 372.2549
  L 418.0987 370.8790
  L 422.4064 369.2865
  L 426.6314 367.4812
  L 430.7635 365.4675
  L 434.7928 363.2502
  L 438.7096 360.8347
  L 442.5044 358.2268
  L 446.1681 355.4328
  L 449.6918 352.4594
  L 453.0672 349.3137
  L 456.2859 346.0035
  L 459.3404 342.5365
  L 462.2232 338.9213
  L 464.9273 335.1664
  L 467.4463 331.2810
  L 469.7742 327.2743
  L 471.9052 323.1561
  L 473.8343 318.9363
  L 475.5567 314.6250
  L 477.0685 310.2327
  L 478.3659 305.7698
  L 479.4457 301.2472
  L 480.3055 296.6757
  L 480.9430 292.0664
  L 481.3569 287.4304
  L 481.5460 282.7788
  L 481.5100 278.1229
  L 481.2489 273.4738
  L 480.7634 268.8428
  L 480.0545 264.2410
  L 479.1241 259.6795
  L 477.9744 255.1692
  L 476.6081 250.7212
  L 475.0285 246.3460
  L 473.2394 242.0542
  L 471.2452 237.8562
  L 469.0507 233.7620
  L 466.6610 229.7816
  L 464.0821 225.9245
  L 461.3201 222.2000
  L 458.3816 218.6170
  L 455.2738 215.1843
  L 452.0041 211.9101
  L 448.5804 208.8023
  L 445.0109 205.8683
  L 441.3043 203.1152
  L 437.4695 200.5497
  L 433.5157 198.1779
  L 429.4524 196.0056
  L 425.2895 194.0380
  L 421.0369 192.2797
  L 416.7049 190.7352
  L 412.3040 189.4080
  L 407.8447 188.3015
  L 403.3377 187.4181
  L 398.7941 186.7602
  L 394.2246 186.3292
  L 389.6403 186.1262
  L 385.0523 186.1517
  L 380.4715 186.4056"
/>
<path stroke="#85d7bb" vector-effect="non-scaling-stroke" d="
  M 607.99 691.21
  L 610.36 694.13
  L 612.99 696.50
  L 615.84 698.30
  L 618.89 699.52
  L 622.04 700.16
  L 625.32 700.23
  L 628.72 699.74
  L 632.20 698.67
  L 642.60 694.95
  L 650.74 692.68
  L 657.77 691.50
  L 664.80 691.04
  L 671.82 691.30
  L 678.84 692.28
  L 685.88 693.97
  L 692.92 696.38
  L 700.95 699.52
  L 704.48 700.32
  L 707.96 700.45
  L 710.31 700.17
  L 712.60 699.59
  L 714.79 698.75
  L 716.87 697.64
  L 718.81 696.28
  L 720.61 694.70
  L 722.23 692.90
  L 723.65 690.89
  L 729.34 682.37
  L 734.70 675.45
  L 737.83 671.98
  L 741.13 668.75
  L 744.59 665.75
  L 748.22 662.98
  L 752.30 660.26
  L 756.58 657.82
  L 761.05 655.64
  L 765.71 653.73
  L 771.09 651.94
  L 777.74 649.68
  L 782.24 647.55
  L 784.18 646.31
  L 785.81 645.00
  L 787.24 643.56
  L 788.49 641.92
  L 790.01 639.03
  L 790.50 637.44
  L 790.87 635.37
  L 791.26 629.83
  L 791.81 617.11
  L 792.28 612.32
  L 792.91 608.25
  L 794.43 601.84
  L 795.79 597.48
  L 797.38 593.26
  L 799.22 589.07
  L 801.37 584.80
  L 803.78 580.55
  L 806.52 576.18
  L 813.20 566.75
  L 815.67 563.17
  L 817.48 559.79
  L 818.67 556.51
  L 819.29 553.33
  L 819.40 551.29
  L 819.29 549.19
  L 818.47 544.96
  L 817.77 543.08
  L 816.65 540.88
  L 813.14 535.46
  L 806.76 526.54
  L 803.56 521.87
  L 800.75 517.12
  L 798.32 512.28
  L 796.27 507.35
  L 794.12 500.70
  L 792.58 493.85
  L 791.61 486.67
  L 791.22 479.24
  L 791.20 476.58
  L 791.06 470.61
  L 790.60 466.63
  L 789.67 463.27
  L 788.18 460.41
  L 787.11 459.03
  L 785.81 457.73
  L 784.34 456.57
  L 782.63 455.48
  L 779.52 453.86
  L 776.14 452.39
  L 767.04 449.24
  L 759.90 446.86
  L 754.47 444.64
  L 749.40 442.02
  L 744.68 438.99
  L 740.33 435.54
  L 740.33 435.54
  L 740.33 435.54
  L 740.33 435.54
  L 736.62 432.00
  L 733.21 428.10
  L 730.98 425.07
  L 728.14 420.68
  L 725.42 416.47
  L 723.32 413.58
  L 721.19 411.12
  L 718.96 409.03
  L 717.07 407.61
  L 715.11 406.48
  L 713.10 405.62
  L 711.03 405.03
  L 711.03 405.03
  L 708.64 404.71
  L 706.18 404.74
  L 703.64 405.11
  L 701.03 405.83
  L 689.91 409.47
  L 682.60 411.62
  L 679.11 412.43
  L 673.81 413.28
  L 668.51 413.71
  L 663.07 413.74
  L 657.64 413.35
  L 652.12 412.55
  L 646.43 411.33
  L 640.78 409.72
  L 634.99 407.68
  L 628.92 405.65
  L 626.51 405.10
  L 624.50 404.86
  L 622.27 404.87
  L 620.22 405.10
  L 618.23 405.55
  L 616.41 406.20
  L 614.69 407.07
  L 613.10 408.10
  L 610.08 410.86
  L 607.20 414.50
  L 603.63 420.12
  L 600.20 425.54
  L 597.43 429.22
  L 594.78 432.14
  L 591.94 434.87
  L 591.94 434.87
  L 587.12 438.77
  L 581.86 442.18
  L 576.15 445.09
  L 570.01 447.52
  L 557.10 451.67
  L 554.41 452.55
  L 551.65 453.67
  L 549.15 454.91
  L 547.25 456.08
  L 545.07 457.91
  L 543.27 460.05
  L 541.64 463.13
  L 540.61 466.73
  L 540.09 470.96
  L 539.95 477.20
  L 539.94 478.76
  L 539.60 486.07
  L 538.65 493.21
  L 537.12 500.06
  L 534.99 506.74
  L 533.14 511.27
  L 531.00 515.71
  L 528.54 520.06
  L 525.78 524.32
  L 521.85 529.61
  L 517.30 535.81
  L 514.53 540.54
  L 513.51 542.88
  L 512.78 545.10
  L 512.29 547.33
  L 512.05 549.64
  L 512.07 551.80
  L 512.33 554.04
  L 512.83 556.27
  L 513.58 558.58
  L 514.49 560.60
  L 515.84 562.98
  L 519.84 568.83
  L 523.82 574.34
  L 526.76 578.74
  L 529.46 583.33
  L 531.86 588.06
  L 533.97 592.91
  L 535.76 597.88
  L 537.24 602.93
  L 538.39 608.07
  L 539.20 613.19
  L 539.69 618.37
  L 539.84 622.68
  L 539.85 624.17
  L 540.08 631.45
  L 540.40 634.14
  L 540.88 636.55
  L 541.56 638.79
  L 542.42 640.72
  L 543.48 642.46
  L 544.80 644.04
  L 546.76 645.69
  L 550.36 647.91
  L 553.52 649.27
  L 564.20 652.99
  L 568.75 654.85
  L 572.79 656.71
  L 576.54 658.69
  L 580.14 660.86
  L 583.59 663.22
  L 586.89 665.76
  L 586.89 665.76
  L 586.89 665.76
  L 590.84 669.24
  L 594.56 673.02
  L 598.02 677.10
  L 601.25 681.48
  L 607.99 691.21"
/>
<path stroke="#85d7bb" vector-effect="non-scaling-stroke" d="
  M 641.63 717.97
  L 636.73 719.84
  L 631.91 721.50
  L 627.22 722.49
  L 622.52 722.84
  L 617.97 722.56
  L 613.96 721.78
  L 610.09 720.51
  L 606.27 718.75
  L 602.62 716.53
  L 599.00 713.80
  L 595.58 710.64
  L 592.29 707.00
  L 589.21 703.00
  L 576.49 685.31
  L 576.36 685.18
  L 575.80 685.08
  L 575.38 685.47
  L 545.50 766.62
  L 545.56 767.12
  L 546.00 767.37
  L 546.00 767.37
  L 546.16 767.35
  L 577.07 759.31
  L 579.09 758.89
  L 580.98 758.72
  L 582.84 758.78
  L 584.58 759.08
  L 587.51 760.19
  L 590.33 762.04
  L 593.16 764.69
  L 596.58 768.68
  L 613.67 789.48
  L 613.79 789.59
  L 614.34 789.68
  L 614.75 789.30
  L 641.79 718.13
  L 641.80 718.09
  L 641.63 717.97"
/>
<path stroke="#85d7bb" vector-effect="non-scaling-stroke" d="
  M 783.70 766.49
  L 754.12 686.84
  L 754.09 686.80
  L 753.82 686.52
  L 753.79 686.49
  L 753.45 686.39
  L 753.14 686.57
  L 741.67 702.93
  L 738.56 706.94
  L 735.25 710.58
  L 731.84 713.74
  L 728.25 716.49
  L 724.64 718.71
  L 720.87 720.51
  L 717.05 721.80
  L 713.09 722.64
  L 708.13 723.00
  L 702.98 722.60
  L 697.72 721.44
  L 692.48 719.54
  L 692.29 719.50
  L 691.86 719.71
  L 691.80 720.19
  L 717.55 789.54
  L 717.61 789.66
  L 718.00 789.86
  L 718.39 789.67
  L 738.49 764.01
  L 740.74 761.71
  L 743.19 760.14
  L 744.67 759.55
  L 746.21 759.15
  L 749.69 758.88
  L 753.77 759.34
  L 758.65 760.55
  L 783.06 767.19
  L 783.22 767.21
  L 783.64 766.97
  L 783.70 766.49"
/>
<path stroke="#85d7bb" vector-effect="non-scaling-stroke" d="
  M 608.09 653.44
  L 614.64 656.92
  L 621.32 659.94
  L 628.12 662.51
  L 635.04 664.63
  L 635.04 664.63
  L 642.62 666.41
  L 650.34 667.66
  L 658.20 668.39
  L 666.21 668.59
  L 671.14 668.45
  L 676.02 668.10
  L 680.87 667.53
  L 685.68 666.76
  L 685.68 666.76
  L 685.68 666.76
  L 685.68 666.76
  L 691.30 665.57
  L 696.86 664.08
  L 702.36 662.31
  L 707.82 660.23
  L 713.21 657.87
  L 718.56 655.21
  L 723.85 652.25
  L 729.08 649.00
  L 735.14 644.75
  L 740.89 640.12
  L 746.38 635.06
  L 751.51 629.67
  L 756.32 623.91
  L 760.76 617.85
  L 764.79 611.52
  L 768.41 604.94
  L 771.61 598.15
  L 774.37 591.16
  L 776.69 583.99
  L 778.54 576.69
  L 779.90 569.34
  L 780.78 561.90
  L 781.17 554.50
  L 781.07 547.05
  L 780.60 540.69
  L 779.80 534.44
  L 778.65 528.18
  L 777.17 522.05
  L 775.35 516.01
  L 773.22 510.11
  L 770.77 504.35
  L 768.01 498.75
  L 763.96 491.70
  L 759.41 484.96
  L 754.38 478.55
  L 748.88 472.49
  L 742.96 466.82
  L 736.60 461.54
  L 729.90 456.74
  L 722.80 452.36
  L 715.43 448.48
  L 707.88 445.16
  L 700.10 442.37
  L 692.21 440.15
  L 684.19 438.51
  L 676.11 437.44
  L 667.99 436.96
  L 659.87 437.06
  L 653.64 437.53
  L 647.44 438.35
  L 641.27 439.52
  L 635.15 441.03
  L 629.11 442.87
  L 623.15 445.07
  L 617.35 447.56
  L 611.64 450.39
  L 605.18 454.09
  L 599.00 458.20
  L 593.05 462.75
  L 587.42 467.66
  L 582.07 472.97
  L 577.08 478.60
  L 572.47 484.54
  L 568.25 490.75
  L 564.43 497.22
  L 561.04 503.91
  L 558.08 510.81
  L 555.57 517.89
  L 553.54 525.05
  L 551.98 532.35
  L 550.92 539.65
  L 550.34 547.03
  L 550.21 553.19
  L 550.35 559.25
  L 550.78 565.20
  L 551.49 571.05
  L 552.48 576.80
  L 553.75 582.45
  L 555.31 587.99
  L 557.14 593.43
  L 557.14 593.43
  L 558.92 597.96
  L 560.90 602.42
  L 563.08 606.81
  L 565.47 611.12
  L 569.72 617.91
  L 574.35 624.31
  L 579.36 630.32
  L 584.74 635.94
  L 584.74 635.94
  L 584.74 635.94
  L 584.74 635.94
  L 590.09 640.82
  L 595.76 645.36
  L 601.76 649.57
  L 608.09 653.44"
/>
<path stroke="#85d7bb" vector-effect="non-scaling-stroke" d="
  M 575.23 527.15
  L 573.90 532.38
  L 572.87 537.61
  L 572.13 542.92
  L 571.69 548.23
  L 571.55 553.53
  L 571.71 558.79
  L 572.16 564.09
  L 572.92 569.34
  L 573.77 573.71
  L 574.84 578.02
  L 576.09 582.27
  L 577.55 586.44
  L 579.21 590.58
  L 581.07 594.62
  L 583.12 598.58
  L 585.35 602.43
  L 587.74 606.15
  L 590.31 609.76
  L 593.05 613.25
  L 595.96 616.60
  L 599.00 619.79
  L 602.19 622.84
  L 605.54 625.74
  L 609.04 628.50
  L 616.06 633.27
  L 623.59 637.44
  L 631.52 640.91
  L 639.70 643.64
  L 648.09 645.62
  L 656.66 646.84
  L 665.25 647.26
  L 673.74 646.90
  L 678.16 646.40
  L 682.54 645.69
  L 686.86 644.78
  L 691.12 643.67
  L 695.36 642.34
  L 699.52 640.82
  L 703.61 639.11
  L 707.60 637.20
  L 711.53 635.10
  L 715.35 632.81
  L 719.06 630.35
  L 722.65 627.71
  L 726.08 624.92
  L 729.39 621.98
  L 732.56 618.87
  L 735.59 615.61
  L 738.99 611.54
  L 742.17 607.27
  L 745.07 602.88
  L 747.74 598.30
  L 750.16 593.56
  L 752.33 588.65
  L 754.20 583.66
  L 755.82 578.51
  L 757.15 573.29
  L 758.18 568.06
  L 758.92 562.74
  L 759.36 557.44
  L 759.50 552.14
  L 759.35 546.88
  L 758.89 541.57
  L 758.14 536.32
  L 757.28 531.95
  L 756.22 527.64
  L 754.96 523.40
  L 753.50 519.23
  L 751.84 515.09
  L 749.98 511.04
  L 747.94 507.08
  L 745.71 503.23
  L 743.31 499.51
  L 740.74 495.90
  L 738.00 492.42
  L 735.09 489.06
  L 732.05 485.87
  L 728.86 482.82
  L 725.51 479.92
  L 722.02 477.17
  L 714.99 472.39
  L 707.46 468.23
  L 699.53 464.75
  L 691.35 462.02
  L 682.97 460.04
  L 674.40 458.82
  L 665.80 458.40
  L 657.31 458.76
  L 652.89 459.26
  L 648.52 459.97
  L 644.20 460.88
  L 639.94 461.99
  L 635.69 463.32
  L 631.53 464.84
  L 627.44 466.55
  L 623.45 468.46
  L 619.53 470.56
  L 615.71 472.85
  L 612.00 475.31
  L 608.40 477.96
  L 604.97 480.74
  L 601.67 483.68
  L 598.50 486.79
  L 595.47 490.05
  L 592.07 494.12
  L 588.88 498.39
  L 585.98 502.79
  L 583.31 507.37
  L 580.90 512.10
  L 578.73 517.02
  L 576.85 522.00
  L 575.23 527.15"
/>
<path stroke="#85d7bb" vector-effect="non-scaling-stroke" d="
  M 666.12 600.50
  L 677.85 607.59
  L 691.55 616.26
  L 694.93 618.10
  L 698.21 619.19
  L 701.25 619.50
  L 704.04 619.05
  L 706.21 618.09
  L 708.28 616.54
  L 710.34 614.22
  L 711.64 611.82
  L 712.21 609.74
  L 712.40 607.35
  L 712.19 604.56
  L 711.57 601.11
  L 705.33 572.81
  L 705.36 572.17
  L 705.71 571.62
  L 724.30 554.55
  L 728.11 550.62
  L 730.74 547.03
  L 731.54 545.46
  L 732.09 543.85
  L 732.41 542.11
  L 732.46 540.37
  L 731.96 537.47
  L 730.73 534.75
  L 728.87 532.42
  L 726.39 530.49
  L 725.06 529.86
  L 723.32 529.33
  L 718.66 528.62
  L 706.71 527.65
  L 693.51 526.78
  L 689.48 526.21
  L 689.01 525.95
  L 688.72 525.49
  L 677.83 496.21
  L 677.05 494.49
  L 676.08 492.96
  L 674.88 491.54
  L 673.53 490.34
  L 671.70 489.18
  L 669.72 488.36
  L 667.64 487.87
  L 665.50 487.73
  L 663.36 487.95
  L 661.25 488.54
  L 659.31 489.44
  L 657.48 490.68
  L 656.19 492.00
  L 654.91 493.87
  L 653.64 496.29
  L 652.38 499.26
  L 642.32 525.61
  L 641.83 526.26
  L 641.07 526.55
  L 611.73 528.68
  L 608.32 529.15
  L 605.48 529.98
  L 603.09 531.21
  L 601.27 532.80
  L 600.18 534.30
  L 599.34 536.10
  L 598.63 538.82
  L 598.53 541.56
  L 599.13 544.39
  L 600.47 547.22
  L 602.61 550.16
  L 605.63 553.31
  L 625.23 571.62
  L 625.57 572.15
  L 625.58 572.77
  L 618.95 599.14
  L 617.64 604.90
  L 617.26 607.76
  L 617.47 609.51
  L 617.89 611.14
  L 618.55 612.73
  L 619.42 614.17
  L 620.45 615.44
  L 621.64 616.54
  L 622.97 617.47
  L 624.42 618.22
  L 625.97 618.79
  L 627.60 619.17
  L 629.30 619.34
  L 631.05 619.31
  L 632.82 618.92
  L 635.13 617.99
  L 637.96 616.51
  L 641.33 614.49
  L 665.26 600.50
  L 666.05 600.46
  L 666.12 600.50"
/>
<path stroke="#85d7bb" vector-effect="non-scaling-stroke" d="
  M 649.14 564.23
  L 649.34 564.52
  L 649.35 564.87
  L 641.96 590.64
  L 642.08 591.20
  L 642.46 591.41
  L 642.88 591.31
  L 665.63 576.10
  L 665.88 576.01
  L 666.32 576.11
  L 687.59 591.29
  L 688.25 591.32
  L 688.55 590.74
  L 688.54 590.64
  L 681.93 564.29
  L 682.14 563.67
  L 702.10 548.03
  L 702.33 547.64
  L 702.18 547.15
  L 701.72 546.94
  L 675.66 546.94
  L 675.46 546.90
  L 675.09 546.53
  L 666.06 520.35
  L 665.84 520.05
  L 665.48 519.94
  L 665.13 520.05
  L 664.91 520.35
  L 656.08 546.22
  L 655.93 546.45
  L 655.51 546.63
  L 629.77 547.24
  L 629.36 547.41
  L 629.17 547.82
  L 629.17 547.82
  L 629.40 548.33
  L 649.14 564.23"
/>
</g>
<g fill="#0aae77">
<path d="
  M 936.13 659.87
  L 935.56 661.39
  L 931.49 671.15
  L 927.23 680.80
  L 922.78 690.32
  L 918.13 699.72
  L 913.28 709.00
  L 908.25 718.16
  L 903.02 727.20
  L 897.59 736.12
  L 897.59 736.12
  L 897.59 736.12
  L 897.59 736.12
  L 897.59 736.12
  L 891.05 746.32
  L 884.25 756.37
  L 877.18 766.24
  L 869.86 775.96
  L 862.27 785.52
  L 854.42 794.91
  L 846.31 804.13
  L 837.94 813.20
  L 822.03 829.46
  L 814.23 837.01
  L 806.47 844.22
  L 798.78 851.07
  L 791.13 857.59
  L 783.59 863.72
  L 776.10 869.51
  L 761.20 880.30
  L 745.98 890.50
  L 730.44 900.11
  L 714.58 909.12
  L 714.58 909.12
  L 707.09 913.11
  L 695.31 919.05
  L 683.40 924.65
  L 671.36 929.92
  L 659.19 934.85
  L 659.19 934.85
  L 641.42 941.35
  L 623.38 947.15
  L 605.07 952.25
  L 586.48 956.64
  L 573.23 959.31
  L 560.31 961.52
  L 547.74 963.28
  L 535.50 964.57
  L 528.16 965.22
  L 525.42 965.51
  L 519.91 965.88
  L 514.61 966.22
  L 512.90 966.38
  L 504.97 966.79
  L 465.04 966.81
  L 459.81 966.66
  L 455.02 966.29
  L 448.42 965.86
  L 441.68 965.42
  L 427.00 963.87
  L 415.67 962.42
  L 404.34 960.66
  L 393.01 958.61
  L 381.70 956.26
  L 370.38 953.60
  L 359.08 950.65
  L 347.78 947.39
  L 336.48 943.84
  L 324.56 939.77
  L 312.83 935.44
  L 301.30 930.86
  L 289.97 926.03
  L 278.84 920.94
  L 267.90 915.59
  L 257.16 909.99
  L 246.61 904.13
  L 231.49 895.14
  L 216.81 885.72
  L 202.55 875.89
  L 188.72 865.63
  L 175.32 854.96
  L 162.35 843.86
  L 149.80 832.34
  L 137.69 820.41
  L 137.69 820.41
  L 137.69 820.41
  L 130.03 812.41
  L 122.56 804.24
  L 115.27 795.89
  L 108.16 787.36
  L 101.23 778.65
  L 94.49 769.77
  L 87.92 760.70
  L 81.54 751.46
  L 73.07 738.44
  L 65.05 725.16
  L 65.05 725.16
  L 57.82 712.27
  L 51.00 699.15
  L 44.59 685.79
  L 38.58 672.20
  L 32.98 658.37
  L 27.78 644.30
  L 22.98 630.01
  L 18.59 615.47
  L 15.25 603.16
  L 12.25 590.72
  L 9.59 578.17
  L 7.26 565.50
  L 5.26 552.70
  L 3.60 539.79
  L 2.27 526.75
  L 1.28 513.60
  L 0.62 500.43
  L 0.29 487.33
  L 0.28 474.31
  L 0.61 461.35
  L 1.25 448.47
  L 2.23 435.67
  L 3.53 422.93
  L 5.16 410.27
  L 6.90 399.04
  L 8.91 387.91
  L 11.18 376.89
  L 13.73 365.98
  L 16.54 355.17
  L 19.63 344.47
  L 22.98 333.87
  L 26.60 323.38
  L 33.38 305.57
  L 40.71 288.26
  L 48.65 271.30
  L 57.14 254.86
  L 66.23 238.82
  L 75.85 223.30
  L 86.11 208.11
  L 96.89 193.45
  L 97.35 192.85
  L 106.14 181.73
  L 115.19 170.93
  L 124.49 160.43
  L 134.05 150.24
  L 143.86 140.36
  L 153.92 130.79
  L 164.24 121.52
  L 174.81 112.57
  L 174.81 112.57
  L 174.81 112.57
  L 182.54 106.35
  L 190.40 100.28
  L 198.39 94.38
  L 206.51 88.63
  L 215.48 82.56
  L 224.56 76.71
  L 233.76 71.05
  L 243.08 65.61
  L 243.08 65.61
  L 243.08 65.61
  L 259.87 56.46
  L 277.04 47.97
  L 294.57 40.12
  L 312.47 32.92
  L 322.86 29.10
  L 333.29 25.52
  L 343.77 22.18
  L 354.30 19.09
  L 364.87 16.24
  L 375.48 13.63
  L 386.14 11.26
  L 396.85 9.13
  L 396.85 9.13
  L 413.08 6.39
  L 429.40 4.19
  L 445.84 2.55
  L 462.37 1.46
  L 479.01 0.92
  L 495.75 0.93
  L 512.59 1.49
  L 529.54 2.60
  L 539.54 3.52
  L 549.48 4.65
  L 559.37 5.98
  L 569.21 7.52
  L 578.99 9.26
  L 588.72 11.21
  L 598.40 13.37
  L 608.03 15.73
  L 608.03 15.73
  L 608.03 15.73
  L 608.03 15.73
  L 608.03 15.73
  L 608.03 15.73
  L 625.16 20.49
  L 642.12 25.91
  L 658.92 31.99
  L 675.54 38.74
  L 688.85 44.67
  L 701.95 50.97
  L 714.84 57.64
  L 727.51 64.69
  L 727.51 64.69
  L 727.51 64.69
  L 727.51 64.69
  L 727.51 64.69
  L 741.64 73.14
  L 755.50 82.07
  L 769.08 91.47
  L 782.39 101.36
  L 791.74 108.73
  L 800.87 116.29
  L 809.79 124.04
  L 818.49 131.97
  L 826.97 140.10
  L 835.23 148.43
  L 843.28 156.94
  L 851.11 165.64
  L 851.11 165.64
  L 860.87 177.12
  L 870.28 188.92
  L 879.32 201.03
  L 888.00 213.46
  L 896.32 226.21
  L 904.28 239.27
  L 911.89 252.65
  L 919.13 266.34
  L 924.94 278.11
  L 930.39 289.98
  L 935.50 301.93
  L 940.26 313.97
  L 944.67 326.10
  L 948.73 338.32
  L 952.43 350.64
  L 955.79 363.04
  L 955.79 363.04
  L 959.69 379.55
  L 962.99 396.21
  L 965.67 413.03
  L 967.74 430.01
  L 968.86 442.24
  L 969.68 454.43
  L 970.20 466.60
  L 970.42 478.74
  L 970.35 490.86
  L 969.97 502.94
  L 969.30 515.00
  L 968.32 527.03
  L 968.32 527.03
  L 968.32 527.03
  L 968.32 527.03
  L 968.32 527.03
  L 966.59 542.75
  L 964.35 558.42
  L 961.60 574.04
  L 958.33 589.62
  L 954.14 606.46
  L 949.10 623.72
  L 943.21 641.40
  L 936.47 659.50
  L 936.29 659.67
  L 936.13 659.87
  Z
  M 425.51 169.80
  L 419.03 167.83
  L 412.47 166.23
  L 405.84 165.00
  L 399.16 164.15
  L 392.45 163.68
  L 385.72 163.59
  L 379.01 163.88
  L 372.32 164.55
  L 365.73 165.60
  L 359.20 167.02
  L 352.85 168.79
  L 346.60 170.94
  L 340.50 173.43
  L 334.54 176.30
  L 328.81 179.48
  L 323.24 183.02
  L 318.30 186.56
  L 313.59 190.29
  L 309.04 194.30
  L 304.74 198.49
  L 300.66 202.89
  L 296.84 207.47
  L 293.27 212.22
  L 289.96 217.13
  L 285.42 224.92
  L 281.50 233.04
  L 278.22 241.46
  L 275.58 250.14
  L 273.60 259.06
  L 272.29 268.19
  L 271.66 277.40
  L 271.71 286.76
  L 272.10 292.60
  L 272.79 298.40
  L 273.77 304.16
  L 275.04 309.86
  L 276.60 315.55
  L 278.44 321.14
  L 280.56 326.65
  L 282.94 332.04
  L 285.58 337.29
  L 288.48 342.41
  L 291.63 347.38
  L 295.03 352.19
  L 298.65 356.81
  L 302.50 361.24
  L 306.51 365.39
  L 310.73 369.35
  L 315.64 373.48
  L 320.79 377.34
  L 326.15 380.92
  L 331.71 384.20
  L 337.45 387.19
  L 343.34 389.87
  L 349.37 392.22
  L 355.52 394.25
  L 361.72 395.92
  L 368.00 397.24
  L 374.25 398.19
  L 380.53 398.79
  L 386.73 399.03
  L 392.94 398.90
  L 399.04 398.41
  L 405.11 397.56
  L 413.68 395.78
  L 421.99 393.44
  L 430.11 390.53
  L 437.92 387.08
  L 445.49 383.07
  L 452.70 378.56
  L 459.61 373.50
  L 466.12 367.96
  L 469.77 364.47
  L 473.27 360.83
  L 476.62 357.04
  L 479.80 353.10
  L 482.81 349.02
  L 485.65 344.80
  L 488.32 340.46
  L 490.81 335.99
  L 493.08 331.46
  L 495.17 326.83
  L 497.07 322.08
  L 498.78 317.22
  L 500.28 312.33
  L 501.59 307.35
  L 502.70 302.27
  L 503.61 297.11
  L 504.47 289.92
  L 504.84 282.72
  L 504.73 275.39
  L 504.13 268.10
  L 503.04 260.73
  L 501.48 253.45
  L 499.43 246.18
  L 496.93 239.05
  L 493.98 232.07
  L 490.60 225.29
  L 486.81 218.73
  L 482.62 212.44
  L 478.07 206.45
  L 473.15 200.77
  L 467.95 195.50
  L 462.42 190.58
  L 455.58 185.28
  L 448.49 180.57
  L 441.16 176.43
  L 433.58 172.87
  L 433.58 172.87
  L 425.51 169.80
  Z
  M 772.08 674.89
  L 778.23 673.17
  L 784.14 671.03
  L 789.80 668.48
  L 795.20 665.51
  L 795.20 665.51
  L 796.03 665.01
  L 797.26 664.21
  L 800.80 661.46
  L 804.06 658.18
  L 806.90 654.47
  L 809.28 650.44
  L 811.27 645.95
  L 812.76 641.25
  L 813.76 636.28
  L 814.25 631.23
  L 815.11 613.07
  L 815.52 609.18
  L 816.29 605.53
  L 817.49 601.92
  L 819.11 598.38
  L 821.21 594.69
  L 823.91 590.69
  L 828.41 584.25
  L 833.22 576.99
  L 836.70 571.29
  L 838.84 566.98
  L 840.46 562.37
  L 841.55 557.79
  L 842.11 553.24
  L 842.14 548.72
  L 842.14 548.72
  L 842.14 548.72
  L 841.54 543.67
  L 840.27 538.66
  L 838.33 533.68
  L 835.73 528.74
  L 831.68 522.73
  L 824.36 512.81
  L 820.06 506.80
  L 817.78 502.84
  L 816.24 498.41
  L 815.23 493.41
  L 814.67 487.72
  L 814.40 479.72
  L 814.00 469.75
  L 813.59 466.03
  L 812.99 462.65
  L 811.81 458.21
  L 810.28 454.15
  L 808.36 450.35
  L 806.11 446.91
  L 803.80 444.09
  L 801.25 441.52
  L 798.36 439.11
  L 795.22 436.94
  L 791.74 434.92
  L 787.85 433.03
  L 783.67 431.32
  L 779.06 429.74
  L 776.52 428.95
  L 769.34 426.63
  L 764.21 424.65
  L 759.77 422.47
  L 755.92 420.02
  L 754.50 418.77
  L 752.90 416.98
  L 749.12 411.73
  L 744.08 404.49
  L 738.66 397.61
  L 735.87 394.52
  L 732.93 391.72
  L 729.90 389.29
  L 726.74 387.18
  L 723.53 385.44
  L 720.20 384.03
  L 716.84 383.00
  L 713.39 382.32
  L 709.69 382.00
  L 705.89 382.08
  L 702.10 382.57
  L 698.22 383.49
  L 689.22 386.45
  L 679.14 389.73
  L 675.52 390.65
  L 672.38 391.20
  L 666.52 391.65
  L 660.89 391.48
  L 655.47 390.67
  L 650.28 389.24
  L 633.83 383.77
  L 628.69 382.47
  L 623.70 381.85
  L 618.88 381.91
  L 614.21 382.64
  L 614.21 382.64
  L 614.21 382.64
  L 610.02 383.93
  L 605.96 385.81
  L 602.04 388.27
  L 598.26 391.32
  L 594.60 394.99
  L 590.80 399.53
  L 586.79 404.96
  L 581.88 412.27
  L 581.86 412.30
  L 579.44 415.72
  L 577.08 418.50
  L 574.69 420.75
  L 572.07 422.63
  L 569.22 424.12
  L 566.01 425.28
  L 555.86 428.40
  L 546.19 431.71
  L 540.08 434.32
  L 537.29 435.84
  L 534.68 437.50
  L 532.24 439.30
  L 529.99 441.24
  L 527.90 443.32
  L 526.00 445.54
  L 526.00 445.54
  L 523.23 449.54
  L 520.94 453.94
  L 519.15 458.73
  L 517.85 463.91
  L 517.12 469.39
  L 516.83 476.19
  L 516.81 478.56
  L 516.54 488.85
  L 516.18 492.44
  L 515.59 495.77
  L 514.53 499.72
  L 513.70 501.83
  L 512.48 504.17
  L 508.86 509.53
  L 506.27 512.94
  L 500.23 521.03
  L 496.33 526.95
  L 493.32 532.51
  L 491.06 538.11
  L 490.51 539.82
  L 489.46 544.27
  L 488.98 548.79
  L 489.06 552.94
  L 489.64 557.18
  L 490.74 561.52
  L 492.35 565.94
  L 494.47 570.46
  L 497.13 575.18
  L 500.39 580.23
  L 504.63 586.19
  L 509.89 593.74
  L 512.96 599.07
  L 513.97 601.53
  L 514.85 604.29
  L 515.54 607.17
  L 516.07 610.35
  L 516.72 617.50
  L 516.92 627.46
  L 517.21 632.78
  L 518.00 638.01
  L 519.28 642.97
  L 521.06 647.72
  L 523.25 652.02
  L 525.91 656.03
  L 528.95 659.58
  L 532.44 662.75
  L 534.90 664.55
  L 537.55 666.17
  L 542.32 668.65
  L 547.28 670.86
  L 552.41 672.82
  L 557.72 674.52
  L 558.03 674.78
  L 558.06 675.18
  L 558.05 675.21
  L 551.23 692.47
  L 523.50 766.26
  L 522.35 770.03
  L 521.85 773.55
  L 521.99 776.76
  L 522.76 779.67
  L 523.95 782.04
  L 525.69 784.30
  L 527.10 785.67
  L 528.59 786.81
  L 530.15 787.73
  L 531.79 788.43
  L 531.79 788.43
  L 531.79 788.43
  L 531.79 788.43
  L 533.76 788.95
  L 535.83 789.18
  L 538.01 789.12
  L 540.28 788.77
  L 558.72 784.63
  L 578.26 779.83
  L 579.31 779.86
  L 580.18 780.46
  L 602.73 808.02
  L 605.66 811.19
  L 608.12 813.05
  L 610.41 814.04
  L 612.80 814.62
  L 615.33 814.81
  L 617.86 814.60
  L 620.34 814.00
  L 622.68 813.03
  L 624.83 811.72
  L 626.72 810.07
  L 627.89 808.52
  L 629.20 806.12
  L 632.28 798.82
  L 664.47 713.08
  L 664.99 712.33
  L 665.81 711.93
  L 666.72 711.96
  L 667.50 712.43
  L 667.92 713.09
  L 685.53 760.66
  L 702.49 805.76
  L 703.69 808.21
  L 705.26 810.27
  L 706.96 811.82
  L 708.88 813.04
  L 711.06 813.98
  L 713.37 814.56
  L 715.77 814.79
  L 718.20 814.66
  L 720.62 814.17
  L 722.98 813.33
  L 724.71 812.31
  L 726.60 810.73
  L 728.63 808.58
  L 730.82 805.87
  L 751.19 780.56
  L 752.03 779.99
  L 753.04 779.96
  L 770.07 784.28
  L 789.19 788.83
  L 792.27 789.23
  L 795.22 788.96
  L 795.22 788.96
  L 798.04 788.02
  L 800.73 786.40
  L 802.58 784.84
  L 804.12 783.17
  L 805.36 781.37
  L 806.30 779.46
  L 806.30 779.46
  L 806.92 777.44
  L 807.24 775.30
  L 807.27 773.05
  L 806.99 770.68
  L 806.14 767.58
  L 804.24 762.79
  L 802.59 758.68
  L 786.68 715.10
  L 771.82 675.40
  L 771.81 675.38
  L 771.84 675.08
  L 772.08 674.89
  Z
  M 277.76 661.66
  L 277.79 598.94
  L 277.64 595.38
  L 277.18 592.49
  L 276.36 590.09
  L 275.20 588.13
  L 273.80 586.61
  L 271.99 585.27
  L 270.40 584.45
  L 268.79 583.91
  L 267.11 583.65
  L 265.45 583.68
  L 262.80 584.35
  L 260.41 585.75
  L 258.38 587.79
  L 256.82 590.40
  L 256.31 591.92
  L 255.95 593.92
  L 255.67 599.31
  L 255.68 661.61
  L 255.51 662.03
  L 255.09 662.21
  L 255.09 662.21
  L 194.52 662.35
  L 192.29 662.20
  L 190.36 661.76
  L 188.71 661.02
  L 187.34 659.98
  L 187.34 659.98
  L 186.40 658.85
  L 185.67 657.49
  L 185.20 655.81
  L 184.95 653.49
  L 184.91 650.51
  L 185.08 646.88
  L 188.17 600.72
  L 189.28 587.91
  L 190.99 575.11
  L 193.29 562.54
  L 196.16 550.23
  L 199.58 538.32
  L 203.52 526.84
  L 207.95 515.95
  L 212.86 505.62
  L 216.43 499.22
  L 220.42 493.11
  L 224.87 487.19
  L 229.69 481.58
  L 234.97 476.19
  L 240.58 471.16
  L 246.58 466.43
  L 252.85 462.09
  L 259.44 457.97
  L 266.14 454.10
  L 272.83 450.52
  L 279.65 447.20
  L 286.43 444.18
  L 293.33 441.41
  L 300.27 438.93
  L 307.33 436.69
  L 317.11 434.06
  L 320.93 433.28
  L 324.76 432.76
  L 328.43 432.53
  L 331.98 432.58
  L 336.72 433.07
  L 338.32 433.43
  L 339.41 433.88
  L 343.53 435.99
  L 348.16 437.81
  L 353.32 439.34
  L 358.99 440.58
  L 366.36 441.78
  L 373.66 442.64
  L 380.90 443.17
  L 388.07 443.36
  L 395.19 443.22
  L 402.23 442.74
  L 409.22 441.93
  L 416.14 440.79
  L 416.14 440.79
  L 416.14 440.79
  L 416.14 440.79
  L 422.25 439.49
  L 428.31 437.92
  L 434.32 436.09
  L 440.28 434.00
  L 443.18 433.16
  L 445.97 432.83
  L 449.44 433.08
  L 457.31 434.55
  L 464.62 436.14
  L 471.38 437.84
  L 477.76 439.70
  L 483.73 441.72
  L 489.36 443.92
  L 494.61 446.28
  L 499.51 448.81
  L 499.91 448.86
  L 500.23 448.61
  L 509.68 432.25
  L 509.79 431.57
  L 509.43 430.99
  L 506.16 428.69
  L 502.45 426.57
  L 494.13 422.58
  L 485.67 419.13
  L 477.09 416.23
  L 468.38 413.87
  L 468.38 413.87
  L 468.38 413.87
  L 468.38 413.87
  L 458.26 411.84
  L 447.97 410.53
  L 444.75 410.36
  L 441.71 410.43
  L 439.13 410.74
  L 437.01 411.28
  L 424.19 415.53
  L 414.60 418.21
  L 405.75 420.00
  L 397.50 420.90
  L 387.45 421.18
  L 377.78 420.81
  L 368.89 419.78
  L 364.68 419.01
  L 360.79 418.10
  L 357.11 416.92
  L 352.42 414.94
  L 346.83 412.65
  L 342.43 411.53
  L 338.72 411.07
  L 334.50 410.81
  L 327.31 410.77
  L 320.43 411.19
  L 313.86 412.05
  L 307.59 413.36
  L 299.48 415.61
  L 291.21 418.33
  L 282.81 421.52
  L 274.34 425.16
  L 265.90 429.20
  L 257.48 433.64
  L 249.13 438.47
  L 240.91 443.65
  L 232.56 449.54
  L 224.74 455.88
  L 217.47 462.67
  L 210.74 469.91
  L 204.36 477.82
  L 198.55 486.21
  L 193.30 495.08
  L 188.60 504.42
  L 185.92 510.53
  L 183.41 516.87
  L 181.04 523.52
  L 178.81 530.45
  L 176.71 537.74
  L 174.71 545.44
  L 170.79 563.01
  L 169.68 569.11
  L 168.66 576.12
  L 166.89 592.90
  L 164.95 619.53
  L 163.01 654.98
  L 163.01 658.34
  L 163.35 661.55
  L 164.03 664.62
  L 165.06 667.55
  L 165.06 667.55
  L 166.35 670.21
  L 167.96 672.74
  L 169.88 675.14
  L 172.11 677.41
  L 174.29 679.19
  L 177.99 681.38
  L 182.16 682.94
  L 186.86 683.87
  L 192.02 684.16
  L 296.61 683.94
  L 452.50 683.94
  L 518.93 684.36
  L 519.55 684.14
  L 519.88 683.57
  L 519.91 681.79
  L 519.44 680.36
  L 518.40 678.79
  L 505.45 662.50
  L 504.95 662.09
  L 504.32 661.95
  L 278.04 661.95
  L 278.04 661.95
  L 277.76 661.66
  Z"
/>
<ellipse cx="0.00" cy="0.00" transform="translate(388.08,280.97) rotate(-94.6)" rx="94.87" ry="93.47"/>
<path d="
  M 632.20 698.67
  L 628.72 699.74
  L 625.32 700.23
  L 622.04 700.16
  L 618.89 699.52
  L 615.84 698.30
  L 612.99 696.50
  L 610.36 694.13
  L 607.99 691.21
  L 601.25 681.48
  L 598.02 677.10
  L 594.56 673.02
  L 590.84 669.24
  L 586.89 665.76
  L 586.89 665.76
  L 583.59 663.22
  L 580.14 660.86
  L 576.54 658.69
  L 572.79 656.71
  L 568.75 654.85
  L 564.20 652.99
  L 553.52 649.27
  L 550.36 647.91
  L 546.76 645.69
  L 544.80 644.04
  L 543.48 642.46
  L 542.42 640.72
  L 541.56 638.79
  L 540.88 636.55
  L 540.40 634.14
  L 540.08 631.45
  L 539.85 624.17
  L 539.84 622.68
  L 539.69 618.37
  L 539.20 613.19
  L 538.39 608.07
  L 537.24 602.93
  L 535.76 597.88
  L 533.97 592.91
  L 531.86 588.06
  L 529.46 583.33
  L 526.76 578.74
  L 523.82 574.34
  L 519.84 568.83
  L 515.84 562.98
  L 514.49 560.60
  L 513.58 558.58
  L 512.83 556.27
  L 512.33 554.04
  L 512.07 551.80
  L 512.05 549.64
  L 512.29 547.33
  L 512.78 545.10
  L 513.51 542.88
  L 514.53 540.54
  L 517.30 535.81
  L 521.85 529.61
  L 525.78 524.32
  L 528.54 520.06
  L 531.00 515.71
  L 533.14 511.27
  L 534.99 506.74
  L 537.12 500.06
  L 538.65 493.21
  L 539.60 486.07
  L 539.94 478.76
  L 539.95 477.20
  L 540.09 470.96
  L 540.61 466.73
  L 541.64 463.13
  L 543.27 460.05
  L 545.07 457.91
  L 547.25 456.08
  L 549.15 454.91
  L 551.65 453.67
  L 554.41 452.55
  L 557.10 451.67
  L 570.01 447.52
  L 576.15 445.09
  L 581.86 442.18
  L 587.12 438.77
  L 591.94 434.87
  L 591.94 434.87
  L 594.78 432.14
  L 597.43 429.22
  L 600.20 425.54
  L 603.63 420.12
  L 607.20 414.50
  L 610.08 410.86
  L 613.10 408.10
  L 614.69 407.07
  L 616.41 406.20
  L 618.23 405.55
  L 620.22 405.10
  L 622.27 404.87
  L 624.50 404.86
  L 626.51 405.10
  L 628.92 405.65
  L 634.99 407.68
  L 640.78 409.72
  L 646.43 411.33
  L 652.12 412.55
  L 657.64 413.35
  L 663.07 413.74
  L 668.51 413.71
  L 673.81 413.28
  L 679.11 412.43
  L 682.60 411.62
  L 689.91 409.47
  L 701.03 405.83
  L 703.64 405.11
  L 706.18 404.74
  L 708.64 404.71
  L 711.03 405.03
  L 711.03 405.03
  L 711.03 405.03
  L 713.10 405.62
  L 715.11 406.48
  L 717.07 407.61
  L 718.96 409.03
  L 721.19 411.12
  L 723.32 413.58
  L 725.42 416.47
  L 728.14 420.68
  L 730.98 425.07
  L 733.21 428.10
  L 736.62 432.00
  L 740.33 435.54
  L 740.33 435.54
  L 740.33 435.54
  L 744.68 438.99
  L 749.40 442.02
  L 754.47 444.64
  L 759.90 446.86
  L 767.04 449.24
  L 776.14 452.39
  L 779.52 453.86
  L 782.63 455.48
  L 784.34 456.57
  L 785.81 457.73
  L 787.11 459.03
  L 788.18 460.41
  L 789.67 463.27
  L 790.60 466.63
  L 791.06 470.61
  L 791.20 476.58
  L 791.22 479.24
  L 791.61 486.67
  L 792.58 493.85
  L 794.12 500.70
  L 796.27 507.35
  L 798.32 512.28
  L 800.75 517.12
  L 803.56 521.87
  L 806.76 526.54
  L 813.14 535.46
  L 816.65 540.88
  L 817.77 543.08
  L 818.47 544.96
  L 819.29 549.19
  L 819.40 551.29
  L 819.29 553.33
  L 818.67 556.51
  L 817.48 559.79
  L 815.67 563.17
  L 813.20 566.75
  L 806.52 576.18
  L 803.78 580.55
  L 801.37 584.80
  L 799.22 589.07
  L 797.38 593.26
  L 795.79 597.48
  L 794.43 601.84
  L 792.91 608.25
  L 792.28 612.32
  L 791.81 617.11
  L 791.26 629.83
  L 790.87 635.37
  L 790.50 637.44
  L 790.01 639.03
  L 788.49 641.92
  L 787.24 643.56
  L 785.81 645.00
  L 784.18 646.31
  L 782.24 647.55
  L 777.74 649.68
  L 771.09 651.94
  L 765.71 653.73
  L 761.05 655.64
  L 756.58 657.82
  L 752.30 660.26
  L 748.22 662.98
  L 744.59 665.75
  L 741.13 668.75
  L 737.83 671.98
  L 734.70 675.45
  L 729.34 682.37
  L 723.65 690.89
  L 722.23 692.90
  L 720.61 694.70
  L 718.81 696.28
  L 716.87 697.64
  L 714.79 698.75
  L 712.60 699.59
  L 710.31 700.17
  L 707.96 700.45
  L 704.48 700.32
  L 700.95 699.52
  L 692.92 696.38
  L 685.88 693.97
  L 678.84 692.28
  L 671.82 691.30
  L 664.80 691.04
  L 657.77 691.50
  L 650.74 692.68
  L 642.60 694.95
  L 632.20 698.67
  Z
  M 608.09 653.44
  L 614.64 656.92
  L 621.32 659.94
  L 628.12 662.51
  L 635.04 664.63
  L 635.04 664.63
  L 642.62 666.41
  L 650.34 667.66
  L 658.20 668.39
  L 666.21 668.59
  L 671.14 668.45
  L 676.02 668.10
  L 680.87 667.53
  L 685.68 666.76
  L 685.68 666.76
  L 685.68 666.76
  L 685.68 666.76
  L 691.30 665.57
  L 696.86 664.08
  L 702.36 662.31
  L 707.82 660.23
  L 713.21 657.87
  L 718.56 655.21
  L 723.85 652.25
  L 729.08 649.00
  L 735.14 644.75
  L 740.89 640.12
  L 746.38 635.06
  L 751.51 629.67
  L 756.32 623.91
  L 760.76 617.85
  L 764.79 611.52
  L 768.41 604.94
  L 771.61 598.15
  L 774.37 591.16
  L 776.69 583.99
  L 778.54 576.69
  L 779.90 569.34
  L 780.78 561.90
  L 781.17 554.50
  L 781.07 547.05
  L 780.60 540.69
  L 779.80 534.44
  L 778.65 528.18
  L 777.17 522.05
  L 775.35 516.01
  L 773.22 510.11
  L 770.77 504.35
  L 768.01 498.75
  L 763.96 491.70
  L 759.41 484.96
  L 754.38 478.55
  L 748.88 472.49
  L 742.96 466.82
  L 736.60 461.54
  L 729.90 456.74
  L 722.80 452.36
  L 715.43 448.48
  L 707.88 445.16
  L 700.10 442.37
  L 692.21 440.15
  L 684.19 438.51
  L 676.11 437.44
  L 667.99 436.96
  L 659.87 437.06
  L 653.64 437.53
  L 647.44 438.35
  L 641.27 439.52
  L 635.15 441.03
  L 629.11 442.87
  L 623.15 445.07
  L 617.35 447.56
  L 611.64 450.39
  L 605.18 454.09
  L 599.00 458.20
  L 593.05 462.75
  L 587.42 467.66
  L 582.07 472.97
  L 577.08 478.60
  L 572.47 484.54
  L 568.25 490.75
  L 564.43 497.22
  L 561.04 503.91
  L 558.08 510.81
  L 555.57 517.89
  L 553.54 525.05
  L 551.98 532.35
  L 550.92 539.65
  L 550.34 547.03
  L 550.21 553.19
  L 550.35 559.25
  L 550.78 565.20
  L 551.49 571.05
  L 552.48 576.80
  L 553.75 582.45
  L 555.31 587.99
  L 557.14 593.43
  L 557.14 593.43
  L 558.92 597.96
  L 560.90 602.42
  L 563.08 606.81
  L 565.47 611.12
  L 569.72 617.91
  L 574.35 624.31
  L 579.36 630.32
  L 584.74 635.94
  L 584.74 635.94
  L 584.74 635.94
  L 584.74 635.94
  L 590.09 640.82
  L 595.76 645.36
  L 601.76 649.57
  L 608.09 653.44
  Z"
/>
<path d="
  M 691.35 462.02
  L 699.53 464.75
  L 707.46 468.23
  L 714.99 472.39
  L 722.02 477.17
  L 725.51 479.92
  L 728.86 482.82
  L 732.05 485.87
  L 735.09 489.06
  L 738.00 492.42
  L 740.74 495.90
  L 743.31 499.51
  L 745.71 503.23
  L 747.94 507.08
  L 749.98 511.04
  L 751.84 515.09
  L 753.50 519.23
  L 754.96 523.40
  L 756.22 527.64
  L 757.28 531.95
  L 758.14 536.32
  L 758.89 541.57
  L 759.35 546.88
  L 759.50 552.14
  L 759.36 557.44
  L 758.92 562.74
  L 758.18 568.06
  L 757.15 573.29
  L 755.82 578.51
  L 754.20 583.66
  L 752.33 588.65
  L 750.16 593.56
  L 747.74 598.30
  L 745.07 602.88
  L 742.17 607.27
  L 738.99 611.54
  L 735.59 615.61
  L 732.56 618.87
  L 729.39 621.98
  L 726.08 624.92
  L 722.65 627.71
  L 719.06 630.35
  L 715.35 632.81
  L 711.53 635.10
  L 707.60 637.20
  L 703.61 639.11
  L 699.52 640.82
  L 695.36 642.34
  L 691.12 643.67
  L 686.86 644.78
  L 682.54 645.69
  L 678.16 646.40
  L 673.74 646.90
  L 665.25 647.26
  L 656.66 646.84
  L 648.09 645.62
  L 639.70 643.64
  L 631.52 640.91
  L 623.59 637.44
  L 616.06 633.27
  L 609.04 628.50
  L 605.54 625.74
  L 602.19 622.84
  L 599.00 619.79
  L 595.96 616.60
  L 593.05 613.25
  L 590.31 609.76
  L 587.74 606.15
  L 585.35 602.43
  L 583.12 598.58
  L 581.07 594.62
  L 579.21 590.58
  L 577.55 586.44
  L 576.09 582.27
  L 574.84 578.02
  L 573.77 573.71
  L 572.92 569.34
  L 572.16 564.09
  L 571.71 558.79
  L 571.55 553.53
  L 571.69 548.23
  L 572.13 542.92
  L 572.87 537.61
  L 573.90 532.38
  L 575.23 527.15
  L 576.85 522.00
  L 578.73 517.02
  L 580.90 512.10
  L 583.31 507.37
  L 585.98 502.79
  L 588.88 498.39
  L 592.07 494.12
  L 595.47 490.05
  L 598.50 486.79
  L 601.67 483.68
  L 604.97 480.74
  L 608.40 477.96
  L 612.00 475.31
  L 615.71 472.85
  L 619.53 470.56
  L 623.45 468.46
  L 627.44 466.55
  L 631.53 464.84
  L 635.69 463.32
  L 639.94 461.99
  L 644.20 460.88
  L 648.52 459.97
  L 652.89 459.26
  L 657.31 458.76
  L 665.80 458.40
  L 674.40 458.82
  L 682.97 460.04
  L 691.35 462.02
  Z
  M 666.12 600.50
  L 677.85 607.59
  L 691.55 616.26
  L 694.93 618.10
  L 698.21 619.19
  L 701.25 619.50
  L 704.04 619.05
  L 706.21 618.09
  L 708.28 616.54
  L 710.34 614.22
  L 711.64 611.82
  L 712.21 609.74
  L 712.40 607.35
  L 712.19 604.56
  L 711.57 601.11
  L 705.33 572.81
  L 705.36 572.17
  L 705.71 571.62
  L 724.30 554.55
  L 728.11 550.62
  L 730.74 547.03
  L 731.54 545.46
  L 732.09 543.85
  L 732.41 542.11
  L 732.46 540.37
  L 731.96 537.47
  L 730.73 534.75
  L 728.87 532.42
  L 726.39 530.49
  L 725.06 529.86
  L 723.32 529.33
  L 718.66 528.62
  L 706.71 527.65
  L 693.51 526.78
  L 689.48 526.21
  L 689.01 525.95
  L 688.72 525.49
  L 677.83 496.21
  L 677.05 494.49
  L 676.08 492.96
  L 674.88 491.54
  L 673.53 490.34
  L 671.70 489.18
  L 669.72 488.36
  L 667.64 487.87
  L 665.50 487.73
  L 663.36 487.95
  L 661.25 488.54
  L 659.31 489.44
  L 657.48 490.68
  L 656.19 492.00
  L 654.91 493.87
  L 653.64 496.29
  L 652.38 499.26
  L 642.32 525.61
  L 641.83 526.26
  L 641.07 526.55
  L 611.73 528.68
  L 608.32 529.15
  L 605.48 529.98
  L 603.09 531.21
  L 601.27 532.80
  L 600.18 534.30
  L 599.34 536.10
  L 598.63 538.82
  L 598.53 541.56
  L 599.13 544.39
  L 600.47 547.22
  L 602.61 550.16
  L 605.63 553.31
  L 625.23 571.62
  L 625.57 572.15
  L 625.58 572.77
  L 618.95 599.14
  L 617.64 604.90
  L 617.26 607.76
  L 617.47 609.51
  L 617.89 611.14
  L 618.55 612.73
  L 619.42 614.17
  L 620.45 615.44
  L 621.64 616.54
  L 622.97 617.47
  L 624.42 618.22
  L 625.97 618.79
  L 627.60 619.17
  L 629.30 619.34
  L 631.05 619.31
  L 632.82 618.92
  L 635.13 617.99
  L 637.96 616.51
  L 641.33 614.49
  L 665.26 600.50
  L 666.05 600.46
  L 666.12 600.50
  Z"
/>
<path d="
  M 649.14 564.23
  L 629.40 548.33
  L 629.18 547.75
  L 629.38 547.39
  L 629.77 547.24
  L 655.51 546.63
  L 655.86 546.51
  L 656.08 546.22
  L 664.91 520.35
  L 665.35 519.95
  L 665.78 520.02
  L 666.06 520.35
  L 675.09 546.53
  L 675.31 546.83
  L 675.66 546.94
  L 701.72 546.94
  L 702.08 547.05
  L 702.30 547.35
  L 702.31 547.72
  L 702.10 548.03
  L 682.14 563.67
  L 681.93 564.29
  L 688.54 590.64
  L 688.38 591.22
  L 688.00 591.40
  L 687.59 591.29
  L 666.32 576.11
  L 665.98 576.00
  L 665.63 576.10
  L 642.88 591.31
  L 642.27 591.35
  L 641.94 590.83
  L 641.96 590.64
  L 649.35 564.87
  L 649.34 564.52
  L 649.14 564.23
  Z"
/>
<path d="
  M 641.63 717.97
  L 641.80 718.09
  L 641.79 718.13
  L 614.75 789.30
  L 614.34 789.68
  L 613.79 789.59
  L 613.67 789.48
  L 596.58 768.68
  L 593.16 764.69
  L 590.33 762.04
  L 587.51 760.19
  L 584.58 759.08
  L 582.84 758.78
  L 580.98 758.72
  L 579.09 758.89
  L 577.07 759.31
  L 546.16 767.35
  L 546.00 767.37
  L 545.56 767.12
  L 545.50 766.62
  L 575.38 685.47
  L 575.80 685.08
  L 576.36 685.18
  L 576.36 685.18
  L 576.49 685.31
  L 589.21 703.00
  L 592.29 707.00
  L 595.58 710.64
  L 599.00 713.80
  L 602.62 716.53
  L 606.27 718.75
  L 610.09 720.51
  L 613.96 721.78
  L 617.97 722.56
  L 622.52 722.84
  L 627.22 722.49
  L 631.91 721.50
  L 636.73 719.84
  L 641.63 717.97
  Z"
/>
<path d="
  M 783.70 766.49
  L 783.64 766.97
  L 783.22 767.21
  L 783.06 767.19
  L 758.65 760.55
  L 753.77 759.34
  L 749.69 758.88
  L 746.21 759.15
  L 744.67 759.55
  L 743.19 760.14
  L 740.74 761.71
  L 738.49 764.01
  L 718.39 789.67
  L 718.00 789.86
  L 717.61 789.66
  L 717.61 789.66
  L 717.55 789.54
  L 691.80 720.19
  L 691.86 719.71
  L 692.29 719.50
  L 692.48 719.54
  L 697.72 721.44
  L 702.98 722.60
  L 708.13 723.00
  L 713.09 722.64
  L 717.05 721.80
  L 720.87 720.51
  L 724.64 718.71
  L 728.25 716.49
  L 731.84 713.74
  L 735.25 710.58
  L 738.56 706.94
  L 741.67 702.93
  L 753.14 686.57
  L 753.45 686.39
  L 753.79 686.49
  L 753.79 686.49
  L 753.82 686.52
  L 754.09 686.80
  L 754.12 686.84
  L 783.70 766.49
  Z"
/>
</g>
<g fill="#ffffff">
<path d="
  M 323.24 183.02
  L 328.81 179.48
  L 334.54 176.30
  L 340.50 173.43
  L 346.60 170.94
  L 352.85 168.79
  L 359.20 167.02
  L 365.73 165.60
  L 372.32 164.55
  L 379.01 163.88
  L 385.72 163.59
  L 392.45 163.68
  L 399.16 164.15
  L 405.84 165.00
  L 412.47 166.23
  L 419.03 167.83
  L 425.51 169.80
  L 433.58 172.87
  L 433.58 172.87
  L 441.16 176.43
  L 448.49 180.57
  L 455.58 185.28
  L 462.42 190.58
  L 467.95 195.50
  L 473.15 200.77
  L 478.07 206.45
  L 482.62 212.44
  L 486.81 218.73
  L 490.60 225.29
  L 493.98 232.07
  L 496.93 239.05
  L 499.43 246.18
  L 501.48 253.45
  L 503.04 260.73
  L 504.13 268.10
  L 504.73 275.39
  L 504.84 282.72
  L 504.47 289.92
  L 503.61 297.11
  L 502.70 302.27
  L 501.59 307.35
  L 500.28 312.33
  L 498.78 317.22
  L 497.07 322.08
  L 495.17 326.83
  L 493.08 331.46
  L 490.81 335.99
  L 488.32 340.46
  L 485.65 344.80
  L 482.81 349.02
  L 479.80 353.10
  L 476.62 357.04
  L 473.27 360.83
  L 469.77 364.47
  L 466.12 367.96
  L 459.61 373.50
  L 452.70 378.56
  L 445.49 383.07
  L 437.92 387.08
  L 430.11 390.53
  L 421.99 393.44
  L 413.68 395.78
  L 405.11 397.56
  L 399.04 398.41
  L 392.94 398.90
  L 386.73 399.03
  L 380.53 398.79
  L 374.25 398.19
  L 368.00 397.24
  L 361.72 395.92
  L 355.52 394.25
  L 349.37 392.22
  L 343.34 389.87
  L 337.45 387.19
  L 331.71 384.20
  L 326.15 380.92
  L 320.79 377.34
  L 315.64 373.48
  L 310.73 369.35
  L 306.51 365.39
  L 302.50 361.24
  L 298.65 356.81
  L 295.03 352.19
  L 291.63 347.38
  L 288.48 342.41
  L 285.58 337.29
  L 282.94 332.04
  L 280.56 326.65
  L 278.44 321.14
  L 276.60 315.55
  L 275.04 309.86
  L 273.77 304.16
  L 272.79 298.40
  L 272.10 292.60
  L 271.71 286.76
  L 271.66 277.40
  L 272.29 268.19
  L 273.60 259.06
  L 275.58 250.14
  L 278.22 241.46
  L 281.50 233.04
  L 285.42 224.92
  L 289.96 217.13
  L 293.27 212.22
  L 296.84 207.47
  L 300.66 202.89
  L 304.74 198.49
  L 309.04 194.30
  L 313.59 190.29
  L 318.30 186.56
  L 323.24 183.02
  Z
  M 380.4715 186.4056
  L 375.9091 186.8873
  L 371.3760 187.5957
  L 366.8832 188.5290
  L 362.4414 189.6851
  L 358.0613 191.0610
  L 353.7536 192.6535
  L 349.5286 194.4588
  L 345.3965 196.4725
  L 341.3672 198.6898
  L 337.4504 201.1053
  L 333.6556 203.7132
  L 329.9919 206.5072
  L 326.4682 209.4806
  L 323.0928 212.6263
  L 319.8741 215.9365
  L 316.8196 219.4035
  L 313.9368 223.0187
  L 311.2327 226.7736
  L 308.7137 230.6590
  L 306.3858 234.6657
  L 304.2548 238.7839
  L 302.3257 243.0037
  L 300.6033 247.3150
  L 299.0915 251.7073
  L 297.7941 256.1702
  L 296.7143 260.6928
  L 295.8545 265.2643
  L 295.2170 269.8736
  L 294.8031 274.5096
  L 294.6140 279.1612
  L 294.6500 283.8171
  L 294.9111 288.4662
  L 295.3966 293.0972
  L 296.1055 297.6990
  L 297.0359 302.2605
  L 298.1856 306.7708
  L 299.5519 311.2188
  L 301.1315 315.5940
  L 302.9206 319.8858
  L 304.9148 324.0838
  L 307.1093 328.1780
  L 309.4990 332.1584
  L 312.0779 336.0155
  L 314.8399 339.7400
  L 317.7784 343.3230
  L 320.8862 346.7557
  L 324.1559 350.0299
  L 327.5796 353.1377
  L 331.1491 356.0717
  L 334.8557 358.8248
  L 338.6905 361.3903
  L 342.6443 363.7621
  L 346.7076 365.9344
  L 350.8705 367.9020
  L 355.1231 369.6603
  L 359.4551 371.2048
  L 363.8560 372.5320
  L 368.3153 373.6385
  L 372.8223 374.5219
  L 377.3659 375.1798
  L 381.9354 375.6108
  L 386.5197 375.8138
  L 391.1077 375.7883
  L 395.6885 375.5344
  L 395.6885 375.5344
  L 400.2509 375.0527
  L 404.7840 374.3443
  L 409.2768 373.4110
  L 413.7186 372.2549
  L 418.0987 370.8790
  L 422.4064 369.2865
  L 426.6314 367.4812
  L 430.7635 365.4675
  L 434.7928 363.2502
  L 438.7096 360.8347
  L 442.5044 358.2268
  L 446.1681 355.4328
  L 449.6918 352.4594
  L 453.0672 349.3137
  L 456.2859 346.0035
  L 459.3404 342.5365
  L 462.2232 338.9213
  L 464.9273 335.1664
  L 467.4463 331.2810
  L 469.7742 327.2743
  L 471.9052 323.1561
  L 473.8343 318.9363
  L 475.5567 314.6250
  L 477.0685 310.2327
  L 478.3659 305.7698
  L 479.4457 301.2472
  L 480.3055 296.6757
  L 480.9430 292.0664
  L 481.3569 287.4304
  L 481.5460 282.7788
  L 481.5100 278.1229
  L 481.2489 273.4738
  L 480.7634 268.8428
  L 480.0545 264.2410
  L 479.1241 259.6795
  L 477.9744 255.1692
  L 476.6081 250.7212
  L 475.0285 246.3460
  L 473.2394 242.0542
  L 471.2452 237.8562
  L 469.0507 233.7620
  L 466.6610 229.7816
  L 464.0821 225.9245
  L 461.3201 222.2000
  L 458.3816 218.6170
  L 455.2738 215.1843
  L 452.0041 211.9101
  L 448.5804 208.8023
  L 445.0109 205.8683
  L 441.3043 203.1152
  L 437.4695 200.5497
  L 433.5157 198.1779
  L 429.4524 196.0056
  L 425.2895 194.0380
  L 421.0369 192.2797
  L 416.7049 190.7352
  L 412.3040 189.4080
  L 407.8447 188.3015
  L 403.3377 187.4181
  L 398.7941 186.7602
  L 394.2246 186.3292
  L 389.6403 186.1262
  L 385.0523 186.1517
  L 380.4715 186.4056
  Z"
/>
<path d="
  M 772.08 674.89
  L 771.84 675.08
  L 771.81 675.38
  L 771.82 675.40
  L 786.68 715.10
  L 802.59 758.68
  L 804.24 762.79
  L 806.14 767.58
  L 806.99 770.68
  L 807.27 773.05
  L 807.24 775.30
  L 806.92 777.44
  L 806.30 779.46
  L 806.30 779.46
  L 806.30 779.46
  L 805.36 781.37
  L 804.12 783.17
  L 802.58 784.84
  L 800.73 786.40
  L 798.04 788.02
  L 795.22 788.96
  L 795.22 788.96
  L 792.27 789.23
  L 789.19 788.83
  L 770.07 784.28
  L 753.04 779.96
  L 752.03 779.99
  L 751.19 780.56
  L 730.82 805.87
  L 728.63 808.58
  L 726.60 810.73
  L 724.71 812.31
  L 722.98 813.33
  L 720.62 814.17
  L 718.20 814.66
  L 715.77 814.79
  L 713.37 814.56
  L 711.06 813.98
  L 708.88 813.04
  L 706.96 811.82
  L 705.26 810.27
  L 703.69 808.21
  L 702.49 805.76
  L 685.53 760.66
  L 667.92 713.09
  L 667.50 712.43
  L 666.72 711.96
  L 665.81 711.93
  L 664.99 712.33
  L 664.47 713.08
  L 632.28 798.82
  L 629.20 806.12
  L 627.89 808.52
  L 626.72 810.07
  L 624.83 811.72
  L 622.68 813.03
  L 620.34 814.00
  L 617.86 814.60
  L 615.33 814.81
  L 612.80 814.62
  L 610.41 814.04
  L 608.12 813.05
  L 605.66 811.19
  L 602.73 808.02
  L 580.18 780.46
  L 579.31 779.86
  L 578.26 779.83
  L 558.72 784.63
  L 540.28 788.77
  L 538.01 789.12
  L 535.83 789.18
  L 533.76 788.95
  L 531.79 788.43
  L 531.79 788.43
  L 531.79 788.43
  L 530.15 787.73
  L 528.59 786.81
  L 527.10 785.67
  L 525.69 784.30
  L 523.95 782.04
  L 522.76 779.67
  L 521.99 776.76
  L 521.85 773.55
  L 522.35 770.03
  L 523.50 766.26
  L 551.23 692.47
  L 558.05 675.21
  L 558.06 675.18
  L 558.03 674.78
  L 557.72 674.52
  L 552.41 672.82
  L 547.28 670.86
  L 542.32 668.65
  L 537.55 666.17
  L 534.90 664.55
  L 532.44 662.75
  L 528.95 659.58
  L 525.91 656.03
  L 523.25 652.02
  L 521.06 647.72
  L 519.28 642.97
  L 518.00 638.01
  L 517.21 632.78
  L 516.92 627.46
  L 516.72 617.50
  L 516.07 610.35
  L 515.54 607.17
  L 514.85 604.29
  L 513.97 601.53
  L 512.96 599.07
  L 509.89 593.74
  L 504.63 586.19
  L 500.39 580.23
  L 497.13 575.18
  L 494.47 570.46
  L 492.35 565.94
  L 490.74 561.52
  L 489.64 557.18
  L 489.06 552.94
  L 488.98 548.79
  L 489.46 544.27
  L 490.51 539.82
  L 491.06 538.11
  L 493.32 532.51
  L 496.33 526.95
  L 500.23 521.03
  L 506.27 512.94
  L 508.86 509.53
  L 512.48 504.17
  L 513.70 501.83
  L 514.53 499.72
  L 515.59 495.77
  L 516.18 492.44
  L 516.54 488.85
  L 516.81 478.56
  L 516.83 476.19
  L 517.12 469.39
  L 517.85 463.91
  L 519.15 458.73
  L 520.94 453.94
  L 523.23 449.54
  L 526.00 445.54
  L 526.00 445.54
  L 527.90 443.32
  L 529.99 441.24
  L 532.24 439.30
  L 534.68 437.50
  L 537.29 435.84
  L 540.08 434.32
  L 546.19 431.71
  L 555.86 428.40
  L 566.01 425.28
  L 569.22 424.12
  L 572.07 422.63
  L 574.69 420.75
  L 577.08 418.50
  L 579.44 415.72
  L 581.86 412.30
  L 581.88 412.27
  L 586.79 404.96
  L 590.80 399.53
  L 594.60 394.99
  L 598.26 391.32
  L 602.04 388.27
  L 605.96 385.81
  L 610.02 383.93
  L 614.21 382.64
  L 614.21 382.64
  L 614.21 382.64
  L 618.88 381.91
  L 623.70 381.85
  L 628.69 382.47
  L 633.83 383.77
  L 650.28 389.24
  L 655.47 390.67
  L 660.89 391.48
  L 666.52 391.65
  L 672.38 391.20
  L 675.52 390.65
  L 679.14 389.73
  L 689.22 386.45
  L 698.22 383.49
  L 702.10 382.57
  L 705.89 382.08
  L 709.69 382.00
  L 713.39 382.32
  L 716.84 383.00
  L 720.20 384.03
  L 723.53 385.44
  L 726.74 387.18
  L 729.90 389.29
  L 732.93 391.72
  L 735.87 394.52
  L 738.66 397.61
  L 744.08 404.49
  L 749.12 411.73
  L 752.90 416.98
  L 754.50 418.77
  L 755.92 420.02
  L 759.77 422.47
  L 764.21 424.65
  L 769.34 426.63
  L 776.52 428.95
  L 779.06 429.74
  L 783.67 431.32
  L 787.85 433.03
  L 791.74 434.92
  L 795.22 436.94
  L 798.36 439.11
  L 801.25 441.52
  L 803.80 444.09
  L 806.11 446.91
  L 808.36 450.35
  L 810.28 454.15
  L 811.81 458.21
  L 812.99 462.65
  L 813.59 466.03
  L 814.00 469.75
  L 814.40 479.72
  L 814.67 487.72
  L 815.23 493.41
  L 816.24 498.41
  L 817.78 502.84
  L 820.06 506.80
  L 824.36 512.81
  L 831.68 522.73
  L 835.73 528.74
  L 838.33 533.68
  L 840.27 538.66
  L 841.54 543.67
  L 842.14 548.72
  L 842.14 548.72
  L 842.14 548.72
  L 842.14 548.72
  L 842.14 548.72
  L 842.11 553.24
  L 841.55 557.79
  L 840.46 562.37
  L 838.84 566.98
  L 836.70 571.29
  L 833.22 576.99
  L 828.41 584.25
  L 823.91 590.69
  L 821.21 594.69
  L 819.11 598.38
  L 817.49 601.92
  L 816.29 605.53
  L 815.52 609.18
  L 815.11 613.07
  L 814.25 631.23
  L 813.76 636.28
  L 812.76 641.25
  L 811.27 645.95
  L 809.28 650.44
  L 806.90 654.47
  L 804.06 658.18
  L 800.80 661.46
  L 797.26 664.21
  L 796.03 665.01
  L 795.20 665.51
  L 795.20 665.51
  L 795.20 665.51
  L 789.80 668.48
  L 784.14 671.03
  L 778.23 673.17
  L 772.08 674.89
  Z
  M 607.99 691.21
  L 610.36 694.13
  L 612.99 696.50
  L 615.84 698.30
  L 618.89 699.52
  L 622.04 700.16
  L 625.32 700.23
  L 628.72 699.74
  L 632.20 698.67
  L 642.60 694.95
  L 650.74 692.68
  L 657.77 691.50
  L 664.80 691.04
  L 671.82 691.30
  L 678.84 692.28
  L 685.88 693.97
  L 692.92 696.38
  L 700.95 699.52
  L 704.48 700.32
  L 707.96 700.45
  L 710.31 700.17
  L 712.60 699.59
  L 714.79 698.75
  L 716.87 697.64
  L 718.81 696.28
  L 720.61 694.70
  L 722.23 692.90
  L 723.65 690.89
  L 729.34 682.37
  L 734.70 675.45
  L 737.83 671.98
  L 741.13 668.75
  L 744.59 665.75
  L 748.22 662.98
  L 752.30 660.26
  L 756.58 657.82
  L 761.05 655.64
  L 765.71 653.73
  L 771.09 651.94
  L 777.74 649.68
  L 782.24 647.55
  L 784.18 646.31
  L 785.81 645.00
  L 787.24 643.56
  L 788.49 641.92
  L 790.01 639.03
  L 790.50 637.44
  L 790.87 635.37
  L 791.26 629.83
  L 791.81 617.11
  L 792.28 612.32
  L 792.91 608.25
  L 794.43 601.84
  L 795.79 597.48
  L 797.38 593.26
  L 799.22 589.07
  L 801.37 584.80
  L 803.78 580.55
  L 806.52 576.18
  L 813.20 566.75
  L 815.67 563.17
  L 817.48 559.79
  L 818.67 556.51
  L 819.29 553.33
  L 819.40 551.29
  L 819.29 549.19
  L 818.47 544.96
  L 817.77 543.08
  L 816.65 540.88
  L 813.14 535.46
  L 806.76 526.54
  L 803.56 521.87
  L 800.75 517.12
  L 798.32 512.28
  L 796.27 507.35
  L 794.12 500.70
  L 792.58 493.85
  L 791.61 486.67
  L 791.22 479.24
  L 791.20 476.58
  L 791.06 470.61
  L 790.60 466.63
  L 789.67 463.27
  L 788.18 460.41
  L 787.11 459.03
  L 785.81 457.73
  L 784.34 456.57
  L 782.63 455.48
  L 779.52 453.86
  L 776.14 452.39
  L 767.04 449.24
  L 759.90 446.86
  L 754.47 444.64
  L 749.40 442.02
  L 744.68 438.99
  L 740.33 435.54
  L 740.33 435.54
  L 740.33 435.54
  L 740.33 435.54
  L 736.62 432.00
  L 733.21 428.10
  L 730.98 425.07
  L 728.14 420.68
  L 725.42 416.47
  L 723.32 413.58
  L 721.19 411.12
  L 718.96 409.03
  L 717.07 407.61
  L 715.11 406.48
  L 713.10 405.62
  L 711.03 405.03
  L 711.03 405.03
  L 708.64 404.71
  L 706.18 404.74
  L 703.64 405.11
  L 701.03 405.83
  L 689.91 409.47
  L 682.60 411.62
  L 679.11 412.43
  L 673.81 413.28
  L 668.51 413.71
  L 663.07 413.74
  L 657.64 413.35
  L 652.12 412.55
  L 646.43 411.33
  L 640.78 409.72
  L 634.99 407.68
  L 628.92 405.65
  L 626.51 405.10
  L 624.50 404.86
  L 622.27 404.87
  L 620.22 405.10
  L 618.23 405.55
  L 616.41 406.20
  L 614.69 407.07
  L 613.10 408.10
  L 610.08 410.86
  L 607.20 414.50
  L 603.63 420.12
  L 600.20 425.54
  L 597.43 429.22
  L 594.78 432.14
  L 591.94 434.87
  L 591.94 434.87
  L 587.12 438.77
  L 581.86 442.18
  L 576.15 445.09
  L 570.01 447.52
  L 557.10 451.67
  L 554.41 452.55
  L 551.65 453.67
  L 549.15 454.91
  L 547.25 456.08
  L 545.07 457.91
  L 543.27 460.05
  L 541.64 463.13
  L 540.61 466.73
  L 540.09 470.96
  L 539.95 477.20
  L 539.94 478.76
  L 539.60 486.07
  L 538.65 493.21
  L 537.12 500.06
  L 534.99 506.74
  L 533.14 511.27
  L 531.00 515.71
  L 528.54 520.06
  L 525.78 524.32
  L 521.85 529.61
  L 517.30 535.81
  L 514.53 540.54
  L 513.51 542.88
  L 512.78 545.10
  L 512.29 547.33
  L 512.05 549.64
  L 512.07 551.80
  L 512.33 554.04
  L 512.83 556.27
  L 513.58 558.58
  L 514.49 560.60
  L 515.84 562.98
  L 519.84 568.83
  L 523.82 574.34
  L 526.76 578.74
  L 529.46 583.33
  L 531.86 588.06
  L 533.97 592.91
  L 535.76 597.88
  L 537.24 602.93
  L 538.39 608.07
  L 539.20 613.19
  L 539.69 618.37
  L 539.84 622.68
  L 539.85 624.17
  L 540.08 631.45
  L 540.40 634.14
  L 540.88 636.55
  L 541.56 638.79
  L 542.42 640.72
  L 543.48 642.46
  L 544.80 644.04
  L 546.76 645.69
  L 550.36 647.91
  L 553.52 649.27
  L 564.20 652.99
  L 568.75 654.85
  L 572.79 656.71
  L 576.54 658.69
  L 580.14 660.86
  L 583.59 663.22
  L 586.89 665.76
  L 586.89 665.76
  L 586.89 665.76
  L 590.84 669.24
  L 594.56 673.02
  L 598.02 677.10
  L 601.25 681.48
  L 607.99 691.21
  Z
  M 641.63 717.97
  L 636.73 719.84
  L 631.91 721.50
  L 627.22 722.49
  L 622.52 722.84
  L 617.97 722.56
  L 613.96 721.78
  L 610.09 720.51
  L 606.27 718.75
  L 602.62 716.53
  L 599.00 713.80
  L 595.58 710.64
  L 592.29 707.00
  L 589.21 703.00
  L 576.49 685.31
  L 576.36 685.18
  L 575.80 685.08
  L 575.38 685.47
  L 545.50 766.62
  L 545.56 767.12
  L 546.00 767.37
  L 546.00 767.37
  L 546.16 767.35
  L 577.07 759.31
  L 579.09 758.89
  L 580.98 758.72
  L 582.84 758.78
  L 584.58 759.08
  L 587.51 760.19
  L 590.33 762.04
  L 593.16 764.69
  L 596.58 768.68
  L 613.67 789.48
  L 613.79 789.59
  L 614.34 789.68
  L 614.75 789.30
  L 641.79 718.13
  L 641.80 718.09
  L 641.63 717.97
  Z
  M 783.70 766.49
  L 754.12 686.84
  L 754.09 686.80
  L 753.82 686.52
  L 753.79 686.49
  L 753.45 686.39
  L 753.14 686.57
  L 741.67 702.93
  L 738.56 706.94
  L 735.25 710.58
  L 731.84 713.74
  L 728.25 716.49
  L 724.64 718.71
  L 720.87 720.51
  L 717.05 721.80
  L 713.09 722.64
  L 708.13 723.00
  L 702.98 722.60
  L 697.72 721.44
  L 692.48 719.54
  L 692.29 719.50
  L 691.86 719.71
  L 691.80 720.19
  L 717.55 789.54
  L 717.61 789.66
  L 718.00 789.86
  L 718.39 789.67
  L 738.49 764.01
  L 740.74 761.71
  L 743.19 760.14
  L 744.67 759.55
  L 746.21 759.15
  L 749.69 758.88
  L 753.77 759.34
  L 758.65 760.55
  L 783.06 767.19
  L 783.22 767.21
  L 783.64 766.97
  L 783.70 766.49
  Z"
/>
<path d="
  M 277.76 661.66
  L 278.04 661.95
  L 278.04 661.95
  L 504.32 661.95
  L 504.95 662.09
  L 505.45 662.50
  L 518.40 678.79
  L 519.44 680.36
  L 519.91 681.79
  L 519.88 683.57
  L 519.55 684.14
  L 518.93 684.36
  L 452.50 683.94
  L 296.61 683.94
  L 192.02 684.16
  L 186.86 683.87
  L 182.16 682.94
  L 177.99 681.38
  L 174.29 679.19
  L 172.11 677.41
  L 169.88 675.14
  L 167.96 672.74
  L 166.35 670.21
  L 165.06 667.55
  L 165.06 667.55
  L 165.06 667.55
  L 165.06 667.55
  L 164.03 664.62
  L 163.35 661.55
  L 163.01 658.34
  L 163.01 654.98
  L 164.95 619.53
  L 166.89 592.90
  L 168.66 576.12
  L 169.68 569.11
  L 170.79 563.01
  L 174.71 545.44
  L 176.71 537.74
  L 178.81 530.45
  L 181.04 523.52
  L 183.41 516.87
  L 185.92 510.53
  L 188.60 504.42
  L 193.30 495.08
  L 198.55 486.21
  L 204.36 477.82
  L 210.74 469.91
  L 217.47 462.67
  L 224.74 455.88
  L 232.56 449.54
  L 240.91 443.65
  L 249.13 438.47
  L 257.48 433.64
  L 265.90 429.20
  L 274.34 425.16
  L 282.81 421.52
  L 291.21 418.33
  L 299.48 415.61
  L 307.59 413.36
  L 313.86 412.05
  L 320.43 411.19
  L 327.31 410.77
  L 334.50 410.81
  L 338.72 411.07
  L 342.43 411.53
  L 346.83 412.65
  L 352.42 414.94
  L 357.11 416.92
  L 360.79 418.10
  L 364.68 419.01
  L 368.89 419.78
  L 377.78 420.81
  L 387.45 421.18
  L 397.50 420.90
  L 405.75 420.00
  L 414.60 418.21
  L 424.19 415.53
  L 437.01 411.28
  L 439.13 410.74
  L 441.71 410.43
  L 444.75 410.36
  L 447.97 410.53
  L 458.26 411.84
  L 468.38 413.87
  L 468.38 413.87
  L 477.09 416.23
  L 485.67 419.13
  L 494.13 422.58
  L 502.45 426.57
  L 506.16 428.69
  L 509.43 430.99
  L 509.79 431.57
  L 509.68 432.25
  L 500.23 448.61
  L 499.91 448.86
  L 499.51 448.81
  L 494.61 446.28
  L 489.36 443.92
  L 483.73 441.72
  L 477.76 439.70
  L 471.38 437.84
  L 464.62 436.14
  L 457.31 434.55
  L 449.44 433.08
  L 445.97 432.83
  L 443.18 433.16
  L 440.28 434.00
  L 434.32 436.09
  L 428.31 437.92
  L 422.25 439.49
  L 416.14 440.79
  L 416.14 440.79
  L 416.14 440.79
  L 416.14 440.79
  L 409.22 441.93
  L 402.23 442.74
  L 395.19 443.22
  L 388.07 443.36
  L 380.90 443.17
  L 373.66 442.64
  L 366.36 441.78
  L 358.99 440.58
  L 353.32 439.34
  L 348.16 437.81
  L 343.53 435.99
  L 339.41 433.88
  L 338.32 433.43
  L 336.72 433.07
  L 331.98 432.58
  L 328.43 432.53
  L 324.76 432.76
  L 320.93 433.28
  L 317.11 434.06
  L 307.33 436.69
  L 300.27 438.93
  L 293.33 441.41
  L 286.43 444.18
  L 279.65 447.20
  L 272.83 450.52
  L 266.14 454.10
  L 259.44 457.97
  L 252.85 462.09
  L 246.58 466.43
  L 240.58 471.16
  L 234.97 476.19
  L 229.69 481.58
  L 224.87 487.19
  L 220.42 493.11
  L 216.43 499.22
  L 212.86 505.62
  L 207.95 515.95
  L 203.52 526.84
  L 199.58 538.32
  L 196.16 550.23
  L 193.29 562.54
  L 190.99 575.11
  L 189.28 587.91
  L 188.17 600.72
  L 185.08 646.88
  L 184.91 650.51
  L 184.95 653.49
  L 185.20 655.81
  L 185.67 657.49
  L 186.40 658.85
  L 187.34 659.98
  L 187.34 659.98
  L 188.71 661.02
  L 190.36 661.76
  L 192.29 662.20
  L 194.52 662.35
  L 255.09 662.21
  L 255.51 662.03
  L 255.68 661.61
  L 255.67 599.31
  L 255.95 593.92
  L 256.31 591.92
  L 256.82 590.40
  L 258.38 587.79
  L 260.41 585.75
  L 262.80 584.35
  L 265.45 583.68
  L 267.11 583.65
  L 268.79 583.91
  L 270.40 584.45
  L 271.99 585.27
  L 273.80 586.61
  L 275.20 588.13
  L 276.36 590.09
  L 277.18 592.49
  L 277.64 595.38
  L 277.79 598.94
  L 277.76 661.66
  Z"
/>
<path d="
  M 722.80 452.36
  L 729.90 456.74
  L 736.60 461.54
  L 742.96 466.82
  L 748.88 472.49
  L 754.38 478.55
  L 759.41 484.96
  L 763.96 491.70
  L 768.01 498.75
  L 770.77 504.35
  L 773.22 510.11
  L 775.35 516.01
  L 777.17 522.05
  L 778.65 528.18
  L 779.80 534.44
  L 780.60 540.69
  L 781.07 547.05
  L 781.17 554.50
  L 780.78 561.90
  L 779.90 569.34
  L 778.54 576.69
  L 776.69 583.99
  L 774.37 591.16
  L 771.61 598.15
  L 768.41 604.94
  L 764.79 611.52
  L 760.76 617.85
  L 756.32 623.91
  L 751.51 629.67
  L 746.38 635.06
  L 740.89 640.12
  L 735.14 644.75
  L 729.08 649.00
  L 723.85 652.25
  L 718.56 655.21
  L 713.21 657.87
  L 707.82 660.23
  L 702.36 662.31
  L 696.86 664.08
  L 691.30 665.57
  L 685.68 666.76
  L 685.68 666.76
  L 685.68 666.76
  L 680.87 667.53
  L 676.02 668.10
  L 671.14 668.45
  L 666.21 668.59
  L 658.20 668.39
  L 650.34 667.66
  L 642.62 666.41
  L 635.04 664.63
  L 635.04 664.63
  L 628.12 662.51
  L 621.32 659.94
  L 614.64 656.92
  L 608.09 653.44
  L 601.76 649.57
  L 595.76 645.36
  L 590.09 640.82
  L 584.74 635.94
  L 584.74 635.94
  L 579.36 630.32
  L 574.35 624.31
  L 569.72 617.91
  L 565.47 611.12
  L 563.08 606.81
  L 560.90 602.42
  L 558.92 597.96
  L 557.14 593.43
  L 557.14 593.43
  L 555.31 587.99
  L 553.75 582.45
  L 552.48 576.80
  L 551.49 571.05
  L 550.78 565.20
  L 550.35 559.25
  L 550.21 553.19
  L 550.34 547.03
  L 550.92 539.65
  L 551.98 532.35
  L 553.54 525.05
  L 555.57 517.89
  L 558.08 510.81
  L 561.04 503.91
  L 564.43 497.22
  L 568.25 490.75
  L 572.47 484.54
  L 577.08 478.60
  L 582.07 472.97
  L 587.42 467.66
  L 593.05 462.75
  L 599.00 458.20
  L 605.18 454.09
  L 611.64 450.39
  L 617.35 447.56
  L 623.15 445.07
  L 629.11 442.87
  L 635.15 441.03
  L 641.27 439.52
  L 647.44 438.35
  L 653.64 437.53
  L 659.87 437.06
  L 667.99 436.96
  L 676.11 437.44
  L 684.19 438.51
  L 692.21 440.15
  L 700.10 442.37
  L 707.88 445.16
  L 715.43 448.48
  L 722.80 452.36
  Z
  M 575.23 527.15
  L 573.90 532.38
  L 572.87 537.61
  L 572.13 542.92
  L 571.69 548.23
  L 571.55 553.53
  L 571.71 558.79
  L 572.16 564.09
  L 572.92 569.34
  L 573.77 573.71
  L 574.84 578.02
  L 576.09 582.27
  L 577.55 586.44
  L 579.21 590.58
  L 581.07 594.62
  L 583.12 598.58
  L 585.35 602.43
  L 587.74 606.15
  L 590.31 609.76
  L 593.05 613.25
  L 595.96 616.60
  L 599.00 619.79
  L 602.19 622.84
  L 605.54 625.74
  L 609.04 628.50
  L 616.06 633.27
  L 623.59 637.44
  L 631.52 640.91
  L 639.70 643.64
  L 648.09 645.62
  L 656.66 646.84
  L 665.25 647.26
  L 673.74 646.90
  L 678.16 646.40
  L 682.54 645.69
  L 686.86 644.78
  L 691.12 643.67
  L 695.36 642.34
  L 699.52 640.82
  L 703.61 639.11
  L 707.60 637.20
  L 711.53 635.10
  L 715.35 632.81
  L 719.06 630.35
  L 722.65 627.71
  L 726.08 624.92
  L 729.39 621.98
  L 732.56 618.87
  L 735.59 615.61
  L 738.99 611.54
  L 742.17 607.27
  L 745.07 602.88
  L 747.74 598.30
  L 750.16 593.56
  L 752.33 588.65
  L 754.20 583.66
  L 755.82 578.51
  L 757.15 573.29
  L 758.18 568.06
  L 758.92 562.74
  L 759.36 557.44
  L 759.50 552.14
  L 759.35 546.88
  L 758.89 541.57
  L 758.14 536.32
  L 757.28 531.95
  L 756.22 527.64
  L 754.96 523.40
  L 753.50 519.23
  L 751.84 515.09
  L 749.98 511.04
  L 747.94 507.08
  L 745.71 503.23
  L 743.31 499.51
  L 740.74 495.90
  L 738.00 492.42
  L 735.09 489.06
  L 732.05 485.87
  L 728.86 482.82
  L 725.51 479.92
  L 722.02 477.17
  L 714.99 472.39
  L 707.46 468.23
  L 699.53 464.75
  L 691.35 462.02
  L 682.97 460.04
  L 674.40 458.82
  L 665.80 458.40
  L 657.31 458.76
  L 652.89 459.26
  L 648.52 459.97
  L 644.20 460.88
  L 639.94 461.99
  L 635.69 463.32
  L 631.53 464.84
  L 627.44 466.55
  L 623.45 468.46
  L 619.53 470.56
  L 615.71 472.85
  L 612.00 475.31
  L 608.40 477.96
  L 604.97 480.74
  L 601.67 483.68
  L 598.50 486.79
  L 595.47 490.05
  L 592.07 494.12
  L 588.88 498.39
  L 585.98 502.79
  L 583.31 507.37
  L 580.90 512.10
  L 578.73 517.02
  L 576.85 522.00
  L 575.23 527.15
  Z"
/>
<path d="
  M 666.12 600.50
  L 666.03 600.46
  L 665.26 600.50
  L 641.33 614.49
  L 637.96 616.51
  L 635.13 617.99
  L 632.82 618.92
  L 631.05 619.31
  L 629.30 619.34
  L 627.60 619.17
  L 625.97 618.79
  L 624.42 618.22
  L 622.97 617.47
  L 621.64 616.54
  L 620.45 615.44
  L 619.42 614.17
  L 618.55 612.73
  L 617.89 611.14
  L 617.47 609.51
  L 617.26 607.76
  L 617.64 604.90
  L 618.95 599.14
  L 625.58 572.77
  L 625.57 572.15
  L 625.23 571.62
  L 605.63 553.31
  L 602.61 550.16
  L 600.47 547.22
  L 599.13 544.39
  L 598.53 541.56
  L 598.63 538.82
  L 599.34 536.10
  L 600.18 534.30
  L 601.27 532.80
  L 603.09 531.21
  L 605.48 529.98
  L 608.32 529.15
  L 611.73 528.68
  L 641.07 526.55
  L 641.83 526.26
  L 642.32 525.61
  L 652.38 499.26
  L 653.64 496.29
  L 654.91 493.87
  L 656.19 492.00
  L 657.48 490.68
  L 659.31 489.44
  L 661.25 488.54
  L 663.36 487.95
  L 665.50 487.73
  L 667.64 487.87
  L 669.72 488.36
  L 671.70 489.18
  L 673.53 490.34
  L 674.88 491.54
  L 676.08 492.96
  L 677.05 494.49
  L 677.83 496.21
  L 688.72 525.49
  L 689.01 525.95
  L 689.48 526.21
  L 693.51 526.78
  L 706.71 527.65
  L 718.66 528.62
  L 723.32 529.33
  L 725.06 529.86
  L 726.39 530.49
  L 728.87 532.42
  L 730.73 534.75
  L 731.96 537.47
  L 732.46 540.37
  L 732.41 542.11
  L 732.09 543.85
  L 731.54 545.46
  L 730.74 547.03
  L 728.11 550.62
  L 724.30 554.55
  L 705.71 571.62
  L 705.36 572.17
  L 705.33 572.81
  L 711.57 601.11
  L 712.19 604.56
  L 712.40 607.35
  L 712.21 609.74
  L 711.64 611.82
  L 710.34 614.22
  L 708.28 616.54
  L 706.21 618.09
  L 704.04 619.05
  L 701.25 619.50
  L 698.21 619.19
  L 694.93 618.10
  L 691.55 616.26
  L 677.85 607.59
  L 666.12 600.50
  Z
  M 649.14 564.23
  L 649.34 564.52
  L 649.35 564.87
  L 641.96 590.64
  L 642.08 591.20
  L 642.46 591.41
  L 642.88 591.31
  L 665.63 576.10
  L 665.88 576.01
  L 666.32 576.11
  L 687.59 591.29
  L 688.25 591.32
  L 688.55 590.74
  L 688.54 590.64
  L 681.93 564.29
  L 682.14 563.67
  L 702.10 548.03
  L 702.33 547.64
  L 702.18 547.15
  L 701.72 546.94
  L 675.66 546.94
  L 675.46 546.90
  L 675.09 546.53
  L 666.06 520.35
  L 665.84 520.05
  L 665.48 519.94
  L 665.13 520.05
  L 664.91 520.35
  L 656.08 546.22
  L 655.93 546.45
  L 655.51 546.63
  L 629.77 547.24
  L 629.36 547.41
  L 629.17 547.82
  L 629.17 547.82
  L 629.40 548.33
  L 649.14 564.23
  Z"
/>
</g>
</svg>
