<?xml version="1.0" encoding="UTF-8" standalone="no"?>
<!DOCTYPE svg PUBLIC "-//W3C//DTD SVG 1.1//EN" "http://www.w3.org/Graphics/SVG/1.1/DTD/svg11.dtd">
<svg xmlns="http://www.w3.org/2000/svg" version="1.1" viewBox="0.00 0.00 922.00 916.00" width="922.00" height="916.00">
<g stroke-width="2.00" fill="none" stroke-linecap="butt">
<path stroke="#5f43e8" vector-effect="non-scaling-stroke" d="
  M 921.21 460.67
  L 920.84 461.27
  L 920.84 461.27
  L 920.87 461.77
  L 921.15 462.32"
/>
<path stroke="#5f43e8" vector-effect="non-scaling-stroke" d="
  M 487.99 915.07
  L 487.98 915.05
  L 487.50 914.87
  L 486.99 915.04
  L 486.95 915.25"
/>
<path stroke="#b8abf3" vector-effect="non-scaling-stroke" d="
  M 141.97 284.20
  L 141.97 433.69"
/>
<path stroke="#5f43e8" vector-effect="non-scaling-stroke" d="
  M 141.97 433.69
  L 141.90 424.90
  L 141.90 424.90
  L 141.83 424.84
  L 141.58 424.83
  L 141.30 425.09
  L 141.04 437.74
  L 141.20 443.07
  L 141.55 447.75
  L 142.62 455.21
  L 144.28 462.53
  L 146.55 469.81
  L 149.38 476.90
  L 152.80 483.90
  L 156.75 490.67
  L 161.28 497.27
  L 166.32 503.59
  L 170.11 507.65
  L 175.74 513.09
  L 180.26 517.11
  L 184.96 520.86
  L 189.82 524.34
  L 194.85 527.54
  L 199.99 530.42
  L 205.26 533.02
  L 210.66 535.32
  L 216.18 537.31
  L 217.02 537.92
  L 217.35 538.91
  L 217.45 573.25
  L 217.54 600.51
  L 217.92 606.05
  L 218.78 610.98
  L 219.63 613.90
  L 220.74 616.70
  L 222.12 619.35
  L 223.74 621.83
  L 225.59 624.14
  L 227.66 626.24
  L 229.94 628.13
  L 232.42 629.79
  L 235.01 631.17
  L 237.76 632.30
  L 240.56 633.13
  L 243.49 633.69
  L 246.32 633.88
  L 249.14 633.69
  L 252.00 633.14
  L 255.02 632.20
  L 258.06 630.89
  L 261.19 629.18
  L 264.29 627.15
  L 267.41 624.78
  L 364.86 544.80
  L 366.47 543.68
  L 367.93 543.07
  L 369.82 542.83
  L 417.67 542.85
  L 417.71 542.85
  L 418.39 543.00
  L 418.96 543.40
  L 419.33 544.00
  L 419.44 544.69
  L 419.35 551.70
  L 419.68 558.46
  L 420.42 565.17
  L 421.56 571.59
  L 423.13 577.86
  L 425.06 583.80
  L 427.40 589.54
  L 430.17 595.11
  L 435.94 605.01
  L 438.53 608.90
  L 440.92 612.09
  L 446.94 618.97
  L 453.37 625.17
  L 460.22 630.70
  L 467.47 635.56
  L 467.47 635.56
  L 467.47 635.56
  L 467.47 635.56
  L 471.42 637.82
  L 475.49 639.91
  L 479.67 641.81
  L 483.96 643.52
  L 488.37 645.05
  L 492.88 646.40
  L 497.51 647.56
  L 502.25 648.53
  L 509.68 649.52
  L 517.62 649.85
  L 554.15 650.00
  L 556.49 650.19
  L 558.85 650.65
  L 559.48 650.97
  L 662.37 733.11
  L 667.18 736.75
  L 670.97 739.15
  L 674.51 740.83
  L 677.96 741.82
  L 680.18 742.14
  L 682.52 742.22
  L 685.01 742.05
  L 687.69 741.64
  L 690.28 740.92
  L 692.81 739.83
  L 695.33 738.34
  L 697.70 736.54
  L 699.98 734.38
  L 702.00 732.01
  L 703.69 729.49
  L 705.01 726.91
  L 705.19 726.47
  L 705.19 726.47
  L 705.19 726.47
  L 706.35 723.23
  L 707.17 719.85
  L 707.67 716.34
  L 707.85 712.70
  L 707.88 677.57
  L 707.65 649.30
  L 707.94 648.45
  L 708.71 647.99
  L 715.77 646.29
  L 722.69 644.00
  L 727.76 641.91
  L 732.65 639.52
  L 737.47 636.78
  L 742.14 633.76
  L 746.79 630.34
  L 751.29 626.64
  L 755.68 622.62
  L 760.08 618.19
  L 763.64 614.23
  L 766.96 610.12
  L 770.05 605.87
  L 772.90 601.48
  L 773.95 599.73
  L 776.64 594.79
  L 776.64 594.79
  L 779.27 589.06
  L 781.49 583.13
  L 783.31 576.99
  L 784.72 570.65
  L 785.23 567.13
  L 786.05 561.93
  L 786.17 560.94
  L 786.53 522.38
  L 786.66 457.43
  L 786.30 379.69
  L 786.12 374.27
  L 785.66 368.99
  L 784.93 363.86
  L 783.91 358.88
  L 782.61 354.04
  L 781.04 349.36
  L 779.18 344.81
  L 777.05 340.42
  L 777.05 340.42
  L 777.05 340.42
  L 774.21 335.48"
/>
<path stroke="#b8abf3" vector-effect="non-scaling-stroke" d="
  M 774.21 335.48
  L 769.60 328.38
  L 764.62 321.67
  L 759.25 315.35
  L 753.51 309.42
  L 752.78 308.72"
/>
<path stroke="#5f43e8" vector-effect="non-scaling-stroke" d="
  M 752.78 308.72
  L 751.74 307.03
  L 750.42 305.40
  L 748.80 303.75
  L 746.83 302.07
  L 741.98 298.68
  L 735.51 295.00
  L 728.54 291.62
  L 721.38 288.76
  L 721.38 288.76
  L 721.38 288.76
  L 713.40 286.27
  L 705.20 284.41
  L 694.27 282.54
  L 688.15 281.91
  L 559.03 281.91
  L 549.19 282.15
  L 540.16 282.37
  L 533.83 282.10
  L 533.45 281.91
  L 533.30 281.51
  L 533.18 273.42
  L 532.66 263.96
  L 532.18 258.86
  L 531.46 253.83
  L 530.51 248.86
  L 529.34 243.94
  L 529.34 243.94
  L 527.01 236.31
  L 525.07 231.21
  L 522.88 226.40
  L 517.82 216.91
  L 517.33 216.25
  L 516.88 216.05
  L 516.88 216.05
  L 516.74 216.09
  L 516.70 216.11
  L 516.54 216.43
  L 516.56 217.05"
/>
<path stroke="#b8abf3" vector-effect="non-scaling-stroke" d="
  M 516.56 217.05
  L 511.37 209.61
  L 505.75 202.69
  L 499.69 196.28
  L 493.20 190.39
  L 487.64 186.02
  L 481.80 181.98
  L 475.68 178.28
  L 469.27 174.92"
/>
<path stroke="#5f43e8" vector-effect="non-scaling-stroke" d="
  M 469.27 174.92
  L 469.34 174.51
  L 469.10 173.72
  L 468.61 173.30
  L 462.99 171.15
  L 457.58 169.35
  L 452.07 167.79
  L 446.49 166.46
  L 440.82 165.36
  L 436.00 164.77
  L 429.62 164.35
  L 421.66 164.12
  L 412.13 164.06
  L 264.68 164.12
  L 256.83 164.22
  L 248.93 164.56
  L 241.45 165.12
  L 234.53 165.88
  L 228.67 166.79
  L 223.08 167.93
  L 217.56 169.36
  L 212.34 171.01
  L 207.35 172.90
  L 202.48 175.08
  L 197.89 177.47
  L 193.44 180.15
  L 188.35 183.62
  L 183.47 187.31
  L 178.81 191.21
  L 174.37 195.34
  L 174.37 195.34
  L 174.37 195.34
  L 169.61 200.25
  L 167.10 203.32
  L 164.92 205.98
  L 161.46 210.32
  L 157.99 215.42
  L 154.87 220.57
  L 152.10 225.78
  L 149.67 231.04
  L 147.58 236.36
  L 145.84 241.73
  L 144.44 247.16
  L 143.39 252.64
  L 143.17 254.12
  L 141.51 267.47
  L 140.70 278.31
  L 140.61 282.79
  L 140.73 286.65
  L 141.06 289.87
  L 141.61 292.47
  L 141.62 292.48
  L 141.64 292.47
  L 141.97 284.20"
/>
<path stroke="#a797f5" vector-effect="non-scaling-stroke" d="
  M 469.27 174.92
  L 464.38 172.84
  L 459.42 171.00
  L 454.41 169.40
  L 449.34 168.06
  L 449.34 168.06
  L 442.47 166.64
  L 437.25 165.94
  L 430.94 165.44
  L 423.51 165.14
  L 414.99 165.04
  L 262.02 165.07
  L 254.76 165.20
  L 247.22 165.59
  L 239.88 166.22
  L 233.03 167.07
  L 224.29 168.71
  L 215.89 171.00
  L 207.83 173.95
  L 200.12 177.55
  L 200.12 177.55
  L 200.12 177.55
  L 200.12 177.55
  L 194.27 180.86
  L 188.63 184.58
  L 183.21 188.71
  L 178.00 193.25
  L 173.97 197.17
  L 170.17 201.20
  L 166.61 205.34
  L 163.29 209.60
  L 160.21 213.96
  L 157.37 218.44
  L 154.76 223.04
  L 152.40 227.74
  L 152.40 227.74
  L 152.40 227.74
  L 150.31 232.47
  L 148.44 237.30
  L 146.81 242.25
  L 145.41 247.30
  L 144.23 252.46
  L 143.29 257.73
  L 142.58 263.11
  L 142.09 268.60
  L 141.91 274.69
  L 141.97 284.20"
/>
<path stroke="#a797f5" vector-effect="non-scaling-stroke" d="
  M 516.56 217.05
  L 519.29 221.87
  L 521.75 226.79
  L 523.94 231.80
  L 525.87 236.90
  L 525.87 236.90
  L 525.87 236.90
  L 525.87 236.90
  L 525.87 236.90
  L 528.17 244.36
  L 529.93 252.01
  L 531.15 259.86
  L 531.82 267.89
  L 532.09 275.34
  L 532.14 282.94
  L 532.29 283.31
  L 532.66 283.47
  L 532.66 283.47
  L 684.73 283.38
  L 689.44 283.49
  L 694.16 283.81
  L 698.88 284.34
  L 703.58 285.08
  L 708.21 286.02
  L 712.80 287.17
  L 717.33 288.51
  L 721.80 290.06
  L 726.14 291.79
  L 730.39 293.71
  L 734.45 295.78
  L 738.41 298.04
  L 742.24 300.47
  L 745.94 303.08
  L 749.43 305.81
  L 752.78 308.72"
/>
<path stroke="#a797f5" vector-effect="non-scaling-stroke" d="
  M 774.21 335.48
  L 776.73 340.93
  L 778.92 346.39
  L 780.78 351.84
  L 782.30 357.30
  L 783.49 362.75
  L 784.34 368.21
  L 784.86 373.67
  L 785.05 379.13
  L 785.05 379.13
  L 785.05 379.13
  L 785.05 379.50
  L 785.21 544.25
  L 785.09 553.63
  L 784.54 562.81
  L 783.86 568.60
  L 782.83 574.26
  L 781.44 579.79
  L 779.70 585.20
  L 779.70 585.20
  L 777.34 591.06
  L 774.55 596.76
  L 771.31 602.30
  L 767.64 607.69
  L 762.07 614.69
  L 756.00 621.19
  L 749.57 627.04
  L 742.69 632.30
  L 735.51 636.85
  L 728.11 640.67
  L 720.36 643.81
  L 712.47 646.19
  L 707.35 647.32
  L 706.77 647.66
  L 706.54 648.29
  L 706.51 711.97
  L 706.24 718.25
  L 705.90 720.76
  L 705.42 722.87
  L 703.95 726.84
  L 701.98 730.38
  L 699.48 733.57
  L 696.58 736.24
  L 693.28 738.40
  L 689.71 739.96
  L 685.95 740.89
  L 682.06 741.15
  L 678.36 740.77
  L 674.67 739.74
  L 671.11 738.07
  L 667.85 735.86
  L 559.89 649.81
  L 558.54 649.07
  L 557.03 648.82
  L 536.00 648.94
  L 517.27 648.76
  L 511.75 648.50
  L 506.26 647.93
  L 500.81 647.04
  L 495.42 645.86
  L 490.05 644.36
  L 484.78 642.57
  L 479.61 640.49
  L 474.57 638.12
  L 469.70 635.50
  L 464.99 632.62
  L 460.44 629.47
  L 456.09 626.07
  L 451.97 622.46
  L 448.08 618.61
  L 444.47 614.61
  L 441.10 610.39
  L 436.81 604.31
  L 433.04 598.20
  L 429.73 591.95
  L 426.94 585.70
  L 424.64 579.36
  L 422.87 573.04
  L 421.58 566.57
  L 420.81 560.14
  L 420.58 555.91
  L 420.28 542.15
  L 420.05 541.60
  L 419.50 541.37
  L 419.50 541.37
  L 368.43 541.94
  L 367.49 542.07
  L 366.61 542.43
  L 364.66 543.68
  L 362.28 545.53
  L 269.81 621.54
  L 266.13 624.45
  L 262.85 626.80
  L 259.84 628.69
  L 256.93 630.21
  L 254.08 631.39
  L 251.35 632.19
  L 248.63 632.67
  L 245.83 632.81
  L 242.80 632.57
  L 239.66 631.88
  L 237.20 631.05
  L 234.89 630.03
  L 232.63 628.78
  L 230.54 627.35
  L 227.86 625.05
  L 225.50 622.43
  L 223.43 619.46
  L 221.72 616.23
  L 220.37 612.75
  L 219.40 609.09
  L 218.82 605.26
  L 218.63 601.31
  L 218.66 586.34
  L 218.36 537.67
  L 218.19 537.15
  L 217.74 536.81
  L 210.32 533.95
  L 203.19 530.67
  L 196.35 526.95
  L 189.80 522.81
  L 189.80 522.81
  L 183.32 518.05
  L 177.15 512.83
  L 171.29 507.14
  L 165.75 500.99
  L 160.34 494.03
  L 155.63 486.82
  L 151.61 479.33
  L 148.30 471.59
  L 148.30 471.59
  L 148.30 471.59
  L 146.74 467.14
  L 145.41 462.61
  L 144.29 458.00
  L 143.39 453.30
  L 142.71 448.52
  L 142.24 443.66
  L 142.00 438.72
  L 141.97 433.69"
/>
<path stroke="#a797f5" vector-effect="non-scaling-stroke" d="
  M 245.75 609.18
  L 247.73 609.06
  L 247.73 609.06
  L 248.86 608.63
  L 249.92 607.93
  L 301.21 565.96
  L 352.75 523.50
  L 353.17 523.15
  L 356.60 520.47
  L 359.46 518.71
  L 362.05 517.69
  L 364.49 517.35
  L 391.57 517.41
  L 419.56 517.24
  L 426.53 516.98
  L 433.14 516.36
  L 439.53 515.36
  L 445.75 513.98
  L 451.63 512.24
  L 457.35 510.11
  L 462.78 507.62
  L 468.04 504.72
  L 472.79 501.63
  L 477.37 498.16
  L 481.72 494.38
  L 485.90 490.20
  L 490.56 484.82
  L 494.67 479.19
  L 498.23 473.32
  L 501.24 467.21
  L 501.24 467.21
  L 501.24 467.21
  L 502.83 463.32
  L 504.20 459.33
  L 505.36 455.26
  L 506.32 451.08
  L 507.06 446.82
  L 507.59 442.47
  L 507.92 438.02
  L 508.03 433.48
  L 508.05 288.58
  L 507.95 273.55
  L 507.67 265.93
  L 506.87 259.69
  L 505.69 253.58
  L 504.16 247.74
  L 502.24 242.06
  L 499.99 236.69
  L 497.35 231.51
  L 494.39 226.63
  L 491.05 221.95
  L 488.55 218.88
  L 485.87 215.92
  L 483.07 213.14
  L 480.10 210.48
  L 474.14 205.76
  L 467.83 201.46
  L 461.40 197.73
  L 454.89 194.59
  L 448.46 192.13
  L 442.14 190.34
  L 436.07 189.28
  L 430.25 188.92
  L 251.50 188.88
  L 247.01 188.99
  L 242.58 189.33
  L 238.10 189.90
  L 233.70 190.70
  L 229.34 191.72
  L 225.06 192.97
  L 220.88 194.42
  L 216.79 196.09
  L 210.80 198.99
  L 205.07 202.34
  L 199.63 206.11
  L 194.50 210.29
  L 189.71 214.85
  L 185.27 219.78
  L 181.22 225.05
  L 177.58 230.66
  L 174.09 237.13
  L 171.14 243.94
  L 168.81 250.95
  L 167.06 258.24
  L 166.48 262.31
  L 166.07 267.60
  L 165.78 281.85
  L 165.93 354.66
  L 166.13 438.77
  L 166.40 444.91
  L 167.15 450.84
  L 168.39 456.70
  L 170.08 462.33
  L 171.99 467.24
  L 174.23 471.95
  L 176.85 476.55
  L 179.78 480.94
  L 183.11 485.23
  L 186.73 489.28
  L 190.70 493.16
  L 194.94 496.80
  L 199.50 500.22
  L 204.30 503.38
  L 209.40 506.30
  L 214.69 508.94
  L 220.19 511.29
  L 225.84 513.33
  L 231.63 515.05
  L 237.52 516.46
  L 239.41 517.17
  L 239.41 517.17
  L 240.73 518.19
  L 241.83 519.60
  L 242.22 520.95
  L 242.76 575.49
  L 242.85 603.26
  L 242.95 605.15
  L 243.30 606.70
  L 243.90 607.91
  L 244.74 608.79
  L 244.79 608.82
  L 245.75 609.18"
/>
<path stroke="#b8abf3" vector-effect="non-scaling-stroke" d="
  M 453.30 585.51
  L 457.24 591.96
  L 461.63 597.88
  L 466.46 603.26
  L 471.73 608.11
  L 471.73 608.11
  L 477.15 612.21
  L 482.97 615.83
  L 489.18 618.98
  L 495.80 621.64
  L 500.48 623.16
  L 504.78 624.24
  L 508.71 624.90
  L 512.26 625.12
  L 560.79 625.02
  L 563.19 625.18
  L 565.21 625.64
  L 567.18 626.38
  L 569.11 627.43
  L 571.00 628.76
  L 629.28 675.16
  L 681.69 717.14
  L 682.34 717.33
  L 682.92 716.99
  L 682.94 716.97
  L 683.02 716.00
  L 682.92 638.37
  L 682.91 637.00
  L 683.04 632.66
  L 683.31 631.21
  L 683.79 629.86
  L 684.69 628.38
  L 686.04 626.90
  L 686.94 626.31
  L 687.99 626.06
  L 695.06 625.25
  L 702.54 623.78
  L 707.59 622.42
  L 712.54 620.73
  L 717.36 618.74
  L 722.04 616.44
  L 726.55 613.85
  L 730.88 610.98
  L 735.00 607.84
  L 738.90 604.43
  L 742.52 600.83
  L 745.88 596.98
  L 748.91 592.99
  L 751.66 588.80
  L 754.06 584.51
  L 756.15 580.03
  L 757.90 575.48
  L 759.33 570.77
  L 759.81 568.81
  L 760.39 565.66
  L 760.81 561.91
  L 761.15 552.62
  L 760.86 379.25
  L 760.92 372.39"
/>
<path stroke="#a797f5" vector-effect="non-scaling-stroke" d="
  M 760.92 372.39
  L 760.32 367.87
  L 759.44 363.45
  L 758.27 359.05
  L 756.83 354.78
  L 755.08 350.52
  L 753.06 346.40
  L 750.73 342.35
  L 748.15 338.48
  L 745.31 334.78
  L 742.24 331.27
  L 738.95 327.96
  L 735.45 324.86
  L 731.74 321.98
  L 727.85 319.33
  L 723.78 316.92
  L 719.55 314.76
  L 715.18 312.86
  L 710.67 311.23
  L 706.13 309.91
  L 701.48 308.85
  L 696.75 308.14
  L 690.91 307.64
  L 683.95 307.34
  L 675.89 307.26
  L 532.45 307.32
  L 532.16 307.44
  L 532.04 307.73
  L 532.08 424.94
  L 532.01 437.89
  L 531.72 444.46
  L 530.99 449.69
  L 530.05 454.81
  L 528.90 459.82
  L 527.53 464.71
  L 525.96 469.49
  L 524.17 474.16
  L 522.16 478.71
  L 519.94 483.16
  L 519.94 483.16
  L 519.94 483.16
  L 519.94 483.16
  L 519.94 483.16
  L 519.94 483.16
  L 516.71 488.81
  L 513.12 494.27
  L 509.16 499.54
  L 504.83 504.61
  L 500.13 509.51
  L 495.20 514.07
  L 490.04 518.30
  L 484.66 522.20
  L 484.66 522.20
  L 480.19 525.09
  L 475.57 527.76
  L 470.81 530.21
  L 465.90 532.46
  L 460.85 534.49
  L 455.66 536.31
  L 450.32 537.92
  L 444.83 539.31
  L 444.49 539.52
  L 444.35 539.89
  L 444.19 545.63
  L 444.29 551.08
  L 444.64 556.24
  L 445.23 561.12
  L 446.09 565.91
  L 447.20 570.44
  L 448.57 574.85
  L 450.26 579.22
  L 453.30 585.51"
/>
<path stroke="#5f43e8" vector-effect="non-scaling-stroke" d="
  M 760.92 372.39
  L 760.82 378.78
  L 760.57 379.03
  L 760.56 379.03
  L 760.29 378.79
  L 759.93 374.74
  L 759.34 368.39
  L 758.65 364.06
  L 757.78 360.49
  L 756.69 356.92
  L 755.42 353.48
  L 753.94 350.10
  L 752.31 346.89
  L 750.50 343.79
  L 748.56 340.90
  L 746.45 338.16
  L 741.63 332.39
  L 736.46 327.41
  L 731.01 323.00
  L 725.28 319.18
  L 719.27 315.93
  L 719.27 315.93
  L 719.27 315.93
  L 715.06 314.07
  L 710.73 312.47
  L 706.27 311.14
  L 701.68 310.07
  L 697.65 309.47
  L 692.40 309.05
  L 685.92 308.82
  L 678.21 308.76
  L 599.25 308.90
  L 534.03 308.64
  L 533.50 308.86
  L 533.29 309.38
  L 533.29 309.38
  L 533.41 324.92
  L 533.50 347.75
  L 533.32 428.25
  L 533.22 437.40
  L 532.86 443.50
  L 532.16 448.91
  L 531.23 454.19
  L 530.08 459.36
  L 528.70 464.40
  L 527.10 469.33
  L 525.27 474.14
  L 523.22 478.82
  L 520.94 483.39
  L 520.94 483.39
  L 516.45 491.03
  L 511.28 498.30
  L 508.14 502.17
  L 504.84 505.89
  L 501.39 509.48
  L 497.79 512.91
  L 494.04 516.19
  L 490.16 519.31
  L 486.15 522.26
  L 482.02 525.03
  L 477.84 527.58
  L 473.56 529.95
  L 469.18 532.13
  L 464.70 534.11
  L 460.17 535.88
  L 455.56 537.45
  L 450.98 538.79
  L 446.33 539.91
  L 445.63 540.34
  L 445.36 541.11
  L 445.66 553.21
  L 445.99 557.63
  L 446.54 561.92
  L 447.32 566.09
  L 448.34 570.18
  L 449.52 573.95
  L 450.92 577.68
  L 452.54 581.39
  L 454.40 585.09
  L 454.39 585.53
  L 454.02 585.77
  L 453.82 585.73
  L 453.30 585.51"
/>
<path stroke="#5f43e8" vector-effect="non-scaling-stroke" d="
  M 246.74 607.99
  L 248.62 607.49
  L 248.97 607.32
  L 253.42 603.84
  L 256.64 601.15
  L 258.76 599.26
  L 260.57 597.93
  L 263.77 595.41
  L 299.50 565.77
  L 323.27 546.06
  L 329.52 541.11
  L 335.55 536.30
  L 345.54 527.88
  L 354.80 520.56
  L 357.78 518.65
  L 360.94 517.30
  L 360.94 517.30
  L 363.76 516.59
  L 366.72 516.29
  L 377.34 516.14
  L 392.66 516.27
  L 410.82 516.40
  L 423.77 516.11
  L 424.99 516.05
  L 430.54 515.60
  L 436.07 514.87
  L 441.59 513.85
  L 447.09 512.55
  L 451.75 511.13
  L 456.66 509.24
  L 461.84 506.89
  L 467.27 504.06
  L 474.15 499.32
  L 480.70 494.19
  L 484.06 490.83
  L 488.08 486.22
  L 491.64 481.68
  L 494.50 477.48
  L 498.47 470.43
  L 501.69 463.25
  L 504.15 455.94
  L 505.86 448.49
  L 505.86 448.49
  L 505.86 448.49
  L 506.74 441.91
  L 507.05 435.24
  L 507.14 277.00
  L 506.97 270.80
  L 506.47 264.68
  L 505.63 258.63
  L 504.45 252.66
  L 504.45 252.66
  L 504.45 252.66
  L 503.66 249.43
  L 502.38 245.16
  L 500.72 240.78
  L 498.64 236.15
  L 496.16 231.32
  L 493.30 226.59
  L 489.92 221.98
  L 486.10 217.60
  L 481.79 213.37
  L 476.98 209.30
  L 471.72 205.41
  L 465.92 201.65
  L 459.68 198.08
  L 455.90 196.18
  L 452.06 194.52
  L 448.15 193.09
  L 444.18 191.90
  L 444.18 191.90
  L 444.18 191.90
  L 441.49 191.23
  L 437.91 190.59
  L 433.58 190.14
  L 428.50 189.87
  L 422.67 189.79
  L 259.51 189.75
  L 252.17 189.83
  L 245.78 190.12
  L 240.33 190.60
  L 235.84 191.28
  L 228.37 193.05
  L 221.22 195.37
  L 214.40 198.25
  L 207.91 201.69
  L 207.91 201.69
  L 203.50 204.47
  L 199.25 207.53
  L 194.64 211.33
  L 190.38 215.38
  L 186.46 219.68
  L 182.88 224.22
  L 182.88 224.22
  L 182.88 224.22
  L 180.31 227.97
  L 177.94 231.87
  L 175.79 235.92
  L 173.85 240.12
  L 172.12 244.48
  L 170.60 248.99
  L 169.29 253.66
  L 168.19 258.48
  L 167.19 264.92
  L 166.85 270.22
  L 167.09 319.59
  L 167.14 388.92
  L 167.11 418.79
  L 167.33 437.61
  L 167.67 444.09
  L 168.15 448.63
  L 169.21 454.13
  L 170.64 459.42
  L 172.45 464.60
  L 174.61 469.55
  L 178.19 476.10
  L 182.51 482.37
  L 187.41 488.16
  L 193.02 493.61
  L 199.28 498.63
  L 206.05 503.13
  L 213.41 507.18
  L 221.20 510.67
  L 225.74 512.25
  L 232.36 514.06
  L 238.36 515.68
  L 240.28 516.51
  L 241.76 517.74
  L 241.76 517.74
  L 242.49 518.79
  L 243.02 520.01
  L 243.35 521.41
  L 243.47 522.98
  L 243.92 573.33
  L 243.79 600.88
  L 243.78 601.18
  L 243.78 601.18
  L 243.98 603.99
  L 244.62 606.81
  L 244.93 607.40
  L 245.44 607.83
  L 246.08 608.04
  L 246.74 607.99"
/>
<path stroke="#b8abf3" vector-effect="non-scaling-stroke" d="
  M 425.96 439.60
  L 412.48 425.83"
/>
<path stroke="#5f43e8" vector-effect="non-scaling-stroke" d="
  M 412.48 425.83
  L 413.04 425.59
  L 413.11 425.37
  L 413.03 424.85
  L 412.81 424.54
  L 409.39 421.37
  L 409.02 420.91
  L 408.84 420.36
  L 408.86 419.77
  L 409.08 419.23
  L 414.08 411.44
  L 417.43 405.84
  L 420.40 400.09
  L 423.26 393.46
  L 425.66 386.63
  L 427.62 379.49
  L 429.12 372.12
  L 430.03 365.97
  L 430.63 360.08
  L 430.93 354.46
  L 430.92 349.09
  L 430.40 343.79
  L 429.99 339.06
  L 429.88 335.56
  L 429.30 331.52
  L 427.21 322.36
  L 424.41 313.61
  L 422.75 309.40
  L 420.91 305.29
  L 418.90 301.28
  L 416.71 297.37
  L 416.71 297.37
  L 413.87 292.85
  L 410.77 288.47
  L 407.59 284.43
  L 404.20 280.56
  L 400.62 276.85
  L 396.87 273.33
  L 392.94 270.00
  L 388.85 266.87
  L 384.61 263.94
  L 380.23 261.22
  L 375.78 258.76
  L 371.21 256.52
  L 366.54 254.52
  L 361.77 252.75
  L 356.95 251.25
  L 352.06 249.99
  L 347.20 249.02
  L 342.29 248.30
  L 336.78 247.79
  L 331.29 247.57
  L 325.83 247.65
  L 320.41 248.02
  L 315.04 248.68
  L 309.72 249.63
  L 304.47 250.88
  L 299.29 252.42
  L 293.07 254.69
  L 286.98 257.40
  L 281.14 260.49
  L 275.46 264.00
  L 269.95 267.94
  L 264.79 272.17
  L 259.97 276.71
  L 255.51 281.54
  L 255.51 281.54
  L 255.51 281.54
  L 255.51 281.54
  L 252.67 285.02
  L 249.98 288.63
  L 247.47 292.38
  L 245.11 296.27
  L 242.92 300.31
  L 240.88 304.48
  L 239.02 308.79
  L 237.31 313.24
  L 234.34 322.67
  L 233.16 327.39
  L 232.19 332.11
  L 231.42 336.83
  L 230.86 341.55
  L 230.50 346.28
  L 230.35 351.01
  L 230.35 351.01
  L 230.35 351.01
  L 230.35 351.01
  L 230.46 357.07
  L 230.91 363.14
  L 231.70 369.22
  L 232.82 375.30
  L 234.28 381.38
  L 236.08 387.46
  L 238.22 393.55
  L 240.70 399.64
  L 243.08 404.72
  L 245.72 409.62
  L 248.61 414.32
  L 251.77 418.83
  L 251.77 418.83
  L 255.55 423.58
  L 259.64 428.10
  L 264.05 432.39
  L 268.78 436.44
  L 273.32 439.81
  L 278.34 442.99
  L 283.70 445.89
  L 289.45 448.56
  L 295.53 450.94
  L 301.88 453.02
  L 308.26 454.72
  L 314.73 456.06
  L 318.24 456.55
  L 322.14 456.84
  L 332.69 456.95
  L 336.18 456.93
  L 342.34 456.68
  L 347.77 455.93
  L 355.09 454.33
  L 361.56 452.58
  L 368.39 450.25
  L 374.94 447.50
  L 381.21 444.32
  L 387.20 440.71
  L 387.20 440.71
  L 388.29 439.99
  L 389.13 439.78
  L 389.91 440.17
  L 404.91 456.20
  L 406.84 458.12
  L 408.68 459.65
  L 410.43 460.79
  L 412.08 461.53
  L 414.63 462.11
  L 414.63 462.11
  L 417.74 462.11
  L 420.93 461.37
  L 422.75 460.63
  L 424.38 459.72
  L 425.83 458.65
  L 427.08 457.41
  L 427.08 457.41
  L 427.08 457.41
  L 427.08 457.41
  L 428.14 456.03
  L 429.01 454.50
  L 429.71 452.80
  L 430.22 450.95
  L 430.53 448.81
  L 430.50 446.72
  L 430.14 444.70
  L 429.43 442.80
  L 428.25 440.82
  L 426.64 439.06
  L 426.33 438.92
  L 426.01 439.02
  L 425.94 439.08
  L 425.96 439.60"
/>
<path stroke="#a797f5" vector-effect="non-scaling-stroke" d="
  M 412.48 425.83
  L 407.94 421.10
  L 407.55 420.23
  L 407.81 419.31
  L 411.12 414.48
  L 414.18 409.58
  L 416.93 404.67
  L 419.43 399.67
  L 421.65 394.62
  L 423.60 389.48
  L 425.26 384.33
  L 426.66 379.09
  L 427.77 373.86
  L 428.62 368.53
  L 429.19 363.19
  L 429.50 357.76
  L 429.47 348.13
  L 428.75 338.68
  L 427.34 329.59
  L 425.23 320.75
  L 422.47 312.38
  L 419.01 304.33
  L 414.93 296.75
  L 410.15 289.53
  L 405.63 283.82
  L 400.62 278.41
  L 395.21 273.39
  L 389.30 268.68
  L 385.33 265.87
  L 381.32 263.28
  L 377.28 260.90
  L 373.19 258.75
  L 369.07 256.80
  L 364.92 255.08
  L 360.72 253.57
  L 356.49 252.28
  L 348.88 250.46
  L 341.30 249.25
  L 333.74 248.64
  L 326.21 248.64
  L 326.21 248.64
  L 317.93 249.34
  L 309.68 250.77
  L 301.45 252.94
  L 293.26 255.84
  L 286.32 258.92
  L 279.76 262.45
  L 273.57 266.44
  L 267.77 270.89
  L 267.77 270.89
  L 267.77 270.89
  L 267.77 270.89
  L 262.20 275.93
  L 257.03 281.46
  L 252.27 287.46
  L 247.90 293.95
  L 244.33 300.13
  L 241.17 306.52
  L 238.47 312.99
  L 236.21 319.62
  L 234.42 326.24
  L 233.09 332.97
  L 232.24 339.67
  L 231.86 346.44
  L 231.85 359.83
  L 232.39 365.96
  L 233.25 371.99
  L 234.43 377.94
  L 235.92 383.79
  L 235.92 383.79
  L 235.92 383.79
  L 235.92 383.79
  L 237.91 390.04
  L 240.27 396.19
  L 243.01 402.24
  L 246.12 408.17
  L 250.04 414.58
  L 254.37 420.54
  L 259.10 426.06
  L 264.24 431.14
  L 264.24 431.14
  L 264.24 431.14
  L 270.45 436.28
  L 277.16 440.87
  L 284.38 444.91
  L 292.10 448.39
  L 301.50 451.75
  L 306.03 453.06
  L 310.42 454.12
  L 314.81 454.96
  L 319.04 455.54
  L 323.31 455.90
  L 327.40 456.01
  L 339.76 455.83
  L 348.20 454.71
  L 356.39 452.99
  L 364.31 450.65
  L 371.97 447.72
  L 376.14 445.81
  L 380.23 443.72
  L 389.08 438.55
  L 389.54 438.45
  L 389.96 438.67
  L 397.11 446.30
  L 407.74 457.21
  L 409.54 458.79
  L 411.40 459.95
  L 413.41 460.75
  L 415.42 461.16
  L 418.15 461.11
  L 420.94 460.37
  L 423.53 458.97
  L 425.78 457.05
  L 427.59 454.69
  L 428.85 452.00
  L 429.46 449.15
  L 429.38 446.38
  L 428.97 444.60
  L 428.25 442.84
  L 427.26 441.19
  L 425.96 439.60"
/>
<path stroke="#b8abf3" vector-effect="non-scaling-stroke" d="
  M 274.87 403.74
  L 277.33 407.21
  L 280.05 410.21
  L 285.08 414.64
  L 290.46 418.52
  L 290.46 418.52
  L 295.20 421.33
  L 300.19 423.76
  L 305.43 425.81
  L 310.91 427.48
  L 317.13 428.70
  L 324.12 429.28
  L 331.01 429.32
  L 337.61 428.95
  L 343.78 428.17
  L 349.59 426.97
  L 354.97 425.38
  L 359.95 423.37
  L 364.47 420.98
  L 368.54 418.22
  L 368.57 418.19
  L 368.81 417.69
  L 368.61 417.16
  L 342.07 389.97
  L 340.11 387.84
  L 338.76 386.09
  L 337.83 384.49
  L 337.23 382.82
  L 336.97 380.31
  L 337.38 377.34
  L 338.37 374.36
  L 339.83 371.81
  L 341.72 369.73
  L 344.00 368.18
  L 345.73 367.48
  L 347.61 367.05
  L 349.51 366.93
  L 351.52 367.09
  L 353.25 367.52
  L 354.96 368.31
  L 356.65 369.46
  L 358.32 370.96
  L 387.15 400.32
  L 387.52 400.50
  L 387.92 400.40
  L 389.07 399.42
  L 389.90 398.26
  L 389.90 398.26
  L 390.34 397.13"
/>
<path stroke="#a797f5" vector-effect="non-scaling-stroke" d="
  M 390.34 397.13
  L 392.53 393.60
  L 394.51 389.98
  L 396.28 386.29
  L 397.84 382.52
  L 397.84 382.52
  L 397.84 382.52
  L 397.84 382.52
  L 399.19 378.65
  L 400.33 374.71
  L 401.26 370.68
  L 401.98 366.58
  L 402.64 360.94
  L 402.99 355.12
  L 403.01 349.13
  L 402.71 342.96
  L 401.94 336.43
  L 400.62 330.14
  L 398.73 323.99
  L 396.32 318.11
  L 392.95 311.74
  L 388.96 305.77
  L 384.31 300.17
  L 379.11 295.04
  L 373.37 290.40
  L 367.15 286.28
  L 360.47 282.73
  L 353.39 279.75
  L 346.37 277.56
  L 339.23 276.10
  L 332.02 275.38
  L 324.81 275.41
  L 317.71 276.18
  L 310.72 277.69
  L 304.02 279.92
  L 297.54 282.89
  L 294.15 284.79
  L 290.86 286.92
  L 285.89 290.64
  L 281.37 294.65
  L 277.19 299.01
  L 273.46 303.63
  L 271.16 306.92
  L 269.07 310.31
  L 267.13 313.89
  L 265.39 317.56
  L 263.86 321.33
  L 262.53 325.18
  L 261.37 329.20
  L 260.42 333.29
  L 259.67 337.48
  L 259.12 341.73
  L 258.77 346.12
  L 258.62 350.57
  L 258.68 355.07
  L 258.95 359.61
  L 260.07 368.73
  L 260.91 373.10
  L 261.98 377.37
  L 263.27 381.56
  L 264.78 385.66
  L 264.78 385.66
  L 264.78 385.66
  L 266.84 390.36
  L 269.21 394.95
  L 271.89 399.40
  L 274.87 403.74"
/>
<path stroke="#5f43e8" vector-effect="non-scaling-stroke" d="
  M 390.34 397.13
  L 392.64 391.16
  L 393.89 388.45
  L 396.43 383.06
  L 397.71 379.90
  L 399.53 373.46
  L 400.77 367.00
  L 401.01 365.26
  L 401.63 359.45
  L 401.93 353.59
  L 401.92 347.70
  L 401.60 341.76
  L 400.88 335.80
  L 399.69 330.05
  L 398.03 324.52
  L 395.90 319.20
  L 395.90 319.20
  L 395.90 319.20
  L 395.90 319.20
  L 395.90 319.20
  L 394.20 315.74
  L 392.29 312.37
  L 390.16 309.10
  L 387.82 305.92
  L 384.79 302.25
  L 381.77 298.96
  L 378.76 296.05
  L 375.75 293.52
  L 370.57 289.78
  L 365.23 286.47
  L 359.72 283.60
  L 354.05 281.15
  L 354.05 281.15
  L 354.05 281.15
  L 354.05 281.15
  L 349.26 279.47
  L 344.37 278.08
  L 339.74 277.17
  L 334.77 276.67
  L 329.22 276.55
  L 321.78 276.76
  L 317.85 277.12
  L 313.90 277.89
  L 306.19 279.92
  L 301.95 281.77
  L 297.90 283.80
  L 294.06 286.00
  L 290.41 288.39
  L 286.92 290.99
  L 283.64 293.75
  L 280.56 296.69
  L 277.69 299.80
  L 274.39 303.91
  L 271.42 308.26
  L 268.76 312.85
  L 266.43 317.68
  L 264.41 322.77
  L 262.72 328.08
  L 261.36 333.60
  L 260.33 339.32
  L 260.32 339.41
  L 259.83 344.78
  L 259.82 352.24
  L 259.88 358.06
  L 260.00 360.10
  L 260.38 362.70
  L 260.79 365.74
  L 261.08 368.76
  L 261.60 371.47
  L 263.62 378.84
  L 265.93 385.67
  L 267.45 388.94
  L 270.46 394.66
  L 272.75 399.13
  L 274.87 403.74"
/>
<path stroke="#5f43e8" vector-effect="non-scaling-stroke" d="
  M 663.87 509.25
  L 664.72 509.51
  L 665.28 510.19
  L 669.71 521.20
  L 677.86 541.25
  L 683.64 554.66
  L 685.73 558.81
  L 687.54 561.36
  L 689.58 563.16
  L 691.79 564.54
  L 694.22 565.51
  L 696.74 566.02
  L 699.66 566.03
  L 702.57 565.43
  L 705.29 564.28
  L 707.87 562.56
  L 710.14 560.32
  L 711.81 557.78
  L 711.81 557.78
  L 712.56 556.01
  L 713.06 554.12
  L 713.33 552.10
  L 713.35 549.96
  L 713.09 548.14
  L 712.47 546.31
  L 698.50 512.42
  L 685.43 480.74
  L 683.25 475.69
  L 668.63 440.81
  L 656.59 411.90
  L 651.35 399.11
  L 644.50 382.42
  L 639.35 370.86
  L 638.05 368.49
  L 636.56 366.44
  L 634.86 364.72
  L 632.96 363.33
  L 632.96 363.33
  L 632.96 363.33
  L 630.52 362.12
  L 627.81 361.35
  L 624.59 360.89
  L 620.91 360.68
  L 617.36 360.76
  L 614.26 361.12
  L 611.69 361.74
  L 609.37 362.62
  L 607.30 363.78
  L 605.49 365.21
  L 605.49 365.21
  L 603.45 367.56
  L 601.87 370.40
  L 601.17 372.30
  L 600.61 374.48
  L 599.82 380.43
  L 599.52 383.20
  L 599.28 384.17
  L 593.70 398.54
  L 573.73 448.09
  L 571.67 453.19
  L 534.87 545.32
  L 533.69 548.86
  L 533.39 551.29
  L 533.76 553.78
  L 534.48 556.14
  L 535.55 558.40
  L 536.94 560.43
  L 538.60 562.20
  L 540.51 563.66
  L 542.55 564.75
  L 544.76 565.48
  L 546.57 565.79
  L 548.46 565.86
  L 550.32 565.68
  L 552.21 565.25
  L 554.65 564.32
  L 556.86 563.00
  L 558.88 561.15
  L 560.64 558.81
  L 562.20 555.90
  L 563.96 551.70
  L 572.03 531.13
  L 580.46 510.24
  L 581.05 509.52
  L 581.94 509.25
  L 663.87 509.25"
/>
<path stroke="#a797f5" vector-effect="non-scaling-stroke" d="
  M 665.80 508.70
  L 683.85 552.74
  L 685.77 556.80
  L 687.81 559.92
  L 690.04 562.23
  L 692.52 563.80
  L 694.41 564.48
  L 696.61 564.90
  L 698.76 564.98
  L 700.94 564.74
  L 703.01 564.18
  L 704.96 563.32
  L 706.73 562.16
  L 708.30 560.75
  L 709.64 559.10
  L 710.69 557.27
  L 711.46 555.25
  L 711.89 553.16
  L 712.01 550.94
  L 711.80 549.00
  L 711.23 546.76
  L 708.75 540.53
  L 707.61 537.88
  L 672.29 453.23
  L 638.84 372.48
  L 637.70 370.11
  L 636.35 368.05
  L 634.78 366.28
  L 633.01 364.81
  L 633.01 364.81
  L 631.55 363.92
  L 629.98 363.18
  L 626.48 362.22
  L 621.26 361.74
  L 615.50 361.98
  L 613.38 362.31
  L 611.41 362.87
  L 609.61 363.64
  L 607.96 364.64
  L 607.96 364.64
  L 607.96 364.64
  L 607.96 364.64
  L 605.95 366.39
  L 604.23 368.55
  L 602.82 371.13
  L 601.70 374.14
  L 601.33 376.11
  L 601.10 379.19
  L 600.83 382.67
  L 600.32 384.79
  L 574.22 449.66
  L 535.53 546.51
  L 534.89 548.45
  L 534.53 550.33
  L 534.46 552.16
  L 534.68 553.92
  L 534.68 553.92
  L 535.43 556.23
  L 536.72 558.43
  L 538.46 560.53
  L 540.31 562.21
  L 542.29 563.47
  L 544.40 564.32
  L 544.40 564.32
  L 544.40 564.32
  L 546.52 564.73
  L 548.75 564.76
  L 551.09 564.40
  L 553.54 563.67
  L 555.81 562.49
  L 558.01 560.66
  L 559.84 558.44
  L 561.10 556.06
  L 580.03 508.57
  L 580.32 508.21
  L 580.76 508.08
  L 664.87 508.08
  L 665.43 508.25
  L 665.80 508.70"
/>
<path stroke="#a797f5" vector-effect="non-scaling-stroke" d="
  M 622.84 404.41
  L 622.33 403.98
  L 621.68 404.12
  L 621.45 404.43
  L 590.83 480.97
  L 590.81 481.48
  L 591.13 481.89
  L 591.53 482.00
  L 654.66 482.00
  L 655.03 481.90
  L 655.31 481.62
  L 655.35 480.96
  L 622.84 404.41"
/>
<path stroke="#5f43e8" vector-effect="non-scaling-stroke" d="
  M 622.70 406.39
  L 622.51 406.15
  L 622.04 406.08
  L 621.68 406.40
  L 592.04 480.49
  L 592.07 480.96
  L 592.55 481.24
  L 653.66 481.24
  L 654.10 481.02
  L 654.17 480.48
  L 622.70 406.39"
/>
</g>
<g fill="#7056e6">
<path d="
  M 921.21 460.67
  L 920.84 461.27
  L 920.84 461.27
  L 920.87 461.77
  L 921.15 462.32
  L 920.74 473.44
  L 920.17 487.23
  L 918.68 505.30
  L 916.61 522.71
  L 913.97 539.45
  L 910.76 555.53
  L 907.70 568.46
  L 904.29 581.22
  L 900.55 593.82
  L 896.47 606.26
  L 892.04 618.53
  L 887.28 630.64
  L 882.17 642.59
  L 876.73 654.38
  L 876.73 654.38
  L 870.59 666.68
  L 864.07 678.81
  L 857.17 690.75
  L 849.89 702.51
  L 842.22 714.09
  L 834.18 725.48
  L 825.75 736.69
  L 816.94 747.72
  L 810.87 754.88
  L 803.84 762.74
  L 795.86 771.32
  L 786.92 780.60
  L 781.06 786.31
  L 771.90 794.76
  L 769.74 796.73
  L 762.14 803.54
  L 754.40 810.17
  L 746.52 816.63
  L 738.52 822.91
  L 738.52 822.91
  L 738.52 822.91
  L 726.94 831.51
  L 715.08 839.76
  L 702.96 847.66
  L 690.57 855.21
  L 679.19 861.67
  L 667.62 867.77
  L 655.79 873.55
  L 643.79 878.95
  L 631.60 884.01
  L 619.26 888.69
  L 606.69 893.03
  L 593.99 896.99
  L 581.08 900.59
  L 568.06 903.81
  L 554.94 906.65
  L 541.74 909.10
  L 528.39 911.17
  L 514.98 912.86
  L 501.51 914.16
  L 487.99 915.07
  L 487.98 915.05
  L 487.50 914.87
  L 486.99 915.04
  L 486.95 915.25
  L 464.75 915.79
  L 444.21 915.58
  L 431.83 915.00
  L 419.06 913.98
  L 405.89 912.52
  L 392.33 910.62
  L 379.18 908.40
  L 366.10 905.81
  L 353.10 902.85
  L 340.21 899.52
  L 327.41 895.82
  L 314.73 891.77
  L 302.18 887.36
  L 289.76 882.59
  L 277.51 877.47
  L 265.42 872.02
  L 253.48 866.21
  L 241.72 860.07
  L 230.17 853.60
  L 218.81 846.79
  L 207.74 839.71
  L 196.87 832.31
  L 186.48 824.79
  L 176.33 817.01
  L 166.34 808.91
  L 156.59 800.55
  L 147.08 791.93
  L 137.82 783.07
  L 128.83 773.97
  L 120.10 764.65
  L 111.60 755.04
  L 103.37 745.22
  L 95.42 735.18
  L 87.77 724.94
  L 80.40 714.50
  L 73.33 703.86
  L 66.56 693.04
  L 60.09 682.04
  L 53.95 670.91
  L 48.13 659.60
  L 42.62 648.14
  L 37.43 636.53
  L 32.58 624.82
  L 28.07 612.98
  L 23.88 601.01
  L 20.03 588.91
  L 16.54 576.76
  L 13.38 564.50
  L 10.60 552.23
  L 8.15 539.86
  L 6.05 527.42
  L 4.30 514.90
  L 2.92 502.40
  L 1.89 489.82
  L 1.60 485.25
  L 1.02 473.50
  L 0.71 463.25
  L 0.67 454.51
  L 0.90 447.26
  L 1.29 436.98
  L 1.66 427.42
  L 2.74 413.16
  L 4.24 399.04
  L 6.15 385.06
  L 8.49 371.20
  L 11.25 357.49
  L 14.43 343.90
  L 18.04 330.45
  L 22.06 317.14
  L 22.06 317.14
  L 22.06 317.14
  L 26.48 304.01
  L 31.33 291.02
  L 36.58 278.16
  L 42.26 265.43
  L 48.35 252.84
  L 54.87 240.38
  L 61.79 228.05
  L 69.14 215.86
  L 77.35 203.16
  L 85.97 190.74
  L 95.00 178.61
  L 104.43 166.77
  L 114.25 155.25
  L 124.44 144.06
  L 135.00 133.20
  L 145.91 122.70
  L 157.14 112.59
  L 168.71 102.85
  L 180.51 93.57
  L 192.62 84.68
  L 204.94 76.26
  L 217.54 68.26
  L 230.33 60.74
  L 243.37 53.66
  L 255.58 47.51
  L 267.90 41.74
  L 280.30 36.35
  L 292.81 31.34
  L 305.41 26.71
  L 318.11 22.46
  L 330.91 18.59
  L 343.80 15.09
  L 343.80 15.09
  L 343.80 15.09
  L 343.80 15.09
  L 343.80 15.09
  L 343.80 15.09
  L 354.47 12.50
  L 365.21 10.17
  L 376.02 8.10
  L 386.89 6.28
  L 397.82 4.72
  L 408.82 3.41
  L 419.89 2.36
  L 431.02 1.57
  L 442.25 1.02
  L 459.95 0.58
  L 468.06 0.65
  L 475.69 0.92
  L 490.49 1.69
  L 500.95 2.43
  L 511.36 3.40
  L 521.72 4.58
  L 532.02 6.00
  L 542.27 7.63
  L 552.46 9.49
  L 562.60 11.57
  L 572.69 13.88
  L 572.69 13.88
  L 572.69 13.88
  L 572.69 13.88
  L 583.61 16.64
  L 594.47 19.67
  L 605.27 22.97
  L 616.00 26.53
  L 626.67 30.35
  L 637.27 34.44
  L 647.81 38.80
  L 658.29 43.42
  L 664.64 46.37
  L 675.19 51.56
  L 685.57 57.02
  L 695.86 62.79
  L 705.98 68.83
  L 715.91 75.14
  L 725.66 81.70
  L 735.30 88.58
  L 744.75 95.72
  L 754.06 103.14
  L 763.17 110.82
  L 772.08 118.74
  L 780.79 126.90
  L 789.34 135.34
  L 797.67 144.01
  L 805.79 152.91
  L 813.70 162.04
  L 823.22 173.70
  L 832.33 185.63
  L 841.03 197.84
  L 849.32 210.31
  L 857.21 223.08
  L 864.66 236.08
  L 871.68 249.31
  L 878.26 262.76
  L 884.37 276.39
  L 890.04 290.21
  L 895.24 304.22
  L 899.98 318.41
  L 904.25 332.73
  L 908.03 347.20
  L 911.32 361.72
  L 914.13 376.36
  L 916.32 390.01
  L 918.09 403.58
  L 919.46 417.08
  L 920.42 430.51
  L 920.83 441.90
  L 921.21 460.67
  Z
  M 141.97 284.20
  L 141.97 433.69
  L 141.90 424.90
  L 141.90 424.90
  L 141.83 424.84
  L 141.58 424.83
  L 141.30 425.09
  L 141.04 437.74
  L 141.20 443.07
  L 141.55 447.75
  L 142.62 455.21
  L 144.28 462.53
  L 146.55 469.81
  L 149.38 476.90
  L 152.80 483.90
  L 156.75 490.67
  L 161.28 497.27
  L 166.32 503.59
  L 170.11 507.65
  L 175.74 513.09
  L 180.26 517.11
  L 184.96 520.86
  L 189.82 524.34
  L 194.85 527.54
  L 199.99 530.42
  L 205.26 533.02
  L 210.66 535.32
  L 216.18 537.31
  L 217.02 537.92
  L 217.35 538.91
  L 217.45 573.25
  L 217.54 600.51
  L 217.92 606.05
  L 218.78 610.98
  L 219.63 613.90
  L 220.74 616.70
  L 222.12 619.35
  L 223.74 621.83
  L 225.59 624.14
  L 227.66 626.24
  L 229.94 628.13
  L 232.42 629.79
  L 235.01 631.17
  L 237.76 632.30
  L 240.56 633.13
  L 243.49 633.69
  L 246.32 633.88
  L 249.14 633.69
  L 252.00 633.14
  L 255.02 632.20
  L 258.06 630.89
  L 261.19 629.18
  L 264.29 627.15
  L 267.41 624.78
  L 364.86 544.80
  L 366.47 543.68
  L 367.93 543.07
  L 369.82 542.83
  L 417.67 542.85
  L 417.71 542.85
  L 418.39 543.00
  L 418.96 543.40
  L 419.33 544.00
  L 419.44 544.69
  L 419.35 551.70
  L 419.68 558.46
  L 420.42 565.17
  L 421.56 571.59
  L 423.13 577.86
  L 425.06 583.80
  L 427.40 589.54
  L 430.17 595.11
  L 435.94 605.01
  L 438.53 608.90
  L 440.92 612.09
  L 446.94 618.97
  L 453.37 625.17
  L 460.22 630.70
  L 467.47 635.56
  L 467.47 635.56
  L 467.47 635.56
  L 467.47 635.56
  L 471.42 637.82
  L 475.49 639.91
  L 479.67 641.81
  L 483.96 643.52
  L 488.37 645.05
  L 492.88 646.40
  L 497.51 647.56
  L 502.25 648.53
  L 509.68 649.52
  L 517.62 649.85
  L 554.15 650.00
  L 556.49 650.19
  L 558.85 650.65
  L 559.48 650.97
  L 662.37 733.11
  L 667.18 736.75
  L 670.97 739.15
  L 674.51 740.83
  L 677.96 741.82
  L 680.18 742.14
  L 682.52 742.22
  L 685.01 742.05
  L 687.69 741.64
  L 690.28 740.92
  L 692.81 739.83
  L 695.33 738.34
  L 697.70 736.54
  L 699.98 734.38
  L 702.00 732.01
  L 703.69 729.49
  L 705.01 726.91
  L 705.19 726.47
  L 705.19 726.47
  L 705.19 726.47
  L 706.35 723.23
  L 707.17 719.85
  L 707.67 716.34
  L 707.85 712.70
  L 707.88 677.57
  L 707.65 649.30
  L 707.94 648.45
  L 708.71 647.99
  L 715.77 646.29
  L 722.69 644.00
  L 727.76 641.91
  L 732.65 639.52
  L 737.47 636.78
  L 742.14 633.76
  L 746.79 630.34
  L 751.29 626.64
  L 755.68 622.62
  L 760.08 618.19
  L 763.64 614.23
  L 766.96 610.12
  L 770.05 605.87
  L 772.90 601.48
  L 773.95 599.73
  L 776.64 594.79
  L 776.64 594.79
  L 779.27 589.06
  L 781.49 583.13
  L 783.31 576.99
  L 784.72 570.65
  L 785.23 567.13
  L 786.05 561.93
  L 786.17 560.94
  L 786.53 522.38
  L 786.66 457.43
  L 786.30 379.69
  L 786.12 374.27
  L 785.66 368.99
  L 784.93 363.86
  L 783.91 358.88
  L 782.61 354.04
  L 781.04 349.36
  L 779.18 344.81
  L 777.05 340.42
  L 777.05 340.42
  L 777.05 340.42
  L 774.21 335.48
  L 769.60 328.38
  L 764.62 321.67
  L 759.25 315.35
  L 753.51 309.42
  L 752.78 308.72
  L 751.74 307.03
  L 750.42 305.40
  L 748.80 303.75
  L 746.83 302.07
  L 741.98 298.68
  L 735.51 295.00
  L 728.54 291.62
  L 721.38 288.76
  L 721.38 288.76
  L 721.38 288.76
  L 713.40 286.27
  L 705.20 284.41
  L 694.27 282.54
  L 688.15 281.91
  L 559.03 281.91
  L 549.19 282.15
  L 540.16 282.37
  L 533.83 282.10
  L 533.45 281.91
  L 533.30 281.51
  L 533.18 273.42
  L 532.66 263.96
  L 532.18 258.86
  L 531.46 253.83
  L 530.51 248.86
  L 529.34 243.94
  L 529.34 243.94
  L 527.01 236.31
  L 525.07 231.21
  L 522.88 226.40
  L 517.82 216.91
  L 517.33 216.25
  L 516.88 216.05
  L 516.88 216.05
  L 516.74 216.09
  L 516.70 216.11
  L 516.54 216.43
  L 516.56 217.05
  L 511.37 209.61
  L 505.75 202.69
  L 499.69 196.28
  L 493.20 190.39
  L 487.64 186.02
  L 481.80 181.98
  L 475.68 178.28
  L 469.27 174.92
  L 469.34 174.51
  L 469.10 173.72
  L 468.61 173.30
  L 462.99 171.15
  L 457.58 169.35
  L 452.07 167.79
  L 446.49 166.46
  L 440.82 165.36
  L 436.00 164.77
  L 429.62 164.35
  L 421.66 164.12
  L 412.13 164.06
  L 264.68 164.12
  L 256.83 164.22
  L 248.93 164.56
  L 241.45 165.12
  L 234.53 165.88
  L 228.67 166.79
  L 223.08 167.93
  L 217.56 169.36
  L 212.34 171.01
  L 207.35 172.90
  L 202.48 175.08
  L 197.89 177.47
  L 193.44 180.15
  L 188.35 183.62
  L 183.47 187.31
  L 178.81 191.21
  L 174.37 195.34
  L 174.37 195.34
  L 174.37 195.34
  L 169.61 200.25
  L 167.10 203.32
  L 164.92 205.98
  L 161.46 210.32
  L 157.99 215.42
  L 154.87 220.57
  L 152.10 225.78
  L 149.67 231.04
  L 147.58 236.36
  L 145.84 241.73
  L 144.44 247.16
  L 143.39 252.64
  L 143.17 254.12
  L 141.51 267.47
  L 140.70 278.31
  L 140.61 282.79
  L 140.73 286.65
  L 141.06 289.87
  L 141.61 292.47
  L 141.62 292.48
  L 141.64 292.47
  L 141.97 284.20
  Z"
/>
<path d="
  M 246.74 607.99
  L 246.08 608.04
  L 245.44 607.83
  L 244.93 607.40
  L 244.62 606.81
  L 243.98 603.99
  L 243.78 601.18
  L 243.78 601.18
  L 243.79 600.88
  L 243.92 573.33
  L 243.47 522.98
  L 243.35 521.41
  L 243.02 520.01
  L 242.49 518.79
  L 241.76 517.74
  L 241.76 517.74
  L 241.76 517.74
  L 240.28 516.51
  L 238.36 515.68
  L 232.36 514.06
  L 225.74 512.25
  L 221.20 510.67
  L 213.41 507.18
  L 206.05 503.13
  L 199.28 498.63
  L 193.02 493.61
  L 187.41 488.16
  L 182.51 482.37
  L 178.19 476.10
  L 174.61 469.55
  L 172.45 464.60
  L 170.64 459.42
  L 169.21 454.13
  L 168.15 448.63
  L 167.67 444.09
  L 167.33 437.61
  L 167.11 418.79
  L 167.14 388.92
  L 167.09 319.59
  L 166.85 270.22
  L 167.19 264.92
  L 168.19 258.48
  L 169.29 253.66
  L 170.60 248.99
  L 172.12 244.48
  L 173.85 240.12
  L 175.79 235.92
  L 177.94 231.87
  L 180.31 227.97
  L 182.88 224.22
  L 182.88 224.22
  L 182.88 224.22
  L 186.46 219.68
  L 190.38 215.38
  L 194.64 211.33
  L 199.25 207.53
  L 203.50 204.47
  L 207.91 201.69
  L 207.91 201.69
  L 207.91 201.69
  L 207.91 201.69
  L 214.40 198.25
  L 221.22 195.37
  L 228.37 193.05
  L 235.84 191.28
  L 240.33 190.60
  L 245.78 190.12
  L 252.17 189.83
  L 259.51 189.75
  L 422.67 189.79
  L 428.50 189.87
  L 433.58 190.14
  L 437.91 190.59
  L 441.49 191.23
  L 444.18 191.90
  L 444.18 191.90
  L 448.15 193.09
  L 452.06 194.52
  L 455.90 196.18
  L 459.68 198.08
  L 465.92 201.65
  L 471.72 205.41
  L 476.98 209.30
  L 481.79 213.37
  L 486.10 217.60
  L 489.92 221.98
  L 493.30 226.59
  L 496.16 231.32
  L 498.64 236.15
  L 500.72 240.78
  L 502.38 245.16
  L 503.66 249.43
  L 504.45 252.66
  L 504.45 252.66
  L 504.45 252.66
  L 505.63 258.63
  L 506.47 264.68
  L 506.97 270.80
  L 507.14 277.00
  L 507.05 435.24
  L 506.74 441.91
  L 505.86 448.49
  L 505.86 448.49
  L 504.15 455.94
  L 501.69 463.25
  L 498.47 470.43
  L 494.50 477.48
  L 491.64 481.68
  L 488.08 486.22
  L 484.06 490.83
  L 480.70 494.19
  L 474.15 499.32
  L 467.27 504.06
  L 461.84 506.89
  L 456.66 509.24
  L 451.75 511.13
  L 447.09 512.55
  L 441.59 513.85
  L 436.07 514.87
  L 430.54 515.60
  L 424.99 516.05
  L 424.99 516.05
  L 424.99 516.05
  L 423.77 516.11
  L 410.82 516.40
  L 392.66 516.27
  L 377.34 516.14
  L 366.72 516.29
  L 363.76 516.59
  L 360.94 517.30
  L 357.78 518.65
  L 354.80 520.56
  L 345.54 527.88
  L 335.55 536.30
  L 329.52 541.11
  L 323.27 546.06
  L 299.50 565.77
  L 263.77 595.41
  L 260.57 597.93
  L 258.76 599.26
  L 256.64 601.15
  L 253.42 603.84
  L 248.97 607.32
  L 248.62 607.49
  L 246.74 607.99
  Z
  M 425.96 439.60
  L 412.48 425.83
  L 413.04 425.59
  L 413.11 425.37
  L 413.03 424.85
  L 412.81 424.54
  L 409.39 421.37
  L 409.02 420.91
  L 408.84 420.36
  L 408.86 419.77
  L 409.08 419.23
  L 414.08 411.44
  L 417.43 405.84
  L 420.40 400.09
  L 423.26 393.46
  L 425.66 386.63
  L 427.62 379.49
  L 429.12 372.12
  L 430.03 365.97
  L 430.63 360.08
  L 430.93 354.46
  L 430.92 349.09
  L 430.40 343.79
  L 429.99 339.06
  L 429.88 335.56
  L 429.30 331.52
  L 427.21 322.36
  L 424.41 313.61
  L 422.75 309.40
  L 420.91 305.29
  L 418.90 301.28
  L 416.71 297.37
  L 416.71 297.37
  L 413.87 292.85
  L 410.77 288.47
  L 407.59 284.43
  L 404.20 280.56
  L 400.62 276.85
  L 396.87 273.33
  L 392.94 270.00
  L 388.85 266.87
  L 384.61 263.94
  L 380.23 261.22
  L 375.78 258.76
  L 371.21 256.52
  L 366.54 254.52
  L 361.77 252.75
  L 356.95 251.25
  L 352.06 249.99
  L 347.20 249.02
  L 342.29 248.30
  L 336.78 247.79
  L 331.29 247.57
  L 325.83 247.65
  L 320.41 248.02
  L 315.04 248.68
  L 309.72 249.63
  L 304.47 250.88
  L 299.29 252.42
  L 293.07 254.69
  L 286.98 257.40
  L 281.14 260.49
  L 275.46 264.00
  L 269.95 267.94
  L 264.79 272.17
  L 259.97 276.71
  L 255.51 281.54
  L 255.51 281.54
  L 255.51 281.54
  L 255.51 281.54
  L 252.67 285.02
  L 249.98 288.63
  L 247.47 292.38
  L 245.11 296.27
  L 242.92 300.31
  L 240.88 304.48
  L 239.02 308.79
  L 237.31 313.24
  L 234.34 322.67
  L 233.16 327.39
  L 232.19 332.11
  L 231.42 336.83
  L 230.86 341.55
  L 230.50 346.28
  L 230.35 351.01
  L 230.35 351.01
  L 230.35 351.01
  L 230.35 351.01
  L 230.46 357.07
  L 230.91 363.14
  L 231.70 369.22
  L 232.82 375.30
  L 234.28 381.38
  L 236.08 387.46
  L 238.22 393.55
  L 240.70 399.64
  L 243.08 404.72
  L 245.72 409.62
  L 248.61 414.32
  L 251.77 418.83
  L 251.77 418.83
  L 255.55 423.58
  L 259.64 428.10
  L 264.05 432.39
  L 268.78 436.44
  L 273.32 439.81
  L 278.34 442.99
  L 283.70 445.89
  L 289.45 448.56
  L 295.53 450.94
  L 301.88 453.02
  L 308.26 454.72
  L 314.73 456.06
  L 318.24 456.55
  L 322.14 456.84
  L 332.69 456.95
  L 336.18 456.93
  L 342.34 456.68
  L 347.77 455.93
  L 355.09 454.33
  L 361.56 452.58
  L 368.39 450.25
  L 374.94 447.50
  L 381.21 444.32
  L 387.20 440.71
  L 387.20 440.71
  L 388.29 439.99
  L 389.13 439.78
  L 389.91 440.17
  L 404.91 456.20
  L 406.84 458.12
  L 408.68 459.65
  L 410.43 460.79
  L 412.08 461.53
  L 414.63 462.11
  L 414.63 462.11
  L 417.74 462.11
  L 420.93 461.37
  L 422.75 460.63
  L 424.38 459.72
  L 425.83 458.65
  L 427.08 457.41
  L 427.08 457.41
  L 427.08 457.41
  L 427.08 457.41
  L 428.14 456.03
  L 429.01 454.50
  L 429.71 452.80
  L 430.22 450.95
  L 430.53 448.81
  L 430.50 446.72
  L 430.14 444.70
  L 429.43 442.80
  L 428.25 440.82
  L 426.64 439.06
  L 426.33 438.92
  L 426.01 439.02
  L 425.94 439.08
  L 425.96 439.60
  Z"
/>
<path d="
  M 390.34 397.13
  L 389.90 398.26
  L 389.90 398.26
  L 389.07 399.42
  L 387.92 400.40
  L 387.52 400.50
  L 387.15 400.32
  L 358.32 370.96
  L 356.65 369.46
  L 354.96 368.31
  L 353.25 367.52
  L 351.52 367.09
  L 349.51 366.93
  L 347.61 367.05
  L 345.73 367.48
  L 344.00 368.18
  L 341.72 369.73
  L 339.83 371.81
  L 338.37 374.36
  L 337.38 377.34
  L 336.97 380.31
  L 337.23 382.82
  L 337.83 384.49
  L 338.76 386.09
  L 340.11 387.84
  L 342.07 389.97
  L 368.61 417.16
  L 368.81 417.69
  L 368.57 418.19
  L 368.54 418.22
  L 364.47 420.98
  L 359.95 423.37
  L 354.97 425.38
  L 349.59 426.97
  L 343.78 428.17
  L 337.61 428.95
  L 331.01 429.32
  L 324.12 429.28
  L 317.13 428.70
  L 310.91 427.48
  L 305.43 425.81
  L 300.19 423.76
  L 295.20 421.33
  L 290.46 418.52
  L 290.46 418.52
  L 285.08 414.64
  L 280.05 410.21
  L 277.33 407.21
  L 274.87 403.74
  L 272.75 399.13
  L 270.46 394.66
  L 267.45 388.94
  L 265.93 385.67
  L 263.62 378.84
  L 261.60 371.47
  L 261.08 368.76
  L 260.79 365.74
  L 260.38 362.70
  L 260.00 360.10
  L 259.88 358.06
  L 259.82 352.24
  L 259.83 344.78
  L 260.32 339.41
  L 260.33 339.32
  L 261.36 333.60
  L 262.72 328.08
  L 264.41 322.77
  L 266.43 317.68
  L 268.76 312.85
  L 271.42 308.26
  L 274.39 303.91
  L 277.69 299.80
  L 280.56 296.69
  L 283.64 293.75
  L 286.92 290.99
  L 290.41 288.39
  L 294.06 286.00
  L 297.90 283.80
  L 301.95 281.77
  L 306.19 279.92
  L 313.90 277.89
  L 317.85 277.12
  L 321.78 276.76
  L 329.22 276.55
  L 334.77 276.67
  L 339.74 277.17
  L 344.37 278.08
  L 349.26 279.47
  L 354.05 281.15
  L 354.05 281.15
  L 354.05 281.15
  L 359.72 283.60
  L 365.23 286.47
  L 370.57 289.78
  L 375.75 293.52
  L 378.76 296.05
  L 381.77 298.96
  L 384.79 302.25
  L 387.82 305.92
  L 390.16 309.10
  L 392.29 312.37
  L 394.20 315.74
  L 395.90 319.20
  L 395.90 319.20
  L 395.90 319.20
  L 395.90 319.20
  L 398.03 324.52
  L 399.69 330.05
  L 400.88 335.80
  L 401.60 341.76
  L 401.92 347.70
  L 401.93 353.59
  L 401.63 359.45
  L 401.01 365.26
  L 401.01 365.26
  L 401.01 365.26
  L 400.77 367.00
  L 399.53 373.46
  L 397.71 379.90
  L 396.43 383.06
  L 393.89 388.45
  L 392.64 391.16
  L 390.34 397.13
  Z"
/>
<path d="
  M 760.92 372.39
  L 760.86 379.25
  L 761.15 552.62
  L 760.81 561.91
  L 760.39 565.66
  L 759.81 568.81
  L 759.33 570.77
  L 757.90 575.48
  L 756.15 580.03
  L 754.06 584.51
  L 751.66 588.80
  L 748.91 592.99
  L 745.88 596.98
  L 742.52 600.83
  L 738.90 604.43
  L 735.00 607.84
  L 730.88 610.98
  L 726.55 613.85
  L 722.04 616.44
  L 717.36 618.74
  L 712.54 620.73
  L 707.59 622.42
  L 702.54 623.78
  L 695.06 625.25
  L 687.99 626.06
  L 686.94 626.31
  L 686.04 626.90
  L 684.69 628.38
  L 683.79 629.86
  L 683.31 631.21
  L 683.04 632.66
  L 682.91 637.00
  L 682.92 638.37
  L 683.02 716.00
  L 682.94 716.97
  L 682.92 716.99
  L 682.34 717.33
  L 681.69 717.14
  L 629.28 675.16
  L 571.00 628.76
  L 569.11 627.43
  L 567.18 626.38
  L 565.21 625.64
  L 563.19 625.18
  L 560.79 625.02
  L 512.26 625.12
  L 508.71 624.90
  L 504.78 624.24
  L 500.48 623.16
  L 495.80 621.64
  L 489.18 618.98
  L 482.97 615.83
  L 477.15 612.21
  L 471.73 608.11
  L 471.73 608.11
  L 466.46 603.26
  L 461.63 597.88
  L 457.24 591.96
  L 453.30 585.51
  L 453.82 585.73
  L 454.02 585.77
  L 454.39 585.53
  L 454.40 585.09
  L 452.54 581.39
  L 450.92 577.68
  L 449.52 573.95
  L 448.34 570.18
  L 447.32 566.09
  L 446.54 561.92
  L 445.99 557.63
  L 445.66 553.21
  L 445.36 541.11
  L 445.63 540.34
  L 446.33 539.91
  L 450.98 538.79
  L 455.56 537.45
  L 460.17 535.88
  L 464.70 534.11
  L 469.18 532.13
  L 473.56 529.95
  L 477.84 527.58
  L 482.02 525.03
  L 486.15 522.26
  L 490.16 519.31
  L 494.04 516.19
  L 497.79 512.91
  L 501.39 509.48
  L 504.84 505.89
  L 508.14 502.17
  L 511.28 498.30
  L 516.45 491.03
  L 520.94 483.39
  L 520.94 483.39
  L 520.94 483.39
  L 523.22 478.82
  L 525.27 474.14
  L 527.10 469.33
  L 528.70 464.40
  L 530.08 459.36
  L 531.23 454.19
  L 532.16 448.91
  L 532.86 443.50
  L 533.22 437.40
  L 533.32 428.25
  L 533.50 347.75
  L 533.41 324.92
  L 533.29 309.38
  L 533.29 309.38
  L 533.50 308.86
  L 534.03 308.64
  L 599.25 308.90
  L 678.21 308.76
  L 685.92 308.82
  L 692.40 309.05
  L 697.65 309.47
  L 701.68 310.07
  L 706.27 311.14
  L 710.73 312.47
  L 715.06 314.07
  L 719.27 315.93
  L 719.27 315.93
  L 719.27 315.93
  L 725.28 319.18
  L 731.01 323.00
  L 736.46 327.41
  L 741.63 332.39
  L 746.45 338.16
  L 748.56 340.90
  L 750.50 343.79
  L 752.31 346.89
  L 753.94 350.10
  L 755.42 353.48
  L 756.69 356.92
  L 757.78 360.49
  L 758.65 364.06
  L 759.34 368.39
  L 759.93 374.74
  L 760.29 378.79
  L 760.56 379.03
  L 760.57 379.03
  L 760.57 379.03
  L 760.82 378.78
  L 760.92 372.39
  Z
  M 663.87 509.25
  L 664.72 509.51
  L 665.28 510.19
  L 669.71 521.20
  L 677.86 541.25
  L 683.64 554.66
  L 685.73 558.81
  L 687.54 561.36
  L 689.58 563.16
  L 691.79 564.54
  L 694.22 565.51
  L 696.74 566.02
  L 699.66 566.03
  L 702.57 565.43
  L 705.29 564.28
  L 707.87 562.56
  L 710.14 560.32
  L 711.81 557.78
  L 711.81 557.78
  L 712.56 556.01
  L 713.06 554.12
  L 713.33 552.10
  L 713.35 549.96
  L 713.09 548.14
  L 712.47 546.31
  L 698.50 512.42
  L 685.43 480.74
  L 683.25 475.69
  L 668.63 440.81
  L 656.59 411.90
  L 651.35 399.11
  L 644.50 382.42
  L 639.35 370.86
  L 638.05 368.49
  L 636.56 366.44
  L 634.86 364.72
  L 632.96 363.33
  L 632.96 363.33
  L 632.96 363.33
  L 630.52 362.12
  L 627.81 361.35
  L 624.59 360.89
  L 620.91 360.68
  L 617.36 360.76
  L 614.26 361.12
  L 611.69 361.74
  L 609.37 362.62
  L 607.30 363.78
  L 605.49 365.21
  L 605.49 365.21
  L 603.45 367.56
  L 601.87 370.40
  L 601.17 372.30
  L 600.61 374.48
  L 599.82 380.43
  L 599.52 383.20
  L 599.28 384.17
  L 593.70 398.54
  L 573.73 448.09
  L 571.67 453.19
  L 534.87 545.32
  L 533.69 548.86
  L 533.39 551.29
  L 533.76 553.78
  L 534.48 556.14
  L 535.55 558.40
  L 536.94 560.43
  L 538.60 562.20
  L 540.51 563.66
  L 542.55 564.75
  L 544.76 565.48
  L 546.57 565.79
  L 548.46 565.86
  L 550.32 565.68
  L 552.21 565.25
  L 554.65 564.32
  L 556.86 563.00
  L 558.88 561.15
  L 560.64 558.81
  L 562.20 555.90
  L 563.96 551.70
  L 572.03 531.13
  L 580.46 510.24
  L 581.05 509.52
  L 581.94 509.25
  L 663.87 509.25
  Z"
/>
<path d="
  M 622.70 406.39
  L 654.17 480.48
  L 654.10 481.02
  L 653.66 481.24
  L 592.55 481.24
  L 592.16 481.07
  L 592.00 480.68
  L 592.04 480.49
  L 621.68 406.40
  L 622.19 406.05
  L 622.70 406.39
  Z"
/>
</g>
<g fill="#ffffff">
<path d="
  M 469.27 174.92
  L 475.68 178.28
  L 481.80 181.98
  L 487.64 186.02
  L 493.20 190.39
  L 493.20 190.39
  L 493.20 190.39
  L 493.20 190.39
  L 493.20 190.39
  L 499.69 196.28
  L 505.75 202.69
  L 511.37 209.61
  L 516.56 217.05
  L 519.29 221.87
  L 521.75 226.79
  L 523.94 231.80
  L 525.87 236.90
  L 525.87 236.90
  L 525.87 236.90
  L 525.87 236.90
  L 525.87 236.90
  L 528.17 244.36
  L 529.93 252.01
  L 531.15 259.86
  L 531.82 267.89
  L 532.09 275.34
  L 532.14 282.94
  L 532.29 283.31
  L 532.66 283.47
  L 532.66 283.47
  L 684.73 283.38
  L 689.44 283.49
  L 694.16 283.81
  L 698.88 284.34
  L 703.58 285.08
  L 708.21 286.02
  L 712.80 287.17
  L 717.33 288.51
  L 721.80 290.06
  L 726.14 291.79
  L 730.39 293.71
  L 734.45 295.78
  L 738.41 298.04
  L 742.24 300.47
  L 745.94 303.08
  L 749.43 305.81
  L 752.78 308.72
  L 753.51 309.42
  L 759.25 315.35
  L 764.62 321.67
  L 769.60 328.38
  L 774.21 335.48
  L 776.73 340.93
  L 778.92 346.39
  L 780.78 351.84
  L 782.30 357.30
  L 783.49 362.75
  L 784.34 368.21
  L 784.86 373.67
  L 785.05 379.13
  L 785.05 379.13
  L 785.05 379.13
  L 785.05 379.50
  L 785.21 544.25
  L 785.09 553.63
  L 784.54 562.81
  L 783.86 568.60
  L 782.83 574.26
  L 781.44 579.79
  L 779.70 585.20
  L 779.70 585.20
  L 777.34 591.06
  L 774.55 596.76
  L 771.31 602.30
  L 767.64 607.69
  L 762.07 614.69
  L 756.00 621.19
  L 749.57 627.04
  L 742.69 632.30
  L 735.51 636.85
  L 728.11 640.67
  L 720.36 643.81
  L 712.47 646.19
  L 707.35 647.32
  L 706.77 647.66
  L 706.54 648.29
  L 706.51 711.97
  L 706.24 718.25
  L 705.90 720.76
  L 705.42 722.87
  L 703.95 726.84
  L 701.98 730.38
  L 699.48 733.57
  L 696.58 736.24
  L 693.28 738.40
  L 689.71 739.96
  L 685.95 740.89
  L 682.06 741.15
  L 678.36 740.77
  L 674.67 739.74
  L 671.11 738.07
  L 667.85 735.86
  L 559.89 649.81
  L 558.54 649.07
  L 557.03 648.82
  L 536.00 648.94
  L 517.27 648.76
  L 511.75 648.50
  L 506.26 647.93
  L 500.81 647.04
  L 495.42 645.86
  L 490.05 644.36
  L 484.78 642.57
  L 479.61 640.49
  L 474.57 638.12
  L 469.70 635.50
  L 464.99 632.62
  L 460.44 629.47
  L 456.09 626.07
  L 451.97 622.46
  L 448.08 618.61
  L 444.47 614.61
  L 441.10 610.39
  L 436.81 604.31
  L 433.04 598.20
  L 429.73 591.95
  L 426.94 585.70
  L 424.64 579.36
  L 422.87 573.04
  L 421.58 566.57
  L 420.81 560.14
  L 420.58 555.91
  L 420.28 542.15
  L 420.05 541.60
  L 419.50 541.37
  L 419.50 541.37
  L 368.43 541.94
  L 367.49 542.07
  L 366.61 542.43
  L 364.66 543.68
  L 362.28 545.53
  L 269.81 621.54
  L 266.13 624.45
  L 262.85 626.80
  L 259.84 628.69
  L 256.93 630.21
  L 254.08 631.39
  L 251.35 632.19
  L 248.63 632.67
  L 245.83 632.81
  L 242.80 632.57
  L 239.66 631.88
  L 237.20 631.05
  L 234.89 630.03
  L 232.63 628.78
  L 230.54 627.35
  L 227.86 625.05
  L 225.50 622.43
  L 223.43 619.46
  L 221.72 616.23
  L 220.37 612.75
  L 219.40 609.09
  L 218.82 605.26
  L 218.63 601.31
  L 218.66 586.34
  L 218.36 537.67
  L 218.19 537.15
  L 217.74 536.81
  L 210.32 533.95
  L 203.19 530.67
  L 196.35 526.95
  L 189.80 522.81
  L 189.80 522.81
  L 183.32 518.05
  L 177.15 512.83
  L 171.29 507.14
  L 165.75 500.99
  L 160.34 494.03
  L 155.63 486.82
  L 151.61 479.33
  L 148.30 471.59
  L 148.30 471.59
  L 148.30 471.59
  L 146.74 467.14
  L 145.41 462.61
  L 144.29 458.00
  L 143.39 453.30
  L 142.71 448.52
  L 142.24 443.66
  L 142.00 438.72
  L 141.97 433.69
  L 141.97 284.20
  L 141.91 274.69
  L 142.09 268.60
  L 142.58 263.11
  L 143.29 257.73
  L 144.23 252.46
  L 145.41 247.30
  L 146.81 242.25
  L 148.44 237.30
  L 150.31 232.47
  L 152.40 227.74
  L 152.40 227.74
  L 152.40 227.74
  L 154.76 223.04
  L 157.37 218.44
  L 160.21 213.96
  L 163.29 209.60
  L 166.61 205.34
  L 170.17 201.20
  L 173.97 197.17
  L 178.00 193.25
  L 183.21 188.71
  L 188.63 184.58
  L 194.27 180.86
  L 200.12 177.55
  L 200.12 177.55
  L 200.12 177.55
  L 207.83 173.95
  L 215.89 171.00
  L 224.29 168.71
  L 233.03 167.07
  L 239.88 166.22
  L 247.22 165.59
  L 254.76 165.20
  L 262.02 165.07
  L 414.99 165.04
  L 423.51 165.14
  L 430.94 165.44
  L 437.25 165.94
  L 442.47 166.64
  L 449.34 168.06
  L 449.34 168.06
  L 454.41 169.40
  L 459.42 171.00
  L 464.38 172.84
  L 469.27 174.92
  Z
  M 245.75 609.18
  L 247.73 609.06
  L 247.73 609.06
  L 248.86 608.63
  L 249.92 607.93
  L 301.21 565.96
  L 352.75 523.50
  L 353.17 523.15
  L 356.60 520.47
  L 359.46 518.71
  L 362.05 517.69
  L 364.49 517.35
  L 391.57 517.41
  L 419.56 517.24
  L 426.53 516.98
  L 433.14 516.36
  L 439.53 515.36
  L 445.75 513.98
  L 451.63 512.24
  L 457.35 510.11
  L 462.78 507.62
  L 468.04 504.72
  L 472.79 501.63
  L 477.37 498.16
  L 481.72 494.38
  L 485.90 490.20
  L 490.56 484.82
  L 494.67 479.19
  L 498.23 473.32
  L 501.24 467.21
  L 501.24 467.21
  L 501.24 467.21
  L 502.83 463.32
  L 504.20 459.33
  L 505.36 455.26
  L 506.32 451.08
  L 507.06 446.82
  L 507.59 442.47
  L 507.92 438.02
  L 508.03 433.48
  L 508.05 288.58
  L 507.95 273.55
  L 507.67 265.93
  L 506.87 259.69
  L 505.69 253.58
  L 504.16 247.74
  L 502.24 242.06
  L 499.99 236.69
  L 497.35 231.51
  L 494.39 226.63
  L 491.05 221.95
  L 488.55 218.88
  L 485.87 215.92
  L 483.07 213.14
  L 480.10 210.48
  L 474.14 205.76
  L 467.83 201.46
  L 461.40 197.73
  L 454.89 194.59
  L 448.46 192.13
  L 442.14 190.34
  L 436.07 189.28
  L 430.25 188.92
  L 251.50 188.88
  L 247.01 188.99
  L 242.58 189.33
  L 238.10 189.90
  L 233.70 190.70
  L 229.34 191.72
  L 225.06 192.97
  L 220.88 194.42
  L 216.79 196.09
  L 210.80 198.99
  L 205.07 202.34
  L 199.63 206.11
  L 194.50 210.29
  L 189.71 214.85
  L 185.27 219.78
  L 181.22 225.05
  L 177.58 230.66
  L 174.09 237.13
  L 171.14 243.94
  L 168.81 250.95
  L 167.06 258.24
  L 166.48 262.31
  L 166.07 267.60
  L 165.78 281.85
  L 165.93 354.66
  L 166.13 438.77
  L 166.40 444.91
  L 167.15 450.84
  L 168.39 456.70
  L 170.08 462.33
  L 171.99 467.24
  L 174.23 471.95
  L 176.85 476.55
  L 179.78 480.94
  L 183.11 485.23
  L 186.73 489.28
  L 190.70 493.16
  L 194.94 496.80
  L 199.50 500.22
  L 204.30 503.38
  L 209.40 506.30
  L 214.69 508.94
  L 220.19 511.29
  L 225.84 513.33
  L 231.63 515.05
  L 237.52 516.46
  L 239.41 517.17
  L 239.41 517.17
  L 240.73 518.19
  L 241.83 519.60
  L 242.22 520.95
  L 242.76 575.49
  L 242.85 603.26
  L 242.95 605.15
  L 243.30 606.70
  L 243.90 607.91
  L 244.74 608.79
  L 244.79 608.82
  L 245.75 609.18
  Z
  M 453.30 585.51
  L 457.24 591.96
  L 461.63 597.88
  L 466.46 603.26
  L 471.73 608.11
  L 471.73 608.11
  L 477.15 612.21
  L 482.97 615.83
  L 489.18 618.98
  L 495.80 621.64
  L 500.48 623.16
  L 504.78 624.24
  L 508.71 624.90
  L 512.26 625.12
  L 560.79 625.02
  L 563.19 625.18
  L 565.21 625.64
  L 567.18 626.38
  L 569.11 627.43
  L 571.00 628.76
  L 629.28 675.16
  L 681.69 717.14
  L 682.34 717.33
  L 682.92 716.99
  L 682.94 716.97
  L 683.02 716.00
  L 682.92 638.37
  L 682.91 637.00
  L 683.04 632.66
  L 683.31 631.21
  L 683.79 629.86
  L 684.69 628.38
  L 686.04 626.90
  L 686.94 626.31
  L 687.99 626.06
  L 695.06 625.25
  L 702.54 623.78
  L 707.59 622.42
  L 712.54 620.73
  L 717.36 618.74
  L 722.04 616.44
  L 726.55 613.85
  L 730.88 610.98
  L 735.00 607.84
  L 738.90 604.43
  L 742.52 600.83
  L 745.88 596.98
  L 748.91 592.99
  L 751.66 588.80
  L 754.06 584.51
  L 756.15 580.03
  L 757.90 575.48
  L 759.33 570.77
  L 759.81 568.81
  L 760.39 565.66
  L 760.81 561.91
  L 761.15 552.62
  L 760.86 379.25
  L 760.92 372.39
  L 760.32 367.87
  L 759.44 363.45
  L 758.27 359.05
  L 756.83 354.78
  L 755.08 350.52
  L 753.06 346.40
  L 750.73 342.35
  L 748.15 338.48
  L 745.31 334.78
  L 742.24 331.27
  L 738.95 327.96
  L 735.45 324.86
  L 731.74 321.98
  L 727.85 319.33
  L 723.78 316.92
  L 719.55 314.76
  L 715.18 312.86
  L 710.67 311.23
  L 706.13 309.91
  L 701.48 308.85
  L 696.75 308.14
  L 690.91 307.64
  L 683.95 307.34
  L 675.89 307.26
  L 532.45 307.32
  L 532.16 307.44
  L 532.04 307.73
  L 532.08 424.94
  L 532.01 437.89
  L 531.72 444.46
  L 530.99 449.69
  L 530.05 454.81
  L 528.90 459.82
  L 527.53 464.71
  L 525.96 469.49
  L 524.17 474.16
  L 522.16 478.71
  L 519.94 483.16
  L 519.94 483.16
  L 519.94 483.16
  L 519.94 483.16
  L 519.94 483.16
  L 519.94 483.16
  L 516.71 488.81
  L 513.12 494.27
  L 509.16 499.54
  L 504.83 504.61
  L 500.13 509.51
  L 495.20 514.07
  L 490.04 518.30
  L 484.66 522.20
  L 484.66 522.20
  L 480.19 525.09
  L 475.57 527.76
  L 470.81 530.21
  L 465.90 532.46
  L 460.85 534.49
  L 455.66 536.31
  L 450.32 537.92
  L 444.83 539.31
  L 444.49 539.52
  L 444.35 539.89
  L 444.19 545.63
  L 444.29 551.08
  L 444.64 556.24
  L 445.23 561.12
  L 446.09 565.91
  L 447.20 570.44
  L 448.57 574.85
  L 450.26 579.22
  L 453.30 585.51
  Z"
/>
<path d="
  M 412.48 425.83
  L 425.96 439.60
  L 427.26 441.19
  L 428.25 442.84
  L 428.97 444.60
  L 429.38 446.38
  L 429.46 449.15
  L 428.85 452.00
  L 427.59 454.69
  L 425.78 457.05
  L 423.53 458.97
  L 420.94 460.37
  L 418.15 461.11
  L 415.42 461.16
  L 413.41 460.75
  L 411.40 459.95
  L 409.54 458.79
  L 407.74 457.21
  L 397.11 446.30
  L 389.96 438.67
  L 389.54 438.45
  L 389.08 438.55
  L 380.23 443.72
  L 376.14 445.81
  L 371.97 447.72
  L 371.97 447.72
  L 371.97 447.72
  L 364.31 450.65
  L 356.39 452.99
  L 348.20 454.71
  L 339.76 455.83
  L 327.40 456.01
  L 323.31 455.90
  L 319.04 455.54
  L 314.81 454.96
  L 310.42 454.12
  L 306.03 453.06
  L 301.50 451.75
  L 292.10 448.39
  L 284.38 444.91
  L 277.16 440.87
  L 270.45 436.28
  L 264.24 431.14
  L 259.10 426.06
  L 254.37 420.54
  L 250.04 414.58
  L 246.12 408.17
  L 243.01 402.24
  L 240.27 396.19
  L 237.91 390.04
  L 235.92 383.79
  L 235.92 383.79
  L 235.92 383.79
  L 234.43 377.94
  L 233.25 371.99
  L 232.39 365.96
  L 231.85 359.83
  L 231.86 346.44
  L 232.24 339.67
  L 233.09 332.97
  L 234.42 326.24
  L 236.21 319.62
  L 238.47 312.99
  L 241.17 306.52
  L 244.33 300.13
  L 247.90 293.95
  L 252.27 287.46
  L 257.03 281.46
  L 262.20 275.93
  L 267.77 270.89
  L 267.77 270.89
  L 273.57 266.44
  L 279.76 262.45
  L 286.32 258.92
  L 293.26 255.84
  L 301.45 252.94
  L 309.68 250.77
  L 317.93 249.34
  L 326.21 248.64
  L 326.21 248.64
  L 326.21 248.64
  L 326.21 248.64
  L 326.21 248.64
  L 333.74 248.64
  L 341.30 249.25
  L 348.88 250.46
  L 356.49 252.28
  L 360.72 253.57
  L 364.92 255.08
  L 369.07 256.80
  L 373.19 258.75
  L 377.28 260.90
  L 381.32 263.28
  L 385.33 265.87
  L 389.30 268.68
  L 395.21 273.39
  L 400.62 278.41
  L 405.63 283.82
  L 410.15 289.53
  L 414.93 296.75
  L 419.01 304.33
  L 422.47 312.38
  L 425.23 320.75
  L 427.34 329.59
  L 428.75 338.68
  L 429.47 348.13
  L 429.50 357.76
  L 429.19 363.19
  L 428.62 368.53
  L 427.77 373.86
  L 426.66 379.09
  L 425.26 384.33
  L 423.60 389.48
  L 421.65 394.62
  L 419.43 399.67
  L 416.93 404.67
  L 414.18 409.58
  L 411.12 414.48
  L 407.81 419.31
  L 407.55 420.23
  L 407.94 421.10
  L 412.48 425.83
  Z
  M 274.87 403.74
  L 277.33 407.21
  L 280.05 410.21
  L 285.08 414.64
  L 290.46 418.52
  L 290.46 418.52
  L 295.20 421.33
  L 300.19 423.76
  L 305.43 425.81
  L 310.91 427.48
  L 317.13 428.70
  L 324.12 429.28
  L 331.01 429.32
  L 337.61 428.95
  L 343.78 428.17
  L 349.59 426.97
  L 354.97 425.38
  L 359.95 423.37
  L 364.47 420.98
  L 368.54 418.22
  L 368.57 418.19
  L 368.81 417.69
  L 368.61 417.16
  L 342.07 389.97
  L 340.11 387.84
  L 338.76 386.09
  L 337.83 384.49
  L 337.23 382.82
  L 336.97 380.31
  L 337.38 377.34
  L 338.37 374.36
  L 339.83 371.81
  L 341.72 369.73
  L 344.00 368.18
  L 345.73 367.48
  L 347.61 367.05
  L 349.51 366.93
  L 351.52 367.09
  L 353.25 367.52
  L 354.96 368.31
  L 356.65 369.46
  L 358.32 370.96
  L 387.15 400.32
  L 387.52 400.50
  L 387.92 400.40
  L 389.07 399.42
  L 389.90 398.26
  L 389.90 398.26
  L 390.34 397.13
  L 392.53 393.60
  L 394.51 389.98
  L 396.28 386.29
  L 397.84 382.52
  L 397.84 382.52
  L 397.84 382.52
  L 397.84 382.52
  L 399.19 378.65
  L 400.33 374.71
  L 401.26 370.68
  L 401.98 366.58
  L 402.64 360.94
  L 402.99 355.12
  L 403.01 349.13
  L 402.71 342.96
  L 401.94 336.43
  L 400.62 330.14
  L 398.73 323.99
  L 396.32 318.11
  L 392.95 311.74
  L 388.96 305.77
  L 384.31 300.17
  L 379.11 295.04
  L 373.37 290.40
  L 367.15 286.28
  L 360.47 282.73
  L 353.39 279.75
  L 346.37 277.56
  L 339.23 276.10
  L 332.02 275.38
  L 324.81 275.41
  L 317.71 276.18
  L 310.72 277.69
  L 304.02 279.92
  L 297.54 282.89
  L 294.15 284.79
  L 290.86 286.92
  L 285.89 290.64
  L 281.37 294.65
  L 277.19 299.01
  L 273.46 303.63
  L 271.16 306.92
  L 269.07 310.31
  L 267.13 313.89
  L 265.39 317.56
  L 263.86 321.33
  L 262.53 325.18
  L 261.37 329.20
  L 260.42 333.29
  L 259.67 337.48
  L 259.12 341.73
  L 258.77 346.12
  L 258.62 350.57
  L 258.68 355.07
  L 258.95 359.61
  L 260.07 368.73
  L 260.91 373.10
  L 261.98 377.37
  L 263.27 381.56
  L 264.78 385.66
  L 264.78 385.66
  L 264.78 385.66
  L 266.84 390.36
  L 269.21 394.95
  L 271.89 399.40
  L 274.87 403.74
  Z"
/>
<path d="
  M 665.80 508.70
  L 665.43 508.25
  L 664.87 508.08
  L 580.76 508.08
  L 580.32 508.21
  L 580.03 508.57
  L 561.10 556.06
  L 559.84 558.44
  L 558.01 560.66
  L 555.81 562.49
  L 553.54 563.67
  L 551.09 564.40
  L 548.75 564.76
  L 546.52 564.73
  L 544.40 564.32
  L 544.40 564.32
  L 544.40 564.32
  L 542.29 563.47
  L 540.31 562.21
  L 538.46 560.53
  L 536.72 558.43
  L 535.43 556.23
  L 534.68 553.92
  L 534.68 553.92
  L 534.68 553.92
  L 534.46 552.16
  L 534.53 550.33
  L 534.89 548.45
  L 535.53 546.51
  L 574.22 449.66
  L 600.32 384.79
  L 600.83 382.67
  L 601.10 379.19
  L 601.33 376.11
  L 601.70 374.14
  L 602.82 371.13
  L 604.23 368.55
  L 605.95 366.39
  L 607.96 364.64
  L 607.96 364.64
  L 607.96 364.64
  L 607.96 364.64
  L 609.61 363.64
  L 611.41 362.87
  L 613.38 362.31
  L 615.50 361.98
  L 621.26 361.74
  L 626.48 362.22
  L 629.98 363.18
  L 631.55 363.92
  L 633.01 364.81
  L 633.01 364.81
  L 634.78 366.28
  L 636.35 368.05
  L 637.70 370.11
  L 638.84 372.48
  L 672.29 453.23
  L 707.61 537.88
  L 708.75 540.53
  L 711.23 546.76
  L 711.80 549.00
  L 712.01 550.94
  L 711.89 553.16
  L 711.46 555.25
  L 710.69 557.27
  L 709.64 559.10
  L 708.30 560.75
  L 706.73 562.16
  L 704.96 563.32
  L 703.01 564.18
  L 700.94 564.74
  L 698.76 564.98
  L 696.61 564.90
  L 694.41 564.48
  L 692.52 563.80
  L 690.04 562.23
  L 687.81 559.92
  L 685.77 556.80
  L 683.85 552.74
  L 665.80 508.70
  Z
  M 622.84 404.41
  L 622.33 403.98
  L 621.68 404.12
  L 621.45 404.43
  L 590.83 480.97
  L 590.81 481.48
  L 591.13 481.89
  L 591.53 482.00
  L 654.66 482.00
  L 655.03 481.90
  L 655.31 481.62
  L 655.35 480.96
  L 622.84 404.41
  Z"
/>
</g>
<g fill="#4e2fea">
<path d="
  M 469.27 174.92
  L 464.38 172.84
  L 459.42 171.00
  L 454.41 169.40
  L 449.34 168.06
  L 449.34 168.06
  L 442.47 166.64
  L 437.25 165.94
  L 430.94 165.44
  L 423.51 165.14
  L 414.99 165.04
  L 262.02 165.07
  L 254.76 165.20
  L 247.22 165.59
  L 239.88 166.22
  L 233.03 167.07
  L 224.29 168.71
  L 215.89 171.00
  L 207.83 173.95
  L 200.12 177.55
  L 200.12 177.55
  L 200.12 177.55
  L 200.12 177.55
  L 194.27 180.86
  L 188.63 184.58
  L 183.21 188.71
  L 178.00 193.25
  L 173.97 197.17
  L 170.17 201.20
  L 166.61 205.34
  L 163.29 209.60
  L 160.21 213.96
  L 157.37 218.44
  L 154.76 223.04
  L 152.40 227.74
  L 152.40 227.74
  L 152.40 227.74
  L 150.31 232.47
  L 148.44 237.30
  L 146.81 242.25
  L 145.41 247.30
  L 144.23 252.46
  L 143.29 257.73
  L 142.58 263.11
  L 142.09 268.60
  L 141.91 274.69
  L 141.97 284.20
  L 141.64 292.47
  L 141.62 292.48
  L 141.61 292.47
  L 141.06 289.87
  L 140.73 286.65
  L 140.61 282.79
  L 140.70 278.31
  L 141.51 267.47
  L 143.17 254.12
  L 143.39 252.64
  L 144.44 247.16
  L 145.84 241.73
  L 147.58 236.36
  L 149.67 231.04
  L 152.10 225.78
  L 154.87 220.57
  L 157.99 215.42
  L 161.46 210.32
  L 164.92 205.98
  L 167.10 203.32
  L 169.61 200.25
  L 174.37 195.34
  L 174.37 195.34
  L 178.81 191.21
  L 183.47 187.31
  L 188.35 183.62
  L 193.44 180.15
  L 197.89 177.47
  L 202.48 175.08
  L 207.35 172.90
  L 212.34 171.01
  L 217.56 169.36
  L 223.08 167.93
  L 228.67 166.79
  L 234.53 165.88
  L 241.45 165.12
  L 248.93 164.56
  L 256.83 164.22
  L 264.68 164.12
  L 412.13 164.06
  L 421.66 164.12
  L 429.62 164.35
  L 436.00 164.77
  L 440.82 165.36
  L 446.49 166.46
  L 452.07 167.79
  L 457.58 169.35
  L 462.99 171.15
  L 462.99 171.15
  L 462.99 171.15
  L 468.61 173.30
  L 469.10 173.72
  L 469.34 174.51
  L 469.27 174.92
  Z"
/>
<path d="
  M 244.79 608.82
  L 244.74 608.79
  L 243.90 607.91
  L 243.30 606.70
  L 242.95 605.15
  L 242.85 603.26
  L 242.76 575.49
  L 242.22 520.95
  L 241.83 519.60
  L 240.73 518.19
  L 239.41 517.17
  L 237.52 516.46
  L 231.63 515.05
  L 225.84 513.33
  L 220.19 511.29
  L 214.69 508.94
  L 209.40 506.30
  L 204.30 503.38
  L 199.50 500.22
  L 194.94 496.80
  L 190.70 493.16
  L 186.73 489.28
  L 183.11 485.23
  L 179.78 480.94
  L 176.85 476.55
  L 174.23 471.95
  L 171.99 467.24
  L 170.08 462.33
  L 168.39 456.70
  L 167.15 450.84
  L 166.40 444.91
  L 166.13 438.77
  L 165.93 354.66
  L 165.78 281.85
  L 166.07 267.60
  L 166.48 262.31
  L 167.06 258.24
  L 168.81 250.95
  L 171.14 243.94
  L 174.09 237.13
  L 177.58 230.66
  L 181.22 225.05
  L 185.27 219.78
  L 189.71 214.85
  L 194.50 210.29
  L 199.63 206.11
  L 205.07 202.34
  L 210.80 198.99
  L 216.79 196.09
  L 220.88 194.42
  L 225.06 192.97
  L 229.34 191.72
  L 233.70 190.70
  L 238.10 189.90
  L 242.58 189.33
  L 247.01 188.99
  L 251.50 188.88
  L 430.25 188.92
  L 436.07 189.28
  L 442.14 190.34
  L 448.46 192.13
  L 454.89 194.59
  L 461.40 197.73
  L 467.83 201.46
  L 474.14 205.76
  L 480.10 210.48
  L 483.07 213.14
  L 485.87 215.92
  L 488.55 218.88
  L 491.05 221.95
  L 494.39 226.63
  L 497.35 231.51
  L 499.99 236.69
  L 502.24 242.06
  L 504.16 247.74
  L 505.69 253.58
  L 506.87 259.69
  L 507.67 265.93
  L 507.95 273.55
  L 508.05 288.58
  L 508.03 433.48
  L 507.92 438.02
  L 507.59 442.47
  L 507.06 446.82
  L 506.32 451.08
  L 505.36 455.26
  L 504.20 459.33
  L 502.83 463.32
  L 501.24 467.21
  L 501.24 467.21
  L 501.24 467.21
  L 501.24 467.21
  L 501.24 467.21
  L 498.23 473.32
  L 494.67 479.19
  L 490.56 484.82
  L 485.90 490.20
  L 481.72 494.38
  L 477.37 498.16
  L 472.79 501.63
  L 468.04 504.72
  L 462.78 507.62
  L 457.35 510.11
  L 451.63 512.24
  L 445.75 513.98
  L 439.53 515.36
  L 433.14 516.36
  L 426.53 516.98
  L 419.56 517.24
  L 391.57 517.41
  L 364.49 517.35
  L 362.05 517.69
  L 359.46 518.71
  L 356.60 520.47
  L 353.17 523.15
  L 352.75 523.50
  L 301.21 565.96
  L 249.92 607.93
  L 248.86 608.63
  L 247.73 609.06
  L 245.75 609.18
  L 244.79 608.82
  Z
  M 246.74 607.99
  L 248.62 607.49
  L 248.97 607.32
  L 253.42 603.84
  L 256.64 601.15
  L 258.76 599.26
  L 260.57 597.93
  L 263.77 595.41
  L 299.50 565.77
  L 323.27 546.06
  L 329.52 541.11
  L 335.55 536.30
  L 345.54 527.88
  L 354.80 520.56
  L 357.78 518.65
  L 360.94 517.30
  L 360.94 517.30
  L 363.76 516.59
  L 366.72 516.29
  L 377.34 516.14
  L 392.66 516.27
  L 410.82 516.40
  L 423.77 516.11
  L 424.99 516.05
  L 430.54 515.60
  L 436.07 514.87
  L 441.59 513.85
  L 447.09 512.55
  L 451.75 511.13
  L 456.66 509.24
  L 461.84 506.89
  L 467.27 504.06
  L 474.15 499.32
  L 480.70 494.19
  L 484.06 490.83
  L 488.08 486.22
  L 491.64 481.68
  L 494.50 477.48
  L 498.47 470.43
  L 501.69 463.25
  L 504.15 455.94
  L 505.86 448.49
  L 505.86 448.49
  L 505.86 448.49
  L 506.74 441.91
  L 507.05 435.24
  L 507.14 277.00
  L 506.97 270.80
  L 506.47 264.68
  L 505.63 258.63
  L 504.45 252.66
  L 504.45 252.66
  L 504.45 252.66
  L 503.66 249.43
  L 502.38 245.16
  L 500.72 240.78
  L 498.64 236.15
  L 496.16 231.32
  L 493.30 226.59
  L 489.92 221.98
  L 486.10 217.60
  L 481.79 213.37
  L 476.98 209.30
  L 471.72 205.41
  L 465.92 201.65
  L 459.68 198.08
  L 455.90 196.18
  L 452.06 194.52
  L 448.15 193.09
  L 444.18 191.90
  L 444.18 191.90
  L 444.18 191.90
  L 441.49 191.23
  L 437.91 190.59
  L 433.58 190.14
  L 428.50 189.87
  L 422.67 189.79
  L 259.51 189.75
  L 252.17 189.83
  L 245.78 190.12
  L 240.33 190.60
  L 235.84 191.28
  L 228.37 193.05
  L 221.22 195.37
  L 214.40 198.25
  L 207.91 201.69
  L 207.91 201.69
  L 203.50 204.47
  L 199.25 207.53
  L 194.64 211.33
  L 190.38 215.38
  L 186.46 219.68
  L 182.88 224.22
  L 182.88 224.22
  L 182.88 224.22
  L 180.31 227.97
  L 177.94 231.87
  L 175.79 235.92
  L 173.85 240.12
  L 172.12 244.48
  L 170.60 248.99
  L 169.29 253.66
  L 168.19 258.48
  L 167.19 264.92
  L 166.85 270.22
  L 167.09 319.59
  L 167.14 388.92
  L 167.11 418.79
  L 167.33 437.61
  L 167.67 444.09
  L 168.15 448.63
  L 169.21 454.13
  L 170.64 459.42
  L 172.45 464.60
  L 174.61 469.55
  L 178.19 476.10
  L 182.51 482.37
  L 187.41 488.16
  L 193.02 493.61
  L 199.28 498.63
  L 206.05 503.13
  L 213.41 507.18
  L 221.20 510.67
  L 225.74 512.25
  L 232.36 514.06
  L 238.36 515.68
  L 240.28 516.51
  L 241.76 517.74
  L 241.76 517.74
  L 242.49 518.79
  L 243.02 520.01
  L 243.35 521.41
  L 243.47 522.98
  L 243.92 573.33
  L 243.79 600.88
  L 243.78 601.18
  L 243.78 601.18
  L 243.98 603.99
  L 244.62 606.81
  L 244.93 607.40
  L 245.44 607.83
  L 246.08 608.04
  L 246.74 607.99
  Z"
/>
<path d="
  M 752.78 308.72
  L 749.43 305.81
  L 745.94 303.08
  L 742.24 300.47
  L 738.41 298.04
  L 734.45 295.78
  L 730.39 293.71
  L 726.14 291.79
  L 721.80 290.06
  L 717.33 288.51
  L 712.80 287.17
  L 708.21 286.02
  L 703.58 285.08
  L 698.88 284.34
  L 694.16 283.81
  L 689.44 283.49
  L 684.73 283.38
  L 532.66 283.47
  L 532.66 283.47
  L 532.29 283.31
  L 532.14 282.94
  L 532.09 275.34
  L 531.82 267.89
  L 531.15 259.86
  L 529.93 252.01
  L 528.17 244.36
  L 525.87 236.90
  L 525.87 236.90
  L 525.87 236.90
  L 525.87 236.90
  L 523.94 231.80
  L 521.75 226.79
  L 519.29 221.87
  L 516.56 217.05
  L 516.54 216.43
  L 516.70 216.11
  L 516.74 216.09
  L 516.88 216.05
  L 516.88 216.05
  L 517.33 216.25
  L 517.82 216.91
  L 522.88 226.40
  L 525.07 231.21
  L 527.01 236.31
  L 529.34 243.94
  L 529.34 243.94
  L 529.34 243.94
  L 530.51 248.86
  L 531.46 253.83
  L 532.18 258.86
  L 532.66 263.96
  L 533.18 273.42
  L 533.30 281.51
  L 533.45 281.91
  L 533.83 282.10
  L 540.16 282.37
  L 549.19 282.15
  L 559.03 281.91
  L 688.15 281.91
  L 694.27 282.54
  L 705.20 284.41
  L 713.40 286.27
  L 721.38 288.76
  L 728.54 291.62
  L 735.51 295.00
  L 741.98 298.68
  L 746.83 302.07
  L 748.80 303.75
  L 750.42 305.40
  L 751.74 307.03
  L 752.78 308.72
  Z"
/>
<path d="
  M 412.48 425.83
  L 407.94 421.10
  L 407.55 420.23
  L 407.81 419.31
  L 411.12 414.48
  L 414.18 409.58
  L 416.93 404.67
  L 419.43 399.67
  L 421.65 394.62
  L 423.60 389.48
  L 425.26 384.33
  L 426.66 379.09
  L 427.77 373.86
  L 428.62 368.53
  L 429.19 363.19
  L 429.50 357.76
  L 429.47 348.13
  L 428.75 338.68
  L 427.34 329.59
  L 425.23 320.75
  L 422.47 312.38
  L 419.01 304.33
  L 414.93 296.75
  L 410.15 289.53
  L 405.63 283.82
  L 400.62 278.41
  L 395.21 273.39
  L 389.30 268.68
  L 385.33 265.87
  L 381.32 263.28
  L 377.28 260.90
  L 373.19 258.75
  L 369.07 256.80
  L 364.92 255.08
  L 360.72 253.57
  L 356.49 252.28
  L 348.88 250.46
  L 341.30 249.25
  L 333.74 248.64
  L 326.21 248.64
  L 326.21 248.64
  L 317.93 249.34
  L 309.68 250.77
  L 301.45 252.94
  L 293.26 255.84
  L 286.32 258.92
  L 279.76 262.45
  L 273.57 266.44
  L 267.77 270.89
  L 267.77 270.89
  L 267.77 270.89
  L 267.77 270.89
  L 262.20 275.93
  L 257.03 281.46
  L 252.27 287.46
  L 247.90 293.95
  L 244.33 300.13
  L 241.17 306.52
  L 238.47 312.99
  L 236.21 319.62
  L 234.42 326.24
  L 233.09 332.97
  L 232.24 339.67
  L 231.86 346.44
  L 231.85 359.83
  L 232.39 365.96
  L 233.25 371.99
  L 234.43 377.94
  L 235.92 383.79
  L 235.92 383.79
  L 235.92 383.79
  L 235.92 383.79
  L 237.91 390.04
  L 240.27 396.19
  L 243.01 402.24
  L 246.12 408.17
  L 250.04 414.58
  L 254.37 420.54
  L 259.10 426.06
  L 264.24 431.14
  L 264.24 431.14
  L 264.24 431.14
  L 270.45 436.28
  L 277.16 440.87
  L 284.38 444.91
  L 292.10 448.39
  L 301.50 451.75
  L 306.03 453.06
  L 310.42 454.12
  L 314.81 454.96
  L 319.04 455.54
  L 323.31 455.90
  L 327.40 456.01
  L 339.76 455.83
  L 348.20 454.71
  L 356.39 452.99
  L 364.31 450.65
  L 371.97 447.72
  L 376.14 445.81
  L 380.23 443.72
  L 389.08 438.55
  L 389.54 438.45
  L 389.96 438.67
  L 397.11 446.30
  L 407.74 457.21
  L 409.54 458.79
  L 411.40 459.95
  L 413.41 460.75
  L 415.42 461.16
  L 418.15 461.11
  L 420.94 460.37
  L 423.53 458.97
  L 425.78 457.05
  L 427.59 454.69
  L 428.85 452.00
  L 429.46 449.15
  L 429.38 446.38
  L 428.97 444.60
  L 428.25 442.84
  L 427.26 441.19
  L 425.96 439.60
  L 425.94 439.08
  L 426.01 439.02
  L 426.33 438.92
  L 426.64 439.06
  L 428.25 440.82
  L 429.43 442.80
  L 430.14 444.70
  L 430.50 446.72
  L 430.53 448.81
  L 430.22 450.95
  L 429.71 452.80
  L 429.01 454.50
  L 428.14 456.03
  L 427.08 457.41
  L 427.08 457.41
  L 427.08 457.41
  L 425.83 458.65
  L 424.38 459.72
  L 422.75 460.63
  L 420.93 461.37
  L 417.74 462.11
  L 414.63 462.11
  L 412.08 461.53
  L 410.43 460.79
  L 408.68 459.65
  L 406.84 458.12
  L 404.91 456.20
  L 389.91 440.17
  L 389.13 439.78
  L 388.29 439.99
  L 387.20 440.71
  L 387.20 440.71
  L 381.21 444.32
  L 374.94 447.50
  L 368.39 450.25
  L 361.56 452.58
  L 355.09 454.33
  L 347.77 455.93
  L 342.34 456.68
  L 336.18 456.93
  L 332.69 456.95
  L 322.14 456.84
  L 318.24 456.55
  L 314.73 456.06
  L 308.26 454.72
  L 301.88 453.02
  L 295.53 450.94
  L 289.45 448.56
  L 283.70 445.89
  L 278.34 442.99
  L 273.32 439.81
  L 268.78 436.44
  L 264.05 432.39
  L 259.64 428.10
  L 255.55 423.58
  L 251.77 418.83
  L 251.77 418.83
  L 251.77 418.83
  L 248.61 414.32
  L 245.72 409.62
  L 243.08 404.72
  L 240.70 399.64
  L 238.22 393.55
  L 236.08 387.46
  L 234.28 381.38
  L 232.82 375.30
  L 231.70 369.22
  L 230.91 363.14
  L 230.46 357.07
  L 230.35 351.01
  L 230.35 351.01
  L 230.35 351.01
  L 230.35 351.01
  L 230.35 351.01
  L 230.50 346.28
  L 230.86 341.55
  L 231.42 336.83
  L 232.19 332.11
  L 233.16 327.39
  L 234.34 322.67
  L 237.31 313.24
  L 239.02 308.79
  L 240.88 304.48
  L 242.92 300.31
  L 245.11 296.27
  L 247.47 292.38
  L 249.98 288.63
  L 252.67 285.02
  L 255.51 281.54
  L 255.51 281.54
  L 255.51 281.54
  L 255.51 281.54
  L 259.97 276.71
  L 264.79 272.17
  L 269.95 267.94
  L 275.46 264.00
  L 281.14 260.49
  L 286.98 257.40
  L 293.07 254.69
  L 299.29 252.42
  L 304.47 250.88
  L 309.72 249.63
  L 315.04 248.68
  L 320.41 248.02
  L 325.83 247.65
  L 331.29 247.57
  L 336.78 247.79
  L 342.29 248.30
  L 347.20 249.02
  L 352.06 249.99
  L 356.95 251.25
  L 361.77 252.75
  L 366.54 254.52
  L 371.21 256.52
  L 375.78 258.76
  L 380.23 261.22
  L 384.61 263.94
  L 388.85 266.87
  L 392.94 270.00
  L 396.87 273.33
  L 400.62 276.85
  L 404.20 280.56
  L 407.59 284.43
  L 410.77 288.47
  L 413.87 292.85
  L 416.71 297.37
  L 416.71 297.37
  L 416.71 297.37
  L 418.90 301.28
  L 420.91 305.29
  L 422.75 309.40
  L 424.41 313.61
  L 427.21 322.36
  L 429.30 331.52
  L 429.88 335.56
  L 429.99 339.06
  L 430.40 343.79
  L 430.92 349.09
  L 430.93 354.46
  L 430.63 360.08
  L 430.03 365.97
  L 429.12 372.12
  L 427.62 379.49
  L 425.66 386.63
  L 423.26 393.46
  L 420.40 400.09
  L 417.43 405.84
  L 414.08 411.44
  L 409.08 419.23
  L 408.86 419.77
  L 408.84 420.36
  L 409.02 420.91
  L 409.39 421.37
  L 412.81 424.54
  L 413.03 424.85
  L 413.11 425.37
  L 413.04 425.59
  L 412.48 425.83
  Z"
/>
<path d="
  M 390.34 397.13
  L 392.64 391.16
  L 393.89 388.45
  L 396.43 383.06
  L 397.71 379.90
  L 399.53 373.46
  L 400.77 367.00
  L 401.01 365.26
  L 401.63 359.45
  L 401.93 353.59
  L 401.92 347.70
  L 401.60 341.76
  L 400.88 335.80
  L 399.69 330.05
  L 398.03 324.52
  L 395.90 319.20
  L 395.90 319.20
  L 395.90 319.20
  L 395.90 319.20
  L 395.90 319.20
  L 394.20 315.74
  L 392.29 312.37
  L 390.16 309.10
  L 387.82 305.92
  L 384.79 302.25
  L 381.77 298.96
  L 378.76 296.05
  L 375.75 293.52
  L 370.57 289.78
  L 365.23 286.47
  L 359.72 283.60
  L 354.05 281.15
  L 354.05 281.15
  L 354.05 281.15
  L 354.05 281.15
  L 349.26 279.47
  L 344.37 278.08
  L 339.74 277.17
  L 334.77 276.67
  L 329.22 276.55
  L 321.78 276.76
  L 317.85 277.12
  L 313.90 277.89
  L 306.19 279.92
  L 301.95 281.77
  L 297.90 283.80
  L 294.06 286.00
  L 290.41 288.39
  L 286.92 290.99
  L 283.64 293.75
  L 280.56 296.69
  L 277.69 299.80
  L 274.39 303.91
  L 271.42 308.26
  L 268.76 312.85
  L 266.43 317.68
  L 264.41 322.77
  L 262.72 328.08
  L 261.36 333.60
  L 260.33 339.32
  L 260.32 339.41
  L 259.83 344.78
  L 259.82 352.24
  L 259.88 358.06
  L 260.00 360.10
  L 260.38 362.70
  L 260.79 365.74
  L 261.08 368.76
  L 261.60 371.47
  L 263.62 378.84
  L 265.93 385.67
  L 267.45 388.94
  L 270.46 394.66
  L 272.75 399.13
  L 274.87 403.74
  L 271.89 399.40
  L 269.21 394.95
  L 266.84 390.36
  L 264.78 385.66
  L 264.78 385.66
  L 263.27 381.56
  L 261.98 377.37
  L 260.91 373.10
  L 260.07 368.73
  L 258.95 359.61
  L 258.68 355.07
  L 258.62 350.57
  L 258.77 346.12
  L 259.12 341.73
  L 259.67 337.48
  L 260.42 333.29
  L 261.37 329.20
  L 262.53 325.18
  L 263.86 321.33
  L 265.39 317.56
  L 267.13 313.89
  L 269.07 310.31
  L 271.16 306.92
  L 273.46 303.63
  L 277.19 299.01
  L 281.37 294.65
  L 285.89 290.64
  L 290.86 286.92
  L 294.15 284.79
  L 297.54 282.89
  L 304.02 279.92
  L 310.72 277.69
  L 317.71 276.18
  L 324.81 275.41
  L 332.02 275.38
  L 339.23 276.10
  L 346.37 277.56
  L 353.39 279.75
  L 360.47 282.73
  L 367.15 286.28
  L 373.37 290.40
  L 379.11 295.04
  L 384.31 300.17
  L 388.96 305.77
  L 392.95 311.74
  L 396.32 318.11
  L 398.73 323.99
  L 400.62 330.14
  L 401.94 336.43
  L 402.71 342.96
  L 403.01 349.13
  L 402.99 355.12
  L 402.64 360.94
  L 401.98 366.58
  L 401.26 370.68
  L 400.33 374.71
  L 399.19 378.65
  L 397.84 382.52
  L 397.84 382.52
  L 397.84 382.52
  L 397.84 382.52
  L 396.28 386.29
  L 394.51 389.98
  L 392.53 393.60
  L 390.34 397.13
  Z"
/>
<path d="
  M 760.92 372.39
  L 760.82 378.78
  L 760.57 379.03
  L 760.56 379.03
  L 760.29 378.79
  L 759.93 374.74
  L 759.34 368.39
  L 758.65 364.06
  L 757.78 360.49
  L 756.69 356.92
  L 755.42 353.48
  L 753.94 350.10
  L 752.31 346.89
  L 750.50 343.79
  L 748.56 340.90
  L 746.45 338.16
  L 741.63 332.39
  L 736.46 327.41
  L 731.01 323.00
  L 725.28 319.18
  L 719.27 315.93
  L 719.27 315.93
  L 719.27 315.93
  L 715.06 314.07
  L 710.73 312.47
  L 706.27 311.14
  L 701.68 310.07
  L 697.65 309.47
  L 692.40 309.05
  L 685.92 308.82
  L 678.21 308.76
  L 599.25 308.90
  L 534.03 308.64
  L 533.50 308.86
  L 533.29 309.38
  L 533.29 309.38
  L 533.41 324.92
  L 533.50 347.75
  L 533.32 428.25
  L 533.22 437.40
  L 532.86 443.50
  L 532.16 448.91
  L 531.23 454.19
  L 530.08 459.36
  L 528.70 464.40
  L 527.10 469.33
  L 525.27 474.14
  L 523.22 478.82
  L 520.94 483.39
  L 520.94 483.39
  L 516.45 491.03
  L 511.28 498.30
  L 508.14 502.17
  L 504.84 505.89
  L 501.39 509.48
  L 497.79 512.91
  L 494.04 516.19
  L 490.16 519.31
  L 486.15 522.26
  L 482.02 525.03
  L 477.84 527.58
  L 473.56 529.95
  L 469.18 532.13
  L 464.70 534.11
  L 460.17 535.88
  L 455.56 537.45
  L 450.98 538.79
  L 446.33 539.91
  L 445.63 540.34
  L 445.36 541.11
  L 445.66 553.21
  L 445.99 557.63
  L 446.54 561.92
  L 447.32 566.09
  L 448.34 570.18
  L 449.52 573.95
  L 450.92 577.68
  L 452.54 581.39
  L 454.40 585.09
  L 454.39 585.53
  L 454.02 585.77
  L 453.82 585.73
  L 453.30 585.51
  L 450.26 579.22
  L 448.57 574.85
  L 447.20 570.44
  L 446.09 565.91
  L 445.23 561.12
  L 444.64 556.24
  L 444.29 551.08
  L 444.19 545.63
  L 444.35 539.89
  L 444.49 539.52
  L 444.83 539.31
  L 450.32 537.92
  L 455.66 536.31
  L 460.85 534.49
  L 465.90 532.46
  L 470.81 530.21
  L 475.57 527.76
  L 480.19 525.09
  L 484.66 522.20
  L 484.66 522.20
  L 484.66 522.20
  L 484.66 522.20
  L 490.04 518.30
  L 495.20 514.07
  L 500.13 509.51
  L 504.83 504.61
  L 509.16 499.54
  L 513.12 494.27
  L 516.71 488.81
  L 519.94 483.16
  L 519.94 483.16
  L 519.94 483.16
  L 519.94 483.16
  L 522.16 478.71
  L 524.17 474.16
  L 525.96 469.49
  L 527.53 464.71
  L 528.90 459.82
  L 530.05 454.81
  L 530.99 449.69
  L 531.72 444.46
  L 532.01 437.89
  L 532.08 424.94
  L 532.04 307.73
  L 532.08 307.56
  L 532.45 307.32
  L 675.89 307.26
  L 683.95 307.34
  L 690.91 307.64
  L 696.75 308.14
  L 701.48 308.85
  L 706.13 309.91
  L 710.67 311.23
  L 715.18 312.86
  L 719.55 314.76
  L 723.78 316.92
  L 727.85 319.33
  L 731.74 321.98
  L 735.45 324.86
  L 738.95 327.96
  L 742.24 331.27
  L 745.31 334.78
  L 748.15 338.48
  L 750.73 342.35
  L 753.06 346.40
  L 755.08 350.52
  L 756.83 354.78
  L 758.27 359.05
  L 759.44 363.45
  L 760.32 367.87
  L 760.92 372.39
  Z"
/>
<path d="
  M 141.97 433.69
  L 142.00 438.72
  L 142.24 443.66
  L 142.71 448.52
  L 143.39 453.30
  L 144.29 458.00
  L 145.41 462.61
  L 146.74 467.14
  L 148.30 471.59
  L 148.30 471.59
  L 148.30 471.59
  L 148.30 471.59
  L 151.61 479.33
  L 155.63 486.82
  L 160.34 494.03
  L 165.75 500.99
  L 171.29 507.14
  L 177.15 512.83
  L 183.32 518.05
  L 189.80 522.81
  L 189.80 522.81
  L 196.35 526.95
  L 203.19 530.67
  L 210.32 533.95
  L 217.74 536.81
  L 218.19 537.15
  L 218.36 537.67
  L 218.66 586.34
  L 218.63 601.31
  L 218.82 605.26
  L 219.40 609.09
  L 220.37 612.75
  L 221.72 616.23
  L 223.43 619.46
  L 225.50 622.43
  L 227.86 625.05
  L 230.54 627.35
  L 232.63 628.78
  L 234.89 630.03
  L 237.20 631.05
  L 239.66 631.88
  L 242.80 632.57
  L 245.83 632.81
  L 248.63 632.67
  L 251.35 632.19
  L 254.08 631.39
  L 256.93 630.21
  L 259.84 628.69
  L 262.85 626.80
  L 266.13 624.45
  L 269.81 621.54
  L 362.28 545.53
  L 364.66 543.68
  L 366.61 542.43
  L 367.49 542.07
  L 368.43 541.94
  L 419.50 541.37
  L 419.50 541.37
  L 420.05 541.60
  L 420.28 542.15
  L 420.58 555.91
  L 420.81 560.14
  L 421.58 566.57
  L 422.87 573.04
  L 424.64 579.36
  L 426.94 585.70
  L 429.73 591.95
  L 433.04 598.20
  L 436.81 604.31
  L 441.10 610.39
  L 444.47 614.61
  L 448.08 618.61
  L 451.97 622.46
  L 456.09 626.07
  L 460.44 629.47
  L 464.99 632.62
  L 469.70 635.50
  L 474.57 638.12
  L 479.61 640.49
  L 484.78 642.57
  L 490.05 644.36
  L 495.42 645.86
  L 500.81 647.04
  L 506.26 647.93
  L 511.75 648.50
  L 517.27 648.76
  L 536.00 648.94
  L 557.03 648.82
  L 558.54 649.07
  L 559.89 649.81
  L 667.85 735.86
  L 671.11 738.07
  L 674.67 739.74
  L 678.36 740.77
  L 682.06 741.15
  L 685.95 740.89
  L 689.71 739.96
  L 693.28 738.40
  L 696.58 736.24
  L 699.48 733.57
  L 701.98 730.38
  L 703.95 726.84
  L 705.42 722.87
  L 705.90 720.76
  L 706.24 718.25
  L 706.51 711.97
  L 706.54 648.29
  L 706.77 647.66
  L 707.35 647.32
  L 712.47 646.19
  L 720.36 643.81
  L 728.11 640.67
  L 735.51 636.85
  L 742.69 632.30
  L 749.57 627.04
  L 756.00 621.19
  L 762.07 614.69
  L 767.64 607.69
  L 771.31 602.30
  L 774.55 596.76
  L 777.34 591.06
  L 779.70 585.20
  L 779.70 585.20
  L 779.70 585.20
  L 781.44 579.79
  L 782.83 574.26
  L 783.86 568.60
  L 784.54 562.81
  L 785.09 553.63
  L 785.21 544.25
  L 785.05 379.50
  L 785.05 379.13
  L 785.05 379.13
  L 784.86 373.67
  L 784.34 368.21
  L 783.49 362.75
  L 782.30 357.30
  L 780.78 351.84
  L 778.92 346.39
  L 776.73 340.93
  L 774.21 335.48
  L 777.05 340.42
  L 777.05 340.42
  L 777.05 340.42
  L 779.18 344.81
  L 781.04 349.36
  L 782.61 354.04
  L 783.91 358.88
  L 784.93 363.86
  L 785.66 368.99
  L 786.12 374.27
  L 786.30 379.69
  L 786.66 457.43
  L 786.53 522.38
  L 786.17 560.94
  L 786.05 561.93
  L 785.23 567.13
  L 784.72 570.65
  L 783.31 576.99
  L 781.49 583.13
  L 779.27 589.06
  L 776.64 594.79
  L 776.64 594.79
  L 776.64 594.79
  L 773.95 599.73
  L 772.90 601.48
  L 770.05 605.87
  L 766.96 610.12
  L 763.64 614.23
  L 760.08 618.19
  L 755.68 622.62
  L 751.29 626.64
  L 746.79 630.34
  L 742.14 633.76
  L 737.47 636.78
  L 732.65 639.52
  L 727.76 641.91
  L 722.69 644.00
  L 715.77 646.29
  L 708.71 647.99
  L 707.94 648.45
  L 707.65 649.30
  L 707.88 677.57
  L 707.85 712.70
  L 707.67 716.34
  L 707.17 719.85
  L 706.35 723.23
  L 705.19 726.47
  L 705.19 726.47
  L 705.01 726.91
  L 703.69 729.49
  L 702.00 732.01
  L 699.98 734.38
  L 697.70 736.54
  L 695.33 738.34
  L 692.81 739.83
  L 690.28 740.92
  L 687.69 741.64
  L 685.01 742.05
  L 682.52 742.22
  L 680.18 742.14
  L 677.96 741.82
  L 674.51 740.83
  L 670.97 739.15
  L 667.18 736.75
  L 662.37 733.11
  L 559.48 650.97
  L 558.85 650.65
  L 556.49 650.19
  L 554.15 650.00
  L 517.62 649.85
  L 509.68 649.52
  L 502.25 648.53
  L 497.51 647.56
  L 492.88 646.40
  L 488.37 645.05
  L 483.96 643.52
  L 479.67 641.81
  L 475.49 639.91
  L 471.42 637.82
  L 467.47 635.56
  L 467.47 635.56
  L 467.47 635.56
  L 467.47 635.56
  L 460.22 630.70
  L 453.37 625.17
  L 446.94 618.97
  L 440.92 612.09
  L 438.53 608.90
  L 435.94 605.01
  L 430.17 595.11
  L 427.40 589.54
  L 425.06 583.80
  L 423.13 577.86
  L 421.56 571.59
  L 420.42 565.17
  L 419.68 558.46
  L 419.35 551.70
  L 419.44 544.69
  L 419.33 544.00
  L 418.96 543.40
  L 418.39 543.00
  L 417.71 542.85
  L 417.67 542.85
  L 369.82 542.83
  L 367.93 543.07
  L 366.47 543.68
  L 364.86 544.80
  L 267.41 624.78
  L 264.29 627.15
  L 261.19 629.18
  L 258.06 630.89
  L 255.02 632.20
  L 252.00 633.14
  L 249.14 633.69
  L 246.32 633.88
  L 243.49 633.69
  L 240.56 633.13
  L 237.76 632.30
  L 235.01 631.17
  L 232.42 629.79
  L 229.94 628.13
  L 227.66 626.24
  L 225.59 624.14
  L 223.74 621.83
  L 222.12 619.35
  L 220.74 616.70
  L 219.63 613.90
  L 218.78 610.98
  L 217.92 606.05
  L 217.54 600.51
  L 217.45 573.25
  L 217.35 538.91
  L 217.02 537.92
  L 216.18 537.31
  L 210.66 535.32
  L 205.26 533.02
  L 199.99 530.42
  L 194.85 527.54
  L 189.82 524.34
  L 184.96 520.86
  L 180.26 517.11
  L 175.74 513.09
  L 170.11 507.65
  L 166.32 503.59
  L 161.28 497.27
  L 156.75 490.67
  L 152.80 483.90
  L 149.38 476.90
  L 146.55 469.81
  L 144.28 462.53
  L 142.62 455.21
  L 141.55 447.75
  L 141.20 443.07
  L 141.04 437.74
  L 141.30 425.09
  L 141.58 424.83
  L 141.83 424.84
  L 141.90 424.90
  L 141.90 424.90
  L 141.97 433.69
  Z"
/>
<path d="
  M 663.87 509.25
  L 581.94 509.25
  L 581.05 509.52
  L 580.46 510.24
  L 572.03 531.13
  L 563.96 551.70
  L 562.20 555.90
  L 560.64 558.81
  L 558.88 561.15
  L 556.86 563.00
  L 554.65 564.32
  L 552.21 565.25
  L 550.32 565.68
  L 548.46 565.86
  L 546.57 565.79
  L 544.76 565.48
  L 542.55 564.75
  L 540.51 563.66
  L 538.60 562.20
  L 536.94 560.43
  L 535.55 558.40
  L 534.48 556.14
  L 533.76 553.78
  L 533.39 551.29
  L 533.69 548.86
  L 534.87 545.32
  L 571.67 453.19
  L 573.73 448.09
  L 593.70 398.54
  L 599.28 384.17
  L 599.52 383.20
  L 599.82 380.43
  L 600.61 374.48
  L 601.17 372.30
  L 601.87 370.40
  L 603.45 367.56
  L 605.49 365.21
  L 605.49 365.21
  L 607.30 363.78
  L 609.37 362.62
  L 611.69 361.74
  L 614.26 361.12
  L 617.36 360.76
  L 620.91 360.68
  L 624.59 360.89
  L 627.81 361.35
  L 630.52 362.12
  L 632.96 363.33
  L 632.96 363.33
  L 632.96 363.33
  L 634.86 364.72
  L 636.56 366.44
  L 638.05 368.49
  L 639.35 370.86
  L 644.50 382.42
  L 651.35 399.11
  L 656.59 411.90
  L 668.63 440.81
  L 683.25 475.69
  L 685.43 480.74
  L 698.50 512.42
  L 712.47 546.31
  L 713.09 548.14
  L 713.35 549.96
  L 713.33 552.10
  L 713.06 554.12
  L 712.56 556.01
  L 711.81 557.78
  L 711.81 557.78
  L 710.14 560.32
  L 707.87 562.56
  L 705.29 564.28
  L 702.57 565.43
  L 699.66 566.03
  L 696.74 566.02
  L 694.22 565.51
  L 691.79 564.54
  L 689.58 563.16
  L 687.54 561.36
  L 685.73 558.81
  L 683.64 554.66
  L 677.86 541.25
  L 669.71 521.20
  L 665.28 510.19
  L 664.72 509.51
  L 663.87 509.25
  Z
  M 665.80 508.70
  L 683.85 552.74
  L 685.77 556.80
  L 687.81 559.92
  L 690.04 562.23
  L 692.52 563.80
  L 694.41 564.48
  L 696.61 564.90
  L 698.76 564.98
  L 700.94 564.74
  L 703.01 564.18
  L 704.96 563.32
  L 706.73 562.16
  L 708.30 560.75
  L 709.64 559.10
  L 710.69 557.27
  L 711.46 555.25
  L 711.89 553.16
  L 712.01 550.94
  L 711.80 549.00
  L 711.23 546.76
  L 708.75 540.53
  L 707.61 537.88
  L 672.29 453.23
  L 638.84 372.48
  L 637.70 370.11
  L 636.35 368.05
  L 634.78 366.28
  L 633.01 364.81
  L 633.01 364.81
  L 631.55 363.92
  L 629.98 363.18
  L 626.48 362.22
  L 621.26 361.74
  L 615.50 361.98
  L 613.38 362.31
  L 611.41 362.87
  L 609.61 363.64
  L 607.96 364.64
  L 607.96 364.64
  L 607.96 364.64
  L 607.96 364.64
  L 605.95 366.39
  L 604.23 368.55
  L 602.82 371.13
  L 601.70 374.14
  L 601.33 376.11
  L 601.10 379.19
  L 600.83 382.67
  L 600.32 384.79
  L 574.22 449.66
  L 535.53 546.51
  L 534.89 548.45
  L 534.53 550.33
  L 534.46 552.16
  L 534.68 553.92
  L 534.68 553.92
  L 535.43 556.23
  L 536.72 558.43
  L 538.46 560.53
  L 540.31 562.21
  L 542.29 563.47
  L 544.40 564.32
  L 544.40 564.32
  L 544.40 564.32
  L 546.52 564.73
  L 548.75 564.76
  L 551.09 564.40
  L 553.54 563.67
  L 555.81 562.49
  L 558.01 560.66
  L 559.84 558.44
  L 561.10 556.06
  L 580.03 508.57
  L 580.32 508.21
  L 580.76 508.08
  L 664.87 508.08
  L 665.43 508.25
  L 665.80 508.70
  Z"
/>
<path d="
  M 622.84 404.41
  L 655.35 480.96
  L 655.28 481.66
  L 654.66 482.00
  L 591.53 482.00
  L 590.93 481.71
  L 590.83 480.97
  L 621.45 404.43
  L 621.95 403.98
  L 622.48 404.03
  L 622.84 404.41
  Z
  M 622.70 406.39
  L 622.51 406.15
  L 622.04 406.08
  L 621.68 406.40
  L 592.04 480.49
  L 592.07 480.96
  L 592.55 481.24
  L 653.66 481.24
  L 654.10 481.02
  L 654.17 480.48
  L 622.70 406.39
  Z"
/>
<path d="
  M 921.21 460.67
  L 921.15 462.32
  L 920.87 461.77
  L 920.84 461.27
  L 920.84 461.27
  L 921.21 460.67
  Z"
/>
<path d="
  M 487.99 915.07
  L 486.95 915.25
  L 486.99 915.04
  L 487.50 914.87
  L 487.98 915.05
  L 487.99 915.07
  Z"
/>
</g>
</svg>
