<?xml version="1.0" encoding="UTF-8" standalone="no"?>
<!DOCTYPE svg PUBLIC "-//W3C//DTD SVG 1.1//EN" "http://www.w3.org/Graphics/SVG/1.1/DTD/svg11.dtd">
<svg xmlns="http://www.w3.org/2000/svg" version="1.1" viewBox="0.00 0.00 969.00 962.00" width="969.00" height="962.00">
<g stroke-width="2.00" fill="none" stroke-linecap="butt">
<path stroke="#80d6ff" vector-effect="non-scaling-stroke" d="
  M 332.23 756.47
  L 332.81 756.17
  L 334.24 755.78
  L 335.70 755.77
  L 337.29 756.12
  L 338.79 756.77
  L 346.47 760.84
  L 354.25 764.70
  L 366.37 770.20
  L 378.74 775.21
  L 391.34 779.72
  L 404.18 783.74
  L 406.44 784.69
  L 407.21 785.29
  L 407.81 786.04
  L 408.27 787.28
  L 417.05 835.15
  L 417.67 837.03
  L 418.73 838.38
  L 418.73 838.38
  L 420.26 839.20
  L 422.25 839.47
  L 544.00 839.50
  L 546.75 839.19
  L 547.81 838.80
  L 548.68 838.24
  L 549.62 837.22
  L 550.33 835.92
  L 550.90 834.20
  L 551.39 831.88
  L 558.97 788.55
  L 559.31 787.05
  L 559.74 786.04
  L 560.70 784.70
  L 561.44 784.13
  L 575.86 779.57
  L 586.73 775.78
  L 597.40 771.59
  L 607.86 766.99
  L 618.11 761.99
  L 618.11 761.99
  L 618.11 761.99
  L 625.38 758.13
  L 632.54 754.06
  L 639.59 749.78
  L 646.54 745.29
  L 653.38 740.59
  L 660.11 735.68
  L 666.73 730.55
  L 673.24 725.22
  L 681.58 717.96
  L 689.58 710.47
  L 697.26 702.77
  L 704.61 694.86
  L 711.62 686.72
  L 718.31 678.37
  L 724.67 669.80
  L 730.69 661.02
  L 730.69 661.02
  L 730.69 661.02
  L 736.57 651.71
  L 742.10 642.18
  L 747.28 632.41
  L 752.10 622.41
  L 756.57 612.18
  L 760.70 601.71
  L 764.46 591.02
  L 767.88 580.09
  L 768.40 578.85
  L 769.16 577.85
  L 769.16 577.85
  L 769.16 577.85
  L 770.31 577.02
  L 771.77 576.50
  L 817.58 566.17
  L 821.93 564.92
  L 823.23 564.22
  L 824.20 563.34
  L 824.86 562.27
  L 825.29 560.90
  L 825.52 559.17
  L 825.60 556.78
  L 825.57 436.04
  L 825.47 434.57
  L 825.18 433.29
  L 824.69 432.19
  L 824.01 431.29
  L 824.01 431.29
  L 822.77 430.34
  L 821.16 429.75
  L 776.76 419.42
  L 775.54 419.15
  L 772.12 418.24
  L 771.05 417.73
  L 770.14 417.02
  L 769.25 415.84
  L 768.59 414.19
  L 766.07 405.74
  L 763.30 397.34
  L 760.29 388.99
  L 757.04 380.68
  L 753.55 372.42
  L 749.81 364.21
  L 745.83 356.04
  L 741.61 347.92
  L 741.11 346.19
  L 741.28 344.83
  L 741.94 343.44
  L 756.92 320.58
  L 769.63 301.90
  L 770.63 300.00
  L 770.96 298.08
  L 770.70 296.54
  L 769.93 294.92
  L 768.63 293.20
  L 766.53 291.01
  L 765.88 290.37
  L 686.47 211.32
  L 684.88 210.08
  L 683.15 209.38
  L 683.15 209.38
  L 681.95 209.22
  L 680.70 209.29
  L 679.74 209.64
  L 657.57 223.62
  L 635.88 236.88
  L 634.33 237.58
  L 632.77 237.83
  L 632.77 237.83
  L 631.24 237.64
  L 629.71 237.01
  L 615.80 229.85
  L 601.67 223.43
  L 587.30 217.74
  L 572.71 212.79
  L 572.71 212.79
  L 572.14 212.61
  L 562.85 209.75
  L 561.68 209.28
  L 560.65 208.60
  L 559.93 207.82
  L 559.48 206.87
  L 559.41 206.58
  L 550.74 158.74
  L 550.20 157.04
  L 549.25 155.79
  L 549.25 155.79
  L 547.69 154.92
  L 545.62 154.63
  L 425.62 154.60
  L 424.42 154.59
  L 420.42 154.78
  L 419.17 155.14
  L 418.12 155.79
  L 417.16 157.07
  L 416.55 159.02
  L 408.58 205.57
  L 408.00 207.46
  L 406.98 208.87
  L 406.98 208.87
  L 406.06 209.52
  L 404.94 209.97
  L 396.20 212.56
  L 387.60 215.36
  L 379.16 218.36
  L 370.87 221.57
  L 362.72 224.98
  L 354.73 228.60
  L 346.89 232.43
  L 339.20 236.46
  L 336.90 237.50
  L 335.05 237.78
  L 333.46 237.48
  L 331.67 236.62
  L 290.32 211.81
  L 289.54 211.33
  L 286.26 209.55
  L 285.07 209.23
  L 283.89 209.22
  L 282.45 209.73
  L 280.93 210.93
  L 202.23 291.24
  L 201.88 291.60
  L 199.25 294.63
  L 198.53 295.90
  L 198.22 296.96
  L 198.16 299.27
  L 198.67 300.84
  L 226.71 343.85
  L 227.16 344.72
  L 227.41 345.63
  L 227.41 345.63
  L 227.41 345.63
  L 227.36 347.25
  L 226.71 348.97
  L 222.79 356.47
  L 219.05 364.14
  L 215.49 371.97
  L 212.10 379.98
  L 208.88 388.15
  L 205.84 396.50
  L 202.98 405.01
  L 200.29 413.69
  L 199.42 416.00
  L 198.34 417.44
  L 197.16 418.22
  L 195.54 418.75
  L 149.74 429.02
  L 147.65 429.55
  L 146.07 430.16
  L 144.87 430.89
  L 143.93 431.84
  L 143.14 433.50
  L 142.87 435.75
  L 142.87 558.14
  L 142.96 560.02
  L 143.22 561.48
  L 143.68 562.70
  L 144.39 563.72
  L 145.66 564.69
  L 147.44 565.34
  L 196.30 576.72
  L 197.57 577.17
  L 198.62 577.86
  L 199.65 579.08
  L 200.35 580.69
  L 203.00 589.32
  L 205.86 597.79
  L 208.92 606.11
  L 212.19 614.27
  L 215.66 622.27
  L 219.33 630.12
  L 223.21 637.82
  L 227.30 645.36
  L 228.01 647.16
  L 228.00 648.74
  L 227.54 649.80
  L 213.38 671.28
  L 198.43 693.45
  L 197.54 695.19
  L 197.32 696.74
  L 197.57 697.91
  L 198.24 699.20
  L 201.03 702.30
  L 201.79 703.05
  L 280.22 781.59
  L 282.20 783.14
  L 284.12 783.82
  L 285.57 783.84
  L 287.07 783.48
  L 288.77 782.74
  L 290.85 781.55
  L 311.24 769.04
  L 332.23 756.47"
/>
<path stroke="#80d6ff" vector-effect="non-scaling-stroke" d="
  M 701.54 738.60
  L 695.78 743.72
  L 688.26 750.07
  L 667.97 766.46
  L 666.77 767.54
  L 665.83 768.68
  L 665.14 769.88
  L 664.71 771.14
  L 664.71 771.14
  L 664.71 771.14
  L 664.52 772.64
  L 664.67 774.23
  L 665.19 775.92
  L 666.06 777.53
  L 667.21 779.00
  L 668.60 780.25
  L 670.10 781.19
  L 671.72 781.81
  L 673.30 782.04
  L 674.89 781.89
  L 676.09 781.47
  L 677.27 780.78
  L 686.82 773.62
  L 696.02 766.33
  L 704.84 758.90
  L 713.30 751.34
  L 721.52 743.52
  L 729.63 735.33
  L 737.64 726.75
  L 745.55 717.80
  L 746.34 716.69
  L 746.84 715.52
  L 747.13 713.95
  L 747.02 712.36
  L 746.54 710.69
  L 745.72 709.12
  L 744.59 707.63
  L 743.22 706.37
  L 741.68 705.37
  L 740.04 704.72
  L 738.47 704.44
  L 736.95 704.50
  L 736.95 704.50
  L 735.66 704.83
  L 734.41 705.42
  L 733.20 706.27
  L 732.02 707.38
  L 714.05 726.28
  L 707.12 733.26
  L 701.54 738.60"
/>
<path stroke="#80d6ff" vector-effect="non-scaling-stroke" d="
  M 429.54 269.31
  L 418.75 272.17
  L 408.33 275.48
  L 398.27 279.23
  L 388.58 283.41
  L 379.00 288.08
  L 369.73 293.08
  L 360.78 298.39
  L 352.14 304.03
  L 343.82 309.99
  L 335.81 316.27
  L 328.12 322.88
  L 320.75 329.80
  L 320.75 329.80
  L 320.75 329.80
  L 320.75 329.80
  L 313.40 337.37
  L 306.38 345.29
  L 299.72 353.55
  L 293.39 362.17
  L 287.41 371.14
  L 281.77 380.46
  L 276.48 390.12
  L 271.53 400.14
  L 267.49 409.40
  L 263.86 419.03
  L 260.65 429.05
  L 257.84 439.45
  L 255.77 448.70
  L 254.08 457.97
  L 252.76 467.35
  L 251.82 476.73
  L 251.27 486.13
  L 251.09 495.50
  L 251.29 504.94
  L 251.88 514.34
  L 252.73 522.81
  L 253.89 531.23
  L 255.36 539.59
  L 257.12 547.88
  L 259.20 556.13
  L 261.57 564.31
  L 264.24 572.38
  L 267.21 580.36
  L 270.45 588.19
  L 273.98 595.91
  L 277.79 603.51
  L 281.88 610.96
  L 286.22 618.23
  L 290.84 625.35
  L 295.72 632.32
  L 300.86 639.11
  L 305.31 644.58
  L 309.92 649.93
  L 314.71 655.15
  L 319.68 660.24
  L 324.80 665.18
  L 330.09 669.97
  L 335.46 674.55
  L 341.00 678.99
  L 350.10 685.72
  L 359.47 691.97
  L 369.17 697.80
  L 379.11 703.13
  L 389.30 707.99
  L 399.69 712.34
  L 410.27 716.18
  L 421.00 719.51
  L 431.89 722.31
  L 442.90 724.59
  L 454.01 726.34
  L 465.21 727.55
  L 476.44 728.21
  L 487.71 728.33
  L 498.91 727.90
  L 510.11 726.93
  L 517.30 726.01
  L 524.47 724.87
  L 531.63 723.50
  L 538.77 721.89
  L 545.86 720.06
  L 552.86 718.02
  L 559.76 715.76
  L 566.58 713.30
  L 576.99 709.06
  L 587.15 704.33
  L 597.12 699.08
  L 606.81 693.37
  L 616.23 687.19
  L 625.32 680.56
  L 634.08 673.51
  L 642.49 666.04
  L 650.53 658.19
  L 658.18 649.95
  L 665.44 641.34
  L 672.30 632.37
  L 678.71 623.09
  L 684.69 613.48
  L 690.17 603.64
  L 695.20 593.50
  L 698.10 587.03
  L 700.80 580.49
  L 703.32 573.82
  L 705.62 567.09
  L 707.72 560.30
  L 709.60 553.46
  L 711.27 546.60
  L 712.73 539.70
  L 714.21 531.31
  L 715.37 522.89
  L 716.23 514.45
  L 716.78 506.00
  L 717.02 497.49
  L 716.95 489.00
  L 716.57 480.52
  L 715.88 472.06
  L 714.88 463.62
  L 713.57 455.21
  L 711.95 446.86
  L 710.04 438.56
  L 707.83 430.38
  L 705.32 422.27
  L 702.51 414.25
  L 699.41 406.33
  L 695.64 397.70
  L 691.51 389.20
  L 687.08 380.94
  L 682.30 372.83
  L 677.19 364.91
  L 671.73 357.17
  L 666.00 349.69
  L 659.94 342.40
  L 652.70 334.42
  L 645.26 326.98
  L 637.64 320.06
  L 629.82 313.66
  L 620.85 307.00
  L 611.73 300.82
  L 602.46 295.10
  L 593.05 289.84
  L 583.49 285.06
  L 573.79 280.75
  L 563.93 276.90
  L 553.94 273.52
  L 553.94 273.52
  L 544.22 270.72
  L 534.36 268.35
  L 524.37 266.41
  L 514.25 264.91
  L 503.99 263.83
  L 493.60 263.18
  L 483.07 262.96
  L 472.41 263.18
  L 461.88 263.87
  L 451.23 265.13
  L 440.44 266.94
  L 429.54 269.31"
/>
<path stroke="#80d6ff" vector-effect="non-scaling-stroke" d="
  M 494.45 310.13
  L 494.24 307.97
  L 493.61 305.90
  L 492.59 303.99
  L 491.21 302.31
  L 489.53 300.93
  L 487.62 299.91
  L 485.55 299.28
  L 483.39 299.07
  L 481.23 299.28
  L 479.16 299.91
  L 477.25 300.93
  L 475.57 302.31
  L 474.19 303.99
  L 473.17 305.90
  L 472.54 307.97
  L 472.33 310.13
  L 472.54 312.29
  L 473.17 314.36
  L 474.19 316.27
  L 475.57 317.95
  L 477.25 319.33
  L 479.16 320.35
  L 481.23 320.98
  L 483.39 321.19
  L 485.55 320.98
  L 487.62 320.35
  L 489.53 319.33
  L 491.21 317.95
  L 492.59 316.27
  L 493.61 314.36
  L 494.24 312.29
  L 494.45 310.13"
/>
<path stroke="#80d6ff" vector-effect="non-scaling-stroke" d="
  M 385.5613 327.4343
  L 383.4141 327.5887
  L 381.3374 328.1654
  L 379.4111 329.1424
  L 377.7091 330.4820
  L 376.2970 332.1329
  L 375.2289 334.0315
  L 374.5459 336.1049
  L 374.2743 338.2734
  L 374.4244 340.4537
  L 374.9906 342.5620
  L 375.9511 344.5173
  L 377.2689 346.2444
  L 378.8934 347.6769
  L 380.7621 348.7599
  L 382.8034 349.4517
  L 384.9387 349.7257
  L 387.0859 349.5713
  L 389.1626 348.9946
  L 391.0889 348.0176
  L 392.7909 346.6780
  L 394.2030 345.0271
  L 395.2711 343.1285
  L 395.9541 341.0551
  L 396.2257 338.8866
  L 396.0756 336.7063
  L 395.5094 334.5980
  L 394.5489 332.6427
  L 393.2311 330.9156
  L 391.6066 329.4831
  L 389.7379 328.4001
  L 387.6966 327.7083
  L 385.5613 327.4343"
/>
<path stroke="#80d6ff" vector-effect="non-scaling-stroke" d="
  M 582.9565 327.4985
  L 580.8162 327.5597
  L 578.7276 328.0455
  L 576.7709 328.9374
  L 575.0214 330.2009
  L 573.5461 331.7876
  L 572.4019 333.6365
  L 571.6326 335.6765
  L 571.2679 337.8292
  L 571.3218 340.0120
  L 571.7923 342.1409
  L 572.6611 344.1340
  L 573.8950 345.9149
  L 575.4464 347.4151
  L 577.2559 348.5769
  L 579.2539 349.3557
  L 581.3635 349.7215
  L 583.5038 349.6603
  L 585.5924 349.1745
  L 587.5491 348.2826
  L 589.2986 347.0191
  L 590.7739 345.4324
  L 591.9181 343.5835
  L 592.6874 341.5435
  L 593.0521 339.3908
  L 592.9982 337.2080
  L 592.5277 335.0791
  L 591.6589 333.0860
  L 590.4250 331.3051
  L 588.8736 329.8049
  L 587.0641 328.6431
  L 585.0661 327.8643
  L 582.9565 327.4985"
/>
<path stroke="#80d6ff" vector-effect="non-scaling-stroke" d="
  M 494.83 489.70
  L 494.84 389.46
  L 494.63 385.33
  L 493.98 382.68
  L 492.77 380.59
  L 491.24 378.88
  L 489.50 377.58
  L 487.58 376.65
  L 485.44 376.06
  L 483.24 375.88
  L 481.06 376.11
  L 478.95 376.73
  L 477.08 377.70
  L 475.41 379.03
  L 474.07 380.63
  L 473.01 382.55
  L 472.64 383.85
  L 472.38 385.79
  L 472.18 391.56
  L 472.19 498.95
  L 472.25 502.16
  L 472.51 504.53
  L 472.97 506.38
  L 473.74 508.04
  L 475.16 509.85
  L 477.26 511.52
  L 478.56 512.11
  L 480.38 512.53
  L 482.72 512.77
  L 485.58 512.85
  L 554.51 512.82
  L 555.63 512.83
  L 559.97 512.78
  L 562.95 512.47
  L 565.37 511.81
  L 567.37 510.75
  L 568.70 509.63
  L 569.91 508.18
  L 571.16 506.02
  L 571.93 503.86
  L 572.25 501.63
  L 572.09 499.49
  L 571.54 497.57
  L 570.64 495.79
  L 569.40 494.20
  L 567.87 492.83
  L 566.09 491.71
  L 564.08 490.88
  L 561.98 490.39
  L 559.73 490.22
  L 495.31 490.18
  L 494.97 490.04
  L 494.83 489.70"
/>
<path stroke="#80d6ff" vector-effect="non-scaling-stroke" d="
  M 321.3834 403.0392
  L 319.4330 402.0917
  L 317.3322 401.5469
  L 315.1617 401.4257
  L 313.0050 401.7328
  L 310.9450 402.4564
  L 309.0608 403.5686
  L 307.4248 405.0267
  L 306.0999 406.7747
  L 305.1370 408.7454
  L 304.5731 410.8631
  L 304.4299 413.0464
  L 304.7129 415.2114
  L 305.4112 417.2749
  L 306.4980 419.1576
  L 307.9315 420.7871
  L 309.6566 422.1008
  L 311.6070 423.0483
  L 313.7078 423.5931
  L 315.8783 423.7143
  L 318.0350 423.4072
  L 320.0950 422.6836
  L 321.9792 421.5714
  L 323.6152 420.1133
  L 324.9401 418.3653
  L 325.9030 416.3946
  L 326.4669 414.2769
  L 326.6101 412.0936
  L 326.3271 409.9286
  L 325.6288 407.8651
  L 324.5420 405.9824
  L 323.1085 404.3529
  L 321.3834 403.0392"
/>
<path stroke="#80d6ff" vector-effect="non-scaling-stroke" d="
  M 662.50 412.60
  L 662.29 410.43
  L 661.65 408.35
  L 660.63 406.43
  L 659.25 404.74
  L 657.56 403.36
  L 655.64 402.34
  L 653.56 401.70
  L 651.39 401.49
  L 649.22 401.70
  L 647.14 402.34
  L 645.22 403.36
  L 643.53 404.74
  L 642.15 406.43
  L 641.13 408.35
  L 640.49 410.43
  L 640.28 412.60
  L 640.49 414.77
  L 641.13 416.85
  L 642.15 418.77
  L 643.53 420.46
  L 645.22 421.84
  L 647.14 422.86
  L 649.22 423.50
  L 651.39 423.71
  L 653.56 423.50
  L 655.64 422.86
  L 657.56 421.84
  L 659.25 420.46
  L 660.63 418.77
  L 661.65 416.85
  L 662.29 414.77
  L 662.50 412.60"
/>
<path stroke="#80d6ff" vector-effect="non-scaling-stroke" d="
  M 306.02 503.22
  L 305.81 501.06
  L 305.18 498.98
  L 304.15 497.07
  L 302.78 495.39
  L 301.10 494.02
  L 299.19 492.99
  L 297.11 492.36
  L 294.95 492.15
  L 292.79 492.36
  L 290.71 492.99
  L 288.80 494.02
  L 287.12 495.39
  L 285.75 497.07
  L 284.72 498.98
  L 284.09 501.06
  L 283.88 503.22
  L 284.09 505.38
  L 284.72 507.46
  L 285.75 509.37
  L 287.12 511.05
  L 288.80 512.42
  L 290.71 513.45
  L 292.79 514.08
  L 294.95 514.29
  L 297.11 514.08
  L 299.19 513.45
  L 301.10 512.42
  L 302.78 511.05
  L 304.15 509.37
  L 305.18 507.46
  L 305.81 505.38
  L 306.02 503.22"
/>
<path stroke="#80d6ff" vector-effect="non-scaling-stroke" d="
  M 671.0815 492.2326
  L 668.9698 492.6082
  L 666.9719 493.3932
  L 665.1645 494.5573
  L 663.6171 496.0559
  L 662.3891 497.8314
  L 661.5278 499.8154
  L 661.0663 501.9318
  L 661.0222 504.0993
  L 661.3974 506.2345
  L 662.1773 508.2554
  L 663.3319 510.0844
  L 664.8170 511.6510
  L 666.5755 512.8952
  L 668.5397 513.7692
  L 670.6342 514.2393
  L 672.7785 514.2874
  L 674.8902 513.9118
  L 676.8881 513.1268
  L 678.6955 511.9627
  L 680.2429 510.4641
  L 681.4709 508.6886
  L 682.3322 506.7046
  L 682.7937 504.5882
  L 682.8378 502.4207
  L 682.4626 500.2855
  L 681.6827 498.2646
  L 680.5281 496.4356
  L 679.0430 494.8690
  L 677.2845 493.6248
  L 675.3203 492.7508
  L 673.2258 492.2807
  L 671.0815 492.2326"
/>
<path stroke="#80d6ff" vector-effect="non-scaling-stroke" d="
  M 329.12 593.35
  L 328.91 591.20
  L 328.28 589.13
  L 327.26 587.23
  L 325.89 585.56
  L 324.22 584.19
  L 322.32 583.17
  L 320.25 582.54
  L 318.10 582.33
  L 315.95 582.54
  L 313.88 583.17
  L 311.98 584.19
  L 310.31 585.56
  L 308.94 587.23
  L 307.92 589.13
  L 307.29 591.20
  L 307.08 593.35
  L 307.29 595.50
  L 307.92 597.57
  L 308.94 599.47
  L 310.31 601.14
  L 311.98 602.51
  L 313.88 603.53
  L 315.95 604.16
  L 318.10 604.37
  L 320.25 604.16
  L 322.32 603.53
  L 324.22 602.51
  L 325.89 601.14
  L 327.26 599.47
  L 328.28 597.57
  L 328.91 595.50
  L 329.12 593.35"
/>
<path stroke="#80d6ff" vector-effect="non-scaling-stroke" d="
  M 659.68 593.45
  L 659.47 591.29
  L 658.84 589.22
  L 657.82 587.31
  L 656.44 585.64
  L 654.77 584.26
  L 652.86 583.24
  L 650.79 582.61
  L 648.63 582.40
  L 646.47 582.61
  L 644.40 583.24
  L 642.49 584.26
  L 640.82 585.64
  L 639.44 587.31
  L 638.42 589.22
  L 637.79 591.29
  L 637.58 593.45
  L 637.79 595.61
  L 638.42 597.68
  L 639.44 599.59
  L 640.82 601.26
  L 642.49 602.64
  L 644.40 603.66
  L 646.47 604.29
  L 648.63 604.50
  L 650.79 604.29
  L 652.86 603.66
  L 654.77 602.64
  L 656.44 601.26
  L 657.82 599.59
  L 658.84 597.68
  L 659.47 595.61
  L 659.68 593.45"
/>
<path stroke="#80d6ff" vector-effect="non-scaling-stroke" d="
  M 396.99 658.87
  L 396.78 656.71
  L 396.15 654.64
  L 395.13 652.73
  L 393.75 651.05
  L 392.07 649.67
  L 390.16 648.65
  L 388.09 648.02
  L 385.93 647.81
  L 383.77 648.02
  L 381.70 648.65
  L 379.79 649.67
  L 378.11 651.05
  L 376.73 652.73
  L 375.71 654.64
  L 375.08 656.71
  L 374.87 658.87
  L 375.08 661.03
  L 375.71 663.10
  L 376.73 665.01
  L 378.11 666.69
  L 379.79 668.07
  L 381.70 669.09
  L 383.77 669.72
  L 385.93 669.93
  L 388.09 669.72
  L 390.16 669.09
  L 392.07 668.07
  L 393.75 666.69
  L 395.13 665.01
  L 396.15 663.10
  L 396.78 661.03
  L 396.99 658.87"
/>
<path stroke="#80d6ff" vector-effect="non-scaling-stroke" d="
  M 591.94 659.08
  L 591.73 656.93
  L 591.10 654.86
  L 590.08 652.96
  L 588.71 651.29
  L 587.04 649.92
  L 585.14 648.90
  L 583.07 648.27
  L 580.92 648.06
  L 578.77 648.27
  L 576.70 648.90
  L 574.80 649.92
  L 573.13 651.29
  L 571.76 652.96
  L 570.74 654.86
  L 570.11 656.93
  L 569.90 659.08
  L 570.11 661.23
  L 570.74 663.30
  L 571.76 665.20
  L 573.13 666.87
  L 574.80 668.24
  L 576.70 669.26
  L 578.77 669.89
  L 580.92 670.10
  L 583.07 669.89
  L 585.14 669.26
  L 587.04 668.24
  L 588.71 666.87
  L 590.08 665.20
  L 591.10 663.30
  L 591.73 661.23
  L 591.94 659.08"
/>
<path stroke="#80d6ff" vector-effect="non-scaling-stroke" d="
  M 494.30 684.70
  L 494.09 682.56
  L 493.46 680.50
  L 492.45 678.60
  L 491.08 676.94
  L 489.42 675.57
  L 487.52 674.56
  L 485.46 673.93
  L 483.32 673.72
  L 481.18 673.93
  L 479.12 674.56
  L 477.22 675.57
  L 475.56 676.94
  L 474.19 678.60
  L 473.18 680.50
  L 472.55 682.56
  L 472.34 684.70
  L 472.55 686.84
  L 473.18 688.90
  L 474.19 690.80
  L 475.56 692.46
  L 477.22 693.83
  L 479.12 694.84
  L 481.18 695.47
  L 483.32 695.68
  L 485.46 695.47
  L 487.52 694.84
  L 489.42 693.83
  L 491.08 692.46
  L 492.45 690.80
  L 493.46 688.90
  L 494.09 686.84
  L 494.30 684.70"
/>
</g>
<g fill="#00adff">
<path d="
  M 933.92 301.08
  L 938.31 312.56
  L 943.23 326.70
  L 946.73 337.52
  L 949.97 348.45
  L 952.94 359.50
  L 955.66 370.67
  L 958.10 381.95
  L 960.29 393.35
  L 962.21 404.86
  L 963.87 416.49
  L 965.32 428.79
  L 966.47 441.06
  L 967.30 453.31
  L 967.83 465.54
  L 968.04 477.74
  L 967.94 489.93
  L 967.54 502.09
  L 966.82 514.23
  L 966.82 514.23
  L 966.82 514.23
  L 966.82 514.23
  L 966.82 514.23
  L 965.93 524.98
  L 964.79 535.72
  L 963.40 546.44
  L 961.77 557.14
  L 959.90 567.82
  L 957.79 578.49
  L 955.42 589.14
  L 952.82 599.77
  L 948.61 615.08
  L 943.90 630.20
  L 938.67 645.20
  L 932.94 659.99
  L 926.68 674.67
  L 919.95 689.11
  L 912.70 703.38
  L 904.99 717.39
  L 896.80 731.16
  L 888.17 744.65
  L 879.05 757.91
  L 869.50 770.86
  L 859.52 783.49
  L 849.13 795.79
  L 838.35 807.74
  L 827.18 819.32
  L 815.64 830.54
  L 803.73 841.37
  L 791.48 851.81
  L 778.88 861.85
  L 765.96 871.46
  L 752.73 880.64
  L 739.27 889.34
  L 725.52 897.59
  L 711.54 905.37
  L 697.28 912.69
  L 682.86 919.49
  L 668.19 925.83
  L 653.41 931.63
  L 638.42 936.94
  L 623.31 941.72
  L 608.00 946.01
  L 589.59 950.45
  L 570.94 954.19
  L 552.21 957.19
  L 533.36 959.47
  L 514.54 961.00
  L 495.89 961.78
  L 477.27 961.81
  L 458.91 961.08
  L 446.51 960.19
  L 434.18 959.00
  L 421.92 957.52
  L 409.75 955.76
  L 397.65 953.70
  L 385.62 951.34
  L 373.67 948.70
  L 361.80 945.77
  L 361.80 945.77
  L 348.98 942.25
  L 336.99 938.61
  L 325.07 934.63
  L 313.24 930.32
  L 301.48 925.67
  L 289.81 920.69
  L 278.21 915.38
  L 266.69 909.73
  L 255.25 903.75
  L 240.57 895.53
  L 226.28 886.91
  L 212.38 877.89
  L 198.86 868.46
  L 185.73 858.62
  L 172.98 848.38
  L 160.62 837.74
  L 148.64 826.69
  L 148.64 826.69
  L 148.64 826.69
  L 138.01 816.22
  L 127.70 805.40
  L 117.71 794.24
  L 108.05 782.75
  L 98.71 770.91
  L 89.70 758.74
  L 81.01 746.22
  L 72.64 733.37
  L 66.37 723.12
  L 60.36 712.66
  L 54.61 702.01
  L 49.12 691.17
  L 43.88 680.13
  L 38.92 668.93
  L 34.24 657.58
  L 29.85 646.10
  L 25.77 634.54
  L 21.98 622.88
  L 18.50 611.12
  L 15.32 599.28
  L 12.47 587.40
  L 9.93 575.47
  L 7.72 563.58
  L 5.84 551.67
  L 4.09 538.37
  L 2.69 525.04
  L 1.63 511.80
  L 0.92 498.55
  L 0.56 485.33
  L 0.55 472.12
  L 0.88 459.01
  L 1.56 445.93
  L 2.59 432.96
  L 3.97 420.02
  L 5.69 407.22
  L 7.76 394.46
  L 10.16 381.87
  L 12.92 369.34
  L 16.00 356.97
  L 19.44 344.67
  L 23.25 332.35
  L 27.39 320.17
  L 31.84 308.12
  L 36.62 296.21
  L 36.62 296.21
  L 41.05 285.94
  L 45.72 275.77
  L 50.64 265.70
  L 55.80 255.74
  L 61.21 245.88
  L 66.86 236.12
  L 72.76 226.46
  L 78.90 216.91
  L 88.07 203.49
  L 97.70 190.40
  L 107.75 177.63
  L 118.23 165.20
  L 129.12 153.14
  L 140.41 141.44
  L 152.09 130.12
  L 164.14 119.20
  L 176.53 108.71
  L 189.27 98.64
  L 202.26 89.06
  L 215.57 79.92
  L 229.16 71.26
  L 243.05 63.06
  L 257.12 55.38
  L 271.47 48.19
  L 288.28 40.57
  L 305.66 33.54
  L 323.62 27.12
  L 342.16 21.29
  L 355.60 17.55
  L 369.10 14.19
  L 382.68 11.22
  L 396.32 8.63
  L 396.32 8.63
  L 396.32 8.63
  L 409.13 6.55
  L 422.00 4.81
  L 434.93 3.40
  L 447.92 2.33
  L 460.97 1.59
  L 474.08 1.19
  L 487.25 1.12
  L 500.47 1.39
  L 514.43 2.03
  L 528.30 3.04
  L 542.08 4.41
  L 555.76 6.15
  L 569.35 8.25
  L 582.85 10.72
  L 596.25 13.55
  L 609.56 16.75
  L 609.56 16.75
  L 609.56 16.75
  L 617.68 18.89
  L 630.69 22.65
  L 643.57 26.78
  L 656.40 31.31
  L 669.09 36.21
  L 681.63 41.47
  L 694.01 47.09
  L 706.32 53.11
  L 718.44 59.47
  L 730.40 66.19
  L 742.18 73.26
  L 753.75 80.65
  L 765.11 88.37
  L 776.30 96.45
  L 787.26 104.83
  L 797.99 113.54
  L 808.48 122.54
  L 818.55 131.70
  L 828.33 141.14
  L 837.88 150.93
  L 847.13 160.99
  L 856.09 171.31
  L 864.73 181.89
  L 873.12 192.79
  L 881.19 203.93
  L 888.96 215.33
  L 896.39 226.95
  L 903.49 238.79
  L 910.25 250.83
  L 916.70 263.11
  L 922.79 275.59
  L 928.53 288.25
  L 933.92 301.08
  Z
  M 332.23 756.47
  L 332.81 756.17
  L 334.24 755.78
  L 335.70 755.77
  L 337.29 756.12
  L 338.79 756.77
  L 346.47 760.84
  L 354.25 764.70
  L 366.37 770.20
  L 378.74 775.21
  L 391.34 779.72
  L 404.18 783.74
  L 406.44 784.69
  L 407.21 785.29
  L 407.81 786.04
  L 408.27 787.28
  L 417.05 835.15
  L 417.67 837.03
  L 418.73 838.38
  L 418.73 838.38
  L 420.26 839.20
  L 422.25 839.47
  L 544.00 839.50
  L 546.75 839.19
  L 547.81 838.80
  L 548.68 838.24
  L 549.62 837.22
  L 550.33 835.92
  L 550.90 834.20
  L 551.39 831.88
  L 558.97 788.55
  L 559.31 787.05
  L 559.74 786.04
  L 560.70 784.70
  L 561.44 784.13
  L 575.86 779.57
  L 586.73 775.78
  L 597.40 771.59
  L 607.86 766.99
  L 618.11 761.99
  L 618.11 761.99
  L 618.11 761.99
  L 625.38 758.13
  L 632.54 754.06
  L 639.59 749.78
  L 646.54 745.29
  L 653.38 740.59
  L 660.11 735.68
  L 666.73 730.55
  L 673.24 725.22
  L 681.58 717.96
  L 689.58 710.47
  L 697.26 702.77
  L 704.61 694.86
  L 711.62 686.72
  L 718.31 678.37
  L 724.67 669.80
  L 730.69 661.02
  L 730.69 661.02
  L 730.69 661.02
  L 736.57 651.71
  L 742.10 642.18
  L 747.28 632.41
  L 752.10 622.41
  L 756.57 612.18
  L 760.70 601.71
  L 764.46 591.02
  L 767.88 580.09
  L 768.40 578.85
  L 769.16 577.85
  L 769.16 577.85
  L 769.16 577.85
  L 770.31 577.02
  L 771.77 576.50
  L 817.58 566.17
  L 821.93 564.92
  L 823.23 564.22
  L 824.20 563.34
  L 824.86 562.27
  L 825.29 560.90
  L 825.52 559.17
  L 825.60 556.78
  L 825.57 436.04
  L 825.47 434.57
  L 825.18 433.29
  L 824.69 432.19
  L 824.01 431.29
  L 824.01 431.29
  L 822.77 430.34
  L 821.16 429.75
  L 776.76 419.42
  L 775.54 419.15
  L 772.12 418.24
  L 771.05 417.73
  L 770.14 417.02
  L 769.25 415.84
  L 768.59 414.19
  L 766.07 405.74
  L 763.30 397.34
  L 760.29 388.99
  L 757.04 380.68
  L 753.55 372.42
  L 749.81 364.21
  L 745.83 356.04
  L 741.61 347.92
  L 741.11 346.19
  L 741.28 344.83
  L 741.94 343.44
  L 756.92 320.58
  L 769.63 301.90
  L 770.63 300.00
  L 770.96 298.08
  L 770.70 296.54
  L 769.93 294.92
  L 768.63 293.20
  L 766.53 291.01
  L 765.88 290.37
  L 686.47 211.32
  L 684.88 210.08
  L 683.15 209.38
  L 683.15 209.38
  L 681.95 209.22
  L 680.70 209.29
  L 679.74 209.64
  L 657.57 223.62
  L 635.88 236.88
  L 634.33 237.58
  L 632.77 237.83
  L 632.77 237.83
  L 631.24 237.64
  L 629.71 237.01
  L 615.80 229.85
  L 601.67 223.43
  L 587.30 217.74
  L 572.71 212.79
  L 572.71 212.79
  L 572.14 212.61
  L 562.85 209.75
  L 561.68 209.28
  L 560.65 208.60
  L 559.93 207.82
  L 559.48 206.87
  L 559.41 206.58
  L 550.74 158.74
  L 550.20 157.04
  L 549.25 155.79
  L 549.25 155.79
  L 547.69 154.92
  L 545.62 154.63
  L 425.62 154.60
  L 424.42 154.59
  L 420.42 154.78
  L 419.17 155.14
  L 418.12 155.79
  L 417.16 157.07
  L 416.55 159.02
  L 408.58 205.57
  L 408.00 207.46
  L 406.98 208.87
  L 406.98 208.87
  L 406.06 209.52
  L 404.94 209.97
  L 396.20 212.56
  L 387.60 215.36
  L 379.16 218.36
  L 370.87 221.57
  L 362.72 224.98
  L 354.73 228.60
  L 346.89 232.43
  L 339.20 236.46
  L 336.90 237.50
  L 335.05 237.78
  L 333.46 237.48
  L 331.67 236.62
  L 290.32 211.81
  L 289.54 211.33
  L 286.26 209.55
  L 285.07 209.23
  L 283.89 209.22
  L 282.45 209.73
  L 280.93 210.93
  L 202.23 291.24
  L 201.88 291.60
  L 199.25 294.63
  L 198.53 295.90
  L 198.22 296.96
  L 198.16 299.27
  L 198.67 300.84
  L 226.71 343.85
  L 227.16 344.72
  L 227.41 345.63
  L 227.41 345.63
  L 227.41 345.63
  L 227.36 347.25
  L 226.71 348.97
  L 222.79 356.47
  L 219.05 364.14
  L 215.49 371.97
  L 212.10 379.98
  L 208.88 388.15
  L 205.84 396.50
  L 202.98 405.01
  L 200.29 413.69
  L 199.42 416.00
  L 198.34 417.44
  L 197.16 418.22
  L 195.54 418.75
  L 149.74 429.02
  L 147.65 429.55
  L 146.07 430.16
  L 144.87 430.89
  L 143.93 431.84
  L 143.14 433.50
  L 142.87 435.75
  L 142.87 558.14
  L 142.96 560.02
  L 143.22 561.48
  L 143.68 562.70
  L 144.39 563.72
  L 145.66 564.69
  L 147.44 565.34
  L 196.30 576.72
  L 197.57 577.17
  L 198.62 577.86
  L 199.65 579.08
  L 200.35 580.69
  L 203.00 589.32
  L 205.86 597.79
  L 208.92 606.11
  L 212.19 614.27
  L 215.66 622.27
  L 219.33 630.12
  L 223.21 637.82
  L 227.30 645.36
  L 228.01 647.16
  L 228.00 648.74
  L 227.54 649.80
  L 213.38 671.28
  L 198.43 693.45
  L 197.54 695.19
  L 197.32 696.74
  L 197.57 697.91
  L 198.24 699.20
  L 201.03 702.30
  L 201.79 703.05
  L 280.22 781.59
  L 282.20 783.14
  L 284.12 783.82
  L 285.57 783.84
  L 287.07 783.48
  L 288.77 782.74
  L 290.85 781.55
  L 311.24 769.04
  L 332.23 756.47
  Z
  M 701.54 738.60
  L 695.78 743.72
  L 688.26 750.07
  L 667.97 766.46
  L 666.77 767.54
  L 665.83 768.68
  L 665.14 769.88
  L 664.71 771.14
  L 664.71 771.14
  L 664.71 771.14
  L 664.52 772.64
  L 664.67 774.23
  L 665.19 775.92
  L 666.06 777.53
  L 667.21 779.00
  L 668.60 780.25
  L 670.10 781.19
  L 671.72 781.81
  L 673.30 782.04
  L 674.89 781.89
  L 676.09 781.47
  L 677.27 780.78
  L 686.82 773.62
  L 696.02 766.33
  L 704.84 758.90
  L 713.30 751.34
  L 721.52 743.52
  L 729.63 735.33
  L 737.64 726.75
  L 745.55 717.80
  L 746.34 716.69
  L 746.84 715.52
  L 747.13 713.95
  L 747.02 712.36
  L 746.54 710.69
  L 745.72 709.12
  L 744.59 707.63
  L 743.22 706.37
  L 741.68 705.37
  L 740.04 704.72
  L 738.47 704.44
  L 736.95 704.50
  L 736.95 704.50
  L 735.66 704.83
  L 734.41 705.42
  L 733.20 706.27
  L 732.02 707.38
  L 714.05 726.28
  L 707.12 733.26
  L 701.54 738.60
  Z"
/>
<path d="
  M 538.77 721.89
  L 531.63 723.50
  L 524.47 724.87
  L 517.30 726.01
  L 510.11 726.93
  L 498.91 727.90
  L 487.71 728.33
  L 476.44 728.21
  L 465.21 727.55
  L 454.01 726.34
  L 442.90 724.59
  L 431.89 722.31
  L 421.00 719.51
  L 410.27 716.18
  L 399.69 712.34
  L 389.30 707.99
  L 379.11 703.13
  L 369.17 697.80
  L 359.47 691.97
  L 350.10 685.72
  L 341.00 678.99
  L 335.46 674.55
  L 330.09 669.97
  L 324.80 665.18
  L 319.68 660.24
  L 314.71 655.15
  L 309.92 649.93
  L 305.31 644.58
  L 300.86 639.11
  L 295.72 632.32
  L 290.84 625.35
  L 286.22 618.23
  L 281.88 610.96
  L 277.79 603.51
  L 273.98 595.91
  L 270.45 588.19
  L 267.21 580.36
  L 264.24 572.38
  L 261.57 564.31
  L 259.20 556.13
  L 257.12 547.88
  L 255.36 539.59
  L 253.89 531.23
  L 252.73 522.81
  L 251.88 514.34
  L 251.29 504.94
  L 251.09 495.50
  L 251.27 486.13
  L 251.82 476.73
  L 252.76 467.35
  L 254.08 457.97
  L 255.77 448.70
  L 257.84 439.45
  L 260.65 429.05
  L 263.86 419.03
  L 267.49 409.40
  L 271.53 400.14
  L 276.48 390.12
  L 281.77 380.46
  L 287.41 371.14
  L 293.39 362.17
  L 299.72 353.55
  L 306.38 345.29
  L 313.40 337.37
  L 320.75 329.80
  L 320.75 329.80
  L 320.75 329.80
  L 320.75 329.80
  L 320.75 329.80
  L 320.75 329.80
  L 328.12 322.88
  L 335.81 316.27
  L 343.82 309.99
  L 352.14 304.03
  L 360.78 298.39
  L 369.73 293.08
  L 379.00 288.08
  L 388.58 283.41
  L 398.27 279.23
  L 408.33 275.48
  L 418.75 272.17
  L 429.54 269.31
  L 440.44 266.94
  L 451.23 265.13
  L 461.88 263.87
  L 472.41 263.18
  L 483.07 262.96
  L 493.60 263.18
  L 503.99 263.83
  L 514.25 264.91
  L 524.37 266.41
  L 534.36 268.35
  L 544.22 270.72
  L 553.94 273.52
  L 553.94 273.52
  L 553.94 273.52
  L 553.94 273.52
  L 553.94 273.52
  L 563.93 276.90
  L 573.79 280.75
  L 583.49 285.06
  L 593.05 289.84
  L 602.46 295.10
  L 611.73 300.82
  L 620.85 307.00
  L 629.82 313.66
  L 637.64 320.06
  L 645.26 326.98
  L 652.70 334.42
  L 659.94 342.40
  L 666.00 349.69
  L 671.73 357.17
  L 677.19 364.91
  L 682.30 372.83
  L 687.08 380.94
  L 691.51 389.20
  L 695.64 397.70
  L 699.41 406.33
  L 702.51 414.25
  L 705.32 422.27
  L 707.83 430.38
  L 710.04 438.56
  L 711.95 446.86
  L 713.57 455.21
  L 714.88 463.62
  L 715.88 472.06
  L 716.57 480.52
  L 716.95 489.00
  L 717.02 497.49
  L 716.78 506.00
  L 716.23 514.45
  L 715.37 522.89
  L 714.21 531.31
  L 712.73 539.70
  L 711.27 546.60
  L 709.60 553.46
  L 707.72 560.30
  L 705.62 567.09
  L 703.32 573.82
  L 700.80 580.49
  L 698.10 587.03
  L 695.20 593.50
  L 690.17 603.64
  L 684.69 613.48
  L 678.71 623.09
  L 672.30 632.37
  L 665.44 641.34
  L 658.18 649.95
  L 650.53 658.19
  L 642.49 666.04
  L 634.08 673.51
  L 625.32 680.56
  L 616.23 687.19
  L 606.81 693.37
  L 597.12 699.08
  L 587.15 704.33
  L 576.99 709.06
  L 566.58 713.30
  L 559.76 715.76
  L 552.86 718.02
  L 545.86 720.06
  L 538.77 721.89
  Z
  M 494.45 310.13
  L 494.24 307.97
  L 493.61 305.90
  L 492.59 303.99
  L 491.21 302.31
  L 489.53 300.93
  L 487.62 299.91
  L 485.55 299.28
  L 483.39 299.07
  L 481.23 299.28
  L 479.16 299.91
  L 477.25 300.93
  L 475.57 302.31
  L 474.19 303.99
  L 473.17 305.90
  L 472.54 307.97
  L 472.33 310.13
  L 472.54 312.29
  L 473.17 314.36
  L 474.19 316.27
  L 475.57 317.95
  L 477.25 319.33
  L 479.16 320.35
  L 481.23 320.98
  L 483.39 321.19
  L 485.55 320.98
  L 487.62 320.35
  L 489.53 319.33
  L 491.21 317.95
  L 492.59 316.27
  L 493.61 314.36
  L 494.24 312.29
  L 494.45 310.13
  Z
  M 385.5613 327.4343
  L 383.4141 327.5887
  L 381.3374 328.1654
  L 379.4111 329.1424
  L 377.7091 330.4820
  L 376.2970 332.1329
  L 375.2289 334.0315
  L 374.5459 336.1049
  L 374.2743 338.2734
  L 374.4244 340.4537
  L 374.9906 342.5620
  L 375.9511 344.5173
  L 377.2689 346.2444
  L 378.8934 347.6769
  L 380.7621 348.7599
  L 382.8034 349.4517
  L 384.9387 349.7257
  L 387.0859 349.5713
  L 389.1626 348.9946
  L 391.0889 348.0176
  L 392.7909 346.6780
  L 394.2030 345.0271
  L 395.2711 343.1285
  L 395.9541 341.0551
  L 396.2257 338.8866
  L 396.0756 336.7063
  L 395.5094 334.5980
  L 394.5489 332.6427
  L 393.2311 330.9156
  L 391.6066 329.4831
  L 389.7379 328.4001
  L 387.6966 327.7083
  L 385.5613 327.4343
  Z
  M 582.9565 327.4985
  L 580.8162 327.5597
  L 578.7276 328.0455
  L 576.7709 328.9374
  L 575.0214 330.2009
  L 573.5461 331.7876
  L 572.4019 333.6365
  L 571.6326 335.6765
  L 571.2679 337.8292
  L 571.3218 340.0120
  L 571.7923 342.1409
  L 572.6611 344.1340
  L 573.8950 345.9149
  L 575.4464 347.4151
  L 577.2559 348.5769
  L 579.2539 349.3557
  L 581.3635 349.7215
  L 583.5038 349.6603
  L 585.5924 349.1745
  L 587.5491 348.2826
  L 589.2986 347.0191
  L 590.7739 345.4324
  L 591.9181 343.5835
  L 592.6874 341.5435
  L 593.0521 339.3908
  L 592.9982 337.2080
  L 592.5277 335.0791
  L 591.6589 333.0860
  L 590.4250 331.3051
  L 588.8736 329.8049
  L 587.0641 328.6431
  L 585.0661 327.8643
  L 582.9565 327.4985
  Z
  M 494.83 489.70
  L 494.84 389.46
  L 494.63 385.33
  L 493.98 382.68
  L 492.77 380.59
  L 491.24 378.88
  L 489.50 377.58
  L 487.58 376.65
  L 485.44 376.06
  L 483.24 375.88
  L 481.06 376.11
  L 478.95 376.73
  L 477.08 377.70
  L 475.41 379.03
  L 474.07 380.63
  L 473.01 382.55
  L 472.64 383.85
  L 472.38 385.79
  L 472.18 391.56
  L 472.19 498.95
  L 472.25 502.16
  L 472.51 504.53
  L 472.97 506.38
  L 473.74 508.04
  L 475.16 509.85
  L 477.26 511.52
  L 478.56 512.11
  L 480.38 512.53
  L 482.72 512.77
  L 485.58 512.85
  L 554.51 512.82
  L 555.63 512.83
  L 559.97 512.78
  L 562.95 512.47
  L 565.37 511.81
  L 567.37 510.75
  L 568.70 509.63
  L 569.91 508.18
  L 571.16 506.02
  L 571.93 503.86
  L 572.25 501.63
  L 572.09 499.49
  L 571.54 497.57
  L 570.64 495.79
  L 569.40 494.20
  L 567.87 492.83
  L 566.09 491.71
  L 564.08 490.88
  L 561.98 490.39
  L 559.73 490.22
  L 495.31 490.18
  L 494.97 490.04
  L 494.83 489.70
  Z
  M 321.3834 403.0392
  L 319.4330 402.0917
  L 317.3322 401.5469
  L 315.1617 401.4257
  L 313.0050 401.7328
  L 310.9450 402.4564
  L 309.0608 403.5686
  L 307.4248 405.0267
  L 306.0999 406.7747
  L 305.1370 408.7454
  L 304.5731 410.8631
  L 304.4299 413.0464
  L 304.7129 415.2114
  L 305.4112 417.2749
  L 306.4980 419.1576
  L 307.9315 420.7871
  L 309.6566 422.1008
  L 311.6070 423.0483
  L 313.7078 423.5931
  L 315.8783 423.7143
  L 318.0350 423.4072
  L 320.0950 422.6836
  L 321.9792 421.5714
  L 323.6152 420.1133
  L 324.9401 418.3653
  L 325.9030 416.3946
  L 326.4669 414.2769
  L 326.6101 412.0936
  L 326.3271 409.9286
  L 325.6288 407.8651
  L 324.5420 405.9824
  L 323.1085 404.3529
  L 321.3834 403.0392
  Z
  M 662.50 412.60
  L 662.29 410.43
  L 661.65 408.35
  L 660.63 406.43
  L 659.25 404.74
  L 657.56 403.36
  L 655.64 402.34
  L 653.56 401.70
  L 651.39 401.49
  L 649.22 401.70
  L 647.14 402.34
  L 645.22 403.36
  L 643.53 404.74
  L 642.15 406.43
  L 641.13 408.35
  L 640.49 410.43
  L 640.28 412.60
  L 640.49 414.77
  L 641.13 416.85
  L 642.15 418.77
  L 643.53 420.46
  L 645.22 421.84
  L 647.14 422.86
  L 649.22 423.50
  L 651.39 423.71
  L 653.56 423.50
  L 655.64 422.86
  L 657.56 421.84
  L 659.25 420.46
  L 660.63 418.77
  L 661.65 416.85
  L 662.29 414.77
  L 662.50 412.60
  Z
  M 306.02 503.22
  L 305.81 501.06
  L 305.18 498.98
  L 304.15 497.07
  L 302.78 495.39
  L 301.10 494.02
  L 299.19 492.99
  L 297.11 492.36
  L 294.95 492.15
  L 292.79 492.36
  L 290.71 492.99
  L 288.80 494.02
  L 287.12 495.39
  L 285.75 497.07
  L 284.72 498.98
  L 284.09 501.06
  L 283.88 503.22
  L 284.09 505.38
  L 284.72 507.46
  L 285.75 509.37
  L 287.12 511.05
  L 288.80 512.42
  L 290.71 513.45
  L 292.79 514.08
  L 294.95 514.29
  L 297.11 514.08
  L 299.19 513.45
  L 301.10 512.42
  L 302.78 511.05
  L 304.15 509.37
  L 305.18 507.46
  L 305.81 505.38
  L 306.02 503.22
  Z
  M 671.0815 492.2326
  L 668.9698 492.6082
  L 666.9719 493.3932
  L 665.1645 494.5573
  L 663.6171 496.0559
  L 662.3891 497.8314
  L 661.5278 499.8154
  L 661.0663 501.9318
  L 661.0222 504.0993
  L 661.3974 506.2345
  L 662.1773 508.2554
  L 663.3319 510.0844
  L 664.8170 511.6510
  L 666.5755 512.8952
  L 668.5397 513.7692
  L 670.6342 514.2393
  L 672.7785 514.2874
  L 674.8902 513.9118
  L 676.8881 513.1268
  L 678.6955 511.9627
  L 680.2429 510.4641
  L 681.4709 508.6886
  L 682.3322 506.7046
  L 682.7937 504.5882
  L 682.8378 502.4207
  L 682.4626 500.2855
  L 681.6827 498.2646
  L 680.5281 496.4356
  L 679.0430 494.8690
  L 677.2845 493.6248
  L 675.3203 492.7508
  L 673.2258 492.2807
  L 671.0815 492.2326
  Z
  M 329.12 593.35
  L 328.91 591.20
  L 328.28 589.13
  L 327.26 587.23
  L 325.89 585.56
  L 324.22 584.19
  L 322.32 583.17
  L 320.25 582.54
  L 318.10 582.33
  L 315.95 582.54
  L 313.88 583.17
  L 311.98 584.19
  L 310.31 585.56
  L 308.94 587.23
  L 307.92 589.13
  L 307.29 591.20
  L 307.08 593.35
  L 307.29 595.50
  L 307.92 597.57
  L 308.94 599.47
  L 310.31 601.14
  L 311.98 602.51
  L 313.88 603.53
  L 315.95 604.16
  L 318.10 604.37
  L 320.25 604.16
  L 322.32 603.53
  L 324.22 602.51
  L 325.89 601.14
  L 327.26 599.47
  L 328.28 597.57
  L 328.91 595.50
  L 329.12 593.35
  Z
  M 659.68 593.45
  L 659.47 591.29
  L 658.84 589.22
  L 657.82 587.31
  L 656.44 585.64
  L 654.77 584.26
  L 652.86 583.24
  L 650.79 582.61
  L 648.63 582.40
  L 646.47 582.61
  L 644.40 583.24
  L 642.49 584.26
  L 640.82 585.64
  L 639.44 587.31
  L 638.42 589.22
  L 637.79 591.29
  L 637.58 593.45
  L 637.79 595.61
  L 638.42 597.68
  L 639.44 599.59
  L 640.82 601.26
  L 642.49 602.64
  L 644.40 603.66
  L 646.47 604.29
  L 648.63 604.50
  L 650.79 604.29
  L 652.86 603.66
  L 654.77 602.64
  L 656.44 601.26
  L 657.82 599.59
  L 658.84 597.68
  L 659.47 595.61
  L 659.68 593.45
  Z
  M 396.99 658.87
  L 396.78 656.71
  L 396.15 654.64
  L 395.13 652.73
  L 393.75 651.05
  L 392.07 649.67
  L 390.16 648.65
  L 388.09 648.02
  L 385.93 647.81
  L 383.77 648.02
  L 381.70 648.65
  L 379.79 649.67
  L 378.11 651.05
  L 376.73 652.73
  L 375.71 654.64
  L 375.08 656.71
  L 374.87 658.87
  L 375.08 661.03
  L 375.71 663.10
  L 376.73 665.01
  L 378.11 666.69
  L 379.79 668.07
  L 381.70 669.09
  L 383.77 669.72
  L 385.93 669.93
  L 388.09 669.72
  L 390.16 669.09
  L 392.07 668.07
  L 393.75 666.69
  L 395.13 665.01
  L 396.15 663.10
  L 396.78 661.03
  L 396.99 658.87
  Z
  M 591.94 659.08
  L 591.73 656.93
  L 591.10 654.86
  L 590.08 652.96
  L 588.71 651.29
  L 587.04 649.92
  L 585.14 648.90
  L 583.07 648.27
  L 580.92 648.06
  L 578.77 648.27
  L 576.70 648.90
  L 574.80 649.92
  L 573.13 651.29
  L 571.76 652.96
  L 570.74 654.86
  L 570.11 656.93
  L 569.90 659.08
  L 570.11 661.23
  L 570.74 663.30
  L 571.76 665.20
  L 573.13 666.87
  L 574.80 668.24
  L 576.70 669.26
  L 578.77 669.89
  L 580.92 670.10
  L 583.07 669.89
  L 585.14 669.26
  L 587.04 668.24
  L 588.71 666.87
  L 590.08 665.20
  L 591.10 663.30
  L 591.73 661.23
  L 591.94 659.08
  Z
  M 494.30 684.70
  L 494.09 682.56
  L 493.46 680.50
  L 492.45 678.60
  L 491.08 676.94
  L 489.42 675.57
  L 487.52 674.56
  L 485.46 673.93
  L 483.32 673.72
  L 481.18 673.93
  L 479.12 674.56
  L 477.22 675.57
  L 475.56 676.94
  L 474.19 678.60
  L 473.18 680.50
  L 472.55 682.56
  L 472.34 684.70
  L 472.55 686.84
  L 473.18 688.90
  L 474.19 690.80
  L 475.56 692.46
  L 477.22 693.83
  L 479.12 694.84
  L 481.18 695.47
  L 483.32 695.68
  L 485.46 695.47
  L 487.52 694.84
  L 489.42 693.83
  L 491.08 692.46
  L 492.45 690.80
  L 493.46 688.90
  L 494.09 686.84
  L 494.30 684.70
  Z"
/>
</g>
<g fill="#ffffff">
<path d="
  M 338.79 756.77
  L 337.29 756.12
  L 335.70 755.77
  L 334.24 755.78
  L 332.81 756.17
  L 332.23 756.47
  L 311.24 769.04
  L 290.85 781.55
  L 288.77 782.74
  L 287.07 783.48
  L 285.57 783.84
  L 284.12 783.82
  L 282.20 783.14
  L 280.22 781.59
  L 201.79 703.05
  L 201.03 702.30
  L 198.24 699.20
  L 197.57 697.91
  L 197.32 696.74
  L 197.54 695.19
  L 198.43 693.45
  L 213.38 671.28
  L 227.54 649.80
  L 228.00 648.74
  L 228.01 647.16
  L 227.30 645.36
  L 223.21 637.82
  L 219.33 630.12
  L 215.66 622.27
  L 212.19 614.27
  L 208.92 606.11
  L 205.86 597.79
  L 203.00 589.32
  L 200.35 580.69
  L 199.65 579.08
  L 198.62 577.86
  L 197.57 577.17
  L 196.30 576.72
  L 147.44 565.34
  L 145.66 564.69
  L 144.39 563.72
  L 143.68 562.70
  L 143.22 561.48
  L 142.96 560.02
  L 142.87 558.14
  L 142.87 435.75
  L 143.14 433.50
  L 143.93 431.84
  L 144.87 430.89
  L 146.07 430.16
  L 147.65 429.55
  L 149.74 429.02
  L 195.54 418.75
  L 197.16 418.22
  L 198.34 417.44
  L 199.42 416.00
  L 200.29 413.69
  L 202.98 405.01
  L 205.84 396.50
  L 208.88 388.15
  L 212.10 379.98
  L 215.49 371.97
  L 219.05 364.14
  L 222.79 356.47
  L 226.71 348.97
  L 227.36 347.25
  L 227.41 345.63
  L 227.41 345.63
  L 227.41 345.63
  L 227.16 344.72
  L 226.71 343.85
  L 198.67 300.84
  L 198.16 299.27
  L 198.22 296.96
  L 198.53 295.89
  L 199.26 294.62
  L 201.88 291.60
  L 202.23 291.24
  L 280.93 210.93
  L 282.45 209.73
  L 283.89 209.22
  L 285.07 209.23
  L 286.26 209.55
  L 289.54 211.33
  L 290.32 211.81
  L 331.67 236.62
  L 333.46 237.48
  L 335.05 237.78
  L 336.90 237.50
  L 339.20 236.46
  L 346.89 232.43
  L 354.73 228.60
  L 362.72 224.98
  L 370.87 221.57
  L 379.16 218.36
  L 387.60 215.36
  L 396.20 212.56
  L 404.94 209.97
  L 406.06 209.52
  L 406.98 208.87
  L 406.98 208.87
  L 408.00 207.46
  L 408.58 205.57
  L 416.55 159.02
  L 417.16 157.07
  L 418.12 155.79
  L 419.17 155.14
  L 420.42 154.78
  L 424.42 154.59
  L 425.62 154.60
  L 545.62 154.63
  L 547.69 154.92
  L 549.25 155.79
  L 549.25 155.79
  L 550.20 157.04
  L 550.74 158.74
  L 559.41 206.58
  L 559.48 206.87
  L 559.93 207.82
  L 560.65 208.60
  L 561.68 209.28
  L 562.85 209.75
  L 572.14 212.61
  L 572.71 212.79
  L 572.71 212.79
  L 572.71 212.79
  L 587.30 217.74
  L 601.67 223.43
  L 615.80 229.85
  L 629.71 237.01
  L 631.24 237.64
  L 632.77 237.83
  L 632.77 237.83
  L 634.33 237.58
  L 635.88 236.88
  L 657.57 223.62
  L 679.74 209.64
  L 680.70 209.29
  L 681.95 209.22
  L 683.15 209.38
  L 684.88 210.08
  L 686.47 211.32
  L 765.88 290.37
  L 766.53 291.01
  L 768.63 293.20
  L 769.93 294.92
  L 770.70 296.54
  L 770.96 298.08
  L 770.63 300.00
  L 769.63 301.90
  L 756.92 320.58
  L 741.94 343.44
  L 741.28 344.83
  L 741.11 346.19
  L 741.61 347.92
  L 745.83 356.04
  L 749.81 364.21
  L 753.55 372.42
  L 757.04 380.68
  L 760.29 388.99
  L 763.30 397.34
  L 766.07 405.74
  L 768.59 414.19
  L 769.25 415.84
  L 770.14 417.02
  L 771.05 417.73
  L 772.12 418.24
  L 775.54 419.15
  L 776.76 419.42
  L 821.16 429.75
  L 822.77 430.34
  L 824.01 431.29
  L 824.01 431.29
  L 824.01 431.29
  L 824.69 432.19
  L 825.18 433.29
  L 825.47 434.57
  L 825.57 436.04
  L 825.60 556.78
  L 825.52 559.17
  L 825.29 560.90
  L 824.86 562.27
  L 824.20 563.34
  L 823.23 564.22
  L 821.93 564.92
  L 817.58 566.17
  L 771.77 576.50
  L 770.31 577.02
  L 769.16 577.85
  L 769.16 577.85
  L 769.16 577.85
  L 768.40 578.85
  L 767.88 580.09
  L 764.46 591.02
  L 760.70 601.71
  L 756.57 612.18
  L 752.10 622.41
  L 747.28 632.41
  L 742.10 642.18
  L 736.57 651.71
  L 730.69 661.02
  L 730.69 661.02
  L 724.67 669.80
  L 718.31 678.37
  L 711.62 686.72
  L 704.61 694.86
  L 697.26 702.77
  L 689.58 710.47
  L 681.58 717.96
  L 673.24 725.22
  L 666.73 730.55
  L 660.11 735.68
  L 653.38 740.59
  L 646.54 745.29
  L 639.59 749.78
  L 632.54 754.06
  L 625.38 758.13
  L 618.11 761.99
  L 618.11 761.99
  L 618.11 761.99
  L 618.11 761.99
  L 607.86 766.99
  L 597.40 771.59
  L 586.73 775.78
  L 575.86 779.57
  L 561.44 784.13
  L 560.70 784.70
  L 559.74 786.04
  L 559.31 787.05
  L 558.97 788.55
  L 551.39 831.88
  L 550.90 834.20
  L 550.33 835.92
  L 549.62 837.22
  L 548.68 838.24
  L 547.81 838.80
  L 546.75 839.19
  L 544.00 839.50
  L 422.25 839.47
  L 420.26 839.20
  L 418.73 838.38
  L 418.73 838.38
  L 417.67 837.03
  L 417.05 835.15
  L 408.27 787.28
  L 407.81 786.04
  L 407.21 785.29
  L 406.44 784.69
  L 404.18 783.74
  L 391.34 779.72
  L 378.74 775.21
  L 366.37 770.20
  L 354.25 764.70
  L 346.47 760.84
  L 338.79 756.77
  Z
  M 429.54 269.31
  L 418.75 272.17
  L 408.33 275.48
  L 398.27 279.23
  L 388.58 283.41
  L 379.00 288.08
  L 369.73 293.08
  L 360.78 298.39
  L 352.14 304.03
  L 343.82 309.99
  L 335.81 316.27
  L 328.12 322.88
  L 320.75 329.80
  L 320.75 329.80
  L 320.75 329.80
  L 320.75 329.80
  L 313.40 337.37
  L 306.38 345.29
  L 299.72 353.55
  L 293.39 362.17
  L 287.41 371.14
  L 281.77 380.46
  L 276.48 390.12
  L 271.53 400.14
  L 267.49 409.40
  L 263.86 419.03
  L 260.65 429.05
  L 257.84 439.45
  L 255.77 448.70
  L 254.08 457.97
  L 252.76 467.35
  L 251.82 476.73
  L 251.27 486.13
  L 251.09 495.50
  L 251.29 504.94
  L 251.88 514.34
  L 252.73 522.81
  L 253.89 531.23
  L 255.36 539.59
  L 257.12 547.88
  L 259.20 556.13
  L 261.57 564.31
  L 264.24 572.38
  L 267.21 580.36
  L 270.45 588.19
  L 273.98 595.91
  L 277.79 603.51
  L 281.88 610.96
  L 286.22 618.23
  L 290.84 625.35
  L 295.72 632.32
  L 300.86 639.11
  L 305.31 644.58
  L 309.92 649.93
  L 314.71 655.15
  L 319.68 660.24
  L 324.80 665.18
  L 330.09 669.97
  L 335.46 674.55
  L 341.00 678.99
  L 350.10 685.72
  L 359.47 691.97
  L 369.17 697.80
  L 379.11 703.13
  L 389.30 707.99
  L 399.69 712.34
  L 410.27 716.18
  L 421.00 719.51
  L 431.89 722.31
  L 442.90 724.59
  L 454.01 726.34
  L 465.21 727.55
  L 476.44 728.21
  L 487.71 728.33
  L 498.91 727.90
  L 510.11 726.93
  L 517.30 726.01
  L 524.47 724.87
  L 531.63 723.50
  L 538.77 721.89
  L 545.86 720.06
  L 552.86 718.02
  L 559.76 715.76
  L 566.58 713.30
  L 576.99 709.06
  L 587.15 704.33
  L 597.12 699.08
  L 606.81 693.37
  L 616.23 687.19
  L 625.32 680.56
  L 634.08 673.51
  L 642.49 666.04
  L 650.53 658.19
  L 658.18 649.95
  L 665.44 641.34
  L 672.30 632.37
  L 678.71 623.09
  L 684.69 613.48
  L 690.17 603.64
  L 695.20 593.50
  L 698.10 587.03
  L 700.80 580.49
  L 703.32 573.82
  L 705.62 567.09
  L 707.72 560.30
  L 709.60 553.46
  L 711.27 546.60
  L 712.73 539.70
  L 714.21 531.31
  L 715.37 522.89
  L 716.23 514.45
  L 716.78 506.00
  L 717.02 497.49
  L 716.95 489.00
  L 716.57 480.52
  L 715.88 472.06
  L 714.88 463.62
  L 713.57 455.21
  L 711.95 446.86
  L 710.04 438.56
  L 707.83 430.38
  L 705.32 422.27
  L 702.51 414.25
  L 699.41 406.33
  L 695.64 397.70
  L 691.51 389.20
  L 687.08 380.94
  L 682.30 372.83
  L 677.19 364.91
  L 671.73 357.17
  L 666.00 349.69
  L 659.94 342.40
  L 652.70 334.42
  L 645.26 326.98
  L 637.64 320.06
  L 629.82 313.66
  L 620.85 307.00
  L 611.73 300.82
  L 602.46 295.10
  L 593.05 289.84
  L 583.49 285.06
  L 573.79 280.75
  L 563.93 276.90
  L 553.94 273.52
  L 553.94 273.52
  L 544.22 270.72
  L 534.36 268.35
  L 524.37 266.41
  L 514.25 264.91
  L 503.99 263.83
  L 493.60 263.18
  L 483.07 262.96
  L 472.41 263.18
  L 461.88 263.87
  L 451.23 265.13
  L 440.44 266.94
  L 429.54 269.31
  Z"
/>
<circle cx="483.39" cy="310.13" r="11.06"/>
<ellipse cx="0.00" cy="0.00" transform="translate(385.25,338.58) rotate(-88.4)" rx="11.15" ry="10.98"/>
<ellipse cx="0.00" cy="0.00" transform="translate(582.16,338.61) rotate(-85.9)" rx="11.14" ry="10.92"/>
<path d="
  M 494.83 489.70
  L 494.97 490.04
  L 495.31 490.18
  L 559.73 490.22
  L 561.98 490.39
  L 564.08 490.88
  L 566.09 491.71
  L 567.87 492.83
  L 569.40 494.20
  L 570.64 495.79
  L 571.54 497.57
  L 572.09 499.49
  L 572.25 501.63
  L 571.93 503.86
  L 571.16 506.02
  L 569.91 508.18
  L 568.70 509.63
  L 567.37 510.75
  L 565.37 511.81
  L 562.95 512.47
  L 559.97 512.78
  L 555.63 512.83
  L 554.51 512.82
  L 485.58 512.85
  L 482.72 512.77
  L 480.38 512.53
  L 478.56 512.11
  L 477.26 511.52
  L 475.16 509.85
  L 473.74 508.04
  L 472.97 506.38
  L 472.51 504.53
  L 472.25 502.16
  L 472.19 498.95
  L 472.18 391.56
  L 472.38 385.79
  L 472.64 383.85
  L 473.01 382.55
  L 474.07 380.63
  L 475.41 379.03
  L 477.08 377.70
  L 478.95 376.73
  L 481.06 376.11
  L 483.24 375.88
  L 485.44 376.06
  L 487.58 376.65
  L 489.50 377.58
  L 491.24 378.88
  L 492.77 380.59
  L 493.98 382.68
  L 494.63 385.33
  L 494.84 389.46
  L 494.83 489.70
  Z"
/>
<ellipse cx="0.00" cy="0.00" transform="translate(315.52,412.57) rotate(-58.4)" rx="11.19" ry="11.06"/>
<circle cx="651.39" cy="412.60" r="11.11"/>
<circle cx="294.95" cy="503.22" r="11.07"/>
<ellipse cx="0.00" cy="0.00" transform="translate(671.93,503.26) rotate(-94.4)" rx="11.06" ry="10.94"/>
<circle cx="318.10" cy="593.35" r="11.02"/>
<circle cx="648.63" cy="593.45" r="11.05"/>
<circle cx="385.93" cy="658.87" r="11.06"/>
<circle cx="580.92" cy="659.08" r="11.02"/>
<circle cx="483.32" cy="684.70" r="10.98"/>
<path d="
  M 713.30 751.34
  L 704.84 758.90
  L 696.02 766.33
  L 686.82 773.62
  L 677.27 780.78
  L 676.09 781.47
  L 674.89 781.89
  L 673.30 782.04
  L 671.72 781.81
  L 670.10 781.19
  L 668.60 780.25
  L 667.21 779.00
  L 666.06 777.53
  L 665.19 775.92
  L 664.67 774.23
  L 664.52 772.64
  L 664.71 771.14
  L 664.71 771.14
  L 665.14 769.88
  L 665.83 768.68
  L 666.77 767.54
  L 667.97 766.46
  L 688.26 750.07
  L 695.78 743.72
  L 701.54 738.60
  L 707.12 733.26
  L 714.05 726.28
  L 732.02 707.38
  L 733.20 706.27
  L 734.41 705.42
  L 735.66 704.83
  L 736.95 704.50
  L 736.95 704.50
  L 736.95 704.50
  L 738.47 704.44
  L 740.04 704.72
  L 741.68 705.37
  L 743.22 706.37
  L 744.59 707.63
  L 745.72 709.12
  L 746.54 710.69
  L 747.02 712.36
  L 747.13 713.95
  L 746.84 715.52
  L 746.34 716.69
  L 745.55 717.80
  L 737.64 726.75
  L 729.63 735.33
  L 721.52 743.52
  L 713.30 751.34
  Z"
/>
</g>
</svg>
