<?xml version="1.0" encoding="UTF-8" standalone="no"?>
<!DOCTYPE svg PUBLIC "-//W3C//DTD SVG 1.1//EN" "http://www.w3.org/Graphics/SVG/1.1/DTD/svg11.dtd">
<svg xmlns="http://www.w3.org/2000/svg" version="1.1" viewBox="0.00 0.00 894.00 889.00" width="894.00" height="889.00">
<g fill="#00d98b">
<path d="
  M 444.86 0.99
  L 445.00 0.99
  L 460.54 1.21
  L 475.95 1.91
  L 491.23 3.11
  L 506.38 4.79
  L 521.39 6.96
  L 536.28 9.62
  L 551.05 12.76
  L 565.68 16.39
  L 565.68 16.39
  L 565.68 16.39
  L 565.68 16.39
  L 578.12 19.90
  L 590.46 23.76
  L 602.71 27.98
  L 614.87 32.56
  L 626.93 37.49
  L 638.90 42.79
  L 650.77 48.44
  L 662.54 54.45
  L 676.58 62.22
  L 690.33 70.53
  L 703.83 79.42
  L 717.00 88.83
  L 729.90 98.79
  L 742.42 109.24
  L 754.63 120.22
  L 766.42 131.66
  L 777.78 143.52
  L 788.70 155.80
  L 799.16 168.48
  L 809.14 181.53
  L 818.62 194.93
  L 827.58 208.66
  L 835.97 222.63
  L 843.83 236.90
  L 848.83 246.70
  L 853.56 256.57
  L 858.02 266.52
  L 862.22 276.54
  L 866.15 286.65
  L 869.82 296.83
  L 873.21 307.08
  L 876.34 317.42
  L 876.34 317.42
  L 879.62 329.44
  L 882.55 341.57
  L 885.12 353.80
  L 887.33 366.13
  L 889.19 378.57
  L 890.69 391.11
  L 891.84 403.75
  L 892.63 416.49
  L 893.13 431.80
  L 893.14 446.90
  L 892.67 461.80
  L 891.71 476.49
  L 890.04 493.26
  L 887.81 509.81
  L 885.02 526.14
  L 881.66 542.25
  L 877.74 558.14
  L 873.26 573.81
  L 868.21 589.26
  L 862.60 604.50
  L 862.60 604.50
  L 858.07 615.66
  L 853.23 626.71
  L 848.07 637.64
  L 842.61 648.44
  L 836.84 659.13
  L 830.75 669.69
  L 824.36 680.13
  L 817.65 690.45
  L 812.21 698.39
  L 812.21 698.39
  L 803.80 709.99
  L 795.00 721.31
  L 785.81 732.37
  L 776.24 743.15
  L 766.28 753.67
  L 755.94 763.91
  L 745.21 773.89
  L 734.09 783.59
  L 726.68 789.72
  L 719.15 795.68
  L 711.49 801.46
  L 703.70 807.07
  L 695.75 812.53
  L 687.69 817.82
  L 679.52 822.93
  L 671.24 827.85
  L 662.80 832.62
  L 654.26 837.20
  L 645.63 841.59
  L 636.90 845.80
  L 628.04 849.83
  L 619.10 853.67
  L 610.07 857.32
  L 600.97 860.77
  L 591.79 864.02
  L 582.55 867.07
  L 573.24 869.92
  L 563.87 872.57
  L 554.44 875.02
  L 544.95 877.26
  L 535.42 879.30
  L 525.85 881.13
  L 516.25 882.75
  L 506.63 884.16
  L 496.96 885.37
  L 487.27 886.36
  L 477.60 887.14
  L 467.92 887.72
  L 458.21 888.07
  L 448.49 888.22
  L 438.77 888.15
  L 429.06 887.87
  L 419.36 887.38
  L 409.69 886.68
  L 399.99 885.77
  L 390.32 884.64
  L 380.68 883.31
  L 371.08 881.76
  L 361.48 880.01
  L 351.94 878.05
  L 342.44 875.88
  L 332.99 873.51
  L 323.59 870.94
  L 314.26 868.16
  L 304.99 865.19
  L 295.79 862.01
  L 286.66 858.64
  L 277.60 855.07
  L 268.63 851.30
  L 259.73 847.34
  L 250.97 843.21
  L 242.30 838.88
  L 233.73 834.37
  L 225.25 829.67
  L 216.93 824.82
  L 208.72 819.78
  L 200.61 814.56
  L 192.62 809.16
  L 184.79 803.61
  L 177.08 797.89
  L 169.50 792.00
  L 162.04 785.93
  L 150.84 776.31
  L 140.03 766.43
  L 129.61 756.27
  L 119.56 745.84
  L 109.90 735.13
  L 100.63 724.15
  L 91.73 712.90
  L 83.22 701.37
  L 83.22 701.37
  L 83.22 701.37
  L 83.22 701.37
  L 77.72 693.47
  L 70.93 683.21
  L 64.45 672.82
  L 58.28 662.31
  L 52.42 651.67
  L 46.87 640.91
  L 41.63 630.03
  L 36.69 619.02
  L 32.07 607.89
  L 32.07 607.89
  L 32.07 607.89
  L 26.34 592.71
  L 21.16 577.30
  L 16.55 561.66
  L 12.50 545.80
  L 9.01 529.72
  L 6.08 513.41
  L 3.72 496.88
  L 1.92 480.13
  L 0.84 465.44
  L 0.24 450.55
  L 0.13 435.45
  L 0.50 420.14
  L 1.19 407.39
  L 2.24 394.74
  L 3.64 382.19
  L 5.39 369.74
  L 7.50 357.39
  L 9.97 345.14
  L 12.80 332.99
  L 15.98 320.94
  L 15.98 320.94
  L 15.98 320.94
  L 19.03 310.58
  L 22.34 300.29
  L 25.92 290.08
  L 29.77 279.95
  L 33.88 269.89
  L 38.27 259.90
  L 42.92 249.99
  L 47.83 240.15
  L 55.57 225.82
  L 63.85 211.78
  L 72.70 197.98
  L 82.07 184.50
  L 91.94 171.37
  L 102.30 158.61
  L 113.12 146.24
  L 124.38 134.28
  L 136.08 122.75
  L 148.20 111.67
  L 160.63 101.12
  L 173.45 91.05
  L 186.54 81.53
  L 199.97 72.53
  L 213.65 64.11
  L 227.63 56.23
  L 239.35 50.12
  L 251.17 44.37
  L 263.10 38.98
  L 275.12 33.94
  L 287.23 29.27
  L 299.45 24.95
  L 311.76 20.99
  L 324.18 17.38
  L 324.18 17.38
  L 324.18 17.38
  L 324.18 17.38
  L 338.78 13.63
  L 353.51 10.36
  L 368.38 7.59
  L 383.38 5.29
  L 398.52 3.49
  L 413.78 2.17
  L 429.19 1.33
  L 444.72 0.99
  L 444.86 0.99
  Z
  M 337.93 595.07
  L 338.19 594.96
  L 338.30 594.69
  L 338.32 403.34
  L 338.44 399.15
  L 338.83 395.87
  L 339.55 393.12
  L 340.63 390.77
  L 342.16 388.60
  L 344.23 386.55
  L 346.04 385.21
  L 347.95 384.14
  L 351.14 382.97
  L 354.42 382.44
  L 357.82 382.53
  L 361.13 383.23
  L 364.23 384.52
  L 367.03 386.36
  L 369.35 388.63
  L 371.18 391.36
  L 372.01 393.18
  L 372.61 395.14
  L 372.97 397.14
  L 373.09 399.25
  L 373.08 594.17
  L 373.34 594.80
  L 373.96 595.06
  L 398.86 595.06
  L 399.38 594.84
  L 399.60 594.32
  L 399.61 402.99
  L 399.84 397.12
  L 400.14 395.00
  L 400.55 393.44
  L 401.28 391.75
  L 402.65 389.49
  L 404.33 387.51
  L 406.36 385.76
  L 408.62 384.35
  L 411.12 383.28
  L 413.75 382.61
  L 416.36 382.36
  L 419.01 382.52
  L 421.34 382.98
  L 423.50 383.68
  L 425.48 384.61
  L 427.29 385.77
  L 427.29 385.77
  L 427.29 385.77
  L 429.35 387.62
  L 431.13 389.85
  L 432.62 392.48
  L 433.82 395.49
  L 434.00 396.63
  L 434.00 594.06
  L 434.30 594.77
  L 435.01 595.06
  L 459.27 595.06
  L 459.39 595.05
  L 459.77 594.83
  L 459.92 594.41
  L 459.92 406.43
  L 459.98 398.96
  L 460.30 395.17
  L 460.86 393.32
  L 461.59 391.60
  L 462.52 389.95
  L 463.62 388.45
  L 465.90 386.20
  L 468.54 384.46
  L 471.54 383.21
  L 474.74 382.52
  L 478.02 382.42
  L 481.29 382.90
  L 484.36 383.95
  L 487.24 385.56
  L 488.90 386.86
  L 490.42 388.38
  L 490.49 388.47
  L 492.05 390.70
  L 493.16 393.32
  L 493.82 396.34
  L 494.03 399.74
  L 494.00 594.31
  L 494.22 594.85
  L 494.75 595.07
  L 519.82 595.07
  L 519.82 595.07
  L 520.25 594.89
  L 520.43 594.45
  L 520.47 400.50
  L 520.57 398.36
  L 520.87 396.33
  L 521.35 394.40
  L 522.00 392.59
  L 522.85 390.85
  L 523.87 389.26
  L 525.05 387.81
  L 526.37 386.52
  L 529.22 384.54
  L 532.51 383.18
  L 536.07 382.51
  L 539.93 382.51
  L 542.10 382.85
  L 544.17 383.45
  L 546.20 384.35
  L 548.08 385.49
  L 549.77 386.86
  L 551.27 388.45
  L 552.55 390.22
  L 553.59 392.15
  L 554.67 395.44
  L 555.05 399.00
  L 555.06 594.37
  L 555.26 594.86
  L 555.75 595.06
  L 601.01 595.06
  L 601.40 594.90
  L 601.56 594.52
  L 601.56 366.00
  L 601.72 365.58
  L 602.11 365.36
  L 609.10 364.09
  L 612.74 363.23
  L 616.35 362.13
  L 620.01 360.79
  L 623.62 359.22
  L 627.19 357.43
  L 630.68 355.45
  L 634.16 353.23
  L 637.54 350.83
  L 640.83 348.23
  L 643.98 345.47
  L 646.98 342.57
  L 649.83 339.55
  L 652.49 336.40
  L 654.97 333.15
  L 657.25 329.81
  L 659.32 326.40
  L 662.49 320.20
  L 665.11 313.80
  L 667.20 307.11
  L 668.73 300.29
  L 669.72 293.23
  L 670.14 286.12
  L 669.98 278.89
  L 669.26 271.69
  L 667.97 264.54
  L 666.12 257.49
  L 663.72 250.61
  L 660.79 243.92
  L 657.40 237.60
  L 653.50 231.55
  L 649.19 225.90
  L 644.41 220.59
  L 638.82 215.31
  L 632.95 210.61
  L 626.79 206.48
  L 620.35 202.93
  L 620.35 202.93
  L 620.35 202.93
  L 615.00 200.51
  L 609.46 198.46
  L 603.74 196.77
  L 597.84 195.45
  L 592.97 194.71
  L 587.54 194.23
  L 581.56 194.01
  L 575.03 194.05
  L 325.36 194.00
  L 314.84 194.09
  L 306.23 194.35
  L 299.52 194.79
  L 294.71 195.40
  L 290.27 196.34
  L 285.89 197.52
  L 281.58 198.95
  L 277.36 200.60
  L 273.16 202.50
  L 269.07 204.62
  L 265.10 206.96
  L 261.25 209.50
  L 257.53 212.24
  L 253.96 215.17
  L 250.55 218.29
  L 247.31 221.58
  L 244.28 224.99
  L 241.43 228.57
  L 238.78 232.29
  L 236.34 236.15
  L 232.50 243.20
  L 229.27 250.42
  L 226.66 257.77
  L 224.69 265.24
  L 223.38 272.73
  L 222.72 280.27
  L 222.73 287.74
  L 223.41 295.20
  L 224.64 302.08
  L 226.46 308.91
  L 228.84 315.57
  L 231.82 322.15
  L 235.43 328.48
  L 239.82 334.66
  L 244.99 340.68
  L 250.94 346.54
  L 255.83 350.66
  L 260.93 354.29
  L 266.24 357.43
  L 271.76 360.08
  L 271.76 360.08
  L 276.34 361.85
  L 281.06 363.31
  L 285.92 364.45
  L 290.91 365.28
  L 291.20 365.44
  L 291.32 365.75
  L 291.32 594.46
  L 291.50 594.89
  L 291.92 595.07
  L 337.93 595.07
  Z
  M 646.60 623.92
  L 646.50 623.67
  L 646.25 623.57
  L 246.89 623.57
  L 246.64 623.67
  L 246.54 623.92
  L 246.54 670.82
  L 246.64 671.07
  L 246.89 671.17
  L 646.25 671.17
  L 646.50 671.07
  L 646.60 670.82
  L 646.60 623.92
  Z"
/>
<path d="
  M 350.41 347.16
  L 350.22 347.06
  L 350.20 346.84
  L 350.26 346.76
  L 353.43 343.75
  L 356.32 340.50
  L 358.93 337.04
  L 361.24 333.39
  L 363.23 329.60
  L 364.89 325.65
  L 366.22 321.57
  L 367.21 317.37
  L 367.87 312.98
  L 368.14 308.65
  L 368.04 304.38
  L 367.55 300.17
  L 367.55 300.17
  L 367.55 300.17
  L 367.55 300.17
  L 366.35 294.81
  L 364.52 289.54
  L 362.04 284.39
  L 358.92 279.33
  L 355.45 274.98
  L 351.44 271.17
  L 346.87 267.88
  L 341.91 265.21
  L 336.57 263.18
  L 331.00 261.86
  L 325.40 261.28
  L 319.74 261.43
  L 316.28 261.92
  L 312.89 262.74
  L 309.80 263.84
  L 306.90 265.27
  L 304.43 266.90
  L 302.25 268.82
  L 300.48 270.92
  L 299.05 273.30
  L 298.27 275.14
  L 297.69 277.12
  L 297.35 279.14
  L 297.22 281.30
  L 297.46 284.53
  L 298.23 287.55
  L 299.15 289.76
  L 300.35 291.81
  L 301.86 293.77
  L 303.61 295.53
  L 305.59 297.09
  L 307.77 298.44
  L 310.11 299.55
  L 312.61 300.41
  L 312.99 300.47
  L 322.10 300.59
  L 323.29 300.86
  L 324.26 301.59
  L 325.77 303.55
  L 326.84 305.51
  L 327.48 307.46
  L 327.68 309.40
  L 327.68 309.40
  L 327.68 309.40
  L 327.44 311.34
  L 326.76 313.27
  L 325.66 315.20
  L 324.11 317.12
  L 321.34 319.67
  L 318.03 321.88
  L 314.40 323.60
  L 310.34 324.88
  L 306.01 325.65
  L 301.65 325.88
  L 297.39 325.55
  L 293.34 324.69
  L 287.97 322.82
  L 283.09 320.46
  L 278.68 317.60
  L 274.76 314.25
  L 274.76 314.25
  L 274.76 314.25
  L 274.76 314.25
  L 271.53 310.68
  L 268.72 306.67
  L 266.34 302.23
  L 264.37 297.36
  L 263.75 295.21
  L 263.33 292.96
  L 262.97 287.84
  L 263.28 282.01
  L 264.26 275.25
  L 265.67 269.56
  L 266.72 266.59
  L 267.96 263.71
  L 269.37 260.94
  L 270.96 258.27
  L 272.75 255.67
  L 274.71 253.19
  L 279.07 248.63
  L 284.01 244.61
  L 289.44 241.23
  L 295.28 238.51
  L 298.33 237.42
  L 301.46 236.52
  L 305.07 235.84
  L 309.81 235.36
  L 315.68 235.08
  L 322.68 234.99
  L 572.79 235.02
  L 578.95 235.10
  L 584.14 235.37
  L 588.35 235.81
  L 591.59 236.43
  L 597.65 238.39
  L 603.39 241.05
  L 608.74 244.35
  L 613.64 248.26
  L 617.97 252.68
  L 621.71 257.61
  L 623.33 260.24
  L 624.78 262.98
  L 627.09 268.57
  L 627.59 270.15
  L 628.91 275.88
  L 629.83 282.93
  L 630.01 285.87
  L 629.99 288.81
  L 629.77 291.62
  L 629.34 294.41
  L 628.70 297.12
  L 627.86 299.77
  L 626.83 302.27
  L 625.59 304.71
  L 623.77 307.58
  L 621.31 310.86
  L 618.87 313.71
  L 616.44 316.12
  L 614.04 318.09
  L 610.42 320.46
  L 606.61 322.41
  L 606.61 322.41
  L 606.61 322.41
  L 603.78 323.54
  L 600.86 324.46
  L 597.84 325.16
  L 594.72 325.64
  L 591.38 325.84
  L 587.99 325.68
  L 584.60 325.16
  L 581.29 324.29
  L 578.15 323.11
  L 575.20 321.60
  L 572.58 319.85
  L 570.23 317.80
  L 568.44 315.76
  L 567.15 313.71
  L 566.34 311.64
  L 566.02 309.55
  L 566.02 309.55
  L 566.02 309.55
  L 566.02 309.55
  L 566.18 307.54
  L 566.79 305.51
  L 567.84 303.47
  L 569.34 301.41
  L 570.13 300.80
  L 571.11 300.58
  L 579.36 300.58
  L 579.84 300.53
  L 582.75 299.73
  L 585.48 298.62
  L 587.98 297.22
  L 590.25 295.55
  L 592.23 293.62
  L 593.91 291.47
  L 595.21 289.19
  L 596.16 286.74
  L 596.69 284.52
  L 596.92 282.19
  L 596.87 279.87
  L 596.52 277.47
  L 595.57 274.38
  L 594.22 271.82
  L 592.35 269.40
  L 590.12 267.32
  L 587.41 265.46
  L 584.36 263.94
  L 580.93 262.73
  L 577.34 261.94
  L 573.73 261.56
  L 570.33 261.52
  L 566.99 261.71
  L 563.63 262.15
  L 560.36 262.83
  L 557.15 263.74
  L 554.05 264.87
  L 551.05 266.22
  L 548.18 267.78
  L 544.07 270.54
  L 540.28 273.74
  L 536.86 277.36
  L 533.84 281.35
  L 531.27 285.66
  L 529.14 290.29
  L 527.52 295.11
  L 526.38 300.20
  L 525.97 303.22
  L 525.78 306.24
  L 525.78 309.35
  L 525.99 312.45
  L 527.02 318.59
  L 528.86 324.76
  L 531.48 330.77
  L 534.79 336.46
  L 538.80 341.81
  L 543.39 346.66
  L 543.46 346.76
  L 543.43 347.03
  L 543.19 347.16
  L 350.41 347.16
  Z
  M 505.89 289.33
  L 505.75 288.98
  L 505.40 288.84
  L 388.76 288.84
  L 388.41 288.98
  L 388.27 289.33
  L 388.27 320.19
  L 388.41 320.54
  L 388.76 320.68
  L 505.40 320.68
  L 505.75 320.54
  L 505.89 320.19
  L 505.89 289.33
  Z"
/>
</g>
</svg>
