<?xml version="1.0" encoding="UTF-8" standalone="no"?>
<!DOCTYPE svg PUBLIC "-//W3C//DTD SVG 1.1//EN" "http://www.w3.org/Graphics/SVG/1.1/DTD/svg11.dtd">
<svg xmlns="http://www.w3.org/2000/svg" version="1.1" viewBox="0.00 0.00 945.00 946.00" width="945.00" height="946.00">
<g fill="#00d97e">
<path d="
  M 324.29 23.61
  L 324.32 23.53
  L 324.61 23.26
  L 324.92 23.16
  L 326.11 23.11
  L 327.09 22.76
  L 328.02 22.40
  L 328.04 22.39
  L 341.16 18.52
  L 354.35 15.01
  L 367.60 11.85
  L 380.93 9.04
  L 380.93 9.04
  L 380.93 9.04
  L 397.27 6.10
  L 406.04 4.76
  L 411.66 4.11
  L 415.06 3.66
  L 418.63 3.18
  L 421.26 3.12
  L 422.36 3.01
  L 425.54 2.44
  L 429.90 2.19
  L 433.46 2.01
  L 435.98 1.65
  L 439.23 1.32
  L 445.20 1.15
  L 454.43 0.80
  L 462.94 0.45
  L 471.80 0.35
  L 480.99 0.52
  L 490.52 0.95
  L 496.08 1.15
  L 503.97 1.55
  L 506.40 1.82
  L 510.13 2.14
  L 514.00 2.14
  L 516.56 2.41
  L 519.85 3.02
  L 522.87 3.12
  L 524.88 3.19
  L 527.57 3.64
  L 530.29 4.10
  L 532.36 4.19
  L 533.43 4.21
  L 535.54 4.70
  L 536.96 5.06
  L 538.95 5.24
  L 542.23 5.64
  L 545.76 6.20
  L 558.79 8.39
  L 571.70 10.91
  L 584.47 13.77
  L 597.11 16.96
  L 609.63 20.49
  L 622.01 24.35
  L 634.26 28.54
  L 646.39 33.07
  L 646.39 33.07
  L 646.39 33.07
  L 646.39 33.07
  L 661.90 39.44
  L 677.20 46.36
  L 692.27 53.85
  L 707.13 61.90
  L 718.29 68.40
  L 729.27 75.23
  L 740.09 82.36
  L 750.73 89.82
  L 761.20 97.59
  L 771.50 105.69
  L 781.62 114.09
  L 791.58 122.82
  L 798.54 129.26
  L 804.73 135.34
  L 809.70 140.36
  L 820.72 151.70
  L 821.64 152.70
  L 831.95 164.27
  L 841.83 176.14
  L 851.29 188.32
  L 860.32 200.78
  L 860.32 200.78
  L 860.32 200.78
  L 860.32 200.78
  L 866.44 209.78
  L 872.35 218.92
  L 878.05 228.21
  L 883.53 237.64
  L 888.80 247.23
  L 893.86 256.97
  L 898.70 266.85
  L 903.33 276.89
  L 908.39 288.64
  L 913.13 300.51
  L 913.13 300.51
  L 918.59 315.54
  L 923.53 330.77
  L 927.96 346.20
  L 931.88 361.82
  L 934.61 374.43
  L 936.94 387.09
  L 937.34 389.03
  L 937.80 391.35
  L 937.89 393.25
  L 937.89 393.25
  L 938.05 394.23
  L 938.71 396.72
  L 938.86 399.46
  L 939.07 400.76
  L 939.14 400.96
  L 939.14 400.96
  L 939.76 403.54
  L 939.86 406.30
  L 940.01 407.50
  L 940.70 410.71
  L 940.89 414.40
  L 940.99 415.39
  L 941.70 419.54
  L 941.86 423.46
  L 941.95 424.49
  L 942.64 429.08
  L 942.84 433.38
  L 942.94 436.20
  L 943.34 440.07
  L 943.79 445.76
  L 944.07 460.43
  L 944.28 470.81
  L 944.04 484.64
  L 943.83 493.89
  L 943.33 501.02
  L 942.86 508.33
  L 942.67 512.63
  L 942.01 516.50
  L 941.86 518.05
  L 941.75 522.24
  L 941.00 526.24
  L 940.86 527.54
  L 940.88 528.78
  L 940.67 531.62
  L 940.08 534.45
  L 939.90 535.62
  L 939.89 535.82
  L 939.66 538.52
  L 939.16 541.75
  L 938.74 544.31
  L 936.85 556.39
  L 934.61 568.45
  L 932.02 580.49
  L 929.09 592.52
  L 925.81 604.54
  L 922.19 616.54
  L 918.22 628.53
  L 913.90 640.50
  L 908.31 654.69
  L 902.28 668.64
  L 895.82 682.36
  L 888.91 695.84
  L 888.91 695.84
  L 888.91 695.84
  L 882.43 707.57
  L 875.61 719.11
  L 869.16 729.39
  L 862.49 739.45
  L 855.60 749.30
  L 848.49 758.94
  L 841.16 768.37
  L 833.62 777.58
  L 825.85 786.58
  L 817.87 795.36
  L 811.57 801.85
  L 801.42 811.91
  L 792.94 819.99
  L 784.28 827.75
  L 776.25 834.59
  L 768.09 841.25
  L 759.79 847.73
  L 751.36 854.03
  L 751.36 854.03
  L 751.36 854.03
  L 742.80 860.13
  L 734.12 866.05
  L 725.30 871.79
  L 716.35 877.34
  L 704.27 884.36
  L 691.15 891.43
  L 675.81 899.09
  L 660.34 906.16
  L 644.76 912.66
  L 629.07 918.57
  L 613.25 923.91
  L 597.32 928.66
  L 581.26 932.83
  L 565.09 936.42
  L 565.09 936.42
  L 554.51 938.44
  L 544.25 940.18
  L 534.25 941.64
  L 530.06 941.96
  L 529.06 942.10
  L 526.37 942.55
  L 522.76 942.80
  L 517.83 943.26
  L 513.75 943.79
  L 508.98 943.90
  L 507.95 943.98
  L 503.65 944.56
  L 499.36 944.79
  L 499.00 944.79
  L 487.23 945.05
  L 476.32 945.30
  L 468.33 945.24
  L 449.47 944.81
  L 442.86 944.29
  L 438.79 943.91
  L 435.65 943.81
  L 432.40 943.71
  L 429.95 943.29
  L 428.05 942.94
  L 425.48 942.82
  L 422.34 942.64
  L 408.53 940.84
  L 390.63 938.15
  L 373.82 934.88
  L 362.59 932.30
  L 351.46 929.47
  L 340.44 926.40
  L 329.52 923.07
  L 318.71 919.50
  L 308.00 915.68
  L 297.40 911.62
  L 286.90 907.30
  L 286.90 907.30
  L 286.90 907.30
  L 271.18 900.29
  L 255.70 892.70
  L 240.46 884.55
  L 225.47 875.82
  L 214.28 868.83
  L 203.35 861.59
  L 192.67 854.07
  L 182.24 846.30
  L 172.08 838.26
  L 162.16 829.95
  L 152.50 821.38
  L 143.10 812.55
  L 143.10 812.55
  L 143.10 812.55
  L 143.10 812.55
  L 133.27 802.77
  L 123.75 792.68
  L 114.51 782.29
  L 105.57 771.59
  L 96.93 760.59
  L 88.58 749.29
  L 80.52 737.67
  L 72.76 725.76
  L 66.09 714.88
  L 59.74 703.88
  L 53.70 692.77
  L 47.98 681.54
  L 42.58 670.20
  L 37.50 658.74
  L 32.74 647.16
  L 28.29 635.47
  L 28.29 635.47
  L 28.29 635.47
  L 28.29 635.47
  L 28.29 635.47
  L 24.47 624.57
  L 20.91 613.57
  L 17.63 602.47
  L 14.62 591.27
  L 11.88 579.97
  L 9.41 568.58
  L 7.22 557.08
  L 5.29 545.49
  L 4.08 536.45
  L 3.64 533.78
  L 3.18 531.40
  L 3.13 529.64
  L 3.13 528.27
  L 2.87 526.76
  L 2.25 523.07
  L 2.14 519.18
  L 2.04 518.08
  L 1.45 514.21
  L 1.15 508.83
  L 0.80 503.11
  L 0.19 495.76
  L 0.15 454.25
  L 0.28 450.28
  L 0.68 445.09
  L 1.09 439.47
  L 1.14 435.31
  L 1.31 432.55
  L 1.94 427.62
  L 2.21 423.13
  L 2.38 420.58
  L 2.78 418.69
  L 3.08 417.27
  L 3.19 415.29
  L 3.35 412.78
  L 5.12 400.24
  L 8.07 382.69
  L 11.70 365.30
  L 11.70 365.30
  L 11.70 365.30
  L 16.30 346.89
  L 21.68 328.67
  L 27.81 310.61
  L 34.71 292.73
  L 39.26 281.97
  L 44.05 271.34
  L 49.09 260.84
  L 54.37 250.47
  L 54.37 250.47
  L 60.81 238.61
  L 67.57 226.93
  L 74.66 215.41
  L 82.08 204.07
  L 90.02 192.68
  L 98.30 181.56
  L 106.97 170.65
  L 115.97 160.03
  L 125.30 149.68
  L 134.95 139.63
  L 144.97 129.82
  L 155.29 120.31
  L 165.95 111.09
  L 176.89 102.18
  L 188.11 93.61
  L 199.59 85.36
  L 211.38 77.43
  L 223.42 69.84
  L 235.70 62.60
  L 248.21 55.72
  L 262.15 48.61
  L 262.15 48.61
  L 262.15 48.61
  L 276.50 41.91
  L 291.09 35.69
  L 305.92 29.96
  L 320.98 24.72
  L 323.86 23.95
  L 324.29 23.61
  Z
  M 694.23 482.13
  L 721.85 482.13
  L 722.20 481.98
  L 722.35 481.63
  L 722.35 186.77
  L 722.22 185.31
  L 721.85 183.89
  L 720.94 181.74
  L 719.82 179.84
  L 718.51 178.19
  L 717.01 176.79
  L 717.01 176.79
  L 717.01 176.79
  L 717.01 176.79
  L 717.01 176.79
  L 714.80 175.36
  L 712.27 174.34
  L 709.41 173.72
  L 706.24 173.50
  L 585.25 173.47
  L 582.85 173.70
  L 582.85 173.70
  L 580.46 174.42
  L 578.17 175.63
  L 574.98 178.11
  L 573.82 179.37
  L 572.95 180.64
  L 571.70 183.28
  L 570.99 185.51
  L 570.75 187.85
  L 570.75 254.56
  L 570.75 254.61
  L 571.09 254.90
  L 626.15 255.03
  L 626.30 255.04
  L 628.98 255.74
  L 631.47 256.69
  L 633.76 257.89
  L 635.84 259.35
  L 635.84 259.35
  L 637.62 260.94
  L 639.22 262.76
  L 640.65 264.81
  L 641.90 267.07
  L 642.76 268.80
  L 643.28 269.97
  L 643.64 271.34
  L 644.02 274.79
  L 644.14 279.75
  L 644.11 479.77
  L 644.21 480.03
  L 644.47 480.14
  L 644.47 480.14
  L 660.10 480.14
  L 660.52 479.96
  L 660.70 479.53
  L 660.84 420.05
  L 660.93 418.61
  L 661.20 417.32
  L 661.67 416.20
  L 662.32 415.23
  L 662.32 415.23
  L 663.71 414.03
  L 665.56 413.21
  L 666.60 413.05
  L 687.98 413.05
  L 689.37 413.30
  L 690.96 414.10
  L 692.23 415.19
  L 692.23 415.19
  L 693.21 416.65
  L 693.83 418.43
  L 693.87 418.76
  L 693.80 481.71
  L 693.80 481.71
  L 693.93 482.01
  L 694.23 482.13
  Z
  M 375.28 268.13
  L 400.70 268.13
  L 400.71 268.13
  L 401.09 267.96
  L 401.23 267.57
  L 400.93 258.05
  L 400.96 250.56
  L 400.97 247.34
  L 400.79 244.44
  L 400.41 241.85
  L 399.85 239.58
  L 398.84 236.80
  L 397.62 234.19
  L 396.18 231.76
  L 394.53 229.50
  L 394.53 229.50
  L 392.48 227.24
  L 390.18 225.18
  L 387.63 223.33
  L 384.82 221.69
  L 382.89 220.79
  L 381.07 220.15
  L 377.10 218.95
  L 376.26 218.81
  L 286.34 218.81
  L 285.47 218.90
  L 281.93 219.82
  L 278.64 221.07
  L 275.61 222.65
  L 272.83 224.55
  L 272.83 224.55
  L 272.83 224.55
  L 272.83 224.55
  L 270.18 226.90
  L 267.81 229.62
  L 265.73 232.71
  L 263.93 236.15
  L 263.82 236.67
  L 263.75 237.21
  L 263.52 237.58
  L 263.52 237.58
  L 263.27 237.74
  L 262.97 237.99
  L 262.88 238.36
  L 262.74 240.23
  L 262.08 242.49
  L 261.90 243.49
  L 262.25 267.78
  L 262.36 268.03
  L 262.61 268.13
  L 288.68 268.13
  L 289.00 268.00
  L 289.13 267.68
  L 289.13 246.79
  L 289.36 246.02
  L 289.87 245.55
  L 290.54 245.38
  L 373.12 245.38
  L 373.79 245.51
  L 374.36 245.89
  L 374.74 246.45
  L 374.87 247.12
  L 374.87 267.72
  L 374.99 268.01
  L 375.28 268.13
  Z
  M 629.13 479.64
  L 629.13 277.50
  L 628.97 276.12
  L 628.47 274.70
  L 627.65 273.26
  L 626.50 271.78
  L 624.72 270.25
  L 623.55 269.62
  L 622.26 269.18
  L 619.61 268.63
  L 617.24 268.44
  L 523.25 268.46
  L 518.94 268.64
  L 516.03 269.17
  L 513.62 270.21
  L 511.63 271.70
  L 511.63 271.70
  L 510.16 273.48
  L 509.06 275.63
  L 508.85 276.46
  L 508.47 282.50
  L 508.56 417.03
  L 508.71 421.63
  L 508.87 426.86
  L 509.00 427.87
  L 509.72 431.34
  L 509.87 434.41
  L 510.10 435.36
  L 510.74 437.18
  L 510.85 439.47
  L 511.10 440.43
  L 511.18 440.56
  L 511.66 441.71
  L 511.85 443.03
  L 512.20 443.92
  L 514.11 445.83
  L 515.51 446.73
  L 525.49 450.59
  L 535.25 455.07
  L 536.56 455.30
  L 538.84 455.16
  L 539.71 454.82
  L 545.27 450.75
  L 550.30 446.81
  L 552.89 444.93
  L 555.64 443.39
  L 555.64 443.39
  L 558.03 442.37
  L 558.97 442.17
  L 563.46 442.09
  L 566.44 442.46
  L 569.16 443.42
  L 571.93 444.97
  L 572.64 445.48
  L 587.11 458.88
  L 601.67 473.39
  L 604.64 476.88
  L 607.03 479.75
  L 607.42 480.04
  L 607.90 480.14
  L 628.64 480.14
  L 628.99 479.99
  L 629.13 479.64
  Z
  M 358.44 370.16
  L 371.59 368.29
  L 373.05 368.14
  L 373.94 368.13
  L 376.17 367.70
  L 378.03 367.24
  L 379.85 366.97
  L 395.62 364.46
  L 412.01 361.58
  L 429.04 358.33
  L 446.70 354.70
  L 473.82 348.18
  L 474.67 347.84
  L 476.54 346.46
  L 477.96 344.79
  L 478.64 343.53
  L 479.12 342.15
  L 479.41 340.65
  L 479.50 339.01
  L 479.49 292.50
  L 479.37 290.23
  L 478.98 288.11
  L 478.33 286.16
  L 477.42 284.37
  L 475.23 281.42
  L 472.63 279.01
  L 469.61 277.16
  L 468.00 276.58
  L 465.88 276.17
  L 460.06 275.85
  L 197.87 275.87
  L 197.15 275.97
  L 194.47 276.88
  L 192.06 278.05
  L 189.91 279.47
  L 188.03 281.14
  L 185.93 283.76
  L 184.30 286.82
  L 183.70 288.67
  L 183.28 290.98
  L 183.05 293.73
  L 183.00 296.94
  L 183.08 313.69
  L 182.96 334.75
  L 183.17 340.50
  L 183.49 342.51
  L 183.94 343.93
  L 184.43 344.79
  L 185.96 346.55
  L 187.77 347.73
  L 189.03 348.18
  L 208.12 352.69
  L 229.23 357.11
  L 252.90 361.58
  L 283.05 366.82
  L 285.45 367.09
  L 288.12 367.40
  L 289.77 367.91
  L 290.82 368.14
  L 294.41 368.26
  L 297.68 368.97
  L 298.84 369.10
  L 301.27 369.20
  L 305.53 369.76
  L 305.57 369.77
  L 305.97 369.63
  L 306.14 369.24
  L 306.14 355.07
  L 306.26 354.40
  L 307.12 352.60
  L 308.30 351.14
  L 308.30 351.14
  L 308.30 351.14
  L 309.73 350.04
  L 311.44 349.25
  L 312.07 349.14
  L 349.31 349.10
  L 352.41 349.31
  L 354.60 349.96
  L 355.42 350.47
  L 356.21 351.19
  L 356.87 352.09
  L 357.81 354.41
  L 357.86 354.83
  L 357.86 369.65
  L 357.86 369.68
  L 358.05 370.04
  L 358.44 370.16
  Z
  M 479.44 408.54
  L 479.44 362.06
  L 479.42 361.94
  L 479.42 361.94
  L 479.17 361.69
  L 478.82 361.75
  L 476.27 363.37
  L 473.58 364.61
  L 473.58 364.61
  L 473.05 364.80
  L 467.68 366.50
  L 461.79 368.09
  L 455.37 369.54
  L 448.42 370.88
  L 420.03 375.77
  L 384.34 381.68
  L 382.88 381.86
  L 381.25 382.06
  L 380.08 382.39
  L 378.88 382.69
  L 377.12 382.84
  L 375.26 383.00
  L 373.94 383.33
  L 371.65 383.82
  L 370.99 383.82
  L 369.14 383.91
  L 366.61 384.36
  L 364.35 384.77
  L 362.73 384.89
  L 358.67 384.87
  L 358.10 385.11
  L 357.87 385.68
  L 357.87 401.51
  L 357.68 402.45
  L 356.69 404.18
  L 355.47 405.43
  L 354.33 406.10
  L 353.04 406.54
  L 351.56 406.79
  L 349.68 406.87
  L 318.22 406.85
  L 317.20 406.86
  L 314.02 406.83
  L 311.90 406.62
  L 310.20 406.15
  L 308.89 405.44
  L 307.41 403.92
  L 306.22 401.58
  L 306.14 401.13
  L 306.14 385.32
  L 305.98 384.94
  L 305.61 384.80
  L 305.61 384.80
  L 305.59 384.80
  L 302.64 384.90
  L 299.84 384.80
  L 297.22 384.50
  L 294.75 383.99
  L 293.76 383.87
  L 291.43 383.77
  L 289.68 383.37
  L 288.37 383.02
  L 286.63 382.84
  L 284.77 382.65
  L 192.13 366.75
  L 190.21 366.19
  L 187.55 365.06
  L 185.85 363.98
  L 183.71 362.11
  L 183.35 362.01
  L 183.07 362.24
  L 183.04 362.39
  L 183.10 461.58
  L 183.12 461.88
  L 183.95 466.27
  L 183.98 466.38
  L 185.27 469.00
  L 186.77 471.36
  L 188.50 473.46
  L 190.43 475.31
  L 190.43 475.31
  L 190.43 475.31
  L 193.36 477.37
  L 196.68 478.97
  L 199.62 479.85
  L 202.43 480.14
  L 334.86 480.14
  L 335.47 479.97
  L 335.92 479.52
  L 336.62 478.24
  L 336.85 477.94
  L 350.52 464.12
  L 365.77 449.03
  L 367.70 447.28
  L 369.67 445.75
  L 371.68 444.45
  L 373.74 443.38
  L 376.30 442.46
  L 378.89 442.05
  L 380.96 442.08
  L 382.95 442.36
  L 384.78 442.81
  L 386.45 443.44
  L 387.97 444.25
  L 390.30 445.84
  L 392.83 447.86
  L 398.50 453.18
  L 400.19 454.73
  L 403.08 456.76
  L 404.50 457.21
  L 405.94 456.88
  L 419.24 450.07
  L 421.12 449.35
  L 422.38 449.09
  L 423.29 448.80
  L 424.35 447.98
  L 425.32 446.83
  L 425.94 445.56
  L 426.17 444.56
  L 427.58 434.53
  L 429.18 424.84
  L 429.72 423.09
  L 430.21 421.31
  L 430.22 421.14
  L 430.49 420.11
  L 431.68 418.14
  L 433.11 416.39
  L 433.11 416.39
  L 433.11 416.39
  L 435.40 414.39
  L 438.11 412.78
  L 441.00 411.75
  L 443.97 411.00
  L 448.49 410.14
  L 455.19 409.54
  L 462.47 409.19
  L 470.32 409.08
  L 478.76 409.21
  L 479.24 409.02
  L 479.44 408.54
  L 479.44 408.54
  L 479.44 408.54
  Z
  M 318.87 556.72
  L 318.72 557.52
  L 318.31 558.02
  L 317.98 558.44
  L 317.86 558.96
  L 317.86 601.89
  L 318.04 602.36
  L 320.96 605.84
  L 321.65 606.15
  L 324.61 606.29
  L 327.76 606.93
  L 328.32 607.04
  L 348.55 609.29
  L 348.97 609.41
  L 350.38 610.29
  L 351.34 611.43
  L 351.34 611.43
  L 351.34 611.43
  L 351.73 612.36
  L 351.90 613.42
  L 352.00 613.95
  L 353.78 619.13
  L 355.79 624.21
  L 355.79 624.21
  L 358.19 629.51
  L 360.85 634.69
  L 363.77 639.76
  L 366.96 644.72
  L 367.29 645.45
  L 367.35 646.24
  L 367.15 647.01
  L 366.71 647.67
  L 353.42 661.27
  L 352.00 662.85
  L 350.97 664.38
  L 350.26 665.97
  L 349.88 667.67
  L 349.92 669.84
  L 350.29 671.11
  L 351.06 672.54
  L 352.22 674.11
  L 353.77 675.83
  L 373.85 695.99
  L 376.13 697.95
  L 378.13 699.00
  L 380.07 699.39
  L 382.63 699.35
  L 383.69 699.05
  L 385.04 698.31
  L 388.67 695.51
  L 401.19 684.74
  L 401.97 684.28
  L 402.85 684.09
  L 403.75 684.18
  L 404.58 684.55
  L 407.72 686.46
  L 411.01 688.18
  L 417.79 691.28
  L 424.47 693.99
  L 425.57 694.21
  L 426.30 694.34
  L 426.63 694.65
  L 426.64 694.66
  L 427.18 695.03
  L 428.07 695.14
  L 429.07 695.27
  L 429.86 695.67
  L 429.99 695.79
  L 430.47 696.08
  L 431.04 696.15
  L 432.05 696.25
  L 433.13 696.74
  L 434.47 697.18
  L 436.06 697.42
  L 437.46 697.86
  L 438.66 698.48
  L 439.67 699.30
  L 439.67 699.30
  L 439.67 699.30
  L 439.67 699.30
  L 440.95 701.15
  L 441.66 703.55
  L 443.60 714.88
  L 443.65 715.15
  L 443.85 716.84
  L 444.09 718.62
  L 444.49 719.83
  L 444.91 723.74
  L 445.18 724.63
  L 445.73 726.22
  L 445.81 728.16
  L 446.11 728.98
  L 449.14 732.00
  L 449.51 732.16
  L 493.14 732.16
  L 494.12 731.86
  L 494.61 731.51
  L 494.61 731.51
  L 496.47 729.64
  L 497.91 727.20
  L 498.15 725.97
  L 498.17 722.05
  L 498.62 719.08
  L 499.06 715.45
  L 499.24 713.23
  L 499.65 711.65
  L 500.02 710.15
  L 500.21 707.94
  L 500.41 705.63
  L 500.80 703.99
  L 501.15 701.09
  L 501.30 700.27
  L 501.30 700.27
  L 501.91 699.28
  L 502.97 698.45
  L 503.15 698.36
  L 504.60 698.14
  L 506.01 697.91
  L 506.36 697.69
  L 506.97 697.39
  L 515.61 694.80
  L 523.93 691.52
  L 523.93 691.52
  L 529.98 688.61
  L 535.85 685.31
  L 536.52 685.13
  L 538.91 685.13
  L 539.52 685.23
  L 540.07 685.53
  L 554.15 696.88
  L 555.87 698.23
  L 557.58 699.17
  L 559.28 699.72
  L 560.96 699.86
  L 560.96 699.86
  L 562.96 699.50
  L 564.41 698.82
  L 566.13 697.62
  L 570.41 693.66
  L 587.21 676.65
  L 589.14 674.65
  L 590.60 672.87
  L 591.57 671.31
  L 592.06 669.97
  L 592.24 668.17
  L 592.04 666.46
  L 591.15 664.27
  L 589.56 662.25
  L 575.55 648.18
  L 575.16 647.61
  L 574.99 646.94
  L 575.05 646.26
  L 575.34 645.63
  L 579.74 638.84
  L 583.65 631.87
  L 587.07 624.72
  L 589.99 617.40
  L 589.99 617.40
  L 589.99 617.40
  L 592.06 611.10
  L 592.38 610.41
  L 592.90 609.84
  L 593.55 609.45
  L 594.29 609.26
  L 606.74 608.00
  L 606.89 607.97
  L 610.49 607.23
  L 614.47 607.16
  L 614.71 607.14
  L 621.06 606.08
  L 621.58 605.87
  L 622.10 605.50
  L 623.02 604.64
  L 623.81 603.61
  L 624.09 602.76
  L 624.29 600.83
  L 624.56 597.75
  L 624.64 577.45
  L 624.50 562.02
  L 624.50 561.91
  L 624.25 558.32
  L 623.92 557.15
  L 623.36 556.11
  L 622.53 555.21
  L 621.36 554.44
  L 619.77 553.95
  L 617.48 553.84
  L 615.45 553.76
  L 614.02 553.42
  L 612.30 552.98
  L 609.93 552.80
  L 607.86 552.66
  L 606.35 552.35
  L 604.65 551.99
  L 602.39 551.82
  L 599.92 551.62
  L 598.06 551.16
  L 597.16 550.99
  L 596.77 550.99
  L 594.75 550.91
  L 593.24 550.64
  L 592.01 550.12
  L 591.15 549.38
  L 590.47 548.05
  L 588.45 541.66
  L 586.05 535.43
  L 586.05 535.43
  L 586.05 535.43
  L 582.56 527.97
  L 578.47 520.76
  L 575.30 515.28
  L 575.08 514.59
  L 575.14 513.36
  L 575.14 513.36
  L 575.50 512.47
  L 576.14 511.65
  L 587.55 500.25
  L 589.61 498.10
  L 591.01 496.22
  L 591.91 494.38
  L 592.27 492.67
  L 592.24 491.47
  L 591.97 490.22
  L 591.46 488.90
  L 590.69 487.50
  L 588.96 485.38
  L 568.54 465.06
  L 565.54 462.52
  L 564.12 461.59
  L 563.11 461.14
  L 560.94 460.78
  L 558.90 460.98
  L 558.90 460.98
  L 557.17 461.64
  L 555.55 462.76
  L 543.49 473.46
  L 541.37 475.02
  L 538.51 476.48
  L 538.03 476.58
  L 537.55 476.47
  L 533.74 474.51
  L 526.47 470.52
  L 519.39 467.34
  L 511.55 464.48
  L 502.98 461.82
  L 502.18 461.47
  L 501.51 460.92
  L 501.01 460.20
  L 500.72 459.38
  L 499.11 449.14
  L 497.30 439.29
  L 494.86 429.92
  L 493.98 428.53
  L 492.19 427.13
  L 491.29 426.88
  L 451.74 426.89
  L 450.39 427.08
  L 449.02 427.66
  L 447.64 428.61
  L 446.25 429.95
  L 446.10 430.21
  L 444.87 433.81
  L 444.84 434.06
  L 444.72 435.68
  L 444.15 437.34
  L 443.91 438.29
  L 443.36 442.10
  L 442.95 444.40
  L 442.84 446.27
  L 442.66 448.24
  L 442.04 450.30
  L 442.00 450.44
  L 440.68 459.12
  L 440.52 459.55
  L 440.21 460.01
  L 440.21 460.01
  L 440.21 460.01
  L 439.26 461.09
  L 438.08 462.00
  L 436.67 462.74
  L 435.03 463.32
  L 426.71 466.00
  L 426.71 466.00
  L 421.50 468.04
  L 416.39 470.34
  L 411.36 472.90
  L 406.43 475.71
  L 405.52 476.13
  L 404.53 476.33
  L 403.53 476.31
  L 402.55 476.06
  L 400.77 475.10
  L 398.60 473.41
  L 389.76 465.54
  L 386.14 462.73
  L 384.57 461.88
  L 383.16 461.41
  L 381.13 461.20
  L 379.23 461.47
  L 377.52 462.21
  L 375.94 463.41
  L 353.61 485.51
  L 351.96 487.34
  L 350.82 489.01
  L 350.11 490.62
  L 349.81 492.28
  L 349.86 493.41
  L 350.12 494.58
  L 351.31 497.07
  L 351.38 497.17
  L 366.10 511.85
  L 366.70 512.70
  L 366.98 513.69
  L 366.92 514.72
  L 366.52 515.67
  L 363.32 520.88
  L 360.40 526.07
  L 357.76 531.24
  L 355.39 536.39
  L 354.27 539.20
  L 353.68 541.21
  L 353.31 541.75
  L 353.05 541.95
  L 352.90 542.59
  L 352.82 543.72
  L 352.39 544.47
  L 352.39 544.47
  L 352.19 544.61
  L 351.88 545.16
  L 351.88 546.83
  L 351.75 547.37
  L 351.40 547.80
  L 350.89 548.51
  L 350.82 549.30
  L 350.82 549.30
  L 350.39 549.93
  L 349.60 550.43
  L 346.88 551.28
  L 343.41 551.76
  L 338.56 552.34
  L 338.49 552.37
  L 337.03 552.77
  L 335.08 552.88
  L 332.05 553.20
  L 328.87 553.74
  L 324.30 554.01
  L 323.83 554.04
  L 323.83 554.04
  L 321.53 554.59
  L 319.29 555.86
  L 318.97 556.24
  L 318.87 556.72
  Z
  M 708.12 496.48
  L 694.32 496.48
  L 694.32 496.48
  L 693.88 496.67
  L 693.70 497.12
  L 693.67 566.00
  L 693.66 566.30
  L 693.66 566.30
  L 693.66 566.30
  L 693.38 567.43
  L 692.73 568.53
  L 691.71 569.60
  L 690.32 570.64
  L 689.56 570.99
  L 688.73 571.11
  L 642.01 571.11
  L 641.44 571.34
  L 641.21 571.91
  L 641.21 585.57
  L 641.37 585.96
  L 641.75 586.12
  L 690.64 586.12
  L 691.35 585.91
  L 692.37 585.39
  L 693.42 585.14
  L 693.42 585.14
  L 694.13 585.13
  L 694.96 584.83
  L 697.11 583.74
  L 699.23 582.53
  L 701.16 581.02
  L 702.88 579.39
  L 704.40 577.63
  L 705.71 575.74
  L 705.71 575.74
  L 705.71 575.74
  L 707.41 572.39
  L 708.08 570.15
  L 708.56 567.25
  L 708.84 563.67
  L 708.92 559.42
  L 708.88 497.24
  L 708.66 496.70
  L 708.12 496.48
  Z
  M 300.60 585.65
  L 300.60 571.68
  L 300.60 571.68
  L 300.42 571.24
  L 299.98 571.07
  L 253.78 571.04
  L 249.37 571.07
  L 245.68 571.31
  L 242.71 571.75
  L 240.45 572.40
  L 236.98 574.11
  L 233.96 576.33
  L 233.96 576.33
  L 233.96 576.33
  L 232.12 578.18
  L 230.50 580.27
  L 229.10 582.61
  L 227.91 585.19
  L 226.99 588.56
  L 226.67 592.50
  L 226.63 654.14
  L 226.69 654.28
  L 226.83 654.34
  L 241.05 654.34
  L 241.54 654.14
  L 241.74 653.65
  L 241.72 595.00
  L 242.22 590.19
  L 242.57 589.29
  L 244.11 587.63
  L 244.11 587.63
  L 245.47 586.77
  L 247.04 586.18
  L 247.46 586.13
  L 300.13 586.13
  L 300.46 585.99
  L 300.60 585.65
  Z
  M 361.83 713.94
  L 362.21 713.74
  L 362.25 713.32
  L 362.15 713.17
  L 348.21 699.23
  L 347.36 698.88
  L 268.99 698.88
  L 268.52 698.72
  L 268.23 698.31
  L 268.13 697.09
  L 267.98 695.58
  L 267.92 695.38
  L 266.43 691.66
  L 264.63 688.22
  L 262.53 685.06
  L 260.13 682.18
  L 256.42 678.75
  L 252.15 675.84
  L 247.11 673.28
  L 244.96 672.50
  L 243.06 672.05
  L 238.43 670.97
  L 237.81 670.87
  L 228.51 670.87
  L 227.50 671.12
  L 226.10 671.65
  L 224.49 671.86
  L 223.78 671.97
  L 219.72 673.42
  L 215.98 675.23
  L 212.55 677.37
  L 209.44 679.87
  L 209.44 679.87
  L 209.44 679.87
  L 206.60 682.76
  L 204.08 686.01
  L 201.88 689.62
  L 200.01 693.58
  L 199.77 694.53
  L 199.59 695.05
  L 199.20 695.50
  L 198.93 695.87
  L 198.88 696.32
  L 198.72 698.06
  L 197.89 700.41
  L 197.81 700.81
  L 197.81 712.84
  L 197.95 713.29
  L 198.54 714.39
  L 198.84 715.53
  L 198.86 716.64
  L 199.14 717.40
  L 199.36 717.64
  L 199.36 717.64
  L 199.73 718.33
  L 199.88 719.19
  L 200.02 719.79
  L 201.98 723.80
  L 204.27 727.44
  L 206.89 730.71
  L 209.83 733.60
  L 209.83 733.60
  L 209.83 733.60
  L 212.17 735.47
  L 214.68 737.14
  L 217.36 738.62
  L 220.22 739.90
  L 223.38 740.99
  L 225.56 741.32
  L 227.31 741.87
  L 228.95 742.13
  L 238.48 742.13
  L 239.53 741.91
  L 242.00 741.20
  L 243.43 741.11
  L 243.94 741.01
  L 244.35 740.70
  L 245.04 740.31
  L 246.21 740.12
  L 246.80 740.00
  L 247.20 739.72
  L 247.20 739.72
  L 247.22 739.70
  L 248.57 739.00
  L 249.60 738.59
  L 252.64 736.87
  L 255.45 734.93
  L 258.02 732.79
  L 260.36 730.43
  L 262.38 727.96
  L 264.19 725.29
  L 265.77 722.44
  L 267.14 719.38
  L 267.95 716.91
  L 268.23 714.84
  L 268.50 714.20
  L 269.13 713.94
  L 361.83 713.94
  Z
  M 579.37 713.95
  L 675.29 713.95
  L 675.76 714.11
  L 676.04 714.53
  L 677.17 718.29
  L 678.61 721.82
  L 680.36 725.11
  L 682.42 728.17
  L 682.42 728.17
  L 682.42 728.17
  L 684.70 730.90
  L 687.28 733.41
  L 690.14 735.71
  L 693.29 737.79
  L 695.18 738.75
  L 697.86 739.84
  L 700.54 740.95
  L 701.31 741.13
  L 702.86 741.33
  L 704.44 741.92
  L 705.32 742.13
  L 715.68 742.13
  L 717.13 741.86
  L 718.94 741.33
  L 720.89 741.08
  L 721.72 740.92
  L 726.66 738.91
  L 731.10 736.45
  L 735.01 733.53
  L 738.41 730.17
  L 738.41 730.17
  L 738.41 730.17
  L 738.41 730.17
  L 741.25 726.44
  L 743.59 722.28
  L 745.44 717.69
  L 746.79 712.66
  L 747.12 710.14
  L 747.17 706.70
  L 747.18 704.38
  L 747.02 701.47
  L 746.39 698.22
  L 745.19 694.25
  L 743.64 690.56
  L 741.75 687.14
  L 739.52 683.99
  L 739.52 683.99
  L 739.52 683.99
  L 739.52 683.99
  L 736.59 680.78
  L 733.23 677.92
  L 729.43 675.41
  L 725.20 673.25
  L 722.54 672.31
  L 719.42 671.68
  L 717.21 671.12
  L 716.37 670.97
  L 712.39 670.78
  L 708.54 670.91
  L 704.81 671.35
  L 701.22 672.12
  L 700.81 672.32
  L 700.53 672.50
  L 699.19 672.85
  L 698.07 673.18
  L 692.76 675.87
  L 690.54 677.29
  L 688.61 678.76
  L 685.77 681.37
  L 683.26 684.16
  L 681.09 687.12
  L 679.24 690.25
  L 677.94 693.03
  L 676.98 695.74
  L 676.41 698.33
  L 676.20 698.72
  L 675.78 698.88
  L 593.92 698.88
  L 593.05 699.24
  L 579.07 713.22
  L 578.95 713.61
  L 579.21 713.92
  L 579.37 713.95
  Z"
/>
<rect x="-20.25" y="-9.85" transform="translate(618.71,222.48) rotate(0.1)" width="40.50" height="19.70" rx="6.60"/>
<rect x="660.09" y="212.64" width="37.16" height="19.70" rx="6.29"/>
<rect x="-18.55" y="-9.97" transform="translate(678.62,270.87) rotate(0.2)" width="37.10" height="19.94" rx="6.27"/>
<rect x="-14.23" y="-10.72" transform="translate(545.61,313.74) rotate(0.1)" width="28.46" height="21.44" rx="5.11"/>
<rect x="-14.11" y="-10.72" transform="translate(592.30,313.72) rotate(0.1)" width="28.22" height="21.44" rx="4.98"/>
<rect x="-18.59" y="-10.04" transform="translate(678.66,320.76) rotate(0.2)" width="37.18" height="20.08" rx="6.30"/>
<rect x="531.42" y="349.15" width="28.44" height="21.72" rx="5.37"/>
<rect x="578.17" y="349.14" width="28.32" height="21.72" rx="5.28"/>
<rect x="660.13" y="361.12" width="37.08" height="20.20" rx="6.39"/>
<rect x="531.37" y="395.10" width="28.46" height="21.54" rx="5.14"/>
<rect x="578.16" y="395.09" width="28.24" height="21.52" rx="4.99"/>
<path d="
  M 570.8119 572.7996
  L 571.0659 577.5608
  L 571.0793 582.3294
  L 570.8520 587.0939
  L 570.3846 591.8429
  L 569.6783 596.5649
  L 568.7347 601.2485
  L 567.5561 605.8825
  L 566.1453 610.4557
  L 564.5058 614.9570
  L 562.6415 619.3757
  L 560.5568 623.7010
  L 558.2569 627.9227
  L 555.7472 632.0304
  L 553.0338 636.0143
  L 550.1233 639.8648
  L 547.0226 643.5726
  L 543.7392 647.1288
  L 540.2810 650.5248
  L 536.6564 653.7525
  L 532.8740 656.8041
  L 528.9431 659.6721
  L 524.8730 662.3498
  L 520.6736 664.8306
  L 516.3550 667.1086
  L 511.9276 669.1783
  L 507.4021 671.0347
  L 502.7893 672.6733
  L 498.1003 674.0902
  L 493.3466 675.2820
  L 488.5395 676.2457
  L 483.6906 676.9792
  L 478.8115 677.4805
  L 473.9141 677.7486
  L 469.0102 677.7827
  L 464.1114 677.5828
  L 459.2298 677.1494
  L 454.3770 676.4834
  L 449.5646 675.5866
  L 444.8044 674.4610
  L 440.1077 673.1094
  L 435.4859 671.5350
  L 430.9501 669.7417
  L 426.5113 667.7337
  L 422.1801 665.5159
  L 417.9669 663.0936
  L 413.8820 660.4727
  L 409.9352 657.6594
  L 406.1359 654.6606
  L 402.4933 651.4835
  L 399.0162 648.1357
  L 395.7130 644.6253
  L 392.5917 640.9608
  L 389.6596 637.1509
  L 386.9240 633.2050
  L 384.3914 629.1323
  L 382.0679 624.9429
  L 379.9592 620.6467
  L 378.0701 616.2541
  L 376.4055 611.7758
  L 374.9691 607.2224
  L 373.7646 602.6050
  L 372.7948 597.9347
  L 372.0620 593.2227
  L 371.5681 588.4804
  L 371.5681 588.4804
  L 371.3141 583.7192
  L 371.3007 578.9506
  L 371.5280 574.1861
  L 371.9954 569.4371
  L 372.7017 564.7151
  L 373.6453 560.0315
  L 374.8239 555.3975
  L 376.2347 550.8243
  L 377.8742 546.3230
  L 379.7385 541.9043
  L 381.8232 537.5790
  L 384.1231 533.3573
  L 386.6328 529.2496
  L 389.3462 525.2657
  L 392.2567 521.4152
  L 395.3574 517.7074
  L 398.6408 514.1512
  L 402.0990 510.7552
  L 405.7236 507.5275
  L 409.5060 504.4759
  L 413.4369 501.6079
  L 417.5070 498.9302
  L 421.7064 496.4494
  L 426.0250 494.1714
  L 430.4524 492.1017
  L 434.9779 490.2453
  L 439.5907 488.6067
  L 444.2797 487.1898
  L 449.0334 485.9980
  L 453.8405 485.0343
  L 458.6894 484.3008
  L 463.5685 483.7995
  L 468.4659 483.5314
  L 473.3698 483.4973
  L 478.2686 483.6972
  L 483.1502 484.1306
  L 488.0030 484.7966
  L 492.8154 485.6934
  L 497.5756 486.8190
  L 502.2723 488.1706
  L 506.8941 489.7450
  L 511.4299 491.5383
  L 515.8687 493.5463
  L 520.1999 495.7641
  L 524.4131 498.1864
  L 528.4980 500.8073
  L 532.4448 503.6206
  L 536.2441 506.6194
  L 539.8867 509.7965
  L 543.3638 513.1443
  L 546.6670 516.6547
  L 549.7883 520.3192
  L 552.7204 524.1291
  L 555.4560 528.0750
  L 557.9886 532.1477
  L 560.3121 536.3371
  L 562.4208 540.6333
  L 564.3099 545.0259
  L 565.9745 549.5042
  L 567.4109 554.0576
  L 568.6154 558.6750
  L 569.5852 563.3453
  L 570.3180 568.0573
  L 570.8119 572.7996
  Z
  M 390.25 575.13
  L 435.94 575.13
  L 436.28 575.27
  L 436.42 575.61
  L 436.42 586.12
  L 436.32 586.44
  L 435.84 586.70
  L 390.29 586.70
  L 389.98 586.83
  L 389.85 587.14
  L 389.86 601.82
  L 389.97 602.34
  L 390.27 602.77
  L 390.58 603.24
  L 390.79 604.11
  L 391.01 604.73
  L 391.45 605.23
  L 393.94 606.72
  L 393.94 606.72
  L 396.48 607.53
  L 399.26 607.82
  L 435.99 607.86
  L 436.29 608.15
  L 436.75 615.95
  L 436.97 616.76
  L 439.10 620.67
  L 440.55 622.45
  L 442.34 624.29
  L 446.93 628.12
  L 450.67 630.67
  L 455.15 633.28
  L 460.36 635.95
  L 466.31 638.68
  L 467.37 638.96
  L 472.23 639.30
  L 473.80 639.25
  L 474.78 639.05
  L 480.42 636.61
  L 486.04 633.66
  L 491.65 630.20
  L 497.24 626.23
  L 500.15 623.71
  L 502.54 620.99
  L 504.37 618.07
  L 505.52 615.13
  L 505.88 612.69
  L 505.99 608.85
  L 506.08 553.13
  L 505.89 545.72
  L 505.54 543.01
  L 505.04 540.96
  L 503.68 537.78
  L 501.90 534.90
  L 501.90 534.90
  L 501.90 534.90
  L 500.20 532.86
  L 498.23 531.01
  L 495.43 528.89
  L 491.67 526.41
  L 481.23 520.35
  L 473.67 516.30
  L 472.74 515.97
  L 470.71 515.73
  L 469.25 516.01
  L 458.82 521.18
  L 450.77 525.86
  L 446.34 529.16
  L 441.89 533.31
  L 440.10 535.40
  L 438.87 537.38
  L 437.57 540.24
  L 436.96 542.08
  L 436.57 545.23
  L 436.38 549.84
  L 436.54 563.40
  L 436.54 563.41
  L 436.40 563.75
  L 436.06 563.89
  L 400.13 563.86
  L 397.70 564.04
  L 395.43 564.54
  L 393.42 565.34
  L 391.91 566.37
  L 391.19 567.18
  L 390.61 568.20
  L 389.87 570.87
  L 389.75 574.63
  L 389.75 574.63
  L 389.89 574.98
  L 390.25 575.13
  Z
  M 552.30 596.83
  L 553.40 593.89
  L 554.06 591.51
  L 554.09 577.28
  L 553.92 575.79
  L 553.92 575.79
  L 553.92 575.79
  L 553.41 574.29
  L 552.54 572.86
  L 551.33 571.51
  L 549.78 570.24
  L 549.16 569.92
  L 542.71 567.24
  L 539.75 565.69
  L 536.96 564.00
  L 535.25 563.01
  L 534.13 562.65
  L 532.26 562.72
  L 531.08 563.15
  L 527.79 565.29
  L 524.53 566.96
  L 519.17 569.29
  L 517.25 570.03
  L 515.97 570.61
  L 514.88 571.41
  L 514.88 571.41
  L 513.73 572.76
  L 512.90 574.47
  L 512.85 574.74
  L 512.85 592.42
  L 512.94 593.02
  L 514.03 595.92
  L 515.40 598.69
  L 517.03 601.30
  L 518.92 603.71
  L 520.99 605.84
  L 523.29 607.73
  L 525.71 609.29
  L 528.33 610.58
  L 531.31 611.94
  L 531.93 612.15
  L 535.36 612.12
  L 535.88 612.03
  L 539.17 610.56
  L 542.22 608.73
  L 542.22 608.73
  L 542.22 608.73
  L 542.22 608.73
  L 544.22 607.23
  L 546.09 605.55
  L 547.85 603.70
  L 549.48 601.67
  L 551.12 599.19
  L 552.30 596.83
  Z"
/>
<path d="
  M 474.87 605.36
  L 474.87 610.60
  L 474.70 611.48
  L 474.20 612.22
  L 473.46 612.72
  L 472.59 612.89
  L 469.46 612.89
  L 468.56 612.71
  L 467.81 612.20
  L 467.30 611.45
  L 467.12 610.55
  L 467.12 605.72
  L 466.94 605.22
  L 466.49 604.96
  L 463.75 604.32
  L 461.33 603.38
  L 459.24 602.14
  L 457.48 600.58
  L 457.48 600.58
  L 457.48 600.58
  L 455.99 598.64
  L 454.85 596.37
  L 454.07 593.77
  L 453.64 590.84
  L 453.72 589.28
  L 454.19 587.59
  L 454.45 587.25
  L 454.87 587.12
  L 460.93 587.12
  L 461.05 587.12
  L 461.80 587.33
  L 462.40 587.82
  L 462.77 588.50
  L 462.83 589.28
  L 462.89 591.00
  L 463.48 592.51
  L 464.59 594.00
  L 465.88 594.98
  L 467.53 595.71
  L 469.13 596.17
  L 470.70 596.34
  L 472.22 596.25
  L 472.22 596.25
  L 472.22 596.25
  L 473.95 595.78
  L 475.63 594.93
  L 477.25 593.54
  L 477.25 593.54
  L 478.07 592.36
  L 478.67 590.98
  L 479.04 589.42
  L 479.19 587.66
  L 478.88 586.55
  L 476.85 583.91
  L 474.78 582.23
  L 469.46 579.66
  L 465.57 577.86
  L 462.71 576.31
  L 460.34 574.70
  L 458.30 572.93
  L 456.46 570.78
  L 455.08 568.41
  L 455.08 568.41
  L 454.31 566.41
  L 453.82 564.28
  L 453.60 562.14
  L 453.62 560.10
  L 453.90 558.14
  L 454.42 556.27
  L 454.42 556.27
  L 454.42 556.27
  L 455.30 554.28
  L 456.50 552.40
  L 458.01 550.63
  L 459.84 548.97
  L 461.11 548.12
  L 462.66 547.36
  L 466.62 546.16
  L 466.99 545.92
  L 467.14 545.51
  L 467.14 540.10
  L 467.30 539.28
  L 467.77 538.58
  L 468.46 538.11
  L 469.28 537.95
  L 472.96 537.95
  L 473.69 538.10
  L 474.32 538.51
  L 474.73 539.13
  L 474.88 539.86
  L 474.88 545.54
  L 475.01 545.90
  L 475.34 546.08
  L 476.55 546.14
  L 477.88 546.24
  L 478.21 546.33
  L 480.21 547.13
  L 482.02 548.11
  L 483.64 549.28
  L 485.06 550.62
  L 485.06 550.62
  L 485.06 550.62
  L 486.57 552.56
  L 487.77 554.78
  L 488.58 556.74
  L 488.86 559.11
  L 488.82 562.86
  L 488.48 563.60
  L 487.73 563.90
  L 481.11 563.90
  L 480.66 563.78
  L 480.32 563.46
  L 479.33 561.36
  L 479.06 559.37
  L 478.75 558.33
  L 477.72 557.05
  L 476.67 556.06
  L 475.59 555.35
  L 474.49 554.94
  L 472.71 554.80
  L 469.27 554.84
  L 468.25 555.14
  L 465.51 556.77
  L 465.32 556.93
  L 464.31 558.40
  L 463.64 559.83
  L 463.31 561.21
  L 463.33 562.53
  L 463.33 562.53
  L 463.61 563.63
  L 464.15 564.68
  L 464.93 565.70
  L 465.97 566.69
  L 466.61 567.15
  L 478.84 573.13
  L 481.20 574.44
  L 483.20 575.93
  L 485.16 577.86
  L 486.63 579.81
  L 487.58 581.35
  L 488.52 584.75
  L 488.93 587.97
  L 488.81 591.02
  L 488.15 593.89
  L 488.15 593.89
  L 487.16 596.20
  L 485.78 598.39
  L 484.00 600.44
  L 481.84 602.37
  L 480.43 603.14
  L 477.90 604.11
  L 477.47 604.36
  L 477.14 604.59
  L 477.14 604.59
  L 476.41 604.82
  L 475.54 604.80
  L 475.09 604.91
  L 474.87 605.31
  L 474.87 605.36
  Z"
/>
<path d="
  M 522.01 585.64
  L 524.38 583.28
  L 524.93 583.04
  L 525.50 583.24
  L 528.47 586.19
  L 530.40 588.92
  L 530.88 589.28
  L 531.46 589.16
  L 531.46 589.16
  L 531.54 589.09
  L 540.35 580.28
  L 540.69 580.14
  L 541.04 580.28
  L 544.06 583.30
  L 544.25 583.77
  L 544.06 584.23
  L 533.84 594.45
  L 533.32 594.85
  L 532.14 595.36
  L 531.10 595.46
  L 530.24 595.24
  L 529.44 594.79
  L 527.38 592.88
  L 526.78 592.26
  L 524.01 589.30
  L 521.94 586.82
  L 521.75 586.22
  L 522.01 585.64
  Z"
/>
<rect x="-4.12" y="-3.73" transform="translate(432.24,597.12) rotate(0.1)" width="8.24" height="7.46" rx="0.27"/>
<path d="
  M 253.32 712.46
  L 252.28 715.35
  L 251.13 717.51
  L 249.74 719.49
  L 248.05 721.35
  L 246.15 722.98
  L 244.06 724.37
  L 241.80 725.49
  L 239.42 726.34
  L 236.93 726.90
  L 236.23 727.00
  L 232.17 727.16
  L 228.33 726.64
  L 224.69 725.42
  L 221.40 723.55
  L 219.18 721.72
  L 217.22 719.54
  L 215.62 717.13
  L 214.32 714.43
  L 213.52 711.93
  L 213.08 709.30
  L 212.99 706.51
  L 213.25 703.59
  L 213.85 700.68
  L 214.75 698.01
  L 215.96 695.59
  L 217.47 693.42
  L 217.47 693.42
  L 217.47 693.42
  L 219.23 691.54
  L 221.27 689.90
  L 223.60 688.48
  L 226.21 687.30
  L 229.46 686.35
  L 229.46 686.35
  L 232.07 686.01
  L 234.75 686.02
  L 237.50 686.38
  L 240.32 687.08
  L 242.27 687.78
  L 244.08 688.64
  L 245.75 689.67
  L 247.28 690.85
  L 247.28 690.85
  L 248.84 692.37
  L 250.22 694.10
  L 251.43 696.02
  L 252.46 698.15
  L 253.46 701.03
  L 254.02 703.96
  L 254.02 703.96
  L 254.16 706.05
  L 254.09 708.16
  L 253.81 710.30
  L 253.32 712.46
  Z"
/>
<path d="
  M 730.63 713.94
  L 729.37 716.74
  L 728.06 718.81
  L 726.52 720.69
  L 724.70 722.41
  L 722.68 723.90
  L 720.49 725.12
  L 718.17 726.08
  L 715.72 726.74
  L 713.19 727.11
  L 712.49 727.16
  L 708.43 727.01
  L 704.64 726.20
  L 701.10 724.72
  L 697.96 722.61
  L 695.88 720.61
  L 694.10 718.30
  L 692.68 715.77
  L 691.58 712.98
  L 690.97 710.43
  L 690.73 707.77
  L 690.85 704.99
  L 691.33 702.09
  L 692.15 699.23
  L 693.25 696.64
  L 694.63 694.32
  L 696.30 692.26
  L 696.30 692.26
  L 698.20 690.52
  L 700.35 689.03
  L 702.78 687.80
  L 705.48 686.81
  L 708.79 686.11
  L 708.79 686.11
  L 708.79 686.11
  L 711.42 685.97
  L 714.09 686.18
  L 716.81 686.74
  L 719.56 687.65
  L 721.45 688.50
  L 723.20 689.49
  L 724.79 690.64
  L 726.23 691.94
  L 726.23 691.94
  L 726.23 691.94
  L 727.66 693.57
  L 728.91 695.39
  L 729.97 697.40
  L 730.84 699.60
  L 731.62 702.55
  L 731.96 705.52
  L 731.96 705.52
  L 731.95 707.61
  L 731.72 709.71
  L 731.28 711.82
  L 730.63 713.94
  Z"
/>
</g>
</svg>
