<?xml version="1.0" encoding="UTF-8" standalone="no"?>
<!DOCTYPE svg PUBLIC "-//W3C//DTD SVG 1.1//EN" "http://www.w3.org/Graphics/SVG/1.1/DTD/svg11.dtd">
<svg xmlns="http://www.w3.org/2000/svg" version="1.1" viewBox="0.00 0.00 1024.00 1024.00">
<g stroke-width="2.00" fill="none" stroke-linecap="butt">
<path stroke="#4ce2a5" vector-effect="non-scaling-stroke" d="
  M 674.05 106.77
  L 673.71 106.09
  L 673.24 105.59
  L 673.24 105.59
  L 673.24 105.59
  L 672.33 105.18
  L 671.14 105.13
  L 669.84 104.93
  L 666.91 103.96
  L 663.65 103.45
  L 662.87 103.28
  L 662.18 102.90
  L 661.97 102.75
  L 661.97 102.75
  L 660.04 101.57
  L 657.91 100.67
  L 655.57 100.04
  L 653.04 99.70
  L 650.91 99.28
  L 649.30 98.39
  L 648.01 97.44
  L 646.72 96.72
  L 645.42 96.25
  L 644.12 96.01
  L 638.09 95.19
  L 637.10 94.78
  L 635.96 93.93
  L 635.39 93.57
  L 631.88 92.34
  L 628.52 91.80
  L 627.82 91.63
  L 627.22 91.21
  L 625.21 89.67
  L 623.35 88.92
  L 621.26 88.58
  L 609.94 87.97
  L 605.98 87.63
  L 602.71 87.04
  L 601.86 86.56
  L 600.56 85.55
  L 599.16 85.01
  L 598.27 84.92
  L 596.52 84.58
  L 595.47 84.24
  L 594.79 84.18
  L 587.84 84.00
  L 580.93 83.50
  L 575.31 82.86
  L 572.36 82.20
  L 568.78 80.91
  L 565.98 80.00
  L 563.15 79.55
  L 553.02 78.59
  L 542.25 77.21
  L 541.33 77.16
  L 537.63 77.10
  L 534.76 76.63
  L 532.62 76.28
  L 529.50 76.16
  L 520.10 76.09
  L 502.56 76.03
  L 490.18 76.29
  L 478.83 76.97
  L 468.18 78.10
  L 456.92 79.19
  L 445.65 80.29
  L 441.37 80.97
  L 437.42 81.81
  L 430.08 83.22
  L 419.56 84.45
  L 419.22 84.48
  L 416.08 84.99
  L 412.00 86.06
  L 408.22 87.05
  L 405.23 87.63
  L 399.50 88.78
  L 394.14 90.47
  L 391.19 91.39
  L 387.39 92.18
  L 383.71 92.93
  L 380.78 93.79
  L 376.36 95.21
  L 372.80 96.01
  L 369.86 96.68
  L 366.26 97.92
  L 362.66 99.15
  L 359.67 99.87
  L 355.58 100.82
  L 351.43 102.23
  L 345.51 104.60
  L 335.75 108.41
  L 325.62 112.16
  L 320.64 114.18
  L 304.22 122.44
  L 278.29 136.07
  L 274.05 138.50
  L 268.10 142.24
  L 260.84 146.78
  L 255.22 150.41
  L 248.21 155.45
  L 232.35 167.07
  L 227.39 170.80
  L 224.14 173.71
  L 222.11 175.33
  L 217.64 178.55
  L 212.74 182.48
  L 207.43 187.09
  L 201.69 192.41
  L 200.21 193.69
  L 198.88 194.57
  L 197.77 195.33
  L 196.49 196.53
  L 195.07 197.85
  L 193.81 198.61
  L 192.77 199.20
  L 191.95 199.96
  L 191.95 199.96
  L 191.57 200.48
  L 190.41 201.96
  L 188.62 203.70
  L 186.36 205.85
  L 184.15 208.23
  L 179.81 212.84
  L 176.45 216.29
  L 174.12 219.22
  L 173.03 220.20
  L 172.85 220.30
  L 171.07 221.69
  L 169.25 223.92
  L 167.74 225.82
  L 166.36 227.02
  L 163.08 230.13
  L 162.44 230.90
  L 160.09 234.29
  L 157.70 237.35
  L 155.28 240.10
  L 152.81 242.53
  L 151.49 244.20
  L 149.98 246.64
  L 148.62 248.31
  L 147.96 249.28
  L 146.80 251.51
  L 145.38 253.50
  L 143.68 255.31
  L 142.91 256.17
  L 142.34 257.10
  L 141.69 258.11
  L 140.57 259.38
  L 138.89 261.46
  L 137.30 263.89
  L 135.65 266.54
  L 135.48 266.93
  L 133.92 269.62
  L 131.56 272.16
  L 130.48 273.42
  L 128.55 276.11
  L 126.44 279.15
  L 123.62 283.67
  L 121.13 287.10
  L 119.84 288.93
  L 118.35 292.09
  L 117.06 294.86
  L 114.99 298.03
  L 114.92 298.14
  L 109.79 307.46
  L 109.71 307.90
  L 109.65 308.61
  L 109.29 309.44
  L 107.71 311.46
  L 106.40 313.03
  L 105.22 314.91
  L 101.55 321.89
  L 99.58 325.97
  L 97.46 330.43
  L 96.16 333.92
  L 95.70 334.79
  L 94.42 336.54
  L 93.53 338.06
  L 92.78 339.91
  L 91.91 342.84
  L 91.66 343.72
  L 91.43 344.18
  L 89.87 346.24
  L 89.56 346.82
  L 87.94 350.65
  L 87.00 352.18
  L 85.97 353.47
  L 85.60 354.14
  L 83.71 361.41
  L 83.20 362.28
  L 82.60 362.94
  L 82.60 362.94
  L 82.60 362.94
  L 81.90 363.99
  L 81.38 365.19
  L 81.04 366.53
  L 80.88 368.01
  L 80.75 368.70
  L 80.41 369.33
  L 77.16 377.45
  L 76.88 378.47
  L 75.73 382.95
  L 73.82 387.56
  L 73.29 388.99
  L 72.35 393.95
  L 71.67 399.56
  L 71.17 402.56
  L 70.22 405.14
  L 69.15 407.78
  L 68.74 410.02
  L 68.31 412.85
  L 67.39 416.23
  L 66.35 418.82
  L 65.23 420.58
  L 64.91 421.48
  L 64.90 424.71
  L 64.69 427.90
  L 64.29 431.04
  L 63.68 434.13
  L 63.68 434.13
  L 63.10 436.38
  L 62.56 437.74
  L 61.53 439.85
  L 61.10 441.17
  L 58.20 463.72
  L 57.85 465.07
  L 57.12 466.41
  L 56.82 467.45
  L 57.03 473.38
  L 57.03 473.44
  L 55.88 481.41
  L 55.26 489.32
  L 55.18 491.63
  L 54.83 496.21
  L 54.09 498.97
  L 53.50 501.78
  L 53.35 505.71
  L 53.23 509.01
  L 52.89 515.00
  L 52.77 539.19
  L 53.11 561.85
  L 53.35 563.98
  L 53.94 566.04
  L 55.00 569.36
  L 55.70 572.89
  L 56.04 576.61
  L 56.02 580.54
  L 56.03 580.85
  L 57.08 588.88
  L 57.24 589.45
  L 58.23 592.16
  L 60.05 606.59
  L 60.03 607.56
  L 59.95 608.36
  L 59.96 610.00
  L 60.20 611.97
  L 60.45 614.44
  L 60.68 618.74
  L 61.37 624.86
  L 61.68 626.16
  L 61.83 626.59
  L 61.83 626.59
  L 63.19 631.04
  L 64.26 635.59
  L 65.03 640.24
  L 65.50 645.00
  L 65.96 646.48
  L 67.10 648.43
  L 67.20 648.68
  L 69.39 658.22
  L 69.57 658.68
  L 70.78 661.11
  L 71.75 663.79
  L 72.48 666.74
  L 72.96 669.95
  L 72.98 670.04
  L 74.03 674.07
  L 74.26 674.52
  L 74.66 674.84
  L 74.90 674.97
  L 75.46 675.54
  L 75.77 676.27
  L 77.49 683.87
  L 77.86 684.59
  L 79.18 686.32
  L 79.83 687.74
  L 82.13 696.31
  L 82.37 696.73
  L 82.77 697.00
  L 83.51 697.40
  L 84.03 697.94
  L 84.03 697.94
  L 84.38 698.95
  L 85.09 702.29
  L 85.85 705.40
  L 86.49 706.38
  L 88.18 708.17
  L 88.59 708.97
  L 89.40 712.21
  L 89.91 713.30
  L 90.50 714.03
  L 92.05 715.66
  L 92.71 716.96
  L 93.46 720.11
  L 94.36 721.92
  L 95.91 724.09
  L 96.80 726.19
  L 98.08 730.17
  L 98.69 730.90
  L 100.18 732.35
  L 100.82 733.41
  L 101.93 736.67
  L 102.61 737.90
  L 103.37 738.88
  L 104.63 740.43
  L 105.21 741.70
  L 105.54 742.39
  L 107.57 745.43
  L 108.94 748.67
  L 109.33 750.14
  L 110.13 751.54
  L 112.17 754.17
  L 112.81 755.10
  L 113.27 756.12
  L 114.44 758.72
  L 116.04 760.91
  L 116.59 761.69
  L 120.71 769.12
  L 123.56 773.47
  L 125.81 776.57
  L 126.67 778.40
  L 127.02 779.20
  L 129.44 782.46
  L 133.20 788.09
  L 136.32 792.66
  L 140.00 797.60
  L 145.24 804.13
  L 145.45 804.38
  L 145.96 805.17
  L 147.17 807.12
  L 149.05 809.34
  L 151.47 812.34
  L 154.23 816.19
  L 157.09 819.60
  L 160.41 823.62
  L 163.30 827.80
  L 163.91 828.55
  L 170.98 835.66
  L 171.88 836.78
  L 173.42 838.23
  L 175.46 840.22
  L 182.10 847.46
  L 189.64 854.71
  L 191.56 856.68
  L 193.29 858.25
  L 196.46 861.01
  L 200.98 865.59
  L 204.72 869.13
  L 209.64 873.11
  L 213.96 876.53
  L 217.09 879.33
  L 220.21 882.14
  L 224.49 885.61
  L 225.32 886.15
  L 227.96 887.69
  L 230.26 889.26
  L 232.19 890.86
  L 233.78 892.50
  L 235.34 894.08
  L 236.75 894.97
  L 238.83 896.00
  L 239.98 897.02
  L 245.82 901.79
  L 246.39 902.16
  L 252.25 905.12
  L 252.43 905.25
  L 255.44 907.82
  L 258.39 909.97
  L 261.28 911.69
  L 264.11 912.98
  L 264.73 913.33
  L 265.22 913.86
  L 266.43 915.01
  L 268.64 916.19
  L 271.11 917.56
  L 274.60 919.90
  L 275.59 920.62
  L 276.61 921.66
  L 277.81 922.58
  L 280.74 924.07
  L 281.86 924.66
  L 284.81 926.55
  L 287.37 927.88
  L 288.41 928.50
  L 290.46 929.93
  L 292.70 931.18
  L 295.14 932.24
  L 297.77 933.13
  L 299.10 933.84
  L 300.96 935.17
  L 302.96 936.15
  L 302.96 936.15
  L 304.72 936.71
  L 304.90 936.76
  L 305.42 936.99
  L 315.79 942.80
  L 316.04 942.92
  L 322.26 945.62
  L 328.04 948.06
  L 330.88 948.94
  L 333.69 949.59
  L 334.60 950.10
  L 336.15 951.35
  L 338.25 952.22
  L 342.19 953.59
  L 346.79 955.61
  L 347.03 955.70
  L 355.96 958.02
  L 356.72 958.35
  L 357.68 958.95
  L 361.20 960.91
  L 362.59 961.32
  L 363.76 961.36
  L 364.66 961.63
  L 365.79 962.27
  L 367.52 962.73
  L 369.15 963.17
  L 370.13 963.77
  L 370.49 963.97
  L 382.10 966.21
  L 382.73 966.53
  L 383.28 966.98
  L 384.32 967.63
  L 385.58 968.17
  L 388.81 968.91
  L 390.98 969.35
  L 392.50 969.89
  L 393.84 970.12
  L 396.56 970.19
  L 398.55 970.70
  L 400.48 971.61
  L 403.17 972.66
  L 405.77 973.05
  L 409.04 973.00
  L 412.11 973.33
  L 414.78 974.03
  L 417.04 975.08
  L 419.76 976.44
  L 424.09 977.14
  L 431.29 977.54
  L 435.40 977.82
  L 437.56 978.08
  L 441.43 978.73
  L 443.95 979.73
  L 445.90 980.28
  L 449.02 980.58
  L 453.40 980.75
  L 459.25 981.04
  L 463.05 981.45
  L 467.22 981.83
  L 471.45 981.88
  L 475.23 982.07
  L 478.38 982.27
  L 481.03 982.44
  L 483.53 982.82
  L 492.04 984.21
  L 501.18 985.07
  L 510.93 985.41
  L 521.31 985.23
  L 526.35 984.68
  L 531.32 983.85
  L 537.87 982.97
  L 543.67 982.19
  L 547.67 981.88
  L 563.34 981.49
  L 577.07 980.62
  L 578.74 980.14
  L 581.69 978.85
  L 582.98 978.44
  L 590.16 977.67
  L 595.63 977.17
  L 599.60 976.49
  L 602.38 975.34
  L 604.31 974.44
  L 605.79 974.10
  L 606.50 974.05
  L 611.54 973.61
  L 614.80 972.95
  L 617.55 971.96
  L 620.69 970.38
  L 621.62 970.12
  L 626.61 969.72
  L 632.24 968.87
  L 634.17 968.23
  L 636.84 966.89
  L 638.98 965.90
  L 641.19 965.28
  L 644.37 965.02
  L 646.25 964.37
  L 650.03 962.36
  L 651.52 961.71
  L 653.08 961.24
  L 654.98 960.92
  L 657.29 960.71
  L 658.67 960.20
  L 661.99 958.30
  L 665.46 957.19
  L 665.46 957.19
  L 668.81 956.85
  L 669.51 956.74
  L 672.21 955.52
  L 674.39 953.80
  L 675.19 953.26
  L 676.14 953.07
  L 676.91 953.06
  L 679.07 952.79
  L 681.21 952.20
  L 683.34 951.27
  L 685.46 950.00
  L 687.42 949.24
  L 690.81 948.66
  L 691.76 948.38
  L 692.84 947.75
  L 695.42 945.44
  L 696.26 945.03
  L 698.30 944.73
  L 700.13 944.25
  L 701.76 943.59
  L 703.18 942.75
  L 704.69 941.84
  L 706.62 941.05
  L 709.16 940.40
  L 710.72 940.03
  L 711.27 939.72
  L 713.27 937.69
  L 713.80 937.37
  L 717.30 936.37
  L 718.20 936.00
  L 719.01 935.45
  L 720.54 934.29
  L 722.17 933.33
  L 725.53 932.05
  L 726.51 931.67
  L 727.38 931.08
  L 728.93 929.90
  L 730.73 928.85
  L 732.76 927.93
  L 735.03 927.13
  L 735.85 926.66
  L 738.35 924.60
  L 740.10 923.87
  L 741.49 922.99
  L 743.30 921.76
  L 745.78 920.43
  L 748.19 919.14
  L 749.92 917.97
  L 752.19 916.47
  L 755.30 914.93
  L 756.27 914.18
  L 758.19 912.39
  L 760.77 910.95
  L 761.64 910.42
  L 762.85 909.49
  L 762.85 909.49
  L 765.19 908.00
  L 767.71 906.76
  L 768.53 906.18
  L 769.00 905.70
  L 771.46 903.90
  L 773.74 902.36
  L 773.88 902.25
  L 777.48 899.64
  L 781.66 896.67
  L 786.95 892.47
  L 788.61 891.39
  L 790.14 890.41
  L 791.01 889.48
  L 791.65 888.88
  L 794.04 887.33
  L 797.28 884.81
  L 800.53 882.29
  L 804.20 879.45
  L 817.08 867.61
  L 818.93 865.92
  L 829.31 856.58
  L 834.90 851.12
  L 838.12 847.80
  L 840.50 845.63
  L 841.03 845.01
  L 842.55 843.04
  L 844.70 841.45
  L 845.46 840.67
  L 846.75 838.77
  L 848.70 836.95
  L 849.37 836.29
  L 854.99 829.39
  L 858.81 825.28
  L 861.45 822.58
  L 863.04 820.35
  L 863.76 819.46
  L 865.29 817.85
  L 866.65 815.75
  L 867.35 814.84
  L 870.61 811.88
  L 871.02 811.26
  L 871.61 809.95
  L 872.43 808.87
  L 872.43 808.87
  L 872.92 808.41
  L 873.57 807.64
  L 875.39 804.48
  L 875.63 804.12
  L 880.25 798.33
  L 880.34 798.23
  L 882.22 796.31
  L 883.90 794.25
  L 883.90 794.25
  L 885.65 791.53
  L 887.09 788.59
  L 887.56 787.87
  L 889.74 785.62
  L 890.67 784.27
  L 893.39 779.01
  L 895.82 775.54
  L 898.12 772.49
  L 900.23 768.76
  L 902.33 765.25
  L 905.98 760.04
  L 906.06 759.91
  L 920.26 734.26
  L 920.51 733.66
  L 921.32 731.51
  L 922.72 728.86
  L 923.98 726.48
  L 930.84 712.02
  L 932.78 707.07
  L 934.52 702.58
  L 936.25 699.55
  L 936.37 699.28
  L 938.25 692.08
  L 938.65 691.44
  L 939.92 689.91
  L 940.96 687.65
  L 941.74 684.60
  L 942.09 681.49
  L 942.43 680.59
  L 944.72 677.54
  L 945.36 675.12
  L 946.12 670.28
  L 946.74 668.47
  L 948.17 666.14
  L 948.85 664.56
  L 950.62 655.41
  L 950.66 655.28
  L 952.05 652.14
  L 953.13 648.66
  L 953.89 644.84
  L 954.33 640.68
  L 954.97 638.22
  L 956.70 633.65
  L 957.04 632.51
  L 957.93 626.80
  L 958.86 620.88
  L 959.91 616.71
  L 961.03 612.46
  L 961.77 607.83
  L 962.13 602.77
  L 962.10 597.45
  L 962.26 596.31
  L 963.25 593.55
  L 963.94 592.09
  L 964.50 590.31
  L 965.22 585.71
  L 966.40 572.52
  L 967.34 557.53
  L 967.70 555.04
  L 968.54 552.10
  L 968.89 550.36
  L 969.11 547.42
  L 969.44 541.20
  L 969.58 533.57
  L 969.32 514.04
  L 968.90 507.60
  L 967.87 498.92
  L 966.91 490.81
  L 966.52 484.99
  L 965.86 467.87
  L 965.73 467.16
  L 965.30 465.20
  L 965.12 462.98
  L 964.91 461.95
  L 963.09 457.64
  L 962.89 456.73
  L 962.47 450.49
  L 961.60 443.05
  L 961.00 439.36
  L 960.44 437.32
  L 959.68 435.77
  L 959.18 435.13
  L 959.01 434.89
  L 957.05 422.10
  L 956.91 421.63
  L 954.90 416.52
  L 954.19 413.96
  L 953.95 411.04
  L 953.50 408.20
  L 952.82 405.45
  L 951.92 402.79
  L 951.92 402.79
  L 950.31 399.23
  L 950.00 398.26
  L 949.54 395.50
  L 948.88 392.84
  L 948.02 390.27
  L 946.95 387.81
  L 946.45 386.81
  L 946.03 385.58
  L 945.42 382.83
  L 944.58 380.20
  L 943.54 377.71
  L 942.27 375.34
  L 942.27 375.34
  L 942.27 375.34
  L 942.23 375.27
  L 941.91 374.47
  L 940.85 369.33
  L 940.76 369.08
  L 937.46 361.88
  L 937.40 361.63
  L 936.89 358.73
  L 936.49 357.71
  L 935.99 356.98
  L 934.56 355.08
  L 933.66 353.02
  L 933.66 353.02
  L 933.38 351.68
  L 932.61 348.54
  L 931.19 345.87
  L 930.46 344.95
  L 929.82 343.78
  L 928.31 339.74
  L 926.28 336.09
  L 925.76 334.97
  L 924.37 331.21
  L 922.69 328.33
  L 921.75 326.79
  L 920.80 324.63
  L 919.95 322.69
  L 919.15 321.36
  L 917.50 318.81
  L 916.26 316.20
  L 914.31 312.48
  L 912.41 308.89
  L 911.17 306.49
  L 909.45 304.24
  L 908.87 303.39
  L 905.76 297.65
  L 901.76 291.25
  L 900.21 288.42
  L 898.49 285.30
  L 896.84 283.49
  L 896.18 282.60
  L 894.68 279.27
  L 893.92 278.10
  L 893.15 277.26
  L 892.89 277.02
  L 892.06 275.99
  L 891.26 274.54
  L 890.47 273.09
  L 889.64 272.06
  L 889.27 271.72
  L 888.63 270.94
  L 886.18 266.88
  L 880.27 259.29
  L 874.28 250.89
  L 873.02 249.58
  L 872.35 248.92
  L 871.80 247.74
  L 871.45 247.07
  L 854.41 227.03
  L 854.30 226.93
  L 853.18 226.05
  L 853.18 226.05
  L 852.19 224.91
  L 851.39 223.57
  L 850.84 222.87
  L 849.39 221.55
  L 848.50 220.47
  L 847.73 219.39
  L 846.14 217.84
  L 844.58 216.35
  L 844.14 215.84
  L 842.04 213.59
  L 831.82 203.37
  L 829.62 201.08
  L 825.95 197.32
  L 824.10 195.82
  L 822.24 194.59
  L 821.33 193.92
  L 814.05 187.56
  L 807.85 182.46
  L 806.13 180.97
  L 804.11 179.21
  L 802.40 178.02
  L 801.55 177.38
  L 797.38 173.70
  L 794.21 171.30
  L 782.50 163.16
  L 770.44 154.37
  L 769.45 153.81
  L 766.61 152.35
  L 764.31 150.61
  L 763.36 149.94
  L 759.38 147.66
  L 756.40 145.16
  L 754.55 144.16
  L 753.70 143.66
  L 753.67 143.62
  L 753.67 143.62
  L 752.21 142.32
  L 750.32 141.38
  L 749.10 140.59
  L 747.63 139.32
  L 745.90 138.26
  L 743.91 137.39
  L 741.65 136.73
  L 740.54 136.12
  L 738.79 134.78
  L 736.56 133.68
  L 732.01 131.76
  L 731.22 131.14
  L 729.15 129.53
  L 728.18 129.13
  L 727.26 128.99
  L 723.59 128.12
  L 722.29 127.61
  L 721.15 126.90
  L 719.79 125.50
  L 719.07 125.01
  L 712.44 123.29
  L 711.78 122.93
  L 709.13 120.90
  L 707.92 120.28
  L 706.78 119.93
  L 705.54 119.73
  L 703.82 119.29
  L 703.19 118.79
  L 702.52 117.93
  L 701.61 117.08
  L 700.90 116.86
  L 700.08 116.85
  L 699.16 116.70
  L 697.70 116.21
  L 695.95 115.94
  L 695.48 115.77
  L 695.16 115.39
  L 694.66 114.29
  L 693.90 113.56
  L 691.17 112.63
  L 688.40 112.12
  L 687.29 112.03
  L 686.80 111.84
  L 684.02 109.62
  L 683.57 109.41
  L 674.73 107.38
  L 674.31 107.16
  L 674.05 106.77"
/>
<path stroke="#85ecc0" vector-effect="non-scaling-stroke" d="
  M 423.86 321.97
  L 424.77 323.51
  L 425.86 324.53
  L 426.85 325.04
  L 428.13 325.38
  L 431.65 325.49
  L 433.25 325.46
  L 588.24 325.43
  L 589.18 325.43
  L 592.68 325.26
  L 593.80 324.95
  L 594.77 324.39
  L 595.50 323.63
  L 596.10 322.58
  L 602.50 308.33
  L 609.20 294.18
  L 616.19 280.15
  L 623.48 266.22
  L 631.79 250.33
  L 634.80 243.46
  L 635.81 240.46
  L 636.48 237.75
  L 636.64 235.56
  L 636.30 233.10
  L 635.47 230.36
  L 634.15 227.34
  L 633.69 226.68
  L 633.07 226.19
  L 629.66 224.42
  L 626.39 223.09
  L 623.23 222.21
  L 620.21 221.77
  L 615.73 221.61
  L 611.08 221.78
  L 606.21 222.27
  L 601.15 223.09
  L 595.95 224.21
  L 590.37 225.66
  L 575.75 230.21
  L 575.71 230.22
  L 571.78 231.10
  L 569.84 231.24
  L 567.92 231.18
  L 567.92 231.18
  L 564.22 230.47
  L 563.37 229.96
  L 557.20 223.97
  L 551.88 219.32
  L 546.87 215.53
  L 541.98 212.46
  L 537.13 210.09
  L 532.31 208.44
  L 527.59 207.53
  L 522.91 207.34
  L 519.75 207.61
  L 513.96 208.88
  L 506.30 211.36
  L 501.77 213.12
  L 497.43 215.08
  L 492.96 217.37
  L 480.96 224.31
  L 477.21 226.54
  L 473.87 228.35
  L 470.66 229.77
  L 467.80 230.70
  L 465.26 231.16
  L 462.53 231.23
  L 459.47 230.96
  L 456.06 230.35
  L 452.31 229.41
  L 446.92 227.85
  L 433.66 224.24
  L 428.57 223.18
  L 423.61 222.40
  L 423.04 222.33
  L 416.50 221.62
  L 411.03 221.22
  L 406.49 221.29
  L 401.73 221.95
  L 396.75 223.18
  L 391.55 225.00
  L 391.38 225.07
  L 389.22 226.39
  L 387.37 228.40
  L 385.73 231.19
  L 384.29 234.80
  L 384.00 236.18
  L 383.99 237.76
  L 384.24 239.56
  L 384.75 241.69
  L 386.58 246.67
  L 389.49 252.77
  L 396.22 265.85
  L 412.59 298.09
  L 418.59 310.52
  L 423.86 321.97"
/>
<path stroke="#85ecc0" vector-effect="non-scaling-stroke" d="
  M 612.80 365.87
  L 612.42 362.03
  L 611.30 358.35
  L 609.49 354.95
  L 607.04 351.97
  L 604.06 349.52
  L 600.66 347.71
  L 596.98 346.59
  L 593.14 346.21
  L 428.66 346.21
  L 424.82 346.59
  L 421.14 347.71
  L 417.74 349.52
  L 414.76 351.97
  L 412.31 354.95
  L 410.50 358.35
  L 409.38 362.03
  L 409.00 365.87
  L 409.00 367.73
  L 409.38 371.57
  L 410.50 375.25
  L 412.31 378.65
  L 414.76 381.63
  L 417.74 384.08
  L 421.14 385.89
  L 424.82 387.01
  L 428.66 387.39
  L 593.14 387.39
  L 596.98 387.01
  L 600.66 385.89
  L 604.06 384.08
  L 607.04 381.63
  L 609.49 378.65
  L 611.30 375.25
  L 612.42 371.57
  L 612.80 367.73
  L 612.80 365.87"
/>
<path stroke="#85ecc0" vector-effect="non-scaling-stroke" d="
  M 384.22 429.20
  L 376.30 435.50
  L 368.53 441.96
  L 360.91 448.59
  L 353.43 455.37
  L 353.43 455.37
  L 353.43 455.37
  L 339.77 468.60
  L 326.63 482.39
  L 314.02 496.76
  L 301.95 511.70
  L 295.00 521.29
  L 288.51 531.52
  L 286.00 535.70
  L 280.28 545.36
  L 276.50 552.37
  L 270.70 564.70
  L 265.06 578.07
  L 262.32 585.49
  L 259.78 593.50
  L 257.46 602.08
  L 255.47 610.75
  L 254.50 615.99
  L 253.68 621.58
  L 252.61 633.28
  L 252.26 645.66
  L 252.67 658.12
  L 253.64 668.43
  L 255.25 678.53
  L 257.50 688.41
  L 260.39 698.07
  L 260.39 698.07
  L 260.39 698.07
  L 264.06 707.87
  L 268.41 717.44
  L 273.46 726.77
  L 279.19 735.88
  L 283.47 741.76
  L 289.18 748.81
  L 294.37 754.72
  L 299.80 760.35
  L 305.45 765.70
  L 311.33 770.78
  L 311.33 770.78
  L 316.33 774.74
  L 321.48 778.51
  L 331.01 784.91
  L 339.99 790.32
  L 348.85 795.01
  L 357.80 799.06
  L 375.02 805.99
  L 387.78 810.00
  L 403.58 814.36
  L 413.03 816.55
  L 424.16 818.63
  L 436.99 820.60
  L 451.50 822.45
  L 467.33 823.73
  L 496.26 825.41
  L 501.53 825.63
  L 510.57 825.78
  L 519.99 825.62
  L 530.32 825.19
  L 545.12 824.31
  L 551.38 823.92
  L 562.28 823.11
  L 574.27 821.88
  L 586.38 820.28
  L 598.91 818.28
  L 612.07 815.84
  L 620.91 813.89
  L 629.91 811.47
  L 639.38 808.51
  L 650.04 804.78
  L 658.96 801.30
  L 667.67 797.46
  L 676.16 793.24
  L 684.44 788.66
  L 684.44 788.66
  L 690.08 785.25
  L 695.63 781.65
  L 701.07 777.87
  L 706.40 773.92
  L 715.30 766.60
  L 723.68 758.70
  L 731.53 750.21
  L 738.68 741.33
  L 741.95 736.79
  L 745.05 732.15
  L 747.91 727.50
  L 750.58 722.75
  L 752.99 718.05
  L 755.20 713.28
  L 757.16 708.53
  L 758.91 703.72
  L 762.73 691.32
  L 764.26 685.36
  L 765.55 679.55
  L 766.62 673.76
  L 767.45 668.13
  L 768.06 662.47
  L 768.43 656.97
  L 768.69 647.16
  L 768.52 637.61
  L 767.95 628.23
  L 766.94 618.91
  L 765.53 609.88
  L 763.68 600.92
  L 761.43 592.17
  L 758.73 583.49
  L 754.93 573.31
  L 751.42 565.14
  L 747.39 556.64
  L 742.84 547.79
  L 737.77 538.60
  L 733.02 530.65
  L 727.79 522.66
  L 722.09 514.64
  L 715.90 506.57
  L 708.31 497.27
  L 700.48 488.19
  L 692.43 479.34
  L 684.14 470.72
  L 684.14 470.72
  L 684.14 470.72
  L 684.14 470.72
  L 684.14 470.72
  L 674.51 461.27
  L 664.59 452.12
  L 654.37 443.25
  L 643.86 434.67
  L 629.63 423.78
  L 616.80 414.75
  L 611.99 411.84
  L 607.50 409.76
  L 604.34 408.79
  L 600.91 408.19
  L 597.07 407.91
  L 591.53 407.87
  L 589.50 407.88
  L 426.00 407.90
  L 416.71 408.12
  L 414.26 408.44
  L 411.71 409.27
  L 409.03 410.62
  L 406.25 412.48
  L 384.22 429.20"
/>
<path stroke="#85ecc0" vector-effect="non-scaling-stroke" d="
  M 610.22 738.21
  L 615.05 734.45
  L 619.69 730.51
  L 624.21 726.33
  L 628.70 721.83
  L 633.06 717.09
  L 637.37 712.03
  L 641.56 706.75
  L 645.70 701.15
  L 650.00 694.86
  L 654.03 688.35
  L 657.69 681.80
  L 661.06 675.08
  L 664.04 668.33
  L 666.62 661.64
  L 668.86 654.82
  L 670.69 648.10
  L 672.66 639.64
  L 673.72 634.24
  L 674.64 627.40
  L 675.29 620.62
  L 675.66 613.91
  L 675.76 607.26
  L 675.59 600.67
  L 675.15 594.15
  L 674.44 587.70
  L 673.45 581.31
  L 671.96 573.92
  L 670.12 566.66
  L 667.92 559.54
  L 665.38 552.56
  L 665.38 552.56
  L 665.38 552.56
  L 661.77 544.14
  L 657.62 535.92
  L 652.93 527.91
  L 647.72 520.11
  L 642.32 512.86
  L 636.75 506.01
  L 631.07 499.65
  L 625.25 493.73
  L 619.27 488.26
  L 613.18 483.26
  L 607.01 478.76
  L 600.76 474.76
  L 589.25 468.29
  L 584.17 465.77
  L 579.54 463.71
  L 573.31 461.29
  L 566.79 459.08
  L 560.12 457.13
  L 553.17 455.40
  L 545.98 453.90
  L 538.54 452.61
  L 530.74 451.54
  L 522.67 450.68
  L 516.29 450.32
  L 509.47 450.34
  L 502.20 450.75
  L 494.50 451.55
  L 480.08 453.60
  L 469.82 455.60
  L 459.22 458.56
  L 448.96 462.22
  L 439.74 466.23
  L 430.83 470.82
  L 422.16 476.02
  L 413.83 481.76
  L 405.75 488.11
  L 398.04 494.98
  L 390.63 502.43
  L 383.61 510.37
  L 378.76 516.59
  L 374.16 523.30
  L 369.80 530.50
  L 365.70 538.19
  L 361.57 546.98
  L 358.01 555.71
  L 355.01 564.41
  L 352.57 573.05
  L 351.19 579.13
  L 350.08 585.25
  L 349.23 591.52
  L 348.64 597.82
  L 348.31 604.16
  L 348.25 610.51
  L 348.45 616.95
  L 348.92 623.39
  L 349.65 629.86
  L 350.65 636.29
  L 351.89 642.67
  L 353.39 649.00
  L 355.15 655.30
  L 357.16 661.52
  L 359.41 667.64
  L 361.90 673.65
  L 366.90 684.17
  L 372.41 694.03
  L 378.37 703.12
  L 381.52 707.39
  L 384.82 711.52
  L 393.19 721.09
  L 400.62 728.58
  L 405.27 732.76
  L 409.96 736.68
  L 414.70 740.36
  L 419.48 743.78
  L 424.30 746.95
  L 429.17 749.88
  L 434.08 752.56
  L 439.03 754.98
  L 444.66 757.46
  L 450.42 759.74
  L 456.31 761.83
  L 462.34 763.73
  L 468.51 765.43
  L 474.82 766.94
  L 481.26 768.26
  L 487.83 769.39
  L 498.53 770.69
  L 508.99 771.26
  L 519.19 771.08
  L 529.15 770.16
  L 536.13 769.12
  L 543.04 767.83
  L 549.88 766.29
  L 556.66 764.51
  L 556.66 764.51
  L 567.97 760.93
  L 579.09 756.64
  L 586.48 753.19
  L 594.14 748.95
  L 602.06 743.96
  L 610.22 738.21"
/>
<path stroke="#85ecc0" vector-effect="non-scaling-stroke" d="
  M 527.77 714.15
  L 528.01 713.43
  L 528.45 712.82
  L 529.06 712.37
  L 529.78 712.12
  L 534.38 711.17
  L 534.38 711.17
  L 539.21 709.88
  L 543.97 708.29
  L 548.65 706.41
  L 553.27 704.23
  L 556.51 702.41
  L 559.88 700.18
  L 563.37 697.53
  L 566.99 694.48
  L 570.82 690.77
  L 574.19 686.82
  L 577.09 682.65
  L 579.52 678.26
  L 579.52 678.26
  L 580.98 674.98
  L 582.19 671.59
  L 583.17 668.08
  L 583.91 664.46
  L 584.61 659.01
  L 584.86 653.60
  L 584.67 648.26
  L 584.01 643.02
  L 582.90 637.98
  L 581.34 633.08
  L 579.36 628.45
  L 576.92 624.00
  L 575.02 621.12
  L 572.92 618.35
  L 570.67 615.76
  L 568.22 613.28
  L 565.05 610.54
  L 561.37 607.88
  L 557.19 605.31
  L 552.57 602.86
  L 547.46 600.53
  L 541.99 598.36
  L 536.10 596.33
  L 530.00 594.52
  L 522.40 592.62
  L 512.18 590.07
  L 504.40 587.93
  L 497.72 585.81
  L 492.11 583.70
  L 489.87 582.64
  L 487.81 581.40
  L 485.92 579.99
  L 484.23 578.42
  L 482.78 576.73
  L 481.55 574.91
  L 480.56 572.97
  L 479.81 570.90
  L 479.37 569.04
  L 479.14 567.10
  L 479.30 563.24
  L 479.74 561.01
  L 480.43 558.74
  L 481.32 556.59
  L 482.42 554.52
  L 483.62 552.76
  L 485.00 551.17
  L 486.46 549.87
  L 488.06 548.79
  L 491.11 547.23
  L 494.26 545.93
  L 494.26 545.93
  L 494.26 545.93
  L 497.37 544.95
  L 500.57 544.21
  L 503.87 543.72
  L 507.25 543.48
  L 513.75 543.52
  L 520.07 544.11
  L 526.21 545.24
  L 532.17 546.91
  L 532.17 546.91
  L 537.11 548.76
  L 541.92 551.00
  L 546.59 553.63
  L 551.14 556.66
  L 553.91 558.90
  L 558.32 562.31
  L 559.20 562.53
  L 560.04 562.20
  L 561.70 560.66
  L 563.29 558.78
  L 578.39 539.19
  L 579.08 538.01
  L 579.26 536.86
  L 579.26 536.86
  L 579.03 535.94
  L 578.46 535.04
  L 574.93 531.22
  L 570.83 527.59
  L 566.19 524.16
  L 561.05 521.00
  L 555.51 518.12
  L 549.60 515.58
  L 543.36 513.36
  L 536.98 511.56
  L 529.40 509.57
  L 528.69 509.23
  L 528.10 508.71
  L 527.70 508.03
  L 527.51 507.27
  L 527.05 500.63
  L 526.80 492.51
  L 526.37 490.19
  L 525.15 487.53
  L 524.75 487.09
  L 524.19 486.86
  L 520.54 486.37
  L 516.69 486.11
  L 506.32 486.14
  L 503.19 486.21
  L 501.43 486.36
  L 499.90 486.74
  L 498.61 487.35
  L 497.54 488.20
  L 497.54 488.20
  L 497.54 488.20
  L 496.68 489.31
  L 496.08 490.67
  L 495.71 492.27
  L 495.60 494.12
  L 495.25 508.26
  L 495.11 508.91
  L 494.78 509.48
  L 494.29 509.92
  L 493.69 510.19
  L 486.38 512.14
  L 481.93 513.49
  L 477.65 515.11
  L 473.52 517.00
  L 469.56 519.17
  L 469.56 519.17
  L 465.38 521.88
  L 461.39 524.92
  L 457.59 528.30
  L 454.00 532.01
  L 453.29 532.83
  L 450.77 536.30
  L 448.72 540.16
  L 446.82 544.85
  L 445.29 549.58
  L 444.14 554.34
  L 443.35 559.12
  L 442.93 563.94
  L 442.89 568.74
  L 443.23 573.52
  L 443.93 578.24
  L 444.80 582.13
  L 445.93 585.97
  L 447.32 589.75
  L 448.96 593.45
  L 450.83 597.03
  L 452.95 600.51
  L 455.31 603.90
  L 457.92 607.19
  L 460.06 609.42
  L 462.59 611.51
  L 465.58 613.53
  L 468.91 615.38
  L 475.43 618.41
  L 482.33 621.06
  L 489.60 623.34
  L 497.24 625.25
  L 520.70 630.58
  L 526.33 632.19
  L 531.60 634.24
  L 536.50 636.75
  L 541.05 639.70
  L 542.61 641.06
  L 544.07 642.81
  L 545.42 644.92
  L 546.67 647.42
  L 547.48 649.76
  L 547.91 652.19
  L 547.97 654.80
  L 547.66 657.42
  L 546.97 660.15
  L 545.95 662.76
  L 544.59 665.29
  L 542.94 667.57
  L 541.06 669.50
  L 538.65 671.36
  L 535.87 673.05
  L 532.66 674.59
  L 529.05 675.98
  L 525.21 677.12
  L 521.41 677.95
  L 517.75 678.45
  L 513.21 678.70
  L 508.67 678.66
  L 508.67 678.66
  L 501.95 678.05
  L 495.25 676.79
  L 488.58 674.88
  L 481.94 672.31
  L 478.84 670.78
  L 474.99 668.55
  L 465.02 661.99
  L 462.36 659.85
  L 459.25 657.33
  L 456.76 655.90
  L 455.59 655.74
  L 454.49 656.20
  L 451.52 658.86
  L 448.36 662.37
  L 436.63 676.80
  L 436.23 677.84
  L 436.49 678.93
  L 438.41 681.82
  L 440.70 684.73
  L 443.22 687.46
  L 446.09 690.17
  L 449.21 692.76
  L 452.65 695.28
  L 456.27 697.63
  L 460.13 699.85
  L 467.59 703.53
  L 475.41 706.67
  L 483.59 709.27
  L 492.13 711.34
  L 493.13 711.69
  L 493.90 712.26
  L 493.90 712.26
  L 493.90 712.26
  L 494.54 713.31
  L 494.79 714.74
  L 495.42 729.77
  L 495.86 732.18
  L 496.85 734.12
  L 497.64 734.64
  L 502.15 735.25
  L 508.75 735.44
  L 524.53 735.24
  L 525.12 735.06
  L 525.54 734.59
  L 526.15 733.03
  L 526.59 731.32
  L 527.00 727.56
  L 527.24 719.53
  L 527.77 714.15"
/>
</g>
<g fill="#0bd981">
<path d="
  M 674.73 107.38
  L 683.57 109.41
  L 684.02 109.62
  L 686.80 111.84
  L 687.29 112.03
  L 688.40 112.12
  L 691.17 112.63
  L 693.90 113.56
  L 694.66 114.29
  L 695.16 115.39
  L 695.48 115.77
  L 695.95 115.94
  L 697.70 116.21
  L 699.16 116.70
  L 700.08 116.85
  L 700.90 116.86
  L 701.61 117.08
  L 702.52 117.93
  L 703.19 118.79
  L 703.82 119.29
  L 705.54 119.73
  L 706.78 119.93
  L 707.92 120.28
  L 709.13 120.90
  L 711.78 122.93
  L 712.44 123.29
  L 719.07 125.01
  L 719.79 125.50
  L 721.15 126.90
  L 722.29 127.61
  L 723.59 128.12
  L 727.26 128.99
  L 728.18 129.13
  L 729.15 129.53
  L 731.22 131.14
  L 732.01 131.76
  L 736.56 133.68
  L 738.79 134.78
  L 740.54 136.12
  L 741.65 136.73
  L 743.91 137.39
  L 745.90 138.26
  L 747.63 139.32
  L 749.10 140.59
  L 750.32 141.38
  L 752.21 142.32
  L 753.67 143.62
  L 753.67 143.62
  L 753.70 143.66
  L 754.55 144.16
  L 756.40 145.16
  L 759.38 147.66
  L 763.36 149.94
  L 764.31 150.61
  L 766.61 152.35
  L 769.45 153.81
  L 770.44 154.37
  L 782.50 163.16
  L 794.21 171.30
  L 797.38 173.70
  L 801.55 177.38
  L 802.40 178.02
  L 804.11 179.21
  L 806.13 180.97
  L 807.85 182.46
  L 814.05 187.56
  L 821.33 193.92
  L 822.24 194.59
  L 824.10 195.82
  L 825.95 197.32
  L 829.62 201.08
  L 831.82 203.37
  L 842.04 213.59
  L 844.14 215.84
  L 844.58 216.35
  L 846.14 217.84
  L 847.73 219.39
  L 848.50 220.47
  L 849.39 221.55
  L 850.84 222.87
  L 851.39 223.57
  L 852.19 224.91
  L 853.18 226.05
  L 853.18 226.05
  L 854.30 226.93
  L 854.41 227.03
  L 871.45 247.07
  L 871.80 247.74
  L 872.35 248.92
  L 873.02 249.58
  L 874.28 250.89
  L 880.27 259.29
  L 886.18 266.88
  L 888.63 270.94
  L 889.27 271.72
  L 889.64 272.06
  L 890.47 273.09
  L 891.26 274.54
  L 892.06 275.99
  L 892.89 277.02
  L 893.15 277.26
  L 893.92 278.10
  L 894.68 279.27
  L 896.18 282.60
  L 896.84 283.49
  L 898.49 285.30
  L 900.21 288.42
  L 901.76 291.25
  L 905.76 297.65
  L 908.87 303.39
  L 909.45 304.24
  L 911.17 306.49
  L 912.41 308.89
  L 914.31 312.48
  L 916.26 316.20
  L 917.50 318.81
  L 919.15 321.36
  L 919.95 322.69
  L 920.80 324.63
  L 921.75 326.79
  L 922.69 328.33
  L 924.37 331.21
  L 925.76 334.97
  L 926.28 336.09
  L 928.31 339.74
  L 929.82 343.78
  L 930.46 344.95
  L 931.19 345.87
  L 931.19 345.87
  L 932.61 348.54
  L 933.38 351.68
  L 933.66 353.02
  L 933.66 353.02
  L 934.56 355.08
  L 935.99 356.98
  L 936.49 357.71
  L 936.89 358.73
  L 937.40 361.63
  L 937.46 361.88
  L 940.76 369.08
  L 940.85 369.33
  L 941.91 374.47
  L 942.23 375.27
  L 942.27 375.34
  L 942.27 375.34
  L 942.27 375.34
  L 943.54 377.71
  L 944.58 380.20
  L 945.42 382.83
  L 946.03 385.58
  L 946.45 386.81
  L 946.95 387.81
  L 948.02 390.27
  L 948.88 392.84
  L 949.54 395.50
  L 950.00 398.26
  L 950.31 399.23
  L 951.92 402.79
  L 951.92 402.79
  L 952.82 405.45
  L 953.50 408.20
  L 953.95 411.04
  L 954.19 413.96
  L 954.90 416.52
  L 956.91 421.63
  L 957.05 422.10
  L 959.01 434.89
  L 959.18 435.13
  L 959.68 435.77
  L 960.44 437.32
  L 961.00 439.36
  L 961.60 443.05
  L 962.47 450.49
  L 962.89 456.73
  L 963.09 457.64
  L 964.91 461.95
  L 965.12 462.98
  L 965.30 465.20
  L 965.73 467.16
  L 965.86 467.87
  L 966.52 484.99
  L 966.91 490.81
  L 967.87 498.92
  L 968.90 507.60
  L 969.32 514.04
  L 969.58 533.57
  L 969.44 541.20
  L 969.11 547.42
  L 968.89 550.36
  L 968.54 552.10
  L 967.70 555.04
  L 967.34 557.53
  L 966.40 572.52
  L 965.22 585.71
  L 964.50 590.31
  L 963.94 592.09
  L 963.25 593.55
  L 962.26 596.31
  L 962.10 597.45
  L 962.13 602.77
  L 961.77 607.83
  L 961.03 612.46
  L 959.91 616.71
  L 958.86 620.88
  L 957.93 626.80
  L 957.04 632.51
  L 956.70 633.65
  L 954.97 638.22
  L 954.33 640.68
  L 953.89 644.84
  L 953.13 648.66
  L 952.05 652.14
  L 950.66 655.28
  L 950.62 655.41
  L 948.85 664.56
  L 948.17 666.14
  L 946.74 668.47
  L 946.12 670.28
  L 945.36 675.12
  L 944.72 677.54
  L 942.43 680.59
  L 942.09 681.49
  L 941.74 684.60
  L 940.96 687.65
  L 939.92 689.91
  L 938.65 691.44
  L 938.25 692.08
  L 936.37 699.28
  L 936.25 699.55
  L 934.52 702.58
  L 932.78 707.07
  L 930.84 712.02
  L 923.98 726.48
  L 922.72 728.86
  L 921.32 731.51
  L 920.51 733.66
  L 920.26 734.26
  L 906.06 759.91
  L 905.98 760.04
  L 902.33 765.25
  L 900.23 768.76
  L 898.12 772.49
  L 895.82 775.54
  L 893.39 779.01
  L 890.67 784.27
  L 889.74 785.62
  L 887.56 787.87
  L 887.09 788.59
  L 885.65 791.53
  L 883.90 794.25
  L 883.90 794.25
  L 882.22 796.31
  L 880.34 798.23
  L 880.25 798.33
  L 875.63 804.12
  L 875.39 804.48
  L 873.57 807.64
  L 872.92 808.41
  L 872.43 808.87
  L 871.61 809.95
  L 871.02 811.26
  L 870.61 811.88
  L 867.35 814.84
  L 866.65 815.75
  L 865.29 817.85
  L 863.76 819.46
  L 863.04 820.35
  L 861.45 822.58
  L 858.81 825.28
  L 854.99 829.39
  L 849.37 836.29
  L 848.70 836.95
  L 846.75 838.77
  L 845.46 840.67
  L 844.70 841.45
  L 842.55 843.04
  L 841.03 845.01
  L 840.50 845.63
  L 838.12 847.80
  L 834.90 851.12
  L 829.31 856.58
  L 818.93 865.92
  L 817.08 867.61
  L 804.20 879.45
  L 800.53 882.29
  L 797.28 884.81
  L 794.04 887.33
  L 791.65 888.88
  L 791.01 889.48
  L 790.14 890.41
  L 788.61 891.39
  L 786.95 892.47
  L 781.66 896.67
  L 777.48 899.64
  L 773.88 902.25
  L 773.74 902.36
  L 771.46 903.90
  L 769.00 905.70
  L 768.53 906.18
  L 767.71 906.76
  L 765.19 908.00
  L 762.85 909.49
  L 762.85 909.49
  L 761.64 910.42
  L 760.77 910.95
  L 758.19 912.39
  L 756.27 914.18
  L 755.30 914.93
  L 752.19 916.47
  L 749.92 917.97
  L 748.19 919.14
  L 745.78 920.43
  L 743.30 921.76
  L 741.49 922.99
  L 740.10 923.87
  L 738.35 924.60
  L 735.85 926.66
  L 735.03 927.13
  L 732.76 927.93
  L 730.73 928.85
  L 728.93 929.90
  L 727.38 931.08
  L 726.51 931.67
  L 725.53 932.05
  L 722.17 933.33
  L 720.54 934.29
  L 719.01 935.45
  L 718.20 936.00
  L 717.30 936.37
  L 713.80 937.37
  L 713.27 937.69
  L 711.27 939.72
  L 710.72 940.03
  L 709.16 940.40
  L 706.62 941.05
  L 704.69 941.84
  L 703.18 942.75
  L 701.76 943.59
  L 700.13 944.25
  L 698.30 944.73
  L 696.26 945.03
  L 695.42 945.44
  L 692.84 947.75
  L 691.76 948.38
  L 690.81 948.66
  L 687.42 949.24
  L 685.46 950.00
  L 683.34 951.27
  L 681.21 952.20
  L 679.07 952.79
  L 676.91 953.06
  L 676.14 953.07
  L 675.19 953.26
  L 674.39 953.80
  L 672.21 955.52
  L 669.51 956.74
  L 668.81 956.85
  L 665.46 957.19
  L 665.46 957.19
  L 661.99 958.30
  L 658.67 960.20
  L 657.29 960.71
  L 654.98 960.92
  L 653.08 961.24
  L 651.52 961.71
  L 650.03 962.36
  L 646.25 964.37
  L 644.37 965.02
  L 641.19 965.28
  L 638.98 965.90
  L 636.84 966.89
  L 634.17 968.23
  L 632.24 968.87
  L 626.61 969.72
  L 621.62 970.12
  L 620.69 970.38
  L 617.55 971.96
  L 614.80 972.95
  L 611.54 973.61
  L 606.50 974.05
  L 605.79 974.10
  L 604.31 974.44
  L 602.38 975.34
  L 599.60 976.49
  L 595.63 977.17
  L 590.16 977.67
  L 582.98 978.44
  L 581.69 978.85
  L 578.74 980.14
  L 577.07 980.62
  L 563.34 981.49
  L 547.67 981.88
  L 543.67 982.19
  L 537.87 982.97
  L 531.32 983.85
  L 526.35 984.68
  L 521.31 985.23
  L 510.93 985.41
  L 501.18 985.07
  L 492.04 984.21
  L 483.53 982.82
  L 481.03 982.44
  L 478.38 982.27
  L 475.23 982.07
  L 471.45 981.88
  L 467.22 981.83
  L 463.05 981.45
  L 459.25 981.04
  L 453.40 980.75
  L 449.02 980.58
  L 445.90 980.28
  L 443.95 979.73
  L 441.43 978.73
  L 437.56 978.08
  L 435.40 977.82
  L 431.29 977.54
  L 424.09 977.14
  L 419.76 976.44
  L 417.04 975.08
  L 414.78 974.03
  L 412.11 973.33
  L 409.04 973.00
  L 405.77 973.05
  L 403.17 972.66
  L 400.48 971.61
  L 398.55 970.70
  L 396.56 970.19
  L 393.84 970.12
  L 392.50 969.89
  L 390.98 969.35
  L 388.81 968.91
  L 385.58 968.17
  L 384.32 967.63
  L 383.28 966.98
  L 382.73 966.53
  L 382.10 966.21
  L 370.49 963.97
  L 370.13 963.77
  L 369.15 963.17
  L 367.52 962.73
  L 365.79 962.27
  L 364.66 961.63
  L 363.76 961.36
  L 362.59 961.32
  L 361.20 960.91
  L 357.68 958.95
  L 356.72 958.35
  L 355.96 958.02
  L 347.03 955.70
  L 346.79 955.61
  L 342.19 953.59
  L 338.25 952.22
  L 336.15 951.35
  L 334.60 950.10
  L 333.69 949.59
  L 330.88 948.94
  L 328.04 948.06
  L 322.26 945.62
  L 316.04 942.92
  L 315.79 942.80
  L 305.42 936.99
  L 304.72 936.71
  L 302.96 936.15
  L 302.96 936.15
  L 300.96 935.17
  L 299.10 933.84
  L 297.77 933.13
  L 295.14 932.24
  L 292.70 931.18
  L 290.46 929.93
  L 288.41 928.50
  L 287.37 927.88
  L 284.81 926.55
  L 281.86 924.66
  L 280.74 924.07
  L 277.81 922.58
  L 276.61 921.66
  L 275.59 920.62
  L 274.60 919.90
  L 271.11 917.56
  L 268.64 916.19
  L 266.43 915.01
  L 265.22 913.86
  L 264.73 913.33
  L 264.11 912.98
  L 261.28 911.69
  L 258.39 909.97
  L 255.44 907.82
  L 252.43 905.25
  L 252.25 905.12
  L 246.39 902.16
  L 245.82 901.79
  L 239.98 897.02
  L 238.83 896.00
  L 236.75 894.97
  L 235.34 894.08
  L 233.78 892.50
  L 232.19 890.86
  L 230.26 889.26
  L 227.96 887.69
  L 225.32 886.15
  L 224.49 885.61
  L 220.21 882.14
  L 217.09 879.33
  L 213.96 876.53
  L 209.64 873.11
  L 204.72 869.13
  L 200.98 865.59
  L 196.46 861.01
  L 193.29 858.25
  L 191.56 856.68
  L 189.64 854.71
  L 182.10 847.46
  L 175.46 840.22
  L 173.42 838.23
  L 171.88 836.78
  L 170.98 835.66
  L 163.91 828.55
  L 163.30 827.80
  L 160.41 823.62
  L 157.09 819.60
  L 154.23 816.19
  L 151.47 812.34
  L 149.05 809.34
  L 147.17 807.12
  L 145.96 805.17
  L 145.45 804.38
  L 145.24 804.13
  L 140.00 797.60
  L 136.32 792.66
  L 133.20 788.09
  L 129.44 782.46
  L 127.02 779.20
  L 126.67 778.40
  L 125.81 776.57
  L 123.56 773.47
  L 120.71 769.12
  L 116.59 761.69
  L 116.04 760.91
  L 114.44 758.72
  L 113.27 756.12
  L 112.81 755.10
  L 112.17 754.17
  L 110.13 751.54
  L 109.33 750.14
  L 108.94 748.67
  L 107.57 745.43
  L 105.54 742.39
  L 105.21 741.70
  L 104.63 740.43
  L 103.37 738.88
  L 102.61 737.90
  L 101.93 736.67
  L 100.82 733.41
  L 100.18 732.35
  L 98.69 730.90
  L 98.08 730.17
  L 96.80 726.19
  L 95.91 724.09
  L 94.36 721.92
  L 93.46 720.11
  L 92.71 716.96
  L 92.05 715.66
  L 90.50 714.03
  L 89.91 713.30
  L 89.40 712.21
  L 88.59 708.97
  L 88.18 708.17
  L 86.49 706.38
  L 85.85 705.40
  L 85.09 702.29
  L 84.38 698.95
  L 84.03 697.94
  L 83.51 697.40
  L 82.77 697.00
  L 82.37 696.73
  L 82.13 696.31
  L 79.83 687.74
  L 79.18 686.32
  L 77.86 684.59
  L 77.49 683.87
  L 75.77 676.27
  L 75.46 675.54
  L 74.90 674.97
  L 74.66 674.84
  L 74.26 674.52
  L 74.03 674.07
  L 72.98 670.04
  L 72.96 669.95
  L 72.48 666.74
  L 71.75 663.79
  L 70.78 661.11
  L 69.57 658.68
  L 69.39 658.22
  L 67.20 648.68
  L 67.10 648.43
  L 65.96 646.48
  L 65.50 645.00
  L 65.03 640.24
  L 64.26 635.59
  L 63.19 631.04
  L 61.83 626.59
  L 61.83 626.59
  L 61.83 626.59
  L 61.68 626.16
  L 61.37 624.86
  L 60.68 618.74
  L 60.45 614.44
  L 60.20 611.97
  L 59.96 610.00
  L 59.95 608.36
  L 60.03 607.56
  L 60.05 606.59
  L 58.23 592.16
  L 57.24 589.45
  L 57.08 588.88
  L 56.03 580.85
  L 56.02 580.54
  L 56.04 576.61
  L 55.70 572.89
  L 55.00 569.36
  L 53.94 566.04
  L 53.35 563.98
  L 53.11 561.85
  L 52.77 539.19
  L 52.89 515.00
  L 53.23 509.01
  L 53.35 505.71
  L 53.50 501.78
  L 54.09 498.97
  L 54.83 496.21
  L 55.18 491.63
  L 55.26 489.32
  L 55.88 481.41
  L 57.03 473.44
  L 57.03 473.38
  L 56.82 467.45
  L 57.12 466.41
  L 57.85 465.07
  L 58.20 463.72
  L 61.10 441.17
  L 61.53 439.85
  L 62.56 437.74
  L 63.10 436.38
  L 63.68 434.13
  L 64.29 431.04
  L 64.69 427.90
  L 64.90 424.71
  L 64.91 421.48
  L 65.23 420.58
  L 66.35 418.82
  L 67.39 416.23
  L 68.31 412.85
  L 68.74 410.02
  L 69.15 407.78
  L 70.22 405.14
  L 71.17 402.56
  L 71.67 399.56
  L 72.35 393.95
  L 73.29 388.99
  L 73.82 387.56
  L 75.73 382.95
  L 76.88 378.47
  L 77.16 377.45
  L 80.41 369.33
  L 80.75 368.70
  L 80.88 368.01
  L 81.04 366.53
  L 81.38 365.19
  L 81.90 363.99
  L 82.60 362.94
  L 82.60 362.94
  L 83.20 362.28
  L 83.71 361.41
  L 85.60 354.14
  L 85.97 353.47
  L 87.00 352.18
  L 87.94 350.65
  L 89.56 346.82
  L 89.87 346.24
  L 91.43 344.18
  L 91.66 343.72
  L 91.91 342.84
  L 92.78 339.91
  L 93.53 338.06
  L 94.42 336.54
  L 95.70 334.79
  L 96.16 333.92
  L 97.46 330.43
  L 99.58 325.97
  L 101.55 321.89
  L 105.22 314.91
  L 106.40 313.03
  L 107.71 311.46
  L 109.29 309.44
  L 109.65 308.61
  L 109.71 307.90
  L 109.79 307.46
  L 114.92 298.14
  L 114.99 298.03
  L 117.06 294.86
  L 118.35 292.09
  L 119.84 288.93
  L 121.13 287.10
  L 123.62 283.67
  L 126.44 279.15
  L 128.55 276.11
  L 130.48 273.42
  L 131.56 272.16
  L 133.92 269.62
  L 135.48 266.93
  L 135.65 266.54
  L 137.30 263.89
  L 138.89 261.46
  L 140.57 259.38
  L 141.69 258.11
  L 142.34 257.10
  L 142.91 256.17
  L 143.68 255.31
  L 145.38 253.50
  L 146.80 251.51
  L 147.96 249.28
  L 148.62 248.31
  L 149.98 246.64
  L 151.49 244.20
  L 152.81 242.53
  L 155.28 240.10
  L 157.70 237.35
  L 160.09 234.29
  L 162.44 230.90
  L 163.08 230.13
  L 166.36 227.02
  L 167.74 225.82
  L 169.25 223.92
  L 171.07 221.69
  L 172.85 220.30
  L 173.03 220.20
  L 174.12 219.22
  L 176.45 216.29
  L 179.81 212.84
  L 184.15 208.23
  L 186.36 205.85
  L 188.62 203.70
  L 190.41 201.96
  L 191.57 200.48
  L 191.95 199.96
  L 192.77 199.20
  L 193.81 198.61
  L 195.07 197.85
  L 196.49 196.53
  L 197.77 195.33
  L 198.88 194.57
  L 200.21 193.69
  L 201.69 192.41
  L 207.43 187.09
  L 212.74 182.48
  L 217.64 178.55
  L 222.11 175.33
  L 224.14 173.71
  L 227.39 170.80
  L 232.35 167.07
  L 248.21 155.45
  L 255.22 150.41
  L 260.84 146.78
  L 268.10 142.24
  L 274.05 138.50
  L 278.29 136.07
  L 304.22 122.44
  L 320.64 114.18
  L 325.62 112.16
  L 335.75 108.41
  L 345.51 104.60
  L 351.43 102.23
  L 355.58 100.82
  L 359.67 99.87
  L 362.66 99.15
  L 366.26 97.92
  L 369.86 96.68
  L 372.80 96.01
  L 376.36 95.21
  L 380.78 93.79
  L 383.71 92.93
  L 387.39 92.18
  L 391.19 91.39
  L 394.14 90.47
  L 399.50 88.78
  L 405.23 87.63
  L 408.22 87.05
  L 412.00 86.06
  L 416.08 84.99
  L 419.22 84.48
  L 419.56 84.45
  L 430.08 83.22
  L 437.42 81.81
  L 441.37 80.97
  L 445.65 80.29
  L 456.92 79.19
  L 468.18 78.10
  L 478.83 76.97
  L 490.18 76.29
  L 502.56 76.03
  L 520.10 76.09
  L 529.50 76.16
  L 532.62 76.28
  L 534.76 76.63
  L 537.63 77.10
  L 541.33 77.16
  L 542.25 77.21
  L 553.02 78.59
  L 563.15 79.55
  L 565.98 80.00
  L 568.78 80.91
  L 572.36 82.20
  L 575.31 82.86
  L 580.93 83.50
  L 580.93 83.50
  L 587.84 84.00
  L 594.79 84.18
  L 595.47 84.24
  L 596.52 84.58
  L 598.27 84.92
  L 599.16 85.01
  L 599.16 85.01
  L 600.56 85.55
  L 601.86 86.56
  L 602.71 87.04
  L 605.98 87.63
  L 609.94 87.97
  L 621.26 88.58
  L 623.35 88.92
  L 625.21 89.67
  L 627.22 91.21
  L 627.82 91.63
  L 628.52 91.80
  L 631.88 92.34
  L 635.39 93.57
  L 635.96 93.93
  L 637.10 94.78
  L 638.09 95.19
  L 644.12 96.01
  L 645.42 96.25
  L 646.72 96.72
  L 648.01 97.44
  L 649.30 98.39
  L 650.91 99.28
  L 653.04 99.70
  L 655.57 100.04
  L 657.91 100.67
  L 660.04 101.57
  L 661.97 102.75
  L 661.97 102.75
  L 661.97 102.75
  L 662.18 102.90
  L 662.87 103.28
  L 663.65 103.45
  L 666.91 103.96
  L 669.84 104.93
  L 671.14 105.13
  L 672.33 105.18
  L 673.24 105.59
  L 673.24 105.59
  L 673.24 105.59
  L 673.71 106.09
  L 674.05 106.77
  L 674.31 107.16
  L 674.73 107.38
  Z
  M 423.86 321.97
  L 424.77 323.51
  L 425.86 324.53
  L 426.85 325.04
  L 428.13 325.38
  L 431.65 325.49
  L 433.25 325.46
  L 588.24 325.43
  L 589.18 325.43
  L 592.68 325.26
  L 593.80 324.95
  L 594.77 324.39
  L 595.50 323.63
  L 596.10 322.58
  L 602.50 308.33
  L 609.20 294.18
  L 616.19 280.15
  L 623.48 266.22
  L 631.79 250.33
  L 634.80 243.46
  L 635.81 240.46
  L 636.48 237.75
  L 636.64 235.56
  L 636.30 233.10
  L 635.47 230.36
  L 634.15 227.34
  L 633.69 226.68
  L 633.07 226.19
  L 629.66 224.42
  L 626.39 223.09
  L 623.23 222.21
  L 620.21 221.77
  L 615.73 221.61
  L 611.08 221.78
  L 606.21 222.27
  L 601.15 223.09
  L 595.95 224.21
  L 590.37 225.66
  L 575.75 230.21
  L 575.71 230.22
  L 571.78 231.10
  L 569.84 231.24
  L 567.92 231.18
  L 567.92 231.18
  L 564.22 230.47
  L 563.37 229.96
  L 557.20 223.97
  L 551.88 219.32
  L 546.87 215.53
  L 541.98 212.46
  L 537.13 210.09
  L 532.31 208.44
  L 527.59 207.53
  L 522.91 207.34
  L 519.75 207.61
  L 513.96 208.88
  L 506.30 211.36
  L 501.77 213.12
  L 497.43 215.08
  L 492.96 217.37
  L 480.96 224.31
  L 477.21 226.54
  L 473.87 228.35
  L 470.66 229.77
  L 467.80 230.70
  L 465.26 231.16
  L 462.53 231.23
  L 459.47 230.96
  L 456.06 230.35
  L 452.31 229.41
  L 446.92 227.85
  L 433.66 224.24
  L 428.57 223.18
  L 423.61 222.40
  L 423.04 222.33
  L 416.50 221.62
  L 411.03 221.22
  L 406.49 221.29
  L 401.73 221.95
  L 396.75 223.18
  L 391.55 225.00
  L 391.38 225.07
  L 389.22 226.39
  L 387.37 228.40
  L 385.73 231.19
  L 384.29 234.80
  L 384.00 236.18
  L 383.99 237.76
  L 384.24 239.56
  L 384.75 241.69
  L 386.58 246.67
  L 389.49 252.77
  L 396.22 265.85
  L 412.59 298.09
  L 418.59 310.52
  L 423.86 321.97
  Z
  M 612.80 365.87
  L 612.42 362.03
  L 611.30 358.35
  L 609.49 354.95
  L 607.04 351.97
  L 604.06 349.52
  L 600.66 347.71
  L 596.98 346.59
  L 593.14 346.21
  L 428.66 346.21
  L 424.82 346.59
  L 421.14 347.71
  L 417.74 349.52
  L 414.76 351.97
  L 412.31 354.95
  L 410.50 358.35
  L 409.38 362.03
  L 409.00 365.87
  L 409.00 367.73
  L 409.38 371.57
  L 410.50 375.25
  L 412.31 378.65
  L 414.76 381.63
  L 417.74 384.08
  L 421.14 385.89
  L 424.82 387.01
  L 428.66 387.39
  L 593.14 387.39
  L 596.98 387.01
  L 600.66 385.89
  L 604.06 384.08
  L 607.04 381.63
  L 609.49 378.65
  L 611.30 375.25
  L 612.42 371.57
  L 612.80 367.73
  L 612.80 365.87
  Z
  M 384.22 429.20
  L 376.30 435.50
  L 368.53 441.96
  L 360.91 448.59
  L 353.43 455.37
  L 353.43 455.37
  L 353.43 455.37
  L 339.77 468.60
  L 326.63 482.39
  L 314.02 496.76
  L 301.95 511.70
  L 295.00 521.29
  L 288.51 531.52
  L 286.00 535.70
  L 280.28 545.36
  L 276.50 552.37
  L 270.70 564.70
  L 265.06 578.07
  L 262.32 585.49
  L 259.78 593.50
  L 257.46 602.08
  L 255.47 610.75
  L 254.50 615.99
  L 253.68 621.58
  L 252.61 633.28
  L 252.26 645.66
  L 252.67 658.12
  L 253.64 668.43
  L 255.25 678.53
  L 257.50 688.41
  L 260.39 698.07
  L 260.39 698.07
  L 260.39 698.07
  L 264.06 707.87
  L 268.41 717.44
  L 273.46 726.77
  L 279.19 735.88
  L 283.47 741.76
  L 289.18 748.81
  L 294.37 754.72
  L 299.80 760.35
  L 305.45 765.70
  L 311.33 770.78
  L 311.33 770.78
  L 316.33 774.74
  L 321.48 778.51
  L 331.01 784.91
  L 339.99 790.32
  L 348.85 795.01
  L 357.80 799.06
  L 375.02 805.99
  L 387.78 810.00
  L 403.58 814.36
  L 413.03 816.55
  L 424.16 818.63
  L 436.99 820.60
  L 451.50 822.45
  L 467.33 823.73
  L 496.26 825.41
  L 501.53 825.63
  L 510.57 825.78
  L 519.99 825.62
  L 530.32 825.19
  L 545.12 824.31
  L 551.38 823.92
  L 562.28 823.11
  L 574.27 821.88
  L 586.38 820.28
  L 598.91 818.28
  L 612.07 815.84
  L 620.91 813.89
  L 629.91 811.47
  L 639.38 808.51
  L 650.04 804.78
  L 658.96 801.30
  L 667.67 797.46
  L 676.16 793.24
  L 684.44 788.66
  L 684.44 788.66
  L 690.08 785.25
  L 695.63 781.65
  L 701.07 777.87
  L 706.40 773.92
  L 715.30 766.60
  L 723.68 758.70
  L 731.53 750.21
  L 738.68 741.33
  L 741.95 736.79
  L 745.05 732.15
  L 747.91 727.50
  L 750.58 722.75
  L 752.99 718.05
  L 755.20 713.28
  L 757.16 708.53
  L 758.91 703.72
  L 762.73 691.32
  L 764.26 685.36
  L 765.55 679.55
  L 766.62 673.76
  L 767.45 668.13
  L 768.06 662.47
  L 768.43 656.97
  L 768.69 647.16
  L 768.52 637.61
  L 767.95 628.23
  L 766.94 618.91
  L 765.53 609.88
  L 763.68 600.92
  L 761.43 592.17
  L 758.73 583.49
  L 754.93 573.31
  L 751.42 565.14
  L 747.39 556.64
  L 742.84 547.79
  L 737.77 538.60
  L 733.02 530.65
  L 727.79 522.66
  L 722.09 514.64
  L 715.90 506.57
  L 708.31 497.27
  L 700.48 488.19
  L 692.43 479.34
  L 684.14 470.72
  L 684.14 470.72
  L 684.14 470.72
  L 684.14 470.72
  L 684.14 470.72
  L 674.51 461.27
  L 664.59 452.12
  L 654.37 443.25
  L 643.86 434.67
  L 629.63 423.78
  L 616.80 414.75
  L 611.99 411.84
  L 607.50 409.76
  L 604.34 408.79
  L 600.91 408.19
  L 597.07 407.91
  L 591.53 407.87
  L 589.50 407.88
  L 426.00 407.90
  L 416.71 408.12
  L 414.26 408.44
  L 411.71 409.27
  L 409.03 410.62
  L 406.25 412.48
  L 384.22 429.20
  Z"
/>
<path d="
  M 610.22 738.21
  L 602.06 743.96
  L 594.14 748.95
  L 586.48 753.19
  L 579.09 756.64
  L 567.97 760.93
  L 556.66 764.51
  L 556.66 764.51
  L 549.88 766.29
  L 543.04 767.83
  L 536.13 769.12
  L 529.15 770.16
  L 519.19 771.08
  L 508.99 771.26
  L 498.53 770.69
  L 487.83 769.39
  L 481.26 768.26
  L 474.82 766.94
  L 468.51 765.43
  L 462.34 763.73
  L 456.31 761.83
  L 450.42 759.74
  L 444.66 757.46
  L 439.03 754.98
  L 434.08 752.56
  L 429.17 749.88
  L 424.30 746.95
  L 419.48 743.78
  L 414.70 740.36
  L 409.96 736.68
  L 405.27 732.76
  L 400.62 728.58
  L 393.19 721.09
  L 384.82 711.52
  L 381.52 707.39
  L 378.37 703.12
  L 372.41 694.03
  L 366.90 684.17
  L 361.90 673.65
  L 359.41 667.64
  L 357.16 661.52
  L 355.15 655.30
  L 353.39 649.00
  L 351.89 642.67
  L 350.65 636.29
  L 349.65 629.86
  L 348.92 623.39
  L 348.45 616.95
  L 348.25 610.51
  L 348.31 604.16
  L 348.64 597.82
  L 349.23 591.52
  L 350.08 585.25
  L 351.19 579.13
  L 352.57 573.05
  L 355.01 564.41
  L 358.01 555.71
  L 361.57 546.98
  L 365.70 538.19
  L 369.80 530.50
  L 374.16 523.30
  L 378.76 516.59
  L 383.61 510.37
  L 390.63 502.43
  L 398.04 494.98
  L 405.75 488.11
  L 413.83 481.76
  L 422.16 476.02
  L 430.83 470.82
  L 439.74 466.23
  L 448.96 462.22
  L 459.22 458.56
  L 469.82 455.60
  L 480.08 453.60
  L 494.50 451.55
  L 502.20 450.75
  L 509.47 450.34
  L 516.29 450.32
  L 522.67 450.68
  L 530.74 451.54
  L 538.54 452.61
  L 545.98 453.90
  L 553.17 455.40
  L 560.12 457.13
  L 566.79 459.08
  L 573.31 461.29
  L 579.54 463.71
  L 584.17 465.77
  L 589.25 468.29
  L 600.76 474.76
  L 607.01 478.76
  L 613.18 483.26
  L 619.27 488.26
  L 625.25 493.73
  L 631.07 499.65
  L 636.75 506.01
  L 642.32 512.86
  L 647.72 520.11
  L 652.93 527.91
  L 657.62 535.92
  L 661.77 544.14
  L 665.38 552.56
  L 667.92 559.54
  L 670.12 566.66
  L 671.96 573.92
  L 673.45 581.31
  L 674.44 587.70
  L 675.15 594.15
  L 675.59 600.67
  L 675.76 607.26
  L 675.66 613.91
  L 675.29 620.62
  L 674.64 627.40
  L 673.72 634.24
  L 672.66 639.64
  L 670.69 648.10
  L 668.86 654.82
  L 666.62 661.64
  L 664.04 668.33
  L 661.06 675.08
  L 657.69 681.80
  L 654.03 688.35
  L 650.00 694.86
  L 645.70 701.15
  L 641.56 706.75
  L 637.37 712.03
  L 633.06 717.09
  L 628.70 721.83
  L 624.21 726.33
  L 619.69 730.51
  L 615.05 734.45
  L 610.22 738.21
  Z
  M 527.77 714.15
  L 528.01 713.43
  L 528.45 712.82
  L 529.06 712.37
  L 529.78 712.12
  L 534.38 711.17
  L 534.38 711.17
  L 539.21 709.88
  L 543.97 708.29
  L 548.65 706.41
  L 553.27 704.23
  L 556.51 702.41
  L 559.88 700.18
  L 563.37 697.53
  L 566.99 694.48
  L 570.82 690.77
  L 574.19 686.82
  L 577.09 682.65
  L 579.52 678.26
  L 579.52 678.26
  L 580.98 674.98
  L 582.19 671.59
  L 583.17 668.08
  L 583.91 664.46
  L 584.61 659.01
  L 584.86 653.60
  L 584.67 648.26
  L 584.01 643.02
  L 582.90 637.98
  L 581.34 633.08
  L 579.36 628.45
  L 576.92 624.00
  L 575.02 621.12
  L 572.92 618.35
  L 570.67 615.76
  L 568.22 613.28
  L 565.05 610.54
  L 561.37 607.88
  L 557.19 605.31
  L 552.57 602.86
  L 547.46 600.53
  L 541.99 598.36
  L 536.10 596.33
  L 530.00 594.52
  L 522.40 592.62
  L 512.18 590.07
  L 504.40 587.93
  L 497.72 585.81
  L 492.11 583.70
  L 489.87 582.64
  L 487.81 581.40
  L 485.92 579.99
  L 484.23 578.42
  L 482.78 576.73
  L 481.55 574.91
  L 480.56 572.97
  L 479.81 570.90
  L 479.37 569.04
  L 479.14 567.10
  L 479.30 563.24
  L 479.74 561.01
  L 480.43 558.74
  L 481.32 556.59
  L 482.42 554.52
  L 483.62 552.76
  L 485.00 551.17
  L 486.46 549.87
  L 488.06 548.79
  L 491.11 547.23
  L 494.26 545.93
  L 494.26 545.93
  L 494.26 545.93
  L 497.37 544.95
  L 500.57 544.21
  L 503.87 543.72
  L 507.25 543.48
  L 513.75 543.52
  L 520.07 544.11
  L 526.21 545.24
  L 532.17 546.91
  L 532.17 546.91
  L 537.11 548.76
  L 541.92 551.00
  L 546.59 553.63
  L 551.14 556.66
  L 553.91 558.90
  L 558.32 562.31
  L 559.20 562.53
  L 560.04 562.20
  L 561.70 560.66
  L 563.29 558.78
  L 578.39 539.19
  L 579.08 538.01
  L 579.26 536.86
  L 579.26 536.86
  L 579.03 535.94
  L 578.46 535.04
  L 574.93 531.22
  L 570.83 527.59
  L 566.19 524.16
  L 561.05 521.00
  L 555.51 518.12
  L 549.60 515.58
  L 543.36 513.36
  L 536.98 511.56
  L 529.40 509.57
  L 528.69 509.23
  L 528.10 508.71
  L 527.70 508.03
  L 527.51 507.27
  L 527.05 500.63
  L 526.80 492.51
  L 526.37 490.19
  L 525.15 487.53
  L 524.75 487.09
  L 524.19 486.86
  L 520.54 486.37
  L 516.69 486.11
  L 506.32 486.14
  L 503.19 486.21
  L 501.43 486.36
  L 499.90 486.74
  L 498.61 487.35
  L 497.54 488.20
  L 497.54 488.20
  L 497.54 488.20
  L 496.68 489.31
  L 496.08 490.67
  L 495.71 492.27
  L 495.60 494.12
  L 495.25 508.26
  L 495.11 508.91
  L 494.78 509.48
  L 494.29 509.92
  L 493.69 510.19
  L 486.38 512.14
  L 481.93 513.49
  L 477.65 515.11
  L 473.52 517.00
  L 469.56 519.17
  L 469.56 519.17
  L 465.38 521.88
  L 461.39 524.92
  L 457.59 528.30
  L 454.00 532.01
  L 453.29 532.83
  L 450.77 536.30
  L 448.72 540.16
  L 446.82 544.85
  L 445.29 549.58
  L 444.14 554.34
  L 443.35 559.12
  L 442.93 563.94
  L 442.89 568.74
  L 443.23 573.52
  L 443.93 578.24
  L 444.80 582.13
  L 445.93 585.97
  L 447.32 589.75
  L 448.96 593.45
  L 450.83 597.03
  L 452.95 600.51
  L 455.31 603.90
  L 457.92 607.19
  L 460.06 609.42
  L 462.59 611.51
  L 465.58 613.53
  L 468.91 615.38
  L 475.43 618.41
  L 482.33 621.06
  L 489.60 623.34
  L 497.24 625.25
  L 520.70 630.58
  L 526.33 632.19
  L 531.60 634.24
  L 536.50 636.75
  L 541.05 639.70
  L 542.61 641.06
  L 544.07 642.81
  L 545.42 644.92
  L 546.67 647.42
  L 547.48 649.76
  L 547.91 652.19
  L 547.97 654.80
  L 547.66 657.42
  L 546.97 660.15
  L 545.95 662.76
  L 544.59 665.29
  L 542.94 667.57
  L 541.06 669.50
  L 538.65 671.36
  L 535.87 673.05
  L 532.66 674.59
  L 529.05 675.98
  L 525.21 677.12
  L 521.41 677.95
  L 517.75 678.45
  L 513.21 678.70
  L 508.67 678.66
  L 508.67 678.66
  L 501.95 678.05
  L 495.25 676.79
  L 488.58 674.88
  L 481.94 672.31
  L 478.84 670.78
  L 474.99 668.55
  L 465.02 661.99
  L 462.36 659.85
  L 459.25 657.33
  L 456.76 655.90
  L 455.59 655.74
  L 454.49 656.20
  L 451.52 658.86
  L 448.36 662.37
  L 436.63 676.80
  L 436.23 677.84
  L 436.49 678.93
  L 438.41 681.82
  L 440.70 684.73
  L 443.22 687.46
  L 446.09 690.17
  L 449.21 692.76
  L 452.65 695.28
  L 456.27 697.63
  L 460.13 699.85
  L 467.59 703.53
  L 475.41 706.67
  L 483.59 709.27
  L 492.13 711.34
  L 493.13 711.69
  L 493.90 712.26
  L 493.90 712.26
  L 493.90 712.26
  L 494.54 713.31
  L 494.79 714.74
  L 495.42 729.77
  L 495.86 732.18
  L 496.85 734.12
  L 497.64 734.64
  L 502.15 735.25
  L 508.75 735.44
  L 524.53 735.24
  L 525.12 735.06
  L 525.54 734.59
  L 526.15 733.03
  L 526.59 731.32
  L 527.00 727.56
  L 527.24 719.53
  L 527.77 714.15
  Z"
/>
</g>
<g fill="#ffffff">
<path d="
  M 433.25 325.46
  L 431.65 325.49
  L 428.13 325.38
  L 426.85 325.04
  L 425.86 324.53
  L 424.77 323.51
  L 423.86 321.97
  L 418.59 310.52
  L 412.59 298.09
  L 396.22 265.85
  L 389.49 252.77
  L 386.58 246.68
  L 384.76 241.71
  L 384.24 239.58
  L 383.99 237.76
  L 384.00 236.19
  L 384.29 234.80
  L 385.73 231.19
  L 387.37 228.40
  L 389.22 226.39
  L 391.38 225.07
  L 391.55 225.00
  L 396.75 223.18
  L 401.73 221.95
  L 406.49 221.29
  L 411.03 221.22
  L 416.50 221.62
  L 423.04 222.33
  L 423.61 222.40
  L 428.57 223.18
  L 433.66 224.24
  L 446.92 227.85
  L 452.31 229.41
  L 456.06 230.35
  L 459.47 230.96
  L 462.53 231.23
  L 465.26 231.16
  L 467.80 230.70
  L 470.66 229.77
  L 473.87 228.35
  L 477.21 226.54
  L 480.96 224.31
  L 492.96 217.37
  L 497.43 215.08
  L 501.77 213.12
  L 506.30 211.36
  L 513.96 208.88
  L 519.75 207.61
  L 522.91 207.34
  L 527.59 207.53
  L 532.31 208.44
  L 537.13 210.09
  L 541.98 212.46
  L 546.87 215.53
  L 551.88 219.32
  L 557.20 223.97
  L 563.37 229.96
  L 564.22 230.47
  L 567.92 231.18
  L 567.92 231.18
  L 569.84 231.24
  L 571.78 231.10
  L 575.71 230.22
  L 575.75 230.21
  L 590.37 225.66
  L 595.95 224.21
  L 601.15 223.09
  L 606.21 222.27
  L 611.08 221.78
  L 615.73 221.61
  L 620.21 221.77
  L 623.23 222.21
  L 626.39 223.09
  L 629.66 224.42
  L 633.07 226.19
  L 633.69 226.68
  L 634.15 227.34
  L 635.47 230.36
  L 636.30 233.10
  L 636.64 235.56
  L 636.48 237.75
  L 635.81 240.46
  L 634.80 243.46
  L 631.79 250.33
  L 623.48 266.22
  L 616.19 280.15
  L 609.20 294.18
  L 602.50 308.33
  L 596.10 322.58
  L 595.50 323.63
  L 594.77 324.39
  L 593.80 324.95
  L 592.68 325.26
  L 589.18 325.43
  L 588.24 325.43
  L 433.25 325.46
  Z"
/>
<rect x="409.00" y="346.21" width="203.80" height="41.18" rx="19.66"/>
<path d="
  M 384.22 429.20
  L 406.25 412.48
  L 409.03 410.62
  L 411.71 409.27
  L 414.26 408.44
  L 416.71 408.12
  L 426.00 407.90
  L 589.50 407.88
  L 591.53 407.87
  L 597.07 407.91
  L 600.91 408.19
  L 604.34 408.79
  L 607.50 409.76
  L 611.99 411.84
  L 616.80 414.75
  L 629.63 423.78
  L 643.86 434.67
  L 654.37 443.25
  L 664.59 452.12
  L 674.51 461.27
  L 684.14 470.72
  L 684.14 470.72
  L 684.14 470.72
  L 684.14 470.72
  L 684.14 470.72
  L 692.43 479.34
  L 700.48 488.19
  L 708.31 497.27
  L 715.90 506.57
  L 722.09 514.64
  L 727.79 522.66
  L 733.02 530.65
  L 737.77 538.60
  L 742.84 547.79
  L 747.39 556.64
  L 751.42 565.14
  L 754.93 573.31
  L 758.73 583.49
  L 761.43 592.17
  L 763.68 600.92
  L 765.53 609.88
  L 766.94 618.91
  L 767.95 628.23
  L 768.52 637.61
  L 768.69 647.16
  L 768.43 656.97
  L 768.06 662.47
  L 767.45 668.13
  L 766.62 673.76
  L 765.55 679.55
  L 764.26 685.36
  L 762.73 691.32
  L 758.91 703.72
  L 757.16 708.53
  L 755.20 713.28
  L 752.99 718.05
  L 750.58 722.75
  L 747.91 727.50
  L 745.05 732.15
  L 741.95 736.79
  L 738.68 741.33
  L 731.53 750.21
  L 723.68 758.70
  L 715.30 766.60
  L 706.40 773.92
  L 701.07 777.87
  L 695.63 781.65
  L 690.08 785.25
  L 684.44 788.66
  L 684.44 788.66
  L 684.44 788.66
  L 676.16 793.24
  L 667.67 797.46
  L 658.96 801.30
  L 650.04 804.78
  L 639.38 808.51
  L 629.91 811.47
  L 620.91 813.89
  L 612.07 815.84
  L 598.91 818.28
  L 586.38 820.28
  L 574.27 821.88
  L 562.28 823.11
  L 551.38 823.92
  L 545.12 824.31
  L 530.32 825.19
  L 519.99 825.62
  L 510.57 825.78
  L 501.53 825.63
  L 496.26 825.41
  L 467.33 823.73
  L 451.50 822.45
  L 436.99 820.60
  L 424.16 818.63
  L 413.03 816.55
  L 403.58 814.36
  L 387.78 810.00
  L 375.02 805.99
  L 357.80 799.06
  L 348.85 795.01
  L 339.99 790.32
  L 331.01 784.91
  L 321.48 778.51
  L 316.33 774.74
  L 311.33 770.78
  L 311.33 770.78
  L 311.33 770.78
  L 305.45 765.70
  L 299.80 760.35
  L 294.37 754.72
  L 289.18 748.81
  L 283.47 741.76
  L 279.19 735.88
  L 273.46 726.77
  L 268.41 717.44
  L 264.06 707.87
  L 260.39 698.07
  L 260.39 698.07
  L 260.39 698.07
  L 260.39 698.07
  L 257.50 688.41
  L 255.25 678.53
  L 253.64 668.43
  L 252.67 658.12
  L 252.26 645.66
  L 252.61 633.28
  L 253.68 621.58
  L 254.50 615.99
  L 255.47 610.75
  L 257.46 602.08
  L 259.78 593.50
  L 262.32 585.49
  L 265.06 578.07
  L 270.70 564.70
  L 276.50 552.37
  L 280.28 545.36
  L 286.00 535.70
  L 288.51 531.52
  L 295.00 521.29
  L 301.95 511.70
  L 314.02 496.76
  L 326.63 482.39
  L 339.77 468.60
  L 353.43 455.37
  L 353.43 455.37
  L 353.43 455.37
  L 360.91 448.59
  L 368.53 441.96
  L 376.30 435.50
  L 384.22 429.20
  Z
  M 610.22 738.21
  L 615.05 734.45
  L 619.69 730.51
  L 624.21 726.33
  L 628.70 721.83
  L 633.06 717.09
  L 637.37 712.03
  L 641.56 706.75
  L 645.70 701.15
  L 650.00 694.86
  L 654.03 688.35
  L 657.69 681.80
  L 661.06 675.08
  L 664.04 668.33
  L 666.62 661.64
  L 668.86 654.82
  L 670.69 648.10
  L 672.66 639.64
  L 673.72 634.24
  L 674.64 627.40
  L 675.29 620.62
  L 675.66 613.91
  L 675.76 607.26
  L 675.59 600.67
  L 675.15 594.15
  L 674.44 587.70
  L 673.45 581.31
  L 671.96 573.92
  L 670.12 566.66
  L 667.92 559.54
  L 665.38 552.56
  L 665.38 552.56
  L 665.38 552.56
  L 661.77 544.14
  L 657.62 535.92
  L 652.93 527.91
  L 647.72 520.11
  L 642.32 512.86
  L 636.75 506.01
  L 631.07 499.65
  L 625.25 493.73
  L 619.27 488.26
  L 613.18 483.26
  L 607.01 478.76
  L 600.76 474.76
  L 589.25 468.29
  L 584.17 465.77
  L 579.54 463.71
  L 573.31 461.29
  L 566.79 459.08
  L 560.12 457.13
  L 553.17 455.40
  L 545.98 453.90
  L 538.54 452.61
  L 530.74 451.54
  L 522.67 450.68
  L 516.29 450.32
  L 509.47 450.34
  L 502.20 450.75
  L 494.50 451.55
  L 480.08 453.60
  L 469.82 455.60
  L 459.22 458.56
  L 448.96 462.22
  L 439.74 466.23
  L 430.83 470.82
  L 422.16 476.02
  L 413.83 481.76
  L 405.75 488.11
  L 398.04 494.98
  L 390.63 502.43
  L 383.61 510.37
  L 378.76 516.59
  L 374.16 523.30
  L 369.80 530.50
  L 365.70 538.19
  L 361.57 546.98
  L 358.01 555.71
  L 355.01 564.41
  L 352.57 573.05
  L 351.19 579.13
  L 350.08 585.25
  L 349.23 591.52
  L 348.64 597.82
  L 348.31 604.16
  L 348.25 610.51
  L 348.45 616.95
  L 348.92 623.39
  L 349.65 629.86
  L 350.65 636.29
  L 351.89 642.67
  L 353.39 649.00
  L 355.15 655.30
  L 357.16 661.52
  L 359.41 667.64
  L 361.90 673.65
  L 366.90 684.17
  L 372.41 694.03
  L 378.37 703.12
  L 381.52 707.39
  L 384.82 711.52
  L 393.19 721.09
  L 400.62 728.58
  L 405.27 732.76
  L 409.96 736.68
  L 414.70 740.36
  L 419.48 743.78
  L 424.30 746.95
  L 429.17 749.88
  L 434.08 752.56
  L 439.03 754.98
  L 444.66 757.46
  L 450.42 759.74
  L 456.31 761.83
  L 462.34 763.73
  L 468.51 765.43
  L 474.82 766.94
  L 481.26 768.26
  L 487.83 769.39
  L 498.53 770.69
  L 508.99 771.26
  L 519.19 771.08
  L 529.15 770.16
  L 536.13 769.12
  L 543.04 767.83
  L 549.88 766.29
  L 556.66 764.51
  L 556.66 764.51
  L 567.97 760.93
  L 579.09 756.64
  L 586.48 753.19
  L 594.14 748.95
  L 602.06 743.96
  L 610.22 738.21
  Z"
/>
<path d="
  M 527.77 714.15
  L 527.24 719.53
  L 527.00 727.56
  L 526.59 731.32
  L 526.15 733.03
  L 525.54 734.59
  L 525.12 735.06
  L 524.53 735.24
  L 508.75 735.44
  L 502.15 735.25
  L 497.64 734.64
  L 496.85 734.12
  L 495.86 732.18
  L 495.42 729.77
  L 494.79 714.74
  L 494.54 713.31
  L 493.90 712.26
  L 493.90 712.26
  L 493.13 711.69
  L 492.13 711.34
  L 483.59 709.27
  L 475.41 706.67
  L 467.59 703.53
  L 460.13 699.85
  L 456.27 697.63
  L 452.65 695.28
  L 449.21 692.76
  L 446.09 690.17
  L 443.22 687.46
  L 440.70 684.73
  L 438.41 681.82
  L 436.49 678.93
  L 436.23 677.84
  L 436.63 676.80
  L 448.36 662.37
  L 451.52 658.86
  L 454.49 656.20
  L 455.59 655.74
  L 456.76 655.90
  L 459.25 657.33
  L 462.36 659.85
  L 465.02 661.99
  L 474.99 668.55
  L 478.84 670.78
  L 481.94 672.31
  L 488.58 674.88
  L 495.25 676.79
  L 501.95 678.05
  L 508.67 678.66
  L 508.67 678.66
  L 513.21 678.70
  L 517.75 678.45
  L 521.41 677.95
  L 525.21 677.12
  L 529.05 675.98
  L 532.66 674.59
  L 535.87 673.05
  L 538.65 671.36
  L 541.06 669.50
  L 542.94 667.57
  L 544.59 665.29
  L 545.95 662.76
  L 546.97 660.15
  L 547.66 657.42
  L 547.97 654.80
  L 547.91 652.19
  L 547.48 649.76
  L 546.67 647.42
  L 545.42 644.92
  L 544.07 642.81
  L 542.61 641.06
  L 541.05 639.70
  L 536.50 636.75
  L 531.60 634.24
  L 526.33 632.19
  L 520.70 630.58
  L 497.24 625.25
  L 489.60 623.34
  L 482.33 621.06
  L 475.43 618.41
  L 468.91 615.38
  L 465.58 613.53
  L 462.59 611.51
  L 460.06 609.42
  L 457.92 607.19
  L 455.31 603.90
  L 452.95 600.51
  L 450.83 597.03
  L 448.96 593.45
  L 447.32 589.75
  L 445.93 585.97
  L 444.80 582.13
  L 443.93 578.24
  L 443.23 573.52
  L 442.89 568.74
  L 442.93 563.94
  L 443.35 559.12
  L 444.14 554.34
  L 445.29 549.58
  L 446.82 544.85
  L 448.72 540.16
  L 450.77 536.30
  L 453.29 532.83
  L 454.00 532.01
  L 457.59 528.30
  L 461.39 524.92
  L 465.38 521.88
  L 469.56 519.17
  L 469.56 519.17
  L 473.52 517.00
  L 477.65 515.11
  L 481.93 513.49
  L 486.38 512.14
  L 493.69 510.19
  L 494.29 509.92
  L 494.78 509.48
  L 495.11 508.91
  L 495.25 508.26
  L 495.60 494.12
  L 495.71 492.27
  L 496.08 490.67
  L 496.68 489.31
  L 497.54 488.20
  L 497.54 488.20
  L 497.54 488.20
  L 498.61 487.35
  L 499.90 486.74
  L 501.43 486.36
  L 503.19 486.21
  L 506.32 486.14
  L 516.69 486.11
  L 520.54 486.37
  L 524.19 486.86
  L 524.75 487.09
  L 525.15 487.53
  L 526.37 490.19
  L 526.80 492.51
  L 527.05 500.63
  L 527.51 507.27
  L 527.70 508.03
  L 528.10 508.71
  L 528.69 509.23
  L 529.40 509.57
  L 536.98 511.56
  L 543.36 513.36
  L 549.60 515.58
  L 555.51 518.12
  L 561.05 521.00
  L 566.19 524.16
  L 570.83 527.59
  L 574.93 531.22
  L 578.46 535.04
  L 579.03 535.94
  L 579.26 536.86
  L 579.26 536.86
  L 579.08 538.01
  L 578.39 539.19
  L 563.29 558.78
  L 561.70 560.66
  L 560.04 562.20
  L 559.20 562.53
  L 558.32 562.31
  L 553.91 558.90
  L 551.14 556.66
  L 546.59 553.63
  L 541.92 551.00
  L 537.11 548.76
  L 532.17 546.91
  L 532.17 546.91
  L 526.21 545.24
  L 520.07 544.11
  L 513.75 543.52
  L 507.25 543.48
  L 503.87 543.72
  L 500.57 544.21
  L 497.37 544.95
  L 494.26 545.93
  L 494.26 545.93
  L 494.26 545.93
  L 491.11 547.23
  L 488.06 548.79
  L 486.46 549.87
  L 485.00 551.17
  L 483.62 552.76
  L 482.42 554.52
  L 481.32 556.59
  L 480.43 558.74
  L 479.74 561.01
  L 479.30 563.24
  L 479.14 567.10
  L 479.37 569.04
  L 479.81 570.90
  L 480.56 572.97
  L 481.55 574.91
  L 482.78 576.73
  L 484.23 578.42
  L 485.92 579.99
  L 487.81 581.40
  L 489.87 582.64
  L 492.11 583.70
  L 497.72 585.81
  L 504.40 587.93
  L 512.18 590.07
  L 522.40 592.62
  L 530.00 594.52
  L 536.10 596.33
  L 541.99 598.36
  L 547.46 600.53
  L 552.57 602.86
  L 557.19 605.31
  L 561.37 607.88
  L 565.05 610.54
  L 568.22 613.28
  L 570.67 615.76
  L 572.92 618.35
  L 575.02 621.12
  L 576.92 624.00
  L 579.36 628.45
  L 581.34 633.08
  L 582.90 637.98
  L 584.01 643.02
  L 584.67 648.26
  L 584.86 653.60
  L 584.61 659.01
  L 583.91 664.46
  L 583.17 668.08
  L 582.19 671.59
  L 580.98 674.98
  L 579.52 678.26
  L 579.52 678.26
  L 577.09 682.65
  L 574.19 686.82
  L 570.82 690.77
  L 566.99 694.48
  L 563.37 697.53
  L 559.88 700.18
  L 556.51 702.41
  L 553.27 704.23
  L 548.65 706.41
  L 543.97 708.29
  L 539.21 709.88
  L 534.38 711.17
  L 529.78 712.12
  L 529.06 712.37
  L 528.45 712.82
  L 528.01 713.43
  L 527.77 714.15
  Z"
/>
</g>
<path fill="#8debc9" d="
  M 54.12 470.77
  L 54.47 470.45
  L 54.52 470.25
  L 55.22 461.72
  L 55.84 450.76
  L 56.30 448.91
  L 56.67 447.79
  L 56.77 446.86
  L 56.88 446.38
  L 57.19 446.00
  L 58.10 444.95
  L 58.45 444.06
  L 59.63 432.09
  L 59.93 430.34
  L 60.49 428.48
  L 62.44 424.45
  L 62.74 423.41
  L 62.99 419.88
  L 63.44 416.55
  L 64.06 413.43
  L 64.88 410.50
  L 65.13 410.08
  L 65.54 409.81
  L 65.79 409.72
  L 66.17 409.38
  L 66.36 408.90
  L 67.75 398.80
  L 68.37 396.93
  L 69.96 393.48
  L 70.59 391.94
  L 71.03 390.33
  L 71.17 389.62
  L 71.96 386.08
  L 72.75 383.54
  L 74.23 380.36
  L 75.12 377.93
  L 75.35 376.80
  L 76.60 371.79
  L 78.01 368.70
  L 79.02 366.49
  L 80.09 363.44
  L 81.32 360.02
  L 82.52 357.66
  L 83.33 355.70
  L 84.49 351.71
  L 86.10 348.35
  L 87.83 344.60
  L 89.19 341.50
  L 90.63 339.31
  L 91.19 338.30
  L 91.66 336.81
  L 93.09 332.97
  L 100.69 317.87
  L 104.58 310.56
  L 118.25 286.73
  L 122.19 280.37
  L 128.51 271.01
  L 145.86 247.42
  L 155.07 235.76
  L 164.59 224.93
  L 172.41 216.67
  L 180.24 208.73
  L 188.05 201.13
  L 195.95 193.75
  L 203.94 186.60
  L 212.13 179.59
  L 220.62 172.60
  L 229.40 165.66
  L 238.35 158.98
  L 248.31 152.02
  L 259.29 144.78
  L 271.28 137.26
  L 273.69 135.97
  L 276.01 134.75
  L 277.64 133.66
  L 279.37 132.56
  L 281.87 131.36
  L 284.34 130.18
  L 285.98 129.11
  L 287.72 128.17
  L 290.84 126.98
  L 293.00 125.62
  L 294.66 124.54
  L 297.01 123.59
  L 299.27 122.68
  L 300.83 121.66
  L 302.71 120.40
  L 305.39 119.22
  L 307.96 118.11
  L 309.88 116.95
  L 311.72 115.98
  L 314.40 115.22
  L 315.87 114.84
  L 316.73 114.41
  L 319.40 112.45
  L 320.13 112.09
  L 323.58 111.04
  L 325.53 110.25
  L 329.25 108.38
  L 331.46 107.67
  L 334.48 107.07
  L 337.06 105.98
  L 339.48 104.37
  L 340.12 103.98
  L 340.85 103.77
  L 345.46 103.06
  L 346.69 102.71
  L 347.79 102.06
  L 350.10 100.44
  L 351.57 99.79
  L 358.75 98.38
  L 360.09 97.72
  L 361.46 96.80
  L 362.93 96.13
  L 362.93 96.13
  L 365.52 95.56
  L 369.05 95.11
  L 373.01 94.33
  L 373.53 94.05
  L 373.77 93.43
  L 373.97 93.02
  L 374.38 92.85
  L 375.29 92.61
  L 375.66 92.35
  L 376.26 91.96
  L 376.95 91.79
  L 387.08 90.37
  L 388.05 90.07
  L 388.68 89.54
  L 388.68 89.54
  L 388.79 89.36
  L 389.13 89.00
  L 391.18 88.09
  L 393.66 87.43
  L 396.72 87.00
  L 400.81 86.72
  L 403.89 86.51
  L 405.27 86.10
  L 408.01 84.81
  L 410.70 83.86
  L 413.35 83.25
  L 415.96 82.98
  L 422.08 82.60
  L 428.01 81.91
  L 428.49 81.72
  L 428.84 81.35
  L 428.91 81.23
  L 429.27 80.87
  L 429.77 80.78
  L 430.46 80.66
  L 430.77 80.30
  L 431.11 79.92
  L 431.60 79.76
  L 456.32 78.23
  L 456.61 78.09
  L 456.73 77.80
  L 456.75 77.51
  L 457.11 77.03
  L 457.69 76.85
  L 460.14 76.76
  L 462.13 76.42
  L 464.31 75.97
  L 466.43 75.76
  L 487.99 75.15
  L 509.52 74.93
  L 531.01 75.12
  L 552.46 75.70
  L 556.50 76.25
  L 559.11 76.69
  L 561.21 76.83
  L 561.76 76.97
  L 562.19 77.34
  L 562.82 77.91
  L 563.18 78.02
  L 566.68 78.48
  L 570.50 78.71
  L 579.77 79.11
  L 588.27 79.76
  L 588.79 79.92
  L 589.20 80.28
  L 589.22 80.33
  L 589.52 80.65
  L 589.96 80.73
  L 591.08 80.73
  L 591.91 81.10
  L 591.91 81.10
  L 592.29 81.53
  L 592.64 81.88
  L 593.11 82.04
  L 609.08 83.71
  L 609.94 84.09
  L 611.56 85.29
  L 613.88 86.28
  L 616.52 86.72
  L 621.97 87.17
  L 626.64 87.83
  L 627.59 88.17
  L 631.38 90.27
  L 632.28 90.55
  L 634.06 90.72
  L 639.88 91.49
  L 641.90 92.08
  L 643.42 92.83
  L 645.71 94.16
  L 647.28 94.68
  L 650.73 95.13
  L 653.45 95.77
  L 655.43 96.58
  L 656.60 97.58
  L 657.45 98.22
  L 660.44 98.81
  L 663.26 99.30
  L 665.39 99.92
  L 667.20 100.80
  L 668.69 101.95
  L 669.76 102.51
  L 676.73 103.86
  L 677.66 104.33
  L 679.59 105.93
  L 680.92 106.61
  L 682.37 106.93
  L 685.54 107.67
  L 687.57 108.40
  L 689.24 109.31
  L 691.13 110.67
  L 691.85 110.98
  L 697.63 111.90
  L 698.27 112.26
  L 700.16 114.49
  L 700.87 114.90
  L 705.58 115.81
  L 706.19 116.10
  L 706.80 116.60
  L 708.43 117.86
  L 709.71 118.56
  L 710.64 118.86
  L 710.69 118.87
  L 713.85 119.71
  L 716.01 120.62
  L 718.42 122.32
  L 719.38 122.96
  L 720.48 123.33
  L 722.25 123.80
  L 723.80 124.46
  L 725.16 125.31
  L 726.30 126.34
  L 726.32 126.36
  L 727.00 126.91
  L 727.80 127.25
  L 731.58 128.23
  L 732.34 128.54
  L 732.99 129.03
  L 735.15 130.77
  L 737.42 131.88
  L 737.80 132.02
  L 739.55 132.80
  L 741.59 134.01
  L 745.30 136.03
  L 745.53 136.12
  L 747.60 137.15
  L 749.53 138.51
  L 752.51 140.25
  L 755.06 141.64
  L 767.60 149.77
  L 779.06 157.48
  L 794.19 168.34
  L 808.72 179.68
  L 822.62 191.47
  L 835.86 203.68
  L 848.45 216.33
  L 860.31 229.34
  L 871.40 242.66
  L 881.71 256.27
  L 890.15 268.09
  L 898.80 280.92
  L 907.29 294.61
  L 915.59 309.15
  L 923.73 324.53
  L 924.26 325.34
  L 925.14 326.79
  L 926.78 330.72
  L 928.49 333.80
  L 929.48 335.91
  L 930.77 339.52
  L 932.06 341.88
  L 933.31 344.01
  L 934.16 346.45
  L 935.13 349.08
  L 936.81 352.01
  L 937.59 353.74
  L 938.97 358.86
  L 939.50 360.09
  L 941.48 363.27
  L 941.73 363.89
  L 943.20 370.31
  L 943.80 371.73
  L 945.58 375.26
  L 946.80 379.33
  L 947.36 381.08
  L 948.43 383.33
  L 949.70 386.36
  L 951.38 393.73
  L 952.12 395.67
  L 953.24 398.17
  L 954.41 402.19
  L 955.20 407.61
  L 955.76 409.83
  L 957.11 413.41
  L 958.15 416.72
  L 958.95 421.34
  L 959.96 426.81
  L 960.62 428.89
  L 961.46 430.81
  L 961.71 431.30
  L 962.06 432.40
  L 962.60 436.87
  L 963.83 445.92
  L 965.39 452.77
  L 966.09 455.67
  L 966.61 458.86
  L 967.30 467.38
  L 967.85 474.81
  L 968.74 480.04
  L 969.97 484.90
  L 970.17 486.18
  L 970.85 506.15
  L 971.07 526.10
  L 970.84 546.02
  L 970.15 565.91
  L 969.88 567.46
  L 968.37 573.32
  L 967.67 578.49
  L 966.21 598.35
  L 965.75 600.06
  L 964.19 603.78
  L 963.61 605.97
  L 962.44 619.69
  L 961.84 622.02
  L 961.22 623.45
  L 960.09 626.22
  L 959.46 628.57
  L 959.27 630.01
  L 958.58 637.08
  L 958.09 640.55
  L 956.25 644.28
  L 955.54 646.11
  L 955.00 650.24
  L 954.65 653.42
  L 954.19 655.78
  L 953.53 657.75
  L 952.65 659.39
  L 951.89 660.77
  L 951.30 662.40
  L 950.56 666.69
  L 950.13 669.68
  L 949.78 670.64
  L 947.32 675.07
  L 947.25 675.26
  L 945.86 681.38
  L 945.15 682.83
  L 944.01 684.54
  L 943.13 686.60
  L 942.50 689.00
  L 942.12 691.76
  L 941.57 693.26
  L 940.09 695.92
  L 939.49 697.24
  L 937.09 703.95
  L 933.87 711.62
  L 927.77 724.70
  L 920.98 738.01
  L 912.88 752.78
  L 904.72 766.67
  L 896.52 779.68
  L 888.27 791.81
  L 880.11 803.14
  L 868.16 818.22
  L 863.25 824.27
  L 855.83 832.85
  L 845.64 843.64
  L 836.01 853.34
  L 826.47 862.57
  L 817.01 871.32
  L 807.63 879.61
  L 801.36 884.87
  L 794.19 890.58
  L 777.18 903.39
  L 768.82 909.29
  L 759.71 915.32
  L 749.84 921.49
  L 739.22 927.81
  L 736.30 929.32
  L 733.53 930.75
  L 731.74 931.90
  L 731.35 932.18
  L 728.50 933.55
  L 725.64 934.87
  L 725.60 934.90
  L 721.70 937.09
  L 718.29 938.51
  L 715.47 940.45
  L 714.70 940.93
  L 713.84 941.23
  L 710.41 942.38
  L 708.90 943.19
  L 707.53 944.16
  L 706.69 944.71
  L 705.77 945.07
  L 700.84 946.46
  L 699.74 947.06
  L 698.43 948.13
  L 697.23 948.87
  L 695.56 949.50
  L 692.86 950.13
  L 691.43 950.57
  L 690.10 951.26
  L 688.01 952.59
  L 686.00 953.42
  L 681.32 954.44
  L 680.38 954.75
  L 679.53 955.25
  L 677.38 956.83
  L 676.05 957.43
  L 669.94 958.71
  L 668.71 959.25
  L 666.80 960.50
  L 665.11 961.33
  L 662.76 962.02
  L 659.00 962.62
  L 658.73 962.66
  L 657.64 962.93
  L 656.63 963.42
  L 654.61 964.66
  L 652.69 965.40
  L 646.38 966.60
  L 645.04 966.96
  L 643.76 967.52
  L 640.96 969.00
  L 638.96 969.65
  L 629.25 971.15
  L 628.32 971.40
  L 627.47 971.86
  L 625.55 972.96
  L 623.32 973.78
  L 620.79 974.33
  L 617.96 974.59
  L 615.01 974.95
  L 611.15 975.85
  L 610.21 976.40
  L 610.20 976.42
  L 610.18 976.43
  L 609.29 977.00
  L 608.11 977.31
  L 604.45 978.14
  L 603.09 978.31
  L 593.27 979.23
  L 591.90 979.54
  L 590.59 980.07
  L 587.33 981.51
  L 585.00 982.06
  L 565.50 983.21
  L 563.86 983.52
  L 562.54 984.24
  L 562.54 984.24
  L 562.07 984.68
  L 561.24 985.10
  L 550.69 986.15
  L 531.09 986.50
  L 511.47 986.62
  L 491.80 986.52
  L 472.11 986.19
  L 466.25 985.66
  L 461.30 985.17
  L 460.33 984.85
  L 458.38 983.75
  L 457.00 983.33
  L 449.43 982.84
  L 439.09 982.09
  L 432.74 981.15
  L 431.91 980.70
  L 431.21 980.12
  L 429.90 979.46
  L 428.37 979.13
  L 416.29 978.20
  L 416.19 978.19
  L 411.55 977.09
  L 411.06 976.81
  L 409.85 975.60
  L 409.14 975.25
  L 395.94 973.36
  L 395.11 972.88
  L 394.25 972.08
  L 393.09 971.46
  L 391.63 971.01
  L 389.87 970.74
  L 384.45 970.03
  L 381.02 969.13
  L 378.57 967.38
  L 377.45 966.88
  L 369.69 965.63
  L 368.18 965.11
  L 364.78 963.23
  L 364.46 963.11
  L 355.88 961.46
  L 355.09 961.07
  L 353.08 959.49
  L 351.89 958.86
  L 344.29 957.05
  L 343.38 956.44
  L 342.65 955.66
  L 341.69 954.99
  L 340.44 954.43
  L 337.01 953.70
  L 336.25 953.58
  L 334.75 953.16
  L 333.37 952.42
  L 331.69 951.26
  L 330.65 950.77
  L 328.90 950.28
  L 324.69 948.91
  L 323.49 948.25
  L 322.58 947.41
  L 321.98 946.85
  L 321.23 946.50
  L 316.24 945.04
  L 315.20 944.58
  L 313.89 943.64
  L 311.89 942.39
  L 307.91 941.15
  L 307.07 940.82
  L 306.33 940.28
  L 304.39 938.89
  L 301.54 937.71
  L 299.26 936.80
  L 297.65 935.87
  L 294.94 934.21
  L 291.64 932.76
  L 289.90 931.73
  L 288.08 930.52
  L 284.98 929.02
  L 281.86 927.48
  L 267.92 919.02
  L 255.33 910.96
  L 244.11 903.28
  L 234.25 896.00
  L 232.67 894.79
  L 214.54 880.53
  L 207.78 874.84
  L 202.10 869.76
  L 184.20 852.61
  L 176.26 844.61
  L 169.00 837.00
  L 162.24 829.58
  L 155.63 821.94
  L 149.17 814.10
  L 142.85 806.05
  L 136.67 797.79
  L 130.64 789.32
  L 124.75 780.64
  L 119.01 771.75
  L 106.07 749.80
  L 104.16 746.06
  L 104.02 745.62
  L 103.30 743.99
  L 102.14 742.06
  L 100.23 738.60
  L 100.15 738.40
  L 99.25 736.63
  L 98.09 735.09
  L 97.63 734.61
  L 96.89 733.65
  L 96.45 732.52
  L 95.59 728.78
  L 95.23 728.15
  L 94.07 726.88
  L 93.13 725.35
  L 92.40 723.54
  L 91.88 721.47
  L 91.20 720.04
  L 89.53 717.76
  L 88.99 716.73
  L 87.10 710.70
  L 86.71 709.99
  L 85.13 708.13
  L 84.84 707.72
  L 84.57 707.01
  L 83.25 701.27
  L 82.80 700.56
  L 81.69 699.37
  L 80.78 697.69
  L 80.06 695.47
  L 79.34 692.21
  L 79.05 690.77
  L 78.72 689.92
  L 78.11 689.23
  L 77.57 688.81
  L 76.96 687.97
  L 75.82 684.20
  L 75.11 679.99
  L 74.55 678.10
  L 73.90 677.13
  L 72.87 675.63
  L 72.09 673.77
  L 71.53 671.48
  L 71.09 668.33
  L 70.70 665.51
  L 70.39 664.61
  L 69.86 663.82
  L 68.68 662.19
  L 68.05 660.81
  L 67.63 659.31
  L 67.05 654.46
  L 66.81 651.75
  L 66.76 651.40
  L 66.23 650.14
  L 65.19 648.98
  L 64.87 648.57
  L 64.75 648.07
  L 64.29 646.20
  L 63.80 644.31
  L 63.17 637.96
  L 62.60 634.18
  L 62.34 633.59
  L 61.81 632.97
  L 61.43 632.22
  L 61.08 630.73
  L 60.00 627.51
  L 59.75 626.31
  L 58.65 614.31
  L 58.13 611.39
  L 57.73 610.49
  L 57.25 609.96
  L 56.88 609.56
  L 56.75 609.03
  L 56.56 607.36
  L 55.96 605.45
  L 55.84 604.89
  L 54.66 587.24
  L 54.50 586.73
  L 54.08 585.76
  L 53.85 584.39
  L 53.61 583.07
  L 53.18 582.22
  L 52.89 581.46
  L 52.33 576.17
  L 51.74 570.19
  L 51.25 547.94
  L 51.11 525.74
  L 51.33 503.58
  L 51.89 481.47
  L 52.05 480.54
  L 52.68 477.72
  L 52.78 475.22
  L 52.87 474.63
  L 53.17 474.10
  L 53.69 473.01
  L 53.75 471.42
  L 53.84 471.04
  L 54.12 470.77
  Z
  M 674.05 106.77
  L 673.71 106.09
  L 673.24 105.59
  L 673.24 105.59
  L 673.24 105.59
  L 672.33 105.18
  L 671.14 105.13
  L 669.84 104.93
  L 666.91 103.96
  L 663.65 103.45
  L 662.87 103.28
  L 662.18 102.90
  L 661.97 102.75
  L 661.97 102.75
  L 660.04 101.57
  L 657.91 100.67
  L 655.57 100.04
  L 653.04 99.70
  L 650.91 99.28
  L 649.30 98.39
  L 648.01 97.44
  L 646.72 96.72
  L 645.42 96.25
  L 644.12 96.01
  L 638.09 95.19
  L 637.10 94.78
  L 635.96 93.93
  L 635.39 93.57
  L 631.88 92.34
  L 628.52 91.80
  L 627.82 91.63
  L 627.22 91.21
  L 625.21 89.67
  L 623.35 88.92
  L 621.26 88.58
  L 609.94 87.97
  L 605.98 87.63
  L 602.71 87.04
  L 601.86 86.56
  L 600.56 85.55
  L 599.16 85.01
  L 598.27 84.92
  L 596.52 84.58
  L 595.47 84.24
  L 594.79 84.18
  L 587.84 84.00
  L 580.93 83.50
  L 575.31 82.86
  L 572.36 82.20
  L 568.78 80.91
  L 565.98 80.00
  L 563.15 79.55
  L 553.02 78.59
  L 542.25 77.21
  L 541.33 77.16
  L 537.63 77.10
  L 534.76 76.63
  L 532.62 76.28
  L 529.50 76.16
  L 520.10 76.09
  L 502.56 76.03
  L 490.18 76.29
  L 478.83 76.97
  L 468.18 78.10
  L 456.92 79.19
  L 445.65 80.29
  L 441.37 80.97
  L 437.42 81.81
  L 430.08 83.22
  L 419.56 84.45
  L 419.22 84.48
  L 416.08 84.99
  L 412.00 86.06
  L 408.22 87.05
  L 405.23 87.63
  L 399.50 88.78
  L 394.14 90.47
  L 391.19 91.39
  L 387.39 92.18
  L 383.71 92.93
  L 380.78 93.79
  L 376.36 95.21
  L 372.80 96.01
  L 369.86 96.68
  L 366.26 97.92
  L 362.66 99.15
  L 359.67 99.87
  L 355.58 100.82
  L 351.43 102.23
  L 345.51 104.60
  L 335.75 108.41
  L 325.62 112.16
  L 320.64 114.18
  L 304.22 122.44
  L 278.29 136.07
  L 274.05 138.50
  L 268.10 142.24
  L 260.84 146.78
  L 255.22 150.41
  L 248.21 155.45
  L 232.35 167.07
  L 227.39 170.80
  L 224.14 173.71
  L 222.11 175.33
  L 217.64 178.55
  L 212.74 182.48
  L 207.43 187.09
  L 201.69 192.41
  L 200.21 193.69
  L 198.88 194.57
  L 197.77 195.33
  L 196.49 196.53
  L 195.07 197.85
  L 193.81 198.61
  L 192.77 199.20
  L 191.95 199.96
  L 191.95 199.96
  L 191.57 200.48
  L 190.41 201.96
  L 188.62 203.70
  L 186.36 205.85
  L 184.15 208.23
  L 179.81 212.84
  L 176.45 216.29
  L 174.12 219.22
  L 173.03 220.20
  L 172.85 220.30
  L 171.07 221.69
  L 169.25 223.92
  L 167.74 225.82
  L 166.36 227.02
  L 163.08 230.13
  L 162.44 230.90
  L 160.09 234.29
  L 157.70 237.35
  L 155.28 240.10
  L 152.81 242.53
  L 151.49 244.20
  L 149.98 246.64
  L 148.62 248.31
  L 147.96 249.28
  L 146.80 251.51
  L 145.38 253.50
  L 143.68 255.31
  L 142.91 256.17
  L 142.34 257.10
  L 141.69 258.11
  L 140.57 259.38
  L 138.89 261.46
  L 137.30 263.89
  L 135.65 266.54
  L 135.48 266.93
  L 133.92 269.62
  L 131.56 272.16
  L 130.48 273.42
  L 128.55 276.11
  L 126.44 279.15
  L 123.62 283.67
  L 121.13 287.10
  L 119.84 288.93
  L 118.35 292.09
  L 117.06 294.86
  L 114.99 298.03
  L 114.92 298.14
  L 109.79 307.46
  L 109.71 307.90
  L 109.65 308.61
  L 109.29 309.44
  L 107.71 311.46
  L 106.40 313.03
  L 105.22 314.91
  L 101.55 321.89
  L 99.58 325.97
  L 97.46 330.43
  L 96.16 333.92
  L 95.70 334.79
  L 94.42 336.54
  L 93.53 338.06
  L 92.78 339.91
  L 91.91 342.84
  L 91.66 343.72
  L 91.43 344.18
  L 89.87 346.24
  L 89.56 346.82
  L 87.94 350.65
  L 87.00 352.18
  L 85.97 353.47
  L 85.60 354.14
  L 83.71 361.41
  L 83.20 362.28
  L 82.60 362.94
  L 82.60 362.94
  L 82.60 362.94
  L 81.90 363.99
  L 81.38 365.19
  L 81.04 366.53
  L 80.88 368.01
  L 80.75 368.70
  L 80.41 369.33
  L 77.16 377.45
  L 76.88 378.47
  L 75.73 382.95
  L 73.82 387.56
  L 73.29 388.99
  L 72.35 393.95
  L 71.67 399.56
  L 71.17 402.56
  L 70.22 405.14
  L 69.15 407.78
  L 68.74 410.02
  L 68.31 412.85
  L 67.39 416.23
  L 66.35 418.82
  L 65.23 420.58
  L 64.91 421.48
  L 64.90 424.71
  L 64.69 427.90
  L 64.29 431.04
  L 63.68 434.13
  L 63.68 434.13
  L 63.10 436.38
  L 62.56 437.74
  L 61.53 439.85
  L 61.10 441.17
  L 58.20 463.72
  L 57.85 465.07
  L 57.12 466.41
  L 56.82 467.45
  L 57.03 473.38
  L 57.03 473.44
  L 55.88 481.41
  L 55.26 489.32
  L 55.18 491.63
  L 54.83 496.21
  L 54.09 498.97
  L 53.50 501.78
  L 53.35 505.71
  L 53.23 509.01
  L 52.89 515.00
  L 52.77 539.19
  L 53.11 561.85
  L 53.35 563.98
  L 53.94 566.04
  L 55.00 569.36
  L 55.70 572.89
  L 56.04 576.61
  L 56.02 580.54
  L 56.03 580.85
  L 57.08 588.88
  L 57.24 589.45
  L 58.23 592.16
  L 60.05 606.59
  L 60.03 607.56
  L 59.95 608.36
  L 59.96 610.00
  L 60.20 611.97
  L 60.45 614.44
  L 60.68 618.74
  L 61.37 624.86
  L 61.68 626.16
  L 61.83 626.59
  L 61.83 626.59
  L 63.19 631.04
  L 64.26 635.59
  L 65.03 640.24
  L 65.50 645.00
  L 65.96 646.48
  L 67.10 648.43
  L 67.20 648.68
  L 69.39 658.22
  L 69.57 658.68
  L 70.78 661.11
  L 71.75 663.79
  L 72.48 666.74
  L 72.96 669.95
  L 72.98 670.04
  L 74.03 674.07
  L 74.26 674.52
  L 74.66 674.84
  L 74.90 674.97
  L 75.46 675.54
  L 75.77 676.27
  L 77.49 683.87
  L 77.86 684.59
  L 79.18 686.32
  L 79.83 687.74
  L 82.13 696.31
  L 82.37 696.73
  L 82.77 697.00
  L 83.51 697.40
  L 84.03 697.94
  L 84.03 697.94
  L 84.38 698.95
  L 85.09 702.29
  L 85.85 705.40
  L 86.49 706.38
  L 88.18 708.17
  L 88.59 708.97
  L 89.40 712.21
  L 89.91 713.30
  L 90.50 714.03
  L 92.05 715.66
  L 92.71 716.96
  L 93.46 720.11
  L 94.36 721.92
  L 95.91 724.09
  L 96.80 726.19
  L 98.08 730.17
  L 98.69 730.90
  L 100.18 732.35
  L 100.82 733.41
  L 101.93 736.67
  L 102.61 737.90
  L 103.37 738.88
  L 104.63 740.43
  L 105.21 741.70
  L 105.54 742.39
  L 107.57 745.43
  L 108.94 748.67
  L 109.33 750.14
  L 110.13 751.54
  L 112.17 754.17
  L 112.81 755.10
  L 113.27 756.12
  L 114.44 758.72
  L 116.04 760.91
  L 116.59 761.69
  L 120.71 769.12
  L 123.56 773.47
  L 125.81 776.57
  L 126.67 778.40
  L 127.02 779.20
  L 129.44 782.46
  L 133.20 788.09
  L 136.32 792.66
  L 140.00 797.60
  L 145.24 804.13
  L 145.45 804.38
  L 145.96 805.17
  L 147.17 807.12
  L 149.05 809.34
  L 151.47 812.34
  L 154.23 816.19
  L 157.09 819.60
  L 160.41 823.62
  L 163.30 827.80
  L 163.91 828.55
  L 170.98 835.66
  L 171.88 836.78
  L 173.42 838.23
  L 175.46 840.22
  L 182.10 847.46
  L 189.64 854.71
  L 191.56 856.68
  L 193.29 858.25
  L 196.46 861.01
  L 200.98 865.59
  L 204.72 869.13
  L 209.64 873.11
  L 213.96 876.53
  L 217.09 879.33
  L 220.21 882.14
  L 224.49 885.61
  L 225.32 886.15
  L 227.96 887.69
  L 230.26 889.26
  L 232.19 890.86
  L 233.78 892.50
  L 235.34 894.08
  L 236.75 894.97
  L 238.83 896.00
  L 239.98 897.02
  L 245.82 901.79
  L 246.39 902.16
  L 252.25 905.12
  L 252.43 905.25
  L 255.44 907.82
  L 258.39 909.97
  L 261.28 911.69
  L 264.11 912.98
  L 264.73 913.33
  L 265.22 913.86
  L 266.43 915.01
  L 268.64 916.19
  L 271.11 917.56
  L 274.60 919.90
  L 275.59 920.62
  L 276.61 921.66
  L 277.81 922.58
  L 280.74 924.07
  L 281.86 924.66
  L 284.81 926.55
  L 287.37 927.88
  L 288.41 928.50
  L 290.46 929.93
  L 292.70 931.18
  L 295.14 932.24
  L 297.77 933.13
  L 299.10 933.84
  L 300.96 935.17
  L 302.96 936.15
  L 302.96 936.15
  L 304.72 936.71
  L 304.90 936.76
  L 305.42 936.99
  L 315.79 942.80
  L 316.04 942.92
  L 322.26 945.62
  L 328.04 948.06
  L 330.88 948.94
  L 333.69 949.59
  L 334.60 950.10
  L 336.15 951.35
  L 338.25 952.22
  L 342.19 953.59
  L 346.79 955.61
  L 347.03 955.70
  L 355.96 958.02
  L 356.72 958.35
  L 357.68 958.95
  L 361.20 960.91
  L 362.59 961.32
  L 363.76 961.36
  L 364.66 961.63
  L 365.79 962.27
  L 367.52 962.73
  L 369.15 963.17
  L 370.13 963.77
  L 370.49 963.97
  L 382.10 966.21
  L 382.73 966.53
  L 383.28 966.98
  L 384.32 967.63
  L 385.58 968.17
  L 388.81 968.91
  L 390.98 969.35
  L 392.50 969.89
  L 393.84 970.12
  L 396.56 970.19
  L 398.55 970.70
  L 400.48 971.61
  L 403.17 972.66
  L 405.77 973.05
  L 409.04 973.00
  L 412.11 973.33
  L 414.78 974.03
  L 417.04 975.08
  L 419.76 976.44
  L 424.09 977.14
  L 431.29 977.54
  L 435.40 977.82
  L 437.56 978.08
  L 441.43 978.73
  L 443.95 979.73
  L 445.90 980.28
  L 449.02 980.58
  L 453.40 980.75
  L 459.25 981.04
  L 463.05 981.45
  L 467.22 981.83
  L 471.45 981.88
  L 475.23 982.07
  L 478.38 982.27
  L 481.03 982.44
  L 483.53 982.82
  L 492.04 984.21
  L 501.18 985.07
  L 510.93 985.41
  L 521.31 985.23
  L 526.35 984.68
  L 531.32 983.85
  L 537.87 982.97
  L 543.67 982.19
  L 547.67 981.88
  L 563.34 981.49
  L 577.07 980.62
  L 578.74 980.14
  L 581.69 978.85
  L 582.98 978.44
  L 590.16 977.67
  L 595.63 977.17
  L 599.60 976.49
  L 602.38 975.34
  L 604.31 974.44
  L 605.79 974.10
  L 606.50 974.05
  L 611.54 973.61
  L 614.80 972.95
  L 617.55 971.96
  L 620.69 970.38
  L 621.62 970.12
  L 626.61 969.72
  L 632.24 968.87
  L 634.17 968.23
  L 636.84 966.89
  L 638.98 965.90
  L 641.19 965.28
  L 644.37 965.02
  L 646.25 964.37
  L 650.03 962.36
  L 651.52 961.71
  L 653.08 961.24
  L 654.98 960.92
  L 657.29 960.71
  L 658.67 960.20
  L 661.99 958.30
  L 665.46 957.19
  L 665.46 957.19
  L 668.81 956.85
  L 669.51 956.74
  L 672.21 955.52
  L 674.39 953.80
  L 675.19 953.26
  L 676.14 953.07
  L 676.91 953.06
  L 679.07 952.79
  L 681.21 952.20
  L 683.34 951.27
  L 685.46 950.00
  L 687.42 949.24
  L 690.81 948.66
  L 691.76 948.38
  L 692.84 947.75
  L 695.42 945.44
  L 696.26 945.03
  L 698.30 944.73
  L 700.13 944.25
  L 701.76 943.59
  L 703.18 942.75
  L 704.69 941.84
  L 706.62 941.05
  L 709.16 940.40
  L 710.72 940.03
  L 711.27 939.72
  L 713.27 937.69
  L 713.80 937.37
  L 717.30 936.37
  L 718.20 936.00
  L 719.01 935.45
  L 720.54 934.29
  L 722.17 933.33
  L 725.53 932.05
  L 726.51 931.67
  L 727.38 931.08
  L 728.93 929.90
  L 730.73 928.85
  L 732.76 927.93
  L 735.03 927.13
  L 735.85 926.66
  L 738.35 924.60
  L 740.10 923.87
  L 741.49 922.99
  L 743.30 921.76
  L 745.78 920.43
  L 748.19 919.14
  L 749.92 917.97
  L 752.19 916.47
  L 755.30 914.93
  L 756.27 914.18
  L 758.19 912.39
  L 760.77 910.95
  L 761.64 910.42
  L 762.85 909.49
  L 762.85 909.49
  L 765.19 908.00
  L 767.71 906.76
  L 768.53 906.18
  L 769.00 905.70
  L 771.46 903.90
  L 773.74 902.36
  L 773.88 902.25
  L 777.48 899.64
  L 781.66 896.67
  L 786.95 892.47
  L 788.61 891.39
  L 790.14 890.41
  L 791.01 889.48
  L 791.65 888.88
  L 794.04 887.33
  L 797.28 884.81
  L 800.53 882.29
  L 804.20 879.45
  L 817.08 867.61
  L 818.93 865.92
  L 829.31 856.58
  L 834.90 851.12
  L 838.12 847.80
  L 840.50 845.63
  L 841.03 845.01
  L 842.55 843.04
  L 844.70 841.45
  L 845.46 840.67
  L 846.75 838.77
  L 848.70 836.95
  L 849.37 836.29
  L 854.99 829.39
  L 858.81 825.28
  L 861.45 822.58
  L 863.04 820.35
  L 863.76 819.46
  L 865.29 817.85
  L 866.65 815.75
  L 867.35 814.84
  L 870.61 811.88
  L 871.02 811.26
  L 871.61 809.95
  L 872.43 808.87
  L 872.43 808.87
  L 872.92 808.41
  L 873.57 807.64
  L 875.39 804.48
  L 875.63 804.12
  L 880.25 798.33
  L 880.34 798.23
  L 882.22 796.31
  L 883.90 794.25
  L 883.90 794.25
  L 885.65 791.53
  L 887.09 788.59
  L 887.56 787.87
  L 889.74 785.62
  L 890.67 784.27
  L 893.39 779.01
  L 895.82 775.54
  L 898.12 772.49
  L 900.23 768.76
  L 902.33 765.25
  L 905.98 760.04
  L 906.06 759.91
  L 920.26 734.26
  L 920.51 733.66
  L 921.32 731.51
  L 922.72 728.86
  L 923.98 726.48
  L 930.84 712.02
  L 932.78 707.07
  L 934.52 702.58
  L 936.25 699.55
  L 936.37 699.28
  L 938.25 692.08
  L 938.65 691.44
  L 939.92 689.91
  L 940.96 687.65
  L 941.74 684.60
  L 942.09 681.49
  L 942.43 680.59
  L 944.72 677.54
  L 945.36 675.12
  L 946.12 670.28
  L 946.74 668.47
  L 948.17 666.14
  L 948.85 664.56
  L 950.62 655.41
  L 950.66 655.28
  L 952.05 652.14
  L 953.13 648.66
  L 953.89 644.84
  L 954.33 640.68
  L 954.97 638.22
  L 956.70 633.65
  L 957.04 632.51
  L 957.93 626.80
  L 958.86 620.88
  L 959.91 616.71
  L 961.03 612.46
  L 961.77 607.83
  L 962.13 602.77
  L 962.10 597.45
  L 962.26 596.31
  L 963.25 593.55
  L 963.94 592.09
  L 964.50 590.31
  L 965.22 585.71
  L 966.40 572.52
  L 967.34 557.53
  L 967.70 555.04
  L 968.54 552.10
  L 968.89 550.36
  L 969.11 547.42
  L 969.44 541.20
  L 969.58 533.57
  L 969.32 514.04
  L 968.90 507.60
  L 967.87 498.92
  L 966.91 490.81
  L 966.52 484.99
  L 965.86 467.87
  L 965.73 467.16
  L 965.30 465.20
  L 965.12 462.98
  L 964.91 461.95
  L 963.09 457.64
  L 962.89 456.73
  L 962.47 450.49
  L 961.60 443.05
  L 961.00 439.36
  L 960.44 437.32
  L 959.68 435.77
  L 959.18 435.13
  L 959.01 434.89
  L 957.05 422.10
  L 956.91 421.63
  L 954.90 416.52
  L 954.19 413.96
  L 953.95 411.04
  L 953.50 408.20
  L 952.82 405.45
  L 951.92 402.79
  L 951.92 402.79
  L 950.31 399.23
  L 950.00 398.26
  L 949.54 395.50
  L 948.88 392.84
  L 948.02 390.27
  L 946.95 387.81
  L 946.45 386.81
  L 946.03 385.58
  L 945.42 382.83
  L 944.58 380.20
  L 943.54 377.71
  L 942.27 375.34
  L 942.27 375.34
  L 942.27 375.34
  L 942.23 375.27
  L 941.91 374.47
  L 940.85 369.33
  L 940.76 369.08
  L 937.46 361.88
  L 937.40 361.63
  L 936.89 358.73
  L 936.49 357.71
  L 935.99 356.98
  L 934.56 355.08
  L 933.66 353.02
  L 933.66 353.02
  L 933.38 351.68
  L 932.61 348.54
  L 931.19 345.87
  L 930.46 344.95
  L 929.82 343.78
  L 928.31 339.74
  L 926.28 336.09
  L 925.76 334.97
  L 924.37 331.21
  L 922.69 328.33
  L 921.75 326.79
  L 920.80 324.63
  L 919.95 322.69
  L 919.15 321.36
  L 917.50 318.81
  L 916.26 316.20
  L 914.31 312.48
  L 912.41 308.89
  L 911.17 306.49
  L 909.45 304.24
  L 908.87 303.39
  L 905.76 297.65
  L 901.76 291.25
  L 900.21 288.42
  L 898.49 285.30
  L 896.84 283.49
  L 896.18 282.60
  L 894.68 279.27
  L 893.92 278.10
  L 893.15 277.26
  L 892.89 277.02
  L 892.06 275.99
  L 891.26 274.54
  L 890.47 273.09
  L 889.64 272.06
  L 889.27 271.72
  L 888.63 270.94
  L 886.18 266.88
  L 880.27 259.29
  L 874.28 250.89
  L 873.02 249.58
  L 872.35 248.92
  L 871.80 247.74
  L 871.45 247.07
  L 854.41 227.03
  L 854.30 226.93
  L 853.18 226.05
  L 853.18 226.05
  L 852.19 224.91
  L 851.39 223.57
  L 850.84 222.87
  L 849.39 221.55
  L 848.50 220.47
  L 847.73 219.39
  L 846.14 217.84
  L 844.58 216.35
  L 844.14 215.84
  L 842.04 213.59
  L 831.82 203.37
  L 829.62 201.08
  L 825.95 197.32
  L 824.10 195.82
  L 822.24 194.59
  L 821.33 193.92
  L 814.05 187.56
  L 807.85 182.46
  L 806.13 180.97
  L 804.11 179.21
  L 802.40 178.02
  L 801.55 177.38
  L 797.38 173.70
  L 794.21 171.30
  L 782.50 163.16
  L 770.44 154.37
  L 769.45 153.81
  L 766.61 152.35
  L 764.31 150.61
  L 763.36 149.94
  L 759.38 147.66
  L 756.40 145.16
  L 754.55 144.16
  L 753.70 143.66
  L 753.67 143.62
  L 753.67 143.62
  L 752.21 142.32
  L 750.32 141.38
  L 749.10 140.59
  L 747.63 139.32
  L 745.90 138.26
  L 743.91 137.39
  L 741.65 136.73
  L 740.54 136.12
  L 738.79 134.78
  L 736.56 133.68
  L 732.01 131.76
  L 731.22 131.14
  L 729.15 129.53
  L 728.18 129.13
  L 727.26 128.99
  L 723.59 128.12
  L 722.29 127.61
  L 721.15 126.90
  L 719.79 125.50
  L 719.07 125.01
  L 712.44 123.29
  L 711.78 122.93
  L 709.13 120.90
  L 707.92 120.28
  L 706.78 119.93
  L 705.54 119.73
  L 703.82 119.29
  L 703.19 118.79
  L 702.52 117.93
  L 701.61 117.08
  L 700.90 116.86
  L 700.08 116.85
  L 699.16 116.70
  L 697.70 116.21
  L 695.95 115.94
  L 695.48 115.77
  L 695.16 115.39
  L 694.66 114.29
  L 693.90 113.56
  L 691.17 112.63
  L 688.40 112.12
  L 687.29 112.03
  L 686.80 111.84
  L 684.02 109.62
  L 683.57 109.41
  L 674.73 107.38
  L 674.31 107.16
  L 674.05 106.77
  Z"
/>
</svg>
