<?xml version="1.0" encoding="UTF-8" standalone="no"?>
<!DOCTYPE svg PUBLIC "-//W3C//DTD SVG 1.1//EN" "http://www.w3.org/Graphics/SVG/1.1/DTD/svg11.dtd">
<svg xmlns="http://www.w3.org/2000/svg" version="1.1" viewBox="0.00 0.00 1024.00 1024.00">
<path stroke="#87ebc3" stroke-width="2.00" fill="none" stroke-linecap="butt" vector-effect="non-scaling-stroke" d="
  M 290.20 543.85
  L 291.23 545.57
  L 298.77 555.43
  L 306.73 565.32
  L 315.16 575.30
  L 323.98 585.27
  L 333.23 595.27
  L 342.83 605.22
  L 352.84 615.19
  L 363.17 625.08
  L 378.02 638.84
  L 393.41 652.72
  L 409.46 666.84
  L 426.37 681.37
  L 444.05 696.23
  L 462.91 711.77
  L 483.21 728.21
  L 505.49 745.98
  L 507.58 747.43
  L 509.65 748.43
  L 511.71 749.00
  L 513.74 749.13
  L 513.74 749.13
  L 513.74 749.13
  L 515.40 748.91
  L 517.06 748.39
  L 518.69 747.57
  L 520.32 746.45
  L 540.99 730.10
  L 561.80 713.34
  L 582.72 696.14
  L 603.78 678.53
  L 622.30 662.56
  L 640.79 645.97
  L 659.22 628.74
  L 677.62 610.88
  L 690.21 598.06
  L 702.30 584.97
  L 713.89 571.61
  L 724.98 557.99
  L 732.81 547.65
  L 740.08 537.22
  L 746.76 526.71
  L 752.88 516.11
  L 756.01 510.12
  L 758.89 504.02
  L 761.53 497.81
  L 763.92 491.50
  L 766.06 485.11
  L 767.94 478.64
  L 769.55 472.10
  L 770.90 465.50
  L 771.96 458.96
  L 772.76 452.38
  L 773.28 445.78
  L 773.53 439.16
  L 773.50 432.59
  L 773.19 426.02
  L 772.62 419.56
  L 771.76 413.12
  L 770.82 407.74
  L 769.69 402.42
  L 766.85 391.96
  L 763.23 381.66
  L 758.89 371.69
  L 753.82 362.03
  L 748.08 352.79
  L 741.70 344.02
  L 734.71 335.76
  L 727.20 328.11
  L 723.24 324.50
  L 719.15 321.05
  L 714.98 317.79
  L 710.68 314.68
  L 706.27 311.75
  L 701.74 308.98
  L 697.16 306.42
  L 692.46 304.04
  L 687.76 301.87
  L 682.97 299.89
  L 678.07 298.09
  L 673.10 296.49
  L 668.13 295.10
  L 663.08 293.91
  L 655.61 292.52
  L 647.98 291.57
  L 640.42 290.99
  L 633.28 290.75
  L 626.56 290.82
  L 620.25 291.23
  L 611.37 292.37
  L 602.72 294.11
  L 594.32 296.45
  L 586.16 299.39
  L 586.16 299.39
  L 586.16 299.39
  L 578.23 302.94
  L 570.54 307.08
  L 563.09 311.83
  L 555.89 317.18
  L 549.35 322.77
  L 543.43 328.60
  L 538.14 334.67
  L 533.46 340.99
  L 523.90 354.63
  L 521.22 357.73
  L 518.61 359.75
  L 515.81 360.96
  L 514.37 361.25
  L 512.98 361.32
  L 511.27 361.12
  L 509.62 360.62
  L 507.94 359.78
  L 506.34 358.69
  L 504.73 357.30
  L 503.09 355.57
  L 499.74 351.09
  L 494.22 342.83
  L 490.02 336.97
  L 486.08 332.00
  L 482.17 327.69
  L 478.35 323.93
  L 474.43 320.36
  L 470.41 317.00
  L 466.29 313.84
  L 462.07 310.88
  L 457.75 308.12
  L 453.33 305.56
  L 448.81 303.21
  L 448.81 303.21
  L 448.81 303.21
  L 448.81 303.21
  L 448.81 303.21
  L 448.81 303.21
  L 442.82 300.46
  L 436.66 298.05
  L 430.34 295.97
  L 423.84 294.24
  L 417.19 292.84
  L 410.36 291.77
  L 403.37 291.05
  L 396.21 290.66
  L 389.89 290.62
  L 383.61 290.88
  L 377.26 291.44
  L 370.96 292.31
  L 364.68 293.48
  L 358.48 294.94
  L 352.36 296.68
  L 346.32 298.71
  L 340.36 301.03
  L 334.51 303.62
  L 328.78 306.48
  L 323.19 309.61
  L 317.73 312.99
  L 312.43 316.63
  L 307.29 320.51
  L 302.32 324.64
  L 298.13 328.43
  L 294.12 332.35
  L 290.23 336.47
  L 286.52 340.72
  L 283.08 344.96
  L 279.83 349.32
  L 276.70 353.86
  L 273.75 358.49
  L 270.97 363.25
  L 268.39 368.10
  L 265.99 373.03
  L 263.77 378.04
  L 261.72 383.19
  L 259.87 388.42
  L 258.21 393.70
  L 256.74 399.04
  L 255.46 404.48
  L 254.38 409.96
  L 253.50 415.48
  L 252.82 421.03
  L 252.34 426.61
  L 252.06 432.22
  L 251.98 437.83
  L 252.11 443.45
  L 252.44 449.08
  L 252.97 454.69
  L 253.71 460.30
  L 254.65 465.88
  L 255.78 471.36
  L 257.10 476.81
  L 258.63 482.22
  L 260.35 487.59
  L 262.25 492.85
  L 264.34 498.05
  L 266.63 503.20
  L 269.11 508.28
  L 272.21 514.03
  L 272.65 514.46
  L 273.26 514.60
  L 287.84 514.00
  L 303.00 513.81
  L 385.69 513.82
  L 386.46 513.60
  L 386.99 513.00
  L 407.72 470.84
  L 430.12 426.37
  L 432.85 421.53
  L 435.47 417.97
  L 436.68 416.79
  L 438.05 415.80
  L 439.65 414.97
  L 441.36 414.36
  L 443.15 413.99
  L 444.97 413.86
  L 446.78 413.97
  L 448.56 414.32
  L 451.31 415.38
  L 453.62 416.94
  L 454.88 418.21
  L 455.95 419.67
  L 456.86 421.34
  L 457.58 423.21
  L 477.73 486.84
  L 499.29 556.70
  L 502.69 568.55
  L 506.09 581.75
  L 506.31 581.98
  L 506.61 581.91
  L 506.70 581.78
  L 520.29 540.76
  L 533.55 499.97
  L 546.49 459.42
  L 559.09 419.11
  L 560.37 415.32
  L 561.73 411.91
  L 563.18 408.88
  L 564.72 406.22
  L 566.30 404.09
  L 568.13 402.24
  L 570.17 400.69
  L 572.37 399.46
  L 574.70 398.59
  L 577.11 398.10
  L 579.46 398.01
  L 581.82 398.32
  L 584.74 399.31
  L 587.37 400.89
  L 589.06 402.32
  L 590.53 403.92
  L 591.86 405.73
  L 593.10 407.83
  L 595.17 412.66
  L 597.23 419.56
  L 597.87 421.90
  L 624.03 515.72
  L 624.30 516.11
  L 624.75 516.25
  L 652.16 515.87
  L 680.69 515.84
  L 683.41 516.02
  L 685.89 516.53
  L 688.13 517.38
  L 690.15 518.55
  L 692.18 520.32
  L 693.43 521.85
  L 694.46 523.57
  L 695.27 525.42
  L 695.83 527.37
  L 696.14 529.36
  L 696.18 531.36
  L 695.96 533.22
  L 695.46 535.01
  L 694.49 537.25
  L 693.32 539.21
  L 691.93 540.91
  L 690.35 542.34
  L 690.35 542.34
  L 690.35 542.34
  L 688.19 543.69
  L 685.75 544.66
  L 683.01 545.24
  L 679.98 545.45
  L 618.25 545.60
  L 614.32 545.39
  L 610.86 544.75
  L 607.91 543.68
  L 605.35 542.15
  L 603.18 540.16
  L 601.32 537.66
  L 599.76 534.64
  L 598.46 531.06
  L 590.67 504.74
  L 585.41 485.06
  L 583.26 475.94
  L 581.40 467.19
  L 579.85 458.81
  L 578.57 450.66
  L 578.54 450.55
  L 578.25 450.30
  L 577.88 450.39
  L 577.49 451.19
  L 574.81 462.07
  L 569.26 481.37
  L 563.76 499.69
  L 558.32 517.05
  L 552.94 533.44
  L 529.92 601.59
  L 519.80 630.78
  L 517.72 635.58
  L 515.57 639.09
  L 514.41 640.48
  L 513.12 641.70
  L 511.79 642.66
  L 510.31 643.44
  L 508.82 643.97
  L 507.19 644.30
  L 505.51 644.42
  L 503.70 644.33
  L 501.79 644.02
  L 500.03 643.50
  L 498.43 642.78
  L 496.98 641.85
  L 496.98 641.85
  L 496.98 641.85
  L 495.44 640.44
  L 494.13 638.73
  L 493.04 636.72
  L 492.19 634.41
  L 465.13 544.71
  L 443.73 474.63
  L 441.79 468.27
  L 441.75 468.20
  L 441.40 468.24
  L 411.66 527.68
  L 408.81 532.98
  L 406.31 536.68
  L 403.67 539.51
  L 400.74 541.60
  L 398.64 542.57
  L 396.30 543.28
  L 393.78 543.70
  L 390.98 543.85
  L 299.25 543.76
  L 290.48 543.46
  L 290.25 543.55
  L 290.18 543.78
  L 290.20 543.85"
/>
<path fill="#0ed686" d="
  M 932.43 437.69
  L 932.99 442.68
  L 933.05 442.91
  L 933.71 445.49
  L 933.84 448.38
  L 934.00 449.45
  L 934.67 452.25
  L 934.84 455.39
  L 934.98 456.51
  L 935.63 459.85
  L 935.85 463.82
  L 936.02 464.84
  L 936.53 466.55
  L 936.71 467.78
  L 936.88 472.02
  L 937.28 475.94
  L 937.77 480.55
  L 937.82 484.08
  L 938.18 494.50
  L 938.45 508.84
  L 938.02 521.40
  L 937.80 527.47
  L 937.55 534.09
  L 936.92 539.13
  L 936.84 540.26
  L 936.78 545.47
  L 936.24 549.78
  L 935.86 553.77
  L 935.61 556.93
  L 935.04 559.16
  L 934.82 560.46
  L 934.71 564.08
  L 934.07 567.18
  L 933.88 568.35
  L 933.64 571.78
  L 933.14 574.37
  L 931.83 583.41
  L 930.34 592.43
  L 927.02 607.48
  L 923.18 622.35
  L 918.85 637.04
  L 914.00 651.54
  L 914.00 651.54
  L 914.00 651.54
  L 909.13 664.63
  L 903.84 677.56
  L 899.90 686.44
  L 895.56 695.58
  L 890.81 704.99
  L 885.67 714.68
  L 880.47 723.94
  L 875.11 732.88
  L 869.59 741.51
  L 863.92 749.82
  L 855.78 761.02
  L 847.35 771.89
  L 838.65 782.43
  L 829.67 792.65
  L 820.41 802.55
  L 810.88 812.11
  L 801.06 821.36
  L 790.97 830.27
  L 790.97 830.27
  L 790.97 830.27
  L 783.36 836.63
  L 775.60 842.80
  L 767.70 848.80
  L 759.64 854.63
  L 751.43 860.27
  L 743.07 865.75
  L 734.56 871.04
  L 725.90 876.16
  L 708.76 885.76
  L 699.55 890.29
  L 673.94 901.42
  L 660.53 906.68
  L 645.80 911.62
  L 627.87 917.02
  L 612.90 921.08
  L 599.00 924.29
  L 585.75 926.76
  L 583.54 926.83
  L 582.54 926.96
  L 579.39 927.63
  L 576.13 927.85
  L 575.12 927.98
  L 571.77 928.65
  L 568.54 928.84
  L 567.49 928.95
  L 563.07 929.69
  L 558.82 929.83
  L 557.76 929.91
  L 553.30 930.55
  L 548.61 930.78
  L 539.78 931.28
  L 533.93 931.71
  L 529.50 931.83
  L 517.89 931.86
  L 501.08 931.82
  L 488.55 931.35
  L 484.32 931.07
  L 465.45 929.58
  L 463.46 929.35
  L 462.40 929.05
  L 461.37 928.81
  L 458.25 928.70
  L 455.43 928.04
  L 454.45 927.86
  L 452.24 927.70
  L 449.36 927.23
  L 446.57 926.75
  L 446.34 926.72
  L 434.74 924.85
  L 417.62 921.37
  L 403.00 917.93
  L 388.53 913.97
  L 388.53 913.97
  L 388.53 913.97
  L 376.38 910.20
  L 364.36 906.05
  L 352.44 901.52
  L 340.63 896.61
  L 339.72 896.00
  L 339.63 895.92
  L 338.90 895.79
  L 338.24 895.72
  L 333.58 893.72
  L 326.25 890.24
  L 316.39 885.29
  L 306.69 880.13
  L 297.16 874.74
  L 287.80 869.14
  L 278.61 863.31
  L 269.59 857.27
  L 260.74 851.00
  L 252.06 844.52
  L 246.07 839.84
  L 235.37 831.02
  L 224.80 821.67
  L 214.48 811.89
  L 204.48 801.76
  L 194.70 791.17
  L 185.30 780.30
  L 176.23 769.09
  L 167.59 757.66
  L 161.71 749.38
  L 156.01 740.90
  L 150.50 732.22
  L 145.16 723.34
  L 140.01 714.26
  L 135.05 704.98
  L 130.26 695.49
  L 125.66 685.81
  L 121.20 675.84
  L 117.46 666.85
  L 113.48 656.43
  L 109.78 645.88
  L 106.36 635.20
  L 103.22 624.38
  L 100.36 613.42
  L 97.78 602.34
  L 95.49 591.12
  L 93.47 579.76
  L 93.16 576.51
  L 93.04 575.35
  L 92.35 572.10
  L 92.16 569.06
  L 92.02 568.04
  L 91.32 564.72
  L 91.16 560.90
  L 91.02 559.82
  L 90.44 557.02
  L 90.17 553.17
  L 89.75 548.41
  L 89.26 543.99
  L 89.14 538.43
  L 89.03 537.40
  L 88.56 534.34
  L 88.31 530.25
  L 87.98 522.31
  L 87.45 515.23
  L 87.29 508.90
  L 87.75 500.02
  L 88.20 491.48
  L 88.20 491.42
  L 88.33 487.57
  L 88.72 482.74
  L 89.21 475.33
  L 89.46 471.20
  L 90.04 467.78
  L 90.18 466.34
  L 90.25 463.95
  L 90.70 460.86
  L 91.14 457.80
  L 91.88 451.29
  L 93.15 443.00
  L 95.22 431.49
  L 97.58 420.04
  L 97.58 420.04
  L 100.59 407.25
  L 103.98 394.55
  L 107.74 381.92
  L 111.88 369.38
  L 115.03 360.60
  L 118.39 351.90
  L 121.94 343.30
  L 125.70 334.79
  L 125.70 334.79
  L 132.89 319.86
  L 140.71 305.21
  L 145.89 296.23
  L 151.26 287.38
  L 156.82 278.66
  L 162.57 270.08
  L 171.93 256.85
  L 180.32 245.85
  L 186.21 238.66
  L 192.17 231.75
  L 200.62 222.52
  L 209.58 213.36
  L 219.35 203.97
  L 230.21 194.08
  L 242.97 183.25
  L 249.44 178.14
  L 255.97 173.24
  L 265.20 166.66
  L 274.52 160.35
  L 283.93 154.31
  L 293.42 148.53
  L 303.02 143.02
  L 312.70 137.78
  L 322.47 132.81
  L 332.33 128.10
  L 346.71 121.85
  L 362.48 115.73
  L 371.48 112.52
  L 380.46 109.54
  L 389.42 106.77
  L 398.37 104.23
  L 407.31 101.90
  L 416.22 99.79
  L 425.12 97.90
  L 434.01 96.23
  L 435.51 96.14
  L 436.48 95.96
  L 437.98 95.46
  L 440.22 95.20
  L 442.19 94.98
  L 453.00 93.23
  L 455.51 93.17
  L 456.50 93.01
  L 459.33 92.34
  L 462.72 92.18
  L 464.24 92.00
  L 467.03 91.48
  L 470.40 91.25
  L 476.46 90.75
  L 480.52 90.33
  L 483.87 90.21
  L 487.63 90.09
  L 491.12 89.67
  L 495.08 89.40
  L 503.00 89.23
  L 518.60 89.25
  L 528.71 89.73
  L 537.67 90.19
  L 543.36 90.39
  L 546.62 90.78
  L 548.91 91.12
  L 552.25 91.28
  L 556.26 91.49
  L 559.18 91.98
  L 560.15 92.11
  L 564.53 92.30
  L 566.49 92.54
  L 568.93 93.07
  L 572.33 93.30
  L 577.99 94.06
  L 591.74 96.26
  L 604.88 98.68
  L 617.97 101.60
  L 631.03 105.04
  L 644.04 108.98
  L 660.41 114.34
  L 668.70 117.27
  L 676.50 120.38
  L 688.25 125.51
  L 699.42 130.70
  L 710.00 135.95
  L 720.00 141.25
  L 730.72 147.34
  L 741.23 153.73
  L 751.53 160.41
  L 761.61 167.38
  L 761.61 167.38
  L 761.61 167.38
  L 761.61 167.38
  L 772.14 175.15
  L 782.42 183.25
  L 792.47 191.69
  L 802.27 200.47
  L 810.01 207.76
  L 817.63 215.26
  L 825.15 222.94
  L 832.55 230.83
  L 837.72 236.81
  L 845.01 245.92
  L 848.35 250.13
  L 853.83 257.10
  L 859.18 264.21
  L 869.46 278.91
  L 879.19 294.20
  L 888.38 310.11
  L 894.46 321.62
  L 900.14 333.33
  L 900.14 333.33
  L 903.98 341.85
  L 907.61 350.47
  L 911.03 359.19
  L 914.25 368.01
  L 917.25 376.92
  L 920.05 385.93
  L 922.64 395.03
  L 925.03 404.23
  L 928.43 418.79
  L 931.72 434.42
  L 931.86 436.08
  L 931.95 437.05
  L 932.27 437.51
  L 932.30 437.52
  L 932.43 437.69
  Z
  M 290.20 543.85
  L 291.23 545.57
  L 298.77 555.43
  L 306.73 565.32
  L 315.16 575.30
  L 323.98 585.27
  L 333.23 595.27
  L 342.83 605.22
  L 352.84 615.19
  L 363.17 625.08
  L 378.02 638.84
  L 393.41 652.72
  L 409.46 666.84
  L 426.37 681.37
  L 444.05 696.23
  L 462.91 711.77
  L 483.21 728.21
  L 505.49 745.98
  L 507.58 747.43
  L 509.65 748.43
  L 511.71 749.00
  L 513.74 749.13
  L 513.74 749.13
  L 513.74 749.13
  L 515.40 748.91
  L 517.06 748.39
  L 518.69 747.57
  L 520.32 746.45
  L 540.99 730.10
  L 561.80 713.34
  L 582.72 696.14
  L 603.78 678.53
  L 622.30 662.56
  L 640.79 645.97
  L 659.22 628.74
  L 677.62 610.88
  L 690.21 598.06
  L 702.30 584.97
  L 713.89 571.61
  L 724.98 557.99
  L 732.81 547.65
  L 740.08 537.22
  L 746.76 526.71
  L 752.88 516.11
  L 756.01 510.12
  L 758.89 504.02
  L 761.53 497.81
  L 763.92 491.50
  L 766.06 485.11
  L 767.94 478.64
  L 769.55 472.10
  L 770.90 465.50
  L 771.96 458.96
  L 772.76 452.38
  L 773.28 445.78
  L 773.53 439.16
  L 773.50 432.59
  L 773.19 426.02
  L 772.62 419.56
  L 771.76 413.12
  L 770.82 407.74
  L 769.69 402.42
  L 766.85 391.96
  L 763.23 381.66
  L 758.89 371.69
  L 753.82 362.03
  L 748.08 352.79
  L 741.70 344.02
  L 734.71 335.76
  L 727.20 328.11
  L 723.24 324.50
  L 719.15 321.05
  L 714.98 317.79
  L 710.68 314.68
  L 706.27 311.75
  L 701.74 308.98
  L 697.16 306.42
  L 692.46 304.04
  L 687.76 301.87
  L 682.97 299.89
  L 678.07 298.09
  L 673.10 296.49
  L 668.13 295.10
  L 663.08 293.91
  L 655.61 292.52
  L 647.98 291.57
  L 640.42 290.99
  L 633.28 290.75
  L 626.56 290.82
  L 620.25 291.23
  L 611.37 292.37
  L 602.72 294.11
  L 594.32 296.45
  L 586.16 299.39
  L 586.16 299.39
  L 586.16 299.39
  L 578.23 302.94
  L 570.54 307.08
  L 563.09 311.83
  L 555.89 317.18
  L 549.35 322.77
  L 543.43 328.60
  L 538.14 334.67
  L 533.46 340.99
  L 523.90 354.63
  L 521.22 357.73
  L 518.61 359.75
  L 515.81 360.96
  L 514.37 361.25
  L 512.98 361.32
  L 511.27 361.12
  L 509.62 360.62
  L 507.94 359.78
  L 506.34 358.69
  L 504.73 357.30
  L 503.09 355.57
  L 499.74 351.09
  L 494.22 342.83
  L 490.02 336.97
  L 486.08 332.00
  L 482.17 327.69
  L 478.35 323.93
  L 474.43 320.36
  L 470.41 317.00
  L 466.29 313.84
  L 462.07 310.88
  L 457.75 308.12
  L 453.33 305.56
  L 448.81 303.21
  L 448.81 303.21
  L 448.81 303.21
  L 448.81 303.21
  L 448.81 303.21
  L 448.81 303.21
  L 442.82 300.46
  L 436.66 298.05
  L 430.34 295.97
  L 423.84 294.24
  L 417.19 292.84
  L 410.36 291.77
  L 403.37 291.05
  L 396.21 290.66
  L 389.89 290.62
  L 383.61 290.88
  L 377.26 291.44
  L 370.96 292.31
  L 364.68 293.48
  L 358.48 294.94
  L 352.36 296.68
  L 346.32 298.71
  L 340.36 301.03
  L 334.51 303.62
  L 328.78 306.48
  L 323.19 309.61
  L 317.73 312.99
  L 312.43 316.63
  L 307.29 320.51
  L 302.32 324.64
  L 298.13 328.43
  L 294.12 332.35
  L 290.23 336.47
  L 286.52 340.72
  L 283.08 344.96
  L 279.83 349.32
  L 276.70 353.86
  L 273.75 358.49
  L 270.97 363.25
  L 268.39 368.10
  L 265.99 373.03
  L 263.77 378.04
  L 261.72 383.19
  L 259.87 388.42
  L 258.21 393.70
  L 256.74 399.04
  L 255.46 404.48
  L 254.38 409.96
  L 253.50 415.48
  L 252.82 421.03
  L 252.34 426.61
  L 252.06 432.22
  L 251.98 437.83
  L 252.11 443.45
  L 252.44 449.08
  L 252.97 454.69
  L 253.71 460.30
  L 254.65 465.88
  L 255.78 471.36
  L 257.10 476.81
  L 258.63 482.22
  L 260.35 487.59
  L 262.25 492.85
  L 264.34 498.05
  L 266.63 503.20
  L 269.11 508.28
  L 272.21 514.03
  L 272.65 514.46
  L 273.26 514.60
  L 287.84 514.00
  L 303.00 513.81
  L 385.69 513.82
  L 386.46 513.60
  L 386.99 513.00
  L 407.72 470.84
  L 430.12 426.37
  L 432.85 421.53
  L 435.47 417.97
  L 436.68 416.79
  L 438.05 415.80
  L 439.65 414.97
  L 441.36 414.36
  L 443.15 413.99
  L 444.97 413.86
  L 446.78 413.97
  L 448.56 414.32
  L 451.31 415.38
  L 453.62 416.94
  L 454.88 418.21
  L 455.95 419.67
  L 456.86 421.34
  L 457.58 423.21
  L 477.73 486.84
  L 499.29 556.70
  L 502.69 568.55
  L 506.09 581.75
  L 506.31 581.98
  L 506.61 581.91
  L 506.70 581.78
  L 520.29 540.76
  L 533.55 499.97
  L 546.49 459.42
  L 559.09 419.11
  L 560.37 415.32
  L 561.73 411.91
  L 563.18 408.88
  L 564.72 406.22
  L 566.30 404.09
  L 568.13 402.24
  L 570.17 400.69
  L 572.37 399.46
  L 574.70 398.59
  L 577.11 398.10
  L 579.46 398.01
  L 581.82 398.32
  L 584.74 399.31
  L 587.37 400.89
  L 589.06 402.32
  L 590.53 403.92
  L 591.86 405.73
  L 593.10 407.83
  L 595.17 412.66
  L 597.23 419.56
  L 597.87 421.90
  L 624.03 515.72
  L 624.30 516.11
  L 624.75 516.25
  L 652.16 515.87
  L 680.69 515.84
  L 683.41 516.02
  L 685.89 516.53
  L 688.13 517.38
  L 690.15 518.55
  L 692.18 520.32
  L 693.43 521.85
  L 694.46 523.57
  L 695.27 525.42
  L 695.83 527.37
  L 696.14 529.36
  L 696.18 531.36
  L 695.96 533.22
  L 695.46 535.01
  L 694.49 537.25
  L 693.32 539.21
  L 691.93 540.91
  L 690.35 542.34
  L 690.35 542.34
  L 690.35 542.34
  L 688.19 543.69
  L 685.75 544.66
  L 683.01 545.24
  L 679.98 545.45
  L 618.25 545.60
  L 614.32 545.39
  L 610.86 544.75
  L 607.91 543.68
  L 605.35 542.15
  L 603.18 540.16
  L 601.32 537.66
  L 599.76 534.64
  L 598.46 531.06
  L 590.67 504.74
  L 585.41 485.06
  L 583.26 475.94
  L 581.40 467.19
  L 579.85 458.81
  L 578.57 450.66
  L 578.54 450.55
  L 578.25 450.30
  L 577.88 450.39
  L 577.49 451.19
  L 574.81 462.07
  L 569.26 481.37
  L 563.76 499.69
  L 558.32 517.05
  L 552.94 533.44
  L 529.92 601.59
  L 519.80 630.78
  L 517.72 635.58
  L 515.57 639.09
  L 514.41 640.48
  L 513.12 641.70
  L 511.79 642.66
  L 510.31 643.44
  L 508.82 643.97
  L 507.19 644.30
  L 505.51 644.42
  L 503.70 644.33
  L 501.79 644.02
  L 500.03 643.50
  L 498.43 642.78
  L 496.98 641.85
  L 496.98 641.85
  L 496.98 641.85
  L 495.44 640.44
  L 494.13 638.73
  L 493.04 636.72
  L 492.19 634.41
  L 465.13 544.71
  L 443.73 474.63
  L 441.79 468.27
  L 441.75 468.20
  L 441.40 468.24
  L 411.66 527.68
  L 408.81 532.98
  L 406.31 536.68
  L 403.67 539.51
  L 400.74 541.60
  L 398.64 542.57
  L 396.30 543.28
  L 393.78 543.70
  L 390.98 543.85
  L 299.25 543.76
  L 290.48 543.46
  L 290.25 543.55
  L 290.18 543.78
  L 290.20 543.85
  Z"
/>
<path fill="#ffffff" d="
  M 290.20 543.85
  L 290.18 543.78
  L 290.25 543.55
  L 290.48 543.46
  L 299.25 543.76
  L 390.98 543.85
  L 393.78 543.70
  L 396.30 543.28
  L 398.64 542.57
  L 400.74 541.60
  L 403.67 539.51
  L 406.31 536.68
  L 408.81 532.98
  L 411.66 527.68
  L 441.40 468.24
  L 441.75 468.20
  L 441.79 468.27
  L 443.73 474.63
  L 465.13 544.71
  L 492.19 634.41
  L 493.04 636.72
  L 494.13 638.73
  L 495.44 640.44
  L 496.98 641.85
  L 496.98 641.85
  L 498.43 642.78
  L 500.03 643.50
  L 501.79 644.02
  L 503.70 644.33
  L 505.51 644.42
  L 507.19 644.30
  L 508.82 643.97
  L 510.31 643.44
  L 511.79 642.66
  L 513.12 641.70
  L 514.41 640.48
  L 515.57 639.09
  L 517.72 635.58
  L 519.80 630.78
  L 529.92 601.59
  L 552.94 533.44
  L 558.32 517.05
  L 563.76 499.69
  L 569.26 481.37
  L 574.81 462.07
  L 577.49 451.19
  L 577.88 450.39
  L 578.25 450.30
  L 578.54 450.55
  L 578.57 450.66
  L 579.85 458.81
  L 581.40 467.19
  L 583.26 475.94
  L 585.41 485.06
  L 590.67 504.74
  L 598.46 531.06
  L 599.76 534.64
  L 601.32 537.66
  L 603.18 540.16
  L 605.35 542.15
  L 607.91 543.68
  L 610.86 544.75
  L 614.32 545.39
  L 618.25 545.60
  L 679.98 545.45
  L 683.01 545.24
  L 685.75 544.66
  L 688.19 543.69
  L 690.35 542.34
  L 690.35 542.34
  L 690.35 542.34
  L 691.93 540.91
  L 693.32 539.21
  L 694.49 537.25
  L 695.46 535.01
  L 695.96 533.22
  L 696.18 531.36
  L 696.14 529.36
  L 695.83 527.37
  L 695.27 525.42
  L 694.46 523.57
  L 693.43 521.85
  L 692.18 520.32
  L 690.15 518.55
  L 690.15 518.55
  L 688.13 517.38
  L 685.89 516.53
  L 683.41 516.02
  L 680.69 515.84
  L 652.16 515.87
  L 624.75 516.25
  L 624.30 516.11
  L 624.03 515.72
  L 597.87 421.90
  L 597.23 419.56
  L 595.17 412.66
  L 593.10 407.83
  L 591.86 405.73
  L 590.53 403.92
  L 589.06 402.32
  L 587.37 400.89
  L 584.74 399.31
  L 581.82 398.32
  L 579.46 398.01
  L 577.11 398.10
  L 574.70 398.59
  L 572.37 399.46
  L 570.17 400.69
  L 568.13 402.24
  L 566.30 404.09
  L 564.72 406.22
  L 563.18 408.88
  L 561.73 411.91
  L 560.37 415.32
  L 559.09 419.11
  L 546.49 459.42
  L 533.55 499.97
  L 520.29 540.76
  L 506.70 581.78
  L 506.61 581.91
  L 506.31 581.98
  L 506.09 581.75
  L 502.69 568.55
  L 499.29 556.70
  L 477.73 486.84
  L 457.58 423.21
  L 456.86 421.34
  L 455.95 419.67
  L 454.88 418.21
  L 453.62 416.94
  L 453.62 416.94
  L 453.62 416.94
  L 451.31 415.38
  L 448.56 414.32
  L 446.78 413.97
  L 444.97 413.86
  L 443.15 413.99
  L 441.36 414.36
  L 439.65 414.97
  L 438.05 415.80
  L 436.68 416.79
  L 435.47 417.97
  L 432.85 421.53
  L 430.12 426.37
  L 407.72 470.84
  L 386.99 513.00
  L 386.46 513.60
  L 385.69 513.82
  L 303.00 513.81
  L 287.84 514.00
  L 273.26 514.60
  L 272.65 514.46
  L 272.21 514.03
  L 269.11 508.28
  L 266.63 503.20
  L 264.34 498.05
  L 262.25 492.85
  L 260.35 487.59
  L 258.63 482.22
  L 257.10 476.81
  L 255.78 471.36
  L 254.65 465.88
  L 253.71 460.30
  L 252.97 454.69
  L 252.44 449.08
  L 252.11 443.45
  L 251.98 437.83
  L 252.06 432.22
  L 252.34 426.61
  L 252.82 421.03
  L 253.50 415.48
  L 254.38 409.96
  L 255.46 404.48
  L 256.74 399.04
  L 258.21 393.70
  L 259.87 388.42
  L 261.72 383.19
  L 263.77 378.04
  L 265.99 373.03
  L 268.39 368.10
  L 270.97 363.25
  L 273.75 358.49
  L 276.70 353.86
  L 279.83 349.32
  L 283.08 344.96
  L 286.52 340.72
  L 290.23 336.47
  L 294.12 332.35
  L 298.13 328.43
  L 302.32 324.64
  L 307.29 320.51
  L 312.43 316.63
  L 317.73 312.99
  L 323.19 309.61
  L 328.78 306.48
  L 334.51 303.62
  L 340.36 301.03
  L 346.32 298.71
  L 352.36 296.68
  L 358.48 294.94
  L 364.68 293.48
  L 370.96 292.31
  L 377.26 291.44
  L 383.61 290.88
  L 389.89 290.62
  L 396.21 290.66
  L 403.37 291.05
  L 410.36 291.77
  L 417.19 292.84
  L 423.84 294.24
  L 430.34 295.97
  L 436.66 298.05
  L 442.82 300.46
  L 448.81 303.21
  L 448.81 303.21
  L 448.81 303.21
  L 453.33 305.56
  L 457.75 308.12
  L 462.07 310.88
  L 466.29 313.84
  L 470.41 317.00
  L 474.43 320.36
  L 478.35 323.93
  L 482.17 327.69
  L 486.08 332.00
  L 490.02 336.97
  L 494.22 342.83
  L 499.74 351.09
  L 503.09 355.57
  L 504.73 357.30
  L 506.34 358.69
  L 507.94 359.78
  L 509.62 360.62
  L 511.27 361.12
  L 512.98 361.32
  L 514.37 361.25
  L 515.81 360.96
  L 518.61 359.75
  L 521.22 357.73
  L 523.90 354.63
  L 533.46 340.99
  L 538.14 334.67
  L 543.43 328.60
  L 549.35 322.77
  L 555.89 317.18
  L 563.09 311.83
  L 570.54 307.08
  L 578.23 302.94
  L 586.16 299.39
  L 586.16 299.39
  L 586.16 299.39
  L 586.16 299.39
  L 594.32 296.45
  L 602.72 294.11
  L 611.37 292.37
  L 620.25 291.23
  L 626.56 290.82
  L 633.28 290.75
  L 640.42 290.99
  L 647.98 291.57
  L 655.61 292.52
  L 663.08 293.91
  L 668.13 295.10
  L 673.10 296.49
  L 678.07 298.09
  L 682.97 299.89
  L 687.76 301.87
  L 692.46 304.04
  L 697.16 306.42
  L 701.74 308.98
  L 706.27 311.75
  L 710.68 314.68
  L 714.98 317.79
  L 719.15 321.05
  L 723.24 324.50
  L 727.20 328.11
  L 734.71 335.76
  L 741.70 344.02
  L 748.08 352.79
  L 753.82 362.03
  L 758.89 371.69
  L 763.23 381.66
  L 766.85 391.96
  L 769.69 402.42
  L 770.82 407.74
  L 771.76 413.12
  L 772.62 419.56
  L 773.19 426.02
  L 773.50 432.59
  L 773.53 439.16
  L 773.28 445.78
  L 772.76 452.38
  L 771.96 458.96
  L 770.90 465.50
  L 769.55 472.10
  L 767.94 478.64
  L 766.06 485.11
  L 763.92 491.50
  L 761.53 497.81
  L 758.89 504.02
  L 756.01 510.12
  L 752.88 516.11
  L 746.76 526.71
  L 740.08 537.22
  L 732.81 547.65
  L 724.98 557.99
  L 713.89 571.61
  L 702.30 584.97
  L 690.21 598.06
  L 677.62 610.88
  L 659.22 628.74
  L 640.79 645.97
  L 622.30 662.56
  L 603.78 678.53
  L 582.72 696.14
  L 561.80 713.34
  L 540.99 730.10
  L 520.32 746.45
  L 518.69 747.57
  L 517.06 748.39
  L 515.40 748.91
  L 513.74 749.13
  L 513.74 749.13
  L 511.71 749.00
  L 509.65 748.43
  L 507.58 747.43
  L 505.49 745.98
  L 483.21 728.21
  L 462.91 711.77
  L 444.05 696.23
  L 426.37 681.37
  L 409.46 666.84
  L 393.41 652.72
  L 378.02 638.84
  L 363.17 625.08
  L 352.84 615.19
  L 342.83 605.22
  L 333.23 595.27
  L 323.98 585.27
  L 315.16 575.30
  L 306.73 565.32
  L 298.77 555.43
  L 291.23 545.57
  L 290.20 543.85
  Z"
/>
</svg>
