<?xml version="1.0" encoding="UTF-8" standalone="no"?>
<!DOCTYPE svg PUBLIC "-//W3C//DTD SVG 1.1//EN" "http://www.w3.org/Graphics/SVG/1.1/DTD/svg11.dtd">
<svg xmlns="http://www.w3.org/2000/svg" version="1.1" viewBox="0.00 0.00 953.00 944.00" width="953.00" height="944.00">
<g fill="#00cc74">
<path d="
  M 480.81 944.00
  L 472.31 944.00
  L 464.22 943.70
  L 455.85 943.19
  L 449.90 942.91
  L 443.48 942.58
  L 438.71 941.99
  L 437.21 941.89
  L 432.32 941.73
  L 427.90 940.99
  L 426.65 940.87
  L 423.10 940.74
  L 419.27 940.08
  L 417.68 939.90
  L 415.60 939.83
  L 413.80 939.55
  L 411.32 939.04
  L 409.92 938.91
  L 402.82 937.88
  L 387.38 935.20
  L 372.39 932.11
  L 357.86 928.61
  L 343.77 924.71
  L 333.36 921.51
  L 323.08 918.10
  L 312.92 914.48
  L 302.90 910.67
  L 293.01 906.64
  L 283.25 902.42
  L 273.61 897.99
  L 264.11 893.35
  L 253.68 887.96
  L 243.43 882.35
  L 233.34 876.52
  L 223.43 870.46
  L 213.69 864.18
  L 204.13 857.68
  L 194.73 850.95
  L 185.51 844.01
  L 185.51 844.01
  L 185.51 844.01
  L 185.51 844.01
  L 174.74 835.43
  L 164.21 826.54
  L 153.93 817.33
  L 143.90 807.81
  L 134.11 797.97
  L 124.56 787.81
  L 115.26 777.34
  L 106.20 766.55
  L 96.72 754.57
  L 87.69 742.39
  L 79.09 730.01
  L 70.92 717.44
  L 63.20 704.66
  L 55.91 691.68
  L 49.06 678.51
  L 42.65 665.13
  L 36.16 650.33
  L 30.22 635.37
  L 24.83 620.25
  L 19.98 604.97
  L 15.37 588.30
  L 11.40 571.44
  L 8.07 554.39
  L 5.38 537.15
  L 5.09 533.53
  L 4.85 532.04
  L 4.25 529.07
  L 4.14 525.83
  L 3.94 524.14
  L 3.45 521.64
  L 3.23 518.37
  L 3.06 515.63
  L 2.72 513.64
  L 2.32 510.86
  L 2.16 506.69
  L 1.70 499.74
  L 1.23 493.00
  L 0.97 467.70
  L 1.29 443.50
  L 1.70 438.58
  L 2.06 434.70
  L 2.14 431.74
  L 2.24 428.83
  L 2.66 426.28
  L 3.00 424.19
  L 3.17 421.22
  L 3.39 417.70
  L 3.90 415.18
  L 4.13 413.50
  L 4.30 410.43
  L 5.00 407.23
  L 5.12 406.06
  L 5.21 404.17
  L 5.66 400.73
  L 7.46 389.59
  L 9.50 378.56
  L 11.80 367.63
  L 14.34 356.80
  L 17.14 346.08
  L 20.19 335.46
  L 23.48 324.95
  L 27.03 314.54
  L 31.63 302.10
  L 36.54 289.85
  L 41.77 277.80
  L 47.29 265.95
  L 53.13 254.28
  L 59.28 242.82
  L 65.74 231.55
  L 72.50 220.47
  L 72.50 220.47
  L 72.50 220.47
  L 77.83 212.21
  L 83.33 204.07
  L 92.89 190.73
  L 102.81 177.84
  L 113.08 165.42
  L 123.70 153.46
  L 137.04 139.54
  L 150.87 126.25
  L 165.18 113.57
  L 179.97 101.51
  L 179.97 101.51
  L 189.21 94.48
  L 198.62 87.67
  L 208.22 81.10
  L 217.99 74.75
  L 227.95 68.64
  L 238.08 62.75
  L 248.39 57.09
  L 258.88 51.66
  L 272.32 45.15
  L 285.87 39.09
  L 299.51 33.46
  L 313.26 28.28
  L 327.10 23.54
  L 341.04 19.25
  L 355.08 15.40
  L 369.22 11.99
  L 369.22 11.99
  L 369.22 11.99
  L 386.80 8.39
  L 399.25 6.23
  L 400.39 6.15
  L 401.92 5.95
  L 404.57 5.29
  L 407.50 5.12
  L 408.50 4.99
  L 408.58 4.97
  L 408.58 4.97
  L 411.90 4.27
  L 415.39 4.12
  L 416.47 3.98
  L 418.49 3.48
  L 420.52 3.20
  L 423.13 3.13
  L 424.50 3.01
  L 429.75 2.26
  L 435.70 2.11
  L 437.02 1.99
  L 441.95 1.30
  L 447.79 1.14
  L 454.79 0.72
  L 459.64 0.36
  L 475.19 0.11
  L 491.75 0.24
  L 498.74 0.70
  L 503.17 1.06
  L 506.44 1.14
  L 512.14 1.32
  L 517.22 2.03
  L 518.41 2.13
  L 523.28 2.23
  L 527.67 2.94
  L 529.24 3.12
  L 530.36 3.13
  L 535.58 3.76
  L 538.76 4.24
  L 540.03 4.40
  L 540.03 4.40
  L 554.26 6.40
  L 568.43 8.86
  L 582.54 11.77
  L 596.60 15.13
  L 610.60 18.95
  L 624.55 23.22
  L 638.44 27.95
  L 652.27 33.13
  L 663.04 37.49
  L 673.67 42.08
  L 684.15 46.90
  L 694.49 51.95
  L 704.69 57.23
  L 714.74 62.74
  L 724.64 68.48
  L 734.41 74.45
  L 734.41 74.45
  L 734.41 74.45
  L 734.41 74.45
  L 742.81 79.85
  L 751.10 85.42
  L 765.25 95.52
  L 778.79 105.97
  L 791.74 116.77
  L 804.09 127.91
  L 812.88 136.34
  L 821.39 144.85
  L 829.25 153.06
  L 836.40 160.93
  L 843.00 168.57
  L 849.42 176.35
  L 849.42 176.35
  L 856.37 185.17
  L 863.09 194.18
  L 869.60 203.36
  L 875.89 212.71
  L 881.96 222.25
  L 887.82 231.95
  L 893.45 241.84
  L 898.87 251.90
  L 906.01 266.19
  L 912.10 279.43
  L 917.77 292.75
  L 923.01 306.16
  L 927.84 319.66
  L 932.25 333.26
  L 936.24 346.93
  L 939.81 360.70
  L 942.96 374.56
  L 942.96 374.56
  L 942.96 374.56
  L 945.73 388.76
  L 946.09 390.74
  L 947.24 397.97
  L 948.06 405.18
  L 948.21 405.94
  L 948.78 408.66
  L 948.88 411.37
  L 948.88 411.37
  L 948.86 411.77
  L 949.02 413.16
  L 949.73 416.76
  L 949.86 421.08
  L 950.03 422.23
  L 950.62 425.00
  L 950.84 428.93
  L 951.00 432.25
  L 951.39 434.59
  L 951.68 437.19
  L 951.83 442.16
  L 952.17 449.70
  L 952.74 459.92
  L 952.95 470.24
  L 952.79 480.64
  L 952.26 491.14
  L 951.85 500.39
  L 951.61 505.65
  L 951.00 509.58
  L 950.84 511.20
  L 950.74 515.74
  L 950.04 519.60
  L 949.88 520.93
  L 949.77 524.64
  L 949.09 528.09
  L 948.88 529.42
  L 948.84 531.35
  L 948.54 533.70
  L 948.07 535.89
  L 947.72 538.77
  L 947.29 542.36
  L 944.84 556.60
  L 941.97 570.73
  L 938.67 584.73
  L 934.94 598.61
  L 934.94 598.61
  L 934.94 598.61
  L 931.57 609.88
  L 927.92 621.07
  L 927.26 622.91
  L 926.95 623.20
  L 926.87 623.62
  L 926.83 624.63
  L 926.48 625.39
  L 926.18 625.68
  L 925.94 626.03
  L 925.95 626.45
  L 925.33 628.54
  L 920.19 642.31
  L 914.91 655.26
  L 911.00 664.14
  L 906.89 672.97
  L 902.56 681.74
  L 898.03 690.46
  L 893.28 699.13
  L 888.33 707.74
  L 883.16 716.30
  L 877.79 724.80
  L 869.54 737.18
  L 861.05 749.14
  L 852.32 760.69
  L 843.35 771.82
  L 831.15 785.93
  L 818.47 799.49
  L 805.31 812.51
  L 791.67 824.98
  L 791.67 824.98
  L 781.33 833.79
  L 770.74 842.32
  L 759.89 850.54
  L 748.79 858.48
  L 737.42 866.12
  L 725.79 873.46
  L 713.91 880.51
  L 701.76 887.26
  L 693.07 891.82
  L 684.32 896.19
  L 675.51 900.36
  L 666.63 904.35
  L 657.68 908.14
  L 648.67 911.73
  L 639.59 915.14
  L 630.44 918.35
  L 630.44 918.35
  L 630.44 918.35
  L 630.44 918.35
  L 620.33 921.65
  L 610.13 924.73
  L 599.85 927.57
  L 589.49 930.17
  L 579.06 932.55
  L 568.54 934.69
  L 557.95 936.60
  L 547.28 938.28
  L 542.04 938.93
  L 541.04 939.07
  L 537.66 939.78
  L 534.88 939.87
  L 533.52 940.03
  L 529.98 940.73
  L 526.24 940.86
  L 524.75 941.00
  L 519.61 941.76
  L 514.14 941.86
  L 512.74 941.98
  L 508.42 942.63
  L 503.42 942.84
  L 497.71 942.98
  L 489.87 943.47
  L 480.81 944.00
  Z
  M 498.74 503.87
  L 438.37 503.87
  L 438.01 503.71
  L 437.88 503.34
  L 437.89 503.30
  L 439.14 495.89
  L 439.15 495.75
  L 439.18 493.07
  L 439.54 490.46
  L 439.54 490.46
  L 439.97 488.78
  L 440.12 487.50
  L 440.19 485.02
  L 440.63 481.96
  L 441.04 479.20
  L 441.15 477.00
  L 441.34 474.74
  L 441.94 472.04
  L 441.99 471.78
  L 446.16 435.44
  L 446.38 435.01
  L 446.83 434.84
  L 525.19 434.84
  L 525.65 435.03
  L 525.86 435.48
  L 525.72 436.35
  L 525.24 437.33
  L 524.98 438.12
  L 524.48 441.24
  L 515.01 480.52
  L 514.92 481.24
  L 515.06 481.72
  L 515.12 481.80
  L 515.90 482.14
  L 516.69 481.80
  L 523.28 475.04
  L 530.22 468.68
  L 530.22 468.68
  L 530.22 468.68
  L 539.15 461.48
  L 548.61 454.88
  L 549.36 454.21
  L 549.91 453.14
  L 550.20 451.57
  L 550.39 450.37
  L 565.01 391.79
  L 579.73 331.56
  L 580.10 329.49
  L 580.43 327.64
  L 580.85 326.28
  L 581.09 325.17
  L 581.16 321.10
  L 580.81 318.59
  L 579.72 316.00
  L 578.69 314.36
  L 577.53 312.97
  L 576.24 311.82
  L 574.82 310.91
  L 572.38 309.98
  L 569.20 309.71
  L 562.58 309.62
  L 209.07 309.57
  L 208.73 309.45
  L 208.54 309.15
  L 198.64 265.40
  L 197.62 262.16
  L 197.00 260.95
  L 196.29 260.00
  L 194.59 258.42
  L 192.39 256.90
  L 189.70 255.42
  L 186.52 253.99
  L 185.69 253.81
  L 184.14 253.59
  L 182.56 253.00
  L 181.93 252.85
  L 122.27 252.67
  L 117.71 252.72
  L 115.67 253.30
  L 113.63 254.62
  L 111.98 256.13
  L 110.58 257.75
  L 109.45 259.47
  L 108.58 261.29
  L 108.58 261.29
  L 108.28 262.14
  L 107.92 263.58
  L 107.83 264.95
  L 107.83 267.81
  L 108.16 270.38
  L 109.22 273.07
  L 110.50 275.13
  L 112.05 276.90
  L 114.25 278.63
  L 116.83 279.96
  L 117.66 280.13
  L 173.48 280.13
  L 173.51 280.13
  L 173.82 280.29
  L 173.92 280.63
  L 173.82 281.45
  L 173.88 282.09
  L 174.20 282.64
  L 174.73 283.52
  L 174.84 284.25
  L 174.89 285.62
  L 175.06 286.10
  L 175.07 286.10
  L 176.88 293.88
  L 199.66 397.26
  L 230.68 539.28
  L 231.00 541.23
  L 231.39 542.69
  L 231.84 544.56
  L 231.85 544.94
  L 231.94 545.72
  L 232.32 546.65
  L 232.70 547.57
  L 232.83 548.36
  L 233.37 550.03
  L 234.73 553.78
  L 236.25 557.37
  L 237.93 560.81
  L 239.76 564.08
  L 241.76 567.20
  L 243.91 570.16
  L 246.22 572.97
  L 248.69 575.61
  L 248.69 575.61
  L 253.07 579.59
  L 257.86 583.15
  L 263.08 586.29
  L 268.72 589.01
  L 273.98 590.92
  L 280.03 592.48
  L 286.69 593.69
  L 291.76 594.09
  L 473.29 594.12
  L 473.35 594.12
  L 473.65 593.93
  L 473.70 593.58
  L 472.34 588.68
  L 472.16 587.43
  L 472.08 584.09
  L 472.08 576.66
  L 472.35 573.98
  L 472.82 571.64
  L 473.15 569.54
  L 473.32 566.29
  L 473.32 566.26
  L 473.16 565.92
  L 472.79 565.80
  L 469.00 566.07
  L 291.77 566.04
  L 287.42 565.81
  L 283.31 565.12
  L 279.44 563.97
  L 275.81 562.36
  L 275.81 562.36
  L 272.57 560.41
  L 269.55 558.04
  L 266.75 555.26
  L 264.16 552.07
  L 262.47 549.39
  L 261.03 546.36
  L 259.86 542.99
  L 258.95 539.26
  L 258.64 538.55
  L 258.50 538.34
  L 258.23 537.65
  L 258.09 536.67
  L 257.70 534.83
  L 257.67 534.77
  L 257.24 533.53
  L 257.09 532.34
  L 257.21 532.01
  L 257.63 531.80
  L 484.69 531.67
  L 485.38 531.57
  L 485.86 531.27
  L 485.86 531.27
  L 485.86 531.27
  L 486.11 530.75
  L 486.13 530.01
  L 486.30 529.23
  L 489.68 521.61
  L 491.54 517.60
  L 493.31 514.26
  L 499.02 504.35
  L 499.04 504.07
  L 498.82 503.88
  L 498.82 503.88
  L 498.74 503.87
  Z
  M 500.80 580.44
  L 501.19 581.20
  L 501.99 581.51
  L 558.52 581.81
  L 622.27 581.85
  L 783.93 581.18
  L 784.74 581.02
  L 785.44 580.58
  L 785.93 579.90
  L 786.14 579.10
  L 786.12 576.44
  L 785.65 573.90
  L 785.65 573.90
  L 785.51 573.44
  L 785.48 573.33
  L 785.16 571.02
  L 784.85 568.72
  L 784.82 568.62
  L 784.16 565.56
  L 782.74 558.64
  L 781.24 552.45
  L 779.63 547.01
  L 777.94 542.30
  L 774.50 534.43
  L 770.64 526.88
  L 766.35 519.63
  L 761.63 512.70
  L 761.63 512.70
  L 761.63 512.70
  L 755.77 505.22
  L 749.35 498.13
  L 742.39 491.45
  L 734.88 485.16
  L 727.54 479.83
  L 727.54 479.83
  L 720.58 475.44
  L 713.32 471.48
  L 705.76 467.96
  L 697.92 464.87
  L 687.58 461.53
  L 677.26 458.96
  L 666.95 457.15
  L 656.65 456.10
  L 656.28 455.93
  L 656.13 455.54
  L 656.13 439.66
  L 656.28 439.28
  L 656.64 439.11
  L 662.25 438.59
  L 665.01 438.02
  L 667.14 436.92
  L 668.96 435.64
  L 670.45 434.17
  L 671.64 432.51
  L 671.64 432.51
  L 671.64 432.51
  L 671.64 432.51
  L 672.49 430.71
  L 673.04 428.73
  L 673.40 425.99
  L 673.37 423.46
  L 672.96 421.13
  L 672.16 419.01
  L 670.10 415.56
  L 667.57 412.59
  L 667.57 412.59
  L 664.48 410.04
  L 660.89 407.99
  L 658.79 407.11
  L 657.49 406.79
  L 653.97 406.08
  L 652.18 405.87
  L 637.05 405.85
  L 634.61 405.96
  L 632.01 406.35
  L 629.43 406.98
  L 627.01 407.82
  L 623.66 409.48
  L 620.72 411.61
  L 620.72 411.61
  L 620.72 411.61
  L 619.06 413.20
  L 617.57 414.98
  L 616.25 416.96
  L 615.09 419.12
  L 614.15 421.63
  L 613.80 423.95
  L 613.81 427.89
  L 614.25 430.22
  L 615.38 432.66
  L 616.80 434.63
  L 618.20 436.02
  L 619.82 437.22
  L 621.65 438.23
  L 623.71 439.05
  L 624.23 439.13
  L 631.14 439.13
  L 631.54 439.29
  L 631.70 439.69
  L 631.70 455.45
  L 631.56 455.85
  L 631.20 456.08
  L 628.41 456.57
  L 625.99 456.74
  L 623.10 456.90
  L 620.11 457.32
  L 610.32 459.28
  L 601.57 461.35
  L 593.20 463.78
  L 585.10 466.69
  L 577.26 470.08
  L 569.69 473.95
  L 569.69 473.95
  L 569.69 473.95
  L 563.83 477.38
  L 558.14 481.13
  L 552.62 485.18
  L 547.27 489.53
  L 539.81 496.39
  L 533.03 503.63
  L 526.91 511.24
  L 521.47 519.22
  L 518.49 524.18
  L 515.73 529.16
  L 513.20 534.16
  L 510.89 539.19
  L 507.89 546.71
  L 505.41 554.30
  L 503.47 561.97
  L 502.06 569.71
  L 501.58 572.93
  L 500.88 577.55
  L 500.80 580.44
  Z
  M 271.67 687.62
  L 276.28 689.72
  L 281.24 691.23
  L 283.23 691.90
  L 283.89 692.10
  L 290.01 692.48
  L 292.80 692.57
  L 295.78 692.43
  L 298.95 692.05
  L 302.31 691.44
  L 305.24 690.70
  L 308.14 689.73
  L 311.03 688.52
  L 313.89 687.09
  L 317.55 684.88
  L 320.94 682.36
  L 324.13 679.48
  L 327.02 676.33
  L 329.58 672.92
  L 331.80 669.29
  L 333.66 665.45
  L 335.14 661.43
  L 336.48 655.97
  L 337.12 650.30
  L 337.15 645.54
  L 336.80 641.07
  L 336.04 636.91
  L 334.90 633.05
  L 333.42 629.42
  L 331.68 626.00
  L 329.68 622.79
  L 327.42 619.81
  L 327.42 619.81
  L 327.42 619.81
  L 327.42 619.81
  L 323.75 615.91
  L 319.55 612.46
  L 314.82 609.44
  L 309.56 606.86
  L 305.12 605.26
  L 303.62 604.93
  L 301.65 604.63
  L 299.94 604.14
  L 298.76 603.92
  L 290.37 603.82
  L 286.26 604.01
  L 279.61 605.46
  L 276.74 606.37
  L 274.19 607.40
  L 269.91 609.59
  L 265.99 612.10
  L 262.40 614.93
  L 259.17 618.09
  L 259.17 618.09
  L 259.17 618.09
  L 259.17 618.09
  L 256.00 621.95
  L 253.25 626.21
  L 250.93 630.86
  L 249.04 635.90
  L 248.88 636.71
  L 248.57 638.61
  L 247.95 640.91
  L 247.85 641.59
  L 247.85 654.58
  L 247.92 654.92
  L 248.83 657.60
  L 249.20 660.38
  L 250.10 663.04
  L 251.97 667.09
  L 253.40 669.87
  L 254.99 672.50
  L 256.74 675.00
  L 258.65 677.36
  L 258.65 677.36
  L 258.65 677.36
  L 261.47 680.30
  L 264.58 682.99
  L 267.98 685.43
  L 271.67 687.62
  Z
  M 435.08 607.88
  L 434.66 607.91
  L 433.77 608.32
  L 430.48 610.24
  L 427.39 612.36
  L 424.52 614.68
  L 421.86 617.21
  L 421.86 617.21
  L 421.86 617.21
  L 419.42 619.95
  L 417.18 622.89
  L 415.16 626.04
  L 413.35 629.39
  L 412.84 631.02
  L 412.51 631.67
  L 412.39 631.76
  L 411.98 632.25
  L 411.85 632.88
  L 411.79 633.63
  L 411.53 634.24
  L 411.23 634.58
  L 410.96 634.95
  L 410.87 635.41
  L 410.72 637.13
  L 410.15 638.46
  L 409.93 639.25
  L 409.92 641.15
  L 409.62 644.02
  L 409.24 647.79
  L 409.28 650.59
  L 410.15 657.46
  L 411.22 662.04
  L 413.25 667.10
  L 415.71 671.73
  L 418.61 675.94
  L 421.93 679.72
  L 421.93 679.72
  L 421.93 679.72
  L 425.54 682.95
  L 429.54 685.79
  L 433.94 688.23
  L 438.74 690.28
  L 441.74 691.16
  L 444.81 691.92
  L 445.58 692.09
  L 452.91 692.41
  L 460.35 692.00
  L 461.43 691.73
  L 463.07 691.22
  L 464.55 691.10
  L 465.42 690.79
  L 465.50 690.72
  L 466.16 690.36
  L 467.13 690.15
  L 468.22 689.90
  L 472.43 688.05
  L 475.58 686.24
  L 476.21 686.06
  L 476.59 686.06
  L 476.76 685.96
  L 476.98 685.43
  L 476.69 684.94
  L 475.31 684.22
  L 473.98 683.87
  L 473.61 683.77
  L 470.89 682.52
  L 468.50 681.09
  L 465.97 679.14
  L 463.54 676.78
  L 461.09 673.91
  L 457.70 669.45
  L 456.30 667.57
  L 455.63 666.98
  L 454.02 666.26
  L 452.42 665.95
  L 450.42 665.74
  L 448.66 665.33
  L 445.71 664.13
  L 443.15 662.44
  L 443.15 662.44
  L 441.87 661.25
  L 440.72 659.91
  L 438.81 656.74
  L 437.76 654.08
  L 437.24 651.61
  L 437.06 648.09
  L 437.33 644.80
  L 438.06 641.75
  L 439.25 638.95
  L 439.25 638.95
  L 439.25 638.95
  L 440.77 636.53
  L 442.69 634.32
  L 445.02 632.33
  L 447.74 630.54
  L 448.20 630.33
  L 451.56 628.90
  L 454.45 627.09
  L 454.66 626.84
  L 465.69 606.08
  L 465.73 605.43
  L 465.26 604.97
  L 465.14 604.94
  L 459.24 603.87
  L 459.04 603.85
  L 448.20 603.87
  L 446.66 604.14
  L 444.42 604.76
  L 442.56 604.89
  L 442.06 604.96
  L 441.62 605.23
  L 440.85 605.69
  L 439.79 605.85
  L 439.30 605.92
  L 438.44 606.35
  L 437.58 606.79
  L 436.74 606.87
  L 436.27 606.96
  L 435.90 607.26
  L 435.43 607.79
  L 435.12 607.90
  L 435.12 607.90
  L 435.08 607.88
  Z
  M 803.62 661.12
  L 805.74 660.72
  L 807.98 659.53
  L 809.06 658.51
  L 810.19 657.13
  L 810.90 655.90
  L 811.17 654.94
  L 811.44 654.33
  L 811.62 654.25
  L 812.00 653.99
  L 812.10 653.54
  L 812.21 652.12
  L 812.87 650.11
  L 813.16 648.66
  L 812.92 644.51
  L 812.58 642.97
  L 812.09 641.78
  L 807.17 633.90
  L 796.64 617.88
  L 795.33 616.09
  L 793.91 614.48
  L 792.36 613.05
  L 790.70 611.79
  L 790.70 611.79
  L 787.65 610.10
  L 786.05 609.52
  L 784.18 609.11
  L 779.62 608.78
  L 511.00 608.78
  L 504.36 608.82
  L 503.24 608.89
  L 501.32 609.27
  L 499.44 609.97
  L 496.76 611.37
  L 494.50 612.94
  L 491.89 615.50
  L 489.25 619.06
  L 481.40 631.06
  L 474.24 642.40
  L 473.93 643.38
  L 473.77 649.49
  L 474.09 651.56
  L 474.90 654.05
  L 476.25 656.65
  L 478.07 658.72
  L 479.95 660.03
  L 482.15 660.97
  L 483.07 661.11
  L 803.62 661.12
  Z"
/>
<path d="
  M 304.34 338.41
  L 312.01 407.01
  L 311.99 407.16
  L 311.69 407.37
  L 230.52 407.37
  L 230.35 407.33
  L 230.20 407.12
  L 215.03 338.52
  L 215.09 338.25
  L 215.34 338.13
  L 304.02 338.13
  L 304.34 338.41
  Z"
/>
<path d="
  M 339.56 407.15
  L 331.89 338.47
  L 331.97 338.23
  L 332.20 338.13
  L 429.57 338.13
  L 429.76 338.20
  L 429.88 338.48
  L 421.55 407.16
  L 421.25 407.43
  L 339.87 407.43
  L 339.56 407.15
  Z"
/>
<path d="
  M 449.32 407.32
  L 457.67 338.41
  L 457.74 338.24
  L 457.98 338.13
  L 549.03 338.13
  L 549.25 338.21
  L 549.34 338.53
  L 532.60 407.44
  L 532.59 407.45
  L 532.29 407.68
  L 449.64 407.68
  L 449.41 407.58
  L 449.32 407.32
  Z"
/>
<path d="
  M 350.19 503.59
  L 342.55 435.21
  L 342.63 434.97
  L 342.86 434.87
  L 418.12 434.87
  L 418.35 434.97
  L 418.43 435.22
  L 410.14 503.60
  L 409.84 503.87
  L 350.50 503.87
  L 350.48 503.87
  L 350.19 503.59
  Z"
/>
<path d="
  M 322.53 504.70
  L 251.53 504.70
  L 251.39 504.67
  L 251.20 504.43
  L 236.07 436.04
  L 236.13 435.76
  L 236.40 435.63
  L 314.89 435.63
  L 315.12 435.72
  L 315.22 435.93
  L 322.87 504.32
  L 322.83 504.52
  L 322.53 504.70
  Z"
/>
<path d="
  M 292.39 630.41
  L 295.72 630.64
  L 298.87 631.42
  L 298.87 631.42
  L 301.72 632.67
  L 304.40 634.44
  L 306.48 636.38
  L 308.10 638.59
  L 308.10 638.59
  L 309.09 640.61
  L 309.76 642.81
  L 310.19 645.87
  L 310.24 649.40
  L 309.88 652.68
  L 309.16 655.34
  L 308.07 657.59
  L 306.70 659.57
  L 305.44 660.96
  L 304.04 662.18
  L 302.42 663.27
  L 300.69 664.18
  L 298.84 664.90
  L 296.91 665.43
  L 294.91 665.75
  L 292.87 665.88
  L 290.82 665.81
  L 288.81 665.54
  L 286.87 665.06
  L 285.00 664.39
  L 283.24 663.53
  L 281.60 662.48
  L 280.16 661.30
  L 278.86 659.95
  L 277.44 658.00
  L 276.29 655.78
  L 275.50 653.14
  L 275.06 649.88
  L 275.01 646.35
  L 275.36 643.27
  L 275.97 641.06
  L 276.90 639.01
  L 276.90 639.01
  L 276.90 639.01
  L 278.46 636.76
  L 280.49 634.76
  L 283.12 632.93
  L 285.93 631.59
  L 289.06 630.73
  L 292.39 630.41
  Z"
/>
</g>
</svg>
