<?xml version="1.0" encoding="UTF-8" standalone="no"?>
<!DOCTYPE svg PUBLIC "-//W3C//DTD SVG 1.1//EN" "http://www.w3.org/Graphics/SVG/1.1/DTD/svg11.dtd">
<svg xmlns="http://www.w3.org/2000/svg" version="1.1" viewBox="0.00 0.00 947.00 947.00" width="947.00" height="947.00">
<g fill="#00e07b">
<path d="
  M 920.91 629.47
  L 920.86 630.24
  L 920.43 631.68
  L 913.76 649.68
  L 907.65 664.26
  L 907.12 665.07
  L 906.82 665.96
  L 906.55 666.93
  L 902.08 676.73
  L 897.36 686.43
  L 892.40 696.02
  L 887.19 705.50
  L 881.73 714.88
  L 876.03 724.16
  L 870.08 733.33
  L 863.89 742.39
  L 855.15 754.49
  L 850.61 760.58
  L 846.08 766.32
  L 836.31 778.24
  L 831.13 784.23
  L 830.90 784.48
  L 827.61 788.21
  L 824.24 792.02
  L 824.14 792.13
  L 807.66 808.87
  L 792.01 823.99
  L 784.44 830.67
  L 771.66 841.40
  L 761.98 849.19
  L 752.32 856.50
  L 742.66 863.33
  L 733.01 869.69
  L 724.73 874.95
  L 709.35 884.27
  L 693.69 892.95
  L 677.75 900.98
  L 661.54 908.37
  L 661.54 908.37
  L 649.41 913.40
  L 637.12 918.08
  L 624.69 922.41
  L 612.10 926.39
  L 599.37 930.02
  L 586.48 933.30
  L 573.44 936.23
  L 560.25 938.81
  L 548.52 940.74
  L 542.33 941.74
  L 536.11 942.75
  L 532.34 943.04
  L 529.19 943.53
  L 526.20 943.88
  L 522.26 943.86
  L 521.26 944.05
  L 519.30 944.62
  L 496.28 946.17
  L 483.50 946.83
  L 458.98 946.84
  L 450.54 946.32
  L 443.01 945.97
  L 437.68 945.78
  L 433.95 945.38
  L 428.23 944.87
  L 423.95 944.56
  L 420.70 944.06
  L 417.59 943.80
  L 413.80 943.47
  L 410.30 942.94
  L 406.25 942.72
  L 405.52 942.55
  L 401.28 941.79
  L 388.95 939.87
  L 375.13 937.11
  L 363.39 934.41
  L 351.76 931.45
  L 340.25 928.21
  L 328.86 924.71
  L 317.59 920.94
  L 306.43 916.90
  L 295.38 912.59
  L 284.46 908.01
  L 284.46 908.01
  L 284.46 908.01
  L 284.46 908.01
  L 284.46 908.01
  L 271.38 902.11
  L 258.47 895.81
  L 249.73 891.23
  L 239.97 885.83
  L 228.82 879.29
  L 217.38 872.10
  L 205.65 864.28
  L 193.64 855.82
  L 182.82 847.73
  L 172.11 839.19
  L 161.53 830.18
  L 151.07 820.72
  L 141.17 811.24
  L 131.54 801.47
  L 122.19 791.44
  L 113.13 781.15
  L 104.37 770.61
  L 95.92 759.83
  L 87.84 748.90
  L 80.08 737.73
  L 72.66 726.39
  L 65.59 714.83
  L 58.90 703.16
  L 52.56 691.30
  L 46.62 679.35
  L 41.05 667.24
  L 35.87 655.05
  L 31.07 642.71
  L 27.52 632.84
  L 24.18 622.94
  L 21.07 612.99
  L 18.17 603.00
  L 15.48 592.97
  L 13.02 582.90
  L 10.77 572.79
  L 8.74 562.64
  L 8.74 562.64
  L 8.74 562.64
  L 6.07 547.17
  L 3.91 531.60
  L 2.24 515.94
  L 1.07 500.19
  L 0.60 489.60
  L 0.37 478.07
  L 0.38 465.59
  L 0.62 452.17
  L 1.09 444.32
  L 1.56 436.50
  L 1.74 433.36
  L 2.12 430.52
  L 2.52 425.93
  L 2.75 422.50
  L 5.23 403.94
  L 8.35 385.67
  L 12.10 367.67
  L 16.49 349.96
  L 21.52 332.52
  L 27.19 315.37
  L 33.49 298.50
  L 40.43 281.91
  L 40.43 281.91
  L 40.43 281.91
  L 46.01 269.74
  L 51.94 257.73
  L 58.22 245.87
  L 64.86 234.17
  L 71.85 222.63
  L 79.19 211.24
  L 86.88 200.01
  L 94.93 188.93
  L 106.19 174.48
  L 118.01 160.51
  L 130.44 146.94
  L 143.39 133.89
  L 156.93 121.28
  L 170.94 109.22
  L 185.49 97.66
  L 200.47 86.67
  L 215.89 76.27
  L 231.69 66.47
  L 247.87 57.29
  L 264.39 48.75
  L 281.22 40.86
  L 298.35 33.63
  L 315.67 27.11
  L 333.23 21.27
  L 349.93 16.42
  L 366.77 12.21
  L 381.39 9.10
  L 396.12 6.45
  L 410.95 4.28
  L 425.89 2.58
  L 440.95 1.35
  L 456.10 0.59
  L 471.37 0.31
  L 486.75 0.49
  L 514.33 2.20
  L 520.15 2.80
  L 524.24 3.20
  L 527.93 3.49
  L 543.43 5.61
  L 555.97 7.59
  L 566.83 9.61
  L 579.02 12.18
  L 592.52 15.41
  L 606.09 19.15
  L 619.72 23.38
  L 633.43 28.12
  L 637.54 29.40
  L 637.90 29.72
  L 638.13 30.07
  L 638.77 30.10
  L 639.54 30.25
  L 655.87 36.79
  L 671.83 43.82
  L 687.41 51.34
  L 702.61 59.36
  L 717.45 67.87
  L 731.91 76.88
  L 745.99 86.38
  L 759.70 96.37
  L 766.01 101.24
  L 774.21 107.83
  L 782.30 114.65
  L 790.28 121.70
  L 798.15 128.98
  L 805.92 136.49
  L 813.58 144.23
  L 821.13 152.20
  L 828.58 160.40
  L 835.55 168.41
  L 842.31 176.54
  L 848.87 184.80
  L 855.24 193.18
  L 861.40 201.68
  L 867.36 210.30
  L 873.12 219.05
  L 878.68 227.92
  L 878.68 227.92
  L 878.68 227.92
  L 878.68 227.92
  L 884.15 237.11
  L 889.42 246.44
  L 894.48 255.90
  L 899.32 265.48
  L 903.96 275.19
  L 908.39 285.03
  L 912.60 295.00
  L 916.61 305.10
  L 916.92 306.43
  L 917.16 307.12
  L 917.41 307.34
  L 917.63 307.53
  L 917.80 308.26
  L 918.39 310.10
  L 924.26 326.79
  L 929.41 343.44
  L 933.85 360.06
  L 937.56 376.65
  L 940.18 390.75
  L 942.64 406.53
  L 942.86 409.47
  L 943.04 410.71
  L 943.73 413.95
  L 943.90 417.61
  L 944.03 419.07
  L 944.74 423.57
  L 944.86 427.68
  L 945.03 428.73
  L 945.51 431.58
  L 945.79 434.08
  L 945.92 437.42
  L 946.20 442.21
  L 946.75 448.26
  L 946.79 449.97
  L 946.90 475.54
  L 946.59 495.67
  L 945.99 502.31
  L 945.81 505.20
  L 945.84 508.97
  L 945.62 511.34
  L 944.98 515.41
  L 944.84 519.71
  L 944.69 521.44
  L 943.91 525.39
  L 943.85 526.15
  L 943.72 530.04
  L 943.00 533.45
  L 942.89 534.70
  L 942.80 536.56
  L 941.26 547.59
  L 939.12 560.21
  L 935.70 577.28
  L 931.72 593.97
  L 927.18 610.27
  L 922.08 626.18
  L 921.82 627.59
  L 921.72 628.17
  L 921.46 628.57
  L 921.25 628.70
  L 920.93 629.02
  L 920.91 629.47
  Z
  M 686.59 275.14
  L 686.70 265.57
  L 686.51 254.25
  L 686.35 252.44
  L 685.96 250.64
  L 685.39 248.99
  L 684.62 247.43
  L 683.72 246.11
  L 682.65 244.94
  L 681.48 244.02
  L 680.16 243.29
  L 678.94 242.85
  L 678.78 242.83
  L 644.26 242.83
  L 643.35 243.05
  L 641.64 244.15
  L 640.22 245.50
  L 640.22 245.50
  L 639.39 246.63
  L 638.28 248.82
  L 637.71 251.01
  L 637.32 256.27
  L 637.34 265.23
  L 637.41 274.81
  L 637.31 275.34
  L 637.01 275.79
  L 636.56 276.08
  L 636.04 276.19
  L 636.04 276.19
  L 593.97 276.18
  L 585.23 276.18
  L 577.76 276.41
  L 571.56 276.85
  L 566.62 277.52
  L 559.64 279.00
  L 552.94 280.83
  L 546.54 283.01
  L 540.43 285.54
  L 534.95 288.44
  L 529.66 291.65
  L 524.57 294.97
  L 519.77 298.57
  L 515.25 302.44
  L 511.01 306.57
  L 511.01 306.57
  L 511.01 306.57
  L 506.71 311.40
  L 502.74 316.55
  L 499.11 322.02
  L 495.82 327.82
  L 492.66 334.12
  L 490.89 338.27
  L 488.81 345.00
  L 486.70 353.19
  L 453.02 494.01
  L 441.11 544.04
  L 440.63 546.81
  L 440.31 547.40
  L 439.68 547.64
  L 417.34 547.64
  L 417.33 547.64
  L 416.56 547.30
  L 416.26 546.52
  L 416.45 543.20
  L 416.65 539.17
  L 416.79 463.93
  L 416.60 359.99
  L 416.46 223.86
  L 416.27 218.23
  L 415.67 214.69
  L 414.41 211.73
  L 413.20 209.81
  L 411.78 208.07
  L 410.08 206.48
  L 408.20 205.12
  L 406.16 204.00
  L 403.98 203.14
  L 401.71 202.55
  L 399.35 202.24
  L 396.67 202.26
  L 394.09 202.68
  L 390.85 203.85
  L 387.78 205.72
  L 385.48 207.77
  L 385.48 207.77
  L 385.48 207.77
  L 384.25 209.24
  L 383.17 210.85
  L 382.25 212.61
  L 381.49 214.52
  L 381.03 216.36
  L 380.78 218.61
  L 380.83 224.78
  L 380.87 225.75
  L 381.05 234.26
  L 381.20 509.36
  L 381.27 517.15
  L 381.33 528.54
  L 381.10 536.81
  L 380.91 537.60
  L 380.44 538.26
  L 379.76 538.70
  L 378.96 538.85
  L 153.74 538.83
  L 148.93 539.15
  L 147.05 539.56
  L 145.52 540.14
  L 143.41 541.38
  L 141.58 542.90
  L 141.58 542.90
  L 140.34 544.29
  L 139.27 545.85
  L 138.36 547.58
  L 137.63 549.48
  L 137.35 550.94
  L 137.26 552.96
  L 137.69 558.70
  L 138.13 559.68
  L 139.42 561.86
  L 141.09 564.18
  L 141.68 564.81
  L 143.91 566.52
  L 146.63 567.74
  L 149.82 568.48
  L 153.49 568.72
  L 377.24 568.80
  L 378.64 569.01
  L 379.62 569.62
  L 379.62 569.62
  L 380.15 570.52
  L 380.33 571.76
  L 380.58 624.26
  L 380.74 624.81
  L 381.16 625.20
  L 382.31 625.62
  L 383.44 625.70
  L 384.39 625.48
  L 385.40 624.71
  L 390.53 618.15
  L 396.07 612.19
  L 402.02 606.83
  L 408.38 602.07
  L 408.38 602.07
  L 411.93 599.78
  L 415.60 597.66
  L 419.38 595.71
  L 423.28 593.94
  L 427.29 592.33
  L 431.42 590.89
  L 440.03 588.53
  L 447.15 587.32
  L 455.26 586.63
  L 463.82 586.67
  L 472.10 587.47
  L 476.14 588.17
  L 480.11 589.05
  L 484.01 590.13
  L 487.83 591.40
  L 487.83 591.40
  L 490.49 592.41
  L 495.62 594.64
  L 500.57 597.12
  L 505.41 599.90
  L 510.06 602.93
  L 514.52 606.22
  L 518.76 609.73
  L 522.77 613.46
  L 526.55 617.40
  L 530.10 621.56
  L 533.40 625.91
  L 536.43 630.44
  L 539.20 635.13
  L 541.66 639.94
  L 543.84 644.89
  L 545.74 649.97
  L 547.33 655.17
  L 549.13 663.05
  L 550.23 671.13
  L 550.62 679.25
  L 550.30 687.51
  L 550.39 688.30
  L 550.79 689.00
  L 551.43 689.48
  L 552.20 689.67
  L 552.20 689.67
  L 552.28 689.67
  L 667.46 689.67
  L 668.21 689.81
  L 668.86 690.22
  L 669.31 690.84
  L 669.50 691.58
  L 669.97 699.02
  L 670.02 699.25
  L 670.72 701.42
  L 670.88 703.54
  L 671.00 704.31
  L 675.58 717.03
  L 676.28 718.08
  L 676.68 718.40
  L 676.85 719.12
  L 677.04 719.83
  L 677.14 719.93
  L 677.70 720.62
  L 679.75 723.95
  L 681.96 727.14
  L 684.32 730.18
  L 686.85 733.07
  L 686.85 733.07
  L 686.85 733.07
  L 686.85 733.07
  L 691.52 737.68
  L 696.65 741.87
  L 699.28 743.73
  L 699.28 743.73
  L 704.97 747.19
  L 711.00 750.12
  L 717.39 752.54
  L 724.12 754.44
  L 728.48 755.19
  L 734.04 755.66
  L 740.36 755.75
  L 746.54 755.32
  L 752.56 754.38
  L 758.43 752.93
  L 758.43 752.93
  L 758.43 752.93
  L 763.45 751.24
  L 768.36 749.16
  L 773.15 746.68
  L 777.82 743.81
  L 782.69 740.21
  L 787.14 736.16
  L 791.24 731.61
  L 794.88 726.69
  L 798.12 721.30
  L 800.84 715.63
  L 803.03 709.72
  L 804.66 703.63
  L 805.25 700.17
  L 805.71 695.52
  L 806.41 689.50
  L 806.11 687.46
  L 805.93 685.96
  L 805.74 682.19
  L 805.29 678.50
  L 804.59 674.88
  L 803.65 671.34
  L 803.65 671.34
  L 803.65 671.34
  L 803.65 671.34
  L 803.65 671.34
  L 802.23 667.31
  L 800.47 663.38
  L 798.36 659.56
  L 795.92 655.84
  L 789.87 646.96
  L 785.76 640.05
  L 784.42 637.24
  L 783.26 634.28
  L 782.27 631.13
  L 781.42 627.69
  L 780.21 620.24
  L 779.70 612.25
  L 779.46 594.61
  L 779.42 575.23
  L 779.32 574.47
  L 779.03 572.79
  L 778.93 570.75
  L 778.74 501.49
  L 778.57 498.81
  L 778.08 496.36
  L 777.26 494.06
  L 776.15 491.99
  L 775.05 490.50
  L 773.77 489.15
  L 772.26 487.88
  L 770.57 486.77
  L 766.73 484.98
  L 762.15 483.72
  L 750.32 483.56
  L 725.79 483.58
  L 725.77 483.58
  L 724.87 483.41
  L 724.12 482.90
  L 723.61 482.14
  L 723.44 481.25
  L 723.43 461.00
  L 723.20 458.83
  L 722.97 456.64
  L 722.68 299.22
  L 722.58 295.02
  L 722.32 291.59
  L 721.88 288.93
  L 721.27 287.05
  L 719.83 284.49
  L 718.05 282.24
  L 718.05 282.24
  L 718.05 282.24
  L 716.49 280.76
  L 714.74 279.46
  L 712.79 278.34
  L 710.66 277.40
  L 707.03 276.33
  L 703.75 276.01
  L 694.67 276.06
  L 687.22 275.83
  L 686.77 275.61
  L 686.59 275.14
  Z
  M 346.2952 221.8203
  L 346.0150 218.9227
  L 345.1748 216.1355
  L 343.8070 213.5658
  L 341.9641 211.3122
  L 339.7170 209.4615
  L 337.1520 208.0847
  L 334.3678 207.2348
  L 331.4712 206.9444
  L 211.9314 206.7358
  L 209.0338 207.0161
  L 206.2465 207.8563
  L 203.6768 209.2241
  L 201.4232 211.0669
  L 199.5725 213.3140
  L 198.1958 215.8790
  L 197.3459 218.6633
  L 197.0555 221.5599
  L 196.8448 342.2797
  L 197.1250 345.1773
  L 197.9652 347.9645
  L 199.3330 350.5342
  L 201.1759 352.7878
  L 203.4230 354.6385
  L 205.9880 356.0153
  L 208.7722 356.8652
  L 211.6688 357.1556
  L 331.2086 357.3642
  L 334.1062 357.0839
  L 336.8935 356.2437
  L 339.4632 354.8759
  L 341.7168 353.0331
  L 343.5675 350.7860
  L 344.9442 348.2210
  L 345.7941 345.4367
  L 346.0845 342.5401
  L 346.2952 221.8203
  Z
  M 176.14 519.15
  L 176.94 520.35
  L 177.69 521.48
  L 178.44 522.13
  L 179.22 522.44
  L 180.25 522.55
  L 326.16 522.44
  L 337.88 522.52
  L 353.09 522.60
  L 364.03 522.43
  L 364.03 522.43
  L 364.69 522.28
  L 365.24 521.88
  L 365.60 521.31
  L 365.71 520.64
  L 365.30 502.76
  L 365.27 484.25
  L 365.28 456.25
  L 364.99 437.33
  L 364.77 403.12
  L 364.71 388.00
  L 364.58 385.87
  L 364.20 383.91
  L 363.57 382.09
  L 362.70 380.44
  L 362.70 380.44
  L 362.70 380.44
  L 362.70 380.44
  L 360.85 378.18
  L 358.40 376.30
  L 356.39 375.26
  L 354.30 374.55
  L 354.30 374.55
  L 354.30 374.55
  L 352.55 374.22
  L 350.75 374.11
  L 199.10 374.06
  L 192.48 373.90
  L 188.47 373.91
  L 185.88 374.38
  L 183.97 375.22
  L 182.26 376.22
  L 180.73 377.38
  L 179.38 378.72
  L 179.38 378.72
  L 179.38 378.72
  L 178.22 380.23
  L 177.24 381.92
  L 176.46 383.78
  L 175.87 385.81
  L 175.84 386.06
  L 175.86 518.35
  L 176.14 519.15
  Z
  M 409.29 740.06
  L 414.46 743.78
  L 419.81 746.97
  L 425.44 749.72
  L 431.21 751.93
  L 435.95 753.34
  L 440.75 754.42
  L 445.68 755.18
  L 450.62 755.60
  L 455.61 755.68
  L 460.58 755.42
  L 465.51 754.84
  L 470.39 753.92
  L 475.22 752.68
  L 479.96 751.11
  L 484.59 749.22
  L 489.10 747.03
  L 493.44 744.54
  L 497.62 741.74
  L 501.55 738.72
  L 505.29 735.41
  L 508.31 732.38
  L 511.18 729.15
  L 513.82 725.81
  L 516.28 722.28
  L 518.81 718.17
  L 521.04 713.96
  L 523.03 709.59
  L 524.72 705.15
  L 526.13 700.60
  L 527.24 696.00
  L 528.04 691.37
  L 528.55 686.73
  L 528.77 682.01
  L 528.68 677.30
  L 528.29 672.62
  L 527.60 667.98
  L 526.61 663.39
  L 525.33 658.87
  L 523.75 654.44
  L 521.88 650.10
  L 519.98 646.36
  L 517.85 642.71
  L 515.50 639.17
  L 512.93 635.74
  L 510.17 632.49
  L 507.19 629.36
  L 504.07 626.45
  L 500.75 623.68
  L 497.27 621.11
  L 493.71 618.77
  L 489.97 616.62
  L 486.15 614.70
  L 482.21 613.01
  L 478.22 611.56
  L 474.17 610.36
  L 470.08 609.40
  L 465.43 608.61
  L 460.74 608.12
  L 456.05 607.94
  L 451.36 608.07
  L 446.69 608.49
  L 442.05 609.22
  L 437.45 610.25
  L 432.91 611.57
  L 428.52 613.17
  L 424.22 615.05
  L 420.01 617.21
  L 415.92 619.66
  L 412.01 622.35
  L 408.23 625.31
  L 404.67 628.48
  L 401.27 631.91
  L 398.43 635.14
  L 395.80 638.49
  L 393.34 642.04
  L 391.11 645.69
  L 388.79 650.10
  L 386.78 654.64
  L 385.05 659.36
  L 383.66 664.17
  L 382.59 669.07
  L 381.85 674.01
  L 381.45 678.99
  L 381.38 683.98
  L 381.65 688.94
  L 382.24 693.87
  L 383.17 698.76
  L 384.43 703.58
  L 386.00 708.29
  L 387.91 712.90
  L 390.09 717.30
  L 392.58 721.58
  L 396.10 726.66
  L 400.09 731.48
  L 404.46 735.93
  L 409.29 740.06
  Z"
/>
<path d="
  M 279.89 229.11
  L 280.74 229.29
  L 281.57 230.02
  L 281.87 231.08
  L 281.95 274.84
  L 281.78 276.82
  L 281.25 278.72
  L 280.40 280.47
  L 279.25 282.00
  L 277.84 283.26
  L 276.24 284.20
  L 274.50 284.78
  L 272.69 284.98
  L 272.69 284.98
  L 271.33 284.98
  L 271.33 284.98
  L 269.52 284.79
  L 267.78 284.22
  L 266.17 283.28
  L 264.76 282.03
  L 263.60 280.50
  L 262.74 278.75
  L 262.21 276.85
  L 262.03 274.88
  L 261.95 231.12
  L 262.10 230.36
  L 262.53 229.72
  L 262.53 229.72
  L 263.17 229.29
  L 263.93 229.13
  L 279.89 229.11
  Z"
/>
<path d="
  M 688.34 311.69
  L 688.57 323.50
  L 688.73 481.00
  L 688.68 481.44
  L 688.68 481.44
  L 688.41 482.05
  L 687.92 482.60
  L 686.26 483.55
  L 685.97 483.60
  L 657.42 483.85
  L 656.96 483.90
  L 652.53 484.73
  L 648.77 485.22
  L 641.93 486.73
  L 635.33 488.70
  L 628.96 491.12
  L 622.82 493.99
  L 622.82 493.99
  L 617.00 497.27
  L 611.41 500.98
  L 606.92 504.42
  L 602.61 508.15
  L 598.47 512.19
  L 594.51 516.53
  L 590.46 521.39
  L 586.83 526.09
  L 583.61 530.65
  L 580.82 535.05
  L 578.84 538.18
  L 576.81 540.98
  L 574.74 543.46
  L 572.64 545.61
  L 571.07 546.83
  L 569.08 547.94
  L 566.67 548.93
  L 563.85 549.81
  L 563.63 549.84
  L 481.76 549.81
  L 479.11 549.46
  L 477.98 549.02
  L 476.98 548.41
  L 476.98 548.41
  L 475.93 547.43
  L 475.37 546.42
  L 475.38 545.00
  L 479.99 526.55
  L 519.18 362.72
  L 520.65 357.49
  L 522.51 352.44
  L 525.59 346.01
  L 529.30 339.98
  L 533.66 334.32
  L 538.59 329.16
  L 544.03 324.53
  L 549.95 320.49
  L 556.20 317.11
  L 562.83 314.38
  L 567.80 313.06
  L 574.72 311.88
  L 580.62 311.30
  L 586.83 311.15
  L 633.02 311.36
  L 687.70 311.10
  L 688.14 311.27
  L 688.34 311.69
  Z"
/>
<path d="
  M 280.22 401.17
  L 280.84 401.29
  L 281.37 401.64
  L 281.73 402.17
  L 281.85 402.79
  L 281.93 447.78
  L 281.74 449.86
  L 281.17 451.86
  L 280.23 453.71
  L 278.98 455.33
  L 277.44 456.65
  L 275.70 457.64
  L 273.80 458.25
  L 271.82 458.46
  L 271.82 458.46
  L 271.80 458.46
  L 271.80 458.46
  L 269.82 458.26
  L 267.92 457.66
  L 266.17 456.67
  L 264.63 455.35
  L 263.37 453.74
  L 262.43 451.90
  L 261.85 449.90
  L 261.65 447.82
  L 261.57 402.83
  L 261.70 402.20
  L 262.05 401.67
  L 262.58 401.32
  L 263.20 401.19
  L 280.22 401.17
  Z"
/>
<ellipse cx="0.00" cy="0.00" transform="translate(455.23,682.15) rotate(-80.0)" rx="38.24" ry="37.86"/>
<circle cx="738.39" cy="691.66" r="26.73"/>
</g>
</svg>
