<?xml version="1.0" encoding="UTF-8" standalone="no"?>
<!DOCTYPE svg PUBLIC "-//W3C//DTD SVG 1.1//EN" "http://www.w3.org/Graphics/SVG/1.1/DTD/svg11.dtd">
<svg xmlns="http://www.w3.org/2000/svg" version="1.1" viewBox="0.00 0.00 984.00 984.00" width="984.00" height="984.00">
<g stroke-width="2.00" fill="none" stroke-linecap="butt">
<path stroke="#80f1c2" vector-effect="non-scaling-stroke" d="
  M 291.0155 305.7870
  L 290.5753 308.5204
  L 290.6883 311.2914
  L 291.3502 313.9936
  L 292.5354 316.5231
  L 294.1985 318.7828
  L 296.2755 320.6856
  L 298.6867 322.1587
  L 301.3393 323.1452
  L 304.1314 323.6074
  L 306.9558 323.5275
  L 309.7039 322.9084
  L 312.2700 321.7741
  L 314.5556 320.1681
  L 316.4728 318.1522
  L 317.9480 315.8037
  L 318.9245 313.2130
  L 319.3647 310.4796
  L 319.2517 307.7086
  L 318.5898 305.0064
  L 317.4046 302.4769
  L 315.7415 300.2172
  L 313.6645 298.3144
  L 311.2533 296.8413
  L 308.6007 295.8548
  L 305.8086 295.3926
  L 302.9842 295.4725
  L 300.2361 296.0916
  L 297.6700 297.2259
  L 295.3844 298.8319
  L 293.4672 300.8478
  L 291.9920 303.1963
  L 291.0155 305.7870"
/>
<path stroke="#80f1c2" vector-effect="non-scaling-stroke" d="
  M 277.57 600.36
  L 271.92 600.91
  L 266.50 601.83
  L 261.31 603.12
  L 256.36 604.77
  L 251.88 606.61
  L 247.61 608.63
  L 243.57 610.85
  L 239.74 613.25
  L 236.12 615.84
  L 232.72 618.63
  L 229.54 621.60
  L 226.57 624.76
  L 226.57 624.76
  L 226.57 624.76
  L 224.20 627.63
  L 221.98 630.64
  L 219.93 633.78
  L 218.03 637.07
  L 216.30 640.49
  L 214.72 644.05
  L 212.04 651.60
  L 210.97 655.67
  L 210.14 659.92
  L 209.57 664.28
  L 209.27 668.69
  L 209.25 673.03
  L 209.50 677.29
  L 210.01 681.32
  L 210.81 685.17
  L 212.17 690.06
  L 213.75 694.74
  L 215.55 699.23
  L 217.58 703.51
  L 219.84 707.60
  L 222.32 711.48
  L 225.02 715.16
  L 227.94 718.63
  L 227.94 718.63
  L 227.94 718.63
  L 230.92 721.74
  L 234.10 724.67
  L 237.47 727.41
  L 241.05 729.98
  L 244.83 732.36
  L 248.81 734.57
  L 253.00 736.59
  L 257.38 738.43
  L 261.55 739.90
  L 261.55 739.90
  L 261.55 739.90
  L 267.55 741.47
  L 273.73 742.47
  L 280.10 742.91
  L 286.64 742.77
  L 293.14 742.08
  L 299.40 740.84
  L 305.40 739.06
  L 311.16 736.74
  L 311.16 736.74
  L 315.11 734.76
  L 319.22 732.37
  L 323.11 729.84
  L 326.78 727.14
  L 330.23 724.30
  L 333.45 721.30
  L 336.46 718.15
  L 339.24 714.84
  L 341.79 711.38
  L 341.79 711.38
  L 344.26 707.56
  L 346.47 703.57
  L 348.43 699.41
  L 350.15 695.07
  L 351.62 690.57
  L 352.84 685.89
  L 353.82 681.04
  L 354.54 676.02
  L 354.85 672.09
  L 354.85 668.03
  L 354.56 663.77
  L 353.98 659.48
  L 353.12 655.14
  L 352.00 650.88
  L 350.65 646.78
  L 349.07 642.87
  L 345.45 635.73
  L 343.44 632.39
  L 341.28 629.22
  L 338.98 626.20
  L 336.54 623.34
  L 333.96 620.64
  L 331.25 618.10
  L 331.25 618.10
  L 331.25 618.10
  L 331.25 618.10
  L 327.90 615.34
  L 324.37 612.79
  L 320.64 610.46
  L 316.73 608.35
  L 312.62 606.45
  L 308.33 604.77
  L 303.84 603.30
  L 299.17 602.04
  L 294.04 601.03
  L 288.73 600.42
  L 283.24 600.19
  L 277.57 600.36"
/>
<path stroke="#80f1c2" vector-effect="non-scaling-stroke" d="
  M 529.2904 611.0414
  L 523.9338 611.6637
  L 518.6640 612.8106
  L 513.5319 614.4711
  L 508.5867 616.6292
  L 503.8762 619.2641
  L 499.4457 622.3504
  L 495.3378 625.8585
  L 491.5921 629.7545
  L 488.2448 634.0009
  L 485.3280 638.5569
  L 482.8698 643.3784
  L 480.8939 648.4192
  L 479.4194 653.6307
  L 478.4604 658.9626
  L 478.0261 664.3636
  L 478.1208 669.7818
  L 478.7435 675.1648
  L 479.8883 680.4610
  L 481.5441 685.6192
  L 483.6949 690.5899
  L 486.3201 695.3250
  L 489.3944 699.7791
  L 492.8881 703.9093
  L 496.7677 707.6757
  L 500.9957 711.0421
  L 505.5314 713.9761
  L 510.3312 716.4493
  L 515.3488 718.4381
  L 520.5360 719.9232
  L 525.8427 720.8904
  L 531.2178 721.3302
  L 536.6096 721.2386
  L 536.6096 721.2386
  L 541.9662 720.6163
  L 547.2360 719.4694
  L 552.3681 717.8089
  L 557.3133 715.6508
  L 562.0238 713.0159
  L 566.4543 709.9296
  L 570.5622 706.4215
  L 574.3079 702.5255
  L 577.6552 698.2791
  L 580.5720 693.7231
  L 583.0302 688.9016
  L 585.0061 683.8608
  L 586.4806 678.6493
  L 587.4396 673.3174
  L 587.8739 667.9164
  L 587.7792 662.4982
  L 587.1565 657.1152
  L 586.0117 651.8190
  L 584.3559 646.6608
  L 582.2051 641.6901
  L 579.5799 636.9550
  L 576.5056 632.5009
  L 573.0119 628.3707
  L 569.1323 624.6043
  L 564.9043 621.2379
  L 560.3686 618.3039
  L 555.5688 615.8307
  L 550.5512 613.8419
  L 545.3640 612.3568
  L 540.0573 611.3896
  L 534.6822 610.9498
  L 529.2904 611.0414"
/>
<path stroke="#80f1c2" vector-effect="non-scaling-stroke" d="
  M 757.5266 613.5927
  L 752.2886 612.0930
  L 746.9281 611.1156
  L 741.4967 610.6702
  L 736.0467 610.7608
  L 730.6307 611.3867
  L 725.3008 612.5419
  L 720.1083 614.2151
  L 715.1032 616.3903
  L 710.3337 619.0466
  L 705.8458 622.1584
  L 701.6827 625.6956
  L 697.8845 629.6243
  L 694.4877 633.9065
  L 691.5251 638.5011
  L 689.0252 643.3638
  L 687.0120 648.4478
  L 685.5051 653.7041
  L 684.5188 659.0821
  L 684.0626 664.5300
  L 684.1411 669.9953
  L 684.7533 675.4254
  L 685.8935 680.7680
  L 687.5506 685.9717
  L 689.7086 690.9863
  L 692.3469 695.7635
  L 695.4400 700.2574
  L 698.9580 704.4246
  L 702.8672 708.2251
  L 707.1298 711.6222
  L 711.7048 714.5832
  L 716.5482 717.0796
  L 721.6134 719.0873
  L 721.6134 719.0873
  L 726.8514 720.5870
  L 732.2119 721.5644
  L 737.6433 722.0098
  L 743.0933 721.9192
  L 748.5093 721.2933
  L 753.8392 720.1381
  L 759.0317 718.4649
  L 764.0368 716.2897
  L 768.8063 713.6334
  L 773.2942 710.5216
  L 777.4573 706.9844
  L 781.2555 703.0557
  L 784.6523 698.7735
  L 787.6149 694.1789
  L 790.1148 689.3162
  L 792.1280 684.2322
  L 793.6349 678.9759
  L 794.6212 673.5979
  L 795.0774 668.1500
  L 794.9989 662.6847
  L 794.3867 657.2546
  L 793.2465 651.9120
  L 791.5894 646.7083
  L 789.4314 641.6937
  L 786.7931 636.9165
  L 783.7000 632.4226
  L 780.1820 628.2554
  L 776.2728 624.4549
  L 772.0102 621.0578
  L 767.4352 618.0968
  L 762.5918 615.6004
  L 757.5266 613.5927"
/>
<path stroke="#80f1c2" vector-effect="non-scaling-stroke" d="
  M 619.5210 653.1511
  L 617.3556 652.5653
  L 615.1129 652.4228
  L 612.8788 652.7290
  L 610.7393 653.4722
  L 608.7767 654.6238
  L 607.0662 656.1396
  L 605.6737 657.9613
  L 604.6527 660.0189
  L 604.0424 662.2334
  L 603.8662 664.5195
  L 604.1310 666.7896
  L 604.8265 668.9563
  L 605.9261 670.9363
  L 607.3874 672.6537
  L 609.1544 674.0423
  L 611.1590 675.0489
  L 613.3244 675.6347
  L 615.5671 675.7772
  L 617.8012 675.4710
  L 619.9407 674.7278
  L 621.9033 673.5762
  L 623.6138 672.0604
  L 625.0063 670.2387
  L 626.0273 668.1811
  L 626.6376 665.9666
  L 626.8138 663.6805
  L 626.5490 661.4104
  L 625.8535 659.2437
  L 624.7539 657.2637
  L 623.2926 655.5463
  L 621.5256 654.1577
  L 619.5210 653.1511"
/>
<path stroke="#80f1c2" vector-effect="non-scaling-stroke" d="
  M 660.1603 652.7882
  L 657.9737 652.3533
  L 655.7405 652.3626
  L 653.5464 652.8157
  L 651.4759 653.6951
  L 649.6084 654.9670
  L 648.0157 656.5826
  L 646.7591 658.4798
  L 645.8868 660.5857
  L 645.4324 662.8194
  L 645.4133 665.0949
  L 645.8302 667.3249
  L 646.6671 669.4237
  L 647.8920 671.3106
  L 649.4576 672.9131
  L 651.3038 674.1696
  L 653.3597 675.0318
  L 655.5463 675.4667
  L 657.7795 675.4574
  L 659.9736 675.0043
  L 662.0441 674.1249
  L 663.9116 672.8530
  L 665.5043 671.2374
  L 666.7609 669.3402
  L 667.6332 667.2343
  L 668.0876 665.0006
  L 668.1067 662.7251
  L 667.6898 660.4951
  L 666.8529 658.3963
  L 665.6280 656.5094
  L 664.0624 654.9069
  L 662.2162 653.6504
  L 660.1603 652.7882"
/>
<path stroke="#80f1c2" vector-effect="non-scaling-stroke" d="
  M 462.05 664.08
  L 461.83 661.82
  L 461.17 659.66
  L 460.10 657.66
  L 458.66 655.91
  L 456.91 654.47
  L 454.91 653.40
  L 452.75 652.74
  L 450.49 652.52
  L 448.23 652.74
  L 446.07 653.40
  L 444.07 654.47
  L 442.32 655.91
  L 440.88 657.66
  L 439.81 659.66
  L 439.15 661.82
  L 438.93 664.08
  L 439.15 666.34
  L 439.81 668.50
  L 440.88 670.50
  L 442.32 672.25
  L 444.07 673.69
  L 446.07 674.76
  L 448.23 675.42
  L 450.49 675.64
  L 452.75 675.42
  L 454.91 674.76
  L 456.91 673.69
  L 458.66 672.25
  L 460.10 670.50
  L 461.17 668.50
  L 461.83 666.34
  L 462.05 664.08"
/>
<path stroke="#80f1c2" vector-effect="non-scaling-stroke" d="
  M 283.01 722.06
  L 286.86 721.85
  L 290.64 721.37
  L 294.33 720.62
  L 297.93 719.60
  L 301.48 718.32
  L 304.90 716.77
  L 308.18 714.98
  L 311.32 712.95
  L 316.03 709.21
  L 320.28 704.91
  L 323.97 700.15
  L 327.11 694.91
  L 329.70 689.16
  L 331.57 683.22
  L 332.72 677.15
  L 333.13 671.04
  L 332.81 664.98
  L 331.73 659.02
  L 329.95 653.34
  L 327.42 647.87
  L 325.29 644.35
  L 322.82 640.97
  L 319.35 637.05
  L 315.63 633.59
  L 311.67 630.58
  L 307.47 628.02
  L 304.53 626.56
  L 301.49 625.31
  L 298.35 624.25
  L 295.12 623.40
  L 291.80 622.76
  L 288.38 622.31
  L 284.89 622.07
  L 281.31 622.03
  L 277.73 622.19
  L 274.24 622.55
  L 270.85 623.11
  L 267.55 623.87
  L 264.35 624.83
  L 261.25 625.99
  L 258.25 627.35
  L 255.36 628.91
  L 251.25 631.60
  L 247.39 634.74
  L 243.79 638.33
  L 240.46 642.37
  L 238.11 645.83
  L 236.10 649.42
  L 233.76 654.97
  L 232.17 660.71
  L 231.30 666.71
  L 231.18 672.77
  L 231.80 678.87
  L 233.15 684.89
  L 235.23 690.77
  L 238.00 696.42
  L 241.33 701.56
  L 245.17 706.19
  L 249.56 710.34
  L 254.40 713.92
  L 257.60 715.84
  L 260.95 717.52
  L 264.42 718.95
  L 268.01 720.11
  L 271.64 721.00
  L 275.36 721.63
  L 279.15 721.99
  L 283.01 722.06"
/>
<path stroke="#80f1c2" vector-effect="non-scaling-stroke" d="
  M 535.0467 633.6113
  L 531.8681 633.5755
  L 528.7009 633.8560
  L 525.5755 634.4500
  L 522.5219 635.3520
  L 519.5697 636.5532
  L 516.7471 638.0420
  L 514.0815 639.8041
  L 511.5985 641.8225
  L 509.3219 644.0779
  L 507.2738 646.5484
  L 505.4738 649.2102
  L 503.9393 652.0378
  L 502.6850 655.0039
  L 501.7231 658.0800
  L 501.0628 661.2363
  L 500.7104 664.4426
  L 500.6694 667.6680
  L 500.9401 670.8813
  L 501.5200 674.0516
  L 502.4034 677.1485
  L 503.5819 680.1420
  L 505.0441 683.0034
  L 506.7759 685.7051
  L 508.7606 688.2210
  L 510.9792 690.5270
  L 513.4102 692.6009
  L 516.0302 694.4226
  L 518.8141 695.9746
  L 521.7350 697.2420
  L 524.7647 698.2125
  L 527.8741 698.8769
  L 531.0333 699.2287
  L 531.0333 699.2287
  L 534.2119 699.2645
  L 537.3791 698.9840
  L 540.5045 698.3900
  L 543.5581 697.4880
  L 546.5103 696.2868
  L 549.3329 694.7980
  L 551.9985 693.0359
  L 554.4815 691.0175
  L 556.7581 688.7621
  L 558.8062 686.2916
  L 560.6062 683.6298
  L 562.1407 680.8022
  L 563.3950 677.8361
  L 564.3569 674.7600
  L 565.0172 671.6037
  L 565.3696 668.3974
  L 565.4106 665.1720
  L 565.1399 661.9587
  L 564.5600 658.7884
  L 563.6766 655.6915
  L 562.4981 652.6980
  L 561.0359 649.8366
  L 559.3041 647.1349
  L 557.3194 644.6190
  L 555.1008 642.3130
  L 552.6698 640.2391
  L 550.0498 638.4174
  L 547.2659 636.8654
  L 544.3450 635.5980
  L 541.3153 634.6275
  L 538.2059 633.9631
  L 535.0467 633.6113"
/>
<path stroke="#80f1c2" vector-effect="non-scaling-stroke" d="
  M 735.8187 633.8582
  L 732.6519 634.4010
  L 729.5536 635.2530
  L 726.5538 636.4060
  L 723.6812 637.8489
  L 720.9635 639.5678
  L 718.4270 641.5462
  L 716.0960 643.7651
  L 713.9930 646.2029
  L 712.1383 648.8364
  L 710.5496 651.6400
  L 709.2424 654.5869
  L 708.2292 657.6486
  L 707.5197 660.7956
  L 707.1208 663.9977
  L 707.0363 667.2239
  L 707.2671 670.4433
  L 707.8109 673.6248
  L 708.6625 676.7378
  L 709.8137 679.7522
  L 711.2534 682.6392
  L 712.9677 685.3708
  L 714.9401 687.9208
  L 717.1516 690.2645
  L 719.5810 692.3796
  L 722.2048 694.2454
  L 724.9978 695.8442
  L 727.9330 697.1604
  L 730.9822 698.1815
  L 734.1161 698.8976
  L 737.3044 699.3017
  L 740.5164 699.3901
  L 743.7213 699.1618
  L 743.7213 699.1618
  L 746.8881 698.6190
  L 749.9864 697.7670
  L 752.9862 696.6140
  L 755.8588 695.1711
  L 758.5765 693.4522
  L 761.1130 691.4738
  L 763.4440 689.2549
  L 765.5470 686.8171
  L 767.4017 684.1836
  L 768.9904 681.3800
  L 770.2976 678.4331
  L 771.3108 675.3714
  L 772.0203 672.2244
  L 772.4192 669.0223
  L 772.5037 665.7961
  L 772.2729 662.5767
  L 771.7291 659.3952
  L 770.8775 656.2822
  L 769.7263 653.2678
  L 768.2866 650.3808
  L 766.5723 647.6492
  L 764.5999 645.0992
  L 762.3884 642.7555
  L 759.9590 640.6404
  L 757.3352 638.7746
  L 754.5422 637.1758
  L 751.6070 635.8596
  L 748.5578 634.8385
  L 745.4239 634.1224
  L 742.2356 633.7183
  L 739.0236 633.6299
  L 735.8187 633.8582"
/>
</g>
<g fill="#00e284">
<path d="
  M 322.77 31.09
  L 329.79 28.32
  L 331.20 28.12
  L 331.20 28.12
  L 331.78 28.04
  L 332.23 27.68
  L 332.53 27.47
  L 350.45 21.69
  L 361.49 18.44
  L 372.89 15.42
  L 384.65 12.62
  L 396.77 10.05
  L 405.04 8.50
  L 409.16 7.95
  L 409.92 7.67
  L 410.88 7.31
  L 412.81 7.09
  L 415.30 6.75
  L 418.21 6.19
  L 421.65 6.15
  L 422.43 6.01
  L 423.35 5.60
  L 423.43 5.58
  L 441.44 3.43
  L 445.19 3.17
  L 448.49 2.99
  L 450.91 2.45
  L 452.75 2.16
  L 457.12 2.12
  L 463.12 1.68
  L 470.82 1.20
  L 493.81 1.00
  L 514.98 1.18
  L 522.73 1.66
  L 528.71 2.08
  L 533.00 2.16
  L 534.51 2.28
  L 540.28 3.11
  L 545.06 3.36
  L 547.93 3.92
  L 549.36 4.14
  L 552.96 4.25
  L 556.85 4.97
  L 558.13 5.14
  L 561.55 5.38
  L 563.35 5.89
  L 566.03 6.20
  L 569.16 6.59
  L 574.58 7.63
  L 585.50 9.55
  L 596.27 11.68
  L 606.89 14.01
  L 617.35 16.54
  L 627.65 19.27
  L 637.80 22.20
  L 647.80 25.33
  L 657.64 28.67
  L 670.50 33.45
  L 683.23 38.47
  L 693.58 43.01
  L 703.75 47.73
  L 713.72 52.61
  L 723.51 57.66
  L 733.10 62.87
  L 742.50 68.26
  L 751.72 73.81
  L 760.74 79.53
  L 771.26 86.57
  L 781.64 93.92
  L 791.86 101.56
  L 801.94 109.51
  L 811.86 117.77
  L 821.63 126.32
  L 831.25 135.18
  L 840.72 144.34
  L 846.68 150.48
  L 853.48 157.92
  L 866.06 172.10
  L 878.28 186.39
  L 885.99 196.24
  L 897.56 212.20
  L 907.08 226.19
  L 916.22 240.86
  L 924.97 256.19
  L 933.34 272.19
  L 939.49 284.89
  L 944.84 296.83
  L 950.15 309.75
  L 955.06 322.79
  L 959.58 335.94
  L 963.71 349.21
  L 963.71 349.21
  L 963.71 349.21
  L 966.43 358.84
  L 968.96 368.54
  L 971.28 378.29
  L 973.39 388.10
  L 973.95 391.50
  L 974.16 392.33
  L 974.77 393.93
  L 974.84 395.88
  L 974.91 396.45
  L 975.20 396.94
  L 975.50 397.67
  L 979.48 423.77
  L 982.30 447.93
  L 982.79 454.07
  L 982.95 460.08
  L 983.30 467.96
  L 983.69 476.31
  L 983.66 508.72
  L 983.13 521.76
  L 982.65 534.82
  L 982.51 536.33
  L 982.09 537.61
  L 981.88 538.53
  L 981.83 543.30
  L 981.65 545.88
  L 981.01 550.38
  L 980.59 554.95
  L 980.40 556.04
  L 980.03 557.81
  L 979.83 560.10
  L 979.56 562.94
  L 978.38 570.43
  L 976.34 582.23
  L 974.04 593.94
  L 971.48 605.56
  L 968.67 617.08
  L 965.61 628.52
  L 962.29 639.86
  L 958.71 651.12
  L 954.88 662.28
  L 949.24 677.23
  L 942.84 692.55
  L 935.12 709.40
  L 927.24 724.98
  L 921.30 735.78
  L 915.05 746.46
  L 908.51 757.02
  L 901.67 767.45
  L 894.53 777.75
  L 887.09 787.93
  L 879.35 797.98
  L 871.31 807.91
  L 859.89 820.91
  L 853.46 828.11
  L 846.20 836.08
  L 835.08 847.25
  L 827.87 854.12
  L 811.32 868.81
  L 801.10 877.18
  L 784.06 890.38
  L 781.74 891.87
  L 780.11 893.12
  L 778.86 894.17
  L 767.90 901.55
  L 756.95 908.58
  L 746.00 915.25
  L 735.06 921.58
  L 724.13 927.55
  L 713.20 933.18
  L 702.28 938.45
  L 691.36 943.37
  L 676.60 949.51
  L 661.69 955.14
  L 646.64 960.26
  L 631.45 964.88
  L 615.26 969.20
  L 598.91 972.96
  L 582.40 976.15
  L 565.73 978.78
  L 555.19 980.18
  L 549.24 980.78
  L 546.77 980.88
  L 545.59 980.99
  L 540.44 981.78
  L 535.08 981.84
  L 534.03 981.97
  L 531.30 982.53
  L 527.75 982.75
  L 516.07 983.15
  L 507.06 983.62
  L 497.89 983.89
  L 489.94 983.91
  L 483.75 983.68
  L 473.03 983.08
  L 464.27 982.87
  L 459.26 982.59
  L 456.87 982.28
  L 452.56 981.87
  L 447.42 981.68
  L 442.76 980.99
  L 441.28 980.85
  L 437.40 980.70
  L 433.94 980.03
  L 432.75 979.89
  L 429.00 979.65
  L 413.51 977.35
  L 398.75 974.76
  L 388.88 972.78
  L 379.08 970.59
  L 369.36 968.21
  L 359.72 965.63
  L 350.14 962.84
  L 340.65 959.86
  L 331.22 956.68
  L 321.88 953.30
  L 321.88 953.30
  L 321.88 953.30
  L 304.34 946.33
  L 287.07 938.65
  L 270.07 930.24
  L 253.34 921.12
  L 240.09 913.34
  L 227.03 905.22
  L 220.71 901.12
  L 220.71 901.12
  L 220.71 901.12
  L 204.44 889.89
  L 188.61 878.01
  L 173.22 865.45
  L 158.27 852.23
  L 146.93 841.45
  L 135.94 830.28
  L 125.29 818.73
  L 114.98 806.80
  L 107.33 797.43
  L 99.92 787.93
  L 92.76 778.29
  L 85.85 768.52
  L 79.18 758.61
  L 72.76 748.57
  L 66.59 738.40
  L 60.67 728.09
  L 54.06 715.76
  L 47.72 702.88
  L 41.65 689.45
  L 35.85 675.47
  L 29.82 659.55
  L 24.30 643.43
  L 19.29 627.09
  L 14.80 610.54
  L 12.30 599.98
  L 10.05 588.99
  L 7.76 576.32
  L 6.36 567.17
  L 4.30 551.23
  L 3.89 548.47
  L 3.33 543.87
  L 3.14 538.26
  L 2.91 536.76
  L 2.33 533.18
  L 2.11 527.26
  L 1.68 522.58
  L 1.18 516.89
  L 0.95 497.75
  L 0.97 482.58
  L 1.48 467.59
  L 2.48 452.78
  L 3.97 438.15
  L 4.22 435.34
  L 4.40 433.16
  L 4.80 431.90
  L 5.04 431.02
  L 6.09 422.12
  L 8.09 409.17
  L 10.44 396.30
  L 13.15 383.53
  L 16.21 370.85
  L 16.21 370.85
  L 16.21 370.85
  L 16.21 370.85
  L 19.45 358.86
  L 23.02 346.95
  L 26.92 335.12
  L 31.13 323.38
  L 36.21 310.27
  L 41.59 297.31
  L 49.30 280.27
  L 57.77 263.41
  L 66.99 246.72
  L 76.97 230.21
  L 84.87 217.88
  L 98.99 198.20
  L 104.74 190.64
  L 109.62 184.60
  L 118.49 173.98
  L 123.34 168.32
  L 123.46 168.20
  L 126.69 164.48
  L 129.86 160.85
  L 138.15 152.17
  L 146.15 143.81
  L 159.83 130.80
  L 172.53 119.28
  L 180.69 112.45
  L 193.78 102.04
  L 206.46 92.46
  L 219.41 83.41
  L 232.64 74.89
  L 246.14 66.90
  L 256.29 61.27
  L 266.17 56.02
  L 275.79 51.14
  L 285.14 46.64
  L 300.25 39.92
  L 315.94 33.63
  L 317.19 33.16
  L 319.32 32.38
  L 321.58 31.55
  L 322.77 31.09
  Z
  M 339.26 779.25
  L 339.77 779.15
  L 340.26 779.18
  L 340.68 779.43
  L 343.87 782.45
  L 348.28 786.24
  L 350.91 788.47
  L 354.25 790.94
  L 358.05 792.99
  L 358.74 793.14
  L 364.81 793.14
  L 365.73 792.93
  L 369.93 790.76
  L 372.05 789.29
  L 380.96 780.26
  L 384.88 776.12
  L 389.31 771.43
  L 390.10 770.52
  L 393.41 766.41
  L 397.37 762.45
  L 397.72 762.31
  L 756.57 762.16
  L 757.55 761.97
  L 758.83 761.54
  L 758.83 761.54
  L 760.38 761.25
  L 762.00 761.19
  L 764.02 761.10
  L 766.68 760.70
  L 775.92 758.61
  L 780.38 757.30
  L 784.74 755.81
  L 788.99 754.14
  L 793.14 752.29
  L 797.18 750.27
  L 801.12 748.07
  L 801.12 748.07
  L 801.12 748.07
  L 802.51 747.24
  L 807.85 743.72
  L 814.51 738.50
  L 820.71 732.64
  L 826.45 726.14
  L 831.74 718.99
  L 835.31 713.28
  L 838.45 707.35
  L 838.45 707.35
  L 841.53 700.20
  L 844.01 692.75
  L 845.89 685.02
  L 847.17 677.00
  L 847.69 671.89
  L 847.96 667.41
  L 847.97 663.45
  L 847.72 660.07
  L 846.70 652.26
  L 845.64 646.11
  L 844.17 640.14
  L 842.30 634.36
  L 840.03 628.76
  L 840.03 628.76
  L 840.03 628.76
  L 840.03 628.76
  L 840.03 628.76
  L 837.59 623.78
  L 834.80 618.96
  L 831.68 614.29
  L 828.22 609.77
  L 824.29 605.26
  L 820.15 601.04
  L 815.78 597.13
  L 811.19 593.52
  L 810.92 593.32
  L 805.96 589.94
  L 800.81 586.92
  L 794.11 583.64
  L 787.10 580.90
  L 779.80 578.72
  L 772.20 577.08
  L 770.35 576.83
  L 768.15 576.53
  L 766.35 576.09
  L 766.31 576.08
  L 764.63 575.82
  L 395.51 575.51
  L 394.97 575.29
  L 391.42 571.77
  L 386.60 567.04
  L 382.75 563.56
  L 381.53 562.54
  L 372.83 555.28
  L 372.06 554.76
  L 369.18 553.37
  L 366.81 552.54
  L 364.49 552.05
  L 362.23 551.88
  L 360.01 552.05
  L 360.01 552.05
  L 360.01 552.05
  L 360.01 552.05
  L 357.98 552.50
  L 355.99 553.25
  L 354.05 554.29
  L 352.15 555.62
  L 342.72 563.35
  L 341.82 563.81
  L 339.40 563.87
  L 338.18 563.64
  L 337.33 563.30
  L 335.34 562.66
  L 334.62 562.45
  L 325.37 558.67
  L 322.18 557.56
  L 319.95 556.97
  L 318.35 556.46
  L 317.07 555.60
  L 316.26 554.65
  L 316.10 553.79
  L 316.13 552.61
  L 315.95 552.01
  L 315.25 549.30
  L 315.13 545.56
  L 314.89 544.14
  L 314.47 542.75
  L 314.21 541.10
  L 314.17 539.40
  L 314.10 538.83
  L 313.35 536.54
  L 312.75 535.25
  L 310.39 532.28
  L 307.68 529.76
  L 307.68 529.76
  L 307.68 529.76
  L 305.63 528.31
  L 303.41 527.06
  L 302.60 526.84
  L 300.80 526.58
  L 299.19 526.05
  L 298.32 525.87
  L 263.33 525.87
  L 262.45 526.01
  L 259.12 527.34
  L 256.25 528.88
  L 253.86 530.63
  L 251.93 532.60
  L 250.35 535.00
  L 249.40 537.56
  L 249.15 538.99
  L 248.54 543.09
  L 247.99 546.76
  L 247.84 549.74
  L 247.88 550.74
  L 247.76 551.50
  L 247.29 552.45
  L 246.86 553.57
  L 246.76 554.26
  L 246.40 554.91
  L 245.81 555.45
  L 245.06 555.82
  L 235.43 559.27
  L 226.77 562.81
  L 225.86 563.04
  L 224.92 562.95
  L 224.07 562.56
  L 223.39 561.90
  L 222.39 560.90
  L 220.53 559.46
  L 220.46 559.40
  L 217.04 556.11
  L 214.17 553.31
  L 211.96 551.41
  L 209.97 550.03
  L 208.11 549.11
  L 206.02 548.42
  L 203.99 548.00
  L 202.03 547.82
  L 200.13 547.91
  L 200.09 547.91
  L 199.54 547.72
  L 199.31 547.18
  L 199.31 513.55
  L 199.31 513.55
  L 199.46 513.21
  L 199.80 513.07
  L 227.71 513.46
  L 255.37 513.43
  L 306.98 513.15
  L 377.44 513.13
  L 398.68 513.14
  L 398.94 513.25
  L 399.05 513.50
  L 399.05 552.50
  L 399.16 553.13
  L 399.49 553.68
  L 399.98 554.09
  L 400.59 554.30
  L 405.25 554.71
  L 810.41 554.89
  L 812.38 555.02
  L 814.14 555.13
  L 815.25 554.95
  L 816.83 554.56
  L 818.81 554.39
  L 820.87 554.23
  L 822.80 553.86
  L 824.63 553.27
  L 826.33 552.47
  L 826.43 552.42
  L 827.60 552.11
  L 828.21 552.11
  L 829.17 551.85
  L 833.23 549.18
  L 836.77 546.20
  L 839.80 542.91
  L 842.32 539.32
  L 842.32 539.32
  L 843.67 536.84
  L 844.81 534.23
  L 845.65 531.54
  L 846.31 528.22
  L 846.81 524.26
  L 847.14 519.67
  L 847.00 518.86
  L 846.40 516.69
  L 846.13 513.89
  L 845.92 512.86
  L 844.50 508.80
  L 843.72 506.83
  L 842.68 504.87
  L 841.10 502.41
  L 839.32 500.05
  L 837.35 497.79
  L 835.18 495.62
  L 833.54 494.20
  L 832.19 493.29
  L 828.84 491.29
  L 827.88 490.86
  L 825.41 490.33
  L 822.69 489.06
  L 822.34 488.94
  L 814.90 487.81
  L 814.75 487.80
  L 798.69 487.64
  L 798.29 487.47
  L 798.13 487.07
  L 798.13 348.99
  L 798.07 348.66
  L 797.18 346.87
  L 796.05 345.29
  L 796.05 345.29
  L 794.16 343.51
  L 791.84 342.09
  L 790.92 341.87
  L 636.36 341.87
  L 635.12 342.04
  L 633.97 342.54
  L 633.00 343.32
  L 632.28 344.34
  L 631.00 346.76
  L 630.87 347.31
  L 630.87 487.27
  L 630.75 487.56
  L 630.45 487.68
  L 611.73 487.68
  L 611.31 487.50
  L 611.13 487.08
  L 611.13 347.73
  L 610.92 346.90
  L 610.50 346.16
  L 610.50 346.16
  L 609.01 344.23
  L 607.10 342.56
  L 606.10 342.05
  L 604.99 341.87
  L 450.97 341.87
  L 450.01 342.09
  L 447.84 343.39
  L 446.03 345.01
  L 444.53 347.01
  L 443.40 349.35
  L 442.64 351.71
  L 442.45 353.22
  L 442.06 355.92
  L 441.87 358.64
  L 441.87 487.23
  L 441.73 487.58
  L 441.38 487.72
  L 412.88 487.73
  L 409.77 488.06
  L 407.04 489.06
  L 405.70 489.89
  L 404.46 490.93
  L 404.10 491.03
  L 403.83 490.79
  L 403.83 490.79
  L 403.80 490.64
  L 404.16 467.12
  L 404.02 466.21
  L 403.43 464.21
  L 403.07 462.21
  L 402.85 461.24
  L 401.80 458.55
  L 400.52 456.08
  L 399.01 453.83
  L 397.27 451.80
  L 397.27 451.80
  L 397.27 451.80
  L 395.32 450.00
  L 393.14 448.41
  L 390.74 447.04
  L 388.11 445.89
  L 384.03 444.68
  L 380.80 444.18
  L 377.49 444.05
  L 364.65 444.11
  L 364.27 443.95
  L 364.12 443.57
  L 364.12 443.56
  L 364.03 441.23
  L 363.54 439.04
  L 363.20 436.42
  L 363.10 434.93
  L 362.82 433.82
  L 362.38 432.13
  L 362.17 429.92
  L 361.97 427.86
  L 361.60 426.30
  L 361.45 425.64
  L 359.36 409.72
  L 357.34 397.18
  L 357.18 395.09
  L 357.09 393.48
  L 356.83 392.43
  L 356.37 390.79
  L 356.12 388.42
  L 355.92 386.41
  L 355.60 385.01
  L 355.28 383.59
  L 355.10 381.63
  L 354.90 379.45
  L 354.50 377.81
  L 354.32 376.98
  L 353.54 370.49
  L 352.37 363.82
  L 352.19 361.72
  L 351.96 359.53
  L 351.48 357.54
  L 351.20 355.42
  L 351.21 350.77
  L 351.55 349.83
  L 354.41 345.93
  L 357.08 342.15
  L 359.50 338.11
  L 361.67 333.83
  L 363.59 329.29
  L 364.89 325.68
  L 365.78 322.65
  L 366.25 320.21
  L 366.31 318.36
  L 366.39 317.67
  L 366.97 315.33
  L 367.13 312.99
  L 367.08 312.03
  L 367.16 311.51
  L 367.47 311.08
  L 370.90 307.11
  L 372.84 304.85
  L 375.69 301.91
  L 379.79 297.54
  L 382.60 294.34
  L 386.77 289.98
  L 392.47 283.86
  L 399.73 275.81
  L 416.26 257.71
  L 420.55 253.20
  L 424.91 248.56
  L 431.30 241.53
  L 436.22 236.16
  L 441.11 230.66
  L 450.20 221.02
  L 461.97 208.53
  L 469.87 200.55
  L 470.18 200.40
  L 480.32 199.15
  L 481.31 198.69
  L 481.62 198.45
  L 482.51 198.14
  L 483.64 198.19
  L 484.27 198.48
  L 487.50 200.91
  L 489.98 202.53
  L 530.79 226.36
  L 537.13 229.88
  L 540.40 231.73
  L 543.23 233.59
  L 543.74 234.35
  L 544.35 235.89
  L 546.73 240.05
  L 549.46 244.06
  L 552.19 247.39
  L 555.23 250.39
  L 555.23 250.39
  L 558.09 252.71
  L 561.18 254.78
  L 564.50 256.59
  L 568.04 258.16
  L 576.23 261.00
  L 577.41 261.16
  L 579.55 261.28
  L 581.27 261.82
  L 582.50 262.12
  L 584.45 262.17
  L 589.10 262.16
  L 590.85 261.92
  L 592.27 261.51
  L 593.77 261.15
  L 595.42 261.15
  L 595.96 261.04
  L 596.33 260.65
  L 596.40 260.53
  L 596.69 260.17
  L 597.39 260.01
  L 597.91 260.50
  L 597.94 260.81
  L 597.71 266.53
  L 598.17 271.84
  L 599.43 277.59
  L 601.78 285.71
  L 601.87 286.39
  L 601.97 286.85
  L 602.14 286.98
  L 602.70 287.72
  L 604.42 292.06
  L 606.09 295.41
  L 611.73 304.11
  L 613.03 305.74
  L 614.75 308.09
  L 615.11 308.60
  L 621.52 315.21
  L 624.76 318.13
  L 628.03 320.80
  L 631.39 323.16
  L 634.89 325.33
  L 637.27 326.87
  L 640.17 328.45
  L 644.59 330.55
  L 649.09 332.35
  L 653.65 333.86
  L 658.27 335.08
  L 658.27 335.08
  L 663.82 336.14
  L 669.45 336.79
  L 675.19 337.03
  L 681.01 336.86
  L 689.11 335.96
  L 697.22 334.28
  L 705.35 331.82
  L 713.49 328.58
  L 726.12 322.56
  L 731.71 319.57
  L 736.82 316.59
  L 737.17 316.36
  L 738.62 315.15
  L 739.85 313.61
  L 740.86 311.76
  L 741.66 309.58
  L 742.09 307.66
  L 742.19 305.84
  L 742.15 302.05
  L 741.98 301.10
  L 740.97 298.91
  L 739.76 297.03
  L 738.35 295.45
  L 736.74 294.17
  L 736.17 293.82
  L 724.34 286.86
  L 713.08 279.99
  L 702.39 273.19
  L 692.27 266.47
  L 691.26 265.63
  L 690.14 264.41
  L 689.99 264.01
  L 690.11 263.60
  L 701.27 247.47
  L 701.61 247.17
  L 702.04 247.04
  L 703.39 247.13
  L 704.53 247.56
  L 704.53 247.56
  L 705.09 247.95
  L 705.42 248.11
  L 706.29 248.25
  L 735.82 261.65
  L 741.11 264.05
  L 746.41 266.46
  L 755.69 270.94
  L 756.68 271.18
  L 761.89 271.34
  L 763.51 271.22
  L 764.49 270.98
  L 768.27 268.92
  L 769.65 267.91
  L 770.69 266.92
  L 771.93 264.95
  L 773.76 261.19
  L 774.13 259.53
  L 774.09 254.48
  L 772.33 244.73
  L 769.84 235.20
  L 767.04 226.98
  L 763.67 218.93
  L 761.24 214.11
  L 758.42 209.33
  L 754.98 204.18
  L 752.05 200.42
  L 747.01 194.43
  L 745.80 193.23
  L 739.45 188.12
  L 736.78 186.07
  L 733.48 183.85
  L 724.99 178.90
  L 719.48 176.28
  L 713.09 173.92
  L 705.84 171.83
  L 697.72 170.01
  L 695.79 169.82
  L 693.83 169.63
  L 692.36 169.21
  L 691.45 169.01
  L 690.87 168.99
  L 684.72 168.81
  L 680.18 168.86
  L 676.06 169.14
  L 672.31 169.68
  L 663.47 171.46
  L 657.73 172.98
  L 652.20 174.86
  L 646.88 177.13
  L 641.77 179.76
  L 641.77 179.76
  L 641.77 179.76
  L 641.77 179.76
  L 637.51 182.35
  L 633.41 185.21
  L 629.46 188.36
  L 625.68 191.79
  L 625.01 192.03
  L 624.39 191.69
  L 624.34 191.62
  L 622.02 188.16
  L 619.49 184.95
  L 616.75 182.00
  L 613.79 179.30
  L 613.79 179.30
  L 613.79 179.30
  L 613.79 179.30
  L 611.01 177.14
  L 608.06 175.18
  L 604.95 173.41
  L 601.67 171.84
  L 599.17 170.85
  L 596.99 170.21
  L 592.17 169.08
  L 590.40 168.87
  L 579.25 168.87
  L 578.47 168.97
  L 574.63 170.02
  L 574.34 170.19
  L 574.11 170.42
  L 573.52 170.51
  L 551.15 159.34
  L 540.48 153.26
  L 518.21 140.22
  L 517.51 139.60
  L 517.21 138.95
  L 517.06 138.00
  L 516.82 136.78
  L 514.51 131.46
  L 511.76 126.58
  L 508.57 122.16
  L 504.95 118.19
  L 504.95 118.19
  L 501.19 114.90
  L 497.06 112.01
  L 492.55 109.50
  L 487.66 107.38
  L 484.76 106.53
  L 481.83 105.69
  L 479.30 105.06
  L 477.39 104.80
  L 474.14 104.46
  L 469.76 104.08
  L 469.19 104.09
  L 464.44 104.45
  L 459.87 105.22
  L 455.48 106.40
  L 451.27 107.99
  L 451.27 107.99
  L 451.27 107.99
  L 448.04 109.56
  L 444.92 111.39
  L 440.98 114.16
  L 437.41 117.20
  L 434.21 120.51
  L 431.37 124.07
  L 431.37 124.07
  L 431.37 124.07
  L 431.37 124.07
  L 431.37 124.07
  L 428.43 128.75
  L 426.03 133.81
  L 424.18 139.26
  L 422.86 145.10
  L 422.41 145.81
  L 421.29 146.56
  L 416.13 150.41
  L 405.41 158.91
  L 347.73 205.06
  L 296.91 245.42
  L 294.62 247.09
  L 292.28 248.52
  L 289.88 249.72
  L 287.43 250.67
  L 283.69 252.04
  L 280.06 253.60
  L 276.55 255.35
  L 273.14 257.27
  L 273.14 257.27
  L 267.98 260.70
  L 265.89 262.39
  L 263.32 264.78
  L 256.73 271.66
  L 254.44 274.86
  L 252.52 277.63
  L 250.96 279.73
  L 249.59 282.20
  L 247.84 286.13
  L 246.36 290.15
  L 244.48 297.10
  L 243.34 304.31
  L 243.05 309.66
  L 243.29 314.95
  L 244.05 320.09
  L 245.33 325.18
  L 246.91 329.77
  L 248.82 334.20
  L 251.47 339.14
  L 254.58 343.87
  L 254.72 344.14
  L 255.36 345.94
  L 255.68 347.62
  L 255.66 349.17
  L 255.30 350.60
  L 255.30 350.60
  L 255.15 350.97
  L 254.85 352.43
  L 254.69 356.74
  L 252.87 368.26
  L 244.92 424.57
  L 244.10 428.65
  L 243.86 429.49
  L 243.76 433.06
  L 243.05 436.29
  L 242.89 437.37
  L 242.66 440.21
  L 241.84 443.64
  L 241.58 444.02
  L 241.14 444.15
  L 232.52 444.08
  L 227.28 444.29
  L 224.67 444.66
  L 222.25 445.24
  L 220.02 446.01
  L 217.98 446.98
  L 215.11 448.79
  L 212.52 450.89
  L 209.83 453.74
  L 207.51 457.01
  L 205.58 460.68
  L 204.02 464.77
  L 203.89 465.50
  L 203.06 488.98
  L 202.80 489.55
  L 202.22 489.79
  L 194.25 489.82
  L 192.33 489.95
  L 191.24 490.49
  L 190.89 490.66
  L 188.84 490.86
  L 188.25 491.02
  L 185.76 492.32
  L 183.56 493.83
  L 181.66 495.55
  L 180.06 497.48
  L 180.06 497.48
  L 180.06 497.48
  L 180.06 497.48
  L 179.06 499.06
  L 178.23 500.75
  L 177.56 502.79
  L 177.10 505.34
  L 176.84 508.38
  L 176.77 511.93
  L 176.84 565.19
  L 176.65 566.04
  L 175.69 568.10
  L 175.02 569.04
  L 168.83 575.14
  L 168.74 575.22
  L 166.06 577.22
  L 163.74 579.41
  L 161.80 581.76
  L 160.22 584.30
  L 159.87 585.55
  L 159.67 587.32
  L 159.28 588.59
  L 159.19 589.23
  L 159.97 594.57
  L 160.06 594.86
  L 161.90 598.34
  L 167.44 605.85
  L 172.68 613.63
  L 172.83 614.53
  L 172.26 615.67
  L 171.97 616.05
  L 171.88 616.53
  L 171.80 617.28
  L 171.49 617.76
  L 171.24 617.90
  L 170.93 618.16
  L 170.88 618.56
  L 170.94 619.16
  L 170.79 619.63
  L 170.42 619.98
  L 169.98 620.54
  L 168.67 624.40
  L 167.15 627.86
  L 166.86 629.20
  L 166.84 629.42
  L 166.22 630.34
  L 165.92 630.74
  L 165.84 631.23
  L 165.77 631.90
  L 165.35 632.64
  L 164.93 633.37
  L 164.88 633.82
  L 164.58 634.68
  L 163.67 635.67
  L 163.28 635.88
  L 162.84 635.90
  L 161.18 635.98
  L 160.52 636.26
  L 160.01 636.50
  L 158.20 636.84
  L 156.39 637.19
  L 156.19 637.28
  L 155.64 637.50
  L 153.53 637.82
  L 152.75 637.88
  L 151.81 638.22
  L 150.80 638.84
  L 150.31 638.95
  L 149.73 638.82
  L 148.85 638.94
  L 146.16 639.91
  L 143.37 641.41
  L 140.91 643.29
  L 140.91 643.29
  L 140.91 643.29
  L 139.46 644.74
  L 138.15 646.36
  L 136.99 648.15
  L 135.98 650.10
  L 135.84 650.76
  L 135.84 691.44
  L 136.10 692.41
  L 138.31 695.76
  L 140.90 698.72
  L 144.12 701.48
  L 145.66 702.39
  L 145.66 702.39
  L 147.31 702.95
  L 149.11 703.20
  L 150.14 703.37
  L 151.19 703.78
  L 151.62 703.92
  L 163.11 706.09
  L 164.18 706.56
  L 164.93 707.46
  L 167.41 712.76
  L 169.91 718.84
  L 172.56 725.05
  L 172.89 725.94
  L 172.98 726.83
  L 172.98 726.83
  L 172.66 728.17
  L 171.80 729.50
  L 168.66 733.33
  L 165.82 737.16
  L 163.27 741.00
  L 161.03 744.84
  L 160.78 745.82
  L 160.78 753.26
  L 161.13 754.43
  L 161.81 755.58
  L 162.23 757.11
  L 163.07 758.46
  L 169.81 766.16
  L 176.40 773.21
  L 182.83 779.63
  L 189.11 785.41
  L 194.38 789.92
  L 195.07 790.36
  L 199.09 792.16
  L 199.33 792.21
  L 206.23 792.21
  L 206.82 792.08
  L 207.31 791.71
  L 208.09 791.09
  L 209.37 790.71
  L 210.37 790.10
  L 223.25 779.58
  L 224.48 779.05
  L 225.81 779.21
  L 235.25 783.21
  L 244.21 786.58
  L 245.63 787.34
  L 246.53 788.38
  L 246.53 788.38
  L 246.86 789.38
  L 246.87 790.55
  L 247.00 791.37
  L 247.72 793.94
  L 247.85 797.26
  L 248.07 798.28
  L 248.71 800.30
  L 248.85 802.91
  L 249.01 803.93
  L 249.56 804.82
  L 249.61 804.97
  L 249.90 806.10
  L 250.51 807.11
  L 253.36 810.05
  L 256.56 812.42
  L 259.49 813.95
  L 262.67 815.08
  L 263.00 815.12
  L 298.24 815.03
  L 298.39 815.02
  L 303.36 814.03
  L 303.93 813.83
  L 306.29 812.53
  L 308.38 811.03
  L 310.21 809.35
  L 311.78 807.47
  L 312.94 805.68
  L 313.90 803.74
  L 314.13 802.66
  L 314.36 800.04
  L 314.96 797.60
  L 315.10 796.74
  L 315.23 794.47
  L 315.58 793.03
  L 316.00 791.66
  L 316.17 789.95
  L 316.32 788.92
  L 316.71 788.04
  L 316.71 788.04
  L 316.71 788.04
  L 317.55 787.15
  L 318.79 786.50
  L 328.09 782.91
  L 336.27 779.22
  L 337.77 778.88
  L 339.26 779.25
  Z"
/>
<path d="
  M 495.39 155.65
  L 494.72 157.74
  L 494.10 158.90
  L 493.90 159.71
  L 493.77 160.37
  L 492.51 162.99
  L 491.04 165.38
  L 489.36 167.55
  L 487.48 169.49
  L 487.48 169.49
  L 487.48 169.49
  L 487.48 169.49
  L 485.13 171.40
  L 482.52 173.03
  L 479.66 174.38
  L 476.53 175.45
  L 473.48 175.84
  L 470.64 176.18
  L 469.65 176.26
  L 465.43 175.55
  L 461.59 174.38
  L 458.13 172.73
  L 455.05 170.62
  L 455.05 170.62
  L 455.05 170.62
  L 452.71 168.43
  L 450.64 165.90
  L 448.86 163.02
  L 447.36 159.79
  L 446.35 156.73
  L 446.01 154.27
  L 445.74 152.76
  L 445.61 151.25
  L 445.77 149.75
  L 446.05 148.19
  L 446.36 145.70
  L 447.35 142.52
  L 448.45 140.02
  L 449.75 137.73
  L 451.25 135.65
  L 452.96 133.77
  L 452.96 133.77
  L 452.96 133.77
  L 454.15 132.68
  L 454.69 132.24
  L 456.93 130.68
  L 459.38 129.39
  L 462.05 128.36
  L 464.93 127.60
  L 467.67 127.17
  L 470.42 127.03
  L 470.42 127.03
  L 472.87 127.14
  L 475.32 127.48
  L 477.78 128.06
  L 480.23 128.86
  L 482.51 129.83
  L 484.57 130.95
  L 486.41 132.24
  L 488.03 133.68
  L 489.80 135.58
  L 491.28 137.46
  L 492.46 139.32
  L 493.36 141.17
  L 494.56 143.98
  L 494.81 144.49
  L 494.84 145.07
  L 494.88 145.93
  L 495.26 147.14
  L 495.78 149.12
  L 495.79 152.74
  L 495.39 155.65
  Z"
/>
<path d="
  M 541.84 205.33
  L 541.82 205.45
  L 541.55 205.76
  L 541.14 205.72
  L 506.43 184.37
  L 506.33 184.30
  L 505.91 183.53
  L 506.21 182.69
  L 509.72 178.65
  L 512.70 174.46
  L 515.14 170.09
  L 517.05 165.57
  L 517.27 165.35
  L 517.58 165.37
  L 517.63 165.41
  L 518.93 166.33
  L 537.35 177.26
  L 544.03 180.76
  L 550.72 184.22
  L 551.02 184.59
  L 550.96 185.07
  L 550.95 185.08
  L 548.92 188.25
  L 547.03 191.51
  L 543.30 199.41
  L 542.94 200.53
  L 542.64 201.72
  L 542.28 202.33
  L 541.95 202.83
  L 541.83 203.42
  L 541.84 205.33
  Z"
/>
<path d="
  M 325.68 251.44
  L 425.87 171.22
  L 426.24 171.12
  L 426.55 171.34
  L 426.58 171.39
  L 428.28 174.89
  L 430.20 178.19
  L 432.34 181.30
  L 434.70 184.22
  L 434.70 184.22
  L 434.70 184.22
  L 434.70 184.22
  L 436.91 186.57
  L 439.27 188.77
  L 441.80 190.83
  L 444.49 192.75
  L 444.94 193.44
  L 444.73 194.24
  L 444.68 194.30
  L 361.81 283.56
  L 361.74 283.62
  L 361.31 283.71
  L 360.95 283.44
  L 357.30 277.22
  L 353.19 271.57
  L 348.62 266.51
  L 343.59 262.01
  L 343.59 262.01
  L 343.59 262.01
  L 343.59 262.01
  L 339.52 259.03
  L 335.19 256.36
  L 330.61 254.02
  L 325.76 252.00
  L 325.68 251.96
  L 325.55 251.70
  L 325.68 251.44
  Z"
/>
<path d="
  M 564.70 206.16
  L 566.12 203.44
  L 567.77 200.99
  L 569.62 198.80
  L 571.70 196.88
  L 571.70 196.88
  L 571.70 196.88
  L 573.69 195.42
  L 575.84 194.17
  L 578.15 193.11
  L 580.63 192.26
  L 581.48 192.14
  L 589.07 192.14
  L 589.66 192.35
  L 589.94 192.56
  L 591.14 193.08
  L 592.58 193.22
  L 593.19 193.29
  L 593.62 193.53
  L 593.62 193.53
  L 593.76 193.72
  L 594.07 194.02
  L 594.53 194.09
  L 595.37 194.39
  L 597.93 195.88
  L 600.23 197.57
  L 602.28 199.45
  L 604.08 201.52
  L 604.08 201.52
  L 604.08 201.52
  L 605.39 203.42
  L 606.53 205.46
  L 608.03 209.23
  L 608.83 213.08
  L 608.83 213.08
  L 608.83 213.08
  L 608.97 216.26
  L 608.64 219.49
  L 608.56 219.95
  L 607.68 223.13
  L 606.31 226.22
  L 604.43 229.21
  L 602.06 232.10
  L 600.44 233.65
  L 597.52 235.62
  L 594.16 237.05
  L 593.71 237.36
  L 593.49 237.57
  L 592.89 237.83
  L 591.99 237.90
  L 591.08 237.97
  L 590.44 238.24
  L 590.42 238.26
  L 589.34 238.68
  L 585.27 238.87
  L 582.00 238.65
  L 578.81 237.67
  L 576.52 236.83
  L 574.38 235.81
  L 572.40 234.61
  L 570.58 233.22
  L 568.26 230.92
  L 566.25 228.26
  L 565.06 226.20
  L 564.16 224.14
  L 563.54 222.08
  L 563.22 220.01
  L 562.99 218.45
  L 562.64 217.54
  L 562.32 216.71
  L 562.46 215.84
  L 563.02 213.70
  L 563.13 210.72
  L 563.14 210.34
  L 563.67 208.92
  L 564.16 207.55
  L 564.14 207.10
  L 564.24 206.53
  L 564.30 206.47
  L 564.66 206.20
  L 564.70 206.16
  Z"
/>
<path d="
  M 745.31 241.41
  L 702.42 219.04
  L 701.62 218.85
  L 695.22 218.85
  L 694.57 219.22
  L 694.19 219.63
  L 693.24 219.83
  L 692.70 219.89
  L 692.22 220.17
  L 688.95 223.28
  L 687.27 225.27
  L 671.06 251.05
  L 670.55 251.67
  L 669.52 252.87
  L 668.44 254.55
  L 667.18 256.43
  L 664.40 260.26
  L 662.09 264.30
  L 661.86 265.29
  L 661.86 270.80
  L 661.98 271.47
  L 663.19 274.09
  L 664.56 276.26
  L 666.10 277.97
  L 667.80 279.22
  L 678.18 285.35
  L 688.28 291.67
  L 698.10 298.17
  L 707.64 304.87
  L 707.96 305.48
  L 707.66 306.09
  L 707.48 306.20
  L 701.37 308.88
  L 699.25 309.70
  L 696.53 310.43
  L 691.45 311.71
  L 690.22 311.87
  L 687.96 312.00
  L 685.54 312.56
  L 684.03 312.81
  L 674.92 312.90
  L 669.53 312.67
  L 663.97 311.71
  L 656.84 309.88
  L 652.49 308.40
  L 648.36 306.50
  L 648.36 306.50
  L 645.49 304.86
  L 642.73 303.00
  L 640.09 300.91
  L 637.56 298.61
  L 633.75 294.54
  L 630.43 290.25
  L 627.61 285.75
  L 625.29 281.03
  L 625.29 281.03
  L 625.29 281.03
  L 625.29 281.03
  L 624.07 277.91
  L 623.05 274.70
  L 622.23 271.40
  L 621.62 268.02
  L 621.20 264.45
  L 620.99 260.79
  L 621.00 257.05
  L 621.23 253.23
  L 621.67 249.32
  L 622.32 245.33
  L 624.27 237.11
  L 624.57 236.50
  L 625.10 235.40
  L 625.15 234.35
  L 625.23 233.83
  L 625.56 233.42
  L 625.86 233.13
  L 625.86 233.13
  L 626.10 232.59
  L 626.12 231.90
  L 626.39 231.17
  L 627.21 229.73
  L 629.10 225.70
  L 631.35 221.72
  L 633.95 217.80
  L 636.92 213.95
  L 639.95 210.53
  L 643.22 207.37
  L 643.22 207.37
  L 643.22 207.37
  L 643.22 207.37
  L 646.48 204.67
  L 649.93 202.20
  L 653.59 199.96
  L 657.45 197.94
  L 661.63 196.16
  L 665.99 194.76
  L 670.54 193.72
  L 675.27 193.05
  L 680.14 192.70
  L 684.85 192.66
  L 689.39 192.92
  L 693.77 193.48
  L 698.45 194.41
  L 704.17 195.95
  L 710.24 198.20
  L 715.31 200.57
  L 720.02 203.31
  L 724.39 206.42
  L 728.40 209.90
  L 728.40 209.90
  L 728.40 209.90
  L 732.03 213.72
  L 735.31 217.90
  L 738.25 222.45
  L 740.84 227.36
  L 743.73 233.97
  L 746.16 240.69
  L 746.06 241.25
  L 745.54 241.48
  L 745.31 241.41
  Z"
/>
<path d="
  M 341.21 296.36
  L 341.76 297.54
  L 342.23 298.97
  L 342.54 300.64
  L 343.58 307.01
  L 343.85 308.92
  L 343.87 310.72
  L 343.62 312.40
  L 343.12 313.97
  L 342.88 315.00
  L 342.85 316.28
  L 342.66 318.42
  L 342.22 319.55
  L 341.89 320.41
  L 341.78 321.80
  L 341.70 322.25
  L 341.39 322.59
  L 341.08 322.90
  L 340.90 323.52
  L 340.66 324.55
  L 338.76 328.42
  L 336.56 331.96
  L 334.06 335.17
  L 331.25 338.05
  L 331.25 338.05
  L 331.25 338.05
  L 327.82 340.82
  L 324.03 343.20
  L 319.88 345.18
  L 315.36 346.76
  L 314.68 346.84
  L 313.58 346.92
  L 312.29 347.34
  L 310.12 347.87
  L 306.55 347.93
  L 304.04 347.91
  L 301.07 347.81
  L 298.00 347.37
  L 294.01 346.41
  L 290.24 345.11
  L 286.71 343.47
  L 283.40 341.49
  L 283.40 341.49
  L 280.03 338.92
  L 276.94 335.94
  L 274.12 332.54
  L 271.58 328.74
  L 270.24 326.32
  L 269.11 323.85
  L 267.90 320.32
  L 266.80 315.84
  L 266.18 311.51
  L 266.21 307.55
  L 266.75 303.65
  L 267.62 299.92
  L 268.80 296.34
  L 270.30 292.91
  L 270.30 292.91
  L 270.30 292.91
  L 270.30 292.91
  L 271.82 290.15
  L 273.56 287.49
  L 275.53 284.95
  L 277.73 282.52
  L 281.37 279.22
  L 285.32 276.44
  L 289.50 274.23
  L 293.98 272.53
  L 297.04 272.01
  L 298.80 271.61
  L 301.03 271.15
  L 309.40 271.13
  L 310.65 271.29
  L 315.87 272.59
  L 319.56 273.77
  L 323.26 275.50
  L 327.08 277.86
  L 330.97 280.80
  L 333.26 283.00
  L 335.41 285.75
  L 339.15 291.30
  L 340.06 293.05
  L 340.70 294.87
  L 340.70 294.87
  L 340.87 295.59
  L 341.21 296.36
  Z
  M 291.0155 305.7870
  L 290.5753 308.5204
  L 290.6883 311.2914
  L 291.3502 313.9936
  L 292.5354 316.5231
  L 294.1985 318.7828
  L 296.2755 320.6856
  L 298.6867 322.1587
  L 301.3393 323.1452
  L 304.1314 323.6074
  L 306.9558 323.5275
  L 309.7039 322.9084
  L 312.2700 321.7741
  L 314.5556 320.1681
  L 316.4728 318.1522
  L 317.9480 315.8037
  L 318.9245 313.2130
  L 319.3647 310.4796
  L 319.2517 307.7086
  L 318.5898 305.0064
  L 317.4046 302.4769
  L 315.7415 300.2172
  L 313.6645 298.3144
  L 311.2533 296.8413
  L 308.6007 295.8548
  L 305.8086 295.3926
  L 302.9842 295.4725
  L 300.2361 296.0916
  L 297.6700 297.2259
  L 295.3844 298.8319
  L 293.4672 300.8478
  L 291.9920 303.1963
  L 291.0155 305.7870
  Z"
/>
<path d="
  M 329.76 365.79
  L 330.87 373.98
  L 331.38 377.49
  L 331.80 379.92
  L 331.89 381.85
  L 332.07 383.05
  L 332.74 385.82
  L 332.86 388.51
  L 333.00 389.75
  L 333.68 392.76
  L 333.87 395.59
  L 334.07 396.98
  L 334.27 397.65
  L 334.87 401.31
  L 335.41 404.87
  L 335.50 405.25
  L 335.95 409.98
  L 336.11 410.91
  L 336.70 413.48
  L 336.89 416.05
  L 336.89 416.05
  L 336.86 416.82
  L 337.05 417.79
  L 337.76 420.22
  L 337.87 423.22
  L 338.01 424.25
  L 338.66 427.12
  L 338.86 430.38
  L 338.99 431.31
  L 339.62 434.18
  L 339.86 436.93
  L 340.39 440.33
  L 340.91 443.44
  L 340.74 443.89
  L 340.30 444.09
  L 340.29 444.09
  L 265.60 444.09
  L 265.25 443.95
  L 265.10 443.60
  L 265.16 441.08
  L 265.45 439.31
  L 265.49 439.18
  L 266.18 435.10
  L 266.88 431.02
  L 267.00 430.60
  L 267.12 429.65
  L 267.27 427.20
  L 267.88 424.60
  L 268.12 422.99
  L 268.28 420.25
  L 269.92 410.12
  L 271.30 399.82
  L 271.45 399.20
  L 271.91 397.38
  L 272.20 394.94
  L 272.57 392.00
  L 273.66 385.33
  L 274.40 378.74
  L 274.58 377.75
  L 274.92 377.02
  L 275.14 376.32
  L 275.18 373.70
  L 275.54 371.62
  L 276.04 368.37
  L 276.32 366.19
  L 276.87 364.61
  L 277.24 364.27
  L 277.75 364.28
  L 286.89 367.99
  L 287.42 368.11
  L 288.89 368.37
  L 290.05 368.89
  L 291.15 369.17
  L 292.86 369.40
  L 293.49 369.71
  L 293.91 369.88
  L 298.03 370.65
  L 301.76 371.08
  L 305.07 371.17
  L 307.99 370.92
  L 313.16 370.21
  L 315.55 370.11
  L 316.03 370.10
  L 316.47 369.89
  L 317.36 369.46
  L 318.75 369.23
  L 319.87 369.06
  L 320.45 368.75
  L 320.71 368.59
  L 329.56 365.67
  L 329.76 365.78
  L 329.76 365.79
  Z"
/>
<path d="
  M 489.87 365.63
  L 489.87 404.05
  L 490.02 404.65
  L 490.60 405.77
  L 491.18 407.51
  L 491.94 409.07
  L 492.86 410.46
  L 493.94 411.68
  L 493.94 411.68
  L 493.94 411.68
  L 495.08 412.64
  L 498.39 414.79
  L 499.54 415.13
  L 555.73 415.13
  L 556.64 414.90
  L 558.97 413.48
  L 560.81 411.95
  L 562.19 410.24
  L 563.04 408.44
  L 563.24 407.69
  L 563.33 402.82
  L 563.32 365.70
  L 563.48 365.30
  L 563.88 365.13
  L 563.88 365.13
  L 563.88 365.13
  L 588.00 365.13
  L 588.00 365.13
  L 588.52 365.35
  L 588.74 365.88
  L 588.74 487.36
  L 588.44 487.67
  L 464.47 487.67
  L 464.17 487.38
  L 464.17 487.38
  L 464.17 365.70
  L 464.28 365.36
  L 464.75 365.12
  L 489.36 365.12
  L 489.72 365.27
  L 489.87 365.63
  Z"
/>
<rect x="-14.00" y="-13.37" transform="translate(526.88,378.50) rotate(0.2)" width="28.00" height="26.74" rx="0.27"/>
<path d="
  M 653.14 487.01
  L 653.14 365.65
  L 653.29 365.28
  L 653.66 365.13
  L 678.03 365.13
  L 678.40 365.29
  L 678.56 365.66
  L 678.56 403.50
  L 678.66 405.50
  L 678.98 407.24
  L 679.53 408.72
  L 680.29 409.93
  L 682.85 412.46
  L 686.38 414.89
  L 687.27 415.13
  L 741.36 415.13
  L 742.36 414.88
  L 745.23 413.01
  L 747.58 410.71
  L 747.58 410.71
  L 749.49 407.83
  L 750.82 404.48
  L 750.87 404.09
  L 750.87 365.66
  L 751.03 365.29
  L 751.40 365.13
  L 775.87 365.13
  L 776.19 365.44
  L 776.19 487.29
  L 776.19 487.29
  L 776.08 487.56
  L 775.80 487.67
  L 653.80 487.67
  L 653.33 487.48
  L 653.14 487.01
  Z"
/>
<path d="
  M 701.16 391.54
  L 701.16 365.46
  L 701.26 365.23
  L 701.49 365.13
  L 727.71 365.13
  L 728.04 365.46
  L 728.04 391.54
  L 727.94 391.77
  L 727.71 391.87
  L 701.49 391.87
  L 701.16 391.54
  Z"
/>
<path d="
  M 226.14 489.44
  L 226.14 468.27
  L 226.32 467.39
  L 226.82 466.64
  L 227.57 466.14
  L 228.46 465.96
  L 380.29 465.96
  L 380.54 466.01
  L 380.87 466.54
  L 380.87 489.55
  L 380.54 489.87
  L 226.58 489.87
  L 226.27 489.74
  L 226.14 489.44
  L 226.14 489.44
  L 226.14 489.44
  Z"
/>
<path d="
  M 422.12 510.37
  L 422.37 510.12
  L 813.48 510.12
  L 815.59 510.32
  L 817.62 510.90
  L 819.49 511.85
  L 821.13 513.13
  L 822.48 514.69
  L 823.48 516.47
  L 824.09 518.39
  L 824.30 520.40
  L 824.30 520.40
  L 824.30 520.40
  L 824.30 522.26
  L 824.09 524.27
  L 823.48 526.19
  L 822.48 527.97
  L 821.13 529.53
  L 819.49 530.81
  L 817.62 531.76
  L 815.59 532.34
  L 813.48 532.54
  L 422.37 532.54
  L 422.12 532.29
  L 422.12 510.37
  Z"
/>
<path d="
  M 188.72 705.91
  L 188.10 703.87
  L 187.20 701.54
  L 186.79 700.04
  L 186.38 699.22
  L 186.14 698.50
  L 186.16 697.20
  L 185.89 696.17
  L 185.66 695.78
  L 185.34 694.90
  L 185.16 693.72
  L 184.99 692.53
  L 184.67 691.63
  L 184.58 691.46
  L 184.27 690.56
  L 183.81 688.80
  L 183.08 687.35
  L 181.95 686.37
  L 180.01 685.57
  L 176.78 684.73
  L 172.02 683.82
  L 170.02 683.62
  L 169.56 683.58
  L 169.20 683.28
  L 168.72 682.99
  L 168.26 682.87
  L 164.98 682.78
  L 163.59 682.49
  L 162.37 682.04
  L 162.29 682.02
  L 157.73 681.52
  L 157.30 681.30
  L 157.13 680.85
  L 157.13 660.99
  L 157.32 660.47
  L 157.80 660.20
  L 177.17 656.84
  L 177.39 656.63
  L 177.94 656.30
  L 179.39 656.08
  L 181.76 654.89
  L 182.28 654.54
  L 183.27 653.35
  L 183.87 651.66
  L 185.28 645.69
  L 187.03 639.74
  L 189.12 633.79
  L 191.55 627.85
  L 193.84 623.56
  L 198.94 614.73
  L 199.18 614.07
  L 199.25 613.30
  L 198.88 611.28
  L 197.81 608.69
  L 196.30 606.09
  L 190.75 598.32
  L 185.27 591.38
  L 185.12 590.96
  L 185.30 590.55
  L 201.60 574.25
  L 201.89 574.10
  L 202.36 574.25
  L 209.22 580.76
  L 216.88 587.37
  L 220.04 589.58
  L 221.11 590.08
  L 222.28 590.27
  L 223.45 590.12
  L 224.54 589.65
  L 230.38 586.20
  L 236.53 582.82
  L 241.06 580.57
  L 245.60 578.64
  L 250.13 577.01
  L 254.66 575.69
  L 264.18 573.24
  L 265.33 572.75
  L 266.30 571.94
  L 266.99 570.90
  L 267.35 569.69
  L 270.47 548.09
  L 270.66 547.75
  L 271.03 547.61
  L 292.61 547.61
  L 293.29 547.88
  L 293.60 548.55
  L 293.95 556.49
  L 293.97 556.63
  L 294.66 560.87
  L 294.86 564.79
  L 294.99 566.23
  L 296.00 571.30
  L 296.32 571.96
  L 297.85 573.22
  L 300.02 574.14
  L 310.85 576.68
  L 313.36 577.25
  L 318.12 578.80
  L 323.80 581.18
  L 332.52 585.44
  L 340.37 589.89
  L 341.33 590.16
  L 344.10 590.16
  L 344.72 590.05
  L 345.26 589.75
  L 363.02 575.54
  L 363.42 575.41
  L 363.80 575.58
  L 377.61 589.39
  L 377.96 589.89
  L 378.12 590.48
  L 378.07 591.09
  L 377.81 591.64
  L 365.02 610.13
  L 364.89 610.45
  L 364.63 613.44
  L 364.93 615.37
  L 365.87 617.14
  L 367.49 619.60
  L 369.84 623.36
  L 374.37 632.89
  L 376.47 638.31
  L 378.02 643.75
  L 378.31 644.33
  L 378.85 645.57
  L 378.84 647.32
  L 378.88 647.86
  L 379.15 648.34
  L 379.54 648.93
  L 379.78 649.69
  L 379.81 651.70
  L 380.01 652.40
  L 382.53 655.55
  L 383.11 656.01
  L 383.84 656.15
  L 385.05 656.28
  L 386.03 656.73
  L 386.24 656.89
  L 386.70 657.14
  L 387.23 657.20
  L 389.37 657.26
  L 391.17 657.90
  L 391.46 658.00
  L 405.59 660.32
  L 406.38 660.75
  L 406.74 661.56
  L 407.03 665.13
  L 407.03 665.13
  L 407.23 673.22
  L 406.80 681.34
  L 406.64 681.69
  L 406.31 681.87
  L 393.74 684.04
  L 392.08 684.39
  L 390.13 684.78
  L 388.56 684.88
  L 387.30 685.05
  L 386.14 685.40
  L 383.89 686.13
  L 382.35 686.98
  L 381.13 688.11
  L 380.09 689.56
  L 379.85 690.46
  L 379.73 692.14
  L 379.21 693.42
  L 378.95 694.11
  L 378.43 696.66
  L 377.39 700.24
  L 374.75 707.31
  L 373.11 711.19
  L 371.60 714.19
  L 366.06 723.81
  L 365.21 725.03
  L 364.28 725.94
  L 363.96 726.33
  L 363.85 726.82
  L 363.85 729.84
  L 364.07 730.69
  L 366.67 735.08
  L 372.29 742.36
  L 377.75 749.03
  L 378.03 749.84
  L 377.69 750.63
  L 369.87 758.13
  L 367.69 760.32
  L 364.57 763.84
  L 362.18 766.57
  L 361.80 766.75
  L 361.41 766.61
  L 361.40 766.60
  L 358.33 763.73
  L 358.33 763.73
  L 354.92 760.85
  L 351.35 758.16
  L 347.63 755.64
  L 343.74 753.30
  L 343.11 753.06
  L 341.59 752.82
  L 340.21 752.82
  L 338.98 753.06
  L 337.90 753.54
  L 337.90 753.54
  L 337.90 753.54
  L 336.88 754.35
  L 335.90 755.10
  L 324.22 761.41
  L 323.18 761.77
  L 322.41 762.01
  L 322.03 762.31
  L 321.29 762.89
  L 320.77 762.90
  L 320.20 762.93
  L 319.87 763.13
  L 319.01 763.63
  L 312.32 765.88
  L 305.98 767.70
  L 300.40 768.93
  L 299.25 769.31
  L 297.58 770.14
  L 296.93 770.77
  L 296.00 772.61
  L 295.33 774.42
  L 294.94 776.20
  L 294.81 777.95
  L 294.63 779.66
  L 294.08 780.84
  L 293.88 781.52
  L 293.81 783.04
  L 293.67 785.03
  L 293.04 788.43
  L 292.78 791.81
  L 292.62 792.52
  L 292.21 793.12
  L 291.60 793.52
  L 290.89 793.66
  L 271.16 793.66
  L 270.52 793.40
  L 270.24 792.76
  L 270.10 787.66
  L 270.05 787.33
  L 269.31 784.19
  L 269.13 781.27
  L 268.92 780.29
  L 268.33 778.55
  L 268.12 776.44
  L 267.95 775.49
  L 266.65 772.25
  L 265.79 770.73
  L 263.99 769.35
  L 262.15 768.66
  L 260.00 768.12
  L 253.52 766.46
  L 247.11 764.52
  L 241.56 762.20
  L 236.00 759.54
  L 230.44 756.53
  L 224.87 753.18
  L 224.00 752.89
  L 220.95 753.01
  L 219.70 753.35
  L 218.63 753.87
  L 210.55 759.37
  L 202.34 765.89
  L 201.98 766.02
  L 201.62 765.86
  L 186.40 750.64
  L 185.98 749.69
  L 186.32 748.70
  L 188.81 745.58
  L 191.60 742.18
  L 193.85 739.59
  L 195.98 736.74
  L 198.02 733.65
  L 199.94 730.30
  L 200.17 729.37
  L 199.75 727.70
  L 198.50 725.56
  L 195.10 720.09
  L 191.81 713.53
  L 191.53 713.06
  L 191.23 712.50
  L 191.14 711.94
  L 190.93 711.11
  L 189.54 708.39
  L 188.72 705.91
  Z
  M 277.57 600.36
  L 271.92 600.91
  L 266.50 601.83
  L 261.31 603.12
  L 256.36 604.77
  L 251.88 606.61
  L 247.61 608.63
  L 243.57 610.85
  L 239.74 613.25
  L 236.12 615.84
  L 232.72 618.63
  L 229.54 621.60
  L 226.57 624.76
  L 226.57 624.76
  L 226.57 624.76
  L 224.20 627.63
  L 221.98 630.64
  L 219.93 633.78
  L 218.03 637.07
  L 216.30 640.49
  L 214.72 644.05
  L 212.04 651.60
  L 210.97 655.67
  L 210.14 659.92
  L 209.57 664.28
  L 209.27 668.69
  L 209.25 673.03
  L 209.50 677.29
  L 210.01 681.32
  L 210.81 685.17
  L 212.17 690.06
  L 213.75 694.74
  L 215.55 699.23
  L 217.58 703.51
  L 219.84 707.60
  L 222.32 711.48
  L 225.02 715.16
  L 227.94 718.63
  L 227.94 718.63
  L 227.94 718.63
  L 230.92 721.74
  L 234.10 724.67
  L 237.47 727.41
  L 241.05 729.98
  L 244.83 732.36
  L 248.81 734.57
  L 253.00 736.59
  L 257.38 738.43
  L 261.55 739.90
  L 261.55 739.90
  L 261.55 739.90
  L 267.55 741.47
  L 273.73 742.47
  L 280.10 742.91
  L 286.64 742.77
  L 293.14 742.08
  L 299.40 740.84
  L 305.40 739.06
  L 311.16 736.74
  L 311.16 736.74
  L 315.11 734.76
  L 319.22 732.37
  L 323.11 729.84
  L 326.78 727.14
  L 330.23 724.30
  L 333.45 721.30
  L 336.46 718.15
  L 339.24 714.84
  L 341.79 711.38
  L 341.79 711.38
  L 344.26 707.56
  L 346.47 703.57
  L 348.43 699.41
  L 350.15 695.07
  L 351.62 690.57
  L 352.84 685.89
  L 353.82 681.04
  L 354.54 676.02
  L 354.85 672.09
  L 354.85 668.03
  L 354.56 663.77
  L 353.98 659.48
  L 353.12 655.14
  L 352.00 650.88
  L 350.65 646.78
  L 349.07 642.87
  L 345.45 635.73
  L 343.44 632.39
  L 341.28 629.22
  L 338.98 626.20
  L 336.54 623.34
  L 333.96 620.64
  L 331.25 618.10
  L 331.25 618.10
  L 331.25 618.10
  L 331.25 618.10
  L 327.90 615.34
  L 324.37 612.79
  L 320.64 610.46
  L 316.73 608.35
  L 312.62 606.45
  L 308.33 604.77
  L 303.84 603.30
  L 299.17 602.04
  L 294.04 601.03
  L 288.73 600.42
  L 283.24 600.19
  L 277.57 600.36
  Z"
/>
<path d="
  M 394.69 624.78
  L 394.61 624.75
  L 394.52 624.61
  L 391.17 615.98
  L 390.97 614.57
  L 391.42 613.22
  L 400.93 597.76
  L 401.22 597.48
  L 401.60 597.38
  L 755.52 597.38
  L 756.53 597.50
  L 759.50 597.95
  L 763.49 598.20
  L 766.71 598.70
  L 772.92 600.12
  L 778.48 601.69
  L 783.79 603.65
  L 788.86 606.00
  L 793.69 608.74
  L 793.69 608.74
  L 793.69 608.74
  L 798.09 611.72
  L 802.27 615.06
  L 806.23 618.76
  L 809.96 622.82
  L 814.04 628.18
  L 817.45 633.89
  L 817.45 633.89
  L 817.45 633.89
  L 819.57 638.46
  L 821.31 643.23
  L 823.35 650.65
  L 824.63 657.54
  L 824.97 662.38
  L 824.98 669.51
  L 824.59 675.69
  L 823.67 681.39
  L 822.40 686.40
  L 820.81 691.23
  L 818.91 695.90
  L 816.70 700.39
  L 816.70 700.39
  L 816.70 700.39
  L 816.70 700.39
  L 813.59 705.61
  L 810.03 710.57
  L 806.00 715.29
  L 801.51 719.76
  L 797.47 723.14
  L 792.37 726.83
  L 787.45 729.90
  L 787.45 729.90
  L 781.18 733.06
  L 774.56 735.61
  L 767.59 737.55
  L 760.27 738.88
  L 752.93 739.64
  L 745.57 739.86
  L 400.65 739.87
  L 400.11 739.60
  L 390.28 726.39
  L 390.11 725.97
  L 390.19 725.52
  L 398.73 707.52
  L 399.57 706.49
  L 400.79 705.95
  L 416.48 703.16
  L 417.25 702.90
  L 421.49 700.63
  L 422.78 699.74
  L 423.53 699.02
  L 425.85 695.78
  L 427.07 693.78
  L 428.42 689.67
  L 428.74 687.77
  L 428.80 685.42
  L 428.67 672.78
  L 428.75 656.99
  L 428.50 653.77
  L 427.68 650.77
  L 427.68 650.77
  L 427.68 650.77
  L 426.68 648.66
  L 425.37 646.67
  L 423.88 644.92
  L 422.16 643.25
  L 420.18 641.65
  L 417.97 640.12
  L 416.84 639.84
  L 415.95 639.77
  L 415.37 639.43
  L 415.26 639.28
  L 414.91 638.96
  L 414.44 638.87
  L 413.13 638.89
  L 411.89 638.68
  L 411.89 638.68
  L 410.39 638.10
  L 409.40 637.87
  L 407.00 637.67
  L 404.80 637.03
  L 403.68 636.86
  L 401.86 636.78
  L 399.76 636.02
  L 399.20 635.40
  L 394.90 625.08
  L 394.69 624.78
  Z
  M 529.2904 611.0414
  L 523.9338 611.6637
  L 518.6640 612.8106
  L 513.5319 614.4711
  L 508.5867 616.6292
  L 503.8762 619.2641
  L 499.4457 622.3504
  L 495.3378 625.8585
  L 491.5921 629.7545
  L 488.2448 634.0009
  L 485.3280 638.5569
  L 482.8698 643.3784
  L 480.8939 648.4192
  L 479.4194 653.6307
  L 478.4604 658.9626
  L 478.0261 664.3636
  L 478.1208 669.7818
  L 478.7435 675.1648
  L 479.8883 680.4610
  L 481.5441 685.6192
  L 483.6949 690.5899
  L 486.3201 695.3250
  L 489.3944 699.7791
  L 492.8881 703.9093
  L 496.7677 707.6757
  L 500.9957 711.0421
  L 505.5314 713.9761
  L 510.3312 716.4493
  L 515.3488 718.4381
  L 520.5360 719.9232
  L 525.8427 720.8904
  L 531.2178 721.3302
  L 536.6096 721.2386
  L 536.6096 721.2386
  L 541.9662 720.6163
  L 547.2360 719.4694
  L 552.3681 717.8089
  L 557.3133 715.6508
  L 562.0238 713.0159
  L 566.4543 709.9296
  L 570.5622 706.4215
  L 574.3079 702.5255
  L 577.6552 698.2791
  L 580.5720 693.7231
  L 583.0302 688.9016
  L 585.0061 683.8608
  L 586.4806 678.6493
  L 587.4396 673.3174
  L 587.8739 667.9164
  L 587.7792 662.4982
  L 587.1565 657.1152
  L 586.0117 651.8190
  L 584.3559 646.6608
  L 582.2051 641.6901
  L 579.5799 636.9550
  L 576.5056 632.5009
  L 573.0119 628.3707
  L 569.1323 624.6043
  L 564.9043 621.2379
  L 560.3686 618.3039
  L 555.5688 615.8307
  L 550.5512 613.8419
  L 545.3640 612.3568
  L 540.0573 611.3896
  L 534.6822 610.9498
  L 529.2904 611.0414
  Z
  M 757.5266 613.5927
  L 752.2886 612.0930
  L 746.9281 611.1156
  L 741.4967 610.6702
  L 736.0467 610.7608
  L 730.6307 611.3867
  L 725.3008 612.5419
  L 720.1083 614.2151
  L 715.1032 616.3903
  L 710.3337 619.0466
  L 705.8458 622.1584
  L 701.6827 625.6956
  L 697.8845 629.6243
  L 694.4877 633.9065
  L 691.5251 638.5011
  L 689.0252 643.3638
  L 687.0120 648.4478
  L 685.5051 653.7041
  L 684.5188 659.0821
  L 684.0626 664.5300
  L 684.1411 669.9953
  L 684.7533 675.4254
  L 685.8935 680.7680
  L 687.5506 685.9717
  L 689.7086 690.9863
  L 692.3469 695.7635
  L 695.4400 700.2574
  L 698.9580 704.4246
  L 702.8672 708.2251
  L 707.1298 711.6222
  L 711.7048 714.5832
  L 716.5482 717.0796
  L 721.6134 719.0873
  L 721.6134 719.0873
  L 726.8514 720.5870
  L 732.2119 721.5644
  L 737.6433 722.0098
  L 743.0933 721.9192
  L 748.5093 721.2933
  L 753.8392 720.1381
  L 759.0317 718.4649
  L 764.0368 716.2897
  L 768.8063 713.6334
  L 773.2942 710.5216
  L 777.4573 706.9844
  L 781.2555 703.0557
  L 784.6523 698.7735
  L 787.6149 694.1789
  L 790.1148 689.3162
  L 792.1280 684.2322
  L 793.6349 678.9759
  L 794.6212 673.5979
  L 795.0774 668.1500
  L 794.9989 662.6847
  L 794.3867 657.2546
  L 793.2465 651.9120
  L 791.5894 646.7083
  L 789.4314 641.6937
  L 786.7931 636.9165
  L 783.7000 632.4226
  L 780.1820 628.2554
  L 776.2728 624.4549
  L 772.0102 621.0578
  L 767.4352 618.0968
  L 762.5918 615.6004
  L 757.5266 613.5927
  Z
  M 619.5210 653.1511
  L 617.3556 652.5653
  L 615.1129 652.4228
  L 612.8788 652.7290
  L 610.7393 653.4722
  L 608.7767 654.6238
  L 607.0662 656.1396
  L 605.6737 657.9613
  L 604.6527 660.0189
  L 604.0424 662.2334
  L 603.8662 664.5195
  L 604.1310 666.7896
  L 604.8265 668.9563
  L 605.9261 670.9363
  L 607.3874 672.6537
  L 609.1544 674.0423
  L 611.1590 675.0489
  L 613.3244 675.6347
  L 615.5671 675.7772
  L 617.8012 675.4710
  L 619.9407 674.7278
  L 621.9033 673.5762
  L 623.6138 672.0604
  L 625.0063 670.2387
  L 626.0273 668.1811
  L 626.6376 665.9666
  L 626.8138 663.6805
  L 626.5490 661.4104
  L 625.8535 659.2437
  L 624.7539 657.2637
  L 623.2926 655.5463
  L 621.5256 654.1577
  L 619.5210 653.1511
  Z
  M 660.1603 652.7882
  L 657.9737 652.3533
  L 655.7405 652.3626
  L 653.5464 652.8157
  L 651.4759 653.6951
  L 649.6084 654.9670
  L 648.0157 656.5826
  L 646.7591 658.4798
  L 645.8868 660.5857
  L 645.4324 662.8194
  L 645.4133 665.0949
  L 645.8302 667.3249
  L 646.6671 669.4237
  L 647.8920 671.3106
  L 649.4576 672.9131
  L 651.3038 674.1696
  L 653.3597 675.0318
  L 655.5463 675.4667
  L 657.7795 675.4574
  L 659.9736 675.0043
  L 662.0441 674.1249
  L 663.9116 672.8530
  L 665.5043 671.2374
  L 666.7609 669.3402
  L 667.6332 667.2343
  L 668.0876 665.0006
  L 668.1067 662.7251
  L 667.6898 660.4951
  L 666.8529 658.3963
  L 665.6280 656.5094
  L 664.0624 654.9069
  L 662.2162 653.6504
  L 660.1603 652.7882
  Z
  M 462.05 664.08
  L 461.83 661.82
  L 461.17 659.66
  L 460.10 657.66
  L 458.66 655.91
  L 456.91 654.47
  L 454.91 653.40
  L 452.75 652.74
  L 450.49 652.52
  L 448.23 652.74
  L 446.07 653.40
  L 444.07 654.47
  L 442.32 655.91
  L 440.88 657.66
  L 439.81 659.66
  L 439.15 661.82
  L 438.93 664.08
  L 439.15 666.34
  L 439.81 668.50
  L 440.88 670.50
  L 442.32 672.25
  L 444.07 673.69
  L 446.07 674.76
  L 448.23 675.42
  L 450.49 675.64
  L 452.75 675.42
  L 454.91 674.76
  L 456.91 673.69
  L 458.66 672.25
  L 460.10 670.50
  L 461.17 668.50
  L 461.83 666.34
  L 462.05 664.08
  Z"
/>
<path d="
  M 281.31 622.03
  L 284.89 622.07
  L 288.38 622.31
  L 291.80 622.76
  L 295.12 623.40
  L 298.35 624.25
  L 301.49 625.31
  L 304.53 626.56
  L 307.47 628.02
  L 311.67 630.58
  L 315.63 633.59
  L 319.35 637.05
  L 322.82 640.97
  L 325.29 644.35
  L 327.42 647.87
  L 329.95 653.34
  L 331.73 659.02
  L 332.81 664.98
  L 333.13 671.04
  L 332.72 677.15
  L 331.57 683.22
  L 329.70 689.16
  L 327.11 694.91
  L 323.97 700.15
  L 320.28 704.91
  L 316.03 709.21
  L 311.32 712.95
  L 308.18 714.98
  L 304.90 716.77
  L 301.48 718.32
  L 297.93 719.60
  L 294.33 720.62
  L 290.64 721.37
  L 286.86 721.85
  L 283.01 722.06
  L 279.15 721.99
  L 275.36 721.63
  L 271.64 721.00
  L 268.01 720.11
  L 264.42 718.95
  L 260.95 717.52
  L 257.60 715.84
  L 254.40 713.92
  L 249.56 710.34
  L 245.17 706.19
  L 241.33 701.56
  L 238.00 696.42
  L 235.23 690.77
  L 233.15 684.89
  L 231.80 678.87
  L 231.18 672.77
  L 231.30 666.71
  L 232.17 660.71
  L 233.76 654.97
  L 236.10 649.42
  L 238.11 645.83
  L 240.46 642.37
  L 243.79 638.33
  L 247.39 634.74
  L 251.25 631.60
  L 255.36 628.91
  L 258.25 627.35
  L 261.25 625.99
  L 264.35 624.83
  L 267.55 623.87
  L 270.85 623.11
  L 274.24 622.55
  L 277.73 622.19
  L 281.31 622.03
  Z"
/>
<ellipse cx="0.00" cy="0.00" transform="translate(533.04,666.42) rotate(-86.5)" rx="32.87" ry="32.39"/>
<ellipse cx="0.00" cy="0.00" transform="translate(739.77,666.51) rotate(-96.9)" rx="32.89" ry="32.74"/>
</g>
<g fill="#ffffff">
<ellipse cx="0.00" cy="0.00" transform="translate(304.97,309.50) rotate(-165.1)" rx="14.44" ry="14.12"/>
<path d="
  M 286.64 742.77
  L 280.10 742.91
  L 273.73 742.47
  L 267.55 741.47
  L 261.55 739.90
  L 261.55 739.90
  L 257.38 738.43
  L 253.00 736.59
  L 248.81 734.57
  L 244.83 732.36
  L 241.05 729.98
  L 237.47 727.41
  L 234.10 724.67
  L 230.92 721.74
  L 227.94 718.63
  L 227.94 718.63
  L 227.94 718.63
  L 227.94 718.63
  L 225.02 715.16
  L 222.32 711.48
  L 219.84 707.60
  L 217.58 703.51
  L 215.55 699.23
  L 213.75 694.74
  L 212.17 690.06
  L 210.81 685.17
  L 210.01 681.32
  L 209.50 677.29
  L 209.25 673.03
  L 209.27 668.69
  L 209.57 664.28
  L 210.14 659.92
  L 210.97 655.67
  L 212.04 651.60
  L 214.72 644.05
  L 216.30 640.49
  L 218.03 637.07
  L 219.93 633.78
  L 221.98 630.64
  L 224.20 627.63
  L 226.57 624.76
  L 226.57 624.76
  L 226.57 624.76
  L 229.54 621.60
  L 232.72 618.63
  L 236.12 615.84
  L 239.74 613.25
  L 243.57 610.85
  L 247.61 608.63
  L 251.88 606.61
  L 256.36 604.77
  L 261.31 603.12
  L 266.50 601.83
  L 271.92 600.91
  L 277.57 600.36
  L 283.24 600.19
  L 288.73 600.42
  L 294.04 601.03
  L 299.17 602.04
  L 303.84 603.30
  L 308.33 604.77
  L 312.62 606.45
  L 316.73 608.35
  L 320.64 610.46
  L 324.37 612.79
  L 327.90 615.34
  L 331.25 618.10
  L 331.25 618.10
  L 331.25 618.10
  L 331.25 618.10
  L 331.25 618.10
  L 331.25 618.10
  L 333.96 620.64
  L 336.54 623.34
  L 338.98 626.20
  L 341.28 629.22
  L 343.44 632.39
  L 345.45 635.73
  L 349.07 642.87
  L 350.65 646.78
  L 352.00 650.88
  L 353.12 655.14
  L 353.98 659.48
  L 354.56 663.77
  L 354.85 668.03
  L 354.85 672.09
  L 354.54 676.02
  L 353.82 681.04
  L 352.84 685.89
  L 351.62 690.57
  L 350.15 695.07
  L 348.43 699.41
  L 346.47 703.57
  L 344.26 707.56
  L 341.79 711.38
  L 341.79 711.38
  L 339.24 714.84
  L 336.46 718.15
  L 333.45 721.30
  L 330.23 724.30
  L 326.78 727.14
  L 323.11 729.84
  L 319.22 732.37
  L 315.11 734.76
  L 311.16 736.74
  L 311.16 736.74
  L 311.16 736.74
  L 305.40 739.06
  L 299.40 740.84
  L 293.14 742.08
  L 286.64 742.77
  Z
  M 283.01 722.06
  L 286.86 721.85
  L 290.64 721.37
  L 294.33 720.62
  L 297.93 719.60
  L 301.48 718.32
  L 304.90 716.77
  L 308.18 714.98
  L 311.32 712.95
  L 316.03 709.21
  L 320.28 704.91
  L 323.97 700.15
  L 327.11 694.91
  L 329.70 689.16
  L 331.57 683.22
  L 332.72 677.15
  L 333.13 671.04
  L 332.81 664.98
  L 331.73 659.02
  L 329.95 653.34
  L 327.42 647.87
  L 325.29 644.35
  L 322.82 640.97
  L 319.35 637.05
  L 315.63 633.59
  L 311.67 630.58
  L 307.47 628.02
  L 304.53 626.56
  L 301.49 625.31
  L 298.35 624.25
  L 295.12 623.40
  L 291.80 622.76
  L 288.38 622.31
  L 284.89 622.07
  L 281.31 622.03
  L 277.73 622.19
  L 274.24 622.55
  L 270.85 623.11
  L 267.55 623.87
  L 264.35 624.83
  L 261.25 625.99
  L 258.25 627.35
  L 255.36 628.91
  L 251.25 631.60
  L 247.39 634.74
  L 243.79 638.33
  L 240.46 642.37
  L 238.11 645.83
  L 236.10 649.42
  L 233.76 654.97
  L 232.17 660.71
  L 231.30 666.71
  L 231.18 672.77
  L 231.80 678.87
  L 233.15 684.89
  L 235.23 690.77
  L 238.00 696.42
  L 241.33 701.56
  L 245.17 706.19
  L 249.56 710.34
  L 254.40 713.92
  L 257.60 715.84
  L 260.95 717.52
  L 264.42 718.95
  L 268.01 720.11
  L 271.64 721.00
  L 275.36 721.63
  L 279.15 721.99
  L 283.01 722.06
  Z"
/>
<path d="
  M 529.2904 611.0414
  L 534.6822 610.9498
  L 540.0573 611.3896
  L 545.3640 612.3568
  L 550.5512 613.8419
  L 555.5688 615.8307
  L 560.3686 618.3039
  L 564.9043 621.2379
  L 569.1323 624.6043
  L 573.0119 628.3707
  L 576.5056 632.5009
  L 579.5799 636.9550
  L 582.2051 641.6901
  L 584.3559 646.6608
  L 586.0117 651.8190
  L 587.1565 657.1152
  L 587.7792 662.4982
  L 587.8739 667.9164
  L 587.4396 673.3174
  L 586.4806 678.6493
  L 585.0061 683.8608
  L 583.0302 688.9016
  L 580.5720 693.7231
  L 577.6552 698.2791
  L 574.3079 702.5255
  L 570.5622 706.4215
  L 566.4543 709.9296
  L 562.0238 713.0159
  L 557.3133 715.6508
  L 552.3681 717.8089
  L 547.2360 719.4694
  L 541.9662 720.6163
  L 536.6096 721.2386
  L 536.6096 721.2386
  L 531.2178 721.3302
  L 525.8427 720.8904
  L 520.5360 719.9232
  L 515.3488 718.4381
  L 510.3312 716.4493
  L 505.5314 713.9761
  L 500.9957 711.0421
  L 496.7677 707.6757
  L 492.8881 703.9093
  L 489.3944 699.7791
  L 486.3201 695.3250
  L 483.6949 690.5899
  L 481.5441 685.6192
  L 479.8883 680.4610
  L 478.7435 675.1648
  L 478.1208 669.7818
  L 478.0261 664.3636
  L 478.4604 658.9626
  L 479.4194 653.6307
  L 480.8939 648.4192
  L 482.8698 643.3784
  L 485.3280 638.5569
  L 488.2448 634.0009
  L 491.5921 629.7545
  L 495.3378 625.8585
  L 499.4457 622.3504
  L 503.8762 619.2641
  L 508.5867 616.6292
  L 513.5319 614.4711
  L 518.6640 612.8106
  L 523.9338 611.6637
  L 529.2904 611.0414
  Z
  M 535.0467 633.6113
  L 531.8681 633.5755
  L 528.7009 633.8560
  L 525.5755 634.4500
  L 522.5219 635.3520
  L 519.5697 636.5532
  L 516.7471 638.0420
  L 514.0815 639.8041
  L 511.5985 641.8225
  L 509.3219 644.0779
  L 507.2738 646.5484
  L 505.4738 649.2102
  L 503.9393 652.0378
  L 502.6850 655.0039
  L 501.7231 658.0800
  L 501.0628 661.2363
  L 500.7104 664.4426
  L 500.6694 667.6680
  L 500.9401 670.8813
  L 501.5200 674.0516
  L 502.4034 677.1485
  L 503.5819 680.1420
  L 505.0441 683.0034
  L 506.7759 685.7051
  L 508.7606 688.2210
  L 510.9792 690.5270
  L 513.4102 692.6009
  L 516.0302 694.4226
  L 518.8141 695.9746
  L 521.7350 697.2420
  L 524.7647 698.2125
  L 527.8741 698.8769
  L 531.0333 699.2287
  L 531.0333 699.2287
  L 534.2119 699.2645
  L 537.3791 698.9840
  L 540.5045 698.3900
  L 543.5581 697.4880
  L 546.5103 696.2868
  L 549.3329 694.7980
  L 551.9985 693.0359
  L 554.4815 691.0175
  L 556.7581 688.7621
  L 558.8062 686.2916
  L 560.6062 683.6298
  L 562.1407 680.8022
  L 563.3950 677.8361
  L 564.3569 674.7600
  L 565.0172 671.6037
  L 565.3696 668.3974
  L 565.4106 665.1720
  L 565.1399 661.9587
  L 564.5600 658.7884
  L 563.6766 655.6915
  L 562.4981 652.6980
  L 561.0359 649.8366
  L 559.3041 647.1349
  L 557.3194 644.6190
  L 555.1008 642.3130
  L 552.6698 640.2391
  L 550.0498 638.4174
  L 547.2659 636.8654
  L 544.3450 635.5980
  L 541.3153 634.6275
  L 538.2059 633.9631
  L 535.0467 633.6113
  Z"
/>
<path d="
  M 757.5266 613.5927
  L 762.5918 615.6004
  L 767.4352 618.0968
  L 772.0102 621.0578
  L 776.2728 624.4549
  L 780.1820 628.2554
  L 783.7000 632.4226
  L 786.7931 636.9165
  L 789.4314 641.6937
  L 791.5894 646.7083
  L 793.2465 651.9120
  L 794.3867 657.2546
  L 794.9989 662.6847
  L 795.0774 668.1500
  L 794.6212 673.5979
  L 793.6349 678.9759
  L 792.1280 684.2322
  L 790.1148 689.3162
  L 787.6149 694.1789
  L 784.6523 698.7735
  L 781.2555 703.0557
  L 777.4573 706.9844
  L 773.2942 710.5216
  L 768.8063 713.6334
  L 764.0368 716.2897
  L 759.0317 718.4649
  L 753.8392 720.1381
  L 748.5093 721.2933
  L 743.0933 721.9192
  L 737.6433 722.0098
  L 732.2119 721.5644
  L 726.8514 720.5870
  L 721.6134 719.0873
  L 721.6134 719.0873
  L 716.5482 717.0796
  L 711.7048 714.5832
  L 707.1298 711.6222
  L 702.8672 708.2251
  L 698.9580 704.4246
  L 695.4400 700.2574
  L 692.3469 695.7635
  L 689.7086 690.9863
  L 687.5506 685.9717
  L 685.8935 680.7680
  L 684.7533 675.4254
  L 684.1411 669.9953
  L 684.0626 664.5300
  L 684.5188 659.0821
  L 685.5051 653.7041
  L 687.0120 648.4478
  L 689.0252 643.3638
  L 691.5251 638.5011
  L 694.4877 633.9065
  L 697.8845 629.6243
  L 701.6827 625.6956
  L 705.8458 622.1584
  L 710.3337 619.0466
  L 715.1032 616.3903
  L 720.1083 614.2151
  L 725.3008 612.5419
  L 730.6307 611.3867
  L 736.0467 610.7608
  L 741.4967 610.6702
  L 746.9281 611.1156
  L 752.2886 612.0930
  L 757.5266 613.5927
  Z
  M 735.8187 633.8582
  L 732.6519 634.4010
  L 729.5536 635.2530
  L 726.5538 636.4060
  L 723.6812 637.8489
  L 720.9635 639.5678
  L 718.4270 641.5462
  L 716.0960 643.7651
  L 713.9930 646.2029
  L 712.1383 648.8364
  L 710.5496 651.6400
  L 709.2424 654.5869
  L 708.2292 657.6486
  L 707.5197 660.7956
  L 707.1208 663.9977
  L 707.0363 667.2239
  L 707.2671 670.4433
  L 707.8109 673.6248
  L 708.6625 676.7378
  L 709.8137 679.7522
  L 711.2534 682.6392
  L 712.9677 685.3708
  L 714.9401 687.9208
  L 717.1516 690.2645
  L 719.5810 692.3796
  L 722.2048 694.2454
  L 724.9978 695.8442
  L 727.9330 697.1604
  L 730.9822 698.1815
  L 734.1161 698.8976
  L 737.3044 699.3017
  L 740.5164 699.3901
  L 743.7213 699.1618
  L 743.7213 699.1618
  L 746.8881 698.6190
  L 749.9864 697.7670
  L 752.9862 696.6140
  L 755.8588 695.1711
  L 758.5765 693.4522
  L 761.1130 691.4738
  L 763.4440 689.2549
  L 765.5470 686.8171
  L 767.4017 684.1836
  L 768.9904 681.3800
  L 770.2976 678.4331
  L 771.3108 675.3714
  L 772.0203 672.2244
  L 772.4192 669.0223
  L 772.5037 665.7961
  L 772.2729 662.5767
  L 771.7291 659.3952
  L 770.8775 656.2822
  L 769.7263 653.2678
  L 768.2866 650.3808
  L 766.5723 647.6492
  L 764.5999 645.0992
  L 762.3884 642.7555
  L 759.9590 640.6404
  L 757.3352 638.7746
  L 754.5422 637.1758
  L 751.6070 635.8596
  L 748.5578 634.8385
  L 745.4239 634.1224
  L 742.2356 633.7183
  L 739.0236 633.6299
  L 735.8187 633.8582
  Z"
/>
<ellipse cx="0.00" cy="0.00" transform="translate(615.34,664.10) rotate(-69.1)" rx="11.72" ry="11.44"/>
<ellipse cx="0.00" cy="0.00" transform="translate(656.76,663.91) rotate(-73.0)" rx="11.63" ry="11.37"/>
<circle cx="450.49" cy="664.08" r="11.56"/>
</g>
</svg>
