<?xml version="1.0" encoding="UTF-8" standalone="no"?>
<!DOCTYPE svg PUBLIC "-//W3C//DTD SVG 1.1//EN" "http://www.w3.org/Graphics/SVG/1.1/DTD/svg11.dtd">
<svg xmlns="http://www.w3.org/2000/svg" version="1.1" viewBox="0.00 0.00 962.00 955.00" width="962.00" height="955.00">
<g fill="#00df7b">
<path d="
  M 929.04 303.27
  L 935.80 321.83
  L 941.77 340.56
  L 944.46 349.98
  L 946.95 359.45
  L 949.25 368.95
  L 951.35 378.50
  L 951.35 378.50
  L 951.35 378.50
  L 954.93 397.52
  L 957.74 416.70
  L 959.78 436.04
  L 961.05 455.54
  L 961.44 468.15
  L 961.48 480.59
  L 961.14 492.85
  L 960.45 504.93
  L 959.40 517.40
  L 958.09 529.73
  L 956.52 541.93
  L 954.68 553.99
  L 951.79 569.74
  L 948.27 585.71
  L 944.10 601.91
  L 939.29 618.32
  L 936.27 627.70
  L 933.07 637.00
  L 929.69 646.20
  L 926.13 655.31
  L 922.39 664.33
  L 918.47 673.26
  L 914.37 682.09
  L 910.08 690.84
  L 910.08 690.84
  L 910.08 690.84
  L 910.08 690.84
  L 910.08 690.84
  L 904.38 701.82
  L 898.38 712.65
  L 892.10 723.33
  L 885.52 733.87
  L 878.65 744.26
  L 871.48 754.50
  L 864.03 764.60
  L 856.28 774.55
  L 847.44 785.27
  L 838.28 795.75
  L 828.72 806.03
  L 818.85 816.04
  L 808.68 825.77
  L 798.21 835.22
  L 787.47 844.35
  L 776.47 853.18
  L 765.21 861.68
  L 753.72 869.85
  L 742.00 877.68
  L 730.07 885.15
  L 717.96 892.25
  L 705.66 898.97
  L 693.28 905.27
  L 680.73 911.19
  L 664.62 918.15
  L 648.34 924.50
  L 631.88 930.24
  L 615.25 935.37
  L 615.25 935.37
  L 615.25 935.37
  L 599.08 939.74
  L 582.74 943.54
  L 566.24 946.78
  L 549.58 949.46
  L 532.14 951.63
  L 514.69 953.15
  L 503.09 953.81
  L 491.49 954.18
  L 479.91 954.27
  L 468.33 954.08
  L 456.71 953.60
  L 445.11 952.85
  L 433.53 951.81
  L 421.97 950.50
  L 410.37 948.90
  L 398.81 947.02
  L 387.27 944.86
  L 375.78 942.43
  L 364.29 939.72
  L 352.83 936.73
  L 341.43 933.46
  L 330.08 929.93
  L 313.46 924.19
  L 297.09 917.82
  L 297.09 917.82
  L 287.26 913.63
  L 277.52 909.21
  L 267.87 904.56
  L 258.32 899.68
  L 246.93 893.50
  L 235.76 887.07
  L 224.81 880.37
  L 214.08 873.42
  L 203.56 866.20
  L 193.26 858.72
  L 183.17 850.99
  L 173.30 842.99
  L 173.30 842.99
  L 173.30 842.99
  L 173.30 842.99
  L 173.30 842.99
  L 162.67 833.86
  L 152.30 824.42
  L 142.20 814.67
  L 132.36 804.59
  L 122.78 794.20
  L 113.47 783.50
  L 104.42 772.47
  L 95.63 761.13
  L 85.79 747.56
  L 76.47 733.66
  L 67.60 719.36
  L 59.26 704.78
  L 51.44 689.88
  L 44.15 674.71
  L 37.42 659.30
  L 31.23 643.67
  L 25.61 627.81
  L 20.54 611.76
  L 16.06 595.54
  L 12.15 579.15
  L 8.83 562.65
  L 6.10 546.03
  L 3.98 529.40
  L 2.46 512.69
  L 1.53 496.45
  L 1.11 480.30
  L 1.21 464.25
  L 1.83 448.30
  L 2.97 432.45
  L 4.62 416.70
  L 6.80 401.05
  L 9.48 385.49
  L 9.48 385.49
  L 9.48 385.49
  L 9.48 385.49
  L 12.20 372.25
  L 15.29 359.08
  L 18.77 345.98
  L 22.62 332.95
  L 26.85 319.99
  L 31.47 307.11
  L 36.46 294.30
  L 41.83 281.56
  L 47.42 269.32
  L 53.39 257.22
  L 59.76 245.27
  L 66.52 233.46
  L 73.66 221.80
  L 81.20 210.29
  L 89.12 198.93
  L 97.44 187.71
  L 104.87 178.22
  L 112.50 168.96
  L 120.33 159.93
  L 128.36 151.13
  L 136.59 142.55
  L 145.02 134.20
  L 153.64 126.08
  L 162.46 118.18
  L 171.27 110.69
  L 180.27 103.42
  L 189.46 96.36
  L 198.84 89.52
  L 208.40 82.90
  L 218.16 76.49
  L 228.10 70.30
  L 238.24 64.33
  L 247.12 59.36
  L 256.07 54.60
  L 265.09 50.03
  L 274.19 45.66
  L 283.36 41.50
  L 292.60 37.53
  L 301.92 33.76
  L 311.31 30.19
  L 311.31 30.19
  L 311.31 30.19
  L 311.31 30.19
  L 311.31 30.19
  L 311.31 30.19
  L 324.43 25.58
  L 337.69 21.35
  L 351.09 17.51
  L 364.63 14.05
  L 378.31 10.97
  L 392.13 8.27
  L 406.10 5.95
  L 420.20 4.02
  L 436.51 2.27
  L 452.75 1.04
  L 468.91 0.33
  L 485.01 0.14
  L 501.03 0.46
  L 516.99 1.31
  L 532.87 2.68
  L 548.69 4.57
  L 548.69 4.57
  L 548.69 4.57
  L 558.51 6.01
  L 568.32 7.65
  L 578.09 9.50
  L 587.84 11.55
  L 597.56 13.80
  L 607.25 16.25
  L 616.91 18.90
  L 626.55 21.76
  L 639.56 25.98
  L 652.53 30.65
  L 665.47 35.75
  L 678.38 41.29
  L 691.26 47.27
  L 704.10 53.69
  L 716.91 60.55
  L 729.68 67.85
  L 741.80 75.25
  L 741.80 75.25
  L 741.80 75.25
  L 753.18 82.70
  L 764.35 90.49
  L 775.29 98.63
  L 786.01 107.12
  L 796.52 115.95
  L 806.80 125.13
  L 816.87 134.66
  L 826.71 144.54
  L 839.65 158.36
  L 851.80 172.31
  L 863.15 186.37
  L 873.70 200.55
  L 881.36 211.62
  L 888.68 222.88
  L 895.66 234.32
  L 902.30 245.95
  L 902.30 245.95
  L 902.30 245.95
  L 909.69 259.89
  L 916.61 274.09
  L 923.06 288.55
  L 929.04 303.27
  Z
  M 552.95 315.07
  L 553.11 315.66
  L 553.48 316.15
  L 553.99 316.47
  L 554.59 316.58
  L 578.21 316.58
  L 578.27 316.58
  L 578.93 316.42
  L 579.48 316.02
  L 579.83 315.43
  L 579.92 314.75
  L 579.78 308.05
  L 580.19 301.43
  L 580.74 297.21
  L 581.51 293.04
  L 582.51 288.93
  L 583.71 284.89
  L 585.14 280.87
  L 586.77 276.93
  L 588.61 273.08
  L 590.65 269.33
  L 592.89 265.66
  L 595.31 262.11
  L 597.92 258.67
  L 600.71 255.36
  L 603.67 252.18
  L 606.80 249.13
  L 610.10 246.23
  L 613.55 243.48
  L 617.42 240.73
  L 621.44 238.21
  L 625.67 235.89
  L 630.02 233.83
  L 634.50 232.01
  L 639.06 230.46
  L 643.71 229.17
  L 648.43 228.15
  L 653.19 227.39
  L 657.99 226.91
  L 662.82 226.70
  L 667.66 226.76
  L 672.48 227.10
  L 677.28 227.72
  L 681.96 228.60
  L 686.59 229.75
  L 692.92 231.79
  L 699.03 234.31
  L 704.97 237.32
  L 710.64 240.76
  L 716.07 244.66
  L 721.16 248.96
  L 725.89 253.62
  L 730.25 258.63
  L 734.23 263.98
  L 737.78 269.63
  L 740.82 275.45
  L 743.41 281.50
  L 745.47 287.65
  L 747.04 293.98
  L 748.08 300.34
  L 748.60 306.83
  L 748.62 312.48
  L 748.43 313.71
  L 747.95 314.75
  L 747.95 314.75
  L 747.11 315.64
  L 745.94 316.30
  L 745.15 316.46
  L 715.70 316.66
  L 709.72 316.93
  L 703.90 317.66
  L 698.24 318.86
  L 692.75 320.51
  L 692.75 320.51
  L 692.75 320.51
  L 687.70 322.51
  L 687.46 322.62
  L 682.45 325.17
  L 677.64 328.25
  L 672.99 331.89
  L 668.54 336.06
  L 664.24 340.81
  L 660.08 346.14
  L 656.00 352.11
  L 651.78 359.03
  L 642.84 374.80
  L 631.81 394.78
  L 629.01 400.45
  L 625.58 408.55
  L 625.07 409.80
  L 623.44 414.45
  L 622.28 419.32
  L 621.58 424.43
  L 621.35 429.77
  L 621.47 633.75
  L 621.67 638.56
  L 622.23 643.39
  L 623.16 648.10
  L 624.40 652.55
  L 625.98 656.83
  L 627.85 660.77
  L 630.08 664.56
  L 632.55 667.96
  L 635.86 671.72
  L 639.41 675.02
  L 643.20 677.86
  L 647.22 680.25
  L 647.22 680.25
  L 652.34 682.51
  L 657.79 684.12
  L 663.59 685.09
  L 669.72 685.40
  L 818.75 685.42
  L 823.43 685.29
  L 828.02 684.82
  L 832.51 684.03
  L 836.90 682.91
  L 836.90 682.91
  L 836.90 682.91
  L 840.50 681.71
  L 843.45 680.52
  L 846.28 679.15
  L 851.62 675.94
  L 856.55 672.05
  L 860.91 667.61
  L 864.70 662.63
  L 866.35 659.96
  L 867.82 657.20
  L 870.20 651.49
  L 871.12 648.51
  L 871.84 645.46
  L 872.58 640.66
  L 872.82 635.74
  L 872.82 427.00
  L 872.56 422.68
  L 871.80 418.17
  L 870.52 413.50
  L 868.73 408.64
  L 866.16 403.13
  L 863.12 397.80
  L 859.80 392.93
  L 856.29 388.70
  L 827.68 357.99
  L 818.65 348.61
  L 810.03 340.25
  L 801.82 332.89
  L 794.01 326.55
  L 789.58 323.32
  L 785.29 320.56
  L 783.93 319.99
  L 781.07 318.88
  L 779.87 318.10
  L 778.81 317.18
  L 778.81 317.18
  L 778.81 317.18
  L 778.81 317.18
  L 777.92 316.10
  L 777.17 314.88
  L 776.72 313.64
  L 776.36 311.82
  L 775.87 306.42
  L 774.99 296.49
  L 774.26 291.64
  L 773.33 286.87
  L 772.21 282.18
  L 770.90 277.57
  L 769.39 273.04
  L 767.69 268.59
  L 767.69 268.59
  L 764.42 261.32
  L 760.60 254.27
  L 756.25 247.45
  L 751.35 240.84
  L 746.41 235.02
  L 741.18 229.62
  L 735.64 224.63
  L 729.80 220.05
  L 729.80 220.05
  L 729.80 220.05
  L 723.64 215.87
  L 717.18 212.10
  L 710.42 208.75
  L 703.36 205.81
  L 694.73 202.96
  L 685.88 200.86
  L 676.78 199.48
  L 667.58 198.85
  L 658.33 198.98
  L 649.13 199.87
  L 640.16 201.50
  L 631.39 203.87
  L 625.86 205.78
  L 620.47 207.96
  L 615.15 210.43
  L 609.99 213.16
  L 604.97 216.15
  L 600.14 219.39
  L 595.49 222.86
  L 591.04 226.55
  L 587.52 229.77
  L 584.14 233.13
  L 580.91 236.62
  L 577.82 240.25
  L 574.90 244.01
  L 572.13 247.89
  L 569.52 251.89
  L 567.08 256.01
  L 564.83 260.20
  L 562.75 264.50
  L 560.84 268.89
  L 559.12 273.38
  L 557.60 277.90
  L 556.27 282.51
  L 555.12 287.19
  L 554.16 291.95
  L 553.29 297.85
  L 552.79 303.67
  L 552.68 309.41
  L 552.95 315.07
  Z
  M 283.31 626.59
  L 279.76 628.16
  L 276.31 630.03
  L 273.01 632.19
  L 269.88 634.62
  L 266.99 637.27
  L 264.34 640.14
  L 262.03 643.14
  L 260.00 646.30
  L 257.52 651.14
  L 255.62 656.03
  L 254.31 660.97
  L 253.57 665.96
  L 253.57 665.96
  L 253.57 665.96
  L 253.57 665.96
  L 253.41 669.01
  L 253.46 672.07
  L 253.72 675.16
  L 254.20 678.26
  L 255.67 684.35
  L 257.72 690.00
  L 260.36 695.19
  L 263.57 699.92
  L 263.57 699.92
  L 263.57 699.92
  L 266.62 703.45
  L 270.06 706.67
  L 272.93 708.93
  L 275.90 710.94
  L 278.98 712.71
  L 282.16 714.22
  L 282.16 714.22
  L 282.16 714.22
  L 282.16 714.22
  L 286.47 715.83
  L 290.95 717.02
  L 295.62 717.79
  L 300.47 718.14
  L 304.36 718.09
  L 308.18 717.73
  L 311.64 717.12
  L 315.01 716.27
  L 318.38 715.14
  L 321.64 713.78
  L 324.80 712.17
  L 327.82 710.34
  L 330.70 708.29
  L 333.41 706.05
  L 335.95 703.61
  L 338.31 700.99
  L 340.47 698.19
  L 342.42 695.24
  L 344.14 692.16
  L 345.64 688.95
  L 346.85 685.70
  L 347.83 682.34
  L 348.67 678.24
  L 349.13 674.02
  L 349.18 668.46
  L 348.61 662.97
  L 347.44 657.61
  L 345.69 652.44
  L 343.38 647.55
  L 340.52 642.96
  L 337.18 638.79
  L 333.34 635.02
  L 331.08 633.18
  L 328.14 631.08
  L 325.16 629.26
  L 322.15 627.69
  L 319.10 626.40
  L 318.91 626.25
  L 318.88 625.82
  L 319.25 625.60
  L 474.20 625.60
  L 474.45 625.75
  L 474.44 626.05
  L 474.30 626.15
  L 471.01 627.44
  L 467.89 628.97
  L 464.36 631.13
  L 461.09 633.58
  L 458.03 636.39
  L 455.25 639.46
  L 452.72 642.85
  L 450.50 646.46
  L 448.57 650.35
  L 447.00 654.40
  L 445.79 658.55
  L 444.95 662.80
  L 444.49 667.11
  L 444.40 671.45
  L 444.69 675.73
  L 445.37 679.99
  L 446.41 684.09
  L 447.84 688.10
  L 450.14 692.98
  L 452.89 697.49
  L 456.08 701.61
  L 459.68 705.33
  L 463.95 708.84
  L 468.65 711.83
  L 473.66 714.27
  L 479.03 716.17
  L 483.30 717.22
  L 487.57 717.85
  L 491.91 718.10
  L 496.21 717.94
  L 501.84 717.11
  L 507.31 715.61
  L 512.63 713.42
  L 517.67 710.60
  L 522.32 707.20
  L 526.58 703.23
  L 530.34 698.80
  L 533.62 693.88
  L 535.53 690.22
  L 537.08 686.37
  L 538.30 682.29
  L 539.15 678.11
  L 539.65 673.80
  L 539.76 669.49
  L 539.50 665.22
  L 538.87 661.04
  L 537.70 656.37
  L 536.11 651.95
  L 534.07 647.69
  L 531.63 643.70
  L 529.49 640.83
  L 527.13 638.14
  L 524.56 635.64
  L 521.78 633.33
  L 518.82 631.21
  L 515.67 629.31
  L 512.34 627.61
  L 508.85 626.13
  L 508.68 625.92
  L 508.79 625.68
  L 508.79 625.68
  L 508.93 625.63
  L 535.26 625.50
  L 538.53 625.18
  L 541.46 624.16
  L 541.46 624.16
  L 542.86 623.34
  L 544.16 622.33
  L 545.37 621.12
  L 546.48 619.72
  L 547.96 617.00
  L 548.43 615.51
  L 548.68 614.01
  L 548.59 611.09
  L 547.78 608.26
  L 546.29 605.63
  L 544.19 603.27
  L 542.36 601.95
  L 540.18 601.01
  L 537.64 600.45
  L 534.75 600.27
  L 385.00 600.53
  L 292.00 600.85
  L 287.54 600.76
  L 283.21 600.35
  L 278.99 599.63
  L 274.89 598.58
  L 272.41 597.73
  L 270.10 596.73
  L 267.86 595.52
  L 265.78 594.17
  L 263.05 591.95
  L 260.63 589.45
  L 258.45 586.64
  L 256.46 583.43
  L 254.74 579.95
  L 253.23 576.09
  L 251.93 571.83
  L 250.86 567.23
  L 250.84 567.12
  L 251.11 566.32
  L 251.88 565.98
  L 498.77 565.88
  L 512.06 565.66
  L 522.77 564.98
  L 526.87 564.42
  L 531.09 563.52
  L 535.43 562.27
  L 539.90 560.68
  L 543.57 559.11
  L 547.04 557.31
  L 550.21 555.34
  L 553.16 553.15
  L 555.79 550.82
  L 558.17 548.29
  L 560.24 545.62
  L 562.05 542.74
  L 563.87 539.03
  L 565.27 535.02
  L 566.98 529.79
  L 568.62 524.77
  L 575.14 501.28
  L 579.82 483.61
  L 613.78 350.57
  L 614.19 348.52
  L 614.35 346.48
  L 614.27 344.49
  L 613.95 342.57
  L 613.41 340.78
  L 612.65 339.11
  L 611.65 337.58
  L 610.44 336.20
  L 609.12 335.09
  L 607.61 334.15
  L 606.01 333.43
  L 604.25 332.90
  L 604.14 332.89
  L 193.67 332.94
  L 192.98 332.83
  L 192.36 332.50
  L 191.89 331.99
  L 191.60 331.35
  L 180.27 288.78
  L 179.87 287.76
  L 178.54 285.61
  L 177.05 283.71
  L 175.39 282.08
  L 173.56 280.70
  L 171.10 279.36
  L 169.20 278.73
  L 166.70 278.27
  L 163.60 277.98
  L 159.90 277.86
  L 141.53 278.05
  L 127.64 278.25
  L 117.54 278.12
  L 113.89 278.16
  L 110.84 278.58
  L 108.25 279.38
  L 106.07 280.57
  L 104.62 281.74
  L 103.29 283.21
  L 102.11 285.01
  L 101.28 286.90
  L 100.74 289.18
  L 100.62 291.47
  L 100.94 293.83
  L 101.66 296.07
  L 102.77 298.15
  L 104.24 299.98
  L 105.96 301.46
  L 107.95 302.59
  L 110.34 303.36
  L 112.99 303.62
  L 155.23 303.61
  L 156.79 303.81
  L 158.08 304.39
  L 158.68 305.20
  L 159.64 308.58
  L 190.80 433.24
  L 227.12 577.41
  L 228.78 583.18
  L 230.76 588.68
  L 233.03 593.77
  L 235.63 598.57
  L 238.47 602.93
  L 241.65 606.98
  L 245.10 610.64
  L 248.88 613.97
  L 253.41 617.23
  L 258.36 620.07
  L 263.64 622.43
  L 269.34 624.34
  L 272.54 625.09
  L 276.23 625.64
  L 283.23 626.16
  L 283.36 626.20
  L 283.45 626.41
  L 283.31 626.59
  Z"
/>
<path d="
  M 310.93 359.53
  L 318.77 435.32
  L 318.50 436.17
  L 317.68 436.53
  L 218.72 436.53
  L 218.04 436.30
  L 217.65 435.70
  L 198.63 359.91
  L 198.71 359.16
  L 199.11 358.71
  L 199.70 358.54
  L 309.84 358.54
  L 310.35 358.67
  L 310.75 359.03
  L 310.93 359.53
  Z"
/>
<path d="
  M 344.34 435.46
  L 336.53 359.93
  L 336.59 359.41
  L 336.85 358.96
  L 337.27 358.66
  L 337.78 358.55
  L 443.64 358.55
  L 444.35 358.77
  L 444.78 359.27
  L 444.89 359.92
  L 437.51 435.45
  L 437.11 436.26
  L 436.27 436.58
  L 345.59 436.58
  L 344.98 436.42
  L 344.54 436.02
  L 344.34 435.46
  Z"
/>
<path d="
  M 463.57 435.08
  L 470.41 359.74
  L 470.84 358.87
  L 471.74 358.52
  L 583.10 358.52
  L 583.92 358.80
  L 584.37 359.42
  L 584.40 360.19
  L 565.50 435.53
  L 565.03 436.26
  L 564.20 436.54
  L 464.91 436.54
  L 464.37 436.43
  L 463.92 436.10
  L 463.64 435.63
  L 463.57 435.08
  Z"
/>
<path d="
  M 759.37 455.40
  L 755.64 456.79
  L 751.90 457.80
  L 748.06 458.45
  L 744.23 458.74
  L 738.83 458.53
  L 733.54 457.61
  L 728.32 456.00
  L 723.33 453.72
  L 718.57 450.79
  L 714.15 447.26
  L 710.18 443.24
  L 706.65 438.72
  L 704.87 435.92
  L 703.38 433.04
  L 702.16 430.09
  L 701.24 427.07
  L 701.24 427.07
  L 701.24 427.07
  L 700.40 422.65
  L 700.14 418.08
  L 700.46 413.36
  L 701.34 408.50
  L 702.94 403.72
  L 705.71 397.93
  L 707.45 394.99
  L 709.41 392.29
  L 711.55 389.84
  L 713.87 387.62
  L 716.46 385.55
  L 719.22 383.69
  L 722.29 381.97
  L 725.51 380.46
  L 729.03 379.10
  L 732.67 377.96
  L 738.35 376.73
  L 743.97 376.27
  L 746.71 376.34
  L 749.38 376.61
  L 754.49 377.72
  L 758.43 379.16
  L 762.16 381.06
  L 765.75 383.44
  L 769.12 386.26
  L 772.34 389.57
  L 775.30 393.28
  L 778.06 397.44
  L 780.54 401.96
  L 781.74 404.62
  L 782.75 407.38
  L 783.54 410.23
  L 784.11 413.14
  L 784.44 416.03
  L 784.54 418.95
  L 784.39 421.76
  L 784.01 424.57
  L 782.76 429.86
  L 780.99 434.74
  L 778.70 439.20
  L 775.89 443.26
  L 775.89 443.26
  L 775.89 443.26
  L 772.55 446.92
  L 768.68 450.16
  L 764.29 452.99
  L 759.37 455.40
  Z"
/>
<path d="
  M 329.10 540.27
  L 244.53 540.27
  L 244.22 540.19
  L 243.87 539.76
  L 224.61 463.02
  L 224.74 462.43
  L 225.27 462.17
  L 321.16 462.17
  L 321.61 462.35
  L 321.83 462.78
  L 329.77 539.52
  L 329.60 540.05
  L 329.10 540.27
  Z"
/>
<path d="
  M 355.29 539.57
  L 347.35 462.79
  L 347.49 462.37
  L 347.89 462.19
  L 433.87 462.19
  L 434.27 462.37
  L 434.41 462.78
  L 426.92 539.56
  L 426.74 539.91
  L 426.38 540.05
  L 355.83 540.05
  L 355.47 539.91
  L 355.29 539.57
  Z"
/>
<path d="
  M 557.87 462.18
  L 558.44 462.44
  L 558.63 463.04
  L 558.63 463.04
  L 558.61 463.13
  L 544.54 517.53
  L 543.53 520.74
  L 542.28 523.84
  L 542.28 523.84
  L 540.85 526.70
  L 539.19 529.46
  L 537.31 532.12
  L 535.20 534.67
  L 533.33 535.82
  L 529.38 537.35
  L 525.31 538.40
  L 519.43 539.31
  L 514.90 539.74
  L 509.84 539.98
  L 496.53 539.95
  L 488.42 539.88
  L 453.63 540.04
  L 452.95 539.74
  L 452.69 539.05
  L 452.69 539.01
  L 459.50 463.96
  L 459.70 463.27
  L 460.13 462.69
  L 460.74 462.31
  L 461.45 462.18
  L 557.87 462.18
  Z"
/>
<path d="
  M 678.77 559.16
  L 678.83 585.75
  L 678.70 588.06
  L 678.27 590.14
  L 677.55 591.99
  L 676.54 593.63
  L 676.54 593.63
  L 676.54 593.63
  L 676.54 593.63
  L 675.53 594.76
  L 674.34 595.75
  L 672.97 596.60
  L 671.41 597.31
  L 669.51 597.87
  L 667.60 598.07
  L 667.60 598.07
  L 667.60 598.07
  L 665.94 597.96
  L 664.29 597.58
  L 662.63 596.94
  L 660.96 596.03
  L 659.28 594.75
  L 657.93 593.22
  L 657.93 593.22
  L 657.08 591.78
  L 656.46 590.18
  L 656.06 588.41
  L 655.90 586.47
  L 655.73 571.43
  L 655.74 548.25
  L 655.96 545.56
  L 656.57 542.91
  L 657.48 540.68
  L 658.63 538.95
  L 661.09 536.63
  L 662.43 535.75
  L 663.85 535.06
  L 663.85 535.06
  L 663.85 535.06
  L 666.08 534.39
  L 674.94 534.25
  L 742.67 534.32
  L 743.07 534.17
  L 743.26 533.80
  L 744.26 526.78
  L 745.79 520.13
  L 747.85 513.85
  L 750.45 507.95
  L 753.32 502.88
  L 756.59 498.25
  L 760.32 494.03
  L 764.39 490.33
  L 768.80 487.17
  L 773.48 484.59
  L 778.33 482.64
  L 783.39 481.30
  L 786.51 480.79
  L 789.70 480.51
  L 792.93 480.48
  L 796.21 480.69
  L 799.48 481.14
  L 802.77 481.84
  L 805.99 482.76
  L 809.22 483.92
  L 814.11 486.12
  L 818.63 488.70
  L 822.79 491.66
  L 826.58 494.99
  L 826.58 494.99
  L 826.58 494.99
  L 826.58 494.99
  L 828.78 497.28
  L 830.84 499.72
  L 832.74 502.31
  L 834.51 505.04
  L 837.60 510.96
  L 840.11 517.47
  L 841.52 522.17
  L 842.68 526.90
  L 843.60 531.65
  L 844.27 536.44
  L 844.27 536.44
  L 844.84 544.20
  L 844.78 552.03
  L 844.08 559.94
  L 842.75 567.92
  L 841.23 574.04
  L 839.27 579.80
  L 836.83 585.28
  L 834.00 590.29
  L 830.75 594.87
  L 827.17 598.92
  L 823.15 602.56
  L 818.85 605.63
  L 815.71 607.43
  L 811.63 609.36
  L 807.47 610.94
  L 803.25 612.14
  L 798.99 612.96
  L 794.77 613.38
  L 790.55 613.40
  L 786.44 613.04
  L 782.36 612.27
  L 778.70 611.22
  L 775.10 609.83
  L 771.65 608.14
  L 768.28 606.10
  L 765.37 604.05
  L 762.64 601.86
  L 760.01 599.49
  L 757.56 596.99
  L 754.36 593.19
  L 751.51 589.15
  L 748.95 584.79
  L 746.75 580.23
  L 744.84 575.30
  L 743.29 570.18
  L 742.05 564.75
  L 741.17 559.17
  L 740.98 558.81
  L 740.60 558.67
  L 717.66 558.67
  L 717.25 558.84
  L 717.08 559.24
  L 717.18 577.26
  L 717.08 579.21
  L 716.75 581.00
  L 716.18 582.64
  L 715.38 584.12
  L 715.38 584.12
  L 715.38 584.12
  L 715.38 584.12
  L 714.43 585.33
  L 713.30 586.41
  L 711.96 587.36
  L 710.43 588.18
  L 708.12 588.93
  L 705.48 589.10
  L 702.70 588.59
  L 700.92 587.94
  L 699.37 587.12
  L 698.02 586.12
  L 696.90 584.94
  L 696.90 584.94
  L 696.90 584.94
  L 696.90 584.94
  L 695.93 583.49
  L 695.22 581.84
  L 694.75 579.99
  L 694.53 577.94
  L 694.29 568.59
  L 694.40 559.29
  L 694.23 558.86
  L 693.81 558.67
  L 693.80 558.67
  L 679.26 558.67
  L 678.91 558.81
  L 678.77 559.16
  Z
  M 792.94 503.67
  L 788.40 504.09
  L 786.24 504.59
  L 784.15 505.27
  L 784.15 505.27
  L 784.15 505.27
  L 784.15 505.27
  L 780.85 506.83
  L 777.73 508.91
  L 774.82 511.51
  L 772.11 514.63
  L 769.92 517.79
  L 767.97 521.31
  L 766.37 525.01
  L 765.04 529.04
  L 764.03 533.26
  L 763.31 537.77
  L 762.89 542.54
  L 762.78 547.50
  L 762.99 552.47
  L 763.50 557.22
  L 764.31 561.71
  L 765.41 565.92
  L 766.82 569.92
  L 768.50 573.59
  L 770.51 577.07
  L 772.77 580.18
  L 775.55 583.25
  L 778.51 585.79
  L 781.66 587.80
  L 785.00 589.29
  L 787.10 589.94
  L 789.27 590.39
  L 793.82 590.72
  L 798.35 590.30
  L 800.52 589.80
  L 802.60 589.11
  L 802.60 589.11
  L 805.91 587.56
  L 809.02 585.48
  L 811.94 582.88
  L 814.65 579.76
  L 816.84 576.60
  L 818.79 573.08
  L 820.39 569.38
  L 821.72 565.35
  L 822.73 561.12
  L 823.45 556.62
  L 823.87 551.85
  L 823.97 546.88
  L 823.77 541.92
  L 823.26 537.16
  L 822.44 532.67
  L 821.35 528.47
  L 819.94 524.47
  L 818.26 520.80
  L 816.24 517.32
  L 813.99 514.20
  L 811.21 511.14
  L 808.25 508.60
  L 805.09 506.58
  L 801.76 505.10
  L 799.65 504.45
  L 797.48 504.00
  L 792.94 503.67
  Z"
/>
<circle cx="491.84" cy="670.12" r="21.51"/>
<circle cx="301.36" cy="670.24" r="21.48"/>
</g>
</svg>
